M48
;Layer_Color=9474304
;FILE_FORMAT=2:5
INCH,TZ
;TYPE=PLATED
T1F00S00C0.01181
T2F00S00C0.01575
T3F00S00C0.02362
T4F00S00C0.02800
T5F00S00C0.03150
T6F00S00C0.03500
T7F00S00C0.03543
T8F00S00C0.03937
T9F00S00C0.06299
T10F00S00C0.13386
T11F00S00C0.18189
T12F00S00C0.31496
%
T01
X-165847Y-246555
X-131502Y-233082
X-106988Y-233957
X-102559Y-218209
X-98721Y-212935
X-94488Y-186614
X-80512Y-132030
X-75886Y-125303
X-66536Y-141282
X-127709
X-57284Y-218307
X-76386Y-257768
X-31596Y-156602
X-25177Y-125803
X-18177Y-126303
X8323Y-146803
X6299Y-161024
X29823Y-145803
X37823Y-133803
X62500Y-137640
X88878Y-134097
X80512Y-157972
X79823Y-239665
X109153Y-235630
X273720Y-86262
X282972Y-81931
X277114Y-40677
X289272Y27025
X292421Y29388
X295079Y32045
X318898Y29683
X321358Y26337
X323441Y33016
X270571Y32833
X271555Y8325
X211713Y4880
X131642Y15721
X133905Y26744
X120421Y-7213
X120815Y-14102
X121653Y-46793
X194323Y-114370
X269947Y-89801
X115256Y-75632
X85827Y-61164
X81642Y-53866
X83020Y-37134
X28839Y-38821
X28802Y-34999
X37598Y-11656
X45571Y-5707
X43551Y-1602
X-10728Y7492
X-20965Y9055
X-25197Y-5945
X-36713Y-16085
X-10073Y-14139
X-36909Y-56537
X-27177Y-116803
X-17177
X40453Y-117069
Y-119727
X58366Y-120219
X58563Y-117167
X72047Y-111951
X-41242Y-102719
X-44786Y-102817
X-48329
X-51873
X-55416Y-103014
X-50787Y-95571
X-58760Y-59842
X-62992
X-76042Y-69303
X-79728Y-68545
X-86713Y-69727
X-86811Y-55356
X-84055Y-45809
X-79429
X-75689Y-31538
X-73622Y-27896
X-79776Y-24254
X-71063Y-19316
X-77461Y9407
X-67618Y12402
X-82973Y17183
X-85197Y27911
Y32242
X-88878Y24409
X-110532Y1730
X-110925Y-9982
X-113091Y-15494
X-117965Y-13512
X-131595Y2518
X-109941Y-39313
X-117571Y-74446
X-117571Y-78079
X-121606Y-71681
X-127067Y-82579
X-113386Y-85475
X-125394Y-100000
X-45571Y-31439
X-41634Y-31341
X-212234Y-53319
X-211127Y-117069
X-210630Y52490
X-127709Y75957
X-123673Y85110
X-85126Y36167
X-70276Y37213
X-192913Y185039
X5709Y181299
X-2362Y171063
X57579Y66437
X53740Y57185
X70669Y75787
X76575
X83858Y74803
X121161Y93167
X152067Y132087
X144980Y142913
X162008Y142872
X171358Y143405
X194882Y140707
X184843Y166831
X210433Y75254
X268701Y79191
X279527Y86474
X282794Y89411
X279724Y94742
X184646Y202260
X169193Y208071
X165551Y244240
X144095Y256594
X107776Y264862
X107571Y274410
X-143996Y256890
X-149606Y241535
X-172146Y207382
T02
X-216563Y-247575
X-204752
X-198847Y-235764
X-210658
X-222469
X-216563Y-223953
X-204752
X-228374
X-240185
X-234280Y-212142
X-246091
X-240185Y-200331
X-228374
X-222469Y-188520
X-210658
X-198847
X-204752Y-176709
X-216563
X-228374
X-240185
X-251996
X-263807
X-275618
X-269713Y-164898
X-281524
X-275618Y-153087
X-287429
X-281524Y-141276
X-293335
X-287429Y-129465
X-275618
X-263807
X-251996
X-240185
X-228374
X-216563
X-204752
X-198847Y-141276
X-210658
X-222469
X-234280
Y-164898
X-222469
X-210658
X-204752Y-153087
X-246091Y-164898
Y-188520
X-234280
X-257902
X-269713
X-251996Y-200331
X-198847Y-259386
X-299240Y-129465
X-145697
X-133886
X-122075
X-110264
X-98453
X-86642
X-80736Y-188520
X-74831Y-200331
X-68925Y-212142
Y-235764
X-80736
X-86642Y-247575
X-98453
X-104358Y-259386
X-116170
X-127980
X-122075Y-271197
X-110264
X-98453
X-86642
X-74831
X-63020
X-68925Y-259386
X-63020Y-247575
X-45303Y-259386
X-51209Y-223953
X-98453
X-110264
X-104358Y-212142
X-116170
X-127980
X-139792
X-151602
X-163414
X-175225
X-187036
X-181130Y-200331
X-169319
X-157508
X-145697
X-133886
X-122075
X-110264
X-104358Y-188520
X-116170
X-127980
X-139792
X-151602
X-163414
X-175225
X-187036
X-192941Y-200331
Y-223953
X-181130
X-169319
X-157508
X-145697
X-133886
X-151602Y-235764
X-163414
X-175225
X-187036
X-181130Y-247575
X-192941
X-187036Y-259386
X-175225
X-181130Y-271197
X-157508
X-139792Y-141276
X-21681
X-15776Y-153087
X7846Y-129465
X43279Y-153087
X66901
X78712
X90523
X102334
X114145
X108240Y-141276
X96429
X84618
X72807
X78712Y-129465
X114145
X78712Y-223953
X66901
X55090
X43279
X49185Y-235764
X60996
X66901Y-247575
X55090
X43279
X31468
X19657
X7846
X-3965
X-15776
X-27587
X-39398
X-33492Y-235764
X-21681
X-9870
X-3965Y-223953
X7846
X19657
X25563Y-235764
X37374
X13752
Y-259386
X25563
X31468Y-271197
X43279
X55090
X66901
X78712
X84618Y-259386
X19657Y-271197
X7846
X-15776
X-27587
X-39398
X-33492Y-259386
X-21681
X-9870
X-27587Y-223953
X-39398
X125956
X137768
X149578
X161390
X173201
X185012
X196823
X208634
X220445
X232256
X238161Y-212142
X249972
X255878Y-200331
X244067
X232256
X220445
X226350Y-188520
X238161
X249972
X261783
X267689Y-176709
X255878
X244067
X232256
X220445
X208634
X196823
X185012
X173201
X161390
X149578
X155484Y-164898
X167295
X179106
X190917
X202728
X214539
X226350
X238161
X249972
X261783
X267689Y-129465
X255878
X244067
X232256
X220445
X208634
X196823
X185012
X173201
X161390
X149578
X155484Y-141276
X167295
X179106
X190917
X202728
X214539
X226350
X238161
X232256Y-153087
X220445
X208634
X196823
X185012
X173201
X161390
X149578
X155484Y-188520
X167295
X179106
X190917
X202728
X214539
X196823Y-200331
X185012
X173201
X161390
X149578
X137768
X143673Y-212142
X155484
X167295
X179106
X190917
Y-235764
X202728
X214539
X226350
Y-212142
X208634Y-247575
X196823
X185012
X173201
X161390
X167295Y-235764
X179106
Y-259386
X190917
X202728
X185012Y-271197
X173201
X161390
X149578
X137768
X167295Y-259386
X155484Y-235764
X143673
X131862
Y-212142
X273594Y-164898
X285405
X291311Y-153087
X279500
X285405Y-141276
X297216
X303122Y-129465
X291311
X279500
X273594Y-141276
X297216Y-117654
X291357Y-105843
X303122
X309027Y-94032
X297216
X291357Y-82221
X303122
X314933
X320838Y-70410
X309027
X297216
X291357Y-58599
X303122
X314933
X320838Y-46788
X309027
X297216
X291357Y-34977
X303122
X314933
X320838Y-23166
X309027
X297216
X291357Y-11355
X303122
X314933
X320838Y457
X309027
X297216
X291357Y12268
X303122
X314933
X273594Y24079
Y-94032
X261783
X249972
X238161
X226350
X214539
X202728
X208634Y-105843
X220445
X232256
X244067
X255878
X267689
X261783Y-70410
X249972
X238161
X226350
X232256Y-58599
X244067
X255878
X261783Y-46788
X249972
X238161
X226350
X220445Y-58599
X232256Y-82221
X190917Y-70410
X167295Y-94032
X155484
X161390Y-105843
X149578
X155484Y-117654
X167295
X149578Y12268
X137768
X125956
X208634
X232256
X244067
X255878
X267689
X249972Y-23166
X244067Y-34977
X226350Y457
X90523Y12268
X66901
X55090
X43279
X31468
X19657
X7846
X13752Y24079
X25563
X37374
X49185
X60996
Y-23166
X72807
X84618
Y-46788
X72807
X60996
X49185
X37374
X25563
X13752
X1941
X-9870
X-21681
X-33492
Y-23166
X-21681
X-9870
X1941
X13752
X25563
X37374
X49185
X55090Y-34977
X66901
Y-58599
X55090
X43279
X31468
X19657
X7846
X13752Y-70410
X25563
X37374
X49185
X60996
X72807
X78712Y-82221
X90523
X84618Y-94032
X72807
X60996
X49185
X37374
X25563
X13752
X1941
X-9870
X-21681
X-33492
X-27587Y-82221
X-15776
X-3965
X7846
X19657
X31468
X43279
X55090
X66901
X55090Y-105843
X43279
X31468
X19657
X7846
X-3965
X-15776
X-27587
X-39398Y-82221
X-33492Y-70410
X-21681
X-9870
X1941
Y457
Y24079
X-9870
X-21681
X-33492
Y457
X19657Y-11355
X31468
X37374Y457
X90523Y-58599
X114145Y-105843
X-63020
X-74831
X-68925Y-94032
X-80736
X-74831Y-82221
X-68925Y-46788
X-51209Y-58599
Y-11355
X-63020
X-57114Y457
X-45303
Y24079
X-57114
X-86642Y12268
X-110264
X-145697
X-139792Y24079
X-145697Y-34977
Y-58599
X-133886Y-82221
X-122075
X-110264Y-105843
X-116170Y-117654
X-127980
X-222469
X-228374Y-82221
X-240185
X-251996
X-263807
X-275618
X-287429
X-299240
X-311051
X-305146Y-70410
X-293335
X-281524
X-269713
X-257902
X-246091
X-234280
X-228374Y-58599
X-216563
X-240185
X-251996
X-263807
X-275618
X-287429
X-299240
X-311051
X-322862
X-316957Y-46788
X-305146
X-293335
X-281524
X-269713
X-275618Y-34977
X-287429
X-299240
X-311051
X-322862
X-316957Y-23166
X-305146
X-293335
X-281524
X-269713
X-257902
X-246091
X-263807Y-11355
X-275618
X-287429
X-299240
X-311051
X-322862
X-316957Y457
X-305146
X-293335
X-281524
X-269713
X-263807Y12268
X-251996
X-240185
X-246091Y24079
X-257902
X-269713
X-281524
X-293335
X-305146
X-316957
X-311051Y12268
X-299240
X-287429
X-275618
X-322862
X-316957Y-70410
X-305146Y-94032
X-293335
X-281524
X-269713
X-275618Y-105843
X-287429
X-299240
X-311051
X-305146Y-117654
X-293335
X-281524
X-269713
X-216563Y12268
X-204752
X-210658Y24079
X-204752Y35890
X-216563
X-228374
X-240185
X-251996
X-263807
X-275618
X-287429
X-299240
X-311051
X-322862
X-316957Y47701
X-305146
X-293335
X-281524
X-269713
X-257902
X-246091
X-234280
X-222469
X-210658
X-198847
Y94945
X-210658
X-222469
X-216563Y106756
X-204752
X-210658Y118567
X-222469
X-234280
X-246091
X-257902
X-269713
X-281524
X-293335
X-305146
X-299240Y130378
X-287429
X-275618
X-263807
Y106756
X-251996
X-240185
X-228374
X-246091Y94945
X-257902
X-269713
X-281524
X-293335
X-305146
X-299240Y106756
X-287429
X-275618
Y83134
X-263807
X-251996
X-269713Y71323
X-281524
X-293335
X-305146
X-316957
X-311051Y83134
X-299240
X-287429
Y59512
X-275618
X-299240
X-311051
X-322862
X-311051Y106756
X-293335Y142189
X-281524
X-275618Y154000
X-287429
X-281524Y165811
X-269713
X-257902
X-246091
X-234280
X-222469
X-210658
X-198847
X-204752Y177622
X-216563
X-228374
X-240185
X-251996
X-263807
X-275618
X-269713Y189433
X-257902
X-246091
X-222469
X-210658
X-198847
X-204752Y154000
X-216563
X-228374
X-222469Y142189
X-210658
X-198847
X-216563Y130378
X-234280Y142189
X-187036
X-181130Y154000
X-192941
X-187036Y165811
X-175225
X-163414
X-151602
X-145697Y177622
X-133886
X-139792Y189433
X-151602
X-163414
X-175225
X-169319Y177622
X-157508
X-181130
X-192941
X-98453
X-86642
X-74831
X-63020
X-51209
X-45303Y189433
X-57114
X-68925
Y165811
X-80736
X-92547
X-86642Y154000
X-74831
X-63020
X-51209
X-45303Y165811
Y142189
X-57114
X-68925
X-80736
X-92547
X-104358
X-98453Y154000
Y130378
X-86642
X-74831
X-63020
X-68925Y118567
X-80736
X-92547
X-104358
X-116170
X-127980
X-139792
X-133886Y106756
X-122075
X-110264
X-116170Y94945
X-127980
X-145697Y106756
X-122075Y130378
X-110264
X-86642Y106756
X-74831
X-80736Y94945
X-74831Y83134
X-63020
X-51209
X-45303Y94945
X-57114
X-51209Y106756
X-45303Y118567
Y71323
X-57114
Y47701
X-45303
X-51209Y35890
X-63020
X-80736Y47701
X-74831Y59512
X-86642
X-98453
X-110264
Y35890
X-145697
X-80736Y71323
X-92547Y189433
X-33492
X-39398Y177622
X-33492Y165811
X-39398Y154000
X-21681Y142189
X-9870
X-3965Y130378
X7846
X13752Y118567
X1941
X7846Y106756
X19657
X31468
X37374Y94945
X25563
X31468Y83134
X43279
X55090
X60996Y71323
X49185
X25563
X13752
X1941
X-9870
X-21681
X-33492
X-27587Y83134
X-15776
X-3965
X7846
X19657
X1941Y94945
X-9870
X-21681
X-33492
X-27587Y106756
X-15776
X-3965
X-21681Y118567
X-33492
X-27587Y130378
X-15776
X31468
X43279
X55090
X66901
X72807Y142189
X60996
X49185
X55090Y154000
X66901
X72807Y165811
X60996
X49185
X37374
X43279Y177622
X55090
X66901
X72807Y189433
X60996
X49185
X37374
X43279Y154000
X25563Y142189
X49185Y118567
X55090Y106756
X66901
X72807Y118567
X96429
X102334Y130378
X114145
X108240Y142189
X96429
X102334Y154000
X114145
X108240Y165811
X96429
X102334Y177622
X90523
X96429Y189433
X108240
X90523Y154000
Y130378
Y106756
X72807Y94945
X84618Y47701
X78712Y35890
X66901
X55090
X43279
X31468
X19657
X7846
X-3965
X-15776
X-27587
X-39398
X-33492Y47701
X-21681
X-9870
X1941
X13752
X25563
X37374
X60996
X-39398Y83134
Y106756
X137768
X149578
X155484Y118567
X167295
X179106
X190917
X202728
X214539
X226350
X238161
X249972
X261783
X267689Y130378
Y106756
X255878
X244067
Y130378
X232256
X220445
X208634
X196823
X202728Y142189
X214539
X226350
X238161
X232256Y154000
X238161Y165811
X249972
X261783
X267689Y177622
X255878
X244067
X232256
X238161Y189433
X249972
X261783
X226350
X214539
X202728
X190917
X208634Y177622
Y154000
X185012
X173201
X179106Y142189
X190917
X167295
X155484
Y165811
X167295
X173201Y177622
X155484Y189433
X131862
X120051
X125956Y177622
X137768
X131862Y165811
X137768Y154000
X125956
X120051Y142189
X143673Y118567
X131862Y94945
Y71323
X137768Y59512
X149578Y83134
X173201Y130378
X208634Y106756
X232256Y83134
X244067
X255878
X267689
X249972Y47701
X244067Y35890
X226350Y71323
X273594
X285405
X297216
X308849
X320838
X303122Y83134
X291311
Y106756
X303122
X297216Y118567
X285405
X273594
X279500Y130378
X291311
X303122
X297216Y142189
X285405
X273594
X279500Y154000
X291311
X285405Y165811
X273594
X279500Y106756
Y59512
X291311
X303122
X309027Y47701
X297216
X285405
X273594
X279500Y35890
X291311
X303122
X255878Y201244
X249972Y213055
X238161
X226350
X214539
X202728
X208634Y224866
X214539Y236677
X226350
X202728
X208634Y248488
X196823
X185012
X179106Y236677
X167295
X173201Y224866
X161390
Y248488
X149578
X155484Y260299
X167295
X173201Y272110
X185012
X202728Y260299
X167295Y283921
X155484
X137768Y295732
X125956Y272110
X120051Y260299
X125956Y224866
X131862Y213055
X137768Y201244
X125956
X179106Y213055
X108240
X96429
X102334Y224866
X90523
X96429Y236677
X108240
X102334Y248488
X108240Y260299
X84618Y283921
X72807
X66901Y272110
X60996Y260299
X49185
X43279Y248488
X31468
X19657
X7846
X-3965
X-15776
X-27587
X-39398
X-33492Y236677
X-21681
X-9870
X1941
X13752
X25563
X37374
Y213055
X49185
X60996
X72807
X66901Y224866
X72807Y236677
X66901Y201244
X55090
X43279
X90523
X102334
X90523Y295732
X-33492Y213055
X-39398Y201244
X-51209
X-63020
X-74831
X-86642
X-98453
X-92547Y213055
X-80736
X-68925
X-57114
X-45303
X-63020Y224866
X-74831
X-86642
X-98453
X-92547Y236677
X-80736
X-68925
X-51209Y248488
X-57114Y260299
X-63020Y272110
X-74831
X-80736Y283921
X-86642Y295732
X-98453
X-133886
X-145697
X-151602Y283921
X-163414
X-169319Y272110
X-181130
Y248488
X-169319
X-157508
X-151602Y236677
X-163414
X-175225
X-169319Y224866
X-175225Y213055
X-169319Y201244
X-157508
X-145697
X-133886
X-139792Y213055
X-151602
X-145697Y224866
X-133886
X-122075
X-127980Y236677
X-122075Y248488
X-110264
X-98453
X-86642
X-92547Y260299
X-104358
Y236677
X-122075Y272110
X-139792Y260299
X-163414
X-192941Y248488
Y201244
X-181130
X-204752
X-216563
X-228374
X-222469Y213055
X-210658
X-198847
X-204752Y224866
X-210658Y236677
X-222469
X-216563Y248488
X-204752
X-198847Y260299
X-240185Y224866
X-234280Y213055
X-246091
X-251996Y201244
T03
X-59016Y-257913
X-49016Y-267913
X-39016Y-257913
X-14429
X5571
X-4429Y-267913
T04
X29921Y-227797
X37402Y-228064
X31791Y-157409
X54823Y-145303
T05
X258563Y-53014
Y-43014
Y-33014
Y-23014
Y-13014
Y-3014
X259744Y16809
Y26809
X-253839Y-413
Y-10413
Y-20413
Y-30413
Y-40413
Y-50413
X-256299Y-65630
Y-75630
Y-85630
Y-95630
Y-105630
Y-115630
X259744Y36809
Y46809
Y56809
Y66809
T06
X-104677Y-135303
Y-125303
X-94677
Y-135303
X95323
Y-125303
X105323
Y-135303
Y-115303
Y-105303
Y-95303
Y-85303
Y-75303
Y-65303
Y-55303
Y-45303
Y-35303
Y-25303
Y-15303
Y-5303
Y4697
Y14697
Y24697
Y34697
X95323
Y24697
Y14697
Y4697
Y-5303
Y-15303
Y-25303
Y-35303
Y-45303
Y-55303
Y-65303
Y-75303
Y-85303
Y-95303
Y-105303
Y-115303
X-94677
Y-105303
Y-95303
Y-85303
Y-75303
Y-65303
Y-55303
Y-45303
Y-35303
Y-25303
Y-15303
Y-5303
Y4697
Y14697
Y24697
Y34697
X-104677
Y24697
Y14697
Y4697
Y-5303
Y-15303
Y-25303
Y-35303
Y-45303
Y-55303
Y-65303
Y-75303
Y-85303
Y-95303
Y-105303
Y-115303
Y44697
Y54697
Y64697
Y74697
Y84697
Y94697
Y104697
X-94677
Y94697
Y84697
Y74697
Y64697
Y54697
Y44697
X95323
Y54697
Y64697
Y74697
Y84697
Y94697
Y104697
X105323
Y94697
Y84697
Y74697
Y64697
Y54697
Y44697
T07
X-122559Y-243307
X-112559
X-102559
X-92559
X-44390Y-231772
Y-221772
X-14665
Y-231772
X155323Y-80303
X165323
X175323
X185323
Y-70303
X175323
X165323
X155323
X145323Y-33303
Y-23303
Y-13303
Y-3303
X237823
Y-13303
Y-23303
Y-33303
X-142669Y-30047
Y-20047
Y-40047
Y-50047
X-141980Y-85224
Y-95224
Y-105224
Y-115224
X-234480
Y-105224
Y-95224
Y-85224
X-235169Y-50047
Y-40047
Y-30047
Y-20047
X-234646Y60335
Y70335
Y80335
Y90335
X-254725Y70379
Y60379
X-142146Y60335
Y70335
Y80335
Y90335
X-114677Y164697
Y174697
Y184697
X115323
Y174697
Y164697
X145323Y66697
Y56697
Y46697
Y36697
X237823
Y46697
Y56697
Y66697
X115323Y194697
Y204697
Y214697
Y224697
Y234697
Y244697
Y254697
Y264697
Y274697
X-114677
Y264697
Y254697
Y244697
Y234697
Y224697
Y214697
Y204697
Y194697
T08
X152480Y272764
X162480
X175654Y258001
X185654Y258001
X217711Y222711
X227711
X236274Y202453
X246274Y202453
X-152480Y272764
X-162480Y272764
X-175654Y258001
X-185654
X-217711Y222711
X-227711
X-236274Y202453
X-246274Y202453
T09
X36024Y-259547
X54528
X73032
T10
X-208791Y-208791
X208791
X189799Y226194
X-189799
T11
X119764Y-255807
X147953Y-255807
T12
X-255716Y-147638
X255716Y-147638
X-255716Y147638
X255716
M30
