G04*
G04 #@! TF.GenerationSoftware,Altium Limited,Altium Designer,20.1.11 (218)*
G04*
G04 Layer_Color=16711935*
%FSLAX25Y25*%
%MOIN*%
G70*
G04*
G04 #@! TF.SameCoordinates,DC62774E-AE12-477B-97F5-19A81F94617E*
G04*
G04*
G04 #@! TF.FilePolarity,Positive*
G04*
G01*
G75*
%ADD101C,0.00197*%
D101*
X-39567Y255315D02*
X39567D01*
X94042Y309790D02*
X120806D01*
X39567Y255315D02*
X94042Y309790D01*
X-120161D02*
X-94042D01*
X-39567Y255315D01*
X-131030Y305345D02*
X-120161Y309790D01*
X-141735Y300518D02*
X-131030Y305345D01*
X-152263Y295317D02*
X-141735Y300518D01*
X-162602Y289748D02*
X-152263Y295317D01*
X-172737Y283817D02*
X-162602Y289748D01*
X-182657Y277532D02*
X-172737Y283817D01*
X-192348Y270901D02*
X-182657Y277532D01*
X-201800Y263932D02*
X-192348Y270901D01*
X-210999Y256634D02*
X-201800Y263932D01*
X-219936Y249016D02*
X-210999Y256634D01*
X-228598Y241087D02*
X-219936Y249016D01*
X-236975Y232858D02*
X-228598Y241087D01*
X-245056Y224337D02*
X-236975Y232858D01*
X-252831Y215537D02*
X-245056Y224337D01*
X-260291Y206468D02*
X-252831Y215537D01*
X-267426Y197142D02*
X-260291Y206468D01*
X-274228Y187569D02*
X-267426Y197142D01*
X-280687Y177762D02*
X-274228Y187569D01*
X-286797Y167734D02*
X-280687Y177762D01*
X-292548Y157496D02*
X-286797Y167734D01*
X-297935Y147061D02*
X-292548Y157496D01*
X-302950Y136443D02*
X-297935Y147061D01*
X-307588Y125654D02*
X-302950Y136443D01*
X-311841Y114709D02*
X-307588Y125654D01*
X-315706Y103620D02*
X-311841Y114709D01*
X-319177Y92402D02*
X-315706Y103620D01*
X-322249Y81068D02*
X-319177Y92402D01*
X-324920Y69633D02*
X-322249Y81068D01*
X-327186Y58110D02*
X-324920Y69633D01*
X-329043Y46515D02*
X-327186Y58110D01*
X-330491Y34862D02*
X-329043Y46515D01*
X-331525Y23165D02*
X-330491Y34862D01*
X-332147Y11438D02*
X-331525Y23165D01*
X-332354Y-303D02*
X-332147Y11438D01*
X-332354Y-303D02*
X-332150Y-11951D01*
X-331539Y-23585D01*
X-330520Y-35190D01*
X-329096Y-46752D01*
X-327267Y-58258D01*
X-325037Y-69692D01*
X-322408Y-81041D01*
X-319384Y-92292D01*
X-315967Y-103429D01*
X-312162Y-114440D01*
X-307974Y-125311D01*
X-303408Y-136029D01*
X-298470Y-146580D01*
X-293165Y-156952D01*
X-287501Y-167132D01*
X-281483Y-177107D01*
X-275120Y-186866D01*
X-268419Y-196395D01*
X-261388Y-205684D01*
X-254037Y-214722D01*
X-246373Y-223496D01*
X-238407Y-231997D01*
X-230149Y-240213D01*
X-221607Y-248136D01*
X-212794Y-255754D01*
X-203719Y-263059D01*
X-194394Y-270042D01*
X-184831Y-276695D01*
X-175040Y-283008D01*
X175686D01*
X185518Y-276667D01*
X195122Y-269984D01*
X204484Y-262967D01*
X213594Y-255625D01*
X222441Y-247968D01*
X231012Y-240004D01*
X239298Y-231744D01*
X247289Y-223198D01*
X254974Y-214375D01*
X262344Y-205289D01*
X269390Y-195948D01*
X276103Y-186365D01*
X282476Y-176553D01*
X288499Y-166522D01*
X294165Y-156286D01*
X299469Y-145857D01*
X304402Y-135248D01*
X308959Y-124472D01*
X313134Y-113542D01*
X316923Y-102472D01*
X320320Y-91276D01*
X323321Y-79967D01*
X325922Y-68560D01*
X328121Y-57069D01*
X329915Y-45507D01*
X331300Y-33889D01*
X332277Y-22230D01*
X332842Y-10543D01*
X332997Y1156D01*
X332740Y12853D02*
X332997Y1156D01*
X332071Y24534D02*
X332740Y12853D01*
X330993Y36184D02*
X332071Y24534D01*
X329505Y47789D02*
X330993Y36184D01*
X327611Y59335D02*
X329505Y47789D01*
X325311Y70807D02*
X327611Y59335D01*
X322610Y82191D02*
X325311Y70807D01*
X319510Y93473D02*
X322610Y82191D01*
X316015Y104639D02*
X319510Y93473D01*
X312129Y115674D02*
X316015Y104639D01*
X307858Y126567D02*
X312129Y115674D01*
X303207Y137303D02*
X307858Y126567D01*
X298181Y147868D02*
X303207Y137303D01*
X292786Y158251D02*
X298181Y147868D01*
X287030Y168437D02*
X292786Y158251D01*
X280919Y178414D02*
X287030Y168437D01*
X274461Y188171D02*
X280919Y178414D01*
X267664Y197694D02*
X274461Y188171D01*
X260536Y206972D02*
X267664Y197694D01*
X253087Y215994D02*
X260536Y206972D01*
X245324Y224748D02*
X253087Y215994D01*
X237259Y233225D02*
X245324Y224748D01*
X228901Y241412D02*
X237259Y233225D01*
X220260Y249300D02*
X228901Y241412D01*
X211347Y256880D02*
X220260Y249300D01*
X202173Y264141D02*
X211347Y256880D01*
X192749Y271075D02*
X202173Y264141D01*
X183087Y277674D02*
X192749Y271075D01*
X173199Y283929D02*
X183087Y277674D01*
X163098Y289832D02*
X173199Y283929D01*
X152795Y295376D02*
X163098Y289832D01*
X142303Y300555D02*
X152795Y295376D01*
X131636Y305362D02*
X142303Y300555D01*
X120806Y309790D02*
X131636Y305362D01*
M02*
