G04*
G04 #@! TF.GenerationSoftware,Altium Limited,Altium Designer,20.1.11 (218)*
G04*
G04 Layer_Color=32896*
%FSLAX25Y25*%
%MOIN*%
G70*
G04*
G04 #@! TF.SameCoordinates,DC62774E-AE12-477B-97F5-19A81F94617E*
G04*
G04*
G04 #@! TF.FilePolarity,Positive*
G04*
G01*
G75*
%ADD11C,0.01000*%
%ADD14C,0.00787*%
D11*
X10433Y211221D02*
Y213189D01*
X13386Y216142D01*
X25197D01*
X-25984Y156102D02*
X-23031D01*
X-13189D02*
X-394D01*
X9449D02*
X29134D01*
X-21063Y211221D02*
X10433D01*
X-25984Y156102D02*
Y204331D01*
X29134Y156102D02*
Y208268D01*
X-56087Y37222D02*
X-53463D01*
X-54775D01*
Y45094D01*
X-56087D01*
X-53463D01*
X-49527D02*
Y37222D01*
X-46903Y39846D01*
X-44279Y37222D01*
Y45094D01*
X-36408Y37222D02*
X-41656D01*
Y45094D01*
X-36408D01*
X-41656Y41158D02*
X-39032D01*
X-33784Y45094D02*
X-31160D01*
X-32472D01*
Y37222D01*
X-33784Y38534D01*
X-27224D02*
X-25913Y37222D01*
X-23289D01*
X-21977Y38534D01*
Y39846D01*
X-23289Y41158D01*
X-21977Y42470D01*
Y43782D01*
X-23289Y45094D01*
X-25913D01*
X-27224Y43782D01*
Y42470D01*
X-25913Y41158D01*
X-27224Y39846D01*
Y38534D01*
X-25913Y41158D02*
X-23289D01*
X-11482D02*
X-6234D01*
X4261Y37222D02*
X6885D01*
X5573D01*
Y45094D01*
X4261D01*
X6885D01*
X10821D02*
Y37222D01*
X13445Y39846D01*
X16069Y37222D01*
Y45094D01*
X23940Y37222D02*
X18692D01*
Y45094D01*
X23940D01*
X18692Y41158D02*
X21316D01*
X31812Y45094D02*
X26564D01*
X31812Y39846D01*
Y38534D01*
X30500Y37222D01*
X27876D01*
X26564Y38534D01*
X39683Y37222D02*
X37059Y38534D01*
X34435Y41158D01*
Y43782D01*
X35747Y45094D01*
X38371D01*
X39683Y43782D01*
Y42470D01*
X38371Y41158D01*
X34435D01*
X-50937Y55489D02*
X-52249Y54177D01*
X-54873D01*
X-56185Y55489D01*
Y60737D01*
X-54873Y62049D01*
X-52249D01*
X-50937Y60737D01*
Y58113D01*
X-53561D01*
X-48314Y54177D02*
Y62049D01*
Y59425D01*
X-43066Y54177D01*
X-47002Y58113D01*
X-43066Y62049D01*
X-28635Y54177D02*
X-31259D01*
X-32571Y55489D01*
Y60737D01*
X-31259Y62049D01*
X-28635D01*
X-27323Y60737D01*
Y55489D01*
X-28635Y54177D01*
X-19452Y55489D02*
X-20763Y54177D01*
X-23387D01*
X-24699Y55489D01*
Y60737D01*
X-23387Y62049D01*
X-20763D01*
X-19452Y60737D01*
X-50937Y67335D02*
X-52249Y66023D01*
X-54873D01*
X-56185Y67335D01*
Y72583D01*
X-54873Y73895D01*
X-52249D01*
X-50937Y72583D01*
Y69959D01*
X-53561D01*
X-47002Y68647D02*
X-44378D01*
X-43066Y69959D01*
Y73895D01*
X-47002D01*
X-48314Y72583D01*
X-47002Y71271D01*
X-43066D01*
X-40442Y66023D02*
Y73895D01*
X-36506D01*
X-35194Y72583D01*
Y71271D01*
Y69959D01*
X-36506Y68647D01*
X-40442D01*
X-32571D02*
Y73895D01*
Y71271D01*
X-31259Y69959D01*
X-29947Y68647D01*
X-28635D01*
X-24699Y73895D02*
X-22075D01*
X-23387D01*
Y68647D01*
X-24699D01*
X-14204Y73895D02*
X-16828D01*
X-18140Y72583D01*
Y69959D01*
X-16828Y68647D01*
X-14204D01*
X-12892Y69959D01*
Y71271D01*
X-18140D01*
X-10268Y73895D02*
X-7644D01*
X-8956D01*
Y66023D01*
X-10268D01*
X4163D02*
Y73895D01*
X9411D01*
X12034D02*
X14658D01*
X13346D01*
Y68647D01*
X12034D01*
X18594Y73895D02*
Y68647D01*
X19906D01*
X21218Y69959D01*
Y73895D01*
Y69959D01*
X22530Y68647D01*
X23842Y69959D01*
Y73895D01*
X27777Y68647D02*
X30401D01*
X31713Y69959D01*
Y73895D01*
X27777D01*
X26465Y72583D01*
X27777Y71271D01*
X31713D01*
X-56185Y85740D02*
Y77869D01*
X-53561Y80493D01*
X-50937Y77869D01*
Y85740D01*
X-47002Y80493D02*
X-44378D01*
X-43066Y81805D01*
Y85740D01*
X-47002D01*
X-48314Y84429D01*
X-47002Y83117D01*
X-43066D01*
X-40442Y80493D02*
Y84429D01*
X-39130Y85740D01*
X-35194D01*
Y87052D01*
X-36506Y88364D01*
X-37818D01*
X-35194Y85740D02*
Y80493D01*
X-31259D02*
X-28635D01*
X-27323Y81805D01*
Y85740D01*
X-31259D01*
X-32571Y84429D01*
X-31259Y83117D01*
X-27323D01*
X-24699Y80493D02*
Y85740D01*
Y83117D01*
X-23387Y81805D01*
X-22075Y80493D01*
X-20763D01*
X-15516D02*
X-12892D01*
X-11580Y81805D01*
Y85740D01*
X-15516D01*
X-16828Y84429D01*
X-15516Y83117D01*
X-11580D01*
X-56185Y100210D02*
Y92339D01*
X-53561Y94962D01*
X-50937Y92339D01*
Y100210D01*
X-47002Y94962D02*
X-44378D01*
X-43066Y96274D01*
Y100210D01*
X-47002D01*
X-48314Y98898D01*
X-47002Y97586D01*
X-43066D01*
X-40442Y94962D02*
Y100210D01*
Y97586D01*
X-39130Y96274D01*
X-37818Y94962D01*
X-36506D01*
X-27323D02*
X-31259D01*
X-32571Y96274D01*
Y98898D01*
X-31259Y100210D01*
X-27323D01*
X-20763D02*
X-23387D01*
X-24699Y98898D01*
Y96274D01*
X-23387Y94962D01*
X-20763D01*
X-19452Y96274D01*
Y97586D01*
X-24699D01*
X-16828Y100210D02*
X-14204D01*
X-15516D01*
Y92339D01*
X-16828D01*
X-10268Y100210D02*
X-7644D01*
X-8956D01*
Y92339D01*
X-10268D01*
X-3709Y100210D02*
X-1085D01*
X-2397D01*
Y94962D01*
X-3709D01*
X2851Y100210D02*
Y94962D01*
X6787D01*
X8099Y96274D01*
Y100210D01*
X12034D02*
X14658D01*
X15970Y98898D01*
Y96274D01*
X14658Y94962D01*
X12034D01*
X10723Y96274D01*
Y98898D01*
X12034Y100210D01*
X-56185Y112056D02*
Y104184D01*
X-53561Y106808D01*
X-50937Y104184D01*
Y112056D01*
X-47002D02*
X-44378D01*
X-43066Y110744D01*
Y108120D01*
X-44378Y106808D01*
X-47002D01*
X-48314Y108120D01*
Y110744D01*
X-47002Y112056D01*
X-40442Y106808D02*
Y112056D01*
Y109432D01*
X-39130Y108120D01*
X-37818Y106808D01*
X-36506D01*
X-31259D02*
X-28635D01*
X-27323Y108120D01*
Y112056D01*
X-31259D01*
X-32571Y110744D01*
X-31259Y109432D01*
X-27323D01*
X-20763Y112056D02*
X-23387D01*
X-24699Y110744D01*
Y108120D01*
X-23387Y106808D01*
X-20763D01*
X-19452Y108120D01*
Y109432D01*
X-24699D01*
X-16828Y112056D02*
X-12892D01*
X-11580Y110744D01*
X-12892Y109432D01*
X-15516D01*
X-16828Y108120D01*
X-15516Y106808D01*
X-11580D01*
X-50937Y116030D02*
X-56185D01*
Y119966D01*
X-53561D01*
X-56185D01*
Y123902D01*
X-48314Y118654D02*
Y123902D01*
Y121278D01*
X-47002Y119966D01*
X-45690Y118654D01*
X-44378D01*
X-36506Y123902D02*
X-39130D01*
X-40442Y122590D01*
Y119966D01*
X-39130Y118654D01*
X-36506D01*
X-35194Y119966D01*
Y121278D01*
X-40442D01*
X-32571Y123902D02*
X-28635D01*
X-27323Y122590D01*
X-28635Y121278D01*
X-31259D01*
X-32571Y119966D01*
X-31259Y118654D01*
X-27323D01*
X-20763Y123902D02*
X-23387D01*
X-24699Y122590D01*
Y119966D01*
X-23387Y118654D01*
X-20763D01*
X-19452Y119966D01*
Y121278D01*
X-24699D01*
X-97462Y223001D02*
X-98462Y222002D01*
X-100461D01*
X-101461Y223001D01*
Y224001D01*
X-100461Y225001D01*
X-98462D01*
X-97462Y226000D01*
Y227000D01*
X-98462Y228000D01*
X-100461D01*
X-101461Y227000D01*
X-95463Y229999D02*
Y224001D01*
X-92463D01*
X-91464Y225001D01*
Y227000D01*
X-92463Y228000D01*
X-95463D01*
X-86466D02*
X-88465D01*
X-89464Y227000D01*
Y225001D01*
X-88465Y224001D01*
X-86466D01*
X-85466Y225001D01*
Y226000D01*
X-89464D01*
X-79468Y224001D02*
X-82467D01*
X-83466Y225001D01*
Y227000D01*
X-82467Y228000D01*
X-79468D01*
X-77468D02*
X-75469D01*
X-76469D01*
Y224001D01*
X-77468D01*
X-71470D02*
X-69471D01*
X-68471Y225001D01*
Y228000D01*
X-71470D01*
X-72470Y227000D01*
X-71470Y226000D01*
X-68471D01*
X-66472Y228000D02*
X-64473D01*
X-65472D01*
Y222002D01*
X-66472D01*
X-54476Y223001D02*
Y224001D01*
X-55475D01*
X-53476D01*
X-54476D01*
Y227000D01*
X-53476Y228000D01*
X-50477Y222002D02*
Y228000D01*
Y225001D01*
X-49477Y224001D01*
X-47478D01*
X-46478Y225001D01*
Y228000D01*
X-43479Y224001D02*
X-41480D01*
X-40480Y225001D01*
Y228000D01*
X-43479D01*
X-44479Y227000D01*
X-43479Y226000D01*
X-40480D01*
X-38481Y228000D02*
Y224001D01*
X-35482D01*
X-34482Y225001D01*
Y228000D01*
X-32483D02*
Y222002D01*
Y226000D02*
X-29484Y224001D01*
X-32483Y226000D02*
X-29484Y228000D01*
X-26485D02*
X-23486D01*
X-22486Y227000D01*
X-23486Y226000D01*
X-25485D01*
X-26485Y225001D01*
X-25485Y224001D01*
X-22486D01*
X-13489Y223001D02*
Y224001D01*
X-14489D01*
X-12489D01*
X-13489D01*
Y227000D01*
X-12489Y228000D01*
X-8491D02*
X-6491D01*
X-5492Y227000D01*
Y225001D01*
X-6491Y224001D01*
X-8491D01*
X-9490Y225001D01*
Y227000D01*
X-8491Y228000D01*
X-3492Y224001D02*
X-2493D01*
Y225001D01*
X-3492D01*
Y224001D01*
Y227000D02*
X-2493D01*
Y228000D01*
X-3492D01*
Y227000D01*
X-101461Y239597D02*
Y233599D01*
X-98462D01*
X-97462Y234598D01*
Y236598D01*
X-98462Y237597D01*
X-101461D01*
X-95463Y235598D02*
Y239597D01*
Y237597D01*
X-94463Y236598D01*
X-93463Y235598D01*
X-92463D01*
X-88465Y239597D02*
X-86466D01*
X-85466Y238597D01*
Y236598D01*
X-86466Y235598D01*
X-88465D01*
X-89464Y236598D01*
Y238597D01*
X-88465Y239597D01*
X-82467D02*
Y234598D01*
Y236598D01*
X-83466D01*
X-81467D01*
X-82467D01*
Y234598D01*
X-81467Y233599D01*
X-72470Y239597D02*
Y233599D01*
X-69471D01*
X-68471Y234598D01*
Y236598D01*
X-69471Y237597D01*
X-72470D01*
X-65472Y235598D02*
X-63473D01*
X-62473Y236598D01*
Y239597D01*
X-65472D01*
X-66472Y238597D01*
X-65472Y237597D01*
X-62473D01*
X-60474Y235598D02*
Y238597D01*
X-59474Y239597D01*
X-56475D01*
Y235598D01*
X-54476Y239597D02*
X-52477D01*
X-53476D01*
Y233599D01*
X-54476D01*
X-48478Y239597D02*
X-46478D01*
X-45479Y238597D01*
Y236598D01*
X-46478Y235598D01*
X-48478D01*
X-49477Y236598D01*
Y238597D01*
X-48478Y239597D01*
X-37481D02*
Y233599D01*
X-34482D01*
X-33483Y234598D01*
Y236598D01*
X-34482Y237597D01*
X-37481D01*
X-35482D02*
X-33483Y239597D01*
X-30484D02*
X-28484D01*
X-27485Y238597D01*
Y236598D01*
X-28484Y235598D01*
X-30484D01*
X-31483Y236598D01*
Y238597D01*
X-30484Y239597D01*
X-25485D02*
X-22486D01*
X-21486Y238597D01*
X-22486Y237597D01*
X-24486D01*
X-25485Y236598D01*
X-24486Y235598D01*
X-21486D01*
X-18487D02*
X-16488D01*
X-15488Y236598D01*
Y239597D01*
X-18487D01*
X-19487Y238597D01*
X-18487Y237597D01*
X-15488D01*
X-99461Y249194D02*
X-101461Y247195D01*
Y245196D01*
X-99461Y243196D01*
X-96462D02*
Y249194D01*
X-92463D01*
X-90464D02*
Y243196D01*
X-87465D01*
X-86466Y244196D01*
Y246195D01*
X-87465Y247195D01*
X-90464D01*
X-88465D02*
X-86466Y249194D01*
X-84466D02*
X-82467Y247195D01*
Y245196D01*
X-84466Y243196D01*
X-79468Y246195D02*
X-77468Y244196D01*
X-75469Y246195D01*
X-69471Y249194D02*
X-73470D01*
X-69471Y245196D01*
Y244196D01*
X-70471Y243196D01*
X-72470D01*
X-73470Y244196D01*
X-97462Y252794D02*
X-101461D01*
Y258792D01*
X-97462D01*
X-101461Y255793D02*
X-99461D01*
X-95463Y254793D02*
Y258792D01*
Y256793D01*
X-94463Y255793D01*
X-93463Y254793D01*
X-92463D01*
X-89464Y258792D02*
X-87465D01*
X-88465D01*
Y254793D01*
X-89464D01*
X-80467D02*
X-83466D01*
X-84466Y255793D01*
Y257792D01*
X-83466Y258792D01*
X-80467D01*
X-78468D02*
Y252794D01*
Y256793D02*
X-75469Y254793D01*
X-78468Y256793D02*
X-75469Y258792D01*
X-66472Y252794D02*
Y258792D01*
X-63473D01*
X-62473Y257792D01*
Y256793D01*
X-63473Y255793D01*
X-66472D01*
X-63473D01*
X-62473Y254793D01*
Y253794D01*
X-63473Y252794D01*
X-66472D01*
X-101461Y262392D02*
Y268390D01*
X-98462D01*
X-97462Y267390D01*
Y263391D01*
X-98462Y262392D01*
X-101461D01*
X-92463Y268390D02*
X-94463D01*
X-95463Y267390D01*
Y265391D01*
X-94463Y264391D01*
X-92463D01*
X-91464Y265391D01*
Y266390D01*
X-95463D01*
X-83466Y262392D02*
Y268390D01*
X-79468D01*
X-77468D02*
X-75469D01*
X-76469D01*
Y264391D01*
X-77468D01*
X-72470Y268390D02*
Y264391D01*
X-71470D01*
X-70471Y265391D01*
Y268390D01*
Y265391D01*
X-69471Y264391D01*
X-68471Y265391D01*
Y268390D01*
X-65472Y264391D02*
X-63473D01*
X-62473Y265391D01*
Y268390D01*
X-65472D01*
X-66472Y267390D01*
X-65472Y266390D01*
X-62473D01*
X37546Y-237366D02*
X38546Y-236367D01*
X40545D01*
X41545Y-237366D01*
Y-238366D01*
X40545Y-239366D01*
X38546D01*
X37546Y-240365D01*
Y-241365D01*
X38546Y-242365D01*
X40545D01*
X41545Y-241365D01*
X35547Y-236367D02*
Y-242365D01*
X33547Y-240365D01*
X31548Y-242365D01*
Y-236367D01*
X29549Y-242365D02*
X27549D01*
X28549D01*
Y-236367D01*
X29549Y-237366D01*
X24049Y148071D02*
X25048Y147071D01*
X27048D01*
X28047Y148071D01*
Y149070D01*
X27048Y150070D01*
X25048D01*
X24049Y151070D01*
Y152069D01*
X25048Y153069D01*
X27048D01*
X28047Y152069D01*
X22049Y147071D02*
Y153069D01*
X19050D01*
X18051Y152069D01*
Y148071D01*
X19050Y147071D01*
X22049D01*
X16051Y153069D02*
X14052D01*
X15052D01*
Y147071D01*
X16051Y148071D01*
X-247473Y84127D02*
X-246474Y85127D01*
X-244474D01*
X-243475Y84127D01*
Y80128D01*
X-244474Y79129D01*
X-246474D01*
X-247473Y80128D01*
X-252472Y85127D02*
X-250472D01*
X-249473Y84127D01*
Y80128D01*
X-250472Y79129D01*
X-252472D01*
X-253471Y80128D01*
Y84127D01*
X-252472Y85127D01*
X-255471Y79129D02*
Y85127D01*
X-259469Y79129D01*
Y85127D01*
X-261469Y78129D02*
X-265467D01*
X-267467Y85127D02*
Y79129D01*
X-270466D01*
X-271465Y80128D01*
Y84127D01*
X-270466Y85127D01*
X-267467D01*
X-273465Y79129D02*
Y85127D01*
X-276464D01*
X-277464Y84127D01*
Y82128D01*
X-276464Y81128D01*
X-273465D01*
X-275464D02*
X-277464Y79129D01*
X-279463Y85127D02*
X-281462D01*
X-280463D01*
Y79129D01*
X-279463D01*
X-281462D01*
X-284461Y85127D02*
Y79129D01*
X-287460D01*
X-288460Y80128D01*
Y81128D01*
X-287460Y82128D01*
X-284461D01*
X-287460D01*
X-288460Y83127D01*
Y84127D01*
X-287460Y85127D01*
X-284461D01*
X-290459D02*
Y79129D01*
X-294458D01*
X-300456Y85127D02*
X-296457D01*
Y79129D01*
X-300456D01*
X-296457Y82128D02*
X-298457D01*
X-302455Y79129D02*
X-304455D01*
X-303455D01*
Y85127D01*
X-302455Y84127D01*
D14*
X36575Y-277870D02*
G03*
X36575Y-277870I-484J0D01*
G01*
X26969Y-273327D02*
X82087D01*
Y-245768D01*
X26969D02*
X82087D01*
X26969Y-273327D02*
Y-245768D01*
M02*
