G04*
G04 #@! TF.GenerationSoftware,Altium Limited,Altium Designer,20.1.11 (218)*
G04*
G04 Layer_Physical_Order=2*
G04 Layer_Color=16711680*
%FSLAX25Y25*%
%MOIN*%
G70*
G04*
G04 #@! TF.SameCoordinates,DC62774E-AE12-477B-97F5-19A81F94617E*
G04*
G04*
G04 #@! TF.FilePolarity,Positive*
G04*
G01*
G75*
%ADD14C,0.00787*%
%ADD78C,0.01181*%
%ADD79C,0.01004*%
%ADD80C,0.02362*%
%ADD81C,0.06000*%
%ADD82R,0.06000X0.06000*%
%ADD83C,0.03937*%
%ADD84C,0.05906*%
%ADD85R,0.05906X0.05906*%
%ADD86R,0.05906X0.05906*%
%ADD87C,0.09843*%
%ADD88C,0.23622*%
%ADD89C,0.04725*%
%ADD90C,0.31496*%
%ADD91C,0.03150*%
%ADD92C,0.02362*%
%ADD93C,0.05000*%
%ADD94R,0.03150X0.05906*%
%ADD95R,0.05512X0.07480*%
%ADD96R,0.07087X0.05512*%
%ADD97C,0.01260*%
G36*
X131280Y304532D02*
X141918Y299738D01*
X152381Y294573D01*
X162656Y289044D01*
X172730Y283157D01*
X182591Y276919D01*
X192227Y270338D01*
X201625Y263423D01*
X210774Y256181D01*
X219663Y248622D01*
X228280Y240756D01*
X236616Y232591D01*
X244659Y224137D01*
X252400Y215407D01*
X259830Y206409D01*
X266938Y197156D01*
X273717Y187659D01*
X280157Y177929D01*
X286251Y167979D01*
X291992Y157820D01*
X297372Y147466D01*
X302384Y136929D01*
X307023Y126223D01*
X311283Y115360D01*
X315158Y104353D01*
X318643Y93218D01*
X321735Y81967D01*
X324429Y70614D01*
X326722Y59173D01*
X328612Y47659D01*
X330095Y36085D01*
X331171Y24466D01*
X331837Y12817D01*
X332094Y1152D01*
X331940Y-10516D01*
X331375Y-22170D01*
X330402Y-33798D01*
X329020Y-45384D01*
X327231Y-56915D01*
X325038Y-68375D01*
X322444Y-79751D01*
X319451Y-91029D01*
X316063Y-102195D01*
X312285Y-113234D01*
X308121Y-124134D01*
X303576Y-134881D01*
X298656Y-145462D01*
X293368Y-155862D01*
X287716Y-166071D01*
X281709Y-176074D01*
X275355Y-185860D01*
X268660Y-195417D01*
X261633Y-204732D01*
X254282Y-213794D01*
X246618Y-222592D01*
X238649Y-231116D01*
X230386Y-239353D01*
X221837Y-247295D01*
X213015Y-254932D01*
X203930Y-262254D01*
X194593Y-269251D01*
X185015Y-275916D01*
X175420Y-282105D01*
X-174774D01*
X-184328Y-275944D01*
X-193866Y-269310D01*
X-203165Y-262346D01*
X-212215Y-255061D01*
X-221005Y-247463D01*
X-229523Y-239562D01*
X-237759Y-231368D01*
X-245703Y-222890D01*
X-253346Y-214140D01*
X-260678Y-205127D01*
X-267689Y-195863D01*
X-274372Y-186359D01*
X-280718Y-176627D01*
X-286719Y-166679D01*
X-292368Y-156527D01*
X-297659Y-146183D01*
X-302584Y-135660D01*
X-307137Y-124972D01*
X-311314Y-114130D01*
X-315108Y-103149D01*
X-318515Y-92042D01*
X-321532Y-80822D01*
X-324154Y-69504D01*
X-326378Y-58100D01*
X-328201Y-46626D01*
X-329622Y-35095D01*
X-330638Y-23522D01*
X-331248Y-11920D01*
X-331451Y-303D01*
X-331244Y11406D01*
X-330625Y23100D01*
X-329592Y34766D01*
X-328149Y46388D01*
X-326297Y57952D01*
X-324037Y69443D01*
X-321374Y80847D01*
X-318309Y92150D01*
X-314848Y103338D01*
X-310994Y114397D01*
X-306751Y125312D01*
X-302127Y136072D01*
X-297125Y146661D01*
X-291753Y157067D01*
X-286017Y167278D01*
X-279924Y177279D01*
X-273482Y187059D01*
X-266699Y196605D01*
X-259583Y205907D01*
X-252144Y214951D01*
X-244389Y223728D01*
X-236330Y232225D01*
X-227976Y240432D01*
X-219338Y248339D01*
X-210426Y255937D01*
X-201251Y263215D01*
X-191825Y270165D01*
X-182160Y276778D01*
X-172267Y283046D01*
X-162159Y288961D01*
X-151849Y294515D01*
X-141349Y299701D01*
X-130673Y304515D01*
X-119983Y308887D01*
X-94416D01*
X-40206Y254676D01*
X-40206Y254676D01*
X-39913Y254481D01*
X-39567Y254412D01*
X-39567Y254412D01*
X39567D01*
X39913Y254481D01*
X40206Y254676D01*
X94416Y308887D01*
X120629D01*
X131280Y304532D01*
D02*
G37*
%LPC*%
G36*
X115323Y278469D02*
X114347Y278341D01*
X113437Y277964D01*
X112655Y277364D01*
X112056Y276583D01*
X111819Y276011D01*
X108716D01*
X108339Y276264D01*
X107571Y276416D01*
X106803Y276264D01*
X106152Y275829D01*
X105717Y275178D01*
X105564Y274410D01*
X105717Y273641D01*
X106152Y272990D01*
X106803Y272555D01*
X107571Y272402D01*
X108339Y272555D01*
X108990Y272990D01*
X109252Y273382D01*
X111819D01*
X112056Y272811D01*
X112655Y272029D01*
X113437Y271430D01*
X114347Y271053D01*
X115323Y270924D01*
X116299Y271053D01*
X117209Y271430D01*
X117990Y272029D01*
X118590Y272811D01*
X118967Y273721D01*
X119095Y274697D01*
X118967Y275673D01*
X118590Y276583D01*
X117990Y277364D01*
X117209Y277964D01*
X116299Y278341D01*
X115323Y278469D01*
D02*
G37*
G36*
X152480Y276536D02*
X151504Y276408D01*
X150594Y276031D01*
X149813Y275431D01*
X149213Y274650D01*
X148837Y273740D01*
X148708Y272764D01*
X148837Y271788D01*
X149213Y270878D01*
X149813Y270096D01*
X150594Y269497D01*
X151504Y269120D01*
X152480Y268991D01*
X153457Y269120D01*
X154367Y269497D01*
X155148Y270096D01*
X155747Y270878D01*
X156124Y271788D01*
X156253Y272764D01*
X156124Y273740D01*
X155747Y274650D01*
X155148Y275431D01*
X154367Y276031D01*
X153457Y276408D01*
X152480Y276536D01*
D02*
G37*
G36*
X-152480Y276536D02*
X-153457Y276408D01*
X-154367Y276031D01*
X-155148Y275431D01*
X-155747Y274650D01*
X-156124Y273740D01*
X-156253Y272764D01*
X-156124Y271788D01*
X-155747Y270878D01*
X-155148Y270096D01*
X-154367Y269497D01*
X-153457Y269120D01*
X-152480Y268991D01*
X-151504Y269120D01*
X-150594Y269497D01*
X-149813Y270096D01*
X-149213Y270878D01*
X-148836Y271788D01*
X-148708Y272764D01*
X-148836Y273740D01*
X-149213Y274650D01*
X-149813Y275431D01*
X-150594Y276031D01*
X-151504Y276408D01*
X-152480Y276536D01*
D02*
G37*
G36*
X115323Y268469D02*
X114347Y268341D01*
X113437Y267964D01*
X112655Y267364D01*
X112056Y266583D01*
X111819Y266012D01*
X109375D01*
X109195Y266281D01*
X108544Y266717D01*
X107776Y266869D01*
X107008Y266717D01*
X106356Y266281D01*
X105921Y265630D01*
X105769Y264862D01*
X105921Y264094D01*
X106356Y263443D01*
X107008Y263008D01*
X107776Y262855D01*
X108544Y263008D01*
X109104Y263382D01*
X111819D01*
X112056Y262811D01*
X112655Y262029D01*
X113437Y261430D01*
X114347Y261053D01*
X115323Y260924D01*
X116299Y261053D01*
X117209Y261430D01*
X117990Y262029D01*
X118590Y262811D01*
X118967Y263720D01*
X119095Y264697D01*
X118967Y265673D01*
X118590Y266583D01*
X117990Y267364D01*
X117209Y267964D01*
X116299Y268341D01*
X115323Y268469D01*
D02*
G37*
G36*
X-106356Y297328D02*
X-126280D01*
X-126817Y297221D01*
X-127273Y296917D01*
X-144990Y279200D01*
X-145294Y278744D01*
X-145401Y278207D01*
Y258318D01*
X-145415Y258309D01*
X-145850Y257658D01*
X-146003Y256890D01*
X-145850Y256122D01*
X-145415Y255471D01*
X-144764Y255035D01*
X-143996Y254883D01*
X-143228Y255035D01*
X-142577Y255471D01*
X-142142Y256122D01*
X-141989Y256890D01*
X-142142Y257658D01*
X-142577Y258309D01*
X-142591Y258318D01*
Y277625D01*
X-125698Y294518D01*
X-123097D01*
X-123047Y294018D01*
X-123274Y293973D01*
X-123730Y293669D01*
X-137509Y279889D01*
X-137814Y279433D01*
X-137921Y278895D01*
Y255208D01*
X-149590Y243539D01*
X-149606Y243543D01*
X-150374Y243390D01*
X-151025Y242955D01*
X-151461Y242303D01*
X-151613Y241535D01*
X-151461Y240767D01*
X-151025Y240116D01*
X-150374Y239681D01*
X-149606Y239528D01*
X-148838Y239681D01*
X-148187Y240116D01*
X-147752Y240767D01*
X-147599Y241535D01*
X-147603Y241552D01*
X-135522Y253632D01*
X-135218Y254088D01*
X-135111Y254626D01*
Y278314D01*
X-122154Y291270D01*
X-108710D01*
X-44497Y227058D01*
X-44121Y226806D01*
X-44152Y226452D01*
X-44205Y226307D01*
X-45383D01*
X-108119Y289042D01*
X-108574Y289347D01*
X-109112Y289454D01*
X-120473D01*
X-121010Y289347D01*
X-121466Y289042D01*
X-133375Y277133D01*
X-133680Y276677D01*
X-133787Y276140D01*
Y247847D01*
X-172270Y209364D01*
X-172914Y209236D01*
X-173565Y208801D01*
X-174000Y208150D01*
X-174153Y207382D01*
X-174000Y206614D01*
X-173565Y205963D01*
X-172914Y205528D01*
X-172584Y205462D01*
X-172419Y204919D01*
X-190894Y186444D01*
X-191485D01*
X-191494Y186459D01*
X-192145Y186894D01*
X-192913Y187046D01*
X-193682Y186894D01*
X-194333Y186459D01*
X-194768Y185807D01*
X-194921Y185039D01*
X-194768Y184271D01*
X-194333Y183620D01*
X-193682Y183185D01*
X-192913Y183032D01*
X-192145Y183185D01*
X-191494Y183620D01*
X-191485Y183634D01*
X-190312D01*
X-189775Y183741D01*
X-189319Y184046D01*
X-128436Y244929D01*
X-128131Y245385D01*
X-128024Y245923D01*
Y271424D01*
X-117627Y281821D01*
X-109596D01*
X-48434Y220660D01*
X-47979Y220356D01*
X-47441Y220249D01*
X47835D01*
X48372Y220356D01*
X48828Y220660D01*
X109989Y281821D01*
X123040D01*
X129205Y275656D01*
Y245397D01*
X128705Y245348D01*
X128660Y245575D01*
X128356Y246031D01*
X119005Y255381D01*
X118967Y255673D01*
X118590Y256583D01*
X117990Y257364D01*
X117209Y257964D01*
X116299Y258341D01*
X115323Y258469D01*
X114347Y258341D01*
X113437Y257964D01*
X112655Y257364D01*
X112056Y256583D01*
X111679Y255673D01*
X111550Y254697D01*
X111679Y253720D01*
X112056Y252811D01*
X112655Y252029D01*
X113437Y251430D01*
X114347Y251053D01*
X115323Y250924D01*
X116299Y251053D01*
X117209Y251430D01*
X117990Y252029D01*
X118359Y252053D01*
X125957Y244455D01*
Y232537D01*
X126064Y232000D01*
X126369Y231544D01*
X183438Y174475D01*
Y168259D01*
X183423Y168250D01*
X182988Y167599D01*
X182835Y166831D01*
X182988Y166063D01*
X183423Y165411D01*
X184074Y164976D01*
X184843Y164824D01*
X185611Y164976D01*
X186262Y165411D01*
X186697Y166063D01*
X186850Y166831D01*
X186697Y167599D01*
X186262Y168250D01*
X186248Y168259D01*
Y175057D01*
X186141Y175594D01*
X185836Y176050D01*
X128767Y233119D01*
Y237295D01*
X129267Y237344D01*
X129312Y237118D01*
X129617Y236662D01*
X165012Y201266D01*
X165468Y200962D01*
X166006Y200855D01*
X183217D01*
X183227Y200841D01*
X183878Y200406D01*
X184646Y200253D01*
X185414Y200406D01*
X186065Y200841D01*
X186500Y201492D01*
X186653Y202260D01*
X186500Y203028D01*
X186065Y203679D01*
X185414Y204114D01*
X184646Y204267D01*
X183878Y204114D01*
X183227Y203679D01*
X183217Y203665D01*
X166588D01*
X132015Y238237D01*
Y276238D01*
X131908Y276776D01*
X131604Y277232D01*
X124615Y284220D01*
X124160Y284524D01*
X123622Y284631D01*
X109407D01*
X108870Y284524D01*
X108414Y284220D01*
X47253Y223059D01*
X45931D01*
X45882Y223558D01*
X46108Y223604D01*
X46564Y223908D01*
X109300Y286644D01*
X127469D01*
X133339Y280774D01*
Y242520D01*
X133446Y241982D01*
X133751Y241526D01*
X167189Y208088D01*
X167186Y208071D01*
X167339Y207303D01*
X167774Y206652D01*
X168425Y206217D01*
X169193Y206064D01*
X169961Y206217D01*
X170612Y206652D01*
X171047Y207303D01*
X171200Y208071D01*
X171047Y208839D01*
X170612Y209490D01*
X169961Y209925D01*
X169193Y210078D01*
X169176Y210075D01*
X136149Y243102D01*
Y281356D01*
X136042Y281894D01*
X135738Y282350D01*
X129045Y289042D01*
X128589Y289347D01*
X128051Y289454D01*
X108718D01*
X108181Y289347D01*
X107725Y289042D01*
X44989Y226307D01*
X44500D01*
X44447Y226452D01*
X44417Y226806D01*
X44793Y227058D01*
X109005Y291270D01*
X128650D01*
X136882Y283038D01*
Y248959D01*
X136989Y248421D01*
X137294Y247966D01*
X142013Y243247D01*
X142469Y242942D01*
X143006Y242835D01*
X164122D01*
X164132Y242821D01*
X164783Y242386D01*
X165551Y242233D01*
X166319Y242386D01*
X166970Y242821D01*
X167405Y243472D01*
X167558Y244240D01*
X167405Y245008D01*
X166970Y245659D01*
X166319Y246094D01*
X165551Y246247D01*
X164783Y246094D01*
X164132Y245659D01*
X164122Y245645D01*
X143588D01*
X139692Y249541D01*
Y283620D01*
X139585Y284158D01*
X139281Y284613D01*
X130226Y293669D01*
X129850Y293920D01*
X129880Y294274D01*
X129933Y294420D01*
X131209D01*
X141410Y284219D01*
Y256594D01*
X141517Y256057D01*
X141822Y255601D01*
X142277Y255296D01*
X142643Y255224D01*
X142675Y255175D01*
X143326Y254740D01*
X144095Y254587D01*
X144863Y254740D01*
X145514Y255175D01*
X145949Y255826D01*
X146102Y256594D01*
X145949Y257363D01*
X145514Y258014D01*
X144863Y258449D01*
X144220Y258577D01*
Y284801D01*
X144113Y285339D01*
X143808Y285794D01*
X132785Y296818D01*
X132329Y297123D01*
X131791Y297230D01*
X106553D01*
X106015Y297123D01*
X105560Y296818D01*
X41249Y232507D01*
X-40953D01*
X-105363Y296917D01*
X-105818Y297221D01*
X-106356Y297328D01*
D02*
G37*
G36*
X175654Y261773D02*
X174678Y261645D01*
X173768Y261268D01*
X172986Y260668D01*
X172387Y259887D01*
X172010Y258977D01*
X171882Y258001D01*
X172010Y257024D01*
X172387Y256115D01*
X172986Y255333D01*
X173768Y254734D01*
X174678Y254357D01*
X175654Y254228D01*
X176630Y254357D01*
X177540Y254734D01*
X178322Y255333D01*
X178921Y256115D01*
X179298Y257024D01*
X179426Y258001D01*
X179298Y258977D01*
X178921Y259887D01*
X178322Y260668D01*
X177540Y261268D01*
X176630Y261645D01*
X175654Y261773D01*
D02*
G37*
G36*
X-175654Y261773D02*
X-176630Y261645D01*
X-177540Y261268D01*
X-178322Y260668D01*
X-178921Y259887D01*
X-179298Y258977D01*
X-179426Y258001D01*
X-179298Y257024D01*
X-178921Y256114D01*
X-178322Y255333D01*
X-177540Y254734D01*
X-176630Y254357D01*
X-175654Y254228D01*
X-174678Y254357D01*
X-173768Y254734D01*
X-172986Y255333D01*
X-172387Y256114D01*
X-172010Y257024D01*
X-171882Y258001D01*
X-172010Y258977D01*
X-172387Y259887D01*
X-172986Y260668D01*
X-173768Y261268D01*
X-174678Y261645D01*
X-175654Y261773D01*
D02*
G37*
G36*
X217711Y226483D02*
X216734Y226355D01*
X215825Y225978D01*
X215043Y225378D01*
X214444Y224597D01*
X214067Y223687D01*
X213938Y222711D01*
X214067Y221734D01*
X214444Y220825D01*
X215043Y220043D01*
X215825Y219444D01*
X216734Y219067D01*
X217711Y218938D01*
X218687Y219067D01*
X219597Y219444D01*
X220378Y220043D01*
X220978Y220825D01*
X221355Y221734D01*
X221483Y222711D01*
X221355Y223687D01*
X220978Y224597D01*
X220378Y225378D01*
X219597Y225978D01*
X218687Y226355D01*
X217711Y226483D01*
D02*
G37*
G36*
X-217711D02*
X-218687Y226355D01*
X-219597Y225978D01*
X-220378Y225378D01*
X-220978Y224597D01*
X-221355Y223687D01*
X-221483Y222711D01*
X-221355Y221734D01*
X-220978Y220825D01*
X-220378Y220043D01*
X-219597Y219444D01*
X-218687Y219067D01*
X-217711Y218938D01*
X-216734Y219067D01*
X-215825Y219444D01*
X-215043Y220043D01*
X-214444Y220825D01*
X-214067Y221734D01*
X-213938Y222711D01*
X-214067Y223687D01*
X-214444Y224597D01*
X-215043Y225378D01*
X-215825Y225978D01*
X-216734Y226355D01*
X-217711Y226483D01*
D02*
G37*
G36*
X189799Y238832D02*
X187823Y238676D01*
X185894Y238213D01*
X184062Y237454D01*
X182371Y236418D01*
X180863Y235130D01*
X179576Y233622D01*
X178540Y231931D01*
X177781Y230099D01*
X177318Y228171D01*
X177162Y226194D01*
X177318Y224217D01*
X177781Y222289D01*
X178540Y220457D01*
X179576Y218766D01*
X180863Y217258D01*
X182371Y215970D01*
X184062Y214934D01*
X185894Y214175D01*
X187823Y213712D01*
X189799Y213557D01*
X191776Y213712D01*
X193705Y214175D01*
X195537Y214934D01*
X197228Y215970D01*
X198735Y217258D01*
X200023Y218766D01*
X201060Y220457D01*
X201818Y222289D01*
X202281Y224217D01*
X202437Y226194D01*
X202281Y228171D01*
X201818Y230099D01*
X201060Y231931D01*
X200023Y233622D01*
X198735Y235130D01*
X197228Y236418D01*
X195537Y237454D01*
X193705Y238213D01*
X191776Y238676D01*
X189799Y238832D01*
D02*
G37*
G36*
X-189799D02*
X-191776Y238676D01*
X-193705Y238213D01*
X-195537Y237454D01*
X-197228Y236418D01*
X-198735Y235130D01*
X-200023Y233622D01*
X-201060Y231931D01*
X-201818Y230099D01*
X-202281Y228171D01*
X-202437Y226194D01*
X-202281Y224217D01*
X-201818Y222289D01*
X-201060Y220457D01*
X-200023Y218766D01*
X-198735Y217258D01*
X-197228Y215970D01*
X-195537Y214934D01*
X-193705Y214175D01*
X-191776Y213712D01*
X-189799Y213557D01*
X-187823Y213712D01*
X-185894Y214175D01*
X-184062Y214934D01*
X-182371Y215970D01*
X-180863Y217258D01*
X-179576Y218766D01*
X-178540Y220457D01*
X-177781Y222289D01*
X-177318Y224217D01*
X-177162Y226194D01*
X-177318Y228171D01*
X-177781Y230099D01*
X-178540Y231931D01*
X-179576Y233622D01*
X-180863Y235130D01*
X-182371Y236418D01*
X-184062Y237454D01*
X-185894Y238213D01*
X-187823Y238676D01*
X-189799Y238832D01*
D02*
G37*
G36*
X-114677Y218469D02*
X-115654Y218341D01*
X-116563Y217964D01*
X-117345Y217364D01*
X-117944Y216583D01*
X-118321Y215673D01*
X-118450Y214697D01*
X-118321Y213720D01*
X-117944Y212811D01*
X-117345Y212029D01*
X-116563Y211430D01*
X-115654Y211053D01*
X-114677Y210924D01*
X-113701Y211053D01*
X-112791Y211430D01*
X-112010Y212029D01*
X-111410Y212811D01*
X-111033Y213720D01*
X-110905Y214697D01*
X-111033Y215673D01*
X-111410Y216583D01*
X-112010Y217364D01*
X-112791Y217964D01*
X-113701Y218341D01*
X-114677Y218469D01*
D02*
G37*
G36*
Y208469D02*
X-115654Y208341D01*
X-116563Y207964D01*
X-117345Y207364D01*
X-117944Y206583D01*
X-118321Y205673D01*
X-118450Y204697D01*
X-118321Y203720D01*
X-117944Y202811D01*
X-117345Y202029D01*
X-116563Y201430D01*
X-115654Y201053D01*
X-114677Y200924D01*
X-113701Y201053D01*
X-112791Y201430D01*
X-112010Y202029D01*
X-111410Y202811D01*
X-111033Y203720D01*
X-110905Y204697D01*
X-111033Y205673D01*
X-111410Y206583D01*
X-112010Y207364D01*
X-112791Y207964D01*
X-113701Y208341D01*
X-114677Y208469D01*
D02*
G37*
G36*
X236274Y206225D02*
X235297Y206097D01*
X234388Y205720D01*
X233606Y205120D01*
X233007Y204339D01*
X232630Y203429D01*
X232501Y202453D01*
X232630Y201476D01*
X233007Y200567D01*
X233606Y199785D01*
X234388Y199186D01*
X235297Y198809D01*
X236274Y198680D01*
X237250Y198809D01*
X238160Y199186D01*
X238941Y199785D01*
X239541Y200567D01*
X239918Y201476D01*
X240046Y202453D01*
X239918Y203429D01*
X239541Y204339D01*
X238941Y205120D01*
X238160Y205720D01*
X237250Y206097D01*
X236274Y206225D01*
D02*
G37*
G36*
X-236274Y206225D02*
X-237250Y206097D01*
X-238160Y205720D01*
X-238941Y205120D01*
X-239541Y204339D01*
X-239918Y203429D01*
X-240046Y202453D01*
X-239918Y201476D01*
X-239541Y200567D01*
X-238941Y199785D01*
X-238160Y199186D01*
X-237250Y198809D01*
X-236274Y198680D01*
X-235297Y198809D01*
X-234388Y199186D01*
X-233606Y199785D01*
X-233007Y200567D01*
X-232630Y201476D01*
X-232501Y202453D01*
X-232630Y203429D01*
X-233007Y204339D01*
X-233606Y205120D01*
X-234388Y205720D01*
X-235297Y206097D01*
X-236274Y206225D01*
D02*
G37*
G36*
X-114677Y198469D02*
X-115654Y198341D01*
X-116563Y197964D01*
X-117345Y197364D01*
X-117944Y196583D01*
X-118321Y195673D01*
X-118450Y194697D01*
X-118321Y193720D01*
X-117944Y192811D01*
X-117345Y192029D01*
X-116563Y191430D01*
X-115654Y191053D01*
X-114677Y190924D01*
X-113701Y191053D01*
X-112791Y191430D01*
X-112010Y192029D01*
X-111410Y192811D01*
X-111033Y193720D01*
X-110905Y194697D01*
X-111033Y195673D01*
X-111410Y196583D01*
X-112010Y197364D01*
X-112791Y197964D01*
X-113701Y198341D01*
X-114677Y198469D01*
D02*
G37*
G36*
Y188469D02*
X-115654Y188341D01*
X-116563Y187964D01*
X-117345Y187364D01*
X-117944Y186583D01*
X-118321Y185673D01*
X-118450Y184697D01*
X-118321Y183721D01*
X-117944Y182811D01*
X-117345Y182029D01*
X-116563Y181430D01*
X-115654Y181053D01*
X-114677Y180924D01*
X-113701Y181053D01*
X-112791Y181430D01*
X-112010Y182029D01*
X-111410Y182811D01*
X-111033Y183721D01*
X-110905Y184697D01*
X-111033Y185673D01*
X-111410Y186583D01*
X-112010Y187364D01*
X-112791Y187964D01*
X-113701Y188341D01*
X-114677Y188469D01*
D02*
G37*
G36*
Y178469D02*
X-115654Y178341D01*
X-116563Y177964D01*
X-117345Y177364D01*
X-117944Y176583D01*
X-118321Y175673D01*
X-118450Y174697D01*
X-118321Y173721D01*
X-117944Y172811D01*
X-117345Y172029D01*
X-116563Y171430D01*
X-115654Y171053D01*
X-114677Y170924D01*
X-113701Y171053D01*
X-112791Y171430D01*
X-112010Y172029D01*
X-111410Y172811D01*
X-111033Y173721D01*
X-110905Y174697D01*
X-111033Y175673D01*
X-111410Y176583D01*
X-112010Y177364D01*
X-112791Y177964D01*
X-113701Y178341D01*
X-114677Y178469D01*
D02*
G37*
G36*
X-110937Y168437D02*
X-118417D01*
Y160957D01*
X-110937D01*
Y168437D01*
D02*
G37*
G36*
X158957Y149001D02*
X141339D01*
X140801Y148894D01*
X140345Y148590D01*
X99794Y108039D01*
X99489Y107583D01*
X99382Y107045D01*
Y103732D01*
X96662Y101011D01*
X93348D01*
X92811Y100904D01*
X92355Y100600D01*
X89065Y97310D01*
X88761Y96854D01*
X88654Y96317D01*
Y80864D01*
X88761Y80326D01*
X89065Y79871D01*
X92151Y76785D01*
X92014Y76607D01*
X91633Y75686D01*
X91503Y74697D01*
X91633Y73708D01*
X92014Y72787D01*
X92622Y71996D01*
X93413Y71389D01*
X93559Y71328D01*
X93460Y70828D01*
X92159D01*
X91622Y70721D01*
X91166Y70416D01*
X85146Y64397D01*
X66929D01*
X66391Y64290D01*
X65936Y63986D01*
X47056Y45106D01*
X-81815D01*
X-82352Y44999D01*
X-82808Y44694D01*
X-89084Y38418D01*
X-89256Y38161D01*
X-89844Y38042D01*
X-92166Y40363D01*
X-92166Y40363D01*
X-92724Y40922D01*
X-92607Y41512D01*
X-91976Y41996D01*
X-91369Y42787D01*
X-90987Y43708D01*
X-90857Y44697D01*
X-90987Y45686D01*
X-91369Y46607D01*
X-91976Y47398D01*
X-92767Y48005D01*
X-93688Y48387D01*
X-94677Y48517D01*
X-95666Y48387D01*
X-96587Y48005D01*
X-97378Y47398D01*
X-97986Y46607D01*
X-98367Y45686D01*
X-98497Y44697D01*
X-98367Y43708D01*
X-97986Y42787D01*
X-97553Y42224D01*
X-97800Y41724D01*
X-101554D01*
X-101801Y42224D01*
X-101369Y42787D01*
X-100987Y43708D01*
X-100857Y44697D01*
X-100987Y45686D01*
X-101369Y46607D01*
X-101976Y47398D01*
X-102767Y48005D01*
X-103689Y48387D01*
X-104677Y48517D01*
X-105666Y48387D01*
X-106587Y48005D01*
X-107378Y47398D01*
X-107985Y46607D01*
X-108367Y45686D01*
X-108497Y44697D01*
X-108367Y43708D01*
X-107985Y42787D01*
X-107554Y42224D01*
X-107768Y41789D01*
X-108262Y41745D01*
X-110396Y43879D01*
X-110852Y44184D01*
X-111390Y44291D01*
X-139784D01*
X-140772Y45279D01*
Y56595D01*
X-138406D01*
Y64075D01*
X-145886D01*
Y56595D01*
X-143582D01*
Y44697D01*
X-143475Y44159D01*
X-143171Y43703D01*
X-141360Y41892D01*
X-140904Y41588D01*
X-140366Y41481D01*
X-111972D01*
X-109816Y39325D01*
X-109361Y39021D01*
X-108823Y38914D01*
X-105492D01*
X-105459Y38414D01*
X-105666Y38387D01*
X-106587Y38005D01*
X-107378Y37398D01*
X-107985Y36607D01*
X-108367Y35686D01*
X-108497Y34697D01*
X-108367Y33708D01*
X-107985Y32787D01*
X-107378Y31996D01*
X-106587Y31389D01*
X-105666Y31007D01*
X-104677Y30877D01*
X-103689Y31007D01*
X-102767Y31389D01*
X-101976Y31996D01*
X-101369Y32787D01*
X-100987Y33708D01*
X-100857Y34697D01*
X-100987Y35686D01*
X-101369Y36607D01*
X-101976Y37398D01*
X-102767Y38005D01*
X-103689Y38387D01*
X-103895Y38414D01*
X-103862Y38914D01*
X-95492D01*
X-95459Y38414D01*
X-95666Y38387D01*
X-96587Y38005D01*
X-97378Y37398D01*
X-97986Y36607D01*
X-98367Y35686D01*
X-98497Y34697D01*
X-98367Y33708D01*
X-97986Y32787D01*
X-97378Y31996D01*
X-96587Y31389D01*
X-95666Y31007D01*
X-94677Y30877D01*
X-93688Y31007D01*
X-92767Y31389D01*
X-92161Y31854D01*
X-91661Y31618D01*
Y30175D01*
X-91554Y29637D01*
X-91249Y29182D01*
X-88975Y26907D01*
X-89020Y26555D01*
X-89114Y26370D01*
X-89646Y26264D01*
X-90297Y25829D01*
X-90468Y25573D01*
X-90987Y25686D01*
X-91369Y26607D01*
X-91976Y27398D01*
X-92767Y28005D01*
X-93688Y28387D01*
X-94677Y28517D01*
X-95666Y28387D01*
X-96587Y28005D01*
X-97378Y27398D01*
X-97986Y26607D01*
X-98367Y25686D01*
X-98497Y24697D01*
X-98367Y23708D01*
X-97986Y22787D01*
X-97378Y21996D01*
X-96587Y21389D01*
X-95666Y21007D01*
X-94677Y20877D01*
X-93688Y21007D01*
X-93030Y21280D01*
X-80474Y8723D01*
X-80018Y8418D01*
X-79480Y8312D01*
X-79096D01*
X-78880Y7988D01*
X-78229Y7553D01*
X-77461Y7400D01*
X-76693Y7553D01*
X-76042Y7988D01*
X-75606Y8639D01*
X-75454Y9407D01*
X-75606Y10175D01*
X-75925Y10652D01*
X-75697Y11152D01*
X-69151D01*
X-69037Y10982D01*
X-68386Y10547D01*
X-67618Y10395D01*
X-66850Y10547D01*
X-66199Y10982D01*
X-66086Y11152D01*
X-49237D01*
X-48808Y10865D01*
X-48270Y10758D01*
X-45824D01*
X-45287Y10865D01*
X-44857Y11152D01*
X-27944D01*
X-24854Y8062D01*
X-24398Y7757D01*
X-23860Y7650D01*
X-22393D01*
X-22384Y7636D01*
X-21733Y7201D01*
X-20965Y7048D01*
X-20197Y7201D01*
X-19545Y7636D01*
X-19110Y8287D01*
X-18958Y9055D01*
X-19110Y9823D01*
X-19545Y10474D01*
X-20197Y10909D01*
X-20965Y11062D01*
X-21733Y10909D01*
X-22384Y10474D01*
X-22393Y10460D01*
X-23279D01*
X-26369Y13550D01*
X-26825Y13855D01*
X-27362Y13962D01*
X-45431D01*
X-45968Y13855D01*
X-46397Y13568D01*
X-47697D01*
X-48126Y13855D01*
X-48664Y13962D01*
X-66410D01*
X-66850Y14256D01*
X-67618Y14409D01*
X-68386Y14256D01*
X-68826Y13962D01*
X-77765D01*
X-80969Y17166D01*
X-80965Y17183D01*
X-81118Y17951D01*
X-81553Y18602D01*
X-82204Y19037D01*
X-82973Y19190D01*
X-83741Y19037D01*
X-84392Y18602D01*
X-84827Y17951D01*
X-84873Y17720D01*
X-85351Y17574D01*
X-89863Y22086D01*
X-89651Y22528D01*
X-89620Y22550D01*
X-88878Y22402D01*
X-88110Y22555D01*
X-87459Y22990D01*
X-87449Y23005D01*
X-84735D01*
X-84197Y23111D01*
X-83741Y23416D01*
X-71497Y35661D01*
X-71044Y35358D01*
X-70276Y35206D01*
X-69507Y35358D01*
X-68856Y35793D01*
X-68421Y36445D01*
X-68269Y37213D01*
X-68421Y37981D01*
X-68856Y38632D01*
X-69507Y39067D01*
X-70276Y39220D01*
X-71044Y39067D01*
X-71695Y38632D01*
X-71757Y38539D01*
X-72010D01*
X-72548Y38432D01*
X-73004Y38127D01*
X-82820Y28312D01*
X-83298Y28457D01*
X-83342Y28679D01*
X-83777Y29331D01*
X-84429Y29766D01*
X-84711Y29822D01*
Y30332D01*
X-84429Y30388D01*
X-83777Y30823D01*
X-83342Y31474D01*
X-83190Y32242D01*
X-83342Y33010D01*
X-83777Y33661D01*
X-84119Y33890D01*
X-84106Y34482D01*
X-83707Y34748D01*
X-83272Y35399D01*
X-83119Y36167D01*
X-83133Y36237D01*
X-79286Y40084D01*
X49444D01*
X49982Y40191D01*
X50438Y40495D01*
X67986Y58044D01*
X92642D01*
X92812Y57544D01*
X92622Y57398D01*
X92014Y56607D01*
X91633Y55686D01*
X91503Y54697D01*
X91633Y53708D01*
X92014Y52787D01*
X92622Y51996D01*
X93413Y51389D01*
X94334Y51007D01*
X95323Y50877D01*
X96311Y51007D01*
X97233Y51389D01*
X98024Y51996D01*
X98631Y52787D01*
X99013Y53708D01*
X99143Y54697D01*
X99013Y55686D01*
X98631Y56607D01*
X98024Y57398D01*
X97834Y57544D01*
X98004Y58044D01*
X102642D01*
X102812Y57544D01*
X102622Y57398D01*
X102015Y56607D01*
X101633Y55686D01*
X101503Y54697D01*
X101633Y53708D01*
X102015Y52787D01*
X102622Y51996D01*
X103413Y51389D01*
X104334Y51007D01*
X105323Y50877D01*
X106312Y51007D01*
X107233Y51389D01*
X108024Y51996D01*
X108631Y52787D01*
X109013Y53708D01*
X109143Y54697D01*
X109013Y55686D01*
X108631Y56607D01*
X108024Y57398D01*
X107834Y57544D01*
X108004Y58044D01*
X110278D01*
X110815Y58151D01*
X111271Y58455D01*
X141625Y88810D01*
X278496D01*
X278737Y88346D01*
X278731Y88310D01*
X278108Y87893D01*
X278099Y87879D01*
X214567D01*
X214029Y87772D01*
X213573Y87468D01*
X209439Y83334D01*
X209135Y82878D01*
X209028Y82340D01*
Y76683D01*
X209014Y76673D01*
X208579Y76022D01*
X208426Y75254D01*
X208579Y74486D01*
X209014Y73835D01*
X209665Y73400D01*
X210433Y73247D01*
X211201Y73400D01*
X211852Y73835D01*
X212287Y74486D01*
X212440Y75254D01*
X212287Y76022D01*
X211852Y76673D01*
X211838Y76683D01*
Y81758D01*
X215149Y85069D01*
X278099D01*
X278108Y85055D01*
X278759Y84620D01*
X279527Y84467D01*
X280296Y84620D01*
X280947Y85055D01*
X281382Y85706D01*
X281535Y86474D01*
X281382Y87242D01*
X281208Y87502D01*
X281569Y87863D01*
X282026Y87557D01*
X282794Y87404D01*
X283562Y87557D01*
X284213Y87992D01*
X284648Y88643D01*
X284801Y89411D01*
X284648Y90179D01*
X284213Y90831D01*
X283562Y91266D01*
X282794Y91418D01*
X282026Y91266D01*
X281377Y90832D01*
X281094D01*
X280718Y91208D01*
X280262Y91512D01*
X279724Y91619D01*
X141043D01*
X140506Y91512D01*
X140050Y91208D01*
X109696Y60854D01*
X107248D01*
X107149Y61354D01*
X107233Y61389D01*
X108024Y61996D01*
X108631Y62787D01*
X109013Y63708D01*
X109143Y64697D01*
X109013Y65686D01*
X108631Y66607D01*
X108024Y67398D01*
X107868Y67518D01*
X108037Y68018D01*
X112082D01*
X112620Y68125D01*
X113076Y68429D01*
X137983Y93337D01*
X278296D01*
X278305Y93323D01*
X278956Y92888D01*
X279724Y92735D01*
X280492Y92888D01*
X281143Y93323D01*
X281579Y93974D01*
X281731Y94742D01*
X281579Y95510D01*
X281143Y96161D01*
X280492Y96596D01*
X279724Y96749D01*
X278956Y96596D01*
X278305Y96161D01*
X278296Y96147D01*
X137995D01*
X137500Y96245D01*
X136962Y96138D01*
X136506Y95834D01*
X111500Y70828D01*
X107186D01*
X107086Y71328D01*
X107233Y71389D01*
X108024Y71996D01*
X108631Y72787D01*
X109013Y73708D01*
X109143Y74697D01*
X109013Y75686D01*
X108631Y76607D01*
X108024Y77398D01*
X107233Y78005D01*
X106312Y78387D01*
X105323Y78517D01*
X104334Y78387D01*
X103413Y78005D01*
X102622Y77398D01*
X102015Y76607D01*
X101633Y75686D01*
X101503Y74697D01*
X101633Y73708D01*
X102015Y72787D01*
X102622Y71996D01*
X103413Y71389D01*
X103559Y71328D01*
X103460Y70828D01*
X97186D01*
X97086Y71328D01*
X97233Y71389D01*
X98024Y71996D01*
X98631Y72787D01*
X99013Y73708D01*
X99143Y74697D01*
X99013Y75686D01*
X98631Y76607D01*
X98024Y77398D01*
X97233Y78005D01*
X96311Y78387D01*
X95323Y78517D01*
X94501Y78409D01*
X91464Y81446D01*
Y82810D01*
X91964Y82909D01*
X92014Y82787D01*
X92622Y81996D01*
X93413Y81389D01*
X94334Y81007D01*
X95323Y80877D01*
X96311Y81007D01*
X97233Y81389D01*
X98024Y81996D01*
X98631Y82787D01*
X99013Y83708D01*
X99143Y84697D01*
X99013Y85686D01*
X98804Y86191D01*
X100381Y87768D01*
X102339D01*
X102522Y87268D01*
X102015Y86607D01*
X101633Y85686D01*
X101503Y84697D01*
X101633Y83708D01*
X102015Y82787D01*
X102622Y81996D01*
X103413Y81389D01*
X104334Y81007D01*
X105323Y80877D01*
X106312Y81007D01*
X107233Y81389D01*
X108024Y81996D01*
X108631Y82787D01*
X109013Y83708D01*
X109143Y84697D01*
X109013Y85686D01*
X108803Y86191D01*
X117430Y94818D01*
X117735Y95273D01*
X117842Y95811D01*
Y106955D01*
X135031Y124144D01*
X138770D01*
X138961Y123682D01*
X120168Y104889D01*
X119863Y104433D01*
X119756Y103895D01*
Y94596D01*
X119742Y94586D01*
X119307Y93935D01*
X119154Y93167D01*
X119307Y92399D01*
X119742Y91748D01*
X120393Y91313D01*
X121161Y91160D01*
X121929Y91313D01*
X122581Y91748D01*
X123016Y92399D01*
X123168Y93167D01*
X123016Y93935D01*
X122581Y94586D01*
X122566Y94596D01*
Y103314D01*
X141428Y122176D01*
X177756D01*
X178294Y122283D01*
X178749Y122587D01*
X194865Y138703D01*
X194882Y138699D01*
X195650Y138852D01*
X196301Y139287D01*
X196736Y139938D01*
X196889Y140707D01*
X196736Y141475D01*
X196301Y142126D01*
X195650Y142561D01*
X194882Y142714D01*
X194114Y142561D01*
X193463Y142126D01*
X193027Y141475D01*
X192875Y140707D01*
X192878Y140690D01*
X177174Y124986D01*
X161427D01*
X161236Y125447D01*
X172352Y136564D01*
X172656Y137019D01*
X172763Y137557D01*
Y141977D01*
X172777Y141986D01*
X173213Y142637D01*
X173365Y143405D01*
X173213Y144174D01*
X172777Y144825D01*
X172126Y145260D01*
X171358Y145413D01*
X170590Y145260D01*
X169939Y144825D01*
X169504Y144174D01*
X169351Y143405D01*
X169504Y142637D01*
X169939Y141986D01*
X169953Y141977D01*
Y138139D01*
X158768Y126954D01*
X134449D01*
X133911Y126847D01*
X133455Y126542D01*
X116139Y109226D01*
X115676Y109417D01*
Y110499D01*
X133453Y128275D01*
X133510Y128287D01*
X133966Y128591D01*
X136056Y130682D01*
X150638D01*
X150648Y130667D01*
X151299Y130232D01*
X152067Y130079D01*
X152835Y130232D01*
X153486Y130667D01*
X153921Y131318D01*
X154074Y132087D01*
X153921Y132855D01*
X153486Y133506D01*
X152835Y133941D01*
X152067Y134094D01*
X151299Y133941D01*
X150648Y133506D01*
X150638Y133492D01*
X136539D01*
X136347Y133953D01*
X143757Y141363D01*
X144212Y141059D01*
X144980Y140906D01*
X145748Y141059D01*
X146399Y141494D01*
X146835Y142145D01*
X146987Y142913D01*
X146835Y143682D01*
X146399Y144333D01*
X145748Y144768D01*
X144980Y144921D01*
X144212Y144768D01*
X143561Y144333D01*
X143552Y144318D01*
X143321D01*
X142783Y144211D01*
X142327Y143907D01*
X109735Y111315D01*
X109430Y110859D01*
X109323Y110321D01*
Y100684D01*
X106817Y98177D01*
X106312Y98387D01*
X105323Y98517D01*
X104334Y98387D01*
X103413Y98005D01*
X102622Y97398D01*
X102015Y96607D01*
X101633Y95686D01*
X101503Y94697D01*
X101633Y93708D01*
X102015Y92787D01*
X102622Y91996D01*
X103413Y91389D01*
X104162Y91078D01*
X104063Y90578D01*
X99799D01*
X99262Y90471D01*
X98806Y90167D01*
X96817Y88178D01*
X96311Y88387D01*
X95323Y88517D01*
X94334Y88387D01*
X93413Y88005D01*
X92622Y87398D01*
X92014Y86607D01*
X91964Y86485D01*
X91464Y86584D01*
Y92809D01*
X91964Y92909D01*
X92014Y92787D01*
X92622Y91996D01*
X93413Y91389D01*
X94334Y91007D01*
X95323Y90877D01*
X96311Y91007D01*
X97233Y91389D01*
X98024Y91996D01*
X98631Y92787D01*
X99013Y93708D01*
X99143Y94697D01*
X99013Y95686D01*
X98631Y96607D01*
X98024Y97398D01*
X97560Y97754D01*
X97684Y98289D01*
X97782Y98308D01*
X98238Y98613D01*
X101781Y102156D01*
X102085Y102612D01*
X102192Y103150D01*
Y106463D01*
X141920Y146191D01*
X158375D01*
X159717Y144849D01*
Y142085D01*
X159824Y141547D01*
X160128Y141091D01*
X160584Y140787D01*
X161122Y140680D01*
X161660Y140787D01*
X161830Y140900D01*
X162008Y140865D01*
X162776Y141018D01*
X163427Y141453D01*
X163862Y142104D01*
X164015Y142872D01*
X163862Y143640D01*
X163427Y144291D01*
X162776Y144726D01*
X162527Y144776D01*
Y145431D01*
X162420Y145969D01*
X162115Y146424D01*
X159950Y148590D01*
X159494Y148894D01*
X158957Y149001D01*
D02*
G37*
G36*
X255716Y164209D02*
X253553Y164067D01*
X251427Y163644D01*
X249375Y162947D01*
X247431Y161989D01*
X245628Y160784D01*
X243999Y159355D01*
X242570Y157726D01*
X241365Y155923D01*
X240407Y153979D01*
X239710Y151927D01*
X239287Y149801D01*
X239145Y147638D01*
X239287Y145475D01*
X239710Y143349D01*
X240407Y141296D01*
X241365Y139352D01*
X242570Y137550D01*
X243999Y135920D01*
X245628Y134491D01*
X247431Y133287D01*
X249375Y132328D01*
X251427Y131632D01*
X253553Y131209D01*
X255716Y131067D01*
X257879Y131209D01*
X260005Y131632D01*
X262058Y132328D01*
X264002Y133287D01*
X265804Y134491D01*
X267434Y135920D01*
X268863Y137550D01*
X270067Y139352D01*
X271026Y141296D01*
X271722Y143349D01*
X272145Y145475D01*
X272287Y147638D01*
X272145Y149801D01*
X271722Y151927D01*
X271026Y153979D01*
X270067Y155923D01*
X268863Y157726D01*
X267434Y159355D01*
X265804Y160784D01*
X264002Y161989D01*
X262058Y162947D01*
X260005Y163644D01*
X257879Y164067D01*
X255716Y164209D01*
D02*
G37*
G36*
X-255716D02*
X-257879Y164067D01*
X-260005Y163644D01*
X-262058Y162947D01*
X-264002Y161989D01*
X-265804Y160784D01*
X-267434Y159355D01*
X-268863Y157726D01*
X-270067Y155923D01*
X-271026Y153979D01*
X-271722Y151927D01*
X-272145Y149801D01*
X-272287Y147638D01*
X-272145Y145475D01*
X-271722Y143349D01*
X-271026Y141296D01*
X-270067Y139352D01*
X-268863Y137550D01*
X-267434Y135920D01*
X-265804Y134491D01*
X-264002Y133287D01*
X-262058Y132328D01*
X-260005Y131632D01*
X-257879Y131209D01*
X-255716Y131067D01*
X-253553Y131209D01*
X-251427Y131632D01*
X-249375Y132328D01*
X-247431Y133287D01*
X-245628Y134491D01*
X-243999Y135920D01*
X-242570Y137550D01*
X-241365Y139352D01*
X-240407Y141296D01*
X-239710Y143349D01*
X-239287Y145475D01*
X-239145Y147638D01*
X-239287Y149801D01*
X-239710Y151927D01*
X-240407Y153979D01*
X-241365Y155923D01*
X-242570Y157726D01*
X-243999Y159355D01*
X-245628Y160784D01*
X-247431Y161989D01*
X-249375Y162947D01*
X-251427Y163644D01*
X-253553Y164067D01*
X-255716Y164209D01*
D02*
G37*
G36*
X-142146Y94107D02*
X-143122Y93979D01*
X-144032Y93602D01*
X-144813Y93002D01*
X-145413Y92221D01*
X-145790Y91311D01*
X-145918Y90335D01*
X-145790Y89358D01*
X-145413Y88448D01*
X-144813Y87667D01*
X-144032Y87068D01*
X-143122Y86691D01*
X-142146Y86562D01*
X-141169Y86691D01*
X-140260Y87068D01*
X-139478Y87667D01*
X-138879Y88448D01*
X-138502Y89358D01*
X-138373Y90335D01*
X-138502Y91311D01*
X-138879Y92221D01*
X-139478Y93002D01*
X-140260Y93602D01*
X-141169Y93979D01*
X-142146Y94107D01*
D02*
G37*
G36*
X-104677Y98517D02*
X-105666Y98387D01*
X-106587Y98005D01*
X-107378Y97398D01*
X-107985Y96607D01*
X-108367Y95686D01*
X-108497Y94697D01*
X-108367Y93708D01*
X-107985Y92787D01*
X-107378Y91996D01*
X-106788Y91543D01*
X-106958Y91043D01*
X-117768D01*
X-118305Y90936D01*
X-118761Y90631D01*
X-122619Y86773D01*
X-122905Y86964D01*
X-123673Y87117D01*
X-124441Y86964D01*
X-125092Y86529D01*
X-125528Y85878D01*
X-125680Y85110D01*
X-125528Y84342D01*
X-125092Y83691D01*
X-124441Y83256D01*
X-123673Y83103D01*
X-122905Y83256D01*
X-122254Y83691D01*
X-122237Y83717D01*
X-121758Y83812D01*
X-121302Y84117D01*
X-117186Y88233D01*
X-107112D01*
X-106942Y87733D01*
X-107378Y87398D01*
X-107985Y86607D01*
X-108367Y85686D01*
X-108497Y84697D01*
X-108367Y83708D01*
X-107985Y82787D01*
X-107378Y81996D01*
X-106587Y81389D01*
X-106389Y81306D01*
X-106489Y80806D01*
X-123378D01*
X-123916Y80700D01*
X-124371Y80395D01*
X-126953Y77814D01*
X-127709Y77964D01*
X-128477Y77811D01*
X-129128Y77376D01*
X-129563Y76725D01*
X-129716Y75957D01*
X-129563Y75189D01*
X-129128Y74537D01*
X-128477Y74102D01*
X-127709Y73950D01*
X-126941Y74102D01*
X-126289Y74537D01*
X-126147Y74751D01*
X-125829Y74963D01*
X-122796Y77997D01*
X-107376D01*
X-107215Y77523D01*
X-107378Y77398D01*
X-107985Y76607D01*
X-108367Y75686D01*
X-108497Y74697D01*
X-108367Y73708D01*
X-107985Y72787D01*
X-107378Y71996D01*
X-106587Y71389D01*
X-105666Y71007D01*
X-104677Y70877D01*
X-103689Y71007D01*
X-102767Y71389D01*
X-101976Y71996D01*
X-101369Y72787D01*
X-100987Y73708D01*
X-100857Y74697D01*
X-100987Y75686D01*
X-101369Y76607D01*
X-101976Y77398D01*
X-102139Y77523D01*
X-101978Y77997D01*
X-99964D01*
X-98158Y76191D01*
X-98367Y75686D01*
X-98497Y74697D01*
X-98367Y73708D01*
X-97986Y72787D01*
X-97378Y71996D01*
X-96587Y71389D01*
X-95666Y71007D01*
X-94677Y70877D01*
X-93688Y71007D01*
X-92767Y71389D01*
X-91976Y71996D01*
X-91369Y72787D01*
X-90987Y73708D01*
X-90857Y74697D01*
X-90987Y75686D01*
X-91369Y76607D01*
X-91976Y77398D01*
X-92767Y78005D01*
X-93688Y78387D01*
X-94677Y78517D01*
X-95666Y78387D01*
X-96171Y78177D01*
X-98388Y80395D01*
X-98844Y80700D01*
X-99382Y80806D01*
X-102866D01*
X-102965Y81306D01*
X-102767Y81389D01*
X-101976Y81996D01*
X-101369Y82787D01*
X-100987Y83708D01*
X-100857Y84697D01*
X-100987Y85686D01*
X-101369Y86607D01*
X-101976Y87398D01*
X-102412Y87733D01*
X-102243Y88233D01*
X-100200D01*
X-98158Y86191D01*
X-98367Y85686D01*
X-98497Y84697D01*
X-98367Y83708D01*
X-97986Y82787D01*
X-97378Y81996D01*
X-96587Y81389D01*
X-95666Y81007D01*
X-94677Y80877D01*
X-93688Y81007D01*
X-92767Y81389D01*
X-91976Y81996D01*
X-91369Y82787D01*
X-90987Y83708D01*
X-90857Y84697D01*
X-90987Y85686D01*
X-91369Y86607D01*
X-91976Y87398D01*
X-92767Y88005D01*
X-93688Y88387D01*
X-94677Y88517D01*
X-95666Y88387D01*
X-96171Y88178D01*
X-98625Y90631D01*
X-99080Y90936D01*
X-99618Y91043D01*
X-102397D01*
X-102566Y91543D01*
X-101976Y91996D01*
X-101369Y92787D01*
X-100987Y93708D01*
X-100857Y94697D01*
X-100987Y95686D01*
X-101369Y96607D01*
X-101976Y97398D01*
X-102767Y98005D01*
X-103689Y98387D01*
X-104677Y98517D01*
D02*
G37*
G36*
X-234646Y84107D02*
X-235622Y83978D01*
X-236532Y83602D01*
X-237313Y83002D01*
X-237913Y82221D01*
X-238290Y81311D01*
X-238418Y80335D01*
X-238290Y79358D01*
X-237913Y78448D01*
X-237313Y77667D01*
X-236532Y77068D01*
X-235622Y76691D01*
X-234646Y76562D01*
X-233669Y76691D01*
X-232759Y77068D01*
X-231978Y77667D01*
X-231379Y78448D01*
X-231002Y79358D01*
X-230873Y80335D01*
X-231002Y81311D01*
X-231379Y82221D01*
X-231978Y83002D01*
X-232759Y83602D01*
X-233669Y83978D01*
X-234646Y84107D01*
D02*
G37*
G36*
X-30413Y219488D02*
Y150689D01*
X-9793D01*
X48759Y92137D01*
X48759Y92137D01*
X66102Y74794D01*
X66558Y74489D01*
X67095Y74382D01*
X69240D01*
X69250Y74368D01*
X69901Y73933D01*
X70669Y73780D01*
X71437Y73933D01*
X72088Y74368D01*
X72524Y75019D01*
X72676Y75787D01*
X72622Y76062D01*
X73083Y76309D01*
X74371Y75020D01*
X74827Y74715D01*
X74938Y74693D01*
X75156Y74368D01*
X75807Y73933D01*
X76575Y73780D01*
X77343Y73933D01*
X77994Y74368D01*
X78429Y75019D01*
X78582Y75787D01*
X78429Y76556D01*
X77994Y77207D01*
X77343Y77642D01*
X76575Y77794D01*
X75807Y77642D01*
X75757Y77608D01*
X3138Y150227D01*
X3329Y150689D01*
X27049D01*
X82453Y95284D01*
Y76232D01*
X82439Y76222D01*
X82004Y75571D01*
X81851Y74803D01*
X82004Y74035D01*
X82439Y73384D01*
X83090Y72949D01*
X83858Y72796D01*
X84626Y72949D01*
X85277Y73384D01*
X85713Y74035D01*
X85865Y74803D01*
X85713Y75571D01*
X85277Y76222D01*
X85263Y76232D01*
Y95866D01*
X85156Y96404D01*
X84852Y96860D01*
X31484Y150227D01*
X31676Y150689D01*
X33563D01*
X33563Y219488D01*
X-30413Y219488D01*
D02*
G37*
G36*
X-142146Y74107D02*
X-143122Y73979D01*
X-144032Y73602D01*
X-144813Y73002D01*
X-145413Y72221D01*
X-145790Y71311D01*
X-145918Y70335D01*
X-145790Y69358D01*
X-145413Y68448D01*
X-144813Y67667D01*
X-144032Y67068D01*
X-143122Y66691D01*
X-142146Y66562D01*
X-141169Y66691D01*
X-140260Y67068D01*
X-139478Y67667D01*
X-138879Y68448D01*
X-138502Y69358D01*
X-138373Y70335D01*
X-138502Y71311D01*
X-138879Y72221D01*
X-139478Y73002D01*
X-140260Y73602D01*
X-141169Y73979D01*
X-142146Y74107D01*
D02*
G37*
G36*
X-114677Y228469D02*
X-115654Y228341D01*
X-116563Y227964D01*
X-117345Y227364D01*
X-117944Y226583D01*
X-118321Y225673D01*
X-118450Y224697D01*
X-118321Y223721D01*
X-117944Y222811D01*
X-117345Y222029D01*
X-116563Y221430D01*
X-115654Y221053D01*
X-114677Y220924D01*
X-113701Y221053D01*
X-113219Y221252D01*
X42589Y65444D01*
X43045Y65139D01*
X43583Y65032D01*
X56150D01*
X56160Y65018D01*
X56811Y64583D01*
X57579Y64430D01*
X58347Y64583D01*
X58998Y65018D01*
X59433Y65669D01*
X59586Y66437D01*
X59433Y67205D01*
X58998Y67856D01*
X58347Y68291D01*
X57579Y68444D01*
X56811Y68291D01*
X56160Y67856D01*
X56150Y67842D01*
X44165D01*
X-111233Y223239D01*
X-111033Y223721D01*
X-110905Y224697D01*
X-111033Y225673D01*
X-111410Y226583D01*
X-112010Y227364D01*
X-112791Y227964D01*
X-113701Y228341D01*
X-114677Y228469D01*
D02*
G37*
G36*
X149063Y70437D02*
X141583D01*
Y68102D01*
X137244D01*
X136706Y67995D01*
X136251Y67690D01*
X106761Y38201D01*
X106312Y38387D01*
X105323Y38517D01*
X104334Y38387D01*
X103413Y38005D01*
X102622Y37398D01*
X102015Y36607D01*
X101633Y35686D01*
X101503Y34697D01*
X101633Y33708D01*
X102015Y32787D01*
X102622Y31996D01*
X103135Y31602D01*
X102965Y31102D01*
X100905D01*
X98804Y33203D01*
X99013Y33708D01*
X99143Y34697D01*
X99013Y35686D01*
X98631Y36607D01*
X98024Y37398D01*
X97233Y38005D01*
X96311Y38387D01*
X95323Y38517D01*
X94334Y38387D01*
X93413Y38005D01*
X92622Y37398D01*
X92014Y36607D01*
X91633Y35686D01*
X91503Y34697D01*
X91633Y33708D01*
X92014Y32787D01*
X92622Y31996D01*
X93413Y31389D01*
X94334Y31007D01*
X95323Y30877D01*
X96311Y31007D01*
X96817Y31216D01*
X99329Y28703D01*
X99785Y28399D01*
X100323Y28292D01*
X102965D01*
X103135Y27792D01*
X102622Y27398D01*
X102015Y26607D01*
X101633Y25686D01*
X101503Y24697D01*
X101633Y23708D01*
X102015Y22787D01*
X102622Y21996D01*
X103413Y21389D01*
X104334Y21007D01*
X105323Y20877D01*
X106312Y21007D01*
X107233Y21389D01*
X108024Y21996D01*
X108631Y22787D01*
X109013Y23708D01*
X109143Y24697D01*
X109013Y25686D01*
X108631Y26607D01*
X108024Y27398D01*
X107511Y27792D01*
X107680Y28292D01*
X109398D01*
X109935Y28399D01*
X110391Y28703D01*
X126980Y45292D01*
X141857D01*
X142056Y44811D01*
X142655Y44029D01*
X142946Y43806D01*
X142776Y43306D01*
X135579D01*
X135041Y43200D01*
X134585Y42895D01*
X108754Y17064D01*
X108255Y17097D01*
X108024Y17398D01*
X107233Y18005D01*
X106312Y18387D01*
X105323Y18517D01*
X104334Y18387D01*
X103413Y18005D01*
X102622Y17398D01*
X102015Y16607D01*
X101633Y15686D01*
X101503Y14697D01*
X101633Y13708D01*
X102015Y12787D01*
X102622Y11996D01*
X103161Y11582D01*
X102991Y11082D01*
X100925D01*
X98804Y13203D01*
X99013Y13708D01*
X99143Y14697D01*
X99013Y15686D01*
X98631Y16607D01*
X98024Y17398D01*
X97233Y18005D01*
X96311Y18387D01*
X95323Y18517D01*
X94334Y18387D01*
X93413Y18005D01*
X92622Y17398D01*
X92014Y16607D01*
X91633Y15686D01*
X91503Y14697D01*
X91633Y13708D01*
X92014Y12787D01*
X92622Y11996D01*
X93413Y11389D01*
X94334Y11007D01*
X95323Y10877D01*
X96311Y11007D01*
X96817Y11216D01*
X99349Y8684D01*
X99805Y8379D01*
X100343Y8272D01*
X102939D01*
X103109Y7772D01*
X102622Y7398D01*
X102015Y6607D01*
X101633Y5686D01*
X101503Y4697D01*
X101633Y3708D01*
X102015Y2787D01*
X102622Y1996D01*
X103381Y1413D01*
X103384Y1359D01*
X103119Y913D01*
X97526D01*
X97262Y1359D01*
X97264Y1413D01*
X98024Y1996D01*
X98631Y2787D01*
X99013Y3708D01*
X99143Y4697D01*
X99013Y5686D01*
X98631Y6607D01*
X98024Y7398D01*
X97233Y8005D01*
X96311Y8387D01*
X95323Y8517D01*
X94334Y8387D01*
X93413Y8005D01*
X92622Y7398D01*
X92014Y6607D01*
X91633Y5686D01*
X91503Y4697D01*
X91633Y3708D01*
X92014Y2787D01*
X92622Y1996D01*
X93381Y1413D01*
X93384Y1359D01*
X93119Y913D01*
X45153D01*
X44616Y806D01*
X44160Y501D01*
X43979Y320D01*
X43551Y405D01*
X42783Y252D01*
X42132Y-183D01*
X41697Y-834D01*
X41544Y-1602D01*
X41697Y-2370D01*
X42132Y-3022D01*
X42783Y-3457D01*
X43551Y-3609D01*
X44319Y-3457D01*
X44970Y-3022D01*
X45406Y-2370D01*
X45441Y-2191D01*
X45735Y-1897D01*
X92719D01*
X92889Y-2397D01*
X92622Y-2602D01*
X92014Y-3393D01*
X91633Y-4314D01*
X91503Y-5303D01*
X91633Y-6292D01*
X92014Y-7213D01*
X92622Y-8004D01*
X93176Y-8430D01*
X93006Y-8930D01*
X91682D01*
X87214Y-4461D01*
X86758Y-4157D01*
X86220Y-4050D01*
X46634D01*
X46339Y-3853D01*
X45571Y-3700D01*
X44803Y-3853D01*
X44152Y-4288D01*
X43716Y-4939D01*
X43564Y-5707D01*
X43716Y-6475D01*
X44152Y-7126D01*
X44803Y-7561D01*
X45571Y-7714D01*
X46339Y-7561D01*
X46990Y-7126D01*
X47168Y-6860D01*
X85638D01*
X90107Y-11328D01*
X90562Y-11633D01*
X91100Y-11740D01*
X92924D01*
X93094Y-12240D01*
X92622Y-12602D01*
X92014Y-13393D01*
X91633Y-14314D01*
X91503Y-15303D01*
X91633Y-16292D01*
X92014Y-17213D01*
X92622Y-18004D01*
X93413Y-18611D01*
X94334Y-18993D01*
X95323Y-19123D01*
X96311Y-18993D01*
X97233Y-18611D01*
X98024Y-18004D01*
X98631Y-17213D01*
X99013Y-16292D01*
X99143Y-15303D01*
X99013Y-14314D01*
X98631Y-13393D01*
X98024Y-12602D01*
X97552Y-12240D01*
X97722Y-11740D01*
X102924D01*
X103094Y-12240D01*
X102622Y-12602D01*
X102015Y-13393D01*
X101633Y-14314D01*
X101503Y-15303D01*
X101633Y-16292D01*
X102015Y-17213D01*
X102622Y-18004D01*
X103413Y-18611D01*
X104334Y-18993D01*
X105323Y-19123D01*
X106312Y-18993D01*
X107233Y-18611D01*
X108024Y-18004D01*
X108631Y-17213D01*
X109013Y-16292D01*
X109109Y-15557D01*
X109615Y-15298D01*
X109623Y-15298D01*
X109776Y-15400D01*
X110313Y-15507D01*
X119386D01*
X119396Y-15522D01*
X120047Y-15957D01*
X120815Y-16109D01*
X121583Y-15957D01*
X122234Y-15522D01*
X122669Y-14870D01*
X122822Y-14102D01*
X122669Y-13334D01*
X122234Y-12683D01*
X121583Y-12248D01*
X120815Y-12095D01*
X120047Y-12248D01*
X119396Y-12683D01*
X119386Y-12697D01*
X110895D01*
X107539Y-9341D01*
X107248Y-9146D01*
X107236Y-8705D01*
X107248Y-8611D01*
X107254Y-8595D01*
X108024Y-8004D01*
X108631Y-7213D01*
X109013Y-6292D01*
X109143Y-5303D01*
X109013Y-4314D01*
X108631Y-3393D01*
X108024Y-2602D01*
X107757Y-2397D01*
X107927Y-1897D01*
X110166D01*
X116475Y-8206D01*
X116931Y-8511D01*
X117469Y-8618D01*
X118992D01*
X119002Y-8632D01*
X119653Y-9067D01*
X120421Y-9220D01*
X121189Y-9067D01*
X121841Y-8632D01*
X122275Y-7981D01*
X122428Y-7213D01*
X122275Y-6444D01*
X121841Y-5793D01*
X121189Y-5358D01*
X120421Y-5206D01*
X119653Y-5358D01*
X119002Y-5793D01*
X118992Y-5808D01*
X118051D01*
X111741Y501D01*
X111286Y806D01*
X110748Y913D01*
X107526D01*
X107262Y1359D01*
X107264Y1413D01*
X108024Y1996D01*
X108631Y2787D01*
X108840Y3292D01*
X116198D01*
X133786Y-14297D01*
X134242Y-14601D01*
X134780Y-14708D01*
X141857D01*
X142056Y-15189D01*
X142655Y-15971D01*
X143330Y-16488D01*
X143218Y-16957D01*
X143201Y-16988D01*
X122193D01*
X121640Y-17098D01*
X121171Y-17411D01*
X106776Y-31806D01*
X106312Y-31613D01*
X105323Y-31483D01*
X104334Y-31613D01*
X103413Y-31995D01*
X102622Y-32602D01*
X102015Y-33393D01*
X101633Y-34314D01*
X101503Y-35303D01*
X101633Y-36292D01*
X102015Y-37213D01*
X102531Y-37886D01*
X102359Y-38386D01*
X98286D01*
X98115Y-37886D01*
X98631Y-37213D01*
X99013Y-36292D01*
X99143Y-35303D01*
X99013Y-34314D01*
X98631Y-33393D01*
X98024Y-32602D01*
X97233Y-31995D01*
X96311Y-31613D01*
X95323Y-31483D01*
X94334Y-31613D01*
X93413Y-31995D01*
X92622Y-32602D01*
X92014Y-33393D01*
X91633Y-34314D01*
X91503Y-35303D01*
X91633Y-36292D01*
X92014Y-37213D01*
X92531Y-37886D01*
X92360Y-38386D01*
X86357D01*
X85007Y-37036D01*
X84874Y-36366D01*
X84439Y-35715D01*
X83788Y-35280D01*
X83020Y-35127D01*
X82252Y-35280D01*
X81600Y-35715D01*
X81165Y-36366D01*
X81013Y-37134D01*
X81165Y-37902D01*
X81600Y-38553D01*
X82252Y-38988D01*
X83020Y-39141D01*
X83119Y-39121D01*
X84782Y-40785D01*
X85238Y-41089D01*
X85776Y-41196D01*
X94034D01*
X94134Y-41696D01*
X93413Y-41995D01*
X92622Y-42602D01*
X92014Y-43393D01*
X91633Y-44314D01*
X91503Y-45303D01*
X91633Y-46292D01*
X92014Y-47213D01*
X92622Y-48004D01*
X93050Y-48333D01*
X92881Y-48833D01*
X84974D01*
X84437Y-48940D01*
X83981Y-49245D01*
X81298Y-51927D01*
X80874Y-52012D01*
X80222Y-52447D01*
X79787Y-53098D01*
X79635Y-53866D01*
X79787Y-54634D01*
X80222Y-55285D01*
X80874Y-55720D01*
X81642Y-55873D01*
X82410Y-55720D01*
X83061Y-55285D01*
X83496Y-54634D01*
X83649Y-53866D01*
X83596Y-53603D01*
X85556Y-51643D01*
X93050D01*
X93219Y-52143D01*
X92622Y-52602D01*
X92014Y-53393D01*
X91633Y-54314D01*
X91503Y-55303D01*
X91633Y-56292D01*
X92014Y-57213D01*
X92622Y-58004D01*
X93413Y-58611D01*
X94334Y-58993D01*
X95323Y-59123D01*
X96311Y-58993D01*
X96907Y-58746D01*
X98831Y-60671D01*
Y-62832D01*
X98331Y-63002D01*
X98024Y-62602D01*
X97233Y-61995D01*
X96311Y-61613D01*
X95323Y-61483D01*
X94334Y-61613D01*
X93413Y-61995D01*
X92622Y-62602D01*
X92014Y-63393D01*
X91805Y-63898D01*
X86257D01*
X86057Y-63414D01*
X86280Y-63081D01*
X86595Y-63018D01*
X87246Y-62583D01*
X87681Y-61932D01*
X87834Y-61164D01*
X87681Y-60395D01*
X87246Y-59744D01*
X86595Y-59309D01*
X85827Y-59157D01*
X85059Y-59309D01*
X84408Y-59744D01*
X83972Y-60395D01*
X83864Y-60940D01*
X-698D01*
X-9328Y-52310D01*
X-9783Y-52005D01*
X-10321Y-51898D01*
X-66334D01*
X-76172Y-42060D01*
X-76628Y-41755D01*
X-77165Y-41648D01*
X-85197D01*
X-85734Y-41755D01*
X-86190Y-42060D01*
X-90497Y-46367D01*
X-90966Y-46128D01*
X-90857Y-45303D01*
X-90987Y-44314D01*
X-91369Y-43393D01*
X-91976Y-42602D01*
X-92767Y-41995D01*
X-93688Y-41613D01*
X-94677Y-41483D01*
X-95666Y-41613D01*
X-96587Y-41995D01*
X-97378Y-42602D01*
X-97986Y-43393D01*
X-98367Y-44314D01*
X-98497Y-45303D01*
X-98367Y-46292D01*
X-97986Y-47213D01*
X-97378Y-48004D01*
X-96950Y-48333D01*
X-97119Y-48833D01*
X-102235D01*
X-102405Y-48333D01*
X-101976Y-48004D01*
X-101369Y-47213D01*
X-100987Y-46292D01*
X-100857Y-45303D01*
X-100987Y-44314D01*
X-101369Y-43393D01*
X-101976Y-42602D01*
X-102767Y-41995D01*
X-103689Y-41613D01*
X-104553Y-41499D01*
X-104798Y-41037D01*
X-104203Y-40442D01*
X-103899Y-39987D01*
X-103792Y-39449D01*
Y-39007D01*
X-103689Y-38993D01*
X-102767Y-38611D01*
X-101976Y-38004D01*
X-101369Y-37213D01*
X-100987Y-36292D01*
X-100857Y-35303D01*
X-100987Y-34314D01*
X-101369Y-33393D01*
X-101976Y-32602D01*
X-102767Y-31995D01*
X-103689Y-31613D01*
X-104677Y-31483D01*
X-105666Y-31613D01*
X-106587Y-31995D01*
X-107378Y-32602D01*
X-107985Y-33393D01*
X-108036Y-33515D01*
X-108536Y-33416D01*
Y-27191D01*
X-108036Y-27091D01*
X-107985Y-27213D01*
X-107378Y-28004D01*
X-106587Y-28611D01*
X-105666Y-28993D01*
X-104677Y-29123D01*
X-103689Y-28993D01*
X-102767Y-28611D01*
X-101976Y-28004D01*
X-101369Y-27213D01*
X-100987Y-26292D01*
X-100857Y-25303D01*
X-100987Y-24314D01*
X-101197Y-23809D01*
X-98969Y-21582D01*
X-96832D01*
X-96701Y-22082D01*
X-97378Y-22602D01*
X-97986Y-23393D01*
X-98367Y-24314D01*
X-98497Y-25303D01*
X-98367Y-26292D01*
X-97986Y-27213D01*
X-97378Y-28004D01*
X-96587Y-28611D01*
X-95666Y-28993D01*
X-94677Y-29123D01*
X-93688Y-28993D01*
X-93183Y-28784D01*
X-81956Y-40011D01*
X-81500Y-40316D01*
X-80963Y-40423D01*
X27692D01*
X28070Y-40675D01*
X28839Y-40828D01*
X29607Y-40675D01*
X30258Y-40240D01*
X30693Y-39589D01*
X30846Y-38821D01*
X30693Y-38053D01*
X30258Y-37402D01*
X29953Y-37198D01*
Y-36597D01*
X30221Y-36418D01*
X30656Y-35767D01*
X30809Y-34999D01*
X30656Y-34231D01*
X30221Y-33580D01*
X29570Y-33145D01*
X28802Y-32992D01*
X28034Y-33145D01*
X27383Y-33580D01*
X27185Y-33876D01*
X27016Y-33989D01*
X25360Y-35644D01*
X-76158D01*
X-89377Y-22425D01*
X-89377Y-22425D01*
X-92618Y-19184D01*
X-92704Y-19127D01*
X-92732Y-18897D01*
X-92678Y-18543D01*
X-91976Y-18004D01*
X-91369Y-17213D01*
X-90987Y-16292D01*
X-90857Y-15303D01*
X-90987Y-14314D01*
X-91369Y-13393D01*
X-91976Y-12602D01*
X-92613Y-12113D01*
X-92443Y-11613D01*
X-87954D01*
X-79259Y-20309D01*
X-78803Y-20614D01*
X-78265Y-20721D01*
X-72492D01*
X-72482Y-20735D01*
X-71831Y-21170D01*
X-71063Y-21323D01*
X-70295Y-21170D01*
X-69644Y-20735D01*
X-69209Y-20084D01*
X-69056Y-19316D01*
X-69209Y-18548D01*
X-69644Y-17897D01*
X-70295Y-17462D01*
X-70609Y-17399D01*
X-70559Y-16899D01*
X-38536D01*
X-38132Y-17504D01*
X-37481Y-17939D01*
X-36713Y-18092D01*
X-36388Y-18027D01*
X-36122Y-18080D01*
X-35585Y-17973D01*
X-35129Y-17669D01*
X-34824Y-17213D01*
X-34717Y-16675D01*
X-34770Y-16409D01*
X-34706Y-16085D01*
X-34858Y-15317D01*
X-35293Y-14666D01*
X-35945Y-14231D01*
X-36713Y-14078D01*
X-37037Y-14142D01*
X-37303Y-14089D01*
X-77034D01*
X-91723Y600D01*
X-92179Y904D01*
X-92528Y974D01*
X-92530Y976D01*
X-92620Y1501D01*
X-91976Y1996D01*
X-91369Y2787D01*
X-90987Y3708D01*
X-90857Y4697D01*
X-90987Y5686D01*
X-91369Y6607D01*
X-91976Y7398D01*
X-92767Y8005D01*
X-93688Y8387D01*
X-94677Y8517D01*
X-95666Y8387D01*
X-96587Y8005D01*
X-97378Y7398D01*
X-97986Y6607D01*
X-98367Y5686D01*
X-98497Y4697D01*
X-98367Y3708D01*
X-97986Y2787D01*
X-97378Y1996D01*
X-96747Y1511D01*
X-96917Y1011D01*
X-102437D01*
X-102607Y1511D01*
X-101976Y1996D01*
X-101369Y2787D01*
X-100987Y3708D01*
X-100857Y4697D01*
X-100987Y5686D01*
X-101369Y6607D01*
X-101976Y7398D01*
X-102767Y8005D01*
X-103689Y8387D01*
X-104677Y8517D01*
X-105666Y8387D01*
X-106587Y8005D01*
X-107378Y7398D01*
X-107985Y6607D01*
X-108367Y5686D01*
X-108497Y4697D01*
X-108367Y3708D01*
X-107985Y2787D01*
X-107378Y1996D01*
X-106747Y1511D01*
X-106917Y1011D01*
X-107874D01*
X-108169Y953D01*
X-108598Y1326D01*
X-108603Y1337D01*
X-108525Y1730D01*
X-108677Y2498D01*
X-109112Y3149D01*
X-109764Y3585D01*
X-110532Y3737D01*
X-111165Y3611D01*
X-111470Y3816D01*
X-112008Y3923D01*
X-130166D01*
X-130175Y3937D01*
X-130826Y4372D01*
X-131595Y4525D01*
X-132363Y4372D01*
X-133014Y3937D01*
X-133449Y3286D01*
X-133602Y2518D01*
X-133449Y1750D01*
X-133014Y1098D01*
X-132601Y822D01*
X-132752Y322D01*
X-186997D01*
X-199926Y13251D01*
Y43161D01*
X-200033Y43699D01*
X-200337Y44155D01*
X-208631Y52449D01*
X-208623Y52490D01*
X-208776Y53258D01*
X-209211Y53909D01*
X-209862Y54344D01*
X-210630Y54497D01*
X-211398Y54344D01*
X-212049Y53909D01*
X-212484Y53258D01*
X-212637Y52490D01*
X-212484Y51722D01*
X-212049Y51071D01*
X-211398Y50636D01*
X-210641Y50485D01*
X-202736Y42579D01*
Y12669D01*
X-202629Y12132D01*
X-202324Y11676D01*
X-188572Y-2076D01*
X-188116Y-2381D01*
X-187579Y-2488D01*
X-108563D01*
X-108025Y-2381D01*
X-107570Y-2076D01*
X-107528Y-2087D01*
X-107418Y-2465D01*
X-107404Y-2636D01*
X-107985Y-3393D01*
X-108195Y-3898D01*
X-195198D01*
X-199676Y580D01*
X-200132Y885D01*
X-200669Y992D01*
X-251011D01*
X-251087Y1175D01*
X-251592Y1833D01*
X-252250Y2338D01*
X-253016Y2655D01*
X-253839Y2764D01*
X-254661Y2655D01*
X-255427Y2338D01*
X-256085Y1833D01*
X-256590Y1175D01*
X-256907Y409D01*
X-257016Y-413D01*
X-256907Y-1236D01*
X-256590Y-2002D01*
X-256085Y-2660D01*
X-255427Y-3165D01*
X-254661Y-3482D01*
X-253839Y-3590D01*
X-253016Y-3482D01*
X-252250Y-3165D01*
X-251592Y-2660D01*
X-251087Y-2002D01*
X-251011Y-1818D01*
X-201251D01*
X-196773Y-6297D01*
X-196317Y-6601D01*
X-195780Y-6708D01*
X-108195D01*
X-107985Y-7213D01*
X-107378Y-8004D01*
X-106989Y-8303D01*
X-107158Y-8804D01*
X-109345D01*
X-109506Y-8563D01*
X-110157Y-8128D01*
X-110925Y-7975D01*
X-111693Y-8128D01*
X-112345Y-8563D01*
X-112780Y-9214D01*
X-112932Y-9982D01*
X-112780Y-10751D01*
X-112345Y-11402D01*
X-111693Y-11837D01*
X-110925Y-11989D01*
X-110157Y-11837D01*
X-109823Y-11613D01*
X-106911D01*
X-106742Y-12113D01*
X-107378Y-12602D01*
X-107985Y-13393D01*
X-108367Y-14314D01*
X-108497Y-15303D01*
X-108367Y-16292D01*
X-107985Y-17213D01*
X-107378Y-18004D01*
X-106587Y-18611D01*
X-105666Y-18993D01*
X-104677Y-19123D01*
X-103689Y-18993D01*
X-102767Y-18611D01*
X-101976Y-18004D01*
X-101369Y-17213D01*
X-100987Y-16292D01*
X-100857Y-15303D01*
X-100987Y-14314D01*
X-101369Y-13393D01*
X-101976Y-12602D01*
X-102613Y-12113D01*
X-102443Y-11613D01*
X-96911D01*
X-96742Y-12113D01*
X-97378Y-12602D01*
X-97986Y-13393D01*
X-98367Y-14314D01*
X-98497Y-15303D01*
X-98367Y-16292D01*
X-97986Y-17213D01*
X-97378Y-18004D01*
X-97029Y-18272D01*
X-97199Y-18772D01*
X-99551D01*
X-100089Y-18879D01*
X-100545Y-19184D01*
X-103183Y-21823D01*
X-103689Y-21613D01*
X-104677Y-21483D01*
X-105666Y-21613D01*
X-106587Y-21995D01*
X-107378Y-22602D01*
X-107985Y-23393D01*
X-108036Y-23515D01*
X-108536Y-23416D01*
Y-18841D01*
X-108643Y-18303D01*
X-108948Y-17847D01*
X-111120Y-15675D01*
X-111084Y-15494D01*
X-111236Y-14726D01*
X-111671Y-14075D01*
X-112323Y-13640D01*
X-113091Y-13487D01*
X-113859Y-13640D01*
X-114510Y-14075D01*
X-114945Y-14726D01*
X-115098Y-15494D01*
X-114945Y-16262D01*
X-114510Y-16914D01*
X-113859Y-17348D01*
X-113311Y-17457D01*
X-111346Y-19423D01*
Y-37884D01*
X-111360Y-37894D01*
X-111795Y-38545D01*
X-111948Y-39313D01*
X-111795Y-40081D01*
X-111360Y-40732D01*
X-110738Y-41148D01*
X-110732Y-41185D01*
X-110973Y-41648D01*
X-111680D01*
X-113556Y-39772D01*
Y-31791D01*
X-113663Y-31254D01*
X-113967Y-30798D01*
X-131290Y-13475D01*
X-131746Y-13171D01*
X-132283Y-13064D01*
X-247736D01*
X-248274Y-13171D01*
X-248730Y-13475D01*
X-252721Y-17467D01*
X-253016Y-17345D01*
X-253839Y-17236D01*
X-254661Y-17345D01*
X-255427Y-17662D01*
X-256085Y-18167D01*
X-256590Y-18825D01*
X-256907Y-19591D01*
X-257016Y-20413D01*
X-256907Y-21236D01*
X-256590Y-22002D01*
X-256085Y-22660D01*
X-255427Y-23165D01*
X-254661Y-23482D01*
X-253839Y-23591D01*
X-253016Y-23482D01*
X-252250Y-23165D01*
X-251592Y-22660D01*
X-251087Y-22002D01*
X-250770Y-21236D01*
X-250661Y-20413D01*
X-250770Y-19591D01*
X-250800Y-19519D01*
X-247154Y-15873D01*
X-143451D01*
X-143419Y-16373D01*
X-143646Y-16403D01*
X-144555Y-16780D01*
X-145337Y-17380D01*
X-145936Y-18161D01*
X-146313Y-19071D01*
X-146442Y-20047D01*
X-146313Y-21024D01*
X-145936Y-21933D01*
X-145337Y-22715D01*
X-144841Y-23095D01*
X-145011Y-23595D01*
X-183915D01*
X-184453Y-23702D01*
X-184909Y-24006D01*
X-212217Y-51315D01*
X-212234Y-51312D01*
X-213002Y-51465D01*
X-213653Y-51900D01*
X-214089Y-52551D01*
X-214241Y-53319D01*
X-214089Y-54087D01*
X-213653Y-54738D01*
X-213002Y-55173D01*
X-212234Y-55326D01*
X-211466Y-55173D01*
X-210815Y-54738D01*
X-210380Y-54087D01*
X-210227Y-53319D01*
X-210230Y-53302D01*
X-183333Y-26405D01*
X-144888D01*
X-144718Y-26905D01*
X-145337Y-27380D01*
X-145936Y-28161D01*
X-146313Y-29071D01*
X-146442Y-30047D01*
X-146313Y-31024D01*
X-145936Y-31933D01*
X-145337Y-32715D01*
X-144555Y-33314D01*
X-143646Y-33691D01*
X-142669Y-33820D01*
X-141693Y-33691D01*
X-141081Y-33438D01*
X-112867Y-61651D01*
X-112412Y-61955D01*
X-111874Y-62062D01*
X-107453D01*
X-107292Y-62536D01*
X-107378Y-62602D01*
X-107985Y-63393D01*
X-108367Y-64314D01*
X-108497Y-65303D01*
X-108367Y-66292D01*
X-107985Y-67213D01*
X-107378Y-68004D01*
X-106779Y-68464D01*
X-106948Y-68964D01*
X-110665D01*
X-115348Y-64281D01*
X-115817Y-63968D01*
X-116370Y-63858D01*
X-126756D01*
X-138929Y-51685D01*
Y-46307D01*
X-146409D01*
Y-53787D01*
X-140914D01*
X-128376Y-66325D01*
X-127907Y-66638D01*
X-127354Y-66748D01*
X-116969D01*
X-112285Y-71431D01*
X-111817Y-71745D01*
X-111264Y-71855D01*
X-107226D01*
X-107056Y-72355D01*
X-107378Y-72602D01*
X-107985Y-73393D01*
X-108367Y-74314D01*
X-108497Y-75303D01*
X-108367Y-76292D01*
X-107985Y-77213D01*
X-107378Y-78004D01*
X-106587Y-78611D01*
X-105666Y-78993D01*
X-104677Y-79123D01*
X-103689Y-78993D01*
X-102767Y-78611D01*
X-102366Y-78304D01*
X-99616Y-81055D01*
X-99160Y-81359D01*
X-98622Y-81466D01*
X-96617D01*
X-96518Y-81966D01*
X-96587Y-81995D01*
X-97378Y-82602D01*
X-97986Y-83393D01*
X-98367Y-84314D01*
X-98497Y-85303D01*
X-98367Y-86292D01*
X-97986Y-87213D01*
X-97378Y-88004D01*
X-96587Y-88611D01*
X-95666Y-88993D01*
X-94677Y-89123D01*
X-93688Y-88993D01*
X-92767Y-88611D01*
X-91976Y-88004D01*
X-91369Y-87213D01*
X-90987Y-86292D01*
X-90857Y-85303D01*
X-90987Y-84314D01*
X-91369Y-83393D01*
X-91976Y-82602D01*
X-92767Y-81995D01*
X-92836Y-81966D01*
X-92737Y-81466D01*
X-89567D01*
X-89029Y-81359D01*
X-88574Y-81055D01*
X-88269Y-80599D01*
X-88209Y-80296D01*
X-85522Y-77610D01*
X-85218Y-77154D01*
X-85111Y-76616D01*
Y-74287D01*
X-82766Y-71943D01*
X-82462Y-71487D01*
X-82355Y-70950D01*
Y-68986D01*
X-81962Y-68679D01*
X-81855Y-68664D01*
X-81679Y-68827D01*
X-81583Y-69314D01*
X-81148Y-69965D01*
X-81133Y-69974D01*
Y-70370D01*
X-81026Y-70908D01*
X-80722Y-71364D01*
X-78051Y-74034D01*
X-77595Y-74339D01*
X-77058Y-74446D01*
X-71958D01*
X-71421Y-74339D01*
X-70965Y-74034D01*
X-58777Y-61846D01*
X-58760Y-61850D01*
X-57992Y-61697D01*
X-57341Y-61262D01*
X-56906Y-60611D01*
X-56753Y-59842D01*
X-56906Y-59074D01*
X-57341Y-58423D01*
X-57992Y-57988D01*
X-58760Y-57836D01*
X-59528Y-57988D01*
X-60179Y-58423D01*
X-60614Y-59074D01*
X-60621Y-59109D01*
X-61131D01*
X-61138Y-59074D01*
X-61573Y-58423D01*
X-62224Y-57988D01*
X-62992Y-57836D01*
X-63760Y-57988D01*
X-64411Y-58423D01*
X-64846Y-59074D01*
X-64999Y-59842D01*
X-64996Y-59859D01*
X-73181Y-68045D01*
X-74515D01*
X-74623Y-67883D01*
X-75274Y-67448D01*
X-75371Y-67429D01*
Y-67322D01*
X-75478Y-66785D01*
X-75782Y-66329D01*
X-78024Y-64087D01*
Y-47238D01*
X-78010Y-47228D01*
X-77575Y-46577D01*
X-77422Y-45809D01*
X-77501Y-45412D01*
X-77040Y-45165D01*
X-67909Y-54297D01*
X-67453Y-54601D01*
X-66916Y-54708D01*
X-38546D01*
X-38389Y-55208D01*
X-38764Y-55769D01*
X-38917Y-56537D01*
X-38764Y-57306D01*
X-38329Y-57957D01*
X-37678Y-58392D01*
X-36909Y-58545D01*
X-36141Y-58392D01*
X-35490Y-57957D01*
X-35481Y-57942D01*
X-10686D01*
X-2332Y-66297D01*
X-1877Y-66601D01*
X-1339Y-66708D01*
X91805D01*
X92014Y-67213D01*
X92622Y-68004D01*
X93413Y-68611D01*
X94334Y-68993D01*
X95323Y-69123D01*
X96311Y-68993D01*
X97233Y-68611D01*
X98024Y-68004D01*
X98331Y-67604D01*
X98831Y-67774D01*
Y-68138D01*
X98931Y-68641D01*
X99216Y-69067D01*
X101381Y-71233D01*
X101808Y-71518D01*
X102311Y-71618D01*
X103083D01*
X103253Y-72118D01*
X102622Y-72602D01*
X102015Y-73393D01*
X101633Y-74314D01*
X101503Y-75303D01*
X101633Y-76292D01*
X102015Y-77213D01*
X102622Y-78004D01*
X103413Y-78611D01*
X103502Y-78648D01*
X103402Y-79148D01*
X100394D01*
X99856Y-79255D01*
X99400Y-79560D01*
X97044Y-81916D01*
X96311Y-81613D01*
X95323Y-81483D01*
X94334Y-81613D01*
X93413Y-81995D01*
X92622Y-82602D01*
X92014Y-83393D01*
X91633Y-84314D01*
X91503Y-85303D01*
X91633Y-86292D01*
X92014Y-87213D01*
X92622Y-88004D01*
X93413Y-88611D01*
X94334Y-88993D01*
X95323Y-89123D01*
X96311Y-88993D01*
X97233Y-88611D01*
X98024Y-88004D01*
X98631Y-87213D01*
X99013Y-86292D01*
X99143Y-85303D01*
X99013Y-84314D01*
X98897Y-84036D01*
X100976Y-81958D01*
X102639D01*
X102809Y-82458D01*
X102622Y-82602D01*
X102015Y-83393D01*
X101633Y-84314D01*
X101503Y-85303D01*
X101633Y-86292D01*
X102015Y-87213D01*
X102622Y-88004D01*
X103413Y-88611D01*
X104334Y-88993D01*
X105323Y-89123D01*
X106312Y-88993D01*
X107233Y-88611D01*
X108024Y-88004D01*
X108118Y-87881D01*
X108617Y-87849D01*
X112791Y-92022D01*
X113247Y-92327D01*
X113785Y-92434D01*
X268400D01*
X268937Y-92327D01*
X269393Y-92022D01*
X269664Y-91751D01*
X269947Y-91808D01*
X270715Y-91655D01*
X271367Y-91220D01*
X271802Y-90569D01*
X271954Y-89801D01*
X271802Y-89033D01*
X271367Y-88382D01*
X271045Y-88167D01*
X271197Y-87667D01*
X272292D01*
X272301Y-87681D01*
X272952Y-88116D01*
X273720Y-88269D01*
X274488Y-88116D01*
X275140Y-87681D01*
X275575Y-87030D01*
X275728Y-86262D01*
X275575Y-85494D01*
X275140Y-84843D01*
X274488Y-84408D01*
X273720Y-84255D01*
X272952Y-84408D01*
X272301Y-84843D01*
X272292Y-84857D01*
X270572D01*
X270380Y-84395D01*
X271144Y-83631D01*
X281791D01*
X281932Y-83604D01*
X282204Y-83785D01*
X282972Y-83938D01*
X283740Y-83785D01*
X284392Y-83350D01*
X284827Y-82699D01*
X284979Y-81931D01*
X284827Y-81163D01*
X284392Y-80512D01*
X283740Y-80077D01*
X282972Y-79924D01*
X282204Y-80077D01*
X281553Y-80512D01*
X281346Y-80822D01*
X270562D01*
X270024Y-80928D01*
X269569Y-81233D01*
X266240Y-84562D01*
X175461D01*
X175428Y-84062D01*
X175694Y-84027D01*
X176299Y-83947D01*
X177209Y-83570D01*
X177990Y-82971D01*
X178590Y-82189D01*
X178967Y-81279D01*
X179095Y-80303D01*
X178967Y-79327D01*
X178590Y-78417D01*
X177990Y-77636D01*
X177209Y-77036D01*
X176299Y-76659D01*
X175323Y-76531D01*
X174346Y-76659D01*
X173437Y-77036D01*
X172655Y-77636D01*
X172056Y-78417D01*
X171679Y-79327D01*
X171550Y-80303D01*
X171679Y-81279D01*
X172056Y-82189D01*
X172655Y-82971D01*
X173437Y-83570D01*
X174346Y-83947D01*
X174952Y-84027D01*
X175218Y-84062D01*
X175185Y-84562D01*
X165686D01*
X165655Y-84536D01*
X165674Y-84286D01*
X165807Y-84012D01*
X166299Y-83947D01*
X167209Y-83570D01*
X167990Y-82971D01*
X168590Y-82189D01*
X168967Y-81279D01*
X169095Y-80303D01*
X168967Y-79327D01*
X168767Y-78846D01*
X171041Y-76572D01*
X171345Y-76116D01*
X171452Y-75579D01*
Y-72039D01*
X171952Y-71939D01*
X172056Y-72189D01*
X172655Y-72971D01*
X173437Y-73570D01*
X174346Y-73947D01*
X175323Y-74076D01*
X176299Y-73947D01*
X177209Y-73570D01*
X177990Y-72971D01*
X178590Y-72189D01*
X178967Y-71280D01*
X179095Y-70303D01*
X178967Y-69327D01*
X178590Y-68417D01*
X177990Y-67636D01*
X177209Y-67036D01*
X176299Y-66659D01*
X175323Y-66531D01*
X174346Y-66659D01*
X173437Y-67036D01*
X172655Y-67636D01*
X172056Y-68417D01*
X171952Y-68667D01*
X171452Y-68568D01*
Y-63335D01*
X171345Y-62797D01*
X171041Y-62341D01*
X163009Y-54310D01*
X162553Y-54005D01*
X162016Y-53898D01*
X108840D01*
X108631Y-53393D01*
X108024Y-52602D01*
X107426Y-52143D01*
X107596Y-51643D01*
X111220D01*
X111758Y-51536D01*
X112214Y-51232D01*
X120281Y-43165D01*
X149161D01*
X149699Y-43058D01*
X150155Y-42753D01*
X154978Y-37931D01*
X155282Y-37475D01*
X155378Y-36991D01*
X155878Y-37040D01*
Y-43259D01*
X153847Y-45290D01*
X122947D01*
X122422Y-44939D01*
X121653Y-44786D01*
X120885Y-44939D01*
X120234Y-45374D01*
X119799Y-46025D01*
X119646Y-46793D01*
X119799Y-47561D01*
X120234Y-48213D01*
X120885Y-48648D01*
X121653Y-48801D01*
X122422Y-48648D01*
X123073Y-48213D01*
X123148Y-48100D01*
X154429D01*
X154967Y-47993D01*
X155422Y-47688D01*
X158277Y-44834D01*
X158581Y-44378D01*
X158688Y-43841D01*
Y-22375D01*
X168298Y-12765D01*
X201214D01*
X201752Y-12658D01*
X202208Y-12354D01*
X212706Y-1856D01*
X213011Y-1400D01*
X213118Y-862D01*
Y3451D01*
X213132Y3461D01*
X213567Y4112D01*
X213720Y4880D01*
X213567Y5648D01*
X213132Y6299D01*
X212481Y6734D01*
X211713Y6887D01*
X210944Y6734D01*
X210293Y6299D01*
X209858Y5648D01*
X209705Y4880D01*
X209858Y4112D01*
X210293Y3461D01*
X210308Y3451D01*
Y-280D01*
X200633Y-9955D01*
X167717D01*
X167179Y-10062D01*
X166723Y-10367D01*
X156290Y-20800D01*
X155985Y-21256D01*
X155878Y-21793D01*
Y-26499D01*
X155378Y-26548D01*
X155282Y-26065D01*
X154978Y-25609D01*
X151679Y-22310D01*
X151223Y-22005D01*
X150685Y-21898D01*
X148789D01*
X148590Y-21417D01*
X147990Y-20636D01*
X147655Y-20378D01*
X147825Y-19878D01*
X149358D01*
X149911Y-19768D01*
X150380Y-19455D01*
X154612Y-15223D01*
X154926Y-14754D01*
X155036Y-14201D01*
Y-5539D01*
X154926Y-4986D01*
X154612Y-4518D01*
X152376Y-2281D01*
X151907Y-1968D01*
X151354Y-1858D01*
X149063D01*
Y437D01*
X141583D01*
Y-7043D01*
X149063D01*
Y-4748D01*
X150756D01*
X152146Y-6138D01*
Y-13602D01*
X148760Y-16988D01*
X147444D01*
X147427Y-16957D01*
X147316Y-16488D01*
X147990Y-15971D01*
X148590Y-15189D01*
X148967Y-14279D01*
X149095Y-13303D01*
X148967Y-12327D01*
X148590Y-11417D01*
X147990Y-10636D01*
X147209Y-10036D01*
X146299Y-9659D01*
X145323Y-9531D01*
X144346Y-9659D01*
X143437Y-10036D01*
X142655Y-10636D01*
X142056Y-11417D01*
X141857Y-11898D01*
X135362D01*
X117773Y5690D01*
X117317Y5995D01*
X116779Y6102D01*
X108840D01*
X108631Y6607D01*
X108024Y7398D01*
X107536Y7772D01*
X107706Y8272D01*
X110146D01*
X110683Y8379D01*
X111139Y8684D01*
X137747Y35292D01*
X141857D01*
X142056Y34811D01*
X142655Y34029D01*
X143437Y33430D01*
X144346Y33053D01*
X145323Y32924D01*
X146299Y33053D01*
X147209Y33430D01*
X147990Y34029D01*
X148590Y34811D01*
X148967Y35721D01*
X149095Y36697D01*
X148967Y37673D01*
X148590Y38583D01*
X147990Y39364D01*
X147209Y39964D01*
X146959Y40067D01*
X147058Y40567D01*
X147280D01*
X147817Y40674D01*
X148273Y40979D01*
X152025Y44731D01*
X152330Y45186D01*
X152436Y45724D01*
Y50988D01*
X152330Y51526D01*
X152025Y51982D01*
X148767Y55239D01*
X148967Y55721D01*
X149095Y56697D01*
X148967Y57673D01*
X148590Y58583D01*
X147990Y59364D01*
X147209Y59964D01*
X146299Y60341D01*
X145323Y60469D01*
X144346Y60341D01*
X143437Y59964D01*
X142655Y59364D01*
X142056Y58583D01*
X141679Y57673D01*
X141550Y56697D01*
X141679Y55721D01*
X142056Y54811D01*
X142655Y54029D01*
X143437Y53430D01*
X144346Y53053D01*
X145323Y52924D01*
X146299Y53053D01*
X146781Y53252D01*
X149627Y50406D01*
Y46729D01*
X149574Y46696D01*
X149573D01*
X149060Y46965D01*
X148967Y47673D01*
X148590Y48583D01*
X147990Y49364D01*
X147209Y49964D01*
X146299Y50341D01*
X145323Y50469D01*
X144346Y50341D01*
X143437Y49964D01*
X142655Y49364D01*
X142056Y48583D01*
X141857Y48102D01*
X126398D01*
X125860Y47995D01*
X125404Y47690D01*
X108816Y31102D01*
X107680D01*
X107511Y31602D01*
X108024Y31996D01*
X108631Y32787D01*
X109013Y33708D01*
X109143Y34697D01*
X109013Y35686D01*
X108781Y36246D01*
X137826Y65292D01*
X141583D01*
Y62957D01*
X149063D01*
Y70437D01*
D02*
G37*
G36*
X-94677Y68517D02*
X-95666Y68387D01*
X-96587Y68005D01*
X-97378Y67398D01*
X-97986Y66607D01*
X-98367Y65686D01*
X-98497Y64697D01*
X-98367Y63708D01*
X-97986Y62787D01*
X-97378Y61996D01*
X-96587Y61389D01*
X-95666Y61007D01*
X-94677Y60877D01*
X-93688Y61007D01*
X-92767Y61389D01*
X-91976Y61996D01*
X-91369Y62787D01*
X-90987Y63708D01*
X-90857Y64697D01*
X-90987Y65686D01*
X-91369Y66607D01*
X-91976Y67398D01*
X-92767Y68005D01*
X-93688Y68387D01*
X-94677Y68517D01*
D02*
G37*
G36*
X-104677D02*
X-105666Y68387D01*
X-106587Y68005D01*
X-107378Y67398D01*
X-107985Y66607D01*
X-108367Y65686D01*
X-108497Y64697D01*
X-108367Y63708D01*
X-107985Y62787D01*
X-107378Y61996D01*
X-106587Y61389D01*
X-105666Y61007D01*
X-104677Y60877D01*
X-103689Y61007D01*
X-102767Y61389D01*
X-101976Y61996D01*
X-101369Y62787D01*
X-100987Y63708D01*
X-100857Y64697D01*
X-100987Y65686D01*
X-101369Y66607D01*
X-101976Y67398D01*
X-102767Y68005D01*
X-103689Y68387D01*
X-104677Y68517D01*
D02*
G37*
G36*
X-94677Y98517D02*
X-95666Y98387D01*
X-96587Y98005D01*
X-97378Y97398D01*
X-97986Y96607D01*
X-98367Y95686D01*
X-98497Y94697D01*
X-98367Y93708D01*
X-97986Y92787D01*
X-97378Y91996D01*
X-96587Y91389D01*
X-95666Y91007D01*
X-94677Y90877D01*
X-93688Y91007D01*
X-93183Y91216D01*
X-58159Y56192D01*
X-57703Y55887D01*
X-57165Y55780D01*
X52311D01*
X52321Y55766D01*
X52972Y55331D01*
X53740Y55178D01*
X54508Y55331D01*
X55159Y55766D01*
X55594Y56417D01*
X55747Y57185D01*
X55594Y57953D01*
X55159Y58604D01*
X54508Y59039D01*
X53740Y59192D01*
X52972Y59039D01*
X52321Y58604D01*
X52311Y58590D01*
X-56583D01*
X-91197Y93203D01*
X-90987Y93708D01*
X-90857Y94697D01*
X-90987Y95686D01*
X-91369Y96607D01*
X-91976Y97398D01*
X-92767Y98005D01*
X-93688Y98387D01*
X-94677Y98517D01*
D02*
G37*
G36*
X-230276Y75606D02*
X-264480D01*
X-264788Y75545D01*
X-265048Y75371D01*
X-265222Y75110D01*
X-265283Y74803D01*
Y65387D01*
X-265222Y65080D01*
X-265191Y65033D01*
X-265285Y64892D01*
X-265346Y64584D01*
Y54584D01*
X-265285Y54277D01*
X-265111Y54017D01*
X-264851Y53843D01*
X-264543Y53782D01*
X-230339D01*
X-230031Y53843D01*
X-229771Y54017D01*
X-229597Y54277D01*
X-229536Y54584D01*
Y64584D01*
X-229597Y64892D01*
X-229653Y64975D01*
X-229643Y64987D01*
X-229626Y65036D01*
X-229597Y65080D01*
X-229576Y65184D01*
X-229543Y65284D01*
X-229480Y65767D01*
X-229483Y65819D01*
X-229473Y65871D01*
Y74803D01*
X-229534Y75110D01*
X-229708Y75371D01*
X-229968Y75545D01*
X-230276Y75606D01*
D02*
G37*
G36*
X-94677Y58517D02*
X-95666Y58387D01*
X-96587Y58005D01*
X-97378Y57398D01*
X-97986Y56607D01*
X-98367Y55686D01*
X-98497Y54697D01*
X-98367Y53708D01*
X-97986Y52787D01*
X-97378Y51996D01*
X-96587Y51389D01*
X-95666Y51007D01*
X-94677Y50877D01*
X-93688Y51007D01*
X-92767Y51389D01*
X-91976Y51996D01*
X-91369Y52787D01*
X-90987Y53708D01*
X-90857Y54697D01*
X-90987Y55686D01*
X-91369Y56607D01*
X-91976Y57398D01*
X-92767Y58005D01*
X-93688Y58387D01*
X-94677Y58517D01*
D02*
G37*
G36*
X-104677D02*
X-105666Y58387D01*
X-106587Y58005D01*
X-107378Y57398D01*
X-107985Y56607D01*
X-108367Y55686D01*
X-108497Y54697D01*
X-108367Y53708D01*
X-107985Y52787D01*
X-107378Y51996D01*
X-106587Y51389D01*
X-105666Y51007D01*
X-104677Y50877D01*
X-103689Y51007D01*
X-102767Y51389D01*
X-101976Y51996D01*
X-101369Y52787D01*
X-100987Y53708D01*
X-100857Y54697D01*
X-100987Y55686D01*
X-101369Y56607D01*
X-101976Y57398D01*
X-102767Y58005D01*
X-103689Y58387D01*
X-104677Y58517D01*
D02*
G37*
G36*
X234311Y74070D02*
X234004Y74009D01*
X233743Y73835D01*
X233569Y73575D01*
X233508Y73267D01*
X233508Y61966D01*
X233569Y61659D01*
X233600Y61613D01*
X233593Y61608D01*
X233527Y61510D01*
X233452Y61418D01*
X233441Y61380D01*
X233419Y61347D01*
X233396Y61232D01*
X233361Y61119D01*
X233365Y61079D01*
X233358Y61040D01*
X233358Y51336D01*
X233419Y51029D01*
X233593Y50769D01*
X233853Y50595D01*
X234160Y50534D01*
X236006D01*
X236105Y50034D01*
X235937Y49964D01*
X235155Y49364D01*
X234556Y48583D01*
X234179Y47673D01*
X234050Y46697D01*
X234179Y45720D01*
X234556Y44811D01*
X235155Y44029D01*
X235937Y43430D01*
X236846Y43053D01*
X237823Y42924D01*
X238799Y43053D01*
X239709Y43430D01*
X240490Y44029D01*
X241090Y44811D01*
X241467Y45720D01*
X241595Y46697D01*
X241467Y47673D01*
X241090Y48583D01*
X240490Y49364D01*
X239709Y49964D01*
X239541Y50034D01*
X239640Y50534D01*
X265160Y50534D01*
X265468Y50595D01*
X265728Y50769D01*
X265902Y51029D01*
X265963Y51336D01*
X265963Y61164D01*
X265908Y61442D01*
X266053Y61659D01*
X266114Y61966D01*
X266114Y73267D01*
X266053Y73575D01*
X265879Y73835D01*
X265618Y74009D01*
X265311Y74070D01*
X234311Y74070D01*
D02*
G37*
G36*
X105323Y48517D02*
X104334Y48387D01*
X103413Y48005D01*
X102622Y47398D01*
X102015Y46607D01*
X101633Y45686D01*
X101503Y44697D01*
X101633Y43708D01*
X102015Y42787D01*
X102622Y41996D01*
X103413Y41389D01*
X104334Y41007D01*
X105323Y40877D01*
X106312Y41007D01*
X107233Y41389D01*
X108024Y41996D01*
X108631Y42787D01*
X109013Y43708D01*
X109143Y44697D01*
X109013Y45686D01*
X108631Y46607D01*
X108024Y47398D01*
X107233Y48005D01*
X106312Y48387D01*
X105323Y48517D01*
D02*
G37*
G36*
X95323D02*
X94334Y48387D01*
X93413Y48005D01*
X92622Y47398D01*
X92014Y46607D01*
X91633Y45686D01*
X91503Y44697D01*
X91633Y43708D01*
X92014Y42787D01*
X92622Y41996D01*
X93413Y41389D01*
X94334Y41007D01*
X95323Y40877D01*
X96311Y41007D01*
X97233Y41389D01*
X98024Y41996D01*
X98631Y42787D01*
X99013Y43708D01*
X99143Y44697D01*
X99013Y45686D01*
X98631Y46607D01*
X98024Y47398D01*
X97233Y48005D01*
X96311Y48387D01*
X95323Y48517D01*
D02*
G37*
G36*
X323441Y35023D02*
X322673Y34870D01*
X322463Y34730D01*
X315524D01*
X314986Y34623D01*
X314530Y34318D01*
X313466Y33253D01*
X296639D01*
X296498Y33464D01*
X295847Y33899D01*
X295079Y34052D01*
X294311Y33899D01*
X293659Y33464D01*
X293224Y32813D01*
X293072Y32045D01*
X293127Y31764D01*
X292702Y31339D01*
X292421Y31395D01*
X291653Y31242D01*
X291002Y30807D01*
X290567Y30156D01*
X290414Y29388D01*
X290450Y29207D01*
X290040Y28880D01*
X289272Y29032D01*
X288504Y28880D01*
X287852Y28445D01*
X287417Y27793D01*
X287264Y27025D01*
X287417Y26257D01*
X287852Y25606D01*
X288504Y25171D01*
X289272Y25018D01*
X290040Y25171D01*
X290512Y25487D01*
X290742Y25334D01*
X291280Y25227D01*
X319732D01*
X319939Y24917D01*
X320590Y24482D01*
X321358Y24329D01*
X322126Y24482D01*
X322777Y24917D01*
X323213Y25568D01*
X323365Y26337D01*
X323213Y27104D01*
X322777Y27756D01*
X322126Y28191D01*
X321358Y28343D01*
X320912Y28255D01*
X320612Y28705D01*
X320752Y28915D01*
X320905Y29683D01*
X320752Y30451D01*
X320317Y31102D01*
X319842Y31420D01*
X319993Y31920D01*
X321806D01*
X322022Y31597D01*
X322673Y31162D01*
X323441Y31009D01*
X324209Y31162D01*
X324860Y31597D01*
X325295Y32248D01*
X325448Y33016D01*
X325295Y33784D01*
X324860Y34435D01*
X324209Y34870D01*
X323441Y35023D01*
D02*
G37*
G36*
X259744Y39986D02*
X258922Y39878D01*
X258155Y39560D01*
X257498Y39055D01*
X256993Y38397D01*
X256675Y37631D01*
X256567Y36809D01*
X256675Y35987D01*
X256993Y35220D01*
X257498Y34562D01*
X258155Y34058D01*
X258922Y33740D01*
X259744Y33632D01*
X260566Y33740D01*
X261333Y34058D01*
X261990Y34562D01*
X262495Y35220D01*
X262525Y35292D01*
X266481D01*
X268626Y33147D01*
X268564Y32833D01*
X268717Y32065D01*
X269152Y31413D01*
X269803Y30978D01*
X270571Y30825D01*
X271339Y30978D01*
X271669Y31199D01*
X271779Y31221D01*
X272235Y31525D01*
X272539Y31981D01*
X272646Y32519D01*
X272539Y33056D01*
X272531Y33069D01*
X272425Y33601D01*
X271990Y34252D01*
X271339Y34687D01*
X270991Y34756D01*
X268056Y37690D01*
X267601Y37995D01*
X267063Y38102D01*
X262618D01*
X262495Y38397D01*
X261990Y39055D01*
X261333Y39560D01*
X260566Y39878D01*
X259744Y39986D01*
D02*
G37*
G36*
Y29986D02*
X258922Y29878D01*
X258155Y29560D01*
X257498Y29055D01*
X256993Y28397D01*
X256870Y28102D01*
X147974D01*
X147736Y28149D01*
X135334D01*
X135325Y28163D01*
X134674Y28598D01*
X133905Y28751D01*
X133137Y28598D01*
X132486Y28163D01*
X132051Y27512D01*
X131898Y26744D01*
X132051Y25976D01*
X132486Y25325D01*
X133137Y24890D01*
X133905Y24737D01*
X134674Y24890D01*
X135325Y25325D01*
X135334Y25339D01*
X147546D01*
X147784Y25292D01*
X256963D01*
X256993Y25220D01*
X257498Y24562D01*
X258155Y24058D01*
X258922Y23740D01*
X259744Y23632D01*
X260566Y23740D01*
X261333Y24058D01*
X261990Y24562D01*
X262495Y25220D01*
X262813Y25987D01*
X262921Y26809D01*
X262813Y27631D01*
X262495Y28397D01*
X261990Y29055D01*
X261333Y29560D01*
X260566Y29878D01*
X259744Y29986D01*
D02*
G37*
G36*
X95323Y28517D02*
X94334Y28387D01*
X93413Y28005D01*
X92622Y27398D01*
X92014Y26607D01*
X91633Y25686D01*
X91503Y24697D01*
X91633Y23708D01*
X92014Y22787D01*
X92622Y21996D01*
X93413Y21389D01*
X94334Y21007D01*
X95323Y20877D01*
X96311Y21007D01*
X97233Y21389D01*
X98024Y21996D01*
X98631Y22787D01*
X99013Y23708D01*
X99143Y24697D01*
X99013Y25686D01*
X98631Y26607D01*
X98024Y27398D01*
X97233Y28005D01*
X96311Y28387D01*
X95323Y28517D01*
D02*
G37*
G36*
X-104677D02*
X-105666Y28387D01*
X-106587Y28005D01*
X-107378Y27398D01*
X-107985Y26607D01*
X-108367Y25686D01*
X-108497Y24697D01*
X-108367Y23708D01*
X-107985Y22787D01*
X-107378Y21996D01*
X-106587Y21389D01*
X-105666Y21007D01*
X-104677Y20877D01*
X-103689Y21007D01*
X-102767Y21389D01*
X-101976Y21996D01*
X-101369Y22787D01*
X-100987Y23708D01*
X-100857Y24697D01*
X-100987Y25686D01*
X-101369Y26607D01*
X-101976Y27398D01*
X-102767Y28005D01*
X-103689Y28387D01*
X-104677Y28517D01*
D02*
G37*
G36*
X259744Y19986D02*
X258922Y19878D01*
X258155Y19560D01*
X257498Y19055D01*
X256993Y18397D01*
X256870Y18102D01*
X148007D01*
X147472Y18208D01*
X132724D01*
X132187Y18101D01*
X131731Y17797D01*
X131658Y17724D01*
X131642Y17728D01*
X130874Y17575D01*
X130222Y17140D01*
X129787Y16488D01*
X129635Y15721D01*
X129787Y14952D01*
X130222Y14301D01*
X130874Y13866D01*
X131642Y13713D01*
X132410Y13866D01*
X133061Y14301D01*
X133496Y14952D01*
X133585Y15398D01*
X147044D01*
X147579Y15292D01*
X256963D01*
X256993Y15220D01*
X257498Y14562D01*
X258155Y14058D01*
X258922Y13740D01*
X259744Y13632D01*
X260566Y13740D01*
X261333Y14058D01*
X261990Y14562D01*
X262495Y15220D01*
X262813Y15987D01*
X262921Y16809D01*
X262813Y17631D01*
X262495Y18397D01*
X261990Y19055D01*
X261333Y19560D01*
X260566Y19878D01*
X259744Y19986D01*
D02*
G37*
G36*
X-94677Y18517D02*
X-95666Y18387D01*
X-96587Y18005D01*
X-97378Y17398D01*
X-97986Y16607D01*
X-98367Y15686D01*
X-98497Y14697D01*
X-98367Y13708D01*
X-97986Y12787D01*
X-97378Y11996D01*
X-96587Y11389D01*
X-95666Y11007D01*
X-94677Y10877D01*
X-93688Y11007D01*
X-92767Y11389D01*
X-91976Y11996D01*
X-91369Y12787D01*
X-90987Y13708D01*
X-90857Y14697D01*
X-90987Y15686D01*
X-91369Y16607D01*
X-91976Y17398D01*
X-92767Y18005D01*
X-93688Y18387D01*
X-94677Y18517D01*
D02*
G37*
G36*
X-104677D02*
X-105666Y18387D01*
X-106587Y18005D01*
X-107378Y17398D01*
X-107985Y16607D01*
X-108367Y15686D01*
X-108497Y14697D01*
X-108367Y13708D01*
X-107985Y12787D01*
X-107378Y11996D01*
X-106587Y11389D01*
X-105666Y11007D01*
X-104677Y10877D01*
X-103689Y11007D01*
X-102767Y11389D01*
X-101976Y11996D01*
X-101369Y12787D01*
X-100987Y13708D01*
X-100857Y14697D01*
X-100987Y15686D01*
X-101369Y16607D01*
X-101976Y17398D01*
X-102767Y18005D01*
X-103689Y18387D01*
X-104677Y18517D01*
D02*
G37*
G36*
X-253839Y-7236D02*
X-254661Y-7345D01*
X-255427Y-7662D01*
X-256085Y-8167D01*
X-256590Y-8825D01*
X-256907Y-9591D01*
X-257016Y-10413D01*
X-256907Y-11236D01*
X-256590Y-12002D01*
X-256085Y-12660D01*
X-255427Y-13165D01*
X-254661Y-13482D01*
X-253839Y-13590D01*
X-253016Y-13482D01*
X-252250Y-13165D01*
X-251592Y-12660D01*
X-251087Y-12002D01*
X-251011Y-11818D01*
X-121645D01*
X-119968Y-13495D01*
X-119972Y-13512D01*
X-119819Y-14280D01*
X-119384Y-14931D01*
X-118733Y-15366D01*
X-117965Y-15519D01*
X-117197Y-15366D01*
X-116545Y-14931D01*
X-116110Y-14280D01*
X-115957Y-13512D01*
X-116110Y-12744D01*
X-116545Y-12093D01*
X-117197Y-11658D01*
X-117965Y-11505D01*
X-117981Y-11508D01*
X-120070Y-9420D01*
X-120525Y-9115D01*
X-121063Y-9008D01*
X-251011D01*
X-251087Y-8825D01*
X-251592Y-8167D01*
X-252250Y-7662D01*
X-253016Y-7345D01*
X-253839Y-7236D01*
D02*
G37*
G36*
X-25197Y-3938D02*
X-25965Y-4091D01*
X-26616Y-4526D01*
X-27051Y-5177D01*
X-27204Y-5945D01*
X-27051Y-6713D01*
X-26616Y-7364D01*
X-25965Y-7799D01*
X-25197Y-7952D01*
X-25180Y-7949D01*
X-17996Y-15133D01*
X-17540Y-15438D01*
X-17002Y-15544D01*
X-11502D01*
X-11492Y-15559D01*
X-10841Y-15994D01*
X-10073Y-16147D01*
X-9305Y-15994D01*
X-8654Y-15559D01*
X-8219Y-14908D01*
X-8066Y-14139D01*
X-8219Y-13371D01*
X-8654Y-12720D01*
X-9305Y-12285D01*
X-10073Y-12132D01*
X-10841Y-12285D01*
X-11492Y-12720D01*
X-11502Y-12734D01*
X-16420D01*
X-23193Y-5962D01*
X-23190Y-5945D01*
X-23343Y-5177D01*
X-23778Y-4526D01*
X-24429Y-4091D01*
X-25197Y-3938D01*
D02*
G37*
G36*
X265309Y4013D02*
X245614D01*
X234309Y4013D01*
X234002Y3952D01*
X233741Y3778D01*
X233567Y3518D01*
X233506Y3210D01*
Y-7030D01*
X233567Y-7337D01*
X233647Y-7456D01*
X233601Y-7525D01*
X233540Y-7833D01*
Y-17561D01*
X233601Y-17868D01*
X233775Y-18129D01*
X234035Y-18303D01*
X234343Y-18364D01*
X265343D01*
X265650Y-18303D01*
X265910Y-18129D01*
X266084Y-17868D01*
X266145Y-17561D01*
Y-7860D01*
X266138Y-7821D01*
X266142Y-7781D01*
X266107Y-7668D01*
X266084Y-7553D01*
X266062Y-7520D01*
X266051Y-7482D01*
X265998Y-7417D01*
X266051Y-7337D01*
X266112Y-7030D01*
Y3210D01*
X266051Y3518D01*
X265877Y3778D01*
X265616Y3952D01*
X265309Y4013D01*
D02*
G37*
G36*
X237823Y-19531D02*
X236846Y-19659D01*
X235937Y-20036D01*
X235155Y-20636D01*
X234556Y-21417D01*
X234179Y-22327D01*
X234050Y-23303D01*
X234179Y-24280D01*
X234556Y-25189D01*
X235155Y-25971D01*
X235937Y-26570D01*
X236846Y-26947D01*
X237823Y-27076D01*
X238799Y-26947D01*
X239709Y-26570D01*
X240490Y-25971D01*
X241090Y-25189D01*
X241467Y-24280D01*
X241595Y-23303D01*
X241467Y-22327D01*
X241090Y-21417D01*
X240490Y-20636D01*
X239709Y-20036D01*
X238799Y-19659D01*
X237823Y-19531D01*
D02*
G37*
G36*
X37598Y-9649D02*
X36830Y-9801D01*
X36179Y-10237D01*
X35852Y-10726D01*
X35719Y-10859D01*
X35414Y-11315D01*
X35308Y-11852D01*
X35414Y-12390D01*
X35719Y-12846D01*
X35939Y-12993D01*
X35972Y-13043D01*
X36428Y-13347D01*
X36654Y-13392D01*
X36830Y-13510D01*
X37598Y-13663D01*
X38366Y-13510D01*
X38744Y-13258D01*
X81290D01*
X91842Y-23809D01*
X91633Y-24314D01*
X91503Y-25303D01*
X91633Y-26292D01*
X92014Y-27213D01*
X92622Y-28004D01*
X93413Y-28611D01*
X94334Y-28993D01*
X95323Y-29123D01*
X96311Y-28993D01*
X97233Y-28611D01*
X98024Y-28004D01*
X98631Y-27213D01*
X99013Y-26292D01*
X99143Y-25303D01*
X99013Y-24314D01*
X98631Y-23393D01*
X98024Y-22602D01*
X97233Y-21995D01*
X96311Y-21613D01*
X95323Y-21483D01*
X94334Y-21613D01*
X93829Y-21823D01*
X82866Y-10859D01*
X82410Y-10554D01*
X81872Y-10447D01*
X39159D01*
X39018Y-10237D01*
X38366Y-9801D01*
X37598Y-9649D01*
D02*
G37*
G36*
X-73622Y-25889D02*
X-74390Y-26041D01*
X-75041Y-26477D01*
X-75476Y-27128D01*
X-75629Y-27896D01*
X-75476Y-28664D01*
X-75169Y-29124D01*
X-75470Y-29574D01*
X-75689Y-29531D01*
X-76457Y-29683D01*
X-77108Y-30118D01*
X-77543Y-30770D01*
X-77696Y-31538D01*
X-77543Y-32306D01*
X-77108Y-32957D01*
X-76457Y-33392D01*
X-75689Y-33545D01*
X-74921Y-33392D01*
X-74270Y-32957D01*
X-74260Y-32943D01*
X-46864D01*
X-46339Y-33293D01*
X-45571Y-33446D01*
X-44803Y-33293D01*
X-44152Y-32858D01*
X-43870Y-32437D01*
X-43286Y-32411D01*
X-43053Y-32760D01*
X-42402Y-33195D01*
X-41634Y-33348D01*
X-40866Y-33195D01*
X-40215Y-32760D01*
X-39780Y-32109D01*
X-39627Y-31341D01*
X-39780Y-30573D01*
X-40215Y-29921D01*
X-40866Y-29486D01*
X-41484Y-29364D01*
X-43354Y-27493D01*
X-43810Y-27188D01*
X-44348Y-27081D01*
X-71799D01*
X-72203Y-26477D01*
X-72854Y-26041D01*
X-73622Y-25889D01*
D02*
G37*
G36*
X-235169Y-26275D02*
X-236146Y-26403D01*
X-237055Y-26780D01*
X-237837Y-27380D01*
X-238436Y-28161D01*
X-238813Y-29071D01*
X-238942Y-30047D01*
X-238813Y-31024D01*
X-238436Y-31933D01*
X-237837Y-32715D01*
X-237055Y-33314D01*
X-236986Y-33343D01*
X-237086Y-33843D01*
X-262255Y-33843D01*
X-262562Y-33904D01*
X-262822Y-34078D01*
X-262996Y-34338D01*
X-263057Y-34646D01*
X-263057Y-44980D01*
X-262996Y-45287D01*
X-262822Y-45548D01*
X-263018Y-45958D01*
X-263018Y-45959D01*
X-263021Y-45966D01*
X-263051Y-46115D01*
X-263082Y-46264D01*
X-263082Y-46269D01*
X-263082Y-46273D01*
Y-55709D01*
X-263021Y-56016D01*
X-262847Y-56276D01*
X-262587Y-56450D01*
X-262280Y-56511D01*
X-228075D01*
X-227768Y-56450D01*
X-227507Y-56276D01*
X-227333Y-56016D01*
X-227272Y-55709D01*
Y-45783D01*
X-227333Y-45476D01*
X-227384Y-45400D01*
X-227308Y-45287D01*
X-227247Y-44980D01*
X-227247Y-34646D01*
X-227308Y-34338D01*
X-227482Y-34078D01*
X-227743Y-33904D01*
X-228050Y-33843D01*
X-233253D01*
X-233352Y-33343D01*
X-233283Y-33314D01*
X-232502Y-32715D01*
X-231902Y-31933D01*
X-231525Y-31024D01*
X-231397Y-30047D01*
X-231525Y-29071D01*
X-231902Y-28161D01*
X-232502Y-27380D01*
X-233283Y-26780D01*
X-234193Y-26403D01*
X-235169Y-26275D01*
D02*
G37*
G36*
X-94677Y-31483D02*
X-95666Y-31613D01*
X-96587Y-31995D01*
X-97378Y-32602D01*
X-97986Y-33393D01*
X-98367Y-34314D01*
X-98497Y-35303D01*
X-98367Y-36292D01*
X-97986Y-37213D01*
X-97378Y-38004D01*
X-96587Y-38611D01*
X-95666Y-38993D01*
X-94677Y-39123D01*
X-93688Y-38993D01*
X-92767Y-38611D01*
X-91976Y-38004D01*
X-91369Y-37213D01*
X-90987Y-36292D01*
X-90857Y-35303D01*
X-90987Y-34314D01*
X-91369Y-33393D01*
X-91976Y-32602D01*
X-92767Y-31995D01*
X-93688Y-31613D01*
X-94677Y-31483D01*
D02*
G37*
G36*
X258563Y-29837D02*
X257741Y-29945D01*
X256974Y-30263D01*
X256316Y-30767D01*
X255812Y-31425D01*
X255494Y-32192D01*
X255386Y-33014D01*
X255494Y-33836D01*
X255812Y-34602D01*
X256316Y-35260D01*
X256974Y-35765D01*
X257741Y-36083D01*
X258563Y-36191D01*
X259385Y-36083D01*
X260152Y-35765D01*
X260809Y-35260D01*
X261233Y-34708D01*
X268075D01*
X275530Y-42163D01*
X275986Y-42467D01*
X276524Y-42574D01*
X276542Y-42570D01*
X277114Y-42684D01*
X277882Y-42531D01*
X278533Y-42096D01*
X278969Y-41445D01*
X279121Y-40677D01*
X278969Y-39909D01*
X278533Y-39258D01*
X277882Y-38823D01*
X277114Y-38670D01*
X276346Y-38823D01*
X276237Y-38896D01*
X269651Y-32310D01*
X269195Y-32005D01*
X268657Y-31898D01*
X261510D01*
X261314Y-31425D01*
X260809Y-30767D01*
X260152Y-30263D01*
X259385Y-29945D01*
X258563Y-29837D01*
D02*
G37*
G36*
X-142669Y-36275D02*
X-143646Y-36403D01*
X-144555Y-36780D01*
X-145337Y-37380D01*
X-145936Y-38161D01*
X-146313Y-39071D01*
X-146442Y-40047D01*
X-146313Y-41024D01*
X-145936Y-41933D01*
X-145337Y-42715D01*
X-144555Y-43314D01*
X-143646Y-43691D01*
X-142669Y-43820D01*
X-141693Y-43691D01*
X-140783Y-43314D01*
X-140002Y-42715D01*
X-139402Y-41933D01*
X-139025Y-41024D01*
X-138897Y-40047D01*
X-139025Y-39071D01*
X-139402Y-38161D01*
X-140002Y-37380D01*
X-140783Y-36780D01*
X-141693Y-36403D01*
X-142669Y-36275D01*
D02*
G37*
G36*
X258563Y-39837D02*
X257741Y-39945D01*
X256974Y-40262D01*
X256316Y-40767D01*
X255812Y-41425D01*
X255494Y-42192D01*
X255386Y-43014D01*
X255494Y-43836D01*
X255812Y-44603D01*
X256316Y-45260D01*
X256974Y-45765D01*
X257741Y-46083D01*
X258563Y-46191D01*
X259385Y-46083D01*
X260152Y-45765D01*
X260809Y-45260D01*
X261314Y-44603D01*
X261632Y-43836D01*
X261740Y-43014D01*
X261632Y-42192D01*
X261314Y-41425D01*
X260809Y-40767D01*
X260152Y-40262D01*
X259385Y-39945D01*
X258563Y-39837D01*
D02*
G37*
G36*
Y-49837D02*
X257741Y-49945D01*
X256974Y-50262D01*
X256316Y-50767D01*
X255812Y-51425D01*
X255494Y-52192D01*
X255386Y-53014D01*
X255494Y-53836D01*
X255812Y-54602D01*
X256316Y-55260D01*
X256974Y-55765D01*
X257741Y-56083D01*
X258563Y-56191D01*
X259385Y-56083D01*
X260152Y-55765D01*
X260809Y-55260D01*
X261314Y-54602D01*
X261632Y-53836D01*
X261740Y-53014D01*
X261632Y-52192D01*
X261314Y-51425D01*
X260809Y-50767D01*
X260152Y-50262D01*
X259385Y-49945D01*
X258563Y-49837D01*
D02*
G37*
G36*
X-256299Y-62453D02*
X-257121Y-62561D01*
X-257888Y-62879D01*
X-258546Y-63383D01*
X-259051Y-64041D01*
X-259368Y-64808D01*
X-259476Y-65630D01*
X-259368Y-66452D01*
X-259051Y-67219D01*
X-258546Y-67876D01*
X-257888Y-68381D01*
X-257121Y-68699D01*
X-256299Y-68807D01*
X-255477Y-68699D01*
X-254711Y-68381D01*
X-254053Y-67876D01*
X-253548Y-67219D01*
X-253472Y-67035D01*
X-224814D01*
X-219175Y-72675D01*
X-218719Y-72979D01*
X-218181Y-73086D01*
X-128988D01*
X-128988Y-73086D01*
X-123035D01*
X-123026Y-73100D01*
X-122591Y-73390D01*
X-122743Y-73890D01*
X-251799D01*
X-252337Y-73997D01*
X-252678Y-74225D01*
X-253472D01*
X-253548Y-74041D01*
X-254053Y-73383D01*
X-254711Y-72878D01*
X-255477Y-72561D01*
X-256299Y-72453D01*
X-257121Y-72561D01*
X-257888Y-72878D01*
X-258546Y-73383D01*
X-259051Y-74041D01*
X-259368Y-74808D01*
X-259476Y-75630D01*
X-259368Y-76452D01*
X-259051Y-77219D01*
X-258546Y-77876D01*
X-257888Y-78381D01*
X-257121Y-78699D01*
X-256299Y-78807D01*
X-255477Y-78699D01*
X-254711Y-78381D01*
X-254053Y-77876D01*
X-253548Y-77219D01*
X-253472Y-77035D01*
X-252134D01*
X-251596Y-76928D01*
X-251256Y-76700D01*
X-241870D01*
X-241835Y-76746D01*
X-241687Y-77200D01*
X-248712Y-84225D01*
X-253472D01*
X-253548Y-84041D01*
X-254053Y-83383D01*
X-254711Y-82879D01*
X-255477Y-82561D01*
X-256299Y-82453D01*
X-257121Y-82561D01*
X-257888Y-82879D01*
X-258546Y-83383D01*
X-259051Y-84041D01*
X-259368Y-84808D01*
X-259476Y-85630D01*
X-259368Y-86452D01*
X-259051Y-87218D01*
X-258546Y-87876D01*
X-257888Y-88381D01*
X-257121Y-88699D01*
X-256299Y-88807D01*
X-255477Y-88699D01*
X-254711Y-88381D01*
X-254053Y-87876D01*
X-253548Y-87218D01*
X-253472Y-87035D01*
X-248130D01*
X-247592Y-86928D01*
X-247136Y-86623D01*
X-239997Y-79484D01*
X-119000D01*
X-118990Y-79498D01*
X-118339Y-79933D01*
X-117571Y-80086D01*
X-116803Y-79933D01*
X-116152Y-79498D01*
X-115717Y-78847D01*
X-115564Y-78079D01*
X-115717Y-77311D01*
X-116152Y-76660D01*
X-116372Y-76512D01*
Y-76012D01*
X-116152Y-75865D01*
X-115717Y-75214D01*
X-115564Y-74446D01*
X-115717Y-73678D01*
X-116152Y-73027D01*
X-116803Y-72592D01*
X-117571Y-72439D01*
X-118340Y-72592D01*
X-118991Y-73027D01*
X-119000Y-73041D01*
X-119426D01*
X-119564Y-73068D01*
X-119865Y-72618D01*
X-119752Y-72449D01*
X-119599Y-71681D01*
X-119752Y-70913D01*
X-120187Y-70262D01*
X-120838Y-69827D01*
X-121606Y-69674D01*
X-122374Y-69827D01*
X-123026Y-70262D01*
X-123035Y-70276D01*
X-128988D01*
X-128988Y-70276D01*
X-217599D01*
X-223239Y-64636D01*
X-223695Y-64332D01*
X-224232Y-64225D01*
X-253472D01*
X-253548Y-64041D01*
X-254053Y-63383D01*
X-254711Y-62879D01*
X-255477Y-62561D01*
X-256299Y-62453D01*
D02*
G37*
G36*
X95323Y-71483D02*
X94334Y-71613D01*
X93413Y-71995D01*
X92622Y-72602D01*
X92014Y-73393D01*
X91633Y-74314D01*
X91503Y-75303D01*
X91633Y-76292D01*
X92014Y-77213D01*
X92622Y-78004D01*
X93413Y-78611D01*
X94334Y-78993D01*
X95323Y-79123D01*
X96311Y-78993D01*
X97233Y-78611D01*
X98024Y-78004D01*
X98631Y-77213D01*
X99013Y-76292D01*
X99143Y-75303D01*
X99013Y-74314D01*
X98631Y-73393D01*
X98024Y-72602D01*
X97233Y-71995D01*
X96311Y-71613D01*
X95323Y-71483D01*
D02*
G37*
G36*
X-127067Y-80572D02*
X-127835Y-80725D01*
X-128486Y-81160D01*
X-128921Y-81811D01*
X-129074Y-82579D01*
X-129062Y-82637D01*
X-130245Y-83820D01*
X-138514D01*
X-138713Y-83338D01*
X-139313Y-82557D01*
X-140094Y-81957D01*
X-141004Y-81581D01*
X-141980Y-81452D01*
X-142957Y-81581D01*
X-143867Y-81957D01*
X-144648Y-82557D01*
X-145247Y-83338D01*
X-145624Y-84248D01*
X-145753Y-85224D01*
X-145624Y-86201D01*
X-145247Y-87111D01*
X-144648Y-87892D01*
X-143867Y-88491D01*
X-142957Y-88868D01*
X-141980Y-88997D01*
X-141004Y-88868D01*
X-140094Y-88491D01*
X-139313Y-87892D01*
X-138713Y-87111D01*
X-138514Y-86629D01*
X-129663D01*
X-129126Y-86522D01*
X-128670Y-86218D01*
X-127031Y-84579D01*
X-126299Y-84433D01*
X-125648Y-83998D01*
X-125213Y-83347D01*
X-125060Y-82579D01*
X-125213Y-81811D01*
X-125648Y-81160D01*
X-126299Y-80725D01*
X-127067Y-80572D01*
D02*
G37*
G36*
X189063Y-76563D02*
X181583D01*
Y-84043D01*
X189063D01*
Y-76563D01*
D02*
G37*
G36*
X-113386Y-83468D02*
X-114154Y-83620D01*
X-114805Y-84055D01*
X-115240Y-84706D01*
X-115393Y-85475D01*
X-115390Y-85491D01*
X-118988Y-89089D01*
X-123434D01*
X-123971Y-89196D01*
X-124427Y-89501D01*
X-128746Y-93819D01*
X-138514D01*
X-138713Y-93338D01*
X-139313Y-92557D01*
X-140094Y-91957D01*
X-141004Y-91580D01*
X-141980Y-91452D01*
X-142957Y-91580D01*
X-143867Y-91957D01*
X-144648Y-92557D01*
X-145247Y-93338D01*
X-145624Y-94248D01*
X-145753Y-95224D01*
X-145624Y-96201D01*
X-145247Y-97111D01*
X-144648Y-97892D01*
X-143867Y-98491D01*
X-142957Y-98868D01*
X-141980Y-98997D01*
X-141004Y-98868D01*
X-140094Y-98491D01*
X-139313Y-97892D01*
X-138713Y-97111D01*
X-138514Y-96629D01*
X-128164D01*
X-127626Y-96522D01*
X-127171Y-96218D01*
X-122852Y-91899D01*
X-118406D01*
X-117868Y-91792D01*
X-117412Y-91488D01*
X-113403Y-87478D01*
X-113386Y-87482D01*
X-112618Y-87329D01*
X-111967Y-86894D01*
X-111532Y-86243D01*
X-111379Y-85475D01*
X-111532Y-84706D01*
X-111967Y-84055D01*
X-112618Y-83620D01*
X-113386Y-83468D01*
D02*
G37*
G36*
X-104677Y-81483D02*
X-105666Y-81613D01*
X-106587Y-81995D01*
X-107378Y-82602D01*
X-107985Y-83393D01*
X-108367Y-84314D01*
X-108497Y-85303D01*
X-108367Y-86292D01*
X-108158Y-86797D01*
X-135180Y-113820D01*
X-138240D01*
Y-111484D01*
X-145721D01*
Y-118965D01*
X-138240D01*
Y-116629D01*
X-134598D01*
X-134061Y-116522D01*
X-133605Y-116218D01*
X-106171Y-88784D01*
X-105666Y-88993D01*
X-104677Y-89123D01*
X-103689Y-88993D01*
X-102767Y-88611D01*
X-101976Y-88004D01*
X-101369Y-87213D01*
X-100987Y-86292D01*
X-100857Y-85303D01*
X-100987Y-84314D01*
X-101369Y-83393D01*
X-101976Y-82602D01*
X-102767Y-81995D01*
X-103689Y-81613D01*
X-104677Y-81483D01*
D02*
G37*
G36*
X-50787Y-93564D02*
X-51556Y-93717D01*
X-52207Y-94152D01*
X-52216Y-94166D01*
X-54331D01*
X-54868Y-94273D01*
X-55324Y-94577D01*
X-60639Y-99892D01*
X-60944Y-100348D01*
X-61051Y-100886D01*
Y-125599D01*
X-71958Y-136506D01*
X-72263Y-136962D01*
X-72369Y-137500D01*
Y-171662D01*
X-131852Y-231145D01*
X-132271Y-231228D01*
X-132922Y-231663D01*
X-133357Y-232314D01*
X-133510Y-233082D01*
X-133357Y-233850D01*
X-132922Y-234502D01*
X-132271Y-234936D01*
X-131502Y-235089D01*
X-130734Y-234936D01*
X-130083Y-234502D01*
X-129648Y-233850D01*
X-129495Y-233082D01*
X-129549Y-232815D01*
X-69971Y-173238D01*
X-69667Y-172782D01*
X-69560Y-172244D01*
Y-138082D01*
X-58652Y-127174D01*
X-58348Y-126719D01*
X-58241Y-126181D01*
Y-101468D01*
X-53749Y-96976D01*
X-52216D01*
X-52207Y-96990D01*
X-51556Y-97425D01*
X-50787Y-97578D01*
X-50019Y-97425D01*
X-49368Y-96990D01*
X-48933Y-96339D01*
X-48780Y-95571D01*
X-48933Y-94803D01*
X-49368Y-94152D01*
X-50019Y-93717D01*
X-50787Y-93564D01*
D02*
G37*
G36*
X-234480Y-91452D02*
X-235457Y-91580D01*
X-236367Y-91957D01*
X-237148Y-92557D01*
X-237747Y-93338D01*
X-238124Y-94248D01*
X-238253Y-95224D01*
X-238124Y-96201D01*
X-237747Y-97111D01*
X-237371Y-97601D01*
X-237618Y-98101D01*
X-262697Y-98101D01*
X-263004Y-98162D01*
X-263264Y-98336D01*
X-263439Y-98596D01*
X-263500Y-98903D01*
Y-109449D01*
X-263439Y-109756D01*
X-263264Y-110017D01*
X-263439Y-110444D01*
X-263500Y-110752D01*
X-263500Y-121063D01*
X-263439Y-121370D01*
X-263264Y-121631D01*
X-263004Y-121805D01*
X-262697Y-121866D01*
X-228492Y-121866D01*
X-228185Y-121805D01*
X-227924Y-121631D01*
X-227750Y-121370D01*
X-227689Y-121063D01*
X-227689Y-110252D01*
X-227750Y-109944D01*
X-227813Y-109850D01*
X-227750Y-109756D01*
X-227689Y-109449D01*
X-227689Y-98903D01*
X-227750Y-98596D01*
X-227924Y-98336D01*
X-228185Y-98162D01*
X-228492Y-98101D01*
X-231343D01*
X-231589Y-97601D01*
X-231213Y-97111D01*
X-230837Y-96201D01*
X-230708Y-95224D01*
X-230837Y-94248D01*
X-231213Y-93338D01*
X-231813Y-92557D01*
X-232594Y-91957D01*
X-233504Y-91580D01*
X-234480Y-91452D01*
D02*
G37*
G36*
X105323Y-91483D02*
X104334Y-91613D01*
X103413Y-91995D01*
X102622Y-92602D01*
X102015Y-93393D01*
X101633Y-94314D01*
X101503Y-95303D01*
X101633Y-96292D01*
X102015Y-97213D01*
X102622Y-98004D01*
X103413Y-98611D01*
X104334Y-98993D01*
X105323Y-99123D01*
X106312Y-98993D01*
X107233Y-98611D01*
X108024Y-98004D01*
X108631Y-97213D01*
X109013Y-96292D01*
X109143Y-95303D01*
X109013Y-94314D01*
X108631Y-93393D01*
X108024Y-92602D01*
X107233Y-91995D01*
X106312Y-91613D01*
X105323Y-91483D01*
D02*
G37*
G36*
X95323D02*
X94334Y-91613D01*
X93413Y-91995D01*
X92622Y-92602D01*
X92014Y-93393D01*
X91633Y-94314D01*
X91503Y-95303D01*
X91633Y-96292D01*
X92014Y-97213D01*
X92622Y-98004D01*
X93413Y-98611D01*
X94334Y-98993D01*
X95323Y-99123D01*
X96311Y-98993D01*
X97233Y-98611D01*
X98024Y-98004D01*
X98631Y-97213D01*
X99013Y-96292D01*
X99143Y-95303D01*
X99013Y-94314D01*
X98631Y-93393D01*
X98024Y-92602D01*
X97233Y-91995D01*
X96311Y-91613D01*
X95323Y-91483D01*
D02*
G37*
G36*
X-94677D02*
X-95666Y-91613D01*
X-96587Y-91995D01*
X-97378Y-92602D01*
X-97986Y-93393D01*
X-98367Y-94314D01*
X-98497Y-95303D01*
X-98367Y-96292D01*
X-97986Y-97213D01*
X-97378Y-98004D01*
X-96587Y-98611D01*
X-95666Y-98993D01*
X-94677Y-99123D01*
X-93688Y-98993D01*
X-92767Y-98611D01*
X-91976Y-98004D01*
X-91369Y-97213D01*
X-90987Y-96292D01*
X-90857Y-95303D01*
X-90987Y-94314D01*
X-91369Y-93393D01*
X-91976Y-92602D01*
X-92767Y-91995D01*
X-93688Y-91613D01*
X-94677Y-91483D01*
D02*
G37*
G36*
X-104677D02*
X-105666Y-91613D01*
X-106587Y-91995D01*
X-107378Y-92602D01*
X-107985Y-93393D01*
X-108367Y-94314D01*
X-108497Y-95303D01*
X-108367Y-96292D01*
X-107985Y-97213D01*
X-107378Y-98004D01*
X-106587Y-98611D01*
X-105666Y-98993D01*
X-104677Y-99123D01*
X-103689Y-98993D01*
X-102767Y-98611D01*
X-101976Y-98004D01*
X-101369Y-97213D01*
X-100987Y-96292D01*
X-100857Y-95303D01*
X-100987Y-94314D01*
X-101369Y-93393D01*
X-101976Y-92602D01*
X-102767Y-91995D01*
X-103689Y-91613D01*
X-104677Y-91483D01*
D02*
G37*
G36*
X-41242Y-100712D02*
X-42010Y-100865D01*
X-42661Y-101300D01*
X-42797Y-101503D01*
X-43297D01*
X-43367Y-101398D01*
X-44018Y-100963D01*
X-44786Y-100811D01*
X-45554Y-100963D01*
X-46205Y-101398D01*
X-46308Y-101552D01*
X-46808D01*
X-46910Y-101398D01*
X-47561Y-100963D01*
X-48329Y-100811D01*
X-49097Y-100963D01*
X-49748Y-101398D01*
X-49851Y-101552D01*
X-50351D01*
X-50454Y-101398D01*
X-51105Y-100963D01*
X-51873Y-100811D01*
X-52641Y-100963D01*
X-53292Y-101398D01*
X-53460Y-101650D01*
X-53960D01*
X-53997Y-101595D01*
X-54648Y-101160D01*
X-55416Y-101007D01*
X-56184Y-101160D01*
X-56835Y-101595D01*
X-57270Y-102246D01*
X-57423Y-103014D01*
X-57270Y-103782D01*
X-56835Y-104434D01*
X-56184Y-104869D01*
X-56006Y-104904D01*
X-55800Y-105212D01*
X-46000Y-115013D01*
Y-140453D01*
X-45900Y-140956D01*
X-45615Y-141382D01*
X-33223Y-153774D01*
X-32796Y-154059D01*
X-32319Y-154154D01*
X-32268Y-154206D01*
X-32262Y-154218D01*
X-32364Y-154748D01*
X-33015Y-155183D01*
X-33085Y-155288D01*
X-33741D01*
X-48677Y-140352D01*
X-49103Y-140067D01*
X-49606Y-139967D01*
X-65046D01*
X-65116Y-139862D01*
X-65767Y-139427D01*
X-66536Y-139275D01*
X-67304Y-139427D01*
X-67955Y-139862D01*
X-68390Y-140514D01*
X-68543Y-141282D01*
X-68390Y-142050D01*
X-67955Y-142701D01*
X-67304Y-143136D01*
X-66536Y-143289D01*
X-65767Y-143136D01*
X-65116Y-142701D01*
X-65046Y-142596D01*
X-50151D01*
X-35215Y-157532D01*
X-34789Y-157817D01*
X-34286Y-157917D01*
X-33085D01*
X-33015Y-158021D01*
X-32364Y-158456D01*
X-31596Y-158609D01*
X-30828Y-158456D01*
X-30547Y-158268D01*
X-30046Y-158536D01*
Y-170059D01*
X-50938Y-190951D01*
X-82522D01*
X-83025Y-191051D01*
X-83451Y-191336D01*
X-99650Y-207535D01*
X-99935Y-207962D01*
X-100035Y-208465D01*
Y-211446D01*
X-100140Y-211516D01*
X-100575Y-212167D01*
X-100728Y-212935D01*
X-100575Y-213703D01*
X-100140Y-214354D01*
X-99489Y-214790D01*
X-99157Y-214856D01*
X-98992Y-215398D01*
X-100488Y-216894D01*
X-101070D01*
X-101140Y-216789D01*
X-101791Y-216354D01*
X-102559Y-216202D01*
X-103327Y-216354D01*
X-103978Y-216789D01*
X-104413Y-217441D01*
X-104566Y-218209D01*
X-104413Y-218977D01*
X-103978Y-219628D01*
X-103327Y-220063D01*
X-102559Y-220216D01*
X-102300Y-220164D01*
X-101730Y-220554D01*
X-101712Y-220652D01*
X-118417Y-237357D01*
X-149752D01*
X-150255Y-237457D01*
X-150681Y-237742D01*
X-158180Y-245240D01*
X-164357D01*
X-164427Y-245136D01*
X-165078Y-244701D01*
X-165847Y-244548D01*
X-166614Y-244701D01*
X-167266Y-245136D01*
X-167701Y-245787D01*
X-167853Y-246555D01*
X-167701Y-247323D01*
X-167266Y-247974D01*
X-166614Y-248409D01*
X-165847Y-248562D01*
X-165078Y-248409D01*
X-164427Y-247974D01*
X-164357Y-247870D01*
X-157636D01*
X-157133Y-247770D01*
X-156706Y-247485D01*
X-149207Y-239986D01*
X-117873D01*
X-117370Y-239886D01*
X-116943Y-239601D01*
X-88933Y-211590D01*
X-88648Y-211164D01*
X-88548Y-210661D01*
Y-207968D01*
X-78589Y-198010D01*
X-67365D01*
X-67158Y-198510D01*
X-101291Y-232642D01*
X-105499D01*
X-105569Y-232538D01*
X-106220Y-232102D01*
X-106988Y-231950D01*
X-107756Y-232102D01*
X-108407Y-232538D01*
X-108843Y-233189D01*
X-108995Y-233957D01*
X-108843Y-234725D01*
X-108407Y-235376D01*
X-107756Y-235811D01*
X-106988Y-235964D01*
X-106220Y-235811D01*
X-105569Y-235376D01*
X-105499Y-235271D01*
X-100746D01*
X-100243Y-235171D01*
X-99816Y-234886D01*
X-65204Y-200273D01*
X-47174D01*
X-46946Y-200228D01*
X-46700Y-200689D01*
X-58213Y-212202D01*
X-58498Y-212629D01*
X-58598Y-213132D01*
Y-216818D01*
X-58703Y-216888D01*
X-59138Y-217539D01*
X-59290Y-218307D01*
X-59138Y-219075D01*
X-58703Y-219726D01*
X-58052Y-220161D01*
X-57284Y-220314D01*
X-56515Y-220161D01*
X-55864Y-219726D01*
X-55429Y-219075D01*
X-55276Y-218307D01*
X-55429Y-217539D01*
X-55864Y-216888D01*
X-55969Y-216818D01*
Y-213677D01*
X-20261Y-177969D01*
X-19976Y-177543D01*
X-19876Y-177040D01*
Y-151337D01*
X-19976Y-150833D01*
X-20261Y-150407D01*
X-26625Y-144043D01*
X-27052Y-143758D01*
X-27555Y-143658D01*
X-28417D01*
X-35132Y-136943D01*
Y-108026D01*
X-35232Y-107523D01*
X-35517Y-107097D01*
X-39345Y-103270D01*
X-39235Y-102719D01*
X-39388Y-101951D01*
X-39823Y-101300D01*
X-40474Y-100865D01*
X-41242Y-100712D01*
D02*
G37*
G36*
X-125394Y-97993D02*
X-126162Y-98146D01*
X-126813Y-98581D01*
X-126822Y-98595D01*
X-130020D01*
X-130557Y-98702D01*
X-131013Y-99007D01*
X-135826Y-103820D01*
X-138514D01*
X-138713Y-103338D01*
X-139313Y-102557D01*
X-140094Y-101957D01*
X-141004Y-101581D01*
X-141980Y-101452D01*
X-142957Y-101581D01*
X-143867Y-101957D01*
X-144648Y-102557D01*
X-145247Y-103338D01*
X-145624Y-104248D01*
X-145753Y-105224D01*
X-145624Y-106201D01*
X-145247Y-107111D01*
X-144648Y-107892D01*
X-143867Y-108491D01*
X-142957Y-108868D01*
X-141980Y-108997D01*
X-141004Y-108868D01*
X-140094Y-108491D01*
X-139313Y-107892D01*
X-138713Y-107111D01*
X-138514Y-106629D01*
X-135244D01*
X-134706Y-106522D01*
X-134251Y-106218D01*
X-129438Y-101405D01*
X-126822D01*
X-126813Y-101419D01*
X-126162Y-101854D01*
X-125394Y-102007D01*
X-124626Y-101854D01*
X-123975Y-101419D01*
X-123539Y-100768D01*
X-123387Y-100000D01*
X-123539Y-99232D01*
X-123975Y-98581D01*
X-124626Y-98146D01*
X-125394Y-97993D01*
D02*
G37*
G36*
X105323Y-101483D02*
X104334Y-101613D01*
X103413Y-101995D01*
X102622Y-102602D01*
X102015Y-103393D01*
X101633Y-104314D01*
X101503Y-105303D01*
X101633Y-106292D01*
X101759Y-106595D01*
X99333Y-109020D01*
X97493D01*
X97352Y-108520D01*
X98024Y-108004D01*
X98631Y-107213D01*
X99013Y-106292D01*
X99143Y-105303D01*
X99013Y-104314D01*
X98631Y-103393D01*
X98024Y-102602D01*
X97233Y-101995D01*
X96311Y-101613D01*
X95323Y-101483D01*
X94334Y-101613D01*
X93413Y-101995D01*
X92622Y-102602D01*
X92014Y-103393D01*
X91633Y-104314D01*
X91503Y-105303D01*
X91633Y-106292D01*
X92014Y-107213D01*
X92622Y-108004D01*
X93314Y-108536D01*
X93266Y-108924D01*
X93204Y-109055D01*
X92879Y-109120D01*
X92452Y-109405D01*
X87948Y-113909D01*
X87663Y-114336D01*
X87563Y-114839D01*
Y-132607D01*
X87459Y-132677D01*
X87024Y-133328D01*
X86871Y-134097D01*
X87024Y-134865D01*
X87459Y-135516D01*
X88110Y-135951D01*
X88878Y-136104D01*
X89646Y-135951D01*
X90297Y-135516D01*
X90732Y-134865D01*
X90885Y-134097D01*
X90732Y-133328D01*
X90297Y-132677D01*
X90193Y-132607D01*
Y-115383D01*
X91109Y-114467D01*
X91582Y-114701D01*
X91503Y-115303D01*
X91633Y-116292D01*
X92014Y-117213D01*
X92622Y-118004D01*
X93413Y-118611D01*
X94334Y-118993D01*
X95323Y-119123D01*
X96311Y-118993D01*
X97233Y-118611D01*
X98024Y-118004D01*
X98631Y-117213D01*
X99013Y-116292D01*
X99143Y-115303D01*
X99013Y-114314D01*
X98631Y-113393D01*
X98024Y-112602D01*
X97434Y-112149D01*
X97604Y-111649D01*
X99878D01*
X100381Y-111549D01*
X100807Y-111264D01*
X103446Y-108625D01*
X104334Y-108993D01*
X105323Y-109123D01*
X106312Y-108993D01*
X107233Y-108611D01*
X108024Y-108004D01*
X108631Y-107213D01*
X109013Y-106292D01*
X109143Y-105303D01*
X109013Y-104314D01*
X108631Y-103393D01*
X108024Y-102602D01*
X107233Y-101995D01*
X106312Y-101613D01*
X105323Y-101483D01*
D02*
G37*
G36*
X-94677D02*
X-95666Y-101613D01*
X-96587Y-101995D01*
X-97378Y-102602D01*
X-97986Y-103393D01*
X-98367Y-104314D01*
X-98497Y-105303D01*
X-98367Y-106292D01*
X-97986Y-107213D01*
X-97378Y-108004D01*
X-96587Y-108611D01*
X-95666Y-108993D01*
X-94677Y-109123D01*
X-93688Y-108993D01*
X-92767Y-108611D01*
X-91976Y-108004D01*
X-91369Y-107213D01*
X-90987Y-106292D01*
X-90857Y-105303D01*
X-90987Y-104314D01*
X-91369Y-103393D01*
X-91976Y-102602D01*
X-92767Y-101995D01*
X-93688Y-101613D01*
X-94677Y-101483D01*
D02*
G37*
G36*
X-104677D02*
X-105666Y-101613D01*
X-106587Y-101995D01*
X-107378Y-102602D01*
X-107985Y-103393D01*
X-108367Y-104314D01*
X-108497Y-105303D01*
X-108367Y-106292D01*
X-107985Y-107213D01*
X-107378Y-108004D01*
X-106587Y-108611D01*
X-105666Y-108993D01*
X-104677Y-109123D01*
X-103689Y-108993D01*
X-102767Y-108611D01*
X-101976Y-108004D01*
X-101369Y-107213D01*
X-100987Y-106292D01*
X-100857Y-105303D01*
X-100987Y-104314D01*
X-101369Y-103393D01*
X-101976Y-102602D01*
X-102767Y-101995D01*
X-103689Y-101613D01*
X-104677Y-101483D01*
D02*
G37*
G36*
X194323Y-112363D02*
X193555Y-112516D01*
X192904Y-112951D01*
X192469Y-113602D01*
X192316Y-114370D01*
X192319Y-114387D01*
X182808Y-123898D01*
X108840D01*
X108631Y-123393D01*
X108024Y-122602D01*
X107233Y-121995D01*
X106312Y-121613D01*
X105323Y-121483D01*
X104334Y-121613D01*
X103413Y-121995D01*
X102622Y-122602D01*
X102015Y-123393D01*
X101633Y-124314D01*
X101503Y-125303D01*
X101633Y-126292D01*
X102015Y-127213D01*
X102622Y-128004D01*
X103413Y-128611D01*
X104334Y-128993D01*
X105323Y-129123D01*
X106312Y-128993D01*
X107233Y-128611D01*
X108024Y-128004D01*
X108631Y-127213D01*
X108840Y-126708D01*
X183390D01*
X183927Y-126601D01*
X184383Y-126297D01*
X194306Y-116374D01*
X194323Y-116377D01*
X195091Y-116224D01*
X195742Y-115789D01*
X196177Y-115138D01*
X196330Y-114370D01*
X196177Y-113602D01*
X195742Y-112951D01*
X195091Y-112516D01*
X194323Y-112363D01*
D02*
G37*
G36*
X-94677Y-111483D02*
X-95666Y-111613D01*
X-96587Y-111995D01*
X-97378Y-112602D01*
X-97986Y-113393D01*
X-98367Y-114314D01*
X-98497Y-115303D01*
X-98367Y-116292D01*
X-97986Y-117213D01*
X-97378Y-118004D01*
X-96587Y-118611D01*
X-95666Y-118993D01*
X-94677Y-119123D01*
X-93688Y-118993D01*
X-92767Y-118611D01*
X-91976Y-118004D01*
X-91369Y-117213D01*
X-90987Y-116292D01*
X-90857Y-115303D01*
X-90987Y-114314D01*
X-91369Y-113393D01*
X-91976Y-112602D01*
X-92767Y-111995D01*
X-93688Y-111613D01*
X-94677Y-111483D01*
D02*
G37*
G36*
X-104677D02*
X-105666Y-111613D01*
X-106587Y-111995D01*
X-107378Y-112602D01*
X-107985Y-113393D01*
X-108367Y-114314D01*
X-108497Y-115303D01*
X-108367Y-116292D01*
X-107985Y-117213D01*
X-107378Y-118004D01*
X-106587Y-118611D01*
X-105666Y-118993D01*
X-104677Y-119123D01*
X-103689Y-118993D01*
X-102767Y-118611D01*
X-101976Y-118004D01*
X-101369Y-117213D01*
X-100987Y-116292D01*
X-100857Y-115303D01*
X-100987Y-114314D01*
X-101369Y-113393D01*
X-101976Y-112602D01*
X-102767Y-111995D01*
X-103689Y-111613D01*
X-104677Y-111483D01*
D02*
G37*
G36*
X40453Y-115062D02*
X39685Y-115215D01*
X39033Y-115650D01*
X38598Y-116301D01*
X38446Y-117069D01*
X38598Y-117837D01*
X38973Y-118398D01*
X38598Y-118958D01*
X38446Y-119727D01*
X38598Y-120495D01*
X39033Y-121146D01*
X39685Y-121581D01*
X40453Y-121734D01*
X41221Y-121581D01*
X41872Y-121146D01*
X41881Y-121132D01*
X56608D01*
X56947Y-121638D01*
X57598Y-122073D01*
X58366Y-122226D01*
X59134Y-122073D01*
X59785Y-121638D01*
X60220Y-120987D01*
X60373Y-120219D01*
X60318Y-119943D01*
X60362Y-119727D01*
X60255Y-119189D01*
X59950Y-118733D01*
X60182Y-118287D01*
X60417Y-117936D01*
X60570Y-117167D01*
X60417Y-116399D01*
X59982Y-115748D01*
X59331Y-115313D01*
X58563Y-115160D01*
X57795Y-115313D01*
X57270Y-115664D01*
X41881D01*
X41872Y-115650D01*
X41221Y-115215D01*
X40453Y-115062D01*
D02*
G37*
G36*
X95323Y-121483D02*
X94334Y-121613D01*
X93413Y-121995D01*
X92622Y-122602D01*
X92014Y-123393D01*
X91633Y-124314D01*
X91503Y-125303D01*
X91633Y-126292D01*
X92014Y-127213D01*
X92622Y-128004D01*
X93413Y-128611D01*
X94334Y-128993D01*
X95323Y-129123D01*
X96311Y-128993D01*
X97233Y-128611D01*
X98024Y-128004D01*
X98631Y-127213D01*
X99013Y-126292D01*
X99143Y-125303D01*
X99013Y-124314D01*
X98631Y-123393D01*
X98024Y-122602D01*
X97233Y-121995D01*
X96311Y-121613D01*
X95323Y-121483D01*
D02*
G37*
G36*
X-94677D02*
X-95666Y-121613D01*
X-96587Y-121995D01*
X-97378Y-122602D01*
X-97986Y-123393D01*
X-98367Y-124314D01*
X-98497Y-125303D01*
X-98367Y-126292D01*
X-97986Y-127213D01*
X-97378Y-128004D01*
X-96587Y-128611D01*
X-95666Y-128993D01*
X-94677Y-129123D01*
X-93688Y-128993D01*
X-92767Y-128611D01*
X-91976Y-128004D01*
X-91369Y-127213D01*
X-90987Y-126292D01*
X-90857Y-125303D01*
X-90987Y-124314D01*
X-91369Y-123393D01*
X-91976Y-122602D01*
X-92767Y-121995D01*
X-93688Y-121613D01*
X-94677Y-121483D01*
D02*
G37*
G36*
X-104677D02*
X-105666Y-121613D01*
X-106587Y-121995D01*
X-107378Y-122602D01*
X-107985Y-123393D01*
X-108367Y-124314D01*
X-108497Y-125303D01*
X-108367Y-126292D01*
X-107985Y-127213D01*
X-107378Y-128004D01*
X-106587Y-128611D01*
X-105666Y-128993D01*
X-104677Y-129123D01*
X-103689Y-128993D01*
X-102767Y-128611D01*
X-101976Y-128004D01*
X-101369Y-127213D01*
X-100987Y-126292D01*
X-100857Y-125303D01*
X-100987Y-124314D01*
X-101369Y-123393D01*
X-101976Y-122602D01*
X-102767Y-121995D01*
X-103689Y-121613D01*
X-104677Y-121483D01*
D02*
G37*
G36*
X-14677Y-109500D02*
X-29677D01*
X-29984Y-109561D01*
X-30245Y-109736D01*
X-30419Y-109996D01*
X-30480Y-110303D01*
Y-135303D01*
X-30419Y-135610D01*
X-30245Y-135871D01*
X-29984Y-136045D01*
X-29677Y-136106D01*
X-14677D01*
X-14370Y-136045D01*
X-14109Y-135871D01*
X-13936Y-135610D01*
X-13874Y-135303D01*
Y-110303D01*
X-13936Y-109996D01*
X-14109Y-109736D01*
X-14370Y-109561D01*
X-14677Y-109500D01*
D02*
G37*
G36*
X-211127Y-115062D02*
X-211895Y-115215D01*
X-212546Y-115650D01*
X-212981Y-116301D01*
X-213134Y-117069D01*
X-212981Y-117837D01*
X-212546Y-118488D01*
X-212532Y-118498D01*
Y-134428D01*
X-212425Y-134966D01*
X-212120Y-135422D01*
X-208417Y-139125D01*
X-208032Y-139383D01*
X-191339Y-156075D01*
X-190913Y-156360D01*
X-190410Y-156460D01*
X-145065D01*
X-144562Y-156360D01*
X-144135Y-156075D01*
X-130656Y-142596D01*
X-129198D01*
X-129128Y-142701D01*
X-128477Y-143136D01*
X-127709Y-143289D01*
X-126941Y-143136D01*
X-126289Y-142701D01*
X-125854Y-142050D01*
X-125702Y-141282D01*
X-125854Y-140514D01*
X-126289Y-139862D01*
X-126941Y-139427D01*
X-127709Y-139275D01*
X-128477Y-139427D01*
X-129128Y-139862D01*
X-129198Y-139967D01*
X-130608D01*
X-131102Y-139869D01*
X-131606Y-139969D01*
X-132032Y-140254D01*
X-145609Y-153831D01*
X-189865D01*
X-206173Y-137523D01*
X-206430Y-137138D01*
X-209722Y-133846D01*
Y-118498D01*
X-209708Y-118488D01*
X-209273Y-117837D01*
X-209120Y-117069D01*
X-209273Y-116301D01*
X-209708Y-115650D01*
X-210359Y-115215D01*
X-211127Y-115062D01*
D02*
G37*
G36*
X41823Y-129500D02*
X26823D01*
X26516Y-129561D01*
X26255Y-129736D01*
X26081Y-129996D01*
X26020Y-130303D01*
Y-142500D01*
X5323D01*
X5016Y-142561D01*
X4755Y-142736D01*
X4581Y-142996D01*
X4520Y-143303D01*
Y-149472D01*
X4581Y-149779D01*
X4755Y-150039D01*
X5016Y-150213D01*
X5323Y-150274D01*
X34323D01*
X34630Y-150213D01*
X34890Y-150039D01*
X35065Y-149779D01*
X35126Y-149472D01*
Y-137606D01*
X41823D01*
X42130Y-137545D01*
X42390Y-137371D01*
X42565Y-137110D01*
X42626Y-136803D01*
Y-130303D01*
X42565Y-129996D01*
X42390Y-129736D01*
X42130Y-129561D01*
X41823Y-129500D01*
D02*
G37*
G36*
X54823Y-141987D02*
X53965Y-142100D01*
X53165Y-142432D01*
X52478Y-142958D01*
X51951Y-143645D01*
X51620Y-144445D01*
X51507Y-145303D01*
X51620Y-146161D01*
X51951Y-146961D01*
X52478Y-147648D01*
X52816Y-147907D01*
Y-152163D01*
X48676Y-156302D01*
X34891D01*
X34663Y-155752D01*
X34136Y-155065D01*
X33449Y-154538D01*
X32649Y-154207D01*
X31791Y-154094D01*
X30933Y-154207D01*
X30133Y-154538D01*
X29447Y-155065D01*
X28920Y-155752D01*
X28589Y-156551D01*
X28476Y-157409D01*
X28589Y-158268D01*
X28920Y-159067D01*
X29447Y-159754D01*
X30133Y-160281D01*
X30933Y-160612D01*
X31791Y-160725D01*
X32649Y-160612D01*
X33364Y-160316D01*
X49508D01*
X50276Y-160163D01*
X50927Y-159728D01*
X56242Y-154413D01*
X56677Y-153762D01*
X56830Y-152994D01*
Y-147907D01*
X57167Y-147648D01*
X57694Y-146961D01*
X58026Y-146161D01*
X58139Y-145303D01*
X58026Y-144445D01*
X57694Y-143645D01*
X57167Y-142958D01*
X56481Y-142432D01*
X55681Y-142100D01*
X54823Y-141987D01*
D02*
G37*
G36*
X-255716Y-131067D02*
X-257879Y-131209D01*
X-260005Y-131632D01*
X-262058Y-132328D01*
X-264002Y-133287D01*
X-265804Y-134491D01*
X-267434Y-135920D01*
X-268863Y-137550D01*
X-270067Y-139352D01*
X-271026Y-141296D01*
X-271722Y-143349D01*
X-272145Y-145475D01*
X-272287Y-147638D01*
X-272145Y-149801D01*
X-271722Y-151927D01*
X-271026Y-153979D01*
X-270067Y-155923D01*
X-268863Y-157726D01*
X-267434Y-159355D01*
X-265804Y-160784D01*
X-264002Y-161989D01*
X-262058Y-162947D01*
X-260005Y-163644D01*
X-257879Y-164067D01*
X-255716Y-164209D01*
X-253553Y-164067D01*
X-251427Y-163644D01*
X-249375Y-162947D01*
X-247431Y-161989D01*
X-245628Y-160784D01*
X-243999Y-159355D01*
X-242570Y-157726D01*
X-241365Y-155923D01*
X-240407Y-153979D01*
X-239710Y-151927D01*
X-239287Y-149801D01*
X-239145Y-147638D01*
X-239287Y-145475D01*
X-239710Y-143349D01*
X-240407Y-141296D01*
X-241365Y-139352D01*
X-242570Y-137550D01*
X-243999Y-135920D01*
X-245628Y-134491D01*
X-247431Y-133287D01*
X-249375Y-132328D01*
X-251427Y-131632D01*
X-253553Y-131209D01*
X-255716Y-131067D01*
D02*
G37*
G36*
X255716Y-131067D02*
X253553Y-131209D01*
X251427Y-131632D01*
X249375Y-132328D01*
X247431Y-133287D01*
X245628Y-134491D01*
X243999Y-135920D01*
X242570Y-137550D01*
X241365Y-139352D01*
X240407Y-141296D01*
X239710Y-143349D01*
X239287Y-145475D01*
X239145Y-147638D01*
X239287Y-149801D01*
X239710Y-151927D01*
X240407Y-153979D01*
X241365Y-155923D01*
X242570Y-157726D01*
X243999Y-159355D01*
X245628Y-160784D01*
X247431Y-161989D01*
X249375Y-162947D01*
X251427Y-163644D01*
X253553Y-164067D01*
X255716Y-164209D01*
X257879Y-164067D01*
X260005Y-163644D01*
X262058Y-162947D01*
X264002Y-161989D01*
X265804Y-160784D01*
X267434Y-159355D01*
X268863Y-157726D01*
X270067Y-155923D01*
X271026Y-153979D01*
X271722Y-151927D01*
X272145Y-149801D01*
X272287Y-147638D01*
X272145Y-145475D01*
X271722Y-143349D01*
X271026Y-141296D01*
X270067Y-139352D01*
X268863Y-137550D01*
X267434Y-135920D01*
X265804Y-134491D01*
X264002Y-133287D01*
X262058Y-132328D01*
X260005Y-131632D01*
X257879Y-131209D01*
X255716Y-131067D01*
D02*
G37*
G36*
X80512Y-155965D02*
X79744Y-156118D01*
X79093Y-156553D01*
X78658Y-157204D01*
X78505Y-157972D01*
X78658Y-158740D01*
X79093Y-159392D01*
X79197Y-159461D01*
Y-163211D01*
X61300Y-181109D01*
X21354Y-181109D01*
X7614Y-167369D01*
Y-162513D01*
X7718Y-162443D01*
X8153Y-161792D01*
X8166Y-161729D01*
X8301Y-161527D01*
X8401Y-161024D01*
X8301Y-160521D01*
X8166Y-160318D01*
X8153Y-160256D01*
X7718Y-159604D01*
X7067Y-159169D01*
X6299Y-159017D01*
X5531Y-159169D01*
X4880Y-159604D01*
X4445Y-160256D01*
X4292Y-161024D01*
X4445Y-161792D01*
X4880Y-162443D01*
X4985Y-162513D01*
Y-167913D01*
X5085Y-168417D01*
X5370Y-168843D01*
X19880Y-183353D01*
X20306Y-183638D01*
X20809Y-183738D01*
X61844Y-183738D01*
X62347Y-183638D01*
X62774Y-183353D01*
X81441Y-164685D01*
X81726Y-164259D01*
X81826Y-163756D01*
Y-159461D01*
X81931Y-159392D01*
X82366Y-158740D01*
X82519Y-157972D01*
X82366Y-157204D01*
X81931Y-156553D01*
X81280Y-156118D01*
X80512Y-155965D01*
D02*
G37*
G36*
X-75886Y-123296D02*
X-76654Y-123449D01*
X-77305Y-123884D01*
X-77740Y-124535D01*
X-77893Y-125303D01*
X-77740Y-126071D01*
X-77305Y-126722D01*
X-77291Y-126732D01*
Y-167528D01*
X-94389Y-184627D01*
X-94488Y-184607D01*
X-95256Y-184760D01*
X-95907Y-185195D01*
X-96342Y-185846D01*
X-96495Y-186614D01*
X-96342Y-187382D01*
X-95907Y-188033D01*
X-95256Y-188469D01*
X-94488Y-188621D01*
X-93720Y-188469D01*
X-93069Y-188033D01*
X-92634Y-187382D01*
X-92501Y-186712D01*
X-74892Y-169104D01*
X-74588Y-168648D01*
X-74481Y-168110D01*
Y-126732D01*
X-74467Y-126722D01*
X-74032Y-126071D01*
X-73879Y-125303D01*
X-74032Y-124535D01*
X-74467Y-123884D01*
X-75118Y-123449D01*
X-75886Y-123296D01*
D02*
G37*
G36*
X208791Y-196154D02*
X206814Y-196310D01*
X204886Y-196773D01*
X203054Y-197531D01*
X201363Y-198567D01*
X199855Y-199855D01*
X198567Y-201363D01*
X197531Y-203054D01*
X196773Y-204886D01*
X196310Y-206814D01*
X196154Y-208791D01*
X196310Y-210768D01*
X196773Y-212697D01*
X197531Y-214529D01*
X198567Y-216219D01*
X199855Y-217727D01*
X201363Y-219015D01*
X203054Y-220051D01*
X204886Y-220810D01*
X206814Y-221273D01*
X208791Y-221429D01*
X210768Y-221273D01*
X212697Y-220810D01*
X214529Y-220051D01*
X216219Y-219015D01*
X217727Y-217727D01*
X219015Y-216219D01*
X220051Y-214529D01*
X220810Y-212697D01*
X221273Y-210768D01*
X221429Y-208791D01*
X221273Y-206814D01*
X220810Y-204886D01*
X220051Y-203054D01*
X219015Y-201363D01*
X217727Y-199855D01*
X216219Y-198567D01*
X214529Y-197531D01*
X212697Y-196773D01*
X210768Y-196310D01*
X208791Y-196154D01*
D02*
G37*
G36*
X-208791D02*
X-210768Y-196310D01*
X-212697Y-196773D01*
X-214529Y-197531D01*
X-216219Y-198567D01*
X-217727Y-199855D01*
X-219015Y-201363D01*
X-220051Y-203054D01*
X-220810Y-204886D01*
X-221273Y-206814D01*
X-221429Y-208791D01*
X-221273Y-210768D01*
X-220810Y-212697D01*
X-220051Y-214529D01*
X-219015Y-216219D01*
X-217727Y-217727D01*
X-216219Y-219015D01*
X-214529Y-220051D01*
X-212697Y-220810D01*
X-210768Y-221273D01*
X-208791Y-221429D01*
X-206814Y-221273D01*
X-204886Y-220810D01*
X-203054Y-220051D01*
X-201363Y-219015D01*
X-199855Y-217727D01*
X-198567Y-216219D01*
X-197531Y-214529D01*
X-196773Y-212697D01*
X-196310Y-210768D01*
X-196154Y-208791D01*
X-196310Y-206814D01*
X-196773Y-204886D01*
X-197531Y-203054D01*
X-198567Y-201363D01*
X-199855Y-199855D01*
X-201363Y-198567D01*
X-203054Y-197531D01*
X-204886Y-196773D01*
X-206814Y-196310D01*
X-208791Y-196154D01*
D02*
G37*
G36*
X-14665Y-217999D02*
X-15642Y-218128D01*
X-16552Y-218505D01*
X-17333Y-219104D01*
X-17932Y-219885D01*
X-18309Y-220795D01*
X-18438Y-221772D01*
X-18309Y-222748D01*
X-17932Y-223658D01*
X-17333Y-224439D01*
X-16552Y-225039D01*
X-15642Y-225415D01*
X-14665Y-225544D01*
X-13689Y-225415D01*
X-12779Y-225039D01*
X-11998Y-224439D01*
X-11398Y-223658D01*
X-11022Y-222748D01*
X-10893Y-221772D01*
X-11022Y-220795D01*
X-11398Y-219885D01*
X-11998Y-219104D01*
X-12779Y-218505D01*
X-13689Y-218128D01*
X-14665Y-217999D01*
D02*
G37*
G36*
X-44390D02*
X-45366Y-218128D01*
X-46276Y-218505D01*
X-47057Y-219104D01*
X-47657Y-219885D01*
X-48034Y-220795D01*
X-48162Y-221772D01*
X-48034Y-222748D01*
X-47657Y-223658D01*
X-47057Y-224439D01*
X-46276Y-225039D01*
X-45366Y-225415D01*
X-44390Y-225544D01*
X-43413Y-225415D01*
X-42504Y-225039D01*
X-41722Y-224439D01*
X-41123Y-223658D01*
X-40746Y-222748D01*
X-40617Y-221772D01*
X-40746Y-220795D01*
X-41123Y-219885D01*
X-41722Y-219104D01*
X-42504Y-218505D01*
X-43413Y-218128D01*
X-44390Y-217999D01*
D02*
G37*
G36*
X109153Y-233623D02*
X108386Y-233776D01*
X107734Y-234211D01*
X107299Y-234862D01*
X107147Y-235630D01*
X107150Y-235647D01*
X104536Y-238260D01*
X81252D01*
X81242Y-238246D01*
X80591Y-237811D01*
X79823Y-237658D01*
X79055Y-237811D01*
X78404Y-238246D01*
X77969Y-238897D01*
X77816Y-239665D01*
X77969Y-240433D01*
X78404Y-241085D01*
X79055Y-241520D01*
X79823Y-241672D01*
X80591Y-241520D01*
X81242Y-241085D01*
X81252Y-241070D01*
X105118D01*
X105656Y-240963D01*
X106112Y-240659D01*
X109137Y-237634D01*
X109153Y-237637D01*
X109922Y-237484D01*
X110573Y-237049D01*
X111008Y-236398D01*
X111161Y-235630D01*
X111008Y-234862D01*
X110573Y-234211D01*
X109922Y-233776D01*
X109153Y-233623D01*
D02*
G37*
G36*
X-92559Y-239535D02*
X-93535Y-239663D01*
X-94445Y-240040D01*
X-95227Y-240640D01*
X-95826Y-241421D01*
X-96203Y-242331D01*
X-96332Y-243307D01*
X-96203Y-244284D01*
X-95826Y-245193D01*
X-95227Y-245975D01*
X-94445Y-246574D01*
X-93535Y-246951D01*
X-92559Y-247079D01*
X-91583Y-246951D01*
X-90673Y-246574D01*
X-89892Y-245975D01*
X-89292Y-245193D01*
X-88915Y-244284D01*
X-88787Y-243307D01*
X-88915Y-242331D01*
X-89292Y-241421D01*
X-89892Y-240640D01*
X-90673Y-240040D01*
X-91583Y-239663D01*
X-92559Y-239535D01*
D02*
G37*
G36*
X-102559D02*
X-103535Y-239663D01*
X-104445Y-240040D01*
X-105227Y-240640D01*
X-105826Y-241421D01*
X-106203Y-242331D01*
X-106332Y-243307D01*
X-106203Y-244284D01*
X-105826Y-245193D01*
X-105227Y-245975D01*
X-104445Y-246574D01*
X-103535Y-246951D01*
X-102559Y-247079D01*
X-101583Y-246951D01*
X-100673Y-246574D01*
X-99892Y-245975D01*
X-99292Y-245193D01*
X-98915Y-244284D01*
X-98787Y-243307D01*
X-98915Y-242331D01*
X-99292Y-241421D01*
X-99892Y-240640D01*
X-100673Y-240040D01*
X-101583Y-239663D01*
X-102559Y-239535D01*
D02*
G37*
G36*
X-112559D02*
X-113535Y-239663D01*
X-114445Y-240040D01*
X-115227Y-240640D01*
X-115826Y-241421D01*
X-116203Y-242331D01*
X-116332Y-243307D01*
X-116203Y-244284D01*
X-115826Y-245193D01*
X-115227Y-245975D01*
X-114445Y-246574D01*
X-113535Y-246951D01*
X-112559Y-247079D01*
X-111583Y-246951D01*
X-110673Y-246574D01*
X-109892Y-245975D01*
X-109292Y-245193D01*
X-108915Y-244284D01*
X-108787Y-243307D01*
X-108915Y-242331D01*
X-109292Y-241421D01*
X-109892Y-240640D01*
X-110673Y-240040D01*
X-111583Y-239663D01*
X-112559Y-239535D01*
D02*
G37*
G36*
X-76386Y-255761D02*
X-77154Y-255913D01*
X-77805Y-256348D01*
X-78240Y-257000D01*
X-78393Y-257768D01*
X-78240Y-258536D01*
X-77805Y-259187D01*
X-77154Y-259622D01*
X-76386Y-259775D01*
X-75618Y-259622D01*
X-74967Y-259187D01*
X-74532Y-258536D01*
X-74379Y-257768D01*
X-74532Y-257000D01*
X-74967Y-256348D01*
X-75618Y-255913D01*
X-76386Y-255761D01*
D02*
G37*
G36*
X5571Y-255134D02*
X4851Y-255228D01*
X4181Y-255506D01*
X3605Y-255948D01*
X3164Y-256523D01*
X2886Y-257194D01*
X2791Y-257913D01*
X2886Y-258633D01*
X3164Y-259303D01*
X3605Y-259879D01*
X4181Y-260321D01*
X4851Y-260598D01*
X5571Y-260693D01*
X6290Y-260598D01*
X6961Y-260321D01*
X7536Y-259879D01*
X7978Y-259303D01*
X8256Y-258633D01*
X8350Y-257913D01*
X8256Y-257194D01*
X7978Y-256523D01*
X7536Y-255948D01*
X6961Y-255506D01*
X6290Y-255228D01*
X5571Y-255134D01*
D02*
G37*
G36*
X-14429D02*
X-15149Y-255228D01*
X-15819Y-255506D01*
X-16395Y-255948D01*
X-16836Y-256523D01*
X-17114Y-257194D01*
X-17209Y-257913D01*
X-17114Y-258633D01*
X-16836Y-259303D01*
X-16395Y-259879D01*
X-15819Y-260321D01*
X-15149Y-260598D01*
X-14429Y-260693D01*
X-13710Y-260598D01*
X-13039Y-260321D01*
X-12464Y-259879D01*
X-12022Y-259303D01*
X-11744Y-258633D01*
X-11649Y-257913D01*
X-11744Y-257194D01*
X-12022Y-256523D01*
X-12464Y-255948D01*
X-13039Y-255506D01*
X-13710Y-255228D01*
X-14429Y-255134D01*
D02*
G37*
G36*
X-39016D02*
X-39735Y-255228D01*
X-40406Y-255506D01*
X-40981Y-255948D01*
X-41423Y-256523D01*
X-41701Y-257194D01*
X-41795Y-257913D01*
X-41701Y-258633D01*
X-41423Y-259303D01*
X-40981Y-259879D01*
X-40406Y-260321D01*
X-39735Y-260598D01*
X-39016Y-260693D01*
X-38296Y-260598D01*
X-37626Y-260321D01*
X-37050Y-259879D01*
X-36608Y-259303D01*
X-36331Y-258633D01*
X-36236Y-257913D01*
X-36331Y-257194D01*
X-36608Y-256523D01*
X-37050Y-255948D01*
X-37626Y-255506D01*
X-38296Y-255228D01*
X-39016Y-255134D01*
D02*
G37*
G36*
X-59016D02*
X-59735Y-255228D01*
X-60406Y-255506D01*
X-60981Y-255948D01*
X-61423Y-256523D01*
X-61701Y-257194D01*
X-61795Y-257913D01*
X-61701Y-258633D01*
X-61423Y-259303D01*
X-60981Y-259879D01*
X-60406Y-260321D01*
X-59735Y-260598D01*
X-59016Y-260693D01*
X-58296Y-260598D01*
X-57626Y-260321D01*
X-57050Y-259879D01*
X-56608Y-259303D01*
X-56331Y-258633D01*
X-56236Y-257913D01*
X-56331Y-257194D01*
X-56608Y-256523D01*
X-57050Y-255948D01*
X-57626Y-255506D01*
X-58296Y-255228D01*
X-59016Y-255134D01*
D02*
G37*
G36*
X73032Y-253789D02*
X71541Y-253986D01*
X70152Y-254561D01*
X68960Y-255476D01*
X68045Y-256668D01*
X67470Y-258057D01*
X67274Y-259547D01*
X67470Y-261037D01*
X68045Y-262426D01*
X68960Y-263619D01*
X70152Y-264534D01*
X71541Y-265109D01*
X73032Y-265305D01*
X74522Y-265109D01*
X75911Y-264534D01*
X77103Y-263619D01*
X78018Y-262426D01*
X78593Y-261037D01*
X78789Y-259547D01*
X78593Y-258057D01*
X78018Y-256668D01*
X77103Y-255476D01*
X75911Y-254561D01*
X74522Y-253986D01*
X73032Y-253789D01*
D02*
G37*
G36*
X36024D02*
X34533Y-253986D01*
X33145Y-254561D01*
X31952Y-255476D01*
X31037Y-256668D01*
X30462Y-258057D01*
X30266Y-259547D01*
X30462Y-261037D01*
X31037Y-262426D01*
X31952Y-263619D01*
X33145Y-264534D01*
X34533Y-265109D01*
X36024Y-265305D01*
X37514Y-265109D01*
X38903Y-264534D01*
X40095Y-263619D01*
X41010Y-262426D01*
X41585Y-261037D01*
X41781Y-259547D01*
X41585Y-258057D01*
X41010Y-256668D01*
X40095Y-255476D01*
X38903Y-254561D01*
X37514Y-253986D01*
X36024Y-253789D01*
D02*
G37*
G36*
X119764Y-243170D02*
X117787Y-243325D01*
X115859Y-243788D01*
X114026Y-244547D01*
X112336Y-245583D01*
X110828Y-246871D01*
X109540Y-248379D01*
X108504Y-250070D01*
X107745Y-251902D01*
X107282Y-253830D01*
X107126Y-255807D01*
X107282Y-257784D01*
X107745Y-259712D01*
X108504Y-261544D01*
X109540Y-263235D01*
X110828Y-264743D01*
X112336Y-266031D01*
X114026Y-267067D01*
X115859Y-267826D01*
X117787Y-268289D01*
X119764Y-268444D01*
X121741Y-268289D01*
X123669Y-267826D01*
X125501Y-267067D01*
X127192Y-266031D01*
X128700Y-264743D01*
X129988Y-263235D01*
X131024Y-261544D01*
X131783Y-259712D01*
X132246Y-257784D01*
X132401Y-255807D01*
X132246Y-253830D01*
X131783Y-251902D01*
X131024Y-250070D01*
X129988Y-248379D01*
X128700Y-246871D01*
X127192Y-245583D01*
X125501Y-244547D01*
X123669Y-243788D01*
X121741Y-243325D01*
X119764Y-243170D01*
D02*
G37*
G36*
X-4429Y-265134D02*
X-5149Y-265228D01*
X-5819Y-265506D01*
X-6395Y-265948D01*
X-6836Y-266524D01*
X-7114Y-267194D01*
X-7209Y-267913D01*
X-7114Y-268633D01*
X-6836Y-269303D01*
X-6395Y-269879D01*
X-5819Y-270321D01*
X-5149Y-270598D01*
X-4429Y-270693D01*
X-3710Y-270598D01*
X-3039Y-270321D01*
X-2464Y-269879D01*
X-2022Y-269303D01*
X-1744Y-268633D01*
X-1649Y-267913D01*
X-1744Y-267194D01*
X-2022Y-266524D01*
X-2464Y-265948D01*
X-3039Y-265506D01*
X-3710Y-265228D01*
X-4429Y-265134D01*
D02*
G37*
G36*
X-49016D02*
X-49735Y-265228D01*
X-50406Y-265506D01*
X-50981Y-265948D01*
X-51423Y-266524D01*
X-51701Y-267194D01*
X-51795Y-267913D01*
X-51701Y-268633D01*
X-51423Y-269303D01*
X-50981Y-269879D01*
X-50406Y-270321D01*
X-49735Y-270598D01*
X-49016Y-270693D01*
X-48296Y-270598D01*
X-47626Y-270321D01*
X-47050Y-269879D01*
X-46608Y-269303D01*
X-46331Y-268633D01*
X-46236Y-267913D01*
X-46331Y-267194D01*
X-46608Y-266524D01*
X-47050Y-265948D01*
X-47626Y-265506D01*
X-48296Y-265228D01*
X-49016Y-265134D01*
D02*
G37*
%LPD*%
G36*
X-230276Y65871D02*
X-230339Y65387D01*
X-264480D01*
Y74803D01*
X-230276D01*
Y65871D01*
D02*
G37*
G36*
X-230339Y54584D02*
X-264543D01*
Y64584D01*
X-230339D01*
Y54584D01*
D02*
G37*
G36*
X265311Y73267D02*
X265311Y61966D01*
X234311D01*
X234311Y73267D01*
X265311Y73267D01*
D02*
G37*
G36*
X265160Y51336D02*
X234160Y51336D01*
X234160Y61040D01*
X234311Y61164D01*
X265160D01*
X265160Y51336D01*
D02*
G37*
G36*
X265309Y-7030D02*
X245374D01*
X234309Y-7030D01*
Y3210D01*
X245614Y3210D01*
X265309D01*
Y-7030D01*
D02*
G37*
G36*
X265343Y-7860D02*
Y-17561D01*
X234343D01*
Y-7833D01*
X245374Y-7833D01*
X265309D01*
X265343Y-7860D01*
D02*
G37*
G36*
X-228050Y-34646D02*
X-228050Y-44980D01*
X-262255Y-44980D01*
X-262255Y-34646D01*
X-228050Y-34646D01*
D02*
G37*
G36*
X-228075Y-45783D02*
Y-55709D01*
X-262280D01*
Y-46273D01*
X-261779Y-45783D01*
X-228075Y-45783D01*
D02*
G37*
G36*
X-235190Y-98903D02*
X-234480Y-98997D01*
X-233771Y-98903D01*
X-228492D01*
X-228492Y-109449D01*
X-262697D01*
Y-98903D01*
X-235190Y-98903D01*
D02*
G37*
G36*
X-228492Y-121063D02*
X-262697Y-121063D01*
X-262697Y-110752D01*
X-262197Y-110252D01*
X-228492D01*
X-228492Y-121063D01*
D02*
G37*
G36*
X-14677Y-135303D02*
X-29677D01*
Y-110303D01*
X-14677D01*
Y-135303D01*
D02*
G37*
G36*
X41823Y-136803D02*
X34323D01*
Y-149472D01*
X5323D01*
Y-143303D01*
X26823D01*
Y-130303D01*
X41823D01*
Y-136803D01*
D02*
G37*
D14*
X-73622Y-27896D02*
X-73032Y-28486D01*
D78*
X93348Y99606D02*
X97244D01*
X100787Y103150D02*
Y107045D01*
X97244Y99606D02*
X100787Y103150D01*
Y107045D02*
X141339Y147596D01*
X90059Y96317D02*
X93348Y99606D01*
X95323Y84697D02*
X99799Y89173D01*
X106398D02*
X114272Y97047D01*
X99799Y89173D02*
X106398D01*
X114272Y97047D02*
Y111081D01*
X85728Y62992D02*
X92159Y69423D01*
X112082D01*
X66929Y62992D02*
X85728D01*
X49444Y41489D02*
X67404Y59449D01*
X110278D02*
X141043Y90214D01*
X67404Y59449D02*
X110278D01*
X106546Y-10335D02*
X110313Y-14102D01*
X91100Y-10335D02*
X106546D01*
X110313Y-14102D02*
X120815D01*
X86220Y-5455D02*
X91100Y-10335D01*
X44339Y-1307D02*
X45153Y-492D01*
X110748D02*
X117469Y-7213D01*
X45153Y-492D02*
X110748D01*
X-99551Y-20177D02*
X-93612D01*
X-90371Y-23418D01*
X-76740Y-37049D02*
X25942D01*
X-90371Y-23418D02*
Y-23418D01*
Y-23418D02*
X-76740Y-37049D01*
X-104677Y-25303D02*
X-99551Y-20177D01*
X-87372Y-10208D02*
X-78265Y-19316D01*
X-110925Y-9982D02*
X-110699Y-10208D01*
X-87372D01*
X-187579Y-1083D02*
X-108563D01*
X-107874Y-394D02*
X-92716D01*
X-108563Y-1083D02*
X-107874Y-394D01*
X-201331Y12669D02*
X-187579Y-1083D01*
X-92716Y-394D02*
X-77616Y-15494D01*
X-37303D01*
X-93159Y39370D02*
X-90256Y36467D01*
Y30175D02*
X-87894Y27813D01*
X-90256Y30175D02*
Y36467D01*
X-93159Y39370D02*
X-93159D01*
X-108823Y40319D02*
X-94108D01*
X-93159Y39370D01*
X-140366Y42886D02*
X-111390D01*
X-108823Y40319D01*
X282209Y89427D02*
X282225Y89411D01*
X282794D01*
X280512Y89427D02*
X282209D01*
X-79480Y9717D02*
X-77165D01*
X-44348Y-28486D02*
X-41494Y-31341D01*
X-73032Y-28486D02*
X-69291D01*
X-44348D01*
X-79728Y-70370D02*
Y-68545D01*
Y-70370D02*
X-77058Y-73041D01*
X-82382Y-65892D02*
X-79728Y-68545D01*
X-77058Y-73041D02*
X-71958D01*
X-58760Y-59842D01*
X-75895Y-69450D02*
X-72599D01*
X-76042Y-69303D02*
X-75895Y-69450D01*
X108059Y-85303D02*
X113785Y-91029D01*
X268400D02*
X269628Y-89801D01*
X113785Y-91029D02*
X268400D01*
X269628Y-89801D02*
X269947D01*
X266990Y-88583D02*
X269310Y-86262D01*
X110039Y-80553D02*
X118069Y-88583D01*
X266990D01*
X150295Y-85967D02*
X266822D01*
X270562Y-82227D01*
X281791D01*
X-11137Y154020D02*
Y159759D01*
X-19874Y168496D02*
Y186107D01*
Y168496D02*
X-11137Y159759D01*
X-1378Y152756D02*
Y160464D01*
Y152756D02*
X75365Y76013D01*
X76349D02*
X76575Y75787D01*
X75365Y76013D02*
X76349D01*
X-8465Y167551D02*
X-1378Y160464D01*
X112082Y69423D02*
X137500Y94840D01*
X137598Y94742D01*
X279724D01*
X47638Y43701D02*
X66929Y62992D01*
X-81815Y43701D02*
X47638D01*
X-88878Y24409D02*
X-84735D01*
X-70354Y37134D02*
X-70276Y37213D01*
X-72010Y37134D02*
X-70354D01*
X-84735Y24409D02*
X-72010Y37134D01*
X-87795Y27911D02*
X-85197D01*
X-87894Y27813D02*
X-87795Y27911D01*
X183390Y-125303D02*
X194323Y-114370D01*
X105323Y-125303D02*
X183390D01*
X-114677Y224697D02*
X43583Y66437D01*
X57579D01*
X67095Y75787D02*
X70669D01*
X49752Y93130D02*
X49752D01*
X-11137Y154020D02*
X49752Y93130D01*
X49752D02*
X67095Y75787D01*
X-79868Y41489D02*
X49444D01*
X-85126Y36167D02*
Y36231D01*
X-79868Y41489D01*
X-94677Y94697D02*
X-57165Y57185D01*
X53740D01*
X-94677Y94697D02*
X-94677D01*
X-64244Y204697D02*
X-46823D01*
X-94244Y234697D02*
X-64244Y204697D01*
X-46823D02*
X-46801Y204675D01*
X-16486D01*
X-12795Y200984D01*
X-114677Y234697D02*
X-94244D01*
X-12795Y199606D02*
Y200984D01*
X-94488Y-186713D02*
Y-186614D01*
Y-186713D02*
X-75886Y-168110D01*
X-88091Y34112D02*
Y37425D01*
X-81815Y43701D01*
X-88091Y34112D02*
X-86221Y32242D01*
X-85197D01*
X-4134Y173154D02*
Y199606D01*
Y173154D02*
X-2362Y171383D01*
Y171063D02*
Y171383D01*
X4528Y197244D02*
X5483Y196289D01*
Y181525D02*
Y196289D01*
Y181525D02*
X5709Y181299D01*
X83858Y74803D02*
Y95866D01*
X1181Y178543D02*
Y197835D01*
Y178543D02*
X83858Y95866D01*
X197Y198819D02*
X1181Y197835D01*
X-8465Y167551D02*
Y198819D01*
X-17126Y188855D02*
Y198819D01*
X-19874Y186107D02*
X-17126Y188855D01*
X82724Y-36740D02*
X85776Y-39791D01*
X79823Y-239665D02*
X105118D01*
X109153Y-235630D01*
X-142177Y44697D02*
Y60358D01*
X-72599Y-69450D02*
X-62992Y-59842D01*
X-25197Y-5945D02*
X-17002Y-14139D01*
X-10073D01*
X259323Y36697D02*
X267063D01*
X271241Y32519D01*
X40453Y-119727D02*
X58957D01*
X-23860Y9055D02*
X-20965D01*
X-27362Y12557D02*
X-23860Y9055D01*
X37163Y-11852D02*
X81872D01*
X-211127Y-134428D02*
X-207423Y-138132D01*
X-211127Y-134428D02*
Y-117069D01*
X-75886Y-168110D02*
Y-125303D01*
X-131583Y-233082D02*
X-131502D01*
X-131693Y-232972D02*
X-131583Y-233082D01*
X-131693Y-232972D02*
X-70965Y-172244D01*
Y-137500D01*
X-59646Y-126181D01*
Y-100886D01*
X-54331Y-95571D02*
X-50787D01*
X-59646Y-100886D02*
X-54331Y-95571D01*
X-134598Y-115224D02*
X-104677Y-85303D01*
X-141980Y-115224D02*
X-134598D01*
X-141980Y-105224D02*
X-135244D01*
X-130020Y-100000D02*
X-125394D01*
X-135244Y-105224D02*
X-130020Y-100000D01*
X-141980Y-95224D02*
X-128164D01*
X-141980Y-85224D02*
X-129663D01*
X-127067Y-82628D02*
Y-82579D01*
X-129663Y-85224D02*
X-127067Y-82628D01*
X-256299Y-85630D02*
X-248130D01*
X-240579Y-78079D02*
X-117571D01*
X-248130Y-85630D02*
X-240579Y-78079D01*
X-256299Y-75630D02*
X-252134D01*
X-251799Y-75295D02*
X-120276D01*
X-252134Y-75630D02*
X-251799Y-75295D01*
X-120276D02*
X-119426Y-74446D01*
X-117571D01*
X-256299Y-65630D02*
X-224232D01*
X-218181Y-71681D01*
X-128988D01*
X-111874Y-60658D02*
X-88583D01*
X-142577Y-29955D02*
X-111874Y-60658D01*
X-113443Y-50238D02*
X-92323D01*
X-138681Y-25000D02*
X-113443Y-50238D01*
X-183915Y-25000D02*
X-138681D01*
X-212234Y-53319D02*
X-183915Y-25000D01*
X-253839Y-20413D02*
X-253681D01*
X-247736Y-14469D01*
X-132283D01*
X-112262Y-43053D02*
X-108801D01*
X-105197Y-39449D02*
Y-35823D01*
X-108801Y-43053D02*
X-105197Y-39449D01*
X-114961Y-40354D02*
X-112262Y-43053D01*
X-105197Y-35823D02*
X-104677Y-35303D01*
X-114961Y-40354D02*
Y-31791D01*
X-132283Y-14469D02*
X-114961Y-31791D01*
X-253839Y-413D02*
X-200669D01*
X-195780Y-5303D02*
X-104677D01*
X-200669Y-413D02*
X-195780Y-5303D01*
X-253839Y-10413D02*
X-253839Y-10413D01*
X-121063D02*
X-117965Y-13512D01*
X-253839Y-10413D02*
X-121063D01*
X-201331Y12669D02*
Y43161D01*
X-210531Y52362D02*
X-201331Y43161D01*
X315524Y33325D02*
X323720D01*
X142815Y256594D02*
Y284801D01*
X161122Y142085D02*
Y145431D01*
X135475Y132087D02*
X152067D01*
X132972Y129585D02*
X135475Y132087D01*
X132775Y129585D02*
X132972D01*
X143321Y142913D02*
X144980D01*
X110728Y110321D02*
X143321Y142913D01*
X110728Y100102D02*
Y110321D01*
X140846Y123581D02*
X177756D01*
X195079Y140903D01*
X159350Y125549D02*
X171358Y137557D01*
Y143405D01*
X134449Y125549D02*
X159350D01*
X127362Y232537D02*
X184843Y175057D01*
Y166831D02*
Y175057D01*
X127362Y232537D02*
Y245037D01*
X115323Y254697D02*
X117702D01*
X127362Y245037D01*
X166006Y202260D02*
X184646D01*
X130610Y237655D02*
X166006Y202260D01*
X134744Y242520D02*
Y281356D01*
Y242520D02*
X169193Y208071D01*
X143006Y244240D02*
X165551D01*
X138287Y248959D02*
X143006Y244240D01*
X138287Y248959D02*
Y283620D01*
X131791Y295825D02*
X142815Y284801D01*
X-143996Y278207D02*
X-126280Y295923D01*
X-143996Y256890D02*
Y278207D01*
X-149606Y241535D02*
X-136516Y254626D01*
X-192913Y185039D02*
X-190312D01*
X-129429Y245923D01*
Y272006D01*
X-172146Y207501D02*
X-132382Y247265D01*
X-172146Y207382D02*
Y207501D01*
X-106356Y295923D02*
X-41535Y231102D01*
X41831D02*
X106553Y295825D01*
X-41535Y231102D02*
X41831D01*
X-126280Y295923D02*
X-106356D01*
X106553Y295825D02*
X131791D01*
X-108128Y292675D02*
X-43504Y228051D01*
X43799D02*
X108423Y292675D01*
X-43504Y228051D02*
X43799D01*
X-122736Y292675D02*
X-108128D01*
X108423D02*
X129232D01*
X138287Y283620D01*
X-136516Y278895D02*
X-122736Y292675D01*
X-136516Y254626D02*
Y278895D01*
X-109112Y288049D02*
X-45965Y224902D01*
X45571D02*
X108718Y288049D01*
X-45965Y224902D02*
X45571D01*
X-120473Y288049D02*
X-109112D01*
X108718D02*
X128051D01*
X-109014Y283226D02*
X-47441Y221654D01*
X47835D02*
X109407Y283226D01*
X-47441Y221654D02*
X47835D01*
X-118209Y283226D02*
X-109014D01*
X109407D02*
X123622D01*
X-132382Y247265D02*
Y276140D01*
X210433Y82340D02*
X214567Y86474D01*
X210433Y75254D02*
Y82340D01*
X211713Y-862D02*
Y4880D01*
X201214Y-11360D02*
X211713Y-862D01*
X167717Y-11360D02*
X201214D01*
X-45866Y-31734D02*
X-45571Y-31439D01*
X-46063Y-31538D02*
X-45866Y-31734D01*
X-75689Y-31538D02*
X-46063D01*
X-45431Y12557D02*
X-27362D01*
X36713Y-11852D02*
X37163D01*
X36909Y-11656D02*
X37359D01*
X37163Y-11852D02*
X37359Y-11656D01*
X36966Y-12049D02*
X37163Y-11852D01*
X-95248Y-25717D02*
X-94264D01*
X-80963Y-39018D02*
X29054D01*
X36713Y-11852D02*
X36909Y-11656D01*
X37359D02*
X37598D01*
X81872Y-11852D02*
X95323Y-25303D01*
X45669Y-5455D02*
X86220D01*
X314048Y31848D02*
X315524Y33325D01*
X323441Y33016D02*
Y33045D01*
X323720Y33325D01*
X316985Y29191D02*
X317477Y29683D01*
X296400Y29191D02*
X316985D01*
X295275Y31848D02*
X314048D01*
X295079Y32045D02*
X295275Y31848D01*
X214567Y86474D02*
X279527D01*
X141043Y90214D02*
X279724D01*
X317477Y29683D02*
X318898D01*
X291280Y26632D02*
X321063D01*
X290886Y27025D02*
X291280Y26632D01*
X296302Y29092D02*
X296400Y29191D01*
X289272Y27025D02*
X290886D01*
X321063Y26632D02*
X321358Y26337D01*
X-92323Y-50238D02*
Y-50179D01*
X-109941Y-39313D02*
Y-18841D01*
X-118406Y-90494D02*
X-113386Y-85475D01*
X-123434Y-90494D02*
X-118406D01*
X-128164Y-95224D02*
X-123434Y-90494D01*
X-112992Y-15789D02*
X-109941Y-18841D01*
X-48664Y12557D02*
X-48270Y12163D01*
X-78347Y12557D02*
X-48664D01*
X279724Y90214D02*
X280512Y89427D01*
X292421Y29388D02*
X293167D01*
X293363Y29585D01*
X293856Y29092D02*
X296302D01*
X293363Y29585D02*
X293856Y29092D01*
X40453Y-117069D02*
X58464D01*
X-78265Y-19316D02*
X-71063D01*
X-86516Y-76616D02*
Y-73706D01*
X-89567Y-79668D02*
X-86516Y-76616D01*
X-89567Y-80061D02*
Y-79668D01*
X-98622Y-80061D02*
X-89567D01*
X-86516Y-73706D02*
X-83760Y-70950D01*
X-84744Y-67519D02*
X-83760Y-68503D01*
Y-70950D02*
Y-68503D01*
X-103380Y-75303D02*
X-98622Y-80061D01*
X-104677Y-75303D02*
X-103380D01*
X-84744Y-67519D02*
Y-61712D01*
X-86811Y-59645D02*
X-84744Y-61712D01*
X-86811Y-59645D02*
Y-55356D01*
X-84055Y-45809D02*
X-82382Y-47482D01*
X-86713Y-69727D02*
Y-62528D01*
X-88583Y-60658D02*
X-86713Y-62528D01*
X-112008Y2518D02*
X-111024Y1533D01*
X-131595Y2518D02*
X-112008D01*
X28839Y-38821D02*
X28857D01*
X29054Y-39018D01*
X28026Y-34999D02*
X28802D01*
X28026Y-34999D02*
X28026Y-34999D01*
X28009Y-34982D02*
X28026Y-34999D01*
X25942Y-37049D02*
X28009Y-34982D01*
X-36713Y-16085D02*
X-36122Y-16675D01*
X-37303Y-15494D02*
X-36713Y-16085D01*
X-36909Y-56537D02*
X-10498D01*
X-10301Y-56341D01*
X-94264Y-25717D02*
X-80963Y-39018D01*
X-41634Y-31341D02*
X-41494D01*
X-45824Y12163D02*
X-45431Y12557D01*
X-48270Y12163D02*
X-45824D01*
X-81988Y16199D02*
X-78347Y12557D01*
X121161Y93659D02*
Y103895D01*
X140846Y123581D01*
X-66916Y-53303D02*
X-10321D01*
X-77165Y-43053D02*
X-66916Y-53303D01*
X-85197Y-43053D02*
X-77165D01*
X-10321Y-53303D02*
X-1280Y-62345D01*
X85039D01*
X-1339Y-65303D02*
X95323D01*
X-10301Y-56341D02*
X-1339Y-65303D01*
X-76776Y-68542D02*
Y-67322D01*
X-79429Y-64669D02*
X-76776Y-67322D01*
X-79429Y-64669D02*
Y-45809D01*
X-82382Y-65892D02*
Y-47482D01*
X-92323Y-50179D02*
X-85197Y-43053D01*
X128051Y288049D02*
X134744Y281356D01*
X130610Y237655D02*
Y276238D01*
X123622Y283226D02*
X130610Y276238D01*
X-132382Y276140D02*
X-120473Y288049D01*
X269310Y-86262D02*
X273720D01*
X100394Y-80553D02*
X110039D01*
X95644Y-85303D02*
X100394Y-80553D01*
X95323Y-85303D02*
X95644D01*
X142717Y-78388D02*
X150295Y-85967D01*
X114114Y-78388D02*
X142717D01*
X111030Y-75303D02*
X114114Y-78388D01*
X105323Y-75303D02*
X111030D01*
X122146Y-46695D02*
X154429D01*
X157283Y-43841D01*
X119699Y-41760D02*
X149161D01*
X111220Y-50238D02*
X119699Y-41760D01*
X84974Y-50238D02*
X111220D01*
X149161Y-41760D02*
X153984Y-36937D01*
X81839Y-53374D02*
X84974Y-50238D01*
X85776Y-39791D02*
X123965D01*
X157283Y-43841D02*
Y-21793D01*
X167717Y-11360D01*
X115500Y-75224D02*
X115697Y-75421D01*
X141339Y147596D02*
X158957D01*
X90059Y80864D02*
Y96317D01*
X105323Y84697D02*
X116437Y95811D01*
Y107537D01*
X134449Y125549D01*
X114272Y111081D02*
X132775Y129585D01*
X161909Y142872D02*
X162008D01*
X161122Y142085D02*
X161909Y142872D01*
X95323Y74697D02*
Y75600D01*
X90059Y80864D02*
X95323Y75600D01*
X158957Y147596D02*
X161122Y145431D01*
X105323Y94697D02*
X110728Y100102D01*
X-129429Y272006D02*
X-118209Y283226D01*
X-94461Y24697D02*
X-79480Y9717D01*
X-94677Y24697D02*
X-94461D01*
X277016Y-40677D02*
X277114D01*
X276524Y-41169D02*
X277016Y-40677D01*
X268657Y-33303D02*
X276524Y-41169D01*
X147472Y16803D02*
X147579Y16697D01*
X132724Y16803D02*
X147472D01*
X131642Y15721D02*
X132724Y16803D01*
X-94677Y-25303D02*
X-94264Y-25717D01*
X117469Y-7213D02*
X120421D01*
X147784Y26697D02*
X259323D01*
X147736Y26744D02*
X147784Y26697D01*
X133905Y26744D02*
X147736D01*
X147579Y16697D02*
X259323D01*
X105323Y-85303D02*
X108059D01*
X259323Y-33303D02*
X268657D01*
X115697Y-75421D02*
X150441D01*
X155323Y-80303D01*
X170047Y-75579D02*
Y-63335D01*
X165323Y-80303D02*
X170047Y-75579D01*
X162016Y-55303D02*
X170047Y-63335D01*
X105323Y-55303D02*
X162016D01*
X-99382Y79402D02*
X-94677Y74697D01*
X-123378Y79402D02*
X-99382D01*
X-126823Y75957D02*
X-123378Y79402D01*
X-127709Y75957D02*
X-126823D01*
X-99618Y89638D02*
X-94677Y84697D01*
X-117768Y89638D02*
X-99618D01*
X-122295Y85110D02*
X-117768Y89638D01*
X-123673Y85110D02*
X-122295D01*
X123965Y-39791D02*
X130453Y-33303D01*
X145323D01*
X153984Y-36937D02*
Y-26602D01*
X150685Y-23303D02*
X153984Y-26602D01*
X145323Y-23303D02*
X150685D01*
X105323Y4697D02*
X116779D01*
X134780Y-13303D01*
X145323D01*
X143295Y41902D02*
X143366Y41972D01*
X135579Y41902D02*
X143295D01*
X108374Y14697D02*
X135579Y41902D01*
X145323Y56697D02*
X151031Y50988D01*
Y45724D02*
Y50988D01*
X147280Y41972D02*
X151031Y45724D01*
X105323Y14697D02*
X108374D01*
X143366Y41972D02*
X147280D01*
X95323Y34697D02*
X100323Y29697D01*
X109398D01*
X126398Y46697D01*
X145323D01*
X137165Y36697D02*
X145323D01*
X110146Y9677D02*
X137165Y36697D01*
X100343Y9677D02*
X110146D01*
X95323Y14697D02*
X100343Y9677D01*
X105323Y34697D02*
Y34776D01*
X137244Y66697D01*
X145323D01*
X-142177Y44697D02*
X-140366Y42886D01*
X-128988Y-71681D02*
X-121606D01*
D79*
X88878Y-114839D02*
X93382Y-110335D01*
X99878D02*
X104909Y-105303D01*
X93382Y-110335D02*
X99878D01*
X80512Y-163756D02*
Y-157972D01*
X6299Y-167913D02*
X20809Y-182423D01*
X6299Y-161024D02*
X7087D01*
X6299Y-167913D02*
Y-161024D01*
X61844Y-182423D02*
X80512Y-163756D01*
X-57284Y-218307D02*
Y-213132D01*
X-21191Y-177040D01*
Y-151337D01*
X-207423Y-138132D02*
X-190410Y-155146D01*
X-100746Y-233957D02*
X-65748Y-198959D01*
X-106988Y-233957D02*
X-100746D01*
X-65748Y-198959D02*
X-47174D01*
X-102559Y-218209D02*
X-99944D01*
X-93223Y-211488D01*
X-165847Y-246555D02*
X-157636D01*
X-149752Y-238671D01*
X-117873D01*
X-89862Y-210661D02*
Y-207423D01*
X-117873Y-238671D02*
X-89862Y-210661D01*
X-93223Y-211488D02*
Y-207902D01*
X-25177Y-174429D02*
Y-173519D01*
X-47443Y-196695D02*
X-25177Y-174429D01*
X-29039Y-148555D02*
X-25177Y-152417D01*
X-25149Y-173491D02*
Y-153932D01*
X-25177Y-153904D02*
Y-152417D01*
Y-173519D02*
X-25149Y-173491D01*
X-25177Y-153904D02*
X-25149Y-153932D01*
X-28732Y-170604D02*
Y-155416D01*
X-50394Y-192266D02*
X-28732Y-170604D01*
X-31725Y-150435D02*
X-31179D01*
X-26941Y-154674D01*
Y-172748D02*
Y-154674D01*
X-48919Y-194727D02*
X-26941Y-172748D01*
X-31303Y-152845D02*
X-28732Y-155416D01*
X-32293Y-152845D02*
X-31303D01*
X-34286Y-156602D02*
X-31596D01*
X-49606Y-141282D02*
X-34286Y-156602D01*
X-79134Y-196695D02*
X-47443D01*
X-23159Y-174945D02*
Y-151901D01*
X-27555Y-144973D02*
X-21191Y-151337D01*
X-47174Y-198959D02*
X-23159Y-174945D01*
X-28297Y-146764D02*
X-23159Y-151901D01*
X-30947Y-148555D02*
X-29039D01*
X-29954Y-146764D02*
X-28297D01*
X-28962Y-144973D02*
X-27555D01*
X-44685Y-140453D02*
Y-114468D01*
Y-140453D02*
X-32293Y-152845D01*
X-51873Y-103137D02*
X-51282Y-103728D01*
X-42352Y-117138D02*
Y-112970D01*
X-51282Y-104040D02*
X-42352Y-112970D01*
X-51873Y-103137D02*
Y-102817D01*
X-51282Y-104040D02*
Y-103728D01*
X-55416Y-103334D02*
Y-103014D01*
Y-103334D02*
X-54871Y-103879D01*
Y-104283D02*
Y-103879D01*
Y-104283D02*
X-44685Y-114468D01*
X-98721Y-208465D02*
X-82522Y-192266D01*
X-98721Y-212935D02*
Y-208465D01*
X-82522Y-192266D02*
X-50394D01*
X-42264Y-139897D02*
X-31725Y-150435D01*
X-40384Y-139118D02*
X-30947Y-148555D01*
X-38415Y-138303D02*
X-29954Y-146764D01*
X-36447Y-137487D02*
X-28962Y-144973D01*
X-40384Y-139118D02*
Y-118447D01*
X-42264Y-139897D02*
Y-117227D01*
X107571Y274410D02*
X107858Y274697D01*
X115323D01*
X107776Y264862D02*
X107941Y264697D01*
X115323D01*
X-190410Y-155146D02*
X-145065D01*
X-38415Y-138303D02*
Y-109756D01*
X-44786Y-103386D02*
X-38415Y-109756D01*
X-44786Y-103386D02*
Y-102817D01*
X-89862Y-207423D02*
X-79134Y-196695D01*
X-48329Y-103450D02*
X-40384Y-111395D01*
Y-116323D02*
Y-111395D01*
Y-116323D02*
X-40295Y-116411D01*
Y-118447D02*
Y-116411D01*
X-48329Y-103450D02*
Y-102817D01*
X-131004Y-141282D02*
X-127709D01*
X-131102Y-141183D02*
X-131004Y-141282D01*
X-145065Y-155146D02*
X-131102Y-141183D01*
X-66536Y-141282D02*
X-49606D01*
X88878Y-134097D02*
Y-114839D01*
X-42352Y-117138D02*
X-42264Y-117227D01*
X-36447Y-137487D02*
Y-108026D01*
X-41242Y-103231D02*
X-36447Y-108026D01*
X-41242Y-103231D02*
Y-102719D01*
X-93223Y-207902D02*
X-80048Y-194727D01*
X-48919D01*
X20809Y-182423D02*
X61844Y-182423D01*
X158236Y-63217D02*
X165323Y-70303D01*
X109890Y-63217D02*
X158236D01*
X107803Y-65303D02*
X109890Y-63217D01*
X105323Y-65303D02*
X107803D01*
X95323Y-55303D02*
X100146Y-60126D01*
Y-68138D02*
Y-60126D01*
Y-68138D02*
X102311Y-70303D01*
X155323D01*
X104909Y-105303D02*
X105323D01*
D80*
X31791Y-157409D02*
X32691Y-158309D01*
X49508D01*
X54823Y-152994D01*
Y-145303D01*
D81*
X95323Y104697D02*
D03*
X105323D02*
D03*
X95323Y94697D02*
D03*
X105323D02*
D03*
X95323Y84697D02*
D03*
X105323D02*
D03*
X95323Y74697D02*
D03*
X105323D02*
D03*
X95323Y64697D02*
D03*
X105323D02*
D03*
X95323Y54697D02*
D03*
X105323D02*
D03*
X95323Y44697D02*
D03*
X105323D02*
D03*
X95323Y34697D02*
D03*
X105323D02*
D03*
X95323Y24697D02*
D03*
X105323D02*
D03*
X95323Y14697D02*
D03*
X105323D02*
D03*
X95323Y4697D02*
D03*
X105323D02*
D03*
X95323Y-5303D02*
D03*
X105323D02*
D03*
X95323Y-15303D02*
D03*
X105323D02*
D03*
X95323Y-25303D02*
D03*
X105323D02*
D03*
X95323Y-35303D02*
D03*
X105323D02*
D03*
X95323Y-45303D02*
D03*
X105323D02*
D03*
X95323Y-55303D02*
D03*
X105323D02*
D03*
X95323Y-65303D02*
D03*
X105323D02*
D03*
X95323Y-75303D02*
D03*
X105323D02*
D03*
X95323Y-85303D02*
D03*
X105323D02*
D03*
X95323Y-95303D02*
D03*
X105323D02*
D03*
X95323Y-105303D02*
D03*
X105323D02*
D03*
X95323Y-115303D02*
D03*
X105323D02*
D03*
X95323Y-125303D02*
D03*
X105323D02*
D03*
X95323Y-135303D02*
D03*
X-104677Y104697D02*
D03*
X-94677D02*
D03*
X-104677Y94697D02*
D03*
X-94677D02*
D03*
X-104677Y84697D02*
D03*
X-94677D02*
D03*
X-104677Y74697D02*
D03*
X-94677D02*
D03*
X-104677Y64697D02*
D03*
X-94677D02*
D03*
X-104677Y54697D02*
D03*
X-94677D02*
D03*
X-104677Y44697D02*
D03*
X-94677D02*
D03*
X-104677Y34697D02*
D03*
X-94677D02*
D03*
X-104677Y24697D02*
D03*
X-94677D02*
D03*
X-104677Y14697D02*
D03*
X-94677D02*
D03*
X-104677Y4697D02*
D03*
X-94677D02*
D03*
X-104677Y-5303D02*
D03*
X-94677D02*
D03*
X-104677Y-15303D02*
D03*
X-94677D02*
D03*
X-104677Y-25303D02*
D03*
X-94677D02*
D03*
X-104677Y-35303D02*
D03*
X-94677D02*
D03*
X-104677Y-45303D02*
D03*
X-94677D02*
D03*
X-104677Y-55303D02*
D03*
X-94677D02*
D03*
X-104677Y-65303D02*
D03*
X-94677D02*
D03*
X-104677Y-75303D02*
D03*
X-94677D02*
D03*
X-104677Y-85303D02*
D03*
X-94677D02*
D03*
X-104677Y-95303D02*
D03*
X-94677D02*
D03*
X-104677Y-105303D02*
D03*
X-94677D02*
D03*
X-104677Y-115303D02*
D03*
X-94677D02*
D03*
X-104677Y-125303D02*
D03*
X-94677D02*
D03*
X-104677Y-135303D02*
D03*
D82*
X105323D02*
D03*
X-94677D02*
D03*
D83*
X-14429Y-257913D02*
D03*
X5571D02*
D03*
X-4429Y-267913D02*
D03*
X-59016Y-257913D02*
D03*
X-39016D02*
D03*
X-49016Y-267913D02*
D03*
D84*
X-92559Y-243307D02*
D03*
X-102559D02*
D03*
X-112559D02*
D03*
X-152480Y272764D02*
D03*
X217711Y222711D02*
D03*
X115323Y174697D02*
D03*
Y184697D02*
D03*
Y194697D02*
D03*
Y204697D02*
D03*
Y214697D02*
D03*
Y224697D02*
D03*
Y234697D02*
D03*
Y244697D02*
D03*
Y254697D02*
D03*
Y264697D02*
D03*
Y274697D02*
D03*
X155323Y-80303D02*
D03*
X165323D02*
D03*
X175323D02*
D03*
Y-70303D02*
D03*
X165323D02*
D03*
X155323D02*
D03*
X-234646Y90335D02*
D03*
Y80335D02*
D03*
Y70335D02*
D03*
X145323Y-13303D02*
D03*
Y-23303D02*
D03*
Y-33303D02*
D03*
X-44390Y-221772D02*
D03*
Y-231772D02*
D03*
X-114677Y174697D02*
D03*
Y184697D02*
D03*
Y194697D02*
D03*
Y204697D02*
D03*
Y214697D02*
D03*
Y224697D02*
D03*
Y234697D02*
D03*
Y244697D02*
D03*
Y254697D02*
D03*
Y264697D02*
D03*
Y274697D02*
D03*
X237823Y-23303D02*
D03*
Y-13303D02*
D03*
Y-3303D02*
D03*
X-235169Y-50047D02*
D03*
Y-40047D02*
D03*
Y-30047D02*
D03*
X-142669Y-20047D02*
D03*
Y-30047D02*
D03*
Y-40047D02*
D03*
X237823Y46697D02*
D03*
Y56697D02*
D03*
Y66697D02*
D03*
X145323Y56697D02*
D03*
Y46697D02*
D03*
Y36697D02*
D03*
X-234480Y-115224D02*
D03*
Y-105224D02*
D03*
Y-95224D02*
D03*
X-141980Y-85224D02*
D03*
Y-95224D02*
D03*
Y-105224D02*
D03*
X-254725Y70379D02*
D03*
Y60379D02*
D03*
X-14665Y-221772D02*
D03*
Y-231772D02*
D03*
X-142146Y90335D02*
D03*
Y80335D02*
D03*
Y70335D02*
D03*
X175654Y258001D02*
D03*
X-175654Y258001D02*
D03*
X152480Y272764D02*
D03*
X-217711Y222711D02*
D03*
X236274Y202453D02*
D03*
X-236274Y202453D02*
D03*
D85*
X-122559Y-243307D02*
D03*
X-162480Y272764D02*
D03*
X227711Y222711D02*
D03*
X185323Y-80303D02*
D03*
Y-70303D02*
D03*
X185654Y258001D02*
D03*
X-185654Y258001D02*
D03*
X162480Y272764D02*
D03*
X-227711Y222711D02*
D03*
X246274Y202453D02*
D03*
X-246274Y202453D02*
D03*
D86*
X115323Y164697D02*
D03*
X-234646Y60335D02*
D03*
X145323Y-3303D02*
D03*
X-114677Y164697D02*
D03*
X237823Y-33303D02*
D03*
X-235169Y-20047D02*
D03*
X-142669Y-50047D02*
D03*
X237823Y36697D02*
D03*
X145323Y66697D02*
D03*
X-234480Y-85224D02*
D03*
X-141980Y-115224D02*
D03*
X-142146Y60335D02*
D03*
D87*
X36024Y-259547D02*
D03*
X54528D02*
D03*
X73032D02*
D03*
D88*
X147953Y-255807D02*
D03*
X119764Y-255807D02*
D03*
X-189799Y226194D02*
D03*
X189799D02*
D03*
X208791Y-208791D02*
D03*
X-208791D02*
D03*
D89*
X-256299Y-115630D02*
D03*
Y-105630D02*
D03*
Y-95630D02*
D03*
Y-85630D02*
D03*
Y-75630D02*
D03*
Y-65630D02*
D03*
X259744Y16809D02*
D03*
Y26809D02*
D03*
Y36809D02*
D03*
Y46809D02*
D03*
Y56809D02*
D03*
Y66809D02*
D03*
X258563Y-53014D02*
D03*
Y-43014D02*
D03*
Y-33014D02*
D03*
Y-23014D02*
D03*
Y-13014D02*
D03*
Y-3014D02*
D03*
X-253839Y-50413D02*
D03*
Y-40413D02*
D03*
Y-30413D02*
D03*
Y-20413D02*
D03*
Y-10413D02*
D03*
Y-413D02*
D03*
D90*
X255716Y147638D02*
D03*
Y-147638D02*
D03*
X-255716Y-147638D02*
D03*
Y147638D02*
D03*
D91*
X291357Y12268D02*
D03*
Y-11355D02*
D03*
Y-34977D02*
D03*
Y-82221D02*
D03*
Y-58599D02*
D03*
Y-105843D02*
D03*
X308849Y71323D02*
D03*
X320838D02*
D03*
X314933Y12268D02*
D03*
X320838Y457D02*
D03*
X314933Y-11355D02*
D03*
X320838Y-23166D02*
D03*
X314933Y-34977D02*
D03*
X320838Y-46788D02*
D03*
X314933Y-58599D02*
D03*
X320838Y-70410D02*
D03*
X314933Y-82221D02*
D03*
X303122Y130378D02*
D03*
Y106756D02*
D03*
Y83134D02*
D03*
Y59512D02*
D03*
X309027Y47701D02*
D03*
X303122Y35890D02*
D03*
Y12268D02*
D03*
X309027Y457D02*
D03*
X303122Y-11355D02*
D03*
X309027Y-23166D02*
D03*
X303122Y-34977D02*
D03*
X309027Y-46788D02*
D03*
X303122Y-58599D02*
D03*
X309027Y-70410D02*
D03*
X303122Y-82221D02*
D03*
X309027Y-94032D02*
D03*
X303122Y-105843D02*
D03*
Y-129465D02*
D03*
X291311Y154000D02*
D03*
X297216Y142189D02*
D03*
X291311Y130378D02*
D03*
X297216Y118567D02*
D03*
X291311Y106756D02*
D03*
Y83134D02*
D03*
X297216Y71323D02*
D03*
X291311Y59512D02*
D03*
X297216Y47701D02*
D03*
X291311Y35890D02*
D03*
X297216Y457D02*
D03*
Y-23166D02*
D03*
Y-46788D02*
D03*
Y-70410D02*
D03*
Y-94032D02*
D03*
Y-117654D02*
D03*
X291311Y-129465D02*
D03*
X297216Y-141276D02*
D03*
X291311Y-153087D02*
D03*
X285405Y165811D02*
D03*
X279500Y154000D02*
D03*
X285405Y142189D02*
D03*
X279500Y130378D02*
D03*
X285405Y118567D02*
D03*
X279500Y106756D02*
D03*
X285405Y71323D02*
D03*
X279500Y59512D02*
D03*
X285405Y47701D02*
D03*
X279500Y35890D02*
D03*
Y-129465D02*
D03*
X285405Y-141276D02*
D03*
X279500Y-153087D02*
D03*
X285405Y-164898D02*
D03*
X267689Y177622D02*
D03*
X273594Y165811D02*
D03*
Y142189D02*
D03*
X267689Y130378D02*
D03*
X273594Y118567D02*
D03*
X267689Y106756D02*
D03*
Y83134D02*
D03*
X273594Y71323D02*
D03*
Y47701D02*
D03*
Y24079D02*
D03*
X267689Y12268D02*
D03*
X273594Y-94032D02*
D03*
X267689Y-105843D02*
D03*
Y-129465D02*
D03*
X273594Y-141276D02*
D03*
Y-164898D02*
D03*
X267689Y-176709D02*
D03*
X255878Y201244D02*
D03*
X261783Y189433D02*
D03*
X255878Y177622D02*
D03*
X261783Y165811D02*
D03*
Y118567D02*
D03*
X255878Y106756D02*
D03*
Y83134D02*
D03*
Y12268D02*
D03*
X261783Y-46788D02*
D03*
X255878Y-58599D02*
D03*
X261783Y-70410D02*
D03*
Y-94032D02*
D03*
X255878Y-105843D02*
D03*
Y-129465D02*
D03*
X261783Y-164898D02*
D03*
X255878Y-176709D02*
D03*
X261783Y-188520D02*
D03*
X255878Y-200331D02*
D03*
X249972Y213055D02*
D03*
Y189433D02*
D03*
X244067Y177622D02*
D03*
X249972Y165811D02*
D03*
X244067Y130378D02*
D03*
X249972Y118567D02*
D03*
X244067Y106756D02*
D03*
Y83134D02*
D03*
X249972Y47701D02*
D03*
X244067Y35890D02*
D03*
Y12268D02*
D03*
X249972Y-23166D02*
D03*
X244067Y-34977D02*
D03*
X249972Y-46788D02*
D03*
X244067Y-58599D02*
D03*
X249972Y-70410D02*
D03*
Y-94032D02*
D03*
X244067Y-105843D02*
D03*
Y-129465D02*
D03*
X249972Y-164898D02*
D03*
X244067Y-176709D02*
D03*
X249972Y-188520D02*
D03*
X244067Y-200331D02*
D03*
X249972Y-212142D02*
D03*
X238161Y213055D02*
D03*
Y189433D02*
D03*
X232256Y177622D02*
D03*
X238161Y165811D02*
D03*
X232256Y154000D02*
D03*
X238161Y142189D02*
D03*
X232256Y130378D02*
D03*
X238161Y118567D02*
D03*
X232256Y83134D02*
D03*
Y12268D02*
D03*
X238161Y-46788D02*
D03*
X232256Y-58599D02*
D03*
X238161Y-70410D02*
D03*
X232256Y-82221D02*
D03*
X238161Y-94032D02*
D03*
X232256Y-105843D02*
D03*
Y-129465D02*
D03*
X238161Y-141276D02*
D03*
X232256Y-153087D02*
D03*
X238161Y-164898D02*
D03*
X232256Y-176709D02*
D03*
X238161Y-188520D02*
D03*
X232256Y-200331D02*
D03*
X238161Y-212142D02*
D03*
X232256Y-223953D02*
D03*
X226350Y236677D02*
D03*
Y213055D02*
D03*
Y189433D02*
D03*
Y142189D02*
D03*
X220445Y130378D02*
D03*
X226350Y118567D02*
D03*
Y71323D02*
D03*
Y457D02*
D03*
Y-46788D02*
D03*
X220445Y-58599D02*
D03*
X226350Y-70410D02*
D03*
Y-94032D02*
D03*
X220445Y-105843D02*
D03*
Y-129465D02*
D03*
X226350Y-141276D02*
D03*
X220445Y-153087D02*
D03*
X226350Y-164898D02*
D03*
X220445Y-176709D02*
D03*
X226350Y-188520D02*
D03*
X220445Y-200331D02*
D03*
X226350Y-212142D02*
D03*
X220445Y-223953D02*
D03*
X226350Y-235764D02*
D03*
X208634Y248488D02*
D03*
X214539Y236677D02*
D03*
X208634Y224866D02*
D03*
X214539Y213055D02*
D03*
Y189433D02*
D03*
X208634Y177622D02*
D03*
Y154000D02*
D03*
X214539Y142189D02*
D03*
X208634Y130378D02*
D03*
X214539Y118567D02*
D03*
X208634Y106756D02*
D03*
Y12268D02*
D03*
X214539Y-94032D02*
D03*
X208634Y-105843D02*
D03*
Y-129465D02*
D03*
X214539Y-141276D02*
D03*
X208634Y-153087D02*
D03*
X214539Y-164898D02*
D03*
X208634Y-176709D02*
D03*
X214539Y-188520D02*
D03*
X208634Y-223953D02*
D03*
X214539Y-235764D02*
D03*
X208634Y-247575D02*
D03*
X202728Y260299D02*
D03*
X196823Y248488D02*
D03*
X202728Y236677D02*
D03*
Y213055D02*
D03*
Y189433D02*
D03*
Y142189D02*
D03*
X196823Y130378D02*
D03*
X202728Y118567D02*
D03*
Y-94032D02*
D03*
X196823Y-129465D02*
D03*
X202728Y-141276D02*
D03*
X196823Y-153087D02*
D03*
X202728Y-164898D02*
D03*
X196823Y-176709D02*
D03*
X202728Y-188520D02*
D03*
X196823Y-200331D02*
D03*
Y-223953D02*
D03*
X202728Y-235764D02*
D03*
X196823Y-247575D02*
D03*
X202728Y-259386D02*
D03*
X185012Y272110D02*
D03*
Y248488D02*
D03*
X190917Y189433D02*
D03*
X185012Y154000D02*
D03*
X190917Y142189D02*
D03*
Y118567D02*
D03*
Y-70410D02*
D03*
X185012Y-129465D02*
D03*
X190917Y-141276D02*
D03*
X185012Y-153087D02*
D03*
X190917Y-164898D02*
D03*
X185012Y-176709D02*
D03*
X190917Y-188520D02*
D03*
X185012Y-200331D02*
D03*
X190917Y-212142D02*
D03*
X185012Y-223953D02*
D03*
X190917Y-235764D02*
D03*
X185012Y-247575D02*
D03*
X190917Y-259386D02*
D03*
X185012Y-271197D02*
D03*
X173201Y272110D02*
D03*
X179106Y236677D02*
D03*
X173201Y224866D02*
D03*
X179106Y213055D02*
D03*
X173201Y177622D02*
D03*
Y154000D02*
D03*
X179106Y142189D02*
D03*
X173201Y130378D02*
D03*
X179106Y118567D02*
D03*
X173201Y-129465D02*
D03*
X179106Y-141276D02*
D03*
X173201Y-153087D02*
D03*
X179106Y-164898D02*
D03*
X173201Y-176709D02*
D03*
X179106Y-188520D02*
D03*
X173201Y-200331D02*
D03*
X179106Y-212142D02*
D03*
X173201Y-223953D02*
D03*
X179106Y-235764D02*
D03*
X173201Y-247575D02*
D03*
X179106Y-259386D02*
D03*
X173201Y-271197D02*
D03*
X167295Y283921D02*
D03*
Y260299D02*
D03*
X161390Y248488D02*
D03*
X167295Y236677D02*
D03*
X161390Y224866D02*
D03*
X167295Y165811D02*
D03*
Y142189D02*
D03*
Y118567D02*
D03*
Y-94032D02*
D03*
X161390Y-105843D02*
D03*
X167295Y-117654D02*
D03*
X161390Y-129465D02*
D03*
X167295Y-141276D02*
D03*
X161390Y-153087D02*
D03*
X167295Y-164898D02*
D03*
X161390Y-176709D02*
D03*
X167295Y-188520D02*
D03*
X161390Y-200331D02*
D03*
X167295Y-212142D02*
D03*
X161390Y-223953D02*
D03*
X167295Y-235764D02*
D03*
X161390Y-247575D02*
D03*
X167295Y-259386D02*
D03*
X161390Y-271197D02*
D03*
X155484Y283921D02*
D03*
Y260299D02*
D03*
X149578Y248488D02*
D03*
X155484Y189433D02*
D03*
Y165811D02*
D03*
Y142189D02*
D03*
Y118567D02*
D03*
X149578Y106756D02*
D03*
Y83134D02*
D03*
Y12268D02*
D03*
X155484Y-94032D02*
D03*
X149578Y-105843D02*
D03*
X155484Y-117654D02*
D03*
X149578Y-129465D02*
D03*
X155484Y-141276D02*
D03*
X149578Y-153087D02*
D03*
X155484Y-164898D02*
D03*
X149578Y-176709D02*
D03*
X155484Y-188520D02*
D03*
X149578Y-200331D02*
D03*
X155484Y-212142D02*
D03*
X149578Y-223953D02*
D03*
X155484Y-235764D02*
D03*
X149578Y-271197D02*
D03*
X137768Y295732D02*
D03*
Y201244D02*
D03*
Y177622D02*
D03*
Y154000D02*
D03*
X143673Y118567D02*
D03*
X137768Y106756D02*
D03*
Y59512D02*
D03*
Y12268D02*
D03*
Y-200331D02*
D03*
X143673Y-212142D02*
D03*
X137768Y-223953D02*
D03*
X143673Y-235764D02*
D03*
X137768Y-271197D02*
D03*
X125956Y272110D02*
D03*
Y224866D02*
D03*
X131862Y213055D02*
D03*
X125956Y201244D02*
D03*
X131862Y189433D02*
D03*
X125956Y177622D02*
D03*
X131862Y165811D02*
D03*
X125956Y154000D02*
D03*
X131862Y94945D02*
D03*
Y71323D02*
D03*
X125956Y12268D02*
D03*
X131862Y-212142D02*
D03*
X125956Y-223953D02*
D03*
X131862Y-235764D02*
D03*
X120051Y260299D02*
D03*
Y189433D02*
D03*
X114145Y154000D02*
D03*
X120051Y142189D02*
D03*
X114145Y130378D02*
D03*
Y-105843D02*
D03*
Y-129465D02*
D03*
Y-153087D02*
D03*
X108240Y260299D02*
D03*
X102334Y248488D02*
D03*
X108240Y236677D02*
D03*
X102334Y224866D02*
D03*
X108240Y213055D02*
D03*
X102334Y201244D02*
D03*
X108240Y189433D02*
D03*
X102334Y177622D02*
D03*
X108240Y165811D02*
D03*
X102334Y154000D02*
D03*
X108240Y142189D02*
D03*
X102334Y130378D02*
D03*
X108240Y-141276D02*
D03*
X102334Y-153087D02*
D03*
X90523Y295732D02*
D03*
X96429Y236677D02*
D03*
X90523Y224866D02*
D03*
X96429Y213055D02*
D03*
X90523Y201244D02*
D03*
X96429Y189433D02*
D03*
X90523Y177622D02*
D03*
X96429Y165811D02*
D03*
X90523Y154000D02*
D03*
X96429Y142189D02*
D03*
X90523Y130378D02*
D03*
X96429Y118567D02*
D03*
X90523Y106756D02*
D03*
Y12268D02*
D03*
Y-58599D02*
D03*
Y-82221D02*
D03*
X96429Y-141276D02*
D03*
X90523Y-153087D02*
D03*
X84618Y283921D02*
D03*
Y47701D02*
D03*
X78712Y35890D02*
D03*
X84618Y-23166D02*
D03*
Y-46788D02*
D03*
X78712Y-82221D02*
D03*
X84618Y-94032D02*
D03*
X78712Y-129465D02*
D03*
X84618Y-141276D02*
D03*
X78712Y-153087D02*
D03*
Y-223953D02*
D03*
X84618Y-259386D02*
D03*
X78712Y-271197D02*
D03*
X72807Y283921D02*
D03*
X66901Y272110D02*
D03*
X72807Y236677D02*
D03*
X66901Y224866D02*
D03*
X72807Y213055D02*
D03*
X66901Y201244D02*
D03*
X72807Y189433D02*
D03*
X66901Y177622D02*
D03*
X72807Y165811D02*
D03*
X66901Y154000D02*
D03*
X72807Y142189D02*
D03*
X66901Y130378D02*
D03*
X72807Y118567D02*
D03*
X66901Y106756D02*
D03*
X72807Y94945D02*
D03*
X66901Y35890D02*
D03*
Y12268D02*
D03*
X72807Y-23166D02*
D03*
X66901Y-34977D02*
D03*
X72807Y-46788D02*
D03*
X66901Y-58599D02*
D03*
X72807Y-70410D02*
D03*
X66901Y-82221D02*
D03*
X72807Y-94032D02*
D03*
Y-141276D02*
D03*
X66901Y-153087D02*
D03*
Y-223953D02*
D03*
Y-247575D02*
D03*
Y-271197D02*
D03*
X60996Y260299D02*
D03*
Y213055D02*
D03*
X55090Y201244D02*
D03*
X60996Y189433D02*
D03*
X55090Y177622D02*
D03*
X60996Y165811D02*
D03*
X55090Y154000D02*
D03*
X60996Y142189D02*
D03*
X55090Y130378D02*
D03*
Y106756D02*
D03*
Y83134D02*
D03*
X60996Y71323D02*
D03*
Y47701D02*
D03*
X55090Y35890D02*
D03*
X60996Y24079D02*
D03*
X55090Y12268D02*
D03*
X60996Y-23166D02*
D03*
X55090Y-34977D02*
D03*
X60996Y-46788D02*
D03*
X55090Y-58599D02*
D03*
X60996Y-70410D02*
D03*
X55090Y-82221D02*
D03*
X60996Y-94032D02*
D03*
X55090Y-105843D02*
D03*
Y-223953D02*
D03*
X60996Y-235764D02*
D03*
X55090Y-247575D02*
D03*
Y-271197D02*
D03*
X49185Y260299D02*
D03*
X43279Y248488D02*
D03*
X49185Y213055D02*
D03*
X43279Y201244D02*
D03*
X49185Y189433D02*
D03*
X43279Y177622D02*
D03*
X49185Y165811D02*
D03*
X43279Y154000D02*
D03*
X49185Y142189D02*
D03*
X43279Y130378D02*
D03*
X49185Y118567D02*
D03*
X43279Y83134D02*
D03*
X49185Y71323D02*
D03*
X43279Y35890D02*
D03*
X49185Y24079D02*
D03*
X43279Y12268D02*
D03*
X49185Y-23166D02*
D03*
Y-46788D02*
D03*
X43279Y-58599D02*
D03*
X49185Y-70410D02*
D03*
X43279Y-82221D02*
D03*
X49185Y-94032D02*
D03*
X43279Y-105843D02*
D03*
Y-153087D02*
D03*
Y-223953D02*
D03*
X49185Y-235764D02*
D03*
X43279Y-247575D02*
D03*
Y-271197D02*
D03*
X31468Y248488D02*
D03*
X37374Y236677D02*
D03*
Y213055D02*
D03*
Y189433D02*
D03*
Y165811D02*
D03*
X31468Y130378D02*
D03*
Y106756D02*
D03*
X37374Y94945D02*
D03*
X31468Y83134D02*
D03*
X37374Y47701D02*
D03*
X31468Y35890D02*
D03*
X37374Y24079D02*
D03*
X31468Y12268D02*
D03*
X37374Y457D02*
D03*
X31468Y-11355D02*
D03*
X37374Y-23166D02*
D03*
Y-46788D02*
D03*
X31468Y-58599D02*
D03*
X37374Y-70410D02*
D03*
X31468Y-82221D02*
D03*
X37374Y-94032D02*
D03*
X31468Y-105843D02*
D03*
X37374Y-235764D02*
D03*
X31468Y-247575D02*
D03*
Y-271197D02*
D03*
X19657Y248488D02*
D03*
X25563Y236677D02*
D03*
Y142189D02*
D03*
X19657Y106756D02*
D03*
X25563Y94945D02*
D03*
X19657Y83134D02*
D03*
X25563Y71323D02*
D03*
Y47701D02*
D03*
X19657Y35890D02*
D03*
X25563Y24079D02*
D03*
X19657Y12268D02*
D03*
Y-11355D02*
D03*
X25563Y-23166D02*
D03*
Y-46788D02*
D03*
X19657Y-58599D02*
D03*
X25563Y-70410D02*
D03*
X19657Y-82221D02*
D03*
X25563Y-94032D02*
D03*
X19657Y-105843D02*
D03*
Y-223953D02*
D03*
X25563Y-235764D02*
D03*
X19657Y-247575D02*
D03*
X25563Y-259386D02*
D03*
X19657Y-271197D02*
D03*
X7846Y248488D02*
D03*
X13752Y236677D02*
D03*
X7846Y130378D02*
D03*
X13752Y118567D02*
D03*
X7846Y106756D02*
D03*
Y83134D02*
D03*
X13752Y71323D02*
D03*
Y47701D02*
D03*
X7846Y35890D02*
D03*
X13752Y24079D02*
D03*
X7846Y12268D02*
D03*
X13752Y-23166D02*
D03*
Y-46788D02*
D03*
X7846Y-58599D02*
D03*
X13752Y-70410D02*
D03*
X7846Y-82221D02*
D03*
X13752Y-94032D02*
D03*
X7846Y-105843D02*
D03*
Y-129465D02*
D03*
Y-223953D02*
D03*
X13752Y-235764D02*
D03*
X7846Y-247575D02*
D03*
X13752Y-259386D02*
D03*
X7846Y-271197D02*
D03*
X-3965Y248488D02*
D03*
X1941Y236677D02*
D03*
X-3965Y130378D02*
D03*
X1941Y118567D02*
D03*
X-3965Y106756D02*
D03*
X1941Y94945D02*
D03*
X-3965Y83134D02*
D03*
X1941Y71323D02*
D03*
Y47701D02*
D03*
X-3965Y35890D02*
D03*
X1941Y24079D02*
D03*
Y457D02*
D03*
Y-23166D02*
D03*
Y-46788D02*
D03*
Y-70410D02*
D03*
X-3965Y-82221D02*
D03*
X1941Y-94032D02*
D03*
X-3965Y-105843D02*
D03*
Y-223953D02*
D03*
Y-247575D02*
D03*
X-15776Y248488D02*
D03*
X-9870Y236677D02*
D03*
Y142189D02*
D03*
X-15776Y130378D02*
D03*
Y106756D02*
D03*
X-9870Y94945D02*
D03*
X-15776Y83134D02*
D03*
X-9870Y71323D02*
D03*
Y47701D02*
D03*
X-15776Y35890D02*
D03*
X-9870Y24079D02*
D03*
Y-23166D02*
D03*
Y-46788D02*
D03*
Y-70410D02*
D03*
X-15776Y-82221D02*
D03*
X-9870Y-94032D02*
D03*
X-15776Y-105843D02*
D03*
Y-153087D02*
D03*
X-9870Y-235764D02*
D03*
X-15776Y-247575D02*
D03*
X-9870Y-259386D02*
D03*
X-15776Y-271197D02*
D03*
X-27587Y248488D02*
D03*
X-21681Y236677D02*
D03*
Y142189D02*
D03*
X-27587Y130378D02*
D03*
X-21681Y118567D02*
D03*
X-27587Y106756D02*
D03*
X-21681Y94945D02*
D03*
X-27587Y83134D02*
D03*
X-21681Y71323D02*
D03*
Y47701D02*
D03*
X-27587Y35890D02*
D03*
X-21681Y24079D02*
D03*
Y-23166D02*
D03*
Y-46788D02*
D03*
Y-70410D02*
D03*
X-27587Y-82221D02*
D03*
X-21681Y-94032D02*
D03*
X-27587Y-105843D02*
D03*
X-21681Y-141276D02*
D03*
X-27587Y-223953D02*
D03*
X-21681Y-235764D02*
D03*
X-27587Y-247575D02*
D03*
X-21681Y-259386D02*
D03*
X-27587Y-271197D02*
D03*
X-39398Y248488D02*
D03*
X-33492Y236677D02*
D03*
Y213055D02*
D03*
X-39398Y201244D02*
D03*
X-33492Y189433D02*
D03*
X-39398Y177622D02*
D03*
X-33492Y165811D02*
D03*
X-39398Y154000D02*
D03*
X-33492Y118567D02*
D03*
X-39398Y106756D02*
D03*
X-33492Y94945D02*
D03*
X-39398Y83134D02*
D03*
X-33492Y71323D02*
D03*
Y47701D02*
D03*
X-39398Y35890D02*
D03*
X-33492Y24079D02*
D03*
Y457D02*
D03*
Y-23166D02*
D03*
Y-46788D02*
D03*
Y-70410D02*
D03*
X-39398Y-82221D02*
D03*
X-33492Y-94032D02*
D03*
X-39398Y-223953D02*
D03*
X-33492Y-235764D02*
D03*
X-39398Y-247575D02*
D03*
X-33492Y-259386D02*
D03*
X-39398Y-271197D02*
D03*
X-51209Y248488D02*
D03*
X-45303Y213055D02*
D03*
X-51209Y201244D02*
D03*
X-45303Y189433D02*
D03*
X-51209Y177622D02*
D03*
X-45303Y165811D02*
D03*
X-51209Y154000D02*
D03*
X-45303Y142189D02*
D03*
Y118567D02*
D03*
X-51209Y106756D02*
D03*
X-45303Y94945D02*
D03*
X-51209Y83134D02*
D03*
X-45303Y71323D02*
D03*
Y47701D02*
D03*
X-51209Y35890D02*
D03*
X-45303Y24079D02*
D03*
Y457D02*
D03*
X-51209Y-11355D02*
D03*
Y-58599D02*
D03*
Y-223953D02*
D03*
X-45303Y-259386D02*
D03*
X-63020Y272110D02*
D03*
X-57114Y260299D02*
D03*
X-63020Y224866D02*
D03*
X-57114Y213055D02*
D03*
X-63020Y201244D02*
D03*
X-57114Y189433D02*
D03*
X-63020Y177622D02*
D03*
Y154000D02*
D03*
X-57114Y142189D02*
D03*
X-63020Y130378D02*
D03*
X-57114Y94945D02*
D03*
X-63020Y83134D02*
D03*
X-57114Y71323D02*
D03*
Y47701D02*
D03*
X-63020Y35890D02*
D03*
X-57114Y24079D02*
D03*
Y457D02*
D03*
X-63020Y-11355D02*
D03*
Y-105843D02*
D03*
Y-247575D02*
D03*
Y-271197D02*
D03*
X-74831Y272110D02*
D03*
X-68925Y236677D02*
D03*
X-74831Y224866D02*
D03*
X-68925Y213055D02*
D03*
X-74831Y201244D02*
D03*
X-68925Y189433D02*
D03*
X-74831Y177622D02*
D03*
X-68925Y165811D02*
D03*
X-74831Y154000D02*
D03*
X-68925Y142189D02*
D03*
X-74831Y130378D02*
D03*
X-68925Y118567D02*
D03*
X-74831Y106756D02*
D03*
Y83134D02*
D03*
Y59512D02*
D03*
X-68925Y-46788D02*
D03*
X-74831Y-82221D02*
D03*
X-68925Y-94032D02*
D03*
X-74831Y-105843D02*
D03*
Y-200331D02*
D03*
X-68925Y-212142D02*
D03*
Y-235764D02*
D03*
Y-259386D02*
D03*
X-74831Y-271197D02*
D03*
X-86642Y295732D02*
D03*
X-80736Y283921D02*
D03*
X-86642Y248488D02*
D03*
X-80736Y236677D02*
D03*
X-86642Y224866D02*
D03*
X-80736Y213055D02*
D03*
X-86642Y201244D02*
D03*
Y177622D02*
D03*
X-80736Y165811D02*
D03*
X-86642Y154000D02*
D03*
X-80736Y142189D02*
D03*
X-86642Y130378D02*
D03*
X-80736Y118567D02*
D03*
X-86642Y106756D02*
D03*
X-80736Y94945D02*
D03*
Y71323D02*
D03*
X-86642Y59512D02*
D03*
X-80736Y47701D02*
D03*
X-86642Y12268D02*
D03*
X-80736Y-94032D02*
D03*
X-86642Y-129465D02*
D03*
X-80736Y-188520D02*
D03*
Y-235764D02*
D03*
X-86642Y-247575D02*
D03*
Y-271197D02*
D03*
X-98453Y295732D02*
D03*
X-92547Y260299D02*
D03*
X-98453Y248488D02*
D03*
X-92547Y236677D02*
D03*
X-98453Y224866D02*
D03*
X-92547Y213055D02*
D03*
X-98453Y201244D02*
D03*
X-92547Y189433D02*
D03*
X-98453Y177622D02*
D03*
X-92547Y165811D02*
D03*
X-98453Y154000D02*
D03*
X-92547Y142189D02*
D03*
X-98453Y130378D02*
D03*
X-92547Y118567D02*
D03*
X-98453Y59512D02*
D03*
Y-129465D02*
D03*
Y-223953D02*
D03*
Y-247575D02*
D03*
Y-271197D02*
D03*
X-104358Y260299D02*
D03*
X-110264Y248488D02*
D03*
X-104358Y236677D02*
D03*
Y142189D02*
D03*
X-110264Y130378D02*
D03*
X-104358Y118567D02*
D03*
X-110264Y106756D02*
D03*
Y59512D02*
D03*
Y35890D02*
D03*
Y12268D02*
D03*
Y-105843D02*
D03*
Y-129465D02*
D03*
X-104358Y-188520D02*
D03*
X-110264Y-200331D02*
D03*
X-104358Y-212142D02*
D03*
X-110264Y-223953D02*
D03*
X-104358Y-259386D02*
D03*
X-110264Y-271197D02*
D03*
X-122075Y272110D02*
D03*
Y248488D02*
D03*
Y224866D02*
D03*
Y130378D02*
D03*
X-116170Y118567D02*
D03*
X-122075Y106756D02*
D03*
X-116170Y94945D02*
D03*
X-122075Y-82221D02*
D03*
X-116170Y-117654D02*
D03*
X-122075Y-129465D02*
D03*
X-116170Y-188520D02*
D03*
X-122075Y-200331D02*
D03*
X-116170Y-212142D02*
D03*
Y-259386D02*
D03*
X-122075Y-271197D02*
D03*
X-133886Y295732D02*
D03*
X-127980Y236677D02*
D03*
X-133886Y224866D02*
D03*
Y201244D02*
D03*
Y177622D02*
D03*
X-127980Y118567D02*
D03*
X-133886Y106756D02*
D03*
X-127980Y94945D02*
D03*
X-133886Y-82221D02*
D03*
X-127980Y-117654D02*
D03*
X-133886Y-129465D02*
D03*
X-127980Y-188520D02*
D03*
X-133886Y-200331D02*
D03*
X-127980Y-212142D02*
D03*
X-133886Y-223953D02*
D03*
X-127980Y-259386D02*
D03*
X-145697Y295732D02*
D03*
X-139792Y260299D02*
D03*
X-145697Y224866D02*
D03*
X-139792Y213055D02*
D03*
X-145697Y201244D02*
D03*
X-139792Y189433D02*
D03*
X-145697Y177622D02*
D03*
X-139792Y118567D02*
D03*
X-145697Y106756D02*
D03*
Y35890D02*
D03*
X-139792Y24079D02*
D03*
X-145697Y12268D02*
D03*
Y-34977D02*
D03*
Y-58599D02*
D03*
Y-129465D02*
D03*
X-139792Y-141276D02*
D03*
Y-188520D02*
D03*
X-145697Y-200331D02*
D03*
X-139792Y-212142D02*
D03*
X-145697Y-223953D02*
D03*
X-151602Y283921D02*
D03*
X-157508Y248488D02*
D03*
X-151602Y236677D02*
D03*
Y213055D02*
D03*
X-157508Y201244D02*
D03*
X-151602Y189433D02*
D03*
X-157508Y177622D02*
D03*
X-151602Y165811D02*
D03*
Y-188520D02*
D03*
X-157508Y-200331D02*
D03*
X-151602Y-212142D02*
D03*
X-157508Y-223953D02*
D03*
X-151602Y-235764D02*
D03*
X-157508Y-271197D02*
D03*
X-163414Y283921D02*
D03*
X-169319Y272110D02*
D03*
X-163414Y260299D02*
D03*
X-169319Y248488D02*
D03*
X-163414Y236677D02*
D03*
X-169319Y224866D02*
D03*
Y201244D02*
D03*
X-163414Y189433D02*
D03*
X-169319Y177622D02*
D03*
X-163414Y165811D02*
D03*
Y-188520D02*
D03*
X-169319Y-200331D02*
D03*
X-163414Y-212142D02*
D03*
X-169319Y-223953D02*
D03*
X-163414Y-235764D02*
D03*
X-181130Y272110D02*
D03*
Y248488D02*
D03*
X-175225Y236677D02*
D03*
Y213055D02*
D03*
X-181130Y201244D02*
D03*
X-175225Y189433D02*
D03*
X-181130Y177622D02*
D03*
X-175225Y165811D02*
D03*
X-181130Y154000D02*
D03*
X-175225Y-188520D02*
D03*
X-181130Y-200331D02*
D03*
X-175225Y-212142D02*
D03*
X-181130Y-223953D02*
D03*
X-175225Y-235764D02*
D03*
X-181130Y-247575D02*
D03*
X-175225Y-259386D02*
D03*
X-181130Y-271197D02*
D03*
X-192941Y248488D02*
D03*
Y201244D02*
D03*
Y177622D02*
D03*
X-187036Y165811D02*
D03*
X-192941Y154000D02*
D03*
X-187036Y142189D02*
D03*
Y-188520D02*
D03*
X-192941Y-200331D02*
D03*
X-187036Y-212142D02*
D03*
X-192941Y-223953D02*
D03*
X-187036Y-235764D02*
D03*
X-192941Y-247575D02*
D03*
X-187036Y-259386D02*
D03*
X-198847Y260299D02*
D03*
X-204752Y248488D02*
D03*
Y224866D02*
D03*
X-198847Y213055D02*
D03*
X-204752Y201244D02*
D03*
X-198847Y189433D02*
D03*
X-204752Y177622D02*
D03*
X-198847Y165811D02*
D03*
X-204752Y154000D02*
D03*
X-198847Y142189D02*
D03*
X-204752Y106756D02*
D03*
X-198847Y94945D02*
D03*
Y47701D02*
D03*
X-204752Y35890D02*
D03*
Y12268D02*
D03*
Y-129465D02*
D03*
X-198847Y-141276D02*
D03*
X-204752Y-153087D02*
D03*
Y-176709D02*
D03*
X-198847Y-188520D02*
D03*
X-204752Y-223953D02*
D03*
X-198847Y-235764D02*
D03*
X-204752Y-247575D02*
D03*
X-198847Y-259386D02*
D03*
X-216563Y248488D02*
D03*
X-210658Y236677D02*
D03*
Y213055D02*
D03*
X-216563Y201244D02*
D03*
X-210658Y189433D02*
D03*
X-216563Y177622D02*
D03*
X-210658Y165811D02*
D03*
X-216563Y154000D02*
D03*
X-210658Y142189D02*
D03*
X-216563Y130378D02*
D03*
X-210658Y118567D02*
D03*
X-216563Y106756D02*
D03*
X-210658Y94945D02*
D03*
Y47701D02*
D03*
X-216563Y35890D02*
D03*
X-210658Y24079D02*
D03*
X-216563Y12268D02*
D03*
Y-58599D02*
D03*
Y-129465D02*
D03*
X-210658Y-141276D02*
D03*
Y-164898D02*
D03*
X-216563Y-176709D02*
D03*
X-210658Y-188520D02*
D03*
X-216563Y-223953D02*
D03*
X-210658Y-235764D02*
D03*
X-216563Y-247575D02*
D03*
X-222469Y236677D02*
D03*
Y213055D02*
D03*
X-228374Y201244D02*
D03*
X-222469Y189433D02*
D03*
X-228374Y177622D02*
D03*
X-222469Y165811D02*
D03*
X-228374Y154000D02*
D03*
X-222469Y142189D02*
D03*
Y118567D02*
D03*
X-228374Y106756D02*
D03*
X-222469Y94945D02*
D03*
Y47701D02*
D03*
X-228374Y35890D02*
D03*
Y-58599D02*
D03*
Y-82221D02*
D03*
X-222469Y-117654D02*
D03*
X-228374Y-129465D02*
D03*
X-222469Y-141276D02*
D03*
Y-164898D02*
D03*
X-228374Y-176709D02*
D03*
X-222469Y-188520D02*
D03*
X-228374Y-200331D02*
D03*
Y-223953D02*
D03*
X-222469Y-235764D02*
D03*
X-240185Y224866D02*
D03*
X-234280Y213055D02*
D03*
X-240185Y177622D02*
D03*
X-234280Y165811D02*
D03*
Y142189D02*
D03*
Y118567D02*
D03*
X-240185Y106756D02*
D03*
X-234280Y47701D02*
D03*
X-240185Y35890D02*
D03*
Y12268D02*
D03*
Y-58599D02*
D03*
X-234280Y-70410D02*
D03*
X-240185Y-82221D02*
D03*
Y-129465D02*
D03*
X-234280Y-141276D02*
D03*
Y-164898D02*
D03*
X-240185Y-176709D02*
D03*
X-234280Y-188520D02*
D03*
X-240185Y-200331D02*
D03*
X-234280Y-212142D02*
D03*
X-240185Y-223953D02*
D03*
X-246091Y213055D02*
D03*
X-251996Y201244D02*
D03*
X-246091Y189433D02*
D03*
X-251996Y177622D02*
D03*
X-246091Y165811D02*
D03*
Y118567D02*
D03*
X-251996Y106756D02*
D03*
X-246091Y94945D02*
D03*
X-251996Y83134D02*
D03*
X-246091Y47701D02*
D03*
X-251996Y35890D02*
D03*
X-246091Y24079D02*
D03*
X-251996Y12268D02*
D03*
X-246091Y-23166D02*
D03*
X-251996Y-58599D02*
D03*
X-246091Y-70410D02*
D03*
X-251996Y-82221D02*
D03*
Y-129465D02*
D03*
X-246091Y-164898D02*
D03*
X-251996Y-176709D02*
D03*
X-246091Y-188520D02*
D03*
X-251996Y-200331D02*
D03*
X-246091Y-212142D02*
D03*
X-257902Y189433D02*
D03*
X-263807Y177622D02*
D03*
X-257902Y165811D02*
D03*
X-263807Y130378D02*
D03*
X-257902Y118567D02*
D03*
X-263807Y106756D02*
D03*
X-257902Y94945D02*
D03*
X-263807Y83134D02*
D03*
X-257902Y47701D02*
D03*
X-263807Y35890D02*
D03*
X-257902Y24079D02*
D03*
X-263807Y12268D02*
D03*
Y-11355D02*
D03*
X-257902Y-23166D02*
D03*
X-263807Y-58599D02*
D03*
X-257902Y-70410D02*
D03*
X-263807Y-82221D02*
D03*
Y-129465D02*
D03*
Y-176709D02*
D03*
X-257902Y-188520D02*
D03*
X-269713Y189433D02*
D03*
X-275618Y177622D02*
D03*
X-269713Y165811D02*
D03*
X-275618Y154000D02*
D03*
Y130378D02*
D03*
X-269713Y118567D02*
D03*
X-275618Y106756D02*
D03*
X-269713Y94945D02*
D03*
X-275618Y83134D02*
D03*
X-269713Y71323D02*
D03*
X-275618Y59512D02*
D03*
X-269713Y47701D02*
D03*
X-275618Y35890D02*
D03*
X-269713Y24079D02*
D03*
X-275618Y12268D02*
D03*
X-269713Y457D02*
D03*
X-275618Y-11355D02*
D03*
X-269713Y-23166D02*
D03*
X-275618Y-34977D02*
D03*
X-269713Y-46788D02*
D03*
X-275618Y-58599D02*
D03*
X-269713Y-70410D02*
D03*
X-275618Y-82221D02*
D03*
X-269713Y-94032D02*
D03*
X-275618Y-105843D02*
D03*
X-269713Y-117654D02*
D03*
X-275618Y-129465D02*
D03*
Y-153087D02*
D03*
X-269713Y-164898D02*
D03*
X-275618Y-176709D02*
D03*
X-269713Y-188520D02*
D03*
X-281524Y165811D02*
D03*
X-287429Y154000D02*
D03*
X-281524Y142189D02*
D03*
X-287429Y130378D02*
D03*
X-281524Y118567D02*
D03*
X-287429Y106756D02*
D03*
X-281524Y94945D02*
D03*
X-287429Y83134D02*
D03*
X-281524Y71323D02*
D03*
X-287429Y59512D02*
D03*
X-281524Y47701D02*
D03*
X-287429Y35890D02*
D03*
X-281524Y24079D02*
D03*
X-287429Y12268D02*
D03*
X-281524Y457D02*
D03*
X-287429Y-11355D02*
D03*
X-281524Y-23166D02*
D03*
X-287429Y-34977D02*
D03*
X-281524Y-46788D02*
D03*
X-287429Y-58599D02*
D03*
X-281524Y-70410D02*
D03*
X-287429Y-82221D02*
D03*
X-281524Y-94032D02*
D03*
X-287429Y-105843D02*
D03*
X-281524Y-117654D02*
D03*
X-287429Y-129465D02*
D03*
X-281524Y-141276D02*
D03*
X-287429Y-153087D02*
D03*
X-281524Y-164898D02*
D03*
X-293335Y142189D02*
D03*
X-299240Y130378D02*
D03*
X-293335Y118567D02*
D03*
X-299240Y106756D02*
D03*
X-293335Y94945D02*
D03*
X-299240Y83134D02*
D03*
X-293335Y71323D02*
D03*
X-299240Y59512D02*
D03*
X-293335Y47701D02*
D03*
X-299240Y35890D02*
D03*
X-293335Y24079D02*
D03*
X-299240Y12268D02*
D03*
X-293335Y457D02*
D03*
X-299240Y-11355D02*
D03*
X-293335Y-23166D02*
D03*
X-299240Y-34977D02*
D03*
X-293335Y-46788D02*
D03*
X-299240Y-58599D02*
D03*
X-293335Y-70410D02*
D03*
X-299240Y-82221D02*
D03*
X-293335Y-94032D02*
D03*
X-299240Y-105843D02*
D03*
X-293335Y-117654D02*
D03*
X-299240Y-129465D02*
D03*
X-293335Y-141276D02*
D03*
X-305146Y118567D02*
D03*
X-311051Y106756D02*
D03*
X-305146Y94945D02*
D03*
X-311051Y83134D02*
D03*
X-305146Y71323D02*
D03*
X-311051Y59512D02*
D03*
X-305146Y47701D02*
D03*
X-311051Y35890D02*
D03*
X-305146Y24079D02*
D03*
X-311051Y12268D02*
D03*
X-305146Y457D02*
D03*
X-311051Y-11355D02*
D03*
X-305146Y-23166D02*
D03*
X-311051Y-34977D02*
D03*
X-305146Y-46788D02*
D03*
X-311051Y-58599D02*
D03*
X-305146Y-70410D02*
D03*
X-311051Y-82221D02*
D03*
X-305146Y-94032D02*
D03*
X-311051Y-105843D02*
D03*
X-305146Y-117654D02*
D03*
X-316957Y71323D02*
D03*
X-322862Y59512D02*
D03*
X-316957Y47701D02*
D03*
X-322862Y35890D02*
D03*
X-316957Y24079D02*
D03*
X-322862Y12268D02*
D03*
X-316957Y457D02*
D03*
X-322862Y-11355D02*
D03*
X-316957Y-23166D02*
D03*
X-322862Y-34977D02*
D03*
X-316957Y-46788D02*
D03*
X-322862Y-58599D02*
D03*
X-316957Y-70410D02*
D03*
D92*
X282794Y89411D02*
D03*
X-76042Y-69303D02*
D03*
X-85197Y27911D02*
D03*
X57579Y66437D02*
D03*
X-94488Y-186614D02*
D03*
X80512Y-157972D02*
D03*
X6299Y-161024D02*
D03*
X53740Y57185D02*
D03*
X-85126Y36167D02*
D03*
X-70276Y37213D02*
D03*
X-67618Y12402D02*
D03*
X-2362Y171063D02*
D03*
X-76386Y-257768D02*
D03*
X-57284Y-218307D02*
D03*
X5709Y181299D02*
D03*
X-88878Y24409D02*
D03*
X76575Y75787D02*
D03*
X83858Y74803D02*
D03*
X70669Y75787D02*
D03*
X109153Y-235630D02*
D03*
X79823Y-239665D02*
D03*
X-10728Y7492D02*
D03*
X-58760Y-59842D02*
D03*
X-62992D02*
D03*
X-25197Y-5945D02*
D03*
X-10073Y-14139D02*
D03*
X-20965Y9055D02*
D03*
X-75886Y-125303D02*
D03*
X-102559Y-218209D02*
D03*
X-165847Y-246555D02*
D03*
X-131502Y-233082D02*
D03*
X-106988Y-233957D02*
D03*
X-50787Y-95571D02*
D03*
X-31596Y-156602D02*
D03*
X-125394Y-100000D02*
D03*
X-127067Y-82579D02*
D03*
X-211127Y-117069D02*
D03*
X-212234Y-53319D02*
D03*
X194323Y-114370D02*
D03*
X152067Y132087D02*
D03*
X144980Y142913D02*
D03*
X171358Y143405D02*
D03*
X184843Y166831D02*
D03*
X184646Y202260D02*
D03*
X169193Y208071D02*
D03*
X165551Y244240D02*
D03*
X144095Y256594D02*
D03*
X-143996Y256890D02*
D03*
X-149606Y241535D02*
D03*
X-192913Y185039D02*
D03*
X-172146Y207382D02*
D03*
X107571Y274410D02*
D03*
X107776Y264862D02*
D03*
X-210630Y52490D02*
D03*
X210433Y75254D02*
D03*
X211713Y4880D02*
D03*
X-44786Y-102817D02*
D03*
X-45571Y-31439D02*
D03*
X-75689Y-31538D02*
D03*
X-48329Y-102817D02*
D03*
X268701Y79191D02*
D03*
X271555Y8325D02*
D03*
X-85197Y32242D02*
D03*
X37598Y-11656D02*
D03*
X323441Y33016D02*
D03*
X279527Y86474D02*
D03*
X318898Y29683D02*
D03*
X-109941Y-39313D02*
D03*
X-113386Y-85475D02*
D03*
X-113091Y-15494D02*
D03*
X-110925Y-9982D02*
D03*
X279724Y94742D02*
D03*
X289272Y27025D02*
D03*
X292421Y29388D02*
D03*
X295079Y32045D02*
D03*
X270571Y32833D02*
D03*
X-127709Y-141282D02*
D03*
X-66536D02*
D03*
X-80512Y-132030D02*
D03*
X88878Y-134097D02*
D03*
X62500Y-137640D02*
D03*
X72047Y-111951D02*
D03*
X40453Y-117069D02*
D03*
X58563Y-117167D02*
D03*
X58366Y-120219D02*
D03*
X194882Y140707D02*
D03*
X321358Y26337D02*
D03*
X-71063Y-19316D02*
D03*
X-86811Y-55356D02*
D03*
X-86713Y-69727D02*
D03*
X-73622Y-27896D02*
D03*
X-110532Y1730D02*
D03*
X-131595Y2518D02*
D03*
X28839Y-38821D02*
D03*
X28802Y-34999D02*
D03*
X45571Y-5707D02*
D03*
X-36713Y-16085D02*
D03*
X-36909Y-56537D02*
D03*
X-41634Y-31341D02*
D03*
X-77461Y9407D02*
D03*
X-79776Y-24254D02*
D03*
X-55416Y-103014D02*
D03*
X-51873Y-102817D02*
D03*
X-41242Y-102719D02*
D03*
X121161Y93167D02*
D03*
X282972Y-81931D02*
D03*
X-79728Y-68545D02*
D03*
X-79429Y-45809D02*
D03*
X-84055D02*
D03*
X-98721Y-212935D02*
D03*
X85827Y-61164D02*
D03*
X-82973Y17183D02*
D03*
X40453Y-119727D02*
D03*
X273720Y-86262D02*
D03*
X121653Y-46793D02*
D03*
X115256Y-75632D02*
D03*
X162008Y142872D02*
D03*
X277114Y-40677D02*
D03*
X269947Y-89801D02*
D03*
X43551Y-1602D02*
D03*
X120815Y-14102D02*
D03*
X120421Y-7213D02*
D03*
X131642Y15721D02*
D03*
X133905Y26744D02*
D03*
X-127709Y75957D02*
D03*
X-123673Y85110D02*
D03*
X-117965Y-13512D02*
D03*
X81642Y-53866D02*
D03*
X83020Y-37134D02*
D03*
X-117571Y-74446D02*
D03*
X-117571Y-78079D02*
D03*
X-121606Y-71681D02*
D03*
X29823Y-145803D02*
D03*
X8323Y-146803D02*
D03*
X-18177Y-126303D02*
D03*
X-25177Y-125803D02*
D03*
X-17177Y-116803D02*
D03*
X-27177D02*
D03*
X37823Y-133803D02*
D03*
D93*
X37402Y-228064D02*
D03*
X29921Y-227797D02*
D03*
X31791Y-157409D02*
D03*
X54823Y-145303D02*
D03*
D94*
X8858Y198819D02*
D03*
X-21457D02*
D03*
X-17126D02*
D03*
X-12795Y199606D02*
D03*
X-8465Y198819D02*
D03*
X-4134Y199606D02*
D03*
X197Y198819D02*
D03*
X4528Y197244D02*
D03*
D95*
X28937Y214488D02*
D03*
X-24921Y210000D02*
D03*
D96*
X-18189Y156142D02*
D03*
X4252D02*
D03*
D97*
X-116370Y-65303D02*
X-111264Y-70410D01*
X-99571D02*
X-94677Y-75303D01*
X-111264Y-70410D02*
X-99571D01*
X-142610Y-50047D02*
X-127354Y-65303D01*
X-116370D01*
X105323Y-35303D02*
X122193Y-18433D01*
X149358D01*
X153591Y-14201D01*
Y-5539D01*
X151354Y-3303D02*
X153591Y-5539D01*
X145323Y-3303D02*
X151354D01*
M02*
