G04*
G04 #@! TF.GenerationSoftware,Altium Limited,Altium Designer,20.1.11 (218)*
G04*
G04 Layer_Color=16711935*
%FSLAX25Y25*%
%MOIN*%
G70*
G04*
G04 #@! TF.SameCoordinates,DC62774E-AE12-477B-97F5-19A81F94617E*
G04*
G04*
G04 #@! TF.FilePolarity,Negative*
G04*
G01*
G75*
%ADD65C,0.06866*%
%ADD66R,0.06866X0.06866*%
%ADD67C,0.04803*%
%ADD68C,0.06772*%
%ADD69R,0.06772X0.06772*%
%ADD70R,0.06772X0.06772*%
%ADD71C,0.10709*%
%ADD72C,0.24488*%
%ADD73C,0.05591*%
%ADD74C,0.32362*%
%ADD75C,0.04016*%
%ADD76C,0.03228*%
%ADD77C,0.05866*%
%ADD98R,0.04016X0.06772*%
%ADD99R,0.06378X0.08346*%
%ADD100R,0.07953X0.06378*%
D65*
X95323Y104697D02*
D03*
X105323D02*
D03*
X95323Y94697D02*
D03*
X105323D02*
D03*
X95323Y84697D02*
D03*
X105323D02*
D03*
X95323Y74697D02*
D03*
X105323D02*
D03*
X95323Y64697D02*
D03*
X105323D02*
D03*
X95323Y54697D02*
D03*
X105323D02*
D03*
X95323Y44697D02*
D03*
X105323D02*
D03*
X95323Y34697D02*
D03*
X105323D02*
D03*
X95323Y24697D02*
D03*
X105323D02*
D03*
X95323Y14697D02*
D03*
X105323D02*
D03*
X95323Y4697D02*
D03*
X105323D02*
D03*
X95323Y-5303D02*
D03*
X105323D02*
D03*
X95323Y-15303D02*
D03*
X105323D02*
D03*
X95323Y-25303D02*
D03*
X105323D02*
D03*
X95323Y-35303D02*
D03*
X105323D02*
D03*
X95323Y-45303D02*
D03*
X105323D02*
D03*
X95323Y-55303D02*
D03*
X105323D02*
D03*
X95323Y-65303D02*
D03*
X105323D02*
D03*
X95323Y-75303D02*
D03*
X105323D02*
D03*
X95323Y-85303D02*
D03*
X105323D02*
D03*
X95323Y-95303D02*
D03*
X105323D02*
D03*
X95323Y-105303D02*
D03*
X105323D02*
D03*
X95323Y-115303D02*
D03*
X105323D02*
D03*
X95323Y-125303D02*
D03*
X105323D02*
D03*
X95323Y-135303D02*
D03*
X-104677Y104697D02*
D03*
X-94677D02*
D03*
X-104677Y94697D02*
D03*
X-94677D02*
D03*
X-104677Y84697D02*
D03*
X-94677D02*
D03*
X-104677Y74697D02*
D03*
X-94677D02*
D03*
X-104677Y64697D02*
D03*
X-94677D02*
D03*
X-104677Y54697D02*
D03*
X-94677D02*
D03*
X-104677Y44697D02*
D03*
X-94677D02*
D03*
X-104677Y34697D02*
D03*
X-94677D02*
D03*
X-104677Y24697D02*
D03*
X-94677D02*
D03*
X-104677Y14697D02*
D03*
X-94677D02*
D03*
X-104677Y4697D02*
D03*
X-94677D02*
D03*
X-104677Y-5303D02*
D03*
X-94677D02*
D03*
X-104677Y-15303D02*
D03*
X-94677D02*
D03*
X-104677Y-25303D02*
D03*
X-94677D02*
D03*
X-104677Y-35303D02*
D03*
X-94677D02*
D03*
X-104677Y-45303D02*
D03*
X-94677D02*
D03*
X-104677Y-55303D02*
D03*
X-94677D02*
D03*
X-104677Y-65303D02*
D03*
X-94677D02*
D03*
X-104677Y-75303D02*
D03*
X-94677D02*
D03*
X-104677Y-85303D02*
D03*
X-94677D02*
D03*
X-104677Y-95303D02*
D03*
X-94677D02*
D03*
X-104677Y-105303D02*
D03*
X-94677D02*
D03*
X-104677Y-115303D02*
D03*
X-94677D02*
D03*
X-104677Y-125303D02*
D03*
X-94677D02*
D03*
X-104677Y-135303D02*
D03*
D66*
X105323D02*
D03*
X-94677D02*
D03*
D67*
X-14429Y-257913D02*
D03*
X5571D02*
D03*
X-4429Y-267913D02*
D03*
X-59016Y-257913D02*
D03*
X-39016D02*
D03*
X-49016Y-267913D02*
D03*
D68*
X-92559Y-243307D02*
D03*
X-102559D02*
D03*
X-112559D02*
D03*
X-152480Y272764D02*
D03*
X217711Y222711D02*
D03*
X115323Y174697D02*
D03*
Y184697D02*
D03*
Y194697D02*
D03*
Y204697D02*
D03*
Y214697D02*
D03*
Y224697D02*
D03*
Y234697D02*
D03*
Y244697D02*
D03*
Y254697D02*
D03*
Y264697D02*
D03*
Y274697D02*
D03*
X155323Y-80303D02*
D03*
X165323D02*
D03*
X175323D02*
D03*
Y-70303D02*
D03*
X165323D02*
D03*
X155323D02*
D03*
X-234646Y90335D02*
D03*
Y80335D02*
D03*
Y70335D02*
D03*
X145323Y-13303D02*
D03*
Y-23303D02*
D03*
Y-33303D02*
D03*
X-44390Y-221772D02*
D03*
Y-231772D02*
D03*
X-114677Y174697D02*
D03*
Y184697D02*
D03*
Y194697D02*
D03*
Y204697D02*
D03*
Y214697D02*
D03*
Y224697D02*
D03*
Y234697D02*
D03*
Y244697D02*
D03*
Y254697D02*
D03*
Y264697D02*
D03*
Y274697D02*
D03*
X237823Y-23303D02*
D03*
Y-13303D02*
D03*
Y-3303D02*
D03*
X-235169Y-50047D02*
D03*
Y-40047D02*
D03*
Y-30047D02*
D03*
X-142669Y-20047D02*
D03*
Y-30047D02*
D03*
Y-40047D02*
D03*
X237823Y46697D02*
D03*
Y56697D02*
D03*
Y66697D02*
D03*
X145323Y56697D02*
D03*
Y46697D02*
D03*
Y36697D02*
D03*
X-234480Y-115224D02*
D03*
Y-105224D02*
D03*
Y-95224D02*
D03*
X-141980Y-85224D02*
D03*
Y-95224D02*
D03*
Y-105224D02*
D03*
X-254725Y70379D02*
D03*
Y60379D02*
D03*
X-14665Y-221772D02*
D03*
Y-231772D02*
D03*
X-142146Y90335D02*
D03*
Y80335D02*
D03*
Y70335D02*
D03*
X175654Y258001D02*
D03*
X-175654Y258001D02*
D03*
X152480Y272764D02*
D03*
X-217711Y222711D02*
D03*
X236274Y202453D02*
D03*
X-236274Y202453D02*
D03*
D69*
X-122559Y-243307D02*
D03*
X-162480Y272764D02*
D03*
X227711Y222711D02*
D03*
X185323Y-80303D02*
D03*
Y-70303D02*
D03*
X185654Y258001D02*
D03*
X-185654Y258001D02*
D03*
X162480Y272764D02*
D03*
X-227711Y222711D02*
D03*
X246274Y202453D02*
D03*
X-246274Y202453D02*
D03*
D70*
X115323Y164697D02*
D03*
X-234646Y60335D02*
D03*
X145323Y-3303D02*
D03*
X-114677Y164697D02*
D03*
X237823Y-33303D02*
D03*
X-235169Y-20047D02*
D03*
X-142669Y-50047D02*
D03*
X237823Y36697D02*
D03*
X145323Y66697D02*
D03*
X-234480Y-85224D02*
D03*
X-141980Y-115224D02*
D03*
X-142146Y60335D02*
D03*
D71*
X36024Y-259547D02*
D03*
X54528D02*
D03*
X73032D02*
D03*
D72*
X147953Y-255807D02*
D03*
X119764Y-255807D02*
D03*
X-189799Y226194D02*
D03*
X189799D02*
D03*
X208791Y-208791D02*
D03*
X-208791D02*
D03*
D73*
X-256299Y-115630D02*
D03*
Y-105630D02*
D03*
Y-95630D02*
D03*
Y-85630D02*
D03*
Y-75630D02*
D03*
Y-65630D02*
D03*
X259744Y16809D02*
D03*
Y26809D02*
D03*
Y36809D02*
D03*
Y46809D02*
D03*
Y56809D02*
D03*
Y66809D02*
D03*
X258563Y-53014D02*
D03*
Y-43014D02*
D03*
Y-33014D02*
D03*
Y-23014D02*
D03*
Y-13014D02*
D03*
Y-3014D02*
D03*
X-253839Y-50413D02*
D03*
Y-40413D02*
D03*
Y-30413D02*
D03*
Y-20413D02*
D03*
Y-10413D02*
D03*
Y-413D02*
D03*
D74*
X255716Y147638D02*
D03*
Y-147638D02*
D03*
X-255716Y-147638D02*
D03*
Y147638D02*
D03*
D75*
X291357Y12268D02*
D03*
Y-11355D02*
D03*
Y-34977D02*
D03*
Y-82221D02*
D03*
Y-58599D02*
D03*
Y-105843D02*
D03*
X308849Y71323D02*
D03*
X320838D02*
D03*
X314933Y12268D02*
D03*
X320838Y457D02*
D03*
X314933Y-11355D02*
D03*
X320838Y-23166D02*
D03*
X314933Y-34977D02*
D03*
X320838Y-46788D02*
D03*
X314933Y-58599D02*
D03*
X320838Y-70410D02*
D03*
X314933Y-82221D02*
D03*
X303122Y130378D02*
D03*
Y106756D02*
D03*
Y83134D02*
D03*
Y59512D02*
D03*
X309027Y47701D02*
D03*
X303122Y35890D02*
D03*
Y12268D02*
D03*
X309027Y457D02*
D03*
X303122Y-11355D02*
D03*
X309027Y-23166D02*
D03*
X303122Y-34977D02*
D03*
X309027Y-46788D02*
D03*
X303122Y-58599D02*
D03*
X309027Y-70410D02*
D03*
X303122Y-82221D02*
D03*
X309027Y-94032D02*
D03*
X303122Y-105843D02*
D03*
Y-129465D02*
D03*
X291311Y154000D02*
D03*
X297216Y142189D02*
D03*
X291311Y130378D02*
D03*
X297216Y118567D02*
D03*
X291311Y106756D02*
D03*
Y83134D02*
D03*
X297216Y71323D02*
D03*
X291311Y59512D02*
D03*
X297216Y47701D02*
D03*
X291311Y35890D02*
D03*
X297216Y457D02*
D03*
Y-23166D02*
D03*
Y-46788D02*
D03*
Y-70410D02*
D03*
Y-94032D02*
D03*
Y-117654D02*
D03*
X291311Y-129465D02*
D03*
X297216Y-141276D02*
D03*
X291311Y-153087D02*
D03*
X285405Y165811D02*
D03*
X279500Y154000D02*
D03*
X285405Y142189D02*
D03*
X279500Y130378D02*
D03*
X285405Y118567D02*
D03*
X279500Y106756D02*
D03*
X285405Y71323D02*
D03*
X279500Y59512D02*
D03*
X285405Y47701D02*
D03*
X279500Y35890D02*
D03*
Y-129465D02*
D03*
X285405Y-141276D02*
D03*
X279500Y-153087D02*
D03*
X285405Y-164898D02*
D03*
X267689Y177622D02*
D03*
X273594Y165811D02*
D03*
Y142189D02*
D03*
X267689Y130378D02*
D03*
X273594Y118567D02*
D03*
X267689Y106756D02*
D03*
Y83134D02*
D03*
X273594Y71323D02*
D03*
Y47701D02*
D03*
Y24079D02*
D03*
X267689Y12268D02*
D03*
X273594Y-94032D02*
D03*
X267689Y-105843D02*
D03*
Y-129465D02*
D03*
X273594Y-141276D02*
D03*
Y-164898D02*
D03*
X267689Y-176709D02*
D03*
X255878Y201244D02*
D03*
X261783Y189433D02*
D03*
X255878Y177622D02*
D03*
X261783Y165811D02*
D03*
Y118567D02*
D03*
X255878Y106756D02*
D03*
Y83134D02*
D03*
Y12268D02*
D03*
X261783Y-46788D02*
D03*
X255878Y-58599D02*
D03*
X261783Y-70410D02*
D03*
Y-94032D02*
D03*
X255878Y-105843D02*
D03*
Y-129465D02*
D03*
X261783Y-164898D02*
D03*
X255878Y-176709D02*
D03*
X261783Y-188520D02*
D03*
X255878Y-200331D02*
D03*
X249972Y213055D02*
D03*
Y189433D02*
D03*
X244067Y177622D02*
D03*
X249972Y165811D02*
D03*
X244067Y130378D02*
D03*
X249972Y118567D02*
D03*
X244067Y106756D02*
D03*
Y83134D02*
D03*
X249972Y47701D02*
D03*
X244067Y35890D02*
D03*
Y12268D02*
D03*
X249972Y-23166D02*
D03*
X244067Y-34977D02*
D03*
X249972Y-46788D02*
D03*
X244067Y-58599D02*
D03*
X249972Y-70410D02*
D03*
Y-94032D02*
D03*
X244067Y-105843D02*
D03*
Y-129465D02*
D03*
X249972Y-164898D02*
D03*
X244067Y-176709D02*
D03*
X249972Y-188520D02*
D03*
X244067Y-200331D02*
D03*
X249972Y-212142D02*
D03*
X238161Y213055D02*
D03*
Y189433D02*
D03*
X232256Y177622D02*
D03*
X238161Y165811D02*
D03*
X232256Y154000D02*
D03*
X238161Y142189D02*
D03*
X232256Y130378D02*
D03*
X238161Y118567D02*
D03*
X232256Y83134D02*
D03*
Y12268D02*
D03*
X238161Y-46788D02*
D03*
X232256Y-58599D02*
D03*
X238161Y-70410D02*
D03*
X232256Y-82221D02*
D03*
X238161Y-94032D02*
D03*
X232256Y-105843D02*
D03*
Y-129465D02*
D03*
X238161Y-141276D02*
D03*
X232256Y-153087D02*
D03*
X238161Y-164898D02*
D03*
X232256Y-176709D02*
D03*
X238161Y-188520D02*
D03*
X232256Y-200331D02*
D03*
X238161Y-212142D02*
D03*
X232256Y-223953D02*
D03*
X226350Y236677D02*
D03*
Y213055D02*
D03*
Y189433D02*
D03*
Y142189D02*
D03*
X220445Y130378D02*
D03*
X226350Y118567D02*
D03*
Y71323D02*
D03*
Y457D02*
D03*
Y-46788D02*
D03*
X220445Y-58599D02*
D03*
X226350Y-70410D02*
D03*
Y-94032D02*
D03*
X220445Y-105843D02*
D03*
Y-129465D02*
D03*
X226350Y-141276D02*
D03*
X220445Y-153087D02*
D03*
X226350Y-164898D02*
D03*
X220445Y-176709D02*
D03*
X226350Y-188520D02*
D03*
X220445Y-200331D02*
D03*
X226350Y-212142D02*
D03*
X220445Y-223953D02*
D03*
X226350Y-235764D02*
D03*
X208634Y248488D02*
D03*
X214539Y236677D02*
D03*
X208634Y224866D02*
D03*
X214539Y213055D02*
D03*
Y189433D02*
D03*
X208634Y177622D02*
D03*
Y154000D02*
D03*
X214539Y142189D02*
D03*
X208634Y130378D02*
D03*
X214539Y118567D02*
D03*
X208634Y106756D02*
D03*
Y12268D02*
D03*
X214539Y-94032D02*
D03*
X208634Y-105843D02*
D03*
Y-129465D02*
D03*
X214539Y-141276D02*
D03*
X208634Y-153087D02*
D03*
X214539Y-164898D02*
D03*
X208634Y-176709D02*
D03*
X214539Y-188520D02*
D03*
X208634Y-223953D02*
D03*
X214539Y-235764D02*
D03*
X208634Y-247575D02*
D03*
X202728Y260299D02*
D03*
X196823Y248488D02*
D03*
X202728Y236677D02*
D03*
Y213055D02*
D03*
Y189433D02*
D03*
Y142189D02*
D03*
X196823Y130378D02*
D03*
X202728Y118567D02*
D03*
Y-94032D02*
D03*
X196823Y-129465D02*
D03*
X202728Y-141276D02*
D03*
X196823Y-153087D02*
D03*
X202728Y-164898D02*
D03*
X196823Y-176709D02*
D03*
X202728Y-188520D02*
D03*
X196823Y-200331D02*
D03*
Y-223953D02*
D03*
X202728Y-235764D02*
D03*
X196823Y-247575D02*
D03*
X202728Y-259386D02*
D03*
X185012Y272110D02*
D03*
Y248488D02*
D03*
X190917Y189433D02*
D03*
X185012Y154000D02*
D03*
X190917Y142189D02*
D03*
Y118567D02*
D03*
Y-70410D02*
D03*
X185012Y-129465D02*
D03*
X190917Y-141276D02*
D03*
X185012Y-153087D02*
D03*
X190917Y-164898D02*
D03*
X185012Y-176709D02*
D03*
X190917Y-188520D02*
D03*
X185012Y-200331D02*
D03*
X190917Y-212142D02*
D03*
X185012Y-223953D02*
D03*
X190917Y-235764D02*
D03*
X185012Y-247575D02*
D03*
X190917Y-259386D02*
D03*
X185012Y-271197D02*
D03*
X173201Y272110D02*
D03*
X179106Y236677D02*
D03*
X173201Y224866D02*
D03*
X179106Y213055D02*
D03*
X173201Y177622D02*
D03*
Y154000D02*
D03*
X179106Y142189D02*
D03*
X173201Y130378D02*
D03*
X179106Y118567D02*
D03*
X173201Y-129465D02*
D03*
X179106Y-141276D02*
D03*
X173201Y-153087D02*
D03*
X179106Y-164898D02*
D03*
X173201Y-176709D02*
D03*
X179106Y-188520D02*
D03*
X173201Y-200331D02*
D03*
X179106Y-212142D02*
D03*
X173201Y-223953D02*
D03*
X179106Y-235764D02*
D03*
X173201Y-247575D02*
D03*
X179106Y-259386D02*
D03*
X173201Y-271197D02*
D03*
X167295Y283921D02*
D03*
Y260299D02*
D03*
X161390Y248488D02*
D03*
X167295Y236677D02*
D03*
X161390Y224866D02*
D03*
X167295Y165811D02*
D03*
Y142189D02*
D03*
Y118567D02*
D03*
Y-94032D02*
D03*
X161390Y-105843D02*
D03*
X167295Y-117654D02*
D03*
X161390Y-129465D02*
D03*
X167295Y-141276D02*
D03*
X161390Y-153087D02*
D03*
X167295Y-164898D02*
D03*
X161390Y-176709D02*
D03*
X167295Y-188520D02*
D03*
X161390Y-200331D02*
D03*
X167295Y-212142D02*
D03*
X161390Y-223953D02*
D03*
X167295Y-235764D02*
D03*
X161390Y-247575D02*
D03*
X167295Y-259386D02*
D03*
X161390Y-271197D02*
D03*
X155484Y283921D02*
D03*
Y260299D02*
D03*
X149578Y248488D02*
D03*
X155484Y189433D02*
D03*
Y165811D02*
D03*
Y142189D02*
D03*
Y118567D02*
D03*
X149578Y106756D02*
D03*
Y83134D02*
D03*
Y12268D02*
D03*
X155484Y-94032D02*
D03*
X149578Y-105843D02*
D03*
X155484Y-117654D02*
D03*
X149578Y-129465D02*
D03*
X155484Y-141276D02*
D03*
X149578Y-153087D02*
D03*
X155484Y-164898D02*
D03*
X149578Y-176709D02*
D03*
X155484Y-188520D02*
D03*
X149578Y-200331D02*
D03*
X155484Y-212142D02*
D03*
X149578Y-223953D02*
D03*
X155484Y-235764D02*
D03*
X149578Y-271197D02*
D03*
X137768Y295732D02*
D03*
Y201244D02*
D03*
Y177622D02*
D03*
Y154000D02*
D03*
X143673Y118567D02*
D03*
X137768Y106756D02*
D03*
Y59512D02*
D03*
Y12268D02*
D03*
Y-200331D02*
D03*
X143673Y-212142D02*
D03*
X137768Y-223953D02*
D03*
X143673Y-235764D02*
D03*
X137768Y-271197D02*
D03*
X125956Y272110D02*
D03*
Y224866D02*
D03*
X131862Y213055D02*
D03*
X125956Y201244D02*
D03*
X131862Y189433D02*
D03*
X125956Y177622D02*
D03*
X131862Y165811D02*
D03*
X125956Y154000D02*
D03*
X131862Y94945D02*
D03*
Y71323D02*
D03*
X125956Y12268D02*
D03*
X131862Y-212142D02*
D03*
X125956Y-223953D02*
D03*
X131862Y-235764D02*
D03*
X120051Y260299D02*
D03*
Y189433D02*
D03*
X114145Y154000D02*
D03*
X120051Y142189D02*
D03*
X114145Y130378D02*
D03*
Y-105843D02*
D03*
Y-129465D02*
D03*
Y-153087D02*
D03*
X108240Y260299D02*
D03*
X102334Y248488D02*
D03*
X108240Y236677D02*
D03*
X102334Y224866D02*
D03*
X108240Y213055D02*
D03*
X102334Y201244D02*
D03*
X108240Y189433D02*
D03*
X102334Y177622D02*
D03*
X108240Y165811D02*
D03*
X102334Y154000D02*
D03*
X108240Y142189D02*
D03*
X102334Y130378D02*
D03*
X108240Y-141276D02*
D03*
X102334Y-153087D02*
D03*
X90523Y295732D02*
D03*
X96429Y236677D02*
D03*
X90523Y224866D02*
D03*
X96429Y213055D02*
D03*
X90523Y201244D02*
D03*
X96429Y189433D02*
D03*
X90523Y177622D02*
D03*
X96429Y165811D02*
D03*
X90523Y154000D02*
D03*
X96429Y142189D02*
D03*
X90523Y130378D02*
D03*
X96429Y118567D02*
D03*
X90523Y106756D02*
D03*
Y12268D02*
D03*
Y-58599D02*
D03*
Y-82221D02*
D03*
X96429Y-141276D02*
D03*
X90523Y-153087D02*
D03*
X84618Y283921D02*
D03*
Y47701D02*
D03*
X78712Y35890D02*
D03*
X84618Y-23166D02*
D03*
Y-46788D02*
D03*
X78712Y-82221D02*
D03*
X84618Y-94032D02*
D03*
X78712Y-129465D02*
D03*
X84618Y-141276D02*
D03*
X78712Y-153087D02*
D03*
Y-223953D02*
D03*
X84618Y-259386D02*
D03*
X78712Y-271197D02*
D03*
X72807Y283921D02*
D03*
X66901Y272110D02*
D03*
X72807Y236677D02*
D03*
X66901Y224866D02*
D03*
X72807Y213055D02*
D03*
X66901Y201244D02*
D03*
X72807Y189433D02*
D03*
X66901Y177622D02*
D03*
X72807Y165811D02*
D03*
X66901Y154000D02*
D03*
X72807Y142189D02*
D03*
X66901Y130378D02*
D03*
X72807Y118567D02*
D03*
X66901Y106756D02*
D03*
X72807Y94945D02*
D03*
X66901Y35890D02*
D03*
Y12268D02*
D03*
X72807Y-23166D02*
D03*
X66901Y-34977D02*
D03*
X72807Y-46788D02*
D03*
X66901Y-58599D02*
D03*
X72807Y-70410D02*
D03*
X66901Y-82221D02*
D03*
X72807Y-94032D02*
D03*
Y-141276D02*
D03*
X66901Y-153087D02*
D03*
Y-223953D02*
D03*
Y-247575D02*
D03*
Y-271197D02*
D03*
X60996Y260299D02*
D03*
Y213055D02*
D03*
X55090Y201244D02*
D03*
X60996Y189433D02*
D03*
X55090Y177622D02*
D03*
X60996Y165811D02*
D03*
X55090Y154000D02*
D03*
X60996Y142189D02*
D03*
X55090Y130378D02*
D03*
Y106756D02*
D03*
Y83134D02*
D03*
X60996Y71323D02*
D03*
Y47701D02*
D03*
X55090Y35890D02*
D03*
X60996Y24079D02*
D03*
X55090Y12268D02*
D03*
X60996Y-23166D02*
D03*
X55090Y-34977D02*
D03*
X60996Y-46788D02*
D03*
X55090Y-58599D02*
D03*
X60996Y-70410D02*
D03*
X55090Y-82221D02*
D03*
X60996Y-94032D02*
D03*
X55090Y-105843D02*
D03*
Y-223953D02*
D03*
X60996Y-235764D02*
D03*
X55090Y-247575D02*
D03*
Y-271197D02*
D03*
X49185Y260299D02*
D03*
X43279Y248488D02*
D03*
X49185Y213055D02*
D03*
X43279Y201244D02*
D03*
X49185Y189433D02*
D03*
X43279Y177622D02*
D03*
X49185Y165811D02*
D03*
X43279Y154000D02*
D03*
X49185Y142189D02*
D03*
X43279Y130378D02*
D03*
X49185Y118567D02*
D03*
X43279Y83134D02*
D03*
X49185Y71323D02*
D03*
X43279Y35890D02*
D03*
X49185Y24079D02*
D03*
X43279Y12268D02*
D03*
X49185Y-23166D02*
D03*
Y-46788D02*
D03*
X43279Y-58599D02*
D03*
X49185Y-70410D02*
D03*
X43279Y-82221D02*
D03*
X49185Y-94032D02*
D03*
X43279Y-105843D02*
D03*
Y-153087D02*
D03*
Y-223953D02*
D03*
X49185Y-235764D02*
D03*
X43279Y-247575D02*
D03*
Y-271197D02*
D03*
X31468Y248488D02*
D03*
X37374Y236677D02*
D03*
Y213055D02*
D03*
Y189433D02*
D03*
Y165811D02*
D03*
X31468Y130378D02*
D03*
Y106756D02*
D03*
X37374Y94945D02*
D03*
X31468Y83134D02*
D03*
X37374Y47701D02*
D03*
X31468Y35890D02*
D03*
X37374Y24079D02*
D03*
X31468Y12268D02*
D03*
X37374Y457D02*
D03*
X31468Y-11355D02*
D03*
X37374Y-23166D02*
D03*
Y-46788D02*
D03*
X31468Y-58599D02*
D03*
X37374Y-70410D02*
D03*
X31468Y-82221D02*
D03*
X37374Y-94032D02*
D03*
X31468Y-105843D02*
D03*
X37374Y-235764D02*
D03*
X31468Y-247575D02*
D03*
Y-271197D02*
D03*
X19657Y248488D02*
D03*
X25563Y236677D02*
D03*
Y142189D02*
D03*
X19657Y106756D02*
D03*
X25563Y94945D02*
D03*
X19657Y83134D02*
D03*
X25563Y71323D02*
D03*
Y47701D02*
D03*
X19657Y35890D02*
D03*
X25563Y24079D02*
D03*
X19657Y12268D02*
D03*
Y-11355D02*
D03*
X25563Y-23166D02*
D03*
Y-46788D02*
D03*
X19657Y-58599D02*
D03*
X25563Y-70410D02*
D03*
X19657Y-82221D02*
D03*
X25563Y-94032D02*
D03*
X19657Y-105843D02*
D03*
Y-223953D02*
D03*
X25563Y-235764D02*
D03*
X19657Y-247575D02*
D03*
X25563Y-259386D02*
D03*
X19657Y-271197D02*
D03*
X7846Y248488D02*
D03*
X13752Y236677D02*
D03*
X7846Y130378D02*
D03*
X13752Y118567D02*
D03*
X7846Y106756D02*
D03*
Y83134D02*
D03*
X13752Y71323D02*
D03*
Y47701D02*
D03*
X7846Y35890D02*
D03*
X13752Y24079D02*
D03*
X7846Y12268D02*
D03*
X13752Y-23166D02*
D03*
Y-46788D02*
D03*
X7846Y-58599D02*
D03*
X13752Y-70410D02*
D03*
X7846Y-82221D02*
D03*
X13752Y-94032D02*
D03*
X7846Y-105843D02*
D03*
Y-129465D02*
D03*
Y-223953D02*
D03*
X13752Y-235764D02*
D03*
X7846Y-247575D02*
D03*
X13752Y-259386D02*
D03*
X7846Y-271197D02*
D03*
X-3965Y248488D02*
D03*
X1941Y236677D02*
D03*
X-3965Y130378D02*
D03*
X1941Y118567D02*
D03*
X-3965Y106756D02*
D03*
X1941Y94945D02*
D03*
X-3965Y83134D02*
D03*
X1941Y71323D02*
D03*
Y47701D02*
D03*
X-3965Y35890D02*
D03*
X1941Y24079D02*
D03*
Y457D02*
D03*
Y-23166D02*
D03*
Y-46788D02*
D03*
Y-70410D02*
D03*
X-3965Y-82221D02*
D03*
X1941Y-94032D02*
D03*
X-3965Y-105843D02*
D03*
Y-223953D02*
D03*
Y-247575D02*
D03*
X-15776Y248488D02*
D03*
X-9870Y236677D02*
D03*
Y142189D02*
D03*
X-15776Y130378D02*
D03*
Y106756D02*
D03*
X-9870Y94945D02*
D03*
X-15776Y83134D02*
D03*
X-9870Y71323D02*
D03*
Y47701D02*
D03*
X-15776Y35890D02*
D03*
X-9870Y24079D02*
D03*
Y-23166D02*
D03*
Y-46788D02*
D03*
Y-70410D02*
D03*
X-15776Y-82221D02*
D03*
X-9870Y-94032D02*
D03*
X-15776Y-105843D02*
D03*
Y-153087D02*
D03*
X-9870Y-235764D02*
D03*
X-15776Y-247575D02*
D03*
X-9870Y-259386D02*
D03*
X-15776Y-271197D02*
D03*
X-27587Y248488D02*
D03*
X-21681Y236677D02*
D03*
Y142189D02*
D03*
X-27587Y130378D02*
D03*
X-21681Y118567D02*
D03*
X-27587Y106756D02*
D03*
X-21681Y94945D02*
D03*
X-27587Y83134D02*
D03*
X-21681Y71323D02*
D03*
Y47701D02*
D03*
X-27587Y35890D02*
D03*
X-21681Y24079D02*
D03*
Y-23166D02*
D03*
Y-46788D02*
D03*
Y-70410D02*
D03*
X-27587Y-82221D02*
D03*
X-21681Y-94032D02*
D03*
X-27587Y-105843D02*
D03*
X-21681Y-141276D02*
D03*
X-27587Y-223953D02*
D03*
X-21681Y-235764D02*
D03*
X-27587Y-247575D02*
D03*
X-21681Y-259386D02*
D03*
X-27587Y-271197D02*
D03*
X-39398Y248488D02*
D03*
X-33492Y236677D02*
D03*
Y213055D02*
D03*
X-39398Y201244D02*
D03*
X-33492Y189433D02*
D03*
X-39398Y177622D02*
D03*
X-33492Y165811D02*
D03*
X-39398Y154000D02*
D03*
X-33492Y118567D02*
D03*
X-39398Y106756D02*
D03*
X-33492Y94945D02*
D03*
X-39398Y83134D02*
D03*
X-33492Y71323D02*
D03*
Y47701D02*
D03*
X-39398Y35890D02*
D03*
X-33492Y24079D02*
D03*
Y457D02*
D03*
Y-23166D02*
D03*
Y-46788D02*
D03*
Y-70410D02*
D03*
X-39398Y-82221D02*
D03*
X-33492Y-94032D02*
D03*
X-39398Y-223953D02*
D03*
X-33492Y-235764D02*
D03*
X-39398Y-247575D02*
D03*
X-33492Y-259386D02*
D03*
X-39398Y-271197D02*
D03*
X-51209Y248488D02*
D03*
X-45303Y213055D02*
D03*
X-51209Y201244D02*
D03*
X-45303Y189433D02*
D03*
X-51209Y177622D02*
D03*
X-45303Y165811D02*
D03*
X-51209Y154000D02*
D03*
X-45303Y142189D02*
D03*
Y118567D02*
D03*
X-51209Y106756D02*
D03*
X-45303Y94945D02*
D03*
X-51209Y83134D02*
D03*
X-45303Y71323D02*
D03*
Y47701D02*
D03*
X-51209Y35890D02*
D03*
X-45303Y24079D02*
D03*
Y457D02*
D03*
X-51209Y-11355D02*
D03*
Y-58599D02*
D03*
Y-223953D02*
D03*
X-45303Y-259386D02*
D03*
X-63020Y272110D02*
D03*
X-57114Y260299D02*
D03*
X-63020Y224866D02*
D03*
X-57114Y213055D02*
D03*
X-63020Y201244D02*
D03*
X-57114Y189433D02*
D03*
X-63020Y177622D02*
D03*
Y154000D02*
D03*
X-57114Y142189D02*
D03*
X-63020Y130378D02*
D03*
X-57114Y94945D02*
D03*
X-63020Y83134D02*
D03*
X-57114Y71323D02*
D03*
Y47701D02*
D03*
X-63020Y35890D02*
D03*
X-57114Y24079D02*
D03*
Y457D02*
D03*
X-63020Y-11355D02*
D03*
Y-105843D02*
D03*
Y-247575D02*
D03*
Y-271197D02*
D03*
X-74831Y272110D02*
D03*
X-68925Y236677D02*
D03*
X-74831Y224866D02*
D03*
X-68925Y213055D02*
D03*
X-74831Y201244D02*
D03*
X-68925Y189433D02*
D03*
X-74831Y177622D02*
D03*
X-68925Y165811D02*
D03*
X-74831Y154000D02*
D03*
X-68925Y142189D02*
D03*
X-74831Y130378D02*
D03*
X-68925Y118567D02*
D03*
X-74831Y106756D02*
D03*
Y83134D02*
D03*
Y59512D02*
D03*
X-68925Y-46788D02*
D03*
X-74831Y-82221D02*
D03*
X-68925Y-94032D02*
D03*
X-74831Y-105843D02*
D03*
Y-200331D02*
D03*
X-68925Y-212142D02*
D03*
Y-235764D02*
D03*
Y-259386D02*
D03*
X-74831Y-271197D02*
D03*
X-86642Y295732D02*
D03*
X-80736Y283921D02*
D03*
X-86642Y248488D02*
D03*
X-80736Y236677D02*
D03*
X-86642Y224866D02*
D03*
X-80736Y213055D02*
D03*
X-86642Y201244D02*
D03*
Y177622D02*
D03*
X-80736Y165811D02*
D03*
X-86642Y154000D02*
D03*
X-80736Y142189D02*
D03*
X-86642Y130378D02*
D03*
X-80736Y118567D02*
D03*
X-86642Y106756D02*
D03*
X-80736Y94945D02*
D03*
Y71323D02*
D03*
X-86642Y59512D02*
D03*
X-80736Y47701D02*
D03*
X-86642Y12268D02*
D03*
X-80736Y-94032D02*
D03*
X-86642Y-129465D02*
D03*
X-80736Y-188520D02*
D03*
Y-235764D02*
D03*
X-86642Y-247575D02*
D03*
Y-271197D02*
D03*
X-98453Y295732D02*
D03*
X-92547Y260299D02*
D03*
X-98453Y248488D02*
D03*
X-92547Y236677D02*
D03*
X-98453Y224866D02*
D03*
X-92547Y213055D02*
D03*
X-98453Y201244D02*
D03*
X-92547Y189433D02*
D03*
X-98453Y177622D02*
D03*
X-92547Y165811D02*
D03*
X-98453Y154000D02*
D03*
X-92547Y142189D02*
D03*
X-98453Y130378D02*
D03*
X-92547Y118567D02*
D03*
X-98453Y59512D02*
D03*
Y-129465D02*
D03*
Y-223953D02*
D03*
Y-247575D02*
D03*
Y-271197D02*
D03*
X-104358Y260299D02*
D03*
X-110264Y248488D02*
D03*
X-104358Y236677D02*
D03*
Y142189D02*
D03*
X-110264Y130378D02*
D03*
X-104358Y118567D02*
D03*
X-110264Y106756D02*
D03*
Y59512D02*
D03*
Y35890D02*
D03*
Y12268D02*
D03*
Y-105843D02*
D03*
Y-129465D02*
D03*
X-104358Y-188520D02*
D03*
X-110264Y-200331D02*
D03*
X-104358Y-212142D02*
D03*
X-110264Y-223953D02*
D03*
X-104358Y-259386D02*
D03*
X-110264Y-271197D02*
D03*
X-122075Y272110D02*
D03*
Y248488D02*
D03*
Y224866D02*
D03*
Y130378D02*
D03*
X-116170Y118567D02*
D03*
X-122075Y106756D02*
D03*
X-116170Y94945D02*
D03*
X-122075Y-82221D02*
D03*
X-116170Y-117654D02*
D03*
X-122075Y-129465D02*
D03*
X-116170Y-188520D02*
D03*
X-122075Y-200331D02*
D03*
X-116170Y-212142D02*
D03*
Y-259386D02*
D03*
X-122075Y-271197D02*
D03*
X-133886Y295732D02*
D03*
X-127980Y236677D02*
D03*
X-133886Y224866D02*
D03*
Y201244D02*
D03*
Y177622D02*
D03*
X-127980Y118567D02*
D03*
X-133886Y106756D02*
D03*
X-127980Y94945D02*
D03*
X-133886Y-82221D02*
D03*
X-127980Y-117654D02*
D03*
X-133886Y-129465D02*
D03*
X-127980Y-188520D02*
D03*
X-133886Y-200331D02*
D03*
X-127980Y-212142D02*
D03*
X-133886Y-223953D02*
D03*
X-127980Y-259386D02*
D03*
X-145697Y295732D02*
D03*
X-139792Y260299D02*
D03*
X-145697Y224866D02*
D03*
X-139792Y213055D02*
D03*
X-145697Y201244D02*
D03*
X-139792Y189433D02*
D03*
X-145697Y177622D02*
D03*
X-139792Y118567D02*
D03*
X-145697Y106756D02*
D03*
Y35890D02*
D03*
X-139792Y24079D02*
D03*
X-145697Y12268D02*
D03*
Y-34977D02*
D03*
Y-58599D02*
D03*
Y-129465D02*
D03*
X-139792Y-141276D02*
D03*
Y-188520D02*
D03*
X-145697Y-200331D02*
D03*
X-139792Y-212142D02*
D03*
X-145697Y-223953D02*
D03*
X-151602Y283921D02*
D03*
X-157508Y248488D02*
D03*
X-151602Y236677D02*
D03*
Y213055D02*
D03*
X-157508Y201244D02*
D03*
X-151602Y189433D02*
D03*
X-157508Y177622D02*
D03*
X-151602Y165811D02*
D03*
Y-188520D02*
D03*
X-157508Y-200331D02*
D03*
X-151602Y-212142D02*
D03*
X-157508Y-223953D02*
D03*
X-151602Y-235764D02*
D03*
X-157508Y-271197D02*
D03*
X-163414Y283921D02*
D03*
X-169319Y272110D02*
D03*
X-163414Y260299D02*
D03*
X-169319Y248488D02*
D03*
X-163414Y236677D02*
D03*
X-169319Y224866D02*
D03*
Y201244D02*
D03*
X-163414Y189433D02*
D03*
X-169319Y177622D02*
D03*
X-163414Y165811D02*
D03*
Y-188520D02*
D03*
X-169319Y-200331D02*
D03*
X-163414Y-212142D02*
D03*
X-169319Y-223953D02*
D03*
X-163414Y-235764D02*
D03*
X-181130Y272110D02*
D03*
Y248488D02*
D03*
X-175225Y236677D02*
D03*
Y213055D02*
D03*
X-181130Y201244D02*
D03*
X-175225Y189433D02*
D03*
X-181130Y177622D02*
D03*
X-175225Y165811D02*
D03*
X-181130Y154000D02*
D03*
X-175225Y-188520D02*
D03*
X-181130Y-200331D02*
D03*
X-175225Y-212142D02*
D03*
X-181130Y-223953D02*
D03*
X-175225Y-235764D02*
D03*
X-181130Y-247575D02*
D03*
X-175225Y-259386D02*
D03*
X-181130Y-271197D02*
D03*
X-192941Y248488D02*
D03*
Y201244D02*
D03*
Y177622D02*
D03*
X-187036Y165811D02*
D03*
X-192941Y154000D02*
D03*
X-187036Y142189D02*
D03*
Y-188520D02*
D03*
X-192941Y-200331D02*
D03*
X-187036Y-212142D02*
D03*
X-192941Y-223953D02*
D03*
X-187036Y-235764D02*
D03*
X-192941Y-247575D02*
D03*
X-187036Y-259386D02*
D03*
X-198847Y260299D02*
D03*
X-204752Y248488D02*
D03*
Y224866D02*
D03*
X-198847Y213055D02*
D03*
X-204752Y201244D02*
D03*
X-198847Y189433D02*
D03*
X-204752Y177622D02*
D03*
X-198847Y165811D02*
D03*
X-204752Y154000D02*
D03*
X-198847Y142189D02*
D03*
X-204752Y106756D02*
D03*
X-198847Y94945D02*
D03*
Y47701D02*
D03*
X-204752Y35890D02*
D03*
Y12268D02*
D03*
Y-129465D02*
D03*
X-198847Y-141276D02*
D03*
X-204752Y-153087D02*
D03*
Y-176709D02*
D03*
X-198847Y-188520D02*
D03*
X-204752Y-223953D02*
D03*
X-198847Y-235764D02*
D03*
X-204752Y-247575D02*
D03*
X-198847Y-259386D02*
D03*
X-216563Y248488D02*
D03*
X-210658Y236677D02*
D03*
Y213055D02*
D03*
X-216563Y201244D02*
D03*
X-210658Y189433D02*
D03*
X-216563Y177622D02*
D03*
X-210658Y165811D02*
D03*
X-216563Y154000D02*
D03*
X-210658Y142189D02*
D03*
X-216563Y130378D02*
D03*
X-210658Y118567D02*
D03*
X-216563Y106756D02*
D03*
X-210658Y94945D02*
D03*
Y47701D02*
D03*
X-216563Y35890D02*
D03*
X-210658Y24079D02*
D03*
X-216563Y12268D02*
D03*
Y-58599D02*
D03*
Y-129465D02*
D03*
X-210658Y-141276D02*
D03*
Y-164898D02*
D03*
X-216563Y-176709D02*
D03*
X-210658Y-188520D02*
D03*
X-216563Y-223953D02*
D03*
X-210658Y-235764D02*
D03*
X-216563Y-247575D02*
D03*
X-222469Y236677D02*
D03*
Y213055D02*
D03*
X-228374Y201244D02*
D03*
X-222469Y189433D02*
D03*
X-228374Y177622D02*
D03*
X-222469Y165811D02*
D03*
X-228374Y154000D02*
D03*
X-222469Y142189D02*
D03*
Y118567D02*
D03*
X-228374Y106756D02*
D03*
X-222469Y94945D02*
D03*
Y47701D02*
D03*
X-228374Y35890D02*
D03*
Y-58599D02*
D03*
Y-82221D02*
D03*
X-222469Y-117654D02*
D03*
X-228374Y-129465D02*
D03*
X-222469Y-141276D02*
D03*
Y-164898D02*
D03*
X-228374Y-176709D02*
D03*
X-222469Y-188520D02*
D03*
X-228374Y-200331D02*
D03*
Y-223953D02*
D03*
X-222469Y-235764D02*
D03*
X-240185Y224866D02*
D03*
X-234280Y213055D02*
D03*
X-240185Y177622D02*
D03*
X-234280Y165811D02*
D03*
Y142189D02*
D03*
Y118567D02*
D03*
X-240185Y106756D02*
D03*
X-234280Y47701D02*
D03*
X-240185Y35890D02*
D03*
Y12268D02*
D03*
Y-58599D02*
D03*
X-234280Y-70410D02*
D03*
X-240185Y-82221D02*
D03*
Y-129465D02*
D03*
X-234280Y-141276D02*
D03*
Y-164898D02*
D03*
X-240185Y-176709D02*
D03*
X-234280Y-188520D02*
D03*
X-240185Y-200331D02*
D03*
X-234280Y-212142D02*
D03*
X-240185Y-223953D02*
D03*
X-246091Y213055D02*
D03*
X-251996Y201244D02*
D03*
X-246091Y189433D02*
D03*
X-251996Y177622D02*
D03*
X-246091Y165811D02*
D03*
Y118567D02*
D03*
X-251996Y106756D02*
D03*
X-246091Y94945D02*
D03*
X-251996Y83134D02*
D03*
X-246091Y47701D02*
D03*
X-251996Y35890D02*
D03*
X-246091Y24079D02*
D03*
X-251996Y12268D02*
D03*
X-246091Y-23166D02*
D03*
X-251996Y-58599D02*
D03*
X-246091Y-70410D02*
D03*
X-251996Y-82221D02*
D03*
Y-129465D02*
D03*
X-246091Y-164898D02*
D03*
X-251996Y-176709D02*
D03*
X-246091Y-188520D02*
D03*
X-251996Y-200331D02*
D03*
X-246091Y-212142D02*
D03*
X-257902Y189433D02*
D03*
X-263807Y177622D02*
D03*
X-257902Y165811D02*
D03*
X-263807Y130378D02*
D03*
X-257902Y118567D02*
D03*
X-263807Y106756D02*
D03*
X-257902Y94945D02*
D03*
X-263807Y83134D02*
D03*
X-257902Y47701D02*
D03*
X-263807Y35890D02*
D03*
X-257902Y24079D02*
D03*
X-263807Y12268D02*
D03*
Y-11355D02*
D03*
X-257902Y-23166D02*
D03*
X-263807Y-58599D02*
D03*
X-257902Y-70410D02*
D03*
X-263807Y-82221D02*
D03*
Y-129465D02*
D03*
Y-176709D02*
D03*
X-257902Y-188520D02*
D03*
X-269713Y189433D02*
D03*
X-275618Y177622D02*
D03*
X-269713Y165811D02*
D03*
X-275618Y154000D02*
D03*
Y130378D02*
D03*
X-269713Y118567D02*
D03*
X-275618Y106756D02*
D03*
X-269713Y94945D02*
D03*
X-275618Y83134D02*
D03*
X-269713Y71323D02*
D03*
X-275618Y59512D02*
D03*
X-269713Y47701D02*
D03*
X-275618Y35890D02*
D03*
X-269713Y24079D02*
D03*
X-275618Y12268D02*
D03*
X-269713Y457D02*
D03*
X-275618Y-11355D02*
D03*
X-269713Y-23166D02*
D03*
X-275618Y-34977D02*
D03*
X-269713Y-46788D02*
D03*
X-275618Y-58599D02*
D03*
X-269713Y-70410D02*
D03*
X-275618Y-82221D02*
D03*
X-269713Y-94032D02*
D03*
X-275618Y-105843D02*
D03*
X-269713Y-117654D02*
D03*
X-275618Y-129465D02*
D03*
Y-153087D02*
D03*
X-269713Y-164898D02*
D03*
X-275618Y-176709D02*
D03*
X-269713Y-188520D02*
D03*
X-281524Y165811D02*
D03*
X-287429Y154000D02*
D03*
X-281524Y142189D02*
D03*
X-287429Y130378D02*
D03*
X-281524Y118567D02*
D03*
X-287429Y106756D02*
D03*
X-281524Y94945D02*
D03*
X-287429Y83134D02*
D03*
X-281524Y71323D02*
D03*
X-287429Y59512D02*
D03*
X-281524Y47701D02*
D03*
X-287429Y35890D02*
D03*
X-281524Y24079D02*
D03*
X-287429Y12268D02*
D03*
X-281524Y457D02*
D03*
X-287429Y-11355D02*
D03*
X-281524Y-23166D02*
D03*
X-287429Y-34977D02*
D03*
X-281524Y-46788D02*
D03*
X-287429Y-58599D02*
D03*
X-281524Y-70410D02*
D03*
X-287429Y-82221D02*
D03*
X-281524Y-94032D02*
D03*
X-287429Y-105843D02*
D03*
X-281524Y-117654D02*
D03*
X-287429Y-129465D02*
D03*
X-281524Y-141276D02*
D03*
X-287429Y-153087D02*
D03*
X-281524Y-164898D02*
D03*
X-293335Y142189D02*
D03*
X-299240Y130378D02*
D03*
X-293335Y118567D02*
D03*
X-299240Y106756D02*
D03*
X-293335Y94945D02*
D03*
X-299240Y83134D02*
D03*
X-293335Y71323D02*
D03*
X-299240Y59512D02*
D03*
X-293335Y47701D02*
D03*
X-299240Y35890D02*
D03*
X-293335Y24079D02*
D03*
X-299240Y12268D02*
D03*
X-293335Y457D02*
D03*
X-299240Y-11355D02*
D03*
X-293335Y-23166D02*
D03*
X-299240Y-34977D02*
D03*
X-293335Y-46788D02*
D03*
X-299240Y-58599D02*
D03*
X-293335Y-70410D02*
D03*
X-299240Y-82221D02*
D03*
X-293335Y-94032D02*
D03*
X-299240Y-105843D02*
D03*
X-293335Y-117654D02*
D03*
X-299240Y-129465D02*
D03*
X-293335Y-141276D02*
D03*
X-305146Y118567D02*
D03*
X-311051Y106756D02*
D03*
X-305146Y94945D02*
D03*
X-311051Y83134D02*
D03*
X-305146Y71323D02*
D03*
X-311051Y59512D02*
D03*
X-305146Y47701D02*
D03*
X-311051Y35890D02*
D03*
X-305146Y24079D02*
D03*
X-311051Y12268D02*
D03*
X-305146Y457D02*
D03*
X-311051Y-11355D02*
D03*
X-305146Y-23166D02*
D03*
X-311051Y-34977D02*
D03*
X-305146Y-46788D02*
D03*
X-311051Y-58599D02*
D03*
X-305146Y-70410D02*
D03*
X-311051Y-82221D02*
D03*
X-305146Y-94032D02*
D03*
X-311051Y-105843D02*
D03*
X-305146Y-117654D02*
D03*
X-316957Y71323D02*
D03*
X-322862Y59512D02*
D03*
X-316957Y47701D02*
D03*
X-322862Y35890D02*
D03*
X-316957Y24079D02*
D03*
X-322862Y12268D02*
D03*
X-316957Y457D02*
D03*
X-322862Y-11355D02*
D03*
X-316957Y-23166D02*
D03*
X-322862Y-34977D02*
D03*
X-316957Y-46788D02*
D03*
X-322862Y-58599D02*
D03*
X-316957Y-70410D02*
D03*
D76*
X282794Y89411D02*
D03*
X-76042Y-69303D02*
D03*
X-85197Y27911D02*
D03*
X57579Y66437D02*
D03*
X-94488Y-186614D02*
D03*
X80512Y-157972D02*
D03*
X6299Y-161024D02*
D03*
X53740Y57185D02*
D03*
X-85126Y36167D02*
D03*
X-70276Y37213D02*
D03*
X-67618Y12402D02*
D03*
X-2362Y171063D02*
D03*
X-76386Y-257768D02*
D03*
X-57284Y-218307D02*
D03*
X5709Y181299D02*
D03*
X-88878Y24409D02*
D03*
X76575Y75787D02*
D03*
X83858Y74803D02*
D03*
X70669Y75787D02*
D03*
X109153Y-235630D02*
D03*
X79823Y-239665D02*
D03*
X-10728Y7492D02*
D03*
X-58760Y-59842D02*
D03*
X-62992D02*
D03*
X-25197Y-5945D02*
D03*
X-10073Y-14139D02*
D03*
X-20965Y9055D02*
D03*
X-75886Y-125303D02*
D03*
X-102559Y-218209D02*
D03*
X-165847Y-246555D02*
D03*
X-131502Y-233082D02*
D03*
X-106988Y-233957D02*
D03*
X-50787Y-95571D02*
D03*
X-31596Y-156602D02*
D03*
X-125394Y-100000D02*
D03*
X-127067Y-82579D02*
D03*
X-211127Y-117069D02*
D03*
X-212234Y-53319D02*
D03*
X194323Y-114370D02*
D03*
X152067Y132087D02*
D03*
X144980Y142913D02*
D03*
X171358Y143405D02*
D03*
X184843Y166831D02*
D03*
X184646Y202260D02*
D03*
X169193Y208071D02*
D03*
X165551Y244240D02*
D03*
X144095Y256594D02*
D03*
X-143996Y256890D02*
D03*
X-149606Y241535D02*
D03*
X-192913Y185039D02*
D03*
X-172146Y207382D02*
D03*
X107571Y274410D02*
D03*
X107776Y264862D02*
D03*
X-210630Y52490D02*
D03*
X210433Y75254D02*
D03*
X211713Y4880D02*
D03*
X-44786Y-102817D02*
D03*
X-45571Y-31439D02*
D03*
X-75689Y-31538D02*
D03*
X-48329Y-102817D02*
D03*
X268701Y79191D02*
D03*
X271555Y8325D02*
D03*
X-85197Y32242D02*
D03*
X37598Y-11656D02*
D03*
X323441Y33016D02*
D03*
X279527Y86474D02*
D03*
X318898Y29683D02*
D03*
X-109941Y-39313D02*
D03*
X-113386Y-85475D02*
D03*
X-113091Y-15494D02*
D03*
X-110925Y-9982D02*
D03*
X279724Y94742D02*
D03*
X289272Y27025D02*
D03*
X292421Y29388D02*
D03*
X295079Y32045D02*
D03*
X270571Y32833D02*
D03*
X-127709Y-141282D02*
D03*
X-66536D02*
D03*
X-80512Y-132030D02*
D03*
X88878Y-134097D02*
D03*
X62500Y-137640D02*
D03*
X72047Y-111951D02*
D03*
X40453Y-117069D02*
D03*
X58563Y-117167D02*
D03*
X58366Y-120219D02*
D03*
X194882Y140707D02*
D03*
X321358Y26337D02*
D03*
X-71063Y-19316D02*
D03*
X-86811Y-55356D02*
D03*
X-86713Y-69727D02*
D03*
X-73622Y-27896D02*
D03*
X-110532Y1730D02*
D03*
X-131595Y2518D02*
D03*
X28839Y-38821D02*
D03*
X28802Y-34999D02*
D03*
X45571Y-5707D02*
D03*
X-36713Y-16085D02*
D03*
X-36909Y-56537D02*
D03*
X-41634Y-31341D02*
D03*
X-77461Y9407D02*
D03*
X-79776Y-24254D02*
D03*
X-55416Y-103014D02*
D03*
X-51873Y-102817D02*
D03*
X-41242Y-102719D02*
D03*
X121161Y93167D02*
D03*
X282972Y-81931D02*
D03*
X-79728Y-68545D02*
D03*
X-79429Y-45809D02*
D03*
X-84055D02*
D03*
X-98721Y-212935D02*
D03*
X85827Y-61164D02*
D03*
X-82973Y17183D02*
D03*
X40453Y-119727D02*
D03*
X273720Y-86262D02*
D03*
X121653Y-46793D02*
D03*
X115256Y-75632D02*
D03*
X162008Y142872D02*
D03*
X277114Y-40677D02*
D03*
X269947Y-89801D02*
D03*
X43551Y-1602D02*
D03*
X120815Y-14102D02*
D03*
X120421Y-7213D02*
D03*
X131642Y15721D02*
D03*
X133905Y26744D02*
D03*
X-127709Y75957D02*
D03*
X-123673Y85110D02*
D03*
X-117965Y-13512D02*
D03*
X81642Y-53866D02*
D03*
X83020Y-37134D02*
D03*
X-117571Y-74446D02*
D03*
X-117571Y-78079D02*
D03*
X-121606Y-71681D02*
D03*
X29823Y-145803D02*
D03*
X8323Y-146803D02*
D03*
X-18177Y-126303D02*
D03*
X-25177Y-125803D02*
D03*
X-17177Y-116803D02*
D03*
X-27177D02*
D03*
X37823Y-133803D02*
D03*
D77*
X37402Y-228064D02*
D03*
X29921Y-227797D02*
D03*
X31791Y-157409D02*
D03*
X54823Y-145303D02*
D03*
D98*
X8858Y198819D02*
D03*
X-21457D02*
D03*
X-17126D02*
D03*
X-12795Y199606D02*
D03*
X-8465Y198819D02*
D03*
X-4134Y199606D02*
D03*
X197Y198819D02*
D03*
X4528Y197244D02*
D03*
D99*
X28937Y214488D02*
D03*
X-24921Y210000D02*
D03*
D100*
X-18189Y156142D02*
D03*
X4252D02*
D03*
M02*
