G04*
G04 #@! TF.GenerationSoftware,Altium Limited,Altium Designer,20.1.11 (218)*
G04*
G04 Layer_Color=8421504*
%FSLAX25Y25*%
%MOIN*%
G70*
G04*
G04 #@! TF.SameCoordinates,DC62774E-AE12-477B-97F5-19A81F94617E*
G04*
G04*
G04 #@! TF.FilePolarity,Positive*
G04*
G01*
G75*
%ADD16R,0.03268X0.11063*%
%ADD17R,0.02362X0.03937*%
%ADD18R,0.10630X0.04528*%
%ADD19R,0.08661X0.06693*%
%ADD20R,0.03347X0.05118*%
%ADD21R,0.02047X0.02047*%
%ADD22C,0.00709*%
%ADD23R,0.01378X0.00787*%
%ADD24R,0.00787X0.01378*%
%ADD25R,0.02047X0.02047*%
%ADD26R,0.03465X0.04016*%
%ADD27R,0.02165X0.01772*%
%ADD28R,0.04016X0.03465*%
%ADD29R,0.04528X0.02362*%
%ADD30R,0.09449X0.03937*%
%ADD31R,0.09449X0.12992*%
%ADD32O,0.10630X0.03150*%
%ADD33R,0.09252X0.06221*%
%ADD34R,0.01378X0.02756*%
%ADD35R,0.06299X0.07874*%
%ADD36R,0.18504X0.09055*%
%ADD37R,0.04134X0.12795*%
%ADD38R,0.07480X0.05315*%
%ADD39R,0.01968X0.02362*%
%ADD40R,0.06614X0.11614*%
%ADD41R,0.01772X0.02165*%
G36*
X-4567Y-4012D02*
X-4886Y-4331D01*
X-5945D01*
Y-3543D01*
X-4567D01*
Y-4012D01*
D02*
G37*
G36*
X-3543Y-5945D02*
X-4331D01*
Y-4886D01*
X-4012Y-4567D01*
X-3543D01*
Y-5945D01*
D02*
G37*
G36*
X-4567Y4012D02*
Y3543D01*
X-5945D01*
Y4331D01*
X-4886D01*
X-4567Y4012D01*
D02*
G37*
G36*
X-3543Y4567D02*
X-4012D01*
X-4331Y4886D01*
Y5945D01*
X-3543D01*
Y4567D01*
D02*
G37*
G36*
X4331Y-4886D02*
Y-5945D01*
X3543D01*
Y-4567D01*
X4012D01*
X4331Y-4886D01*
D02*
G37*
G36*
X5945Y-4331D02*
X4886D01*
X4567Y-4012D01*
Y-3543D01*
X5945D01*
Y-4331D01*
D02*
G37*
G36*
X4331Y4886D02*
X4012Y4567D01*
X3543D01*
Y5945D01*
X4331D01*
Y4886D01*
D02*
G37*
G36*
X5945Y3543D02*
X4567D01*
Y4012D01*
X4886Y4331D01*
X5945D01*
Y3543D01*
D02*
G37*
D16*
X-208032Y-30047D02*
D03*
X-221102D02*
D03*
X-208032Y-95923D02*
D03*
X-221102D02*
D03*
X211870Y45197D02*
D03*
X224941D02*
D03*
X212067Y-24606D02*
D03*
X225138D02*
D03*
D17*
X-200591Y59842D02*
D03*
Y70669D02*
D03*
X-193110D02*
D03*
Y59842D02*
D03*
X-196850D02*
D03*
X-200787Y-117126D02*
D03*
X-197047D02*
D03*
X-193307D02*
D03*
Y-106299D02*
D03*
X-200787D02*
D03*
X-201476Y-52461D02*
D03*
X-197736D02*
D03*
X-193996D02*
D03*
Y-41634D02*
D03*
X-201476D02*
D03*
X201063Y-13216D02*
D03*
X193583D02*
D03*
Y-2390D02*
D03*
X197323D02*
D03*
X201063D02*
D03*
X201083Y54724D02*
D03*
X193602D02*
D03*
Y65551D02*
D03*
X197343D02*
D03*
X201083D02*
D03*
D18*
X19823Y-151209D02*
D03*
Y-139398D02*
D03*
D19*
X-3177Y-122803D02*
D03*
Y-146819D02*
D03*
D20*
X2559Y-14075D02*
D03*
X-4134D02*
D03*
X-19882Y787D02*
D03*
X-26575D02*
D03*
D21*
X16240D02*
D03*
X13091D02*
D03*
X194488Y-95276D02*
D03*
X197638D02*
D03*
X44748Y-133803D02*
D03*
X47898D02*
D03*
D22*
X-5256Y-3937D02*
D03*
Y3937D02*
D03*
X5256D02*
D03*
Y-3937D02*
D03*
X-3937Y5256D02*
D03*
X3937D02*
D03*
Y-5256D02*
D03*
X-3937D02*
D03*
D23*
X-5256Y-2362D02*
D03*
Y-787D02*
D03*
Y787D02*
D03*
Y2362D02*
D03*
X5256D02*
D03*
Y787D02*
D03*
Y-787D02*
D03*
Y-2362D02*
D03*
D24*
X-2362Y5256D02*
D03*
X-787D02*
D03*
X787D02*
D03*
X2362D02*
D03*
Y-5256D02*
D03*
X787D02*
D03*
X-787D02*
D03*
X-2362D02*
D03*
D25*
X-9252Y16550D02*
D03*
Y13401D02*
D03*
X-5118Y16550D02*
D03*
Y13401D02*
D03*
X-787Y16550D02*
D03*
Y13401D02*
D03*
X-79677Y-31721D02*
D03*
Y-28571D02*
D03*
X84685Y-125140D02*
D03*
Y-128289D02*
D03*
X84819Y-117069D02*
D03*
Y-120219D02*
D03*
X-84677Y-110878D02*
D03*
Y-107728D02*
D03*
Y-115728D02*
D03*
Y-118878D02*
D03*
D26*
X-224547Y-122384D02*
D03*
X-211673D02*
D03*
X-225965Y58563D02*
D03*
X-213090D02*
D03*
D27*
X-204980Y-125534D02*
D03*
Y-121990D02*
D03*
X206323Y1238D02*
D03*
Y4781D02*
D03*
X206004Y69193D02*
D03*
Y72736D02*
D03*
X-205669Y-60658D02*
D03*
Y-57114D02*
D03*
X-204725Y51703D02*
D03*
Y55246D02*
D03*
X-63484Y-220276D02*
D03*
Y-223819D02*
D03*
X84323Y-105213D02*
D03*
Y-101670D02*
D03*
X4232Y-220177D02*
D03*
Y-223721D02*
D03*
X62823Y-141532D02*
D03*
Y-145075D02*
D03*
X67170Y-145075D02*
D03*
Y-141532D02*
D03*
X79323Y-101670D02*
D03*
Y-105213D02*
D03*
X-204980Y-117996D02*
D03*
Y-114453D02*
D03*
X-205669Y-53319D02*
D03*
Y-49776D02*
D03*
X206323Y-5575D02*
D03*
Y-2032D02*
D03*
X205823Y62425D02*
D03*
Y65969D02*
D03*
X-204677Y59087D02*
D03*
Y62630D02*
D03*
D28*
X218405Y-671D02*
D03*
Y12203D02*
D03*
X218209Y70039D02*
D03*
Y82913D02*
D03*
X-221752Y-47008D02*
D03*
Y-59882D02*
D03*
D29*
X36705Y-141563D02*
D03*
Y-145303D02*
D03*
Y-149043D02*
D03*
X46941D02*
D03*
Y-145303D02*
D03*
Y-141563D02*
D03*
D30*
X-54177Y-113693D02*
D03*
Y-122748D02*
D03*
Y-131803D02*
D03*
D31*
X-31343Y-122748D02*
D03*
D32*
X219291Y157087D02*
D03*
Y166929D02*
D03*
Y176772D02*
D03*
X196850Y157087D02*
D03*
Y166929D02*
D03*
Y176772D02*
D03*
D33*
X99213Y-229823D02*
D03*
D34*
X95374Y-224016D02*
D03*
X97933D02*
D03*
X100492D02*
D03*
X103051D02*
D03*
Y-235630D02*
D03*
X100492D02*
D03*
X97933D02*
D03*
X95374D02*
D03*
D35*
X-134843Y-254528D02*
D03*
Y-275787D02*
D03*
X-166339D02*
D03*
Y-254528D02*
D03*
X-150591Y-275787D02*
D03*
Y-254528D02*
D03*
D36*
X-193602Y126279D02*
D03*
X-230217D02*
D03*
X-183366Y-157874D02*
D03*
X-219980D02*
D03*
X-226870Y18996D02*
D03*
X-190256D02*
D03*
X212795Y-80118D02*
D03*
X249409D02*
D03*
X190847Y106988D02*
D03*
X227461D02*
D03*
D37*
X-199094Y80858D02*
D03*
X-176260D02*
D03*
X-177063Y-95724D02*
D03*
X-199898D02*
D03*
X-176752Y-30047D02*
D03*
X-199587D02*
D03*
X201740Y-24303D02*
D03*
X178905D02*
D03*
X201240Y45197D02*
D03*
X178405D02*
D03*
D38*
X16964Y-131507D02*
D03*
Y-118909D02*
D03*
X26823Y-131507D02*
D03*
Y-118909D02*
D03*
D39*
X75394Y-247736D02*
D03*
Y-243799D02*
D03*
X-84153Y-35728D02*
D03*
Y-39665D02*
D03*
X-79823Y-35671D02*
D03*
Y-39608D02*
D03*
X75394Y-239567D02*
D03*
Y-235630D02*
D03*
D40*
X-225087Y80358D02*
D03*
X-206268D02*
D03*
D41*
X-217913Y207382D02*
D03*
X-214370D02*
D03*
X217421Y207874D02*
D03*
X213878D02*
D03*
X221555Y202260D02*
D03*
X218012D02*
D03*
X-232480Y185039D02*
D03*
X-236024D02*
D03*
X-152362Y256791D02*
D03*
X-148819D02*
D03*
X175689Y244142D02*
D03*
X172146D02*
D03*
X-175689Y241535D02*
D03*
X-172146D02*
D03*
X152461Y256594D02*
D03*
X148917D02*
D03*
M02*
