G04*
G04 #@! TF.GenerationSoftware,Altium Limited,Altium Designer,22.3.1 (43)*
G04*
G04 Layer_Color=8388736*
%FSLAX25Y25*%
%MOIN*%
G70*
G04*
G04 #@! TF.SameCoordinates,C5F4699D-FB43-4DF1-913B-A25CA7802ECB*
G04*
G04*
G04 #@! TF.FilePolarity,Negative*
G04*
G01*
G75*
%ADD16R,0.03543X0.03150*%
%ADD20R,0.02362X0.02362*%
%ADD22R,0.01784X0.01103*%
%ADD23R,0.07591X0.09599*%
%ADD24R,0.02808X0.02395*%
%ADD25R,0.04698X0.02395*%
%ADD26R,0.07808X0.03635*%
%ADD27R,0.09461X0.10052*%
%ADD28R,0.02965X0.02965*%
%ADD29R,0.03792X0.03635*%
%ADD30C,0.06706*%
%ADD31R,0.06706X0.06706*%
D16*
X19685Y19488D02*
D03*
Y12008D02*
D03*
X11811Y15748D02*
D03*
D20*
X-39075Y11811D02*
D03*
X-34941D02*
D03*
X-39075Y1575D02*
D03*
X-34941D02*
D03*
D22*
X36122Y11197D02*
D03*
Y20299D02*
D03*
D23*
X33220Y15756D02*
D03*
X34567Y-16181D02*
D03*
D24*
X37618Y19654D02*
D03*
Y17055D02*
D03*
Y14457D02*
D03*
Y11858D02*
D03*
D25*
X25374D02*
D03*
Y14457D02*
D03*
Y17055D02*
D03*
Y19654D02*
D03*
X26722Y-12284D02*
D03*
Y-14882D02*
D03*
Y-17480D02*
D03*
Y-20079D02*
D03*
X38022D02*
D03*
Y-17480D02*
D03*
Y-14882D02*
D03*
Y-12284D02*
D03*
D26*
X-26713Y16555D02*
D03*
Y11555D02*
D03*
Y6555D02*
D03*
Y1555D02*
D03*
X-4783Y16555D02*
D03*
Y11555D02*
D03*
Y6555D02*
D03*
Y1555D02*
D03*
D27*
X-27264Y-14961D02*
D03*
X-4232D02*
D03*
D28*
X5709Y1575D02*
D03*
X2165D02*
D03*
X5709Y11417D02*
D03*
X2165D02*
D03*
D29*
X13819Y-11811D02*
D03*
X17677D02*
D03*
D30*
X46457Y-15000D02*
D03*
Y-5000D02*
D03*
Y5000D02*
D03*
X-46457Y-15000D02*
D03*
Y-5000D02*
D03*
Y5000D02*
D03*
D31*
X46457Y15000D02*
D03*
X-46457D02*
D03*
M02*
