G04*
G04 #@! TF.GenerationSoftware,Altium Limited,Altium Designer,22.3.1 (43)*
G04*
G04 Layer_Color=32768*
%FSLAX25Y25*%
%MOIN*%
G70*
G04*
G04 #@! TF.SameCoordinates,C5F4699D-FB43-4DF1-913B-A25CA7802ECB*
G04*
G04*
G04 #@! TF.FilePolarity,Positive*
G04*
G01*
G75*
%ADD10C,0.00394*%
%ADD35C,0.00787*%
%ADD36C,0.00197*%
D10*
X-17717Y14961D02*
X-13780D01*
X-15748Y12992D02*
Y16929D01*
X19488Y5807D02*
Y25689D01*
Y5807D02*
X42559D01*
Y25689D01*
X19488D02*
X42559D01*
X13780Y-15748D02*
X17717D01*
X15748Y-17717D02*
Y-13780D01*
X13780Y15748D02*
X17717D01*
X15748Y13780D02*
Y17717D01*
X21043Y-25701D02*
X44114D01*
Y-5819D01*
X21043D02*
X44114D01*
X21043Y-25701D02*
Y-5819D01*
X-17717Y-9055D02*
X-13780D01*
X-15748Y-11024D02*
Y-7087D01*
X-17717Y9055D02*
X-13780D01*
X-15748Y7087D02*
Y11024D01*
Y-16929D02*
Y-12992D01*
X-17717Y-14961D02*
X-13780D01*
X3937Y492D02*
Y2657D01*
X2854Y1575D02*
X5020D01*
X3937Y10335D02*
Y12500D01*
X2854Y11417D02*
X5020D01*
X2854Y-1575D02*
X5020D01*
X3937Y-2657D02*
Y-492D01*
X2854Y-11417D02*
X5020D01*
X3937Y-12500D02*
Y-10335D01*
X14665Y-11811D02*
X16831D01*
X15748Y-12894D02*
Y-10728D01*
X14665Y11811D02*
X16831D01*
X15748Y10728D02*
Y12894D01*
D35*
X9646Y-9449D02*
X21850D01*
Y-22047D02*
Y-9449D01*
X9646Y-22047D02*
X21850D01*
X9646D02*
Y-9449D01*
Y9449D02*
X21850D01*
Y22047D01*
X9646D02*
X21850D01*
X9646Y9449D02*
Y22047D01*
D36*
X394Y5512D02*
Y24409D01*
X-31890Y5512D02*
Y24409D01*
X394D01*
X-31890Y5512D02*
X394D01*
X-30315Y-19685D02*
Y1575D01*
X-1181Y-19685D02*
Y1575D01*
X-30315Y-19685D02*
X-1181D01*
X-30315Y1575D02*
X-1181D01*
X-30315Y-1575D02*
Y19685D01*
X-1181Y-1575D02*
Y19685D01*
X-30315D02*
X-1181D01*
X-30315Y-1575D02*
X-1181D01*
X-31890Y-5512D02*
X394D01*
X-31890Y-24409D02*
X394D01*
X-31890D02*
Y-5512D01*
X394Y-24409D02*
Y-5512D01*
X394Y-197D02*
X7480D01*
X394Y3347D02*
X7480D01*
Y-197D02*
Y3347D01*
X394Y-197D02*
Y3347D01*
Y9646D02*
X7480D01*
X394Y13189D02*
X7480D01*
Y9646D02*
Y13189D01*
X394Y9646D02*
Y13189D01*
Y-3347D02*
Y197D01*
X7480Y-3347D02*
Y197D01*
X394Y-3347D02*
X7480D01*
X394Y197D02*
X7480D01*
X394Y-13189D02*
Y-9646D01*
X7480Y-13189D02*
Y-9646D01*
X394Y-13189D02*
X7480D01*
X394Y-9646D02*
X7480D01*
X11417Y-14173D02*
Y-9449D01*
Y-14173D02*
X20079D01*
X11417Y-9449D02*
X20079D01*
Y-14173D02*
Y-9449D01*
Y9449D02*
Y14173D01*
X11417Y9449D02*
Y14173D01*
X20079D01*
X11417Y9449D02*
X20079D01*
M02*
