G04*
G04 #@! TF.GenerationSoftware,Altium Limited,Altium Designer,22.3.1 (43)*
G04*
G04 Layer_Color=128*
%FSLAX25Y25*%
%MOIN*%
G70*
G04*
G04 #@! TF.SameCoordinates,C5F4699D-FB43-4DF1-913B-A25CA7802ECB*
G04*
G04*
G04 #@! TF.FilePolarity,Positive*
G04*
G01*
G75*
%ADD12R,0.00984X0.00303*%
%ADD13R,0.06791X0.08799*%
%ADD14R,0.02008X0.01595*%
%ADD15R,0.03898X0.01595*%
%ADD16R,0.03543X0.03150*%
%ADD17R,0.07008X0.02835*%
%ADD18R,0.08661X0.09252*%
%ADD19R,0.02165X0.02165*%
%ADD20R,0.02362X0.02362*%
%ADD21R,0.02992X0.02835*%
D12*
X37677Y-11209D02*
D03*
Y-20311D02*
D03*
D13*
X34776Y-15768D02*
D03*
X33691Y15748D02*
D03*
D14*
X39173Y-11870D02*
D03*
Y-14469D02*
D03*
Y-17067D02*
D03*
Y-19665D02*
D03*
D15*
X26929D02*
D03*
Y-17067D02*
D03*
Y-14469D02*
D03*
Y-11870D02*
D03*
X25846Y11850D02*
D03*
Y14449D02*
D03*
Y17047D02*
D03*
Y19646D02*
D03*
X37146D02*
D03*
Y17047D02*
D03*
Y14449D02*
D03*
Y11850D02*
D03*
D16*
X19685Y-19488D02*
D03*
Y-12008D02*
D03*
X11811Y-15748D02*
D03*
D17*
X-26713Y-16555D02*
D03*
Y-11555D02*
D03*
Y-6555D02*
D03*
Y-1555D02*
D03*
X-4783Y-16555D02*
D03*
Y-11555D02*
D03*
Y-6555D02*
D03*
Y-1555D02*
D03*
D18*
X-4232Y14961D02*
D03*
X-27264D02*
D03*
D19*
X2165Y-1575D02*
D03*
X5709D02*
D03*
X2165Y-11417D02*
D03*
X5709D02*
D03*
D20*
X-39075Y-11811D02*
D03*
X-34941D02*
D03*
X-39075Y-1575D02*
D03*
X-34941D02*
D03*
D21*
X17677Y11811D02*
D03*
X13819D02*
D03*
M02*
