G04*
G04 #@! TF.GenerationSoftware,Altium Limited,Altium Designer,22.3.1 (43)*
G04*
G04 Layer_Physical_Order=1*
G04 Layer_Color=255*
%FSLAX25Y25*%
%MOIN*%
G70*
G04*
G04 #@! TF.SameCoordinates,C5F4699D-FB43-4DF1-913B-A25CA7802ECB*
G04*
G04*
G04 #@! TF.FilePolarity,Positive*
G04*
G01*
G75*
%ADD12R,0.00984X0.00303*%
%ADD13R,0.06791X0.08799*%
%ADD14R,0.02008X0.01595*%
%ADD15R,0.03898X0.01595*%
%ADD16R,0.03543X0.03150*%
%ADD17R,0.07008X0.02835*%
%ADD18R,0.08661X0.09252*%
%ADD19R,0.02165X0.02165*%
%ADD20R,0.02362X0.02362*%
%ADD21R,0.02992X0.02835*%
%ADD32C,0.01000*%
%ADD33C,0.05906*%
%ADD34R,0.05906X0.05906*%
G36*
X55118Y22080D02*
X55118Y22080D01*
X29331D01*
X29029Y21955D01*
X28905Y21654D01*
Y20774D01*
X27716D01*
Y20844D01*
X23031D01*
Y20347D01*
X21850D01*
Y21457D01*
X17520D01*
Y20347D01*
X-14128D01*
X-14206Y20315D01*
X-14291Y20315D01*
X-14291Y20315D01*
X-14351Y20290D01*
X-14351Y20290D01*
X-14411Y20230D01*
X-14429Y20223D01*
X-14437Y20204D01*
X-14496Y20145D01*
X-14514Y20138D01*
X-14522Y20120D01*
X-14581Y20060D01*
X-14581Y20060D01*
X-14606Y20000D01*
X-14606Y20000D01*
X-14606Y19915D01*
X-14639Y19837D01*
Y-22553D01*
X-14606Y-22631D01*
X-14606Y-22716D01*
X-14606Y-22716D01*
X-14581Y-22776D01*
X-14581Y-22776D01*
X-14522Y-22836D01*
X-14514Y-22854D01*
X-14496Y-22862D01*
X-14437Y-22921D01*
X-14429Y-22939D01*
X-14411Y-22947D01*
X-14351Y-23007D01*
X-14351Y-23007D01*
X-14291Y-23031D01*
X-14291Y-23031D01*
X-14206Y-23031D01*
X-14128Y-23064D01*
X15545D01*
X15623Y-23031D01*
X15708Y-23031D01*
X15708Y-23031D01*
X15768Y-23007D01*
X15768Y-23007D01*
X15828Y-22947D01*
X15846Y-22939D01*
X15854Y-22921D01*
X15913Y-22862D01*
X15931Y-22854D01*
X15939Y-22836D01*
X15999Y-22776D01*
X15999Y-22776D01*
X16024Y-22716D01*
X16024Y-22716D01*
X16024Y-22631D01*
X16056Y-22553D01*
Y-10275D01*
X16081Y-10215D01*
X16141Y-10190D01*
X18647D01*
X18669Y-10181D01*
X18692Y-10187D01*
X18692Y-10187D01*
X18817Y-10119D01*
X18948Y-10065D01*
X18957Y-10043D01*
X18978Y-10031D01*
X19422Y-9961D01*
X19539Y-9967D01*
X19564Y-9974D01*
X20431Y-10841D01*
X20727Y-11039D01*
X21075Y-11108D01*
X28268D01*
X28654Y-11494D01*
Y-18870D01*
X27595D01*
X27507Y-18888D01*
X24380D01*
Y-21270D01*
X29065D01*
Y-20693D01*
X29276D01*
X29625Y-20623D01*
X29851Y-20473D01*
X30027Y-20361D01*
X30188Y-20324D01*
X30637Y-20670D01*
Y-21175D01*
X30669Y-21253D01*
X30669Y-21338D01*
X30669Y-21338D01*
X30694Y-21398D01*
X30754Y-21458D01*
X30762Y-21476D01*
X30780Y-21484D01*
X30839Y-21543D01*
X30846Y-21561D01*
X30865Y-21569D01*
X30924Y-21628D01*
X30925Y-21629D01*
X30925Y-21629D01*
X30985Y-21654D01*
X30985Y-21654D01*
X31069Y-21654D01*
X31148Y-21686D01*
X43459D01*
X43537Y-21654D01*
X43622Y-21654D01*
X43622Y-21654D01*
X43681Y-21629D01*
X43682Y-21629D01*
X43742Y-21569D01*
X43760Y-21561D01*
X43767Y-21543D01*
X43826Y-21484D01*
X43845Y-21476D01*
X43852Y-21458D01*
X43912Y-21398D01*
X43912Y-21398D01*
X43937Y-21338D01*
X43937Y-21338D01*
X43937Y-21253D01*
X43970Y-21175D01*
Y-16732D01*
X43959Y-16707D01*
Y-16649D01*
X43937Y-16596D01*
Y-16568D01*
X43927Y-16544D01*
X43923Y-16518D01*
X43910Y-16494D01*
X43902Y-16436D01*
X43873Y-16387D01*
X43870Y-16360D01*
X43735Y-16127D01*
X43536Y-15384D01*
Y-14615D01*
X43735Y-13873D01*
X44120Y-13207D01*
X44228Y-13099D01*
X44353Y-12797D01*
Y-12749D01*
X44401D01*
X44506Y-12706D01*
X44615Y-12691D01*
X44765Y-12605D01*
X44812Y-12543D01*
X44881Y-12506D01*
X44961Y-12408D01*
X45001Y-12392D01*
X45016Y-12376D01*
X45037Y-12374D01*
X45122Y-12329D01*
X45146Y-12329D01*
X45188Y-12312D01*
X45188Y-12312D01*
X45214Y-12308D01*
X45236Y-12295D01*
X45263Y-12291D01*
X45275Y-12293D01*
X46072Y-12080D01*
X46841D01*
X47602Y-12284D01*
X47629Y-12280D01*
X47633Y-12281D01*
X47657Y-12295D01*
X47709Y-12301D01*
X47734Y-12312D01*
X47762Y-12312D01*
X47815Y-12333D01*
X47872Y-12333D01*
X47872Y-12333D01*
X47897Y-12343D01*
X54618Y-12318D01*
X55058Y-12628D01*
X55117Y-12715D01*
X55118Y-12717D01*
Y-27205D01*
X54764Y-27559D01*
X-55039Y-27480D01*
Y27205D01*
X-54687Y27559D01*
X55118D01*
Y22080D01*
D02*
G37*
G36*
X29331Y-1260D02*
X50157D01*
Y-8583D01*
X35394D01*
Y-10630D01*
X30315D01*
X30209Y-10472D01*
X29290Y-9552D01*
X28995Y-9355D01*
X28646Y-9286D01*
X21453D01*
X9948Y2219D01*
X9652Y2417D01*
X9304Y2486D01*
X7185D01*
Y3051D01*
X4232D01*
Y98D01*
X7185D01*
Y664D01*
X8926D01*
X18784Y-9194D01*
X18794Y-9280D01*
X18787Y-9367D01*
X18720Y-9672D01*
X18647Y-9764D01*
X16056D01*
X15755Y-9889D01*
X15630Y-10190D01*
Y-22553D01*
X15605Y-22613D01*
X15545Y-22638D01*
X-14128D01*
X-14188Y-22613D01*
X-14213Y-22553D01*
Y19837D01*
X-14188Y19896D01*
X-14128Y19921D01*
X17520D01*
Y17520D01*
X21850D01*
Y19921D01*
X26267D01*
X26568Y20046D01*
X26693Y20347D01*
X29331D01*
Y-1260D01*
D02*
G37*
G36*
X55276Y21548D02*
Y-11574D01*
X55275Y-11575D01*
X55123Y-11734D01*
X54776Y-11896D01*
X54763Y-11891D01*
X54763Y-11891D01*
X54762Y-11891D01*
X47896Y-11917D01*
X47870Y-11907D01*
X47814Y-11907D01*
X47765Y-11879D01*
X47713Y-11872D01*
X46897Y-11654D01*
X46016D01*
X45165Y-11882D01*
X45158Y-11886D01*
X45132Y-11889D01*
X45082Y-11918D01*
X45024Y-11919D01*
X44982Y-11936D01*
X44963Y-11930D01*
X44836Y-11999D01*
X44703Y-12054D01*
X44695Y-12074D01*
X44676Y-12084D01*
X44552Y-12236D01*
X44451Y-12294D01*
X44451Y-12294D01*
X44402Y-12322D01*
X44401Y-12323D01*
X43927D01*
Y-12797D01*
X43779Y-12945D01*
X43338Y-13708D01*
X43110Y-14559D01*
Y-15441D01*
X43338Y-16292D01*
X43501Y-16573D01*
X43504Y-16600D01*
X43533Y-16649D01*
Y-16707D01*
X43543Y-16732D01*
Y-21175D01*
X43518Y-21235D01*
X43459Y-21260D01*
X31148D01*
X31088Y-21235D01*
X31063Y-21175D01*
Y-20397D01*
X31043Y-20349D01*
X31051Y-20297D01*
X30983Y-20203D01*
X30938Y-20096D01*
X30889Y-20076D01*
X30858Y-20033D01*
X30647Y-19905D01*
X30573Y-19893D01*
X30512Y-19852D01*
X30512Y-11056D01*
X35394D01*
X35695Y-10931D01*
X35820Y-10630D01*
Y-9009D01*
X50157D01*
X50459Y-8884D01*
X50584Y-8583D01*
Y-1260D01*
X50459Y-958D01*
X50157Y-834D01*
X29757D01*
Y20347D01*
X29632Y20649D01*
X29331Y20774D01*
Y21654D01*
X55118D01*
X55276Y21548D01*
D02*
G37*
%LPC*%
G36*
X-22815Y18366D02*
X-30610D01*
Y14744D01*
X-22815D01*
Y18366D01*
D02*
G37*
G36*
X-42889Y20348D02*
X-50024D01*
X-50373Y20279D01*
X-50669Y20081D01*
X-51538Y19212D01*
X-51736Y18916D01*
X-51805Y18567D01*
Y9437D01*
X-51736Y9088D01*
X-51538Y8793D01*
X-49378Y6633D01*
X-49575Y6292D01*
X-49803Y5441D01*
Y4559D01*
X-49575Y3708D01*
X-49134Y2945D01*
X-48511Y2322D01*
X-47748Y1882D01*
X-46897Y1654D01*
X-46016D01*
X-45165Y1882D01*
X-44402Y2322D01*
X-43779Y2945D01*
X-43338Y3708D01*
X-43110Y4559D01*
Y5441D01*
X-43338Y6292D01*
X-43779Y7055D01*
X-44402Y7678D01*
X-45165Y8118D01*
X-46016Y8347D01*
X-46897D01*
X-47748Y8118D01*
X-48090Y7921D01*
X-49983Y9814D01*
Y11228D01*
X-49803Y11654D01*
X-49483Y11654D01*
X-44915D01*
Y9866D01*
X-44846Y9517D01*
X-44648Y9222D01*
X-39986Y4560D01*
Y3150D01*
X-40650D01*
Y0D01*
X-37500D01*
Y3150D01*
X-38164D01*
Y4937D01*
X-38233Y5286D01*
X-38431Y5581D01*
X-43093Y10244D01*
Y12547D01*
X-43110Y12635D01*
Y17662D01*
X-42610Y17869D01*
X-39986Y15245D01*
Y13386D01*
X-40650D01*
Y10236D01*
X-37500D01*
Y13386D01*
X-38164D01*
Y15623D01*
X-38233Y15971D01*
X-38431Y16267D01*
X-42245Y20081D01*
X-42540Y20279D01*
X-42889Y20348D01*
D02*
G37*
G36*
X-33366Y13386D02*
X-36516D01*
Y10236D01*
X-33366D01*
Y10772D01*
X-30610D01*
Y9744D01*
X-22815D01*
Y13366D01*
X-30610D01*
Y12594D01*
X-33366D01*
Y13386D01*
D02*
G37*
G36*
X-22815Y3366D02*
X-30610D01*
Y2476D01*
X-33366D01*
Y3150D01*
X-36516D01*
Y0D01*
X-33366D01*
Y654D01*
X-30610D01*
Y-256D01*
X-22815D01*
Y3366D01*
D02*
G37*
G36*
X-46016Y-1654D02*
X-46897D01*
X-47748Y-1882D01*
X-48511Y-2322D01*
X-49134Y-2945D01*
X-49575Y-3708D01*
X-49803Y-4559D01*
Y-5441D01*
X-49575Y-6292D01*
X-49134Y-7055D01*
X-48511Y-7678D01*
X-47748Y-8118D01*
X-46897Y-8347D01*
X-46016D01*
X-45165Y-8118D01*
X-44402Y-7678D01*
X-43779Y-7055D01*
X-43338Y-6292D01*
X-43110Y-5441D01*
Y-4559D01*
X-43338Y-3708D01*
X-43779Y-2945D01*
X-44402Y-2322D01*
X-45165Y-1882D01*
X-46016Y-1654D01*
D02*
G37*
G36*
Y-11654D02*
X-46897D01*
X-47748Y-11882D01*
X-48511Y-12322D01*
X-49134Y-12945D01*
X-49575Y-13708D01*
X-49803Y-14559D01*
Y-15441D01*
X-49575Y-16292D01*
X-49134Y-17055D01*
X-48511Y-17678D01*
X-47748Y-18118D01*
X-46897Y-18346D01*
X-46016D01*
X-45165Y-18118D01*
X-44402Y-17678D01*
X-43779Y-17055D01*
X-43338Y-16292D01*
X-43110Y-15441D01*
Y-14559D01*
X-43338Y-13708D01*
X-43779Y-12945D01*
X-44402Y-12322D01*
X-45165Y-11882D01*
X-46016Y-11654D01*
D02*
G37*
G36*
X-886Y18366D02*
X-8681D01*
Y14744D01*
X-886D01*
Y18366D01*
D02*
G37*
G36*
X21850Y13976D02*
X17520D01*
Y12329D01*
X7185D01*
Y12894D01*
X4232D01*
Y9941D01*
X7185D01*
Y10506D01*
X17520D01*
Y10039D01*
X21850D01*
Y10947D01*
X23031D01*
Y10667D01*
X27716D01*
Y13049D01*
X23031D01*
Y12769D01*
X21850D01*
Y13976D01*
D02*
G37*
G36*
X-886Y13366D02*
X-8681D01*
Y9744D01*
X-886D01*
Y10575D01*
X689D01*
Y9941D01*
X3642D01*
Y12894D01*
X689D01*
Y12397D01*
X-886D01*
Y13366D01*
D02*
G37*
G36*
Y3366D02*
X-8681D01*
Y-256D01*
X-886D01*
Y654D01*
X689D01*
Y98D01*
X3642D01*
Y3051D01*
X689D01*
Y2476D01*
X-886D01*
Y3366D01*
D02*
G37*
G36*
X46897Y8347D02*
X46016D01*
X45165Y8118D01*
X44402Y7678D01*
X43779Y7055D01*
X43338Y6292D01*
X43110Y5441D01*
Y4559D01*
X43338Y3708D01*
X43779Y2945D01*
X44402Y2322D01*
X45165Y1882D01*
X46016Y1654D01*
X46897D01*
X47748Y1882D01*
X48511Y2322D01*
X49134Y2945D01*
X49575Y3708D01*
X49803Y4559D01*
Y5441D01*
X49575Y6292D01*
X49134Y7055D01*
X48511Y7678D01*
X47748Y8118D01*
X46897Y8347D01*
D02*
G37*
%LPD*%
D12*
X36122Y11197D02*
D03*
Y20299D02*
D03*
D13*
X33220Y15756D02*
D03*
X34567Y-16181D02*
D03*
D14*
X37618Y19654D02*
D03*
Y17055D02*
D03*
Y14457D02*
D03*
Y11858D02*
D03*
D15*
X25374D02*
D03*
Y14457D02*
D03*
Y17055D02*
D03*
Y19654D02*
D03*
X26722Y-12284D02*
D03*
Y-14882D02*
D03*
Y-17480D02*
D03*
Y-20079D02*
D03*
X38022D02*
D03*
Y-17480D02*
D03*
Y-14882D02*
D03*
Y-12284D02*
D03*
D16*
X19685Y19488D02*
D03*
Y12008D02*
D03*
X11811Y15748D02*
D03*
D17*
X-26713Y16555D02*
D03*
Y11555D02*
D03*
Y6555D02*
D03*
Y1555D02*
D03*
X-4783Y16555D02*
D03*
Y11555D02*
D03*
Y6555D02*
D03*
Y1555D02*
D03*
D18*
X-27264Y-14961D02*
D03*
X-4232D02*
D03*
D19*
X5709Y1575D02*
D03*
X2165D02*
D03*
X5709Y11417D02*
D03*
X2165D02*
D03*
D20*
X-39075Y11811D02*
D03*
X-34941D02*
D03*
X-39075Y1575D02*
D03*
X-34941D02*
D03*
D21*
X13819Y-11811D02*
D03*
X17677D02*
D03*
D32*
X19685Y12008D02*
X19835Y11858D01*
X25374D01*
X9304Y1575D02*
X21075Y-10197D01*
X28646D01*
X5709Y1575D02*
X9304D01*
X28646Y-10197D02*
X29565Y-11116D01*
X27595Y-19782D02*
X29276D01*
X29565Y-19493D01*
Y-11116D01*
X27298Y-20079D02*
X27595Y-19782D01*
X19094Y11417D02*
X19685Y12008D01*
X5709Y11417D02*
X19094D01*
X-4715Y11486D02*
X2097D01*
X2165Y11417D01*
X-4783Y11555D02*
X-4715Y11486D01*
X2156Y1565D02*
X2165Y1575D01*
X-4783Y1555D02*
X-4774Y1565D01*
X2156D01*
X-26722D02*
X-26713Y1555D01*
X-34941Y1575D02*
X-34931Y1565D01*
X-26722D01*
X-34813Y11683D02*
X-26841D01*
X-26713Y11555D01*
X-34941Y11811D02*
X-34813Y11683D01*
X-42889Y19437D02*
X-39075Y15623D01*
Y11811D02*
Y15623D01*
X-50024Y19437D02*
X-42889D01*
X-50894Y18567D02*
X-50024Y19437D01*
X-50894Y9437D02*
X-46457Y5000D01*
X-50894Y9437D02*
Y18567D01*
X-39075Y1575D02*
Y4937D01*
X-46457Y15000D02*
X-44004Y12547D01*
Y9866D02*
Y12547D01*
Y9866D02*
X-39075Y4937D01*
D33*
X46457Y-15000D02*
D03*
Y-5000D02*
D03*
Y5000D02*
D03*
X-46457Y-15000D02*
D03*
Y-5000D02*
D03*
Y5000D02*
D03*
D34*
X46457Y15000D02*
D03*
X-46457D02*
D03*
M02*
