M48
;Layer_Color=9474304
;FILE_FORMAT=2:5
INCH,LZ
;TYPE=PLATED
T1F00S00C0.01181
T2F00S00C0.02953
T3F00S00C0.03543
T4F00S00C0.05906
T5F00S00C0.07087
%
T01
X0005263Y0002671
X0015105Y0014482
X0019042
X0017074Y0018419
X0021011
X0019042Y0022356
X0017074Y0010545
X0021011
X0139121Y0026293
X0143058
X0146995
X0150932
X0154869
X0156837Y003023
X01529
X0148963
X0145026
X0141089
X0139121Y0034167
X0143058
X0146995
X0150932
X0154869
X0158806
X0162743
X0164711Y0038104
X0160774
X0156837
X01529
X0148963
X0145026
X0141089
X0137152
X0243452
Y003023
X0251326
X024542Y0049915
X0241483Y0057789
X0237546
X0233609
X0229672
X0225735
X0221798
X0217861
X0213924
X0209987
X020605
X0208019Y0061726
X020605Y0065663
X0209987
X0208019Y00696
X0204082
X0200145
X0196207
X0198176Y0073537
X0202113
X020605
X0204082Y0077474
X0200145
X0196207
X0198176Y0065663
X0196207Y0061726
X0180459Y0053852
X0176523
X0172585
X0174554Y0049915
X0178491
X0172585Y0045978
X0173789Y0088675
X0176289
X0178789
X0184397Y0093222
X0182428Y0097159
X0186365
X0190302
X0188333Y0101096
X0184397
X0180459
X0176523
Y0132592
X0180459
X0184397
X0188333
X0192271
X0196207
X0194239Y0136529
X0198176
X0190302
X0186365
X0182428
X0178491
X0174554
Y0144404
Y0152278
X0176523Y0156214
X0180459
X0184397
X0188333
X0192271
X0196207
X0200145
X0204082
X0208019
X0211956
X0215893
X0213924Y0160152
X0217861
X021983Y0164088
X0215893
X0211956
X0208019
X0204082
X0200145
X0196207
X0192271
X0188333
X0184397
X0180459
X0176523
X0172585
X0174554Y0160152
X0178491
X0182428
X0186365
X0190302
X0194239
X0198176
X0202113
X020605
X0209987
Y0152278
X0213924
X0211956Y014834
X0208019
X0192271
X0190302Y0152278
X0194239
X0190302Y0144404
X0192271Y0140466
X0172585Y0156214
X0223701Y0158976
X0225197Y0160551
X0226732Y0162087
X0228268Y0163622
X0229803Y0165157
X0243452Y00696
X0251326
X0243452Y0061726
X0168649Y0053852
X0164711
X0160774
X0156837
X01529
X0148963
X0145026
X0141089
X0137152
X0139121Y0057789
X0143058
X0146995
X0148963Y0061726
X0145026
X0141089
X0137152
X0139121Y0065663
X0143058
X0146995
X0150932
X0154869
X0158806
X0162743
X0160774Y00696
X0156837
X01529
X0148963
X0145026
X0141089
X0137152
X0133215
X0129278
X0125341
X0121404
X0117467
X011353
X0111562Y0073537
X0115499
X0119436
X0123373
X012731
X0131247
X0135184
X0139121
X0143058
X0146995
X0150932
X0154869
X0158806
X0162743
X0160774Y0077474
X0156837
X01529
X0148963
X0150932Y0081411
X0154869
X0158806
X0162743
X0160774Y0085348
X0156837
X01529
X0148963
X0150932Y0089285
X0154869
X0158806
X0166289Y0088675
X0168789
X0171189
X0135184Y0089285
X0131247
X012731
X0123373
X0119436
X0115499
X0117467Y0085348
X0121404
X0125341
X0129278
X0133215
X0137152
X0135184Y0081411
X0131247
X012731
X0123373
X0119436
X0115499
X0111562
X011353Y0085348
Y0077474
X0117467
X0121404
X0125341
X0129278
X0133215
X0137152
X0133215Y0093222
Y0101096
X0129278
X0125341
X0121404
X0117467
X0115499Y0105033
X0111562
X0107625
X0103688
X0099751
X0095814Y0112907
X0091877
X008794
X0084003
X0085971Y0116844
X0089908
X0093845
X0091877Y0120781
X0095814
X0099751
X0103688
X011353Y0116844
X0111562Y0112907
X0115499
X011353Y010897
X0109593Y0077474
X0105656
X0066286
Y0085348
X0064318Y0089285
X0066286Y0093222
X0062349
X0060381Y0097159
Y0105033
X0054475Y010897
X0050538
Y0116844
X0054475
X0058412
X0056444Y0120781
X0052507
X004857
X0044633
X0040696
X0042664Y0124718
X0046601
X0050538
X0054475
X0058412
X0056444Y0128655
X0052507
X004857
X0044633
X0040696
X0036759
X0032822
X0028885
X0024948
X0021011
X0022979Y0132592
X0026916
X0030853
X003479
X0038727
X0042664
X0046601
X0050538
X0054475
X0058412
X0056444Y0136529
X0052507
X0054475Y0140466
X0058412
X0056444Y0144404
X0052507
X0054475Y014834
X0058412
X0056444Y0152278
X0060381
X0062349Y0156214
X0066286
X0070223
X007416
X0078097
X0082034
X0085971
X0089908
X0093845
X0097782
X0101719
X0099751Y0160152
X0103688
X0107625
X0111562
X011353Y0164088
X0117467
X0121404
X0125341
X0129278
X0133215
X0137152
X0141089
X0145026
X0148963
X01529
X0156837
X0160774
X0164711
X0168649
X016668Y0160152
X0170617
X0168649Y0156214
X0164711
X0160774
X0156837
X01529
X0148963
X0145026
X0141089
X0137152
X0135184Y0160152
X0139121
X0143058
X0146995
X0150932
X0154869
X0158806
X0162743
Y0152278
X016668
X0170617
X0158806
X0154869
X0150932
X0146995
X0143058
X0139121
X0135184
X0111562
X011353Y0156214
X0109593Y0164088
X0105656
X0101719
X0097782
X0093845
X0089908
X0085971
X0082034
X0078097
X007416
X0070223
X0066286
X0062349
X0058412
X0054475
X0050538
X0046601
X0042664
X0038727
X003479
X0030853
X0026916
X0022979
X0019042
X0017074Y0160152
X0021011
X0024948
X0028885
X0032822
X0036759
X0040696
X0044633
X004857
X0052507
X0056444
X0060381
X0064318
X0068255
X0072192
X0076129
X0080066
X0084003
X008794
X0091877
X0095814
X0058412Y0156214
X0054475
X0050538
X0046601
X0042664
X0038727
X003479
X0030853
X0026916
X0022979
X0019042
X0017074Y0152278
X0021011
X0024948
X0028885
X0032822
X0036759
X0040696
X0044633
X004857
X0052507
X0050538Y014834
X0046601
X0042664
X0038727
X003479
X0030853
X0026916
X0022979
X0024948Y0144404
X0028885
X0032822
X003479Y0140466
X0030853
X0026916
X0022979
X0024948Y0136529
X0028885
X0032822
X003479Y0124718
X0038727
X0030853
X0026916
X0022979
X0024948Y0120781
X0022979Y0116844
X0024948Y0112907
X0042664Y0116844
X0046601
X0050538Y0140466
X0084003Y0120781
X008794
X0082034Y0116844
X0066286Y00696
X0022979
X0024948Y0073537
X0026916Y0077474
X0022979
X0024948Y0065663
X0022979Y0061726
X0139121Y0049915
X0143058
X0146995
X0150932
X0154869
X0158806
X0162743
X016668
X0170617
X0168649Y0045978
X0164711
X0160774
X0156837
X01529
X0148963
X0145026
X0141089
X0137152
X0139121Y0042041
X0143058
X0146995
X0150932
X0154869
X0158806
X0162743
X016668
X0170617
X0013137Y0049915
Y0057789
X0015105Y00696
X0013137Y0081411
Y0089285
X0005263Y0097159
X0007231Y0101096
X0005263Y0105033
X00092
X0011168Y010897
X0007231
X0005263Y0112907
X00092
X0011168Y0116844
X0007231
X0005263Y0120781
X00092
X0013137
X0011168Y0124718
X0007231
X0005263Y0128655
X00092
X0013137
X0011168Y0132592
X0007231
X0005263Y0136529
X00092
X0011168Y0140466
X0007231
X0005263Y0144404
X00092
X0011168Y014834
X0007231
X0005263Y0152278
X00092
X0013137
X0015105Y0156214
X0011168
X0007231
X0005263Y0160152
X00092
X0013137
X0015105Y0164088
X0011168
X0007231
T02
X0189503Y0007245
Y0025355
X0216275
X0229703Y0025355
Y0007245
X0216275Y0007245
X0256475Y0007245
Y0025355
T03
X0017798Y0034647
X0247798
Y0044647
Y0054647
Y0064647
Y0074647
Y0084647
Y0094647
Y0104647
Y0114647
Y0124647
Y0134647
Y0144647
X0017798
Y0134647
Y0124647
Y0114647
Y0104647
Y0094647
Y0084647
Y0074647
Y0064647
Y0054647
Y0044647
T04
X0040489Y0019
X0060489
X0082089Y00193
X0102089
X0125889
X0145889
T05
X0032402Y0071138
Y0092638
Y0114138
X0102913Y0113429
Y0091929
Y0070429
M30
