G04*
G04 #@! TF.GenerationSoftware,Altium Limited,Altium Designer,22.4.2 (48)*
G04*
G04 Layer_Color=128*
%FSLAX25Y25*%
%MOIN*%
G70*
G04*
G04 #@! TF.SameCoordinates,3CF9D964-3833-4CBE-B755-AF4B9B4EF88F*
G04*
G04*
G04 #@! TF.FilePolarity,Positive*
G04*
G01*
G75*
%ADD79C,0.00200*%
D79*
X28858Y92638D02*
X35945D01*
X32402Y89095D02*
Y96181D01*
X28858Y71138D02*
X35945D01*
X32402Y67594D02*
Y74681D01*
X28858Y114138D02*
X35945D01*
X32402Y110594D02*
Y117681D01*
X99370Y91929D02*
X106457D01*
X102913Y88386D02*
Y95472D01*
X99370Y70429D02*
X106457D01*
X102913Y66886D02*
Y73972D01*
X99370Y113429D02*
X106457D01*
X102913Y109886D02*
Y116972D01*
X214798Y7245D02*
X217751D01*
X216275Y5769D02*
Y8722D01*
X214798Y25355D02*
X217751D01*
X216275Y23879D02*
Y26832D01*
X188027Y25355D02*
X190980D01*
X189503Y23879D02*
Y26832D01*
X188027Y7245D02*
X190980D01*
X189503Y5769D02*
Y8722D01*
X254998Y7245D02*
X257951D01*
X256475Y5768D02*
Y8721D01*
X254998Y25355D02*
X257951D01*
X256475Y23879D02*
Y26831D01*
X228227Y25355D02*
X231179D01*
X229703Y23879D02*
Y26831D01*
X228227Y7245D02*
X231179D01*
X229703Y5768D02*
Y8721D01*
X142936Y19300D02*
X148842D01*
X145889Y16347D02*
Y22253D01*
X122936Y19300D02*
X128842D01*
X125889Y16347D02*
Y22253D01*
X57536Y19000D02*
X63442D01*
X60489Y16047D02*
Y21953D01*
X37536Y19000D02*
X43442D01*
X40489Y16047D02*
Y21953D01*
X99136Y19300D02*
X105042D01*
X102089Y16347D02*
Y22253D01*
X79136Y19300D02*
X85042D01*
X82089Y16347D02*
Y22253D01*
X246026Y34647D02*
X249569D01*
X247798Y32876D02*
Y36419D01*
X246026Y44647D02*
X249569D01*
X247798Y42876D02*
Y46419D01*
X246026Y54647D02*
X249569D01*
X247798Y52876D02*
Y56419D01*
X246026Y64647D02*
X249569D01*
X247798Y62876D02*
Y66419D01*
X246026Y74647D02*
X249569D01*
X247798Y72876D02*
Y76419D01*
X246026Y84647D02*
X249569D01*
X247798Y82876D02*
Y86419D01*
X246026Y94647D02*
X249569D01*
X247798Y92876D02*
Y96419D01*
X246026Y104647D02*
X249569D01*
X247798Y102876D02*
Y106419D01*
X246026Y114647D02*
X249569D01*
X247798Y112876D02*
Y116419D01*
X246026Y124647D02*
X249569D01*
X247798Y122876D02*
Y126419D01*
X246026Y134647D02*
X249569D01*
X247798Y132876D02*
Y136419D01*
X246026Y144647D02*
X249569D01*
X247798Y142876D02*
Y146419D01*
X16026Y34647D02*
X19569D01*
X17798Y32876D02*
Y36419D01*
X16026Y44647D02*
X19569D01*
X17798Y42876D02*
Y46419D01*
X16026Y54647D02*
X19569D01*
X17798Y52876D02*
Y56419D01*
X16026Y64647D02*
X19569D01*
X17798Y62876D02*
Y66419D01*
X16026Y74647D02*
X19569D01*
X17798Y72876D02*
Y76419D01*
X16026Y84647D02*
X19569D01*
X17798Y82876D02*
Y86419D01*
X16026Y94647D02*
X19569D01*
X17798Y92876D02*
Y96419D01*
X16026Y104647D02*
X19569D01*
X17798Y102876D02*
Y106419D01*
X16026Y114647D02*
X19569D01*
X17798Y112876D02*
Y116419D01*
X16026Y124647D02*
X19569D01*
X17798Y122876D02*
Y126419D01*
X16026Y134647D02*
X19569D01*
X17798Y132876D02*
Y136419D01*
X16026Y144647D02*
X19569D01*
X17798Y142876D02*
Y146419D01*
X175698Y88675D02*
X176880D01*
X176289Y88084D02*
Y89265D01*
X173198Y88675D02*
X174380D01*
X173789Y88084D02*
Y89265D01*
X170598Y88675D02*
X171780D01*
X171189Y88084D02*
Y89265D01*
X168198Y88675D02*
X169379D01*
X168789Y88084D02*
Y89265D01*
X162152Y81411D02*
X163333D01*
X162743Y80821D02*
Y82002D01*
X160184Y85348D02*
X161365D01*
X160774Y84758D02*
Y85939D01*
X193729Y81330D02*
X194911D01*
X194320Y80740D02*
Y81921D01*
X12083Y85348D02*
X13264D01*
X12674Y84758D02*
Y85939D01*
X6965Y45978D02*
X8146D01*
X7556Y45388D02*
Y46569D01*
X6965Y69600D02*
X8146D01*
X7556Y69010D02*
Y70191D01*
X6965Y78647D02*
X8146D01*
X7556Y78056D02*
Y79237D01*
X6965Y57789D02*
X8146D01*
X7556Y57199D02*
Y58380D01*
X6965Y53852D02*
X8146D01*
X7556Y53262D02*
Y54443D01*
X6965Y49915D02*
X8146D01*
X7556Y49325D02*
Y50506D01*
X12083Y80216D02*
X13264D01*
X12674Y79626D02*
Y80807D01*
X23299Y109881D02*
X24480D01*
X23890Y109291D02*
Y110472D01*
X23978Y109203D02*
X25159D01*
X24568Y108612D02*
Y109793D01*
X38137Y108970D02*
X39318D01*
X38727Y108380D02*
Y109561D01*
X42074Y108970D02*
X43255D01*
X42664Y108380D02*
Y109561D01*
X46011Y108970D02*
X47192D01*
X46601Y108380D02*
Y109561D01*
X53885Y108970D02*
X55066D01*
X54475Y108380D02*
Y109561D01*
X49948Y108970D02*
X51129D01*
X50538Y108380D02*
Y109561D01*
X2639Y93287D02*
X3820D01*
X3230Y92696D02*
Y93877D01*
X10317Y101096D02*
X11498D01*
X10908Y100505D02*
Y101687D01*
X10317Y101096D02*
X11498D01*
X10908Y100506D02*
Y101687D01*
X10317Y105033D02*
X11498D01*
X10908Y104443D02*
Y105624D01*
X13151Y110334D02*
X14332D01*
X13741Y109744D02*
Y110925D01*
X16483Y89285D02*
X17664D01*
X17074Y88695D02*
Y89876D01*
X26251Y77043D02*
X27432D01*
X26842Y76453D02*
Y77634D01*
X22388Y81965D02*
X23570D01*
X22979Y81374D02*
Y82555D01*
X12546Y89285D02*
X13727D01*
X13137Y88695D02*
Y89876D01*
X8609Y42041D02*
X9790D01*
X9200Y41451D02*
Y42632D01*
X13389Y73537D02*
X14571D01*
X13980Y72947D02*
Y74128D01*
X13389Y65663D02*
X14571D01*
X13980Y65073D02*
Y66254D01*
X13389Y49915D02*
X14571D01*
X13980Y49325D02*
Y50506D01*
X14514Y69600D02*
X15696D01*
X15105Y69010D02*
Y70191D01*
X30263Y77047D02*
X31444D01*
X30853Y76457D02*
Y77638D01*
X22121Y70025D02*
X23302D01*
X22712Y69435D02*
Y70616D01*
X23347Y73537D02*
X24528D01*
X23937Y72947D02*
Y74128D01*
X18451Y69600D02*
X19633D01*
X19042Y69010D02*
Y70191D01*
X6640Y53852D02*
X7822D01*
X7231Y53262D02*
Y54443D01*
X22931Y61184D02*
X24112D01*
X23521Y60593D02*
Y61775D01*
X21190Y25523D02*
X22371D01*
X21780Y24933D02*
Y26114D01*
X18451Y22356D02*
X19633D01*
X19042Y21766D02*
Y22947D01*
X14514Y30230D02*
X15696D01*
X15105Y29640D02*
Y30821D01*
X10829Y30230D02*
X12010D01*
X11420Y29640D02*
Y30821D01*
X14514Y20600D02*
X15696D01*
X15105Y20009D02*
Y21191D01*
X21648Y51144D02*
X22830D01*
X22239Y50553D02*
Y51734D01*
X197585Y81411D02*
X198766D01*
X198176Y80821D02*
Y82002D01*
X207428Y61726D02*
X208609D01*
X208018Y61136D02*
Y62317D01*
X187743Y140466D02*
X188924D01*
X188333Y139876D02*
Y141057D01*
X187743Y101096D02*
X188924D01*
X188333Y100505D02*
Y101687D01*
X158215Y81411D02*
X159396D01*
X158806Y80821D02*
Y82002D01*
X158215Y42041D02*
X159396D01*
X158806Y41450D02*
Y42632D01*
X148372Y61726D02*
X149554D01*
X148963Y61136D02*
Y62317D01*
X138530Y42041D02*
X139711D01*
X139120Y41450D02*
Y42632D01*
X128687Y101096D02*
X129868D01*
X129278Y100505D02*
Y101687D01*
X118845Y81411D02*
X120026D01*
X119436Y80821D02*
Y82002D01*
X99160Y120781D02*
X100341D01*
X99750Y120191D02*
Y121372D01*
X49947Y140466D02*
X51128D01*
X50538Y139876D02*
Y141057D01*
X40105Y120781D02*
X41286D01*
X40695Y120191D02*
Y121372D01*
X30262Y140466D02*
X31443D01*
X30853Y139876D02*
Y141057D01*
X20420Y120781D02*
X21601D01*
X21010Y120191D02*
Y121372D01*
X10577Y140466D02*
X11758D01*
X11168Y139876D02*
Y141057D01*
X152310Y164088D02*
X153491D01*
X152900Y163498D02*
Y164679D01*
X103097Y120781D02*
X104278D01*
X103688Y120191D02*
Y121372D01*
X8609Y136529D02*
X9790D01*
X9200Y135939D02*
Y137120D01*
X10577Y140466D02*
X11759D01*
X11168Y139876D02*
Y141057D01*
X128688Y69600D02*
X129869D01*
X129278Y69010D02*
Y70191D01*
X187743Y132592D02*
X188924D01*
X188333Y132002D02*
Y133183D01*
X38137Y164088D02*
X39318D01*
X38727Y163498D02*
Y164679D01*
X14514Y14482D02*
X15696D01*
X15105Y13892D02*
Y15073D01*
X44042Y160152D02*
X45223D01*
X44633Y159561D02*
Y160742D01*
X65696Y6608D02*
X66877D01*
X66286Y6018D02*
Y7199D01*
X65696Y93222D02*
X66877D01*
X66286Y92632D02*
Y93813D01*
X77507Y6608D02*
X78688D01*
X78097Y6018D02*
Y7199D01*
X89318Y6608D02*
X90499D01*
X89908Y6018D02*
Y7199D01*
X152310Y85348D02*
X153491D01*
X152900Y84758D02*
Y85939D01*
X142467Y42041D02*
X143648D01*
X143058Y41451D02*
Y42632D01*
X18451Y164088D02*
X19633D01*
X19042Y163498D02*
Y164679D01*
X158215Y160152D02*
X159397D01*
X158806Y159561D02*
Y160742D01*
X175932Y132592D02*
X177113D01*
X176523Y132002D02*
Y133183D01*
X229082Y57789D02*
X230263D01*
X229672Y57199D02*
Y58380D01*
X144436Y69600D02*
X145617D01*
X145026Y69010D02*
Y70191D01*
X134593Y97159D02*
X135774D01*
X135184Y96569D02*
Y97750D01*
X203491Y69600D02*
X204672D01*
X204082Y69010D02*
Y70191D01*
X236956Y18419D02*
X238137D01*
X237546Y17829D02*
Y19010D01*
X51916Y152278D02*
X53097D01*
X52507Y151687D02*
Y152868D01*
X136562Y156214D02*
X137743D01*
X137152Y155624D02*
Y156805D01*
X140499Y61726D02*
X141680D01*
X141089Y61136D02*
Y62317D01*
X142467Y73537D02*
X143648D01*
X143058Y72947D02*
Y74128D01*
X150341Y34167D02*
X151523D01*
X150932Y33577D02*
Y34758D01*
X24357Y160152D02*
X25538D01*
X24948Y159561D02*
Y160742D01*
X170026Y42041D02*
X171207D01*
X170617Y41451D02*
Y42632D01*
X140499Y38104D02*
X141680D01*
X141089Y37514D02*
Y38695D01*
X173963Y144404D02*
X175145D01*
X174554Y143813D02*
Y144994D01*
X187743Y156214D02*
X188924D01*
X188333Y155624D02*
Y156805D01*
X197585Y73537D02*
X198767D01*
X198176Y72947D02*
Y74128D01*
X114908Y89285D02*
X116089D01*
X115499Y88695D02*
Y89876D01*
X138530Y42041D02*
X139711D01*
X139121Y41451D02*
Y42632D01*
X142467Y57789D02*
X143648D01*
X143058Y57199D02*
Y58380D01*
X179869Y132592D02*
X181050D01*
X180459Y132002D02*
Y133183D01*
X142467Y49915D02*
X143648D01*
X143058Y49325D02*
Y50506D01*
X114908Y112907D02*
X116089D01*
X115499Y112317D02*
Y113498D01*
X18451Y6608D02*
X19633D01*
X19042Y6018D02*
Y7199D01*
X89318Y164088D02*
X90499D01*
X89908Y163498D02*
Y164679D01*
X154278Y89285D02*
X155459D01*
X154869Y88695D02*
Y89876D01*
X213334Y18419D02*
X214515D01*
X213924Y17829D02*
Y19010D01*
X61759Y164088D02*
X62940D01*
X62349Y163498D02*
Y164679D01*
X12546Y10545D02*
X13727D01*
X13137Y9955D02*
Y11136D01*
X55853Y136529D02*
X57034D01*
X56444Y135939D02*
Y137120D01*
X97192Y164088D02*
X98373D01*
X97782Y163498D02*
Y164679D01*
X162152Y34167D02*
X163333D01*
X162743Y33577D02*
Y34758D01*
X193649Y136529D02*
X194830D01*
X194239Y135939D02*
Y137120D01*
X173963Y136529D02*
X175145D01*
X174554Y135939D02*
Y137120D01*
X2703Y14482D02*
X3885D01*
X3294Y13892D02*
Y15073D01*
X2703Y156214D02*
X3885D01*
X3294Y155624D02*
Y156805D01*
X2703Y132592D02*
X3885D01*
X3294Y132002D02*
Y133183D01*
X136562Y30230D02*
X137743D01*
X137152Y29640D02*
Y30821D01*
X211365Y148340D02*
X212546D01*
X211956Y147750D02*
Y148931D01*
X69633Y156214D02*
X70814D01*
X70223Y155624D02*
Y156805D01*
X73570Y6608D02*
X74751D01*
X74160Y6018D02*
Y7199D01*
X26326Y140466D02*
X27507D01*
X26916Y139876D02*
Y141057D01*
X183806Y132592D02*
X184987D01*
X184397Y132002D02*
Y133183D01*
X8609Y128655D02*
X9790D01*
X9200Y128065D02*
Y129246D01*
X171995Y45978D02*
X173176D01*
X172585Y45388D02*
Y46569D01*
X63727Y160152D02*
X64908D01*
X64318Y159561D02*
Y160742D01*
X199554Y14482D02*
X200735D01*
X200145Y13892D02*
Y15073D01*
X57822Y6608D02*
X59003D01*
X58412Y6018D02*
Y7199D01*
X209397Y65663D02*
X210578D01*
X209987Y65073D02*
Y66254D01*
X4672Y105033D02*
X5853D01*
X5263Y104443D02*
Y105624D01*
X61759Y6608D02*
X62940D01*
X62349Y6018D02*
Y7199D01*
X120814Y69600D02*
X121995D01*
X121404Y69010D02*
Y70191D01*
X112940Y116844D02*
X114121D01*
X113530Y116254D02*
Y117435D01*
X140499Y22356D02*
X141680D01*
X141089Y21766D02*
Y22947D01*
X10577Y164088D02*
X11759D01*
X11168Y163498D02*
Y164679D01*
X20420Y128655D02*
X21601D01*
X21011Y128065D02*
Y129246D01*
X103097Y105033D02*
X104278D01*
X103688Y104443D02*
Y105624D01*
X177900Y160152D02*
X179081D01*
X178491Y159561D02*
Y160742D01*
X65696Y164088D02*
X66877D01*
X66286Y163498D02*
Y164679D01*
X99160Y152278D02*
X100341D01*
X99751Y151687D02*
Y152868D01*
X24357Y120781D02*
X25538D01*
X24948Y120191D02*
Y121372D01*
X156247Y53852D02*
X157428D01*
X156837Y53262D02*
Y54443D01*
X175932Y156214D02*
X177113D01*
X176523Y155624D02*
Y156805D01*
X28294Y128655D02*
X29475D01*
X28885Y128065D02*
Y129246D01*
X116877Y69600D02*
X118058D01*
X117467Y69010D02*
Y70191D01*
X207428Y156214D02*
X208609D01*
X208019Y155624D02*
Y156805D01*
X193649Y160152D02*
X194830D01*
X194239Y159561D02*
Y160742D01*
X148373Y38104D02*
X149554D01*
X148963Y37514D02*
Y38695D01*
X26326Y6608D02*
X27507D01*
X26916Y6018D02*
Y7199D01*
X148373Y45978D02*
X149554D01*
X148963Y45388D02*
Y46569D01*
X28294Y152278D02*
X29475D01*
X28885Y151687D02*
Y152868D01*
X203491Y77474D02*
X204672D01*
X204082Y76884D02*
Y78065D01*
X209397Y57789D02*
X210578D01*
X209987Y57199D02*
Y58380D01*
X187743Y164088D02*
X188924D01*
X188333Y163498D02*
Y164679D01*
X211365Y61726D02*
X212546D01*
X211956Y61136D02*
Y62317D01*
X95223Y152278D02*
X96404D01*
X95814Y151687D02*
Y152868D01*
X207428Y148340D02*
X208609D01*
X208019Y147750D02*
Y148931D01*
X197585Y160152D02*
X198767D01*
X198176Y159561D02*
Y160742D01*
X150341Y152278D02*
X151523D01*
X150932Y151687D02*
Y152868D01*
X134593Y73537D02*
X135774D01*
X135184Y72947D02*
Y74128D01*
X42074Y164088D02*
X43255D01*
X42664Y163498D02*
Y164679D01*
X160184Y77474D02*
X161365D01*
X160774Y76884D02*
Y78065D01*
X164121Y38104D02*
X165302D01*
X164711Y37514D02*
Y38695D01*
X142467Y26293D02*
X143648D01*
X143058Y25703D02*
Y26884D01*
X158215Y34167D02*
X159397D01*
X158806Y33577D02*
Y34758D01*
X203491Y14482D02*
X204672D01*
X204082Y13892D02*
Y15073D01*
X110971Y73537D02*
X112152D01*
X111562Y72947D02*
Y74128D01*
X20420Y152278D02*
X21601D01*
X21011Y151687D02*
Y152868D01*
X91286Y152278D02*
X92467D01*
X91877Y151687D02*
Y152868D01*
X146404Y65663D02*
X147585D01*
X146995Y65073D02*
Y66254D01*
X79475Y160152D02*
X80656D01*
X80066Y159561D02*
Y160742D01*
X181837Y160152D02*
X183019D01*
X182428Y159561D02*
Y160742D01*
X195617Y132592D02*
X196798D01*
X196207Y132002D02*
Y133183D01*
X217270Y57789D02*
X218452D01*
X217861Y57199D02*
Y58380D01*
X173963Y160152D02*
X175145D01*
X174554Y159561D02*
Y160742D01*
X4672Y120781D02*
X5853D01*
X5263Y120191D02*
Y121372D01*
X146404Y42041D02*
X147585D01*
X146995Y41451D02*
Y42632D01*
X152310Y53852D02*
X153491D01*
X152900Y53262D02*
Y54443D01*
X53885Y6608D02*
X55066D01*
X54475Y6018D02*
Y7199D01*
X177900Y49915D02*
X179081D01*
X178491Y49325D02*
Y50506D01*
X6640Y45978D02*
X7822D01*
X7231Y45388D02*
Y46569D01*
X34200Y148340D02*
X35381D01*
X34790Y147750D02*
Y148931D01*
X95223Y120781D02*
X96404D01*
X95814Y120191D02*
Y121372D01*
X246798Y69600D02*
X247979D01*
X247389Y69010D02*
Y70191D01*
X4672Y152278D02*
X5853D01*
X5263Y151687D02*
Y152868D01*
X168058Y45978D02*
X169239D01*
X168649Y45388D02*
Y46569D01*
X242861Y38104D02*
X244042D01*
X243452Y37514D02*
Y38695D01*
X42074Y116844D02*
X43255D01*
X42664Y116254D02*
Y117435D01*
X154278Y160152D02*
X155459D01*
X154869Y159561D02*
Y160742D01*
X114908Y81411D02*
X116089D01*
X115499Y80821D02*
Y82002D01*
X225145Y18419D02*
X226326D01*
X225735Y17829D02*
Y19010D01*
X22388Y164088D02*
X23570D01*
X22979Y163498D02*
Y164679D01*
X109003Y164088D02*
X110184D01*
X109593Y163498D02*
Y164679D01*
X181837Y136529D02*
X183019D01*
X182428Y135939D02*
Y137120D01*
X22388Y140466D02*
X23570D01*
X22979Y139876D02*
Y141057D01*
X215302Y164088D02*
X216483D01*
X215893Y163498D02*
Y164679D01*
X34200Y164088D02*
X35381D01*
X34790Y163498D02*
Y164679D01*
X34200Y140466D02*
X35381D01*
X34790Y139876D02*
Y141057D01*
X36168Y120781D02*
X37349D01*
X36759Y120191D02*
Y121372D01*
X140499Y45978D02*
X141680D01*
X141089Y45388D02*
Y46569D01*
X171995Y164088D02*
X173176D01*
X172585Y163498D02*
Y164679D01*
X185775Y10545D02*
X186955D01*
X186365Y9955D02*
Y11136D01*
X197585Y57789D02*
X198767D01*
X198176Y57199D02*
Y58380D01*
X138530Y26293D02*
X139711D01*
X139121Y25703D02*
Y26884D01*
X55853Y144404D02*
X57034D01*
X56444Y143813D02*
Y144994D01*
X168058Y164088D02*
X169239D01*
X168649Y163498D02*
Y164679D01*
X30263Y132592D02*
X31444D01*
X30853Y132002D02*
Y133183D01*
X199554Y156214D02*
X200735D01*
X200145Y155624D02*
Y156805D01*
X6640Y140466D02*
X7822D01*
X7231Y139876D02*
Y141057D01*
X162152Y160152D02*
X163333D01*
X162743Y159561D02*
Y160742D01*
X63727Y81411D02*
X64908D01*
X64318Y80821D02*
Y82002D01*
X2703Y108970D02*
X3885D01*
X3294Y108380D02*
Y109561D01*
X57822Y156214D02*
X59003D01*
X58412Y155624D02*
Y156805D01*
X124751Y101096D02*
X125932D01*
X125341Y100506D02*
Y101687D01*
X47979Y152278D02*
X49160D01*
X48570Y151687D02*
Y152868D01*
X175932Y53852D02*
X177113D01*
X176523Y53262D02*
Y54443D01*
X36168Y152278D02*
X37349D01*
X36759Y151687D02*
Y152868D01*
X49948Y140466D02*
X51129D01*
X50538Y139876D02*
Y141057D01*
X2703Y148340D02*
X3885D01*
X3294Y147750D02*
Y148931D01*
X42074Y132592D02*
X43255D01*
X42664Y132002D02*
Y133183D01*
X4672Y112907D02*
X5853D01*
X5263Y112317D02*
Y113498D01*
X107034Y160152D02*
X108215D01*
X107625Y159561D02*
Y160742D01*
X38137Y6608D02*
X39318D01*
X38727Y6018D02*
Y7199D01*
X156247Y85348D02*
X157428D01*
X156837Y84758D02*
Y85939D01*
X191680Y132592D02*
X192861D01*
X192271Y132002D02*
Y133183D01*
X197585Y65663D02*
X198767D01*
X198176Y65073D02*
Y66254D01*
X225145Y57789D02*
X226326D01*
X225735Y57199D02*
Y58380D01*
X24357Y136529D02*
X25538D01*
X24948Y135939D02*
Y137120D01*
X229082Y18419D02*
X230263D01*
X229672Y17829D02*
Y19010D01*
X65696Y77474D02*
X66877D01*
X66286Y76884D02*
Y78065D01*
X144436Y61726D02*
X145617D01*
X145026Y61136D02*
Y62317D01*
X150341Y42041D02*
X151523D01*
X150932Y41451D02*
Y42632D01*
X152310Y69600D02*
X153491D01*
X152900Y69010D02*
Y70191D01*
X44042Y152278D02*
X45223D01*
X44633Y151687D02*
Y152868D01*
X185775Y136529D02*
X186955D01*
X186365Y135939D02*
Y137120D01*
X109003Y77474D02*
X110184D01*
X109593Y76884D02*
Y78065D01*
X30263Y164088D02*
X31444D01*
X30853Y163498D02*
Y164679D01*
X213334Y57789D02*
X214515D01*
X213924Y57199D02*
Y58380D01*
X213334Y160152D02*
X214515D01*
X213924Y159561D02*
Y160742D01*
X201522Y81411D02*
X202704D01*
X202113Y80821D02*
Y82002D01*
X146404Y152278D02*
X147585D01*
X146995Y151687D02*
Y152868D01*
X164121Y164088D02*
X165302D01*
X164711Y163498D02*
Y164679D01*
X10577Y148340D02*
X11759D01*
X11168Y147750D02*
Y148931D01*
X105066Y6608D02*
X106247D01*
X105656Y6018D02*
Y7199D01*
X69633Y6608D02*
X70814D01*
X70223Y6018D02*
Y7199D01*
X38137Y148340D02*
X39318D01*
X38727Y147750D02*
Y148931D01*
X132625Y77474D02*
X133806D01*
X133215Y76884D02*
Y78065D01*
X49948Y124718D02*
X51129D01*
X50538Y124128D02*
Y125309D01*
X195617Y77474D02*
X196798D01*
X196207Y76884D02*
Y78065D01*
X40105Y160152D02*
X41286D01*
X40696Y159561D02*
Y160742D01*
X105066Y164088D02*
X106247D01*
X105656Y163498D02*
Y164679D01*
X83412Y120781D02*
X84593D01*
X84003Y120191D02*
Y121372D01*
X154278Y81411D02*
X155459D01*
X154869Y80821D02*
Y82002D01*
X6640Y164088D02*
X7822D01*
X7231Y163498D02*
Y164679D01*
X189711Y136529D02*
X190893D01*
X190302Y135939D02*
Y137120D01*
X114908Y73537D02*
X116089D01*
X115499Y72947D02*
Y74128D01*
X57822Y148340D02*
X59003D01*
X58412Y147750D02*
Y148931D01*
X46011Y124718D02*
X47192D01*
X46601Y124128D02*
Y125309D01*
X65696Y85348D02*
X66877D01*
X66286Y84758D02*
Y85939D01*
X215302Y14482D02*
X216483D01*
X215893Y13892D02*
Y15073D01*
X215302Y156214D02*
X216483D01*
X215893Y155624D02*
Y156805D01*
X99160Y120781D02*
X100341D01*
X99751Y120191D02*
Y121372D01*
X142467Y152278D02*
X143648D01*
X143058Y151687D02*
Y152868D01*
X40105Y128655D02*
X41286D01*
X40696Y128065D02*
Y129246D01*
X120814Y101096D02*
X121995D01*
X121404Y100506D02*
Y101687D01*
X144436Y45978D02*
X145617D01*
X145026Y45388D02*
Y46569D01*
X146404Y57789D02*
X147585D01*
X146995Y57199D02*
Y58380D01*
X77507Y164088D02*
X78688D01*
X78097Y163498D02*
Y164679D01*
X40105Y152278D02*
X41286D01*
X40696Y151687D02*
Y152868D01*
X59790Y97159D02*
X60971D01*
X60381Y96569D02*
Y97750D01*
X44042Y120781D02*
X45223D01*
X44633Y120191D02*
Y121372D01*
X179869Y164088D02*
X181050D01*
X180459Y163498D02*
Y164679D01*
X10577Y124718D02*
X11759D01*
X11168Y124128D02*
Y125309D01*
X6640Y148340D02*
X7822D01*
X7231Y147750D02*
Y148931D01*
X156247Y30230D02*
X157428D01*
X156837Y29640D02*
Y30821D01*
X179869Y156214D02*
X181050D01*
X180459Y155624D02*
Y156805D01*
X166089Y49915D02*
X167271D01*
X166680Y49325D02*
Y50506D01*
X42074Y124718D02*
X43255D01*
X42664Y124128D02*
Y125309D01*
X128688Y164088D02*
X129869D01*
X129278Y163498D02*
Y164679D01*
X32231Y120781D02*
X33412D01*
X32822Y120191D02*
Y121372D01*
X148373Y164088D02*
X149554D01*
X148963Y163498D02*
Y164679D01*
X130656Y81411D02*
X131837D01*
X131247Y80821D02*
Y82002D01*
X134593Y81411D02*
X135774D01*
X135184Y80821D02*
Y82002D01*
X156247Y38104D02*
X157428D01*
X156837Y37514D02*
Y38695D01*
X209397Y10545D02*
X210578D01*
X209987Y9955D02*
Y11136D01*
X53885Y140466D02*
X55066D01*
X54475Y139876D02*
Y141057D01*
X97192Y6608D02*
X98373D01*
X97782Y6018D02*
Y7199D01*
X146404Y34167D02*
X147585D01*
X146995Y33577D02*
Y34758D01*
X93255Y116844D02*
X94436D01*
X93845Y116254D02*
Y117435D01*
X91286Y160152D02*
X92467D01*
X91877Y159561D02*
Y160742D01*
X170026Y160152D02*
X171207D01*
X170617Y159561D02*
Y160742D01*
X234987Y14482D02*
X236168D01*
X235578Y13892D02*
Y15073D01*
X38137Y132592D02*
X39318D01*
X38727Y132002D02*
Y133183D01*
X171995Y156214D02*
X173176D01*
X172585Y155624D02*
Y156805D01*
X30263Y156214D02*
X31444D01*
X30853Y155624D02*
Y156805D01*
X118845Y73537D02*
X120026D01*
X119436Y72947D02*
Y74128D01*
X132625Y93222D02*
X133806D01*
X133215Y92632D02*
Y93813D01*
X170026Y49915D02*
X171207D01*
X170617Y49325D02*
Y50506D01*
X205459Y10545D02*
X206641D01*
X206050Y9955D02*
Y11136D01*
X46011Y132592D02*
X47192D01*
X46601Y132002D02*
Y133183D01*
X158215Y42041D02*
X159397D01*
X158806Y41451D02*
Y42632D01*
X8609Y160152D02*
X9790D01*
X9200Y159561D02*
Y160742D01*
X199554Y77474D02*
X200735D01*
X200145Y76884D02*
Y78065D01*
X12546Y152278D02*
X13727D01*
X13137Y151687D02*
Y152868D01*
X34200Y6608D02*
X35381D01*
X34790Y6018D02*
Y7199D01*
X134593Y160152D02*
X135774D01*
X135184Y159561D02*
Y160742D01*
X197585Y18419D02*
X198767D01*
X198176Y17829D02*
Y19010D01*
X126719Y73537D02*
X127900D01*
X127310Y72947D02*
Y74128D01*
X160184Y38104D02*
X161365D01*
X160774Y37514D02*
Y38695D01*
X36168Y128655D02*
X37349D01*
X36759Y128065D02*
Y129246D01*
X85381Y116844D02*
X86562D01*
X85971Y116254D02*
Y117435D01*
X128688Y77474D02*
X129869D01*
X129278Y76884D02*
Y78065D01*
X158215Y89285D02*
X159397D01*
X158806Y88695D02*
Y89876D01*
X195617Y156214D02*
X196798D01*
X196207Y155624D02*
Y156805D01*
X118845Y81411D02*
X120026D01*
X119436Y80821D02*
Y82002D01*
X185775Y160152D02*
X186955D01*
X186365Y159561D02*
Y160742D01*
X189711Y152278D02*
X190893D01*
X190302Y151687D02*
Y152868D01*
X154278Y65663D02*
X155459D01*
X154869Y65073D02*
Y66254D01*
X126719Y81411D02*
X127900D01*
X127310Y80821D02*
Y82002D01*
X53885Y132592D02*
X55066D01*
X54475Y132002D02*
Y133183D01*
X164121Y156214D02*
X165302D01*
X164711Y155624D02*
Y156805D01*
X156247Y45978D02*
X157428D01*
X156837Y45388D02*
Y46569D01*
X46011Y164088D02*
X47192D01*
X46601Y163498D02*
Y164679D01*
X136562Y45978D02*
X137743D01*
X137152Y45388D02*
Y46569D01*
X209397Y18419D02*
X210578D01*
X209987Y17829D02*
Y19010D01*
X49948Y156214D02*
X51129D01*
X50538Y155624D02*
Y156805D01*
X12546Y128655D02*
X13727D01*
X13137Y128065D02*
Y129246D01*
X16483Y10545D02*
X17664D01*
X17074Y9955D02*
Y11136D01*
X195617Y14482D02*
X196798D01*
X196207Y13892D02*
Y15073D01*
X22388Y6608D02*
X23570D01*
X22979Y6018D02*
Y7199D01*
X32231Y144404D02*
X33412D01*
X32822Y143813D02*
Y144994D01*
X140499Y69600D02*
X141680D01*
X141089Y69010D02*
Y70191D01*
X138530Y73537D02*
X139711D01*
X139121Y72947D02*
Y74128D01*
X24357Y65663D02*
X25538D01*
X24948Y65073D02*
Y66254D01*
X112940Y101096D02*
X114121D01*
X113530Y100506D02*
Y101687D01*
X124751Y69600D02*
X125932D01*
X125341Y69010D02*
Y70191D01*
X148373Y30230D02*
X149554D01*
X148963Y29640D02*
Y30821D01*
X162152Y73537D02*
X163333D01*
X162743Y72947D02*
Y74128D01*
X116877Y101096D02*
X118058D01*
X117467Y100506D02*
Y101687D01*
X120814Y77474D02*
X121995D01*
X121404Y76884D02*
Y78065D01*
X144436Y164088D02*
X145617D01*
X145026Y163498D02*
Y164679D01*
X156247Y77474D02*
X157428D01*
X156837Y76884D02*
Y78065D01*
X160184Y156214D02*
X161365D01*
X160774Y155624D02*
Y156805D01*
X53885Y116844D02*
X55066D01*
X54475Y116254D02*
Y117435D01*
X4672Y2671D02*
X5853D01*
X5263Y2080D02*
Y3262D01*
X34200Y124718D02*
X35381D01*
X34790Y124128D02*
Y125309D01*
X32231Y136529D02*
X33412D01*
X32822Y135939D02*
Y137120D01*
X122782Y81411D02*
X123963D01*
X123373Y80821D02*
Y82002D01*
X136562Y93222D02*
X137743D01*
X137152Y92632D02*
Y93813D01*
X189711Y18419D02*
X190893D01*
X190302Y17829D02*
Y19010D01*
X18451Y14482D02*
X19633D01*
X19042Y13892D02*
Y15073D01*
X168058Y53852D02*
X169239D01*
X168649Y53262D02*
Y54443D01*
X160184Y53852D02*
X161365D01*
X160774Y53262D02*
Y54443D01*
X10577Y108970D02*
X11759D01*
X11168Y108380D02*
Y109561D01*
X154278Y152278D02*
X155459D01*
X154869Y151687D02*
Y152868D01*
X53885Y148340D02*
X55066D01*
X54475Y147750D02*
Y148931D01*
X189711Y97159D02*
X190893D01*
X190302Y96569D02*
Y97750D01*
X26326Y148340D02*
X27507D01*
X26916Y147750D02*
Y148931D01*
X8609Y112907D02*
X9790D01*
X9200Y112317D02*
Y113498D01*
X69633Y164088D02*
X70814D01*
X70223Y163498D02*
Y164679D01*
X112940Y69600D02*
X114121D01*
X113530Y69010D02*
Y70191D01*
X152310Y77474D02*
X153491D01*
X152900Y76884D02*
Y78065D01*
X191680Y148340D02*
X192861D01*
X192271Y147750D02*
Y148931D01*
X24357Y112907D02*
X25538D01*
X24948Y112317D02*
Y113498D01*
X97192Y156214D02*
X98373D01*
X97782Y155624D02*
Y156805D01*
X199554Y69600D02*
X200735D01*
X200145Y69010D02*
Y70191D01*
X246798Y14482D02*
X247979D01*
X247389Y13892D02*
Y15073D01*
X87349Y152278D02*
X88530D01*
X87940Y151687D02*
Y152868D01*
X166089Y152278D02*
X167271D01*
X166680Y151687D02*
Y152868D01*
X148373Y77474D02*
X149554D01*
X148963Y76884D02*
Y78065D01*
X203491Y156214D02*
X204672D01*
X204082Y155624D02*
Y156805D01*
X93255Y156214D02*
X94436D01*
X93845Y155624D02*
Y156805D01*
X171995Y53852D02*
X173176D01*
X172585Y53262D02*
Y54443D01*
X46011Y156214D02*
X47192D01*
X46601Y155624D02*
Y156805D01*
X93255Y6608D02*
X94436D01*
X93845Y6018D02*
Y7199D01*
X201522Y73537D02*
X202704D01*
X202113Y72947D02*
Y74128D01*
X209397Y152278D02*
X210578D01*
X209987Y151687D02*
Y152868D01*
X57822Y116844D02*
X59003D01*
X58412Y116254D02*
Y117435D01*
X248767Y49915D02*
X249948D01*
X249357Y49325D02*
Y50506D01*
X16483Y152278D02*
X17664D01*
X17074Y151687D02*
Y152868D01*
X81444Y6608D02*
X82625D01*
X82034Y6018D02*
Y7199D01*
X8609Y105033D02*
X9790D01*
X9200Y104443D02*
Y105624D01*
X22388Y156214D02*
X23570D01*
X22979Y155624D02*
Y156805D01*
X217270Y18419D02*
X218452D01*
X217861Y17829D02*
Y19010D01*
X4672Y160152D02*
X5853D01*
X5263Y159561D02*
Y160742D01*
X8609Y120781D02*
X9790D01*
X9200Y120191D02*
Y121372D01*
X140499Y164088D02*
X141680D01*
X141089Y163498D02*
Y164679D01*
X144436Y38104D02*
X145617D01*
X145026Y37514D02*
Y38695D01*
X55853Y120781D02*
X57034D01*
X56444Y120191D02*
Y121372D01*
X140499Y156214D02*
X141680D01*
X141089Y155624D02*
Y156805D01*
X22388Y124718D02*
X23570D01*
X22979Y124128D02*
Y125309D01*
X162152Y65663D02*
X163333D01*
X162743Y65073D02*
Y66254D01*
X32231Y152278D02*
X33412D01*
X32822Y151687D02*
Y152868D01*
X99160Y105033D02*
X100341D01*
X99751Y104443D02*
Y105624D01*
X140499Y53852D02*
X141680D01*
X141089Y53262D02*
Y54443D01*
X138530Y65663D02*
X139711D01*
X139121Y65073D02*
Y66254D01*
X179869Y101096D02*
X181050D01*
X180459Y100506D02*
Y101687D01*
X128688Y101096D02*
X129869D01*
X129278Y100506D02*
Y101687D01*
X148373Y85348D02*
X149554D01*
X148963Y84758D02*
Y85939D01*
X205459Y65663D02*
X206641D01*
X206050Y65073D02*
Y66254D01*
X16483Y160152D02*
X17664D01*
X17074Y159561D02*
Y160742D01*
X59790Y160152D02*
X60971D01*
X60381Y159561D02*
Y160742D01*
X154278Y42041D02*
X155459D01*
X154869Y41451D02*
Y42632D01*
X6640Y132592D02*
X7822D01*
X7231Y132002D02*
Y133183D01*
X87349Y120781D02*
X88530D01*
X87940Y120191D02*
Y121372D01*
X110971Y81411D02*
X112152D01*
X111562Y80821D02*
Y82002D01*
X12546Y112907D02*
X13727D01*
X13137Y112317D02*
Y113498D01*
X242861Y69600D02*
X244042D01*
X243452Y69010D02*
Y70191D01*
X132625Y69600D02*
X133806D01*
X133215Y69010D02*
Y70191D01*
X42074Y6608D02*
X43255D01*
X42664Y6018D02*
Y7199D01*
X122782Y73537D02*
X123963D01*
X123373Y72947D02*
Y74128D01*
X103097Y160152D02*
X104278D01*
X103688Y159561D02*
Y160742D01*
X30263Y140466D02*
X31444D01*
X30853Y139876D02*
Y141057D01*
X46011Y6608D02*
X47192D01*
X46601Y6018D02*
Y7199D01*
X116877Y77474D02*
X118058D01*
X117467Y76884D02*
Y78065D01*
X49948Y148340D02*
X51129D01*
X50538Y147750D02*
Y148931D01*
X136562Y38104D02*
X137743D01*
X137152Y37514D02*
Y38695D01*
X138530Y152278D02*
X139711D01*
X139121Y151687D02*
Y152868D01*
X138530Y160152D02*
X139711D01*
X139121Y159561D02*
Y160742D01*
X162152Y152278D02*
X163333D01*
X162743Y151687D02*
Y152868D01*
X36168Y160152D02*
X37349D01*
X36759Y159561D02*
Y160742D01*
X205459Y73537D02*
X206641D01*
X206050Y72947D02*
Y74128D01*
X85381Y156214D02*
X86562D01*
X85971Y155624D02*
Y156805D01*
X205459Y81411D02*
X206641D01*
X206050Y80821D02*
Y82002D01*
X211365Y156214D02*
X212546D01*
X211956Y155624D02*
Y156805D01*
X109003Y116844D02*
X110184D01*
X109593Y116254D02*
Y117435D01*
X34200Y132592D02*
X35381D01*
X34790Y132002D02*
Y133183D01*
X164121Y53852D02*
X165302D01*
X164711Y53262D02*
Y54443D01*
X221207Y18419D02*
X222389D01*
X221798Y17829D02*
Y19010D01*
X193649Y18419D02*
X194830D01*
X194239Y17829D02*
Y19010D01*
X51916Y136529D02*
X53097D01*
X52507Y135939D02*
Y137120D01*
X116877Y6608D02*
X118058D01*
X117467Y6018D02*
Y7199D01*
X152310Y30230D02*
X153491D01*
X152900Y29640D02*
Y30821D01*
X244830Y49915D02*
X246011D01*
X245420Y49325D02*
Y50506D01*
X191680Y164088D02*
X192861D01*
X192271Y163498D02*
Y164679D01*
X63727Y89285D02*
X64908D01*
X64318Y88695D02*
Y89876D01*
X38137Y124718D02*
X39318D01*
X38727Y124128D02*
Y125309D01*
X46011Y116844D02*
X47192D01*
X46601Y116254D02*
Y117435D01*
X67664Y152278D02*
X68845D01*
X68255Y151687D02*
Y152868D01*
X83412Y160152D02*
X84593D01*
X84003Y159561D02*
Y160742D01*
X53885Y164088D02*
X55066D01*
X54475Y163498D02*
Y164679D01*
X132625Y164088D02*
X133806D01*
X133215Y163498D02*
Y164679D01*
X28294Y144404D02*
X29475D01*
X28885Y143813D02*
Y144994D01*
X51916Y144404D02*
X53097D01*
X52507Y143813D02*
Y144994D01*
X73570Y164088D02*
X74751D01*
X74160Y163498D02*
Y164679D01*
X136562Y69600D02*
X137743D01*
X137152Y69010D02*
Y70191D01*
X150341Y49915D02*
X151523D01*
X150932Y49325D02*
Y50506D01*
X65696Y69600D02*
X66877D01*
X66286Y69010D02*
Y70191D01*
X195617Y69600D02*
X196798D01*
X196207Y69010D02*
Y70191D01*
X203491Y164088D02*
X204672D01*
X204082Y163498D02*
Y164679D01*
X83412Y152278D02*
X84593D01*
X84003Y151687D02*
Y152868D01*
X20420Y160152D02*
X21601D01*
X21011Y159561D02*
Y160742D01*
X26326Y164088D02*
X27507D01*
X26916Y163498D02*
Y164679D01*
X57822Y140466D02*
X59003D01*
X58412Y139876D02*
Y141057D01*
X26326Y156214D02*
X27507D01*
X26916Y155624D02*
Y156805D01*
X101129Y6608D02*
X102310D01*
X101719Y6018D02*
Y7199D01*
X166089Y42041D02*
X167271D01*
X166680Y41451D02*
Y42632D01*
X61759Y93222D02*
X62940D01*
X62349Y92632D02*
Y93813D01*
X158215Y73537D02*
X159397D01*
X158806Y72947D02*
Y74128D01*
X173963Y49915D02*
X175145D01*
X174554Y49325D02*
Y50506D01*
X205459Y18419D02*
X206641D01*
X206050Y17829D02*
Y19010D01*
X30263Y148340D02*
X31444D01*
X30853Y147750D02*
Y148931D01*
X219239Y14482D02*
X220420D01*
X219830Y13892D02*
Y15073D01*
X238924Y14482D02*
X240105D01*
X239515Y13892D02*
Y15073D01*
X6640Y61726D02*
X7822D01*
X7231Y61136D02*
Y62317D01*
X175932Y101096D02*
X177113D01*
X176523Y100506D02*
Y101687D01*
X47979Y120781D02*
X49160D01*
X48570Y120191D02*
Y121372D01*
X49948Y132592D02*
X51129D01*
X50538Y132002D02*
Y133183D01*
X136562Y85348D02*
X137743D01*
X137152Y84758D02*
Y85939D01*
X146404Y26293D02*
X147585D01*
X146995Y25703D02*
Y26884D01*
X177900Y136529D02*
X179081D01*
X178491Y135939D02*
Y137120D01*
X236956Y57789D02*
X238137D01*
X237546Y57199D02*
Y58380D01*
X12546Y144404D02*
X13727D01*
X13137Y143813D02*
Y144994D01*
X49948Y164088D02*
X51129D01*
X50538Y163498D02*
Y164679D01*
X4672Y136529D02*
X5853D01*
X5263Y135939D02*
Y137120D01*
X191680Y14482D02*
X192861D01*
X192271Y13892D02*
Y15073D01*
X24357Y152278D02*
X25538D01*
X24948Y151687D02*
Y152868D01*
X242861Y61726D02*
X244042D01*
X243452Y61136D02*
Y62317D01*
X24357Y128655D02*
X25538D01*
X24948Y128065D02*
Y129246D01*
X207428Y69600D02*
X208609D01*
X208019Y69010D02*
Y70191D01*
X156247Y156214D02*
X157428D01*
X156837Y155624D02*
Y156805D01*
X75538Y152278D02*
X76719D01*
X76129Y151687D02*
Y152868D01*
X187743Y14482D02*
X188924D01*
X188333Y13892D02*
Y15073D01*
X201522Y10545D02*
X202704D01*
X202113Y9955D02*
Y11136D01*
X87349Y112907D02*
X88530D01*
X87940Y112317D02*
Y113498D01*
X154278Y26293D02*
X155459D01*
X154869Y25703D02*
Y26884D01*
X183806Y6608D02*
X184987D01*
X184397Y6018D02*
Y7199D01*
X148373Y53852D02*
X149554D01*
X148963Y53262D02*
Y54443D01*
X4672Y97159D02*
X5853D01*
X5263Y96569D02*
Y97750D01*
X12546Y136529D02*
X13727D01*
X13137Y135939D02*
Y137120D01*
X55853Y152278D02*
X57034D01*
X56444Y151687D02*
Y152868D01*
X110971Y112907D02*
X112152D01*
X111562Y112317D02*
Y113498D01*
X150341Y81411D02*
X151523D01*
X150932Y80821D02*
Y82002D01*
X211365Y164088D02*
X212546D01*
X211956Y163498D02*
Y164679D01*
X146404Y73537D02*
X147585D01*
X146995Y72947D02*
Y74128D01*
X148373Y93222D02*
X149554D01*
X148963Y92632D02*
Y93813D01*
X138530Y57789D02*
X139711D01*
X139121Y57199D02*
Y58380D01*
X158215Y65663D02*
X159397D01*
X158806Y65073D02*
Y66254D01*
X4672Y144404D02*
X5853D01*
X5263Y143813D02*
Y144994D01*
X2703Y6608D02*
X3885D01*
X3294Y6018D02*
Y7199D01*
X28294Y160152D02*
X29475D01*
X28885Y159561D02*
Y160742D01*
X87349Y160152D02*
X88530D01*
X87940Y159561D02*
Y160742D01*
X136562Y61726D02*
X137743D01*
X137152Y61136D02*
Y62317D01*
X144436Y30230D02*
X145617D01*
X145026Y29640D02*
Y30821D01*
X181837Y10545D02*
X183019D01*
X182428Y9955D02*
Y11136D01*
X164121Y45978D02*
X165302D01*
X164711Y45388D02*
Y46569D01*
X160184Y164088D02*
X161365D01*
X160774Y163498D02*
Y164679D01*
X195617Y164088D02*
X196798D01*
X196207Y163498D02*
Y164679D01*
X197585Y10545D02*
X198767D01*
X198176Y9955D02*
Y11136D01*
X2703Y124718D02*
X3885D01*
X3294Y124128D02*
Y125309D01*
X193649Y152278D02*
X194830D01*
X194239Y151687D02*
Y152868D01*
X10577Y116844D02*
X11759D01*
X11168Y116254D02*
Y117435D01*
X244830Y18419D02*
X246011D01*
X245420Y17829D02*
Y19010D01*
X49948Y6608D02*
X51129D01*
X50538Y6018D02*
Y7199D01*
X71601Y160152D02*
X72782D01*
X72192Y159561D02*
Y160742D01*
X138530Y34167D02*
X139711D01*
X139121Y33577D02*
Y34758D01*
X179869Y53852D02*
X181050D01*
X180459Y53262D02*
Y54443D01*
X112940Y6608D02*
X114121D01*
X113530Y6018D02*
Y7199D01*
X42074Y156214D02*
X43255D01*
X42664Y155624D02*
Y156805D01*
X112940Y156214D02*
X114121D01*
X113530Y155624D02*
Y156805D01*
X136562Y77474D02*
X137743D01*
X137152Y76884D02*
Y78065D01*
X18451Y156214D02*
X19633D01*
X19042Y155624D02*
Y156805D01*
X51916Y160152D02*
X53097D01*
X52507Y159561D02*
Y160742D01*
X183806Y164088D02*
X184987D01*
X184397Y163498D02*
Y164679D01*
X170026Y152278D02*
X171207D01*
X170617Y151687D02*
Y152868D01*
X152310Y38104D02*
X153491D01*
X152900Y37514D02*
Y38695D01*
X140499Y30230D02*
X141680D01*
X141089Y29640D02*
Y30821D01*
X20420Y18419D02*
X21601D01*
X21011Y17829D02*
Y19010D01*
X61759Y156214D02*
X62940D01*
X62349Y155624D02*
Y156805D01*
X150341Y160152D02*
X151523D01*
X150932Y159561D02*
Y160742D01*
X55853Y128655D02*
X57034D01*
X56444Y128065D02*
Y129246D01*
X101129Y164088D02*
X102310D01*
X101719Y163498D02*
Y164679D01*
X211365Y14482D02*
X212546D01*
X211956Y13892D02*
Y15073D01*
X57822Y164088D02*
X59003D01*
X58412Y163498D02*
Y164679D01*
X71601Y152278D02*
X72782D01*
X72192Y151687D02*
Y152868D01*
X124751Y77474D02*
X125932D01*
X125341Y76884D02*
Y78065D01*
X136562Y53852D02*
X137743D01*
X137152Y53262D02*
Y54443D01*
X85381Y6608D02*
X86562D01*
X85971Y6018D02*
Y7199D01*
X22388Y148340D02*
X23570D01*
X22979Y147750D02*
Y148931D01*
X144436Y156214D02*
X145617D01*
X145026Y155624D02*
Y156805D01*
X150341Y26293D02*
X151523D01*
X150932Y25703D02*
Y26884D01*
X160184Y45978D02*
X161365D01*
X160774Y45388D02*
Y46569D01*
X185775Y18419D02*
X186955D01*
X186365Y17829D02*
Y19010D01*
X134593Y89285D02*
X135774D01*
X135184Y88695D02*
Y89876D01*
X248767Y18419D02*
X249948D01*
X249357Y17829D02*
Y19010D01*
X112940Y164088D02*
X114121D01*
X113530Y163498D02*
Y164679D01*
X130656Y89285D02*
X131837D01*
X131247Y88695D02*
Y89876D01*
X2703Y164088D02*
X3885D01*
X3294Y163498D02*
Y164679D01*
X55853Y160152D02*
X57034D01*
X56444Y159561D02*
Y160742D01*
X150341Y73537D02*
X151523D01*
X150932Y72947D02*
Y74128D01*
X152310Y156214D02*
X153491D01*
X152900Y155624D02*
Y156805D01*
X6640Y101096D02*
X7822D01*
X7231Y100506D02*
Y101687D01*
X175932Y164088D02*
X177113D01*
X176523Y163498D02*
Y164679D01*
X109003Y6608D02*
X110184D01*
X109593Y6018D02*
Y7199D01*
X4672Y128655D02*
X5853D01*
X5263Y128065D02*
Y129246D01*
X219239Y164088D02*
X220420D01*
X219830Y163498D02*
Y164679D01*
X6640Y156214D02*
X7822D01*
X7231Y155624D02*
Y156805D01*
X12546Y120781D02*
X13727D01*
X13137Y120191D02*
Y121372D01*
X20420Y10545D02*
X21601D01*
X21011Y9955D02*
Y11136D01*
X110971Y105033D02*
X112152D01*
X111562Y104443D02*
Y105624D01*
X105066Y77474D02*
X106247D01*
X105656Y76884D02*
Y78065D01*
X28294Y136529D02*
X29475D01*
X28885Y135939D02*
Y137120D01*
X32231Y128655D02*
X33412D01*
X32822Y128065D02*
Y129246D01*
X132625Y85348D02*
X133806D01*
X133215Y84758D02*
Y85939D01*
X193649Y10545D02*
X194830D01*
X194239Y9955D02*
Y11136D01*
X197585Y136529D02*
X198767D01*
X198176Y135939D02*
Y137120D01*
X142467Y65663D02*
X143648D01*
X143058Y65073D02*
Y66254D01*
X201522Y18419D02*
X202704D01*
X202113Y17829D02*
Y19010D01*
X20420Y120781D02*
X21601D01*
X21011Y120191D02*
Y121372D01*
X28294Y120781D02*
X29475D01*
X28885Y120191D02*
Y121372D01*
X191680Y140466D02*
X192861D01*
X192271Y139876D02*
Y141057D01*
X112940Y77474D02*
X114121D01*
X113530Y76884D02*
Y78065D01*
X148373Y156214D02*
X149554D01*
X148963Y155624D02*
Y156805D01*
X44042Y128655D02*
X45223D01*
X44633Y128065D02*
Y129246D01*
X38137Y156214D02*
X39318D01*
X38727Y155624D02*
Y156805D01*
X128688Y85348D02*
X129869D01*
X129278Y84758D02*
Y85939D01*
X160184Y69600D02*
X161365D01*
X160774Y69010D02*
Y70191D01*
X179869Y6608D02*
X181050D01*
X180459Y6018D02*
Y7199D01*
X154278Y34167D02*
X155459D01*
X154869Y33577D02*
Y34758D01*
X181837Y97159D02*
X183019D01*
X182428Y96569D02*
Y97750D01*
X12546Y160152D02*
X13727D01*
X13137Y159561D02*
Y160742D01*
X47979Y160152D02*
X49160D01*
X48570Y159561D02*
Y160742D01*
X112940Y85348D02*
X114121D01*
X113530Y84758D02*
Y85939D01*
X158215Y49915D02*
X159397D01*
X158806Y49325D02*
Y50506D01*
X199554Y164088D02*
X200735D01*
X200145Y163498D02*
Y164679D01*
X193649Y73537D02*
X194830D01*
X194239Y72947D02*
Y74128D01*
X22388Y132592D02*
X23570D01*
X22979Y132002D02*
Y133183D01*
X101129Y156214D02*
X102310D01*
X101719Y155624D02*
Y156805D01*
X162152Y42041D02*
X163333D01*
X162743Y41451D02*
Y42632D01*
X59790Y105033D02*
X60971D01*
X60381Y104443D02*
Y105624D01*
X32231Y160152D02*
X33412D01*
X32822Y159561D02*
Y160742D01*
X75538Y160152D02*
X76719D01*
X76129Y159561D02*
Y160742D01*
X168058Y156214D02*
X169239D01*
X168649Y155624D02*
Y156805D01*
X187743Y101096D02*
X188924D01*
X188333Y100506D02*
Y101687D01*
X148373Y69600D02*
X149554D01*
X148963Y69010D02*
Y70191D01*
X51916Y128655D02*
X53097D01*
X52507Y128065D02*
Y129246D01*
X91286Y112907D02*
X92467D01*
X91877Y112317D02*
Y113498D01*
X154278Y49915D02*
X155459D01*
X154869Y49325D02*
Y50506D01*
X110971Y152278D02*
X112152D01*
X111562Y151687D02*
Y152868D01*
X207428Y61726D02*
X208609D01*
X208019Y61136D02*
Y62317D01*
X213334Y152278D02*
X214515D01*
X213924Y151687D02*
Y152868D01*
X14514Y6608D02*
X15696D01*
X15105Y6018D02*
Y7199D01*
X132625Y101096D02*
X133806D01*
X133215Y100506D02*
Y101687D01*
X6640Y108970D02*
X7822D01*
X7231Y108380D02*
Y109561D01*
X148373Y61726D02*
X149554D01*
X148963Y61136D02*
Y62317D01*
X34200Y156214D02*
X35381D01*
X34790Y155624D02*
Y156805D01*
X231050Y14482D02*
X232231D01*
X231641Y13892D02*
Y15073D01*
X233019Y18419D02*
X234200D01*
X233609Y17829D02*
Y19010D01*
X95223Y160152D02*
X96404D01*
X95814Y159561D02*
Y160742D01*
X26326Y124718D02*
X27507D01*
X26916Y124128D02*
Y125309D01*
X53885Y156214D02*
X55066D01*
X54475Y155624D02*
Y156805D01*
X22388Y116844D02*
X23570D01*
X22979Y116254D02*
Y117435D01*
X8609Y152278D02*
X9790D01*
X9200Y151687D02*
Y152868D01*
X91286Y120781D02*
X92467D01*
X91877Y120191D02*
Y121372D01*
X112940Y108970D02*
X114121D01*
X113530Y108380D02*
Y109561D01*
X158215Y81411D02*
X159397D01*
X158806Y80821D02*
Y82002D01*
X201522Y160152D02*
X202704D01*
X202113Y159561D02*
Y160742D01*
X227113Y14482D02*
X228294D01*
X227704Y13892D02*
Y15073D01*
X6640Y124718D02*
X7822D01*
X7231Y124128D02*
Y125309D01*
X89318Y116844D02*
X90499D01*
X89908Y116254D02*
Y117435D01*
X81444Y156214D02*
X82625D01*
X82034Y155624D02*
Y156805D01*
X93255Y164088D02*
X94436D01*
X93845Y163498D02*
Y164679D01*
X109003Y108970D02*
X110184D01*
X109593Y108380D02*
Y109561D01*
X166089Y160152D02*
X167271D01*
X166680Y159561D02*
Y160742D01*
X209397Y160152D02*
X210578D01*
X209987Y159561D02*
Y160742D01*
X221207Y57789D02*
X222389D01*
X221798Y57199D02*
Y58380D01*
X240893Y18419D02*
X242074D01*
X241483Y17829D02*
Y19010D01*
X59790Y152278D02*
X60971D01*
X60381Y151687D02*
Y152868D01*
X99160Y160152D02*
X100341D01*
X99751Y159561D02*
Y160742D01*
X110971Y160152D02*
X112152D01*
X111562Y159561D02*
Y160742D01*
X162152Y49915D02*
X163333D01*
X162743Y49325D02*
Y50506D01*
X136562Y164088D02*
X137743D01*
X137152Y163498D02*
Y164679D01*
X138530Y49915D02*
X139711D01*
X139121Y49325D02*
Y50506D01*
X2703Y101096D02*
X3885D01*
X3294Y100506D02*
Y101687D01*
X30263Y124718D02*
X31444D01*
X30853Y124128D02*
Y125309D01*
X183806Y156214D02*
X184987D01*
X184397Y155624D02*
Y156805D01*
X2703Y140466D02*
X3885D01*
X3294Y139876D02*
Y141057D01*
X63727Y73537D02*
X64908D01*
X64318Y72947D02*
Y74128D01*
X142467Y160152D02*
X143648D01*
X143058Y159561D02*
Y160742D01*
X146404Y160152D02*
X147585D01*
X146995Y159561D02*
Y160742D01*
X185775Y97159D02*
X186955D01*
X186365Y96569D02*
Y97750D01*
X8609Y144404D02*
X9790D01*
X9200Y143813D02*
Y144994D01*
X24357Y144404D02*
X25538D01*
X24948Y143813D02*
Y144994D01*
X38137Y116844D02*
X39318D01*
X38727Y116254D02*
Y117435D01*
X158215Y152278D02*
X159397D01*
X158806Y151687D02*
Y152868D01*
X16483Y18419D02*
X17664D01*
X17074Y17829D02*
Y19010D01*
X30263Y6608D02*
X31444D01*
X30853Y6018D02*
Y7199D01*
X26326Y132592D02*
X27507D01*
X26916Y132002D02*
Y133183D01*
X53885Y124718D02*
X55066D01*
X54475Y124128D02*
Y125309D01*
X150341Y89285D02*
X151523D01*
X150932Y88695D02*
Y89876D01*
X189711Y144404D02*
X190893D01*
X190302Y143813D02*
Y144994D01*
X205459Y57789D02*
X206641D01*
X206050Y57199D02*
Y58380D01*
X183806Y101096D02*
X184987D01*
X184397Y100506D02*
Y101687D01*
X120814Y164088D02*
X121995D01*
X121404Y163498D02*
Y164679D01*
X175932Y6608D02*
X177113D01*
X176523Y6018D02*
Y7199D01*
X40105Y120781D02*
X41286D01*
X40696Y120191D02*
Y121372D01*
X124751Y164088D02*
X125932D01*
X125341Y163498D02*
Y164679D01*
X89318Y156214D02*
X90499D01*
X89908Y155624D02*
Y156805D01*
X144436Y53852D02*
X145617D01*
X145026Y53262D02*
Y54443D01*
X6640Y116844D02*
X7822D01*
X7231Y116254D02*
Y117435D01*
X95223Y112907D02*
X96404D01*
X95814Y112317D02*
Y113498D01*
X217270Y160152D02*
X218452D01*
X217861Y159561D02*
Y160742D01*
X242861Y30230D02*
X244042D01*
X243452Y29640D02*
Y30821D01*
X14514Y156214D02*
X15696D01*
X15105Y155624D02*
Y156805D01*
X77507Y156214D02*
X78688D01*
X78097Y155624D02*
Y156805D01*
X51916Y120781D02*
X53097D01*
X52507Y120191D02*
Y121372D01*
X81444Y116844D02*
X82625D01*
X82034Y116254D02*
Y117435D01*
X142467Y34167D02*
X143648D01*
X143058Y33577D02*
Y34758D01*
X205459Y160152D02*
X206641D01*
X206050Y159561D02*
Y160742D01*
X63727Y152278D02*
X64908D01*
X64318Y151687D02*
Y152868D01*
X233019Y57789D02*
X234200D01*
X233609Y57199D02*
Y58380D01*
X83412Y112907D02*
X84593D01*
X84003Y112317D02*
Y113498D01*
X195617Y61726D02*
X196798D01*
X196207Y61136D02*
Y62317D01*
X114908Y97159D02*
X116089D01*
X115499Y96569D02*
Y97750D01*
X146404Y49915D02*
X147585D01*
X146995Y49325D02*
Y50506D01*
X42074Y148340D02*
X43255D01*
X42664Y147750D02*
Y148931D01*
X177900Y10545D02*
X179081D01*
X178491Y9955D02*
Y11136D01*
X10577Y132592D02*
X11759D01*
X11168Y132002D02*
Y133183D01*
X173963Y152278D02*
X175145D01*
X174554Y151687D02*
Y152868D01*
X57822Y132592D02*
X59003D01*
X58412Y132002D02*
Y133183D01*
X10577Y156214D02*
X11759D01*
X11168Y155624D02*
Y156805D01*
X207428Y14482D02*
X208609D01*
X208019Y13892D02*
Y15073D01*
X150341Y65663D02*
X151523D01*
X150932Y65073D02*
Y66254D01*
X114908Y105033D02*
X116089D01*
X115499Y104443D02*
Y105624D01*
X65696Y156214D02*
X66877D01*
X66286Y155624D02*
Y156805D01*
X134593Y152278D02*
X135774D01*
X135184Y151687D02*
Y152868D01*
X156247Y69600D02*
X157428D01*
X156837Y69010D02*
Y70191D01*
X85381Y164088D02*
X86562D01*
X85971Y163498D02*
Y164679D01*
X79475Y152278D02*
X80656D01*
X80066Y151687D02*
Y152868D01*
X109003Y69600D02*
X110184D01*
X109593Y69010D02*
Y70191D01*
X46011Y148340D02*
X47192D01*
X46601Y147750D02*
Y148931D01*
X154278Y73537D02*
X155459D01*
X154869Y72947D02*
Y74128D01*
X183806Y93222D02*
X184987D01*
X184397Y92632D02*
Y93813D01*
X189711Y160152D02*
X190893D01*
X190302Y159561D02*
Y160742D01*
X28294Y65663D02*
X29475D01*
X28885Y65073D02*
Y66254D01*
X49948Y116844D02*
X51129D01*
X50538Y116254D02*
Y117435D01*
X73570Y156214D02*
X74751D01*
X74160Y155624D02*
Y156805D01*
X156247Y164088D02*
X157428D01*
X156837Y163498D02*
Y164679D01*
X183806Y14482D02*
X184987D01*
X184397Y13892D02*
Y15073D01*
X191680Y156214D02*
X192861D01*
X192271Y155624D02*
Y156805D01*
X242861Y14482D02*
X244042D01*
X243452Y13892D02*
Y15073D01*
X240893Y57789D02*
X242074D01*
X241483Y57199D02*
Y58380D01*
X14514Y164088D02*
X15696D01*
X15105Y163498D02*
Y164679D01*
X107034Y105033D02*
X108215D01*
X107625Y104443D02*
Y105624D01*
X152310Y45978D02*
X153491D01*
X152900Y45388D02*
Y46569D01*
X81444Y164088D02*
X82625D01*
X82034Y163498D02*
Y164679D01*
X57822Y124718D02*
X59003D01*
X58412Y124128D02*
Y125309D01*
X223176Y14482D02*
X224357D01*
X223767Y13892D02*
Y15073D01*
X130656Y73537D02*
X131837D01*
X131247Y72947D02*
Y74128D01*
X116877Y164088D02*
X118058D01*
X117467Y163498D02*
Y164679D01*
X187743Y140466D02*
X188924D01*
X188333Y139876D02*
Y141057D01*
X193649Y144404D02*
X194830D01*
X194239Y143813D02*
Y144994D01*
X2703Y116844D02*
X3885D01*
X3294Y116254D02*
Y117435D01*
X197585Y81411D02*
X198767D01*
X198176Y80821D02*
Y82002D01*
X67664Y160152D02*
X68845D01*
X68255Y159561D02*
Y160742D01*
X207428Y164088D02*
X208609D01*
X208019Y163498D02*
Y164679D01*
X47979Y128655D02*
X49160D01*
X48570Y128065D02*
Y129246D01*
X229213Y165157D02*
X230394D01*
X229803Y164567D02*
Y165748D01*
X227677Y163622D02*
X228858D01*
X228268Y163031D02*
Y164213D01*
X226142Y162087D02*
X227323D01*
X226732Y161496D02*
Y162677D01*
X224606Y160551D02*
X225787D01*
X225197Y159961D02*
Y161142D01*
X223110Y158976D02*
X224291D01*
X223701Y158386D02*
Y159567D01*
X178198Y88675D02*
X179379D01*
X178789Y88084D02*
Y89265D01*
X165698Y88675D02*
X166879D01*
X166289Y88084D02*
Y89265D01*
M02*
