G04*
G04 #@! TF.GenerationSoftware,Altium Limited,Altium Designer,22.4.2 (48)*
G04*
G04 Layer_Physical_Order=1*
G04 Layer_Color=255*
%FSLAX25Y25*%
%MOIN*%
G70*
G04*
G04 #@! TF.SameCoordinates,8CA05075-6D7B-4B7B-A49F-257FEDEDD644*
G04*
G04*
G04 #@! TF.FilePolarity,Positive*
G04*
G01*
G75*
%ADD12R,0.06614X0.11614*%
%ADD13R,0.08000X0.14000*%
%ADD14O,0.12992X0.05000*%
%ADD15R,0.13386X0.03937*%
%ADD16R,0.14000X0.08000*%
%ADD28C,0.01968*%
%ADD29C,0.09843*%
%ADD30R,0.09843X0.09843*%
%ADD31C,0.04724*%
%ADD32C,0.07480*%
%ADD33C,0.05906*%
%ADD34R,0.05906X0.05906*%
%ADD35C,0.02756*%
%ADD36C,0.02362*%
G36*
X238445Y167047D02*
X245804D01*
X245804Y167047D01*
Y154819D01*
X245673Y154689D01*
X243819D01*
X243358Y154597D01*
X242968Y154336D01*
X242706Y153945D01*
X242615Y153484D01*
X242615Y151630D01*
X238445Y147461D01*
X238445Y115486D01*
X222461Y115486D01*
X222461Y159509D01*
X230044Y167091D01*
X238445Y167047D01*
D02*
G37*
G36*
X264606Y90500D02*
X244172Y90500D01*
X243819Y90854D01*
X243819Y153484D01*
X247008D01*
Y167047D01*
X264606Y167047D01*
X264606Y90500D01*
D02*
G37*
G36*
X228965Y167716D02*
X228131Y166881D01*
X228100Y166860D01*
X228080Y166830D01*
X226595Y165346D01*
X226565Y165325D01*
X226544Y165295D01*
X225060Y163810D01*
X225029Y163790D01*
X225009Y163759D01*
X223524Y162275D01*
X223494Y162254D01*
X223473Y162224D01*
X221610Y160360D01*
X221349Y159969D01*
X221257Y159509D01*
X221257Y159509D01*
X221257Y115486D01*
X221349Y115025D01*
X221610Y114635D01*
X222001Y114374D01*
X222461Y114282D01*
X238445Y114282D01*
X238906Y114374D01*
X239297Y114635D01*
X239558Y115025D01*
X239649Y115486D01*
X239649Y146962D01*
X242153Y149466D01*
X242615Y149274D01*
X242615Y90854D01*
X242615Y90854D01*
X242706Y90393D01*
X242967Y90002D01*
X243321Y89648D01*
X243711Y89387D01*
X244172Y89296D01*
X244172Y89296D01*
X259681Y89296D01*
Y28665D01*
X258944Y27927D01*
X258262Y28450D01*
X257400Y28807D01*
X256475Y28929D01*
X255550Y28807D01*
X254688Y28450D01*
X253948Y27882D01*
X253703Y27563D01*
X239908D01*
X239661Y28063D01*
X240088Y28618D01*
X240353Y29260D01*
X240584Y29816D01*
X240584Y29816D01*
X240584Y29816D01*
X240664Y30424D01*
X240753Y31100D01*
X240753Y50500D01*
X240584Y51785D01*
X240088Y52982D01*
X239299Y54010D01*
X238271Y54799D01*
X237074Y55295D01*
X235789Y55464D01*
X188089Y55464D01*
X186804Y55295D01*
X185607Y54799D01*
X184579Y54010D01*
X150582Y20012D01*
X150236Y19562D01*
X149876Y19124D01*
X149843Y19049D01*
X149793Y18984D01*
X149576Y18460D01*
X149342Y17943D01*
X149322Y17878D01*
X148978Y17236D01*
X148516Y16673D01*
X147953Y16211D01*
X147311Y15867D01*
X146614Y15656D01*
X145889Y15584D01*
X145164Y15656D01*
X144467Y15867D01*
X143825Y16211D01*
X143039Y16856D01*
X142694Y17070D01*
X142372Y17317D01*
X142146Y17411D01*
X141938Y17540D01*
X141550Y17658D01*
X141174Y17813D01*
X140932Y17845D01*
X140698Y17916D01*
X140292Y17929D01*
X139890Y17982D01*
X137453Y17982D01*
X137453Y24040D01*
X137553Y24800D01*
X137384Y26085D01*
X136888Y27282D01*
X136099Y28310D01*
X136099Y28310D01*
X135653Y28756D01*
X135653Y62400D01*
X135512Y63470D01*
Y66850D01*
X132805D01*
X131974Y67195D01*
X130689Y67364D01*
X108645Y67364D01*
X108242Y67311D01*
X107836Y67297D01*
X107602Y67226D01*
X107360Y67195D01*
X106985Y67039D01*
X106596Y66921D01*
X106389Y66792D01*
X106163Y66699D01*
X105885Y66486D01*
X104789Y65900D01*
X103870Y65621D01*
X103109Y65546D01*
X102713Y65454D01*
X102310Y65401D01*
X102085Y65307D01*
X101847Y65252D01*
X101488Y65060D01*
X101113Y64905D01*
X100919Y64756D01*
X100704Y64641D01*
X100407Y64363D01*
X100085Y64116D01*
X98190Y62221D01*
X96668D01*
Y60698D01*
X95415Y59446D01*
X94953Y59637D01*
Y69544D01*
X112862Y87453D01*
X112893Y87494D01*
X112933Y87526D01*
X113287Y88007D01*
X113651Y88481D01*
X113671Y88529D01*
X113701Y88570D01*
X113918Y89126D01*
X114147Y89679D01*
X114154Y89729D01*
X114172Y89777D01*
X114238Y90371D01*
X114316Y90963D01*
X114309Y91014D01*
X114315Y91065D01*
X114189Y97261D01*
X114098Y97852D01*
X114020Y98444D01*
X114001Y98491D01*
X113993Y98542D01*
X113753Y99089D01*
X113524Y99641D01*
X113493Y99682D01*
X113473Y99728D01*
X113099Y100195D01*
X112736Y100669D01*
X112695Y100700D01*
X112663Y100740D01*
X112182Y101094D01*
X111708Y101458D01*
X111661Y101478D01*
X111619Y101508D01*
X111063Y101725D01*
X110511Y101954D01*
X110460Y101961D01*
X110412Y101979D01*
X109818Y102045D01*
X109226Y102123D01*
X73789D01*
X72504Y101954D01*
X71307Y101458D01*
X70279Y100669D01*
X69490Y99641D01*
X68994Y98444D01*
X68825Y97159D01*
Y64799D01*
X68558Y64564D01*
X63309D01*
X62979Y64940D01*
X63053Y65500D01*
X63053Y86900D01*
X62884Y88185D01*
X62388Y89382D01*
X61599Y90410D01*
X61599Y90410D01*
X49444Y102565D01*
X49444Y102565D01*
X48416Y103354D01*
X47219Y103850D01*
X45934Y104019D01*
X26723D01*
X26702Y104016D01*
X26680Y104019D01*
X26059Y103931D01*
X25438Y103850D01*
X25418Y103841D01*
X25397Y103838D01*
X24820Y103593D01*
X24241Y103354D01*
X24224Y103341D01*
X24204Y103332D01*
X23710Y102946D01*
X23213Y102565D01*
X23200Y102548D01*
X23183Y102534D01*
X22833Y102178D01*
X22819Y102161D01*
X22803Y102147D01*
X22430Y101644D01*
X22053Y101143D01*
X22045Y101123D01*
X22032Y101105D01*
X21802Y100523D01*
X21567Y99942D01*
X21565Y99920D01*
X21557Y99900D01*
X21486Y99277D01*
X21409Y98655D01*
X21412Y98634D01*
X21410Y98612D01*
X21614Y86814D01*
X21704Y86216D01*
X21783Y85615D01*
X21799Y85575D01*
X21806Y85532D01*
X22047Y84977D01*
X22279Y84418D01*
X22305Y84384D01*
X22322Y84344D01*
X22699Y83870D01*
X23067Y83390D01*
X23102Y83364D01*
X23129Y83330D01*
X23615Y82970D01*
X24095Y82601D01*
X24136Y82585D01*
X24170Y82559D01*
X24734Y82337D01*
X25293Y82105D01*
X25336Y82100D01*
X25376Y82084D01*
X25977Y82015D01*
X26577Y81936D01*
X30233D01*
X34775Y77394D01*
X34778Y77370D01*
X34791Y76964D01*
X34863Y76731D01*
X34894Y76488D01*
X35050Y76113D01*
X35168Y75724D01*
X35297Y75517D01*
X35390Y75291D01*
X35638Y74969D01*
X35852Y74624D01*
X36478Y73861D01*
X36931Y73014D01*
X37210Y72094D01*
X37304Y71138D01*
X37210Y70181D01*
X36931Y69262D01*
X36478Y68414D01*
X35868Y67671D01*
X35125Y67062D01*
X34283Y66611D01*
X34216Y66564D01*
X34141Y66532D01*
X33691Y66187D01*
X33230Y65857D01*
X33178Y65793D01*
X33113Y65744D01*
X29790Y62421D01*
X26468D01*
Y59099D01*
X26379Y59010D01*
X26379Y59010D01*
X25079Y57710D01*
X24290Y56682D01*
X23794Y55485D01*
X23625Y54200D01*
Y14200D01*
X23794Y12915D01*
X24290Y11718D01*
X25079Y10690D01*
X26107Y9901D01*
X27304Y9405D01*
X28589Y9236D01*
X48089D01*
X49374Y9405D01*
X50571Y9901D01*
X51104Y10310D01*
X51524Y10137D01*
X52126Y9888D01*
X52128Y9888D01*
X52130Y9887D01*
X52767Y9804D01*
X53411Y9720D01*
X53413Y9720D01*
X53415Y9720D01*
X68566Y9747D01*
X69204Y9832D01*
X69842Y9916D01*
X69846Y9917D01*
X69851Y9918D01*
X70445Y10166D01*
X71039Y10412D01*
X71043Y10414D01*
X71047Y10416D01*
X71557Y10809D01*
X71632Y10867D01*
X72504Y10505D01*
X73789Y10336D01*
X89989D01*
X91274Y10505D01*
X92326Y10941D01*
X93007Y10419D01*
X94204Y9923D01*
X95489Y9753D01*
X118516D01*
X126429Y1840D01*
X126706Y1628D01*
X126545Y1154D01*
X1391D01*
X1391Y168216D01*
X228758D01*
X228965Y167716D01*
D02*
G37*
G36*
X109352Y90963D02*
X89989Y71600D01*
Y15300D01*
X73789D01*
Y97159D01*
X109226D01*
X109352Y90963D01*
D02*
G37*
G36*
X68558Y14710D02*
X53407Y14684D01*
X53053Y15037D01*
X53053Y53444D01*
X56978Y57369D01*
X56978Y57369D01*
X57647Y58242D01*
X58520Y58911D01*
X58520Y58911D01*
X59209Y59600D01*
X68558D01*
X68558Y14710D01*
D02*
G37*
G36*
X58089Y86900D02*
X58089Y65500D01*
X55010Y62421D01*
X53468D01*
Y60879D01*
X48089Y55500D01*
X48089Y14200D01*
X28589D01*
Y54200D01*
X29889Y55500D01*
X36623Y62234D01*
X37896Y62914D01*
X39395Y64144D01*
X40625Y65643D01*
X41539Y67353D01*
X42102Y69208D01*
X42292Y71138D01*
X42102Y73067D01*
X41539Y74923D01*
X40625Y76632D01*
X39689Y77773D01*
X39689Y79500D01*
X32289Y86900D01*
X26577D01*
X26373Y98699D01*
X26723Y99055D01*
X45934D01*
X58089Y86900D01*
D02*
G37*
G36*
X130689Y26700D02*
X132589Y24800D01*
X132489Y24700D01*
X132489Y15700D01*
X135170Y13019D01*
X139890Y13019D01*
X141054Y12064D01*
X142558Y11259D01*
X144191Y10764D01*
X145889Y10597D01*
X147587Y10764D01*
X149220Y11259D01*
X150724Y12064D01*
X152043Y13146D01*
X153126Y14465D01*
X153930Y15969D01*
X154092Y16503D01*
X188089Y50500D01*
X235789Y50500D01*
X235789Y31100D01*
X188664Y31100D01*
X162914Y5350D01*
X129939D01*
X120689Y14600D01*
Y14717D01*
X95489D01*
X95489Y52500D01*
X103595Y60606D01*
X104843Y60729D01*
X106698Y61292D01*
X108408Y62206D01*
X108645Y62400D01*
X130689Y62400D01*
X130689Y26700D01*
D02*
G37*
%LPC*%
G36*
X38071Y119807D02*
X26732D01*
Y108468D01*
X38071D01*
Y119807D01*
D02*
G37*
G36*
X108583Y119098D02*
X97244D01*
Y107760D01*
X108583D01*
Y119098D01*
D02*
G37*
G36*
X233769Y110154D02*
X225777D01*
X224929Y110042D01*
X224139Y109715D01*
X223461Y109195D01*
X222940Y108516D01*
X222613Y107726D01*
X222501Y106878D01*
X222613Y106030D01*
X222940Y105240D01*
X223461Y104561D01*
X224139Y104041D01*
X224929Y103714D01*
X225777Y103602D01*
X233769D01*
X234617Y103714D01*
X235407Y104041D01*
X236086Y104561D01*
X236606Y105240D01*
X236934Y106030D01*
X237045Y106878D01*
X236934Y107726D01*
X236606Y108516D01*
X236086Y109195D01*
X235407Y109715D01*
X234617Y110042D01*
X233769Y110154D01*
D02*
G37*
G36*
X131389Y160410D02*
X116889Y160410D01*
X116597Y160352D01*
X116350Y160187D01*
X116184Y159939D01*
X116126Y159647D01*
X116126Y114647D01*
X116155Y114503D01*
X116183Y114358D01*
X116184Y114357D01*
X116184Y114355D01*
X116266Y114233D01*
X116348Y114110D01*
X116349Y114109D01*
X116350Y114108D01*
X116471Y114027D01*
X116595Y113944D01*
X116596Y113943D01*
X116597Y113943D01*
X116740Y113914D01*
X116886Y113885D01*
X136845Y113820D01*
X164579Y86161D01*
X164579Y86161D01*
X164579Y86161D01*
X164579Y86160D01*
X164701Y86079D01*
X164826Y85995D01*
X164827Y85995D01*
X164827Y85995D01*
X164975Y85966D01*
X165118Y85937D01*
X180189D01*
X180481Y85995D01*
X180728Y86161D01*
X180894Y86408D01*
X180952Y86700D01*
Y93100D01*
X180952Y93100D01*
X180894Y93392D01*
X180728Y93639D01*
X180728Y93639D01*
X132152Y142216D01*
X132152Y159647D01*
X132094Y159939D01*
X131928Y160187D01*
X131681Y160352D01*
X131389Y160410D01*
D02*
G37*
G36*
X247798Y88380D02*
X246831Y88253D01*
X245931Y87880D01*
X245158Y87287D01*
X244565Y86514D01*
X244192Y85613D01*
X244065Y84647D01*
X244192Y83681D01*
X244565Y82781D01*
X245158Y82008D01*
X245931Y81415D01*
X246831Y81042D01*
X247798Y80914D01*
X248764Y81042D01*
X249664Y81415D01*
X250437Y82008D01*
X251030Y82781D01*
X251403Y83681D01*
X251530Y84647D01*
X251403Y85613D01*
X251030Y86514D01*
X250437Y87287D01*
X249664Y87880D01*
X248764Y88253D01*
X247798Y88380D01*
D02*
G37*
G36*
Y78380D02*
X246831Y78253D01*
X245931Y77880D01*
X245158Y77287D01*
X244565Y76514D01*
X244192Y75613D01*
X244065Y74647D01*
X244192Y73681D01*
X244565Y72781D01*
X245158Y72008D01*
X245931Y71415D01*
X246831Y71042D01*
X247798Y70915D01*
X248764Y71042D01*
X249664Y71415D01*
X250437Y72008D01*
X251030Y72781D01*
X251403Y73681D01*
X251530Y74647D01*
X251403Y75613D01*
X251030Y76514D01*
X250437Y77287D01*
X249664Y77880D01*
X248764Y78253D01*
X247798Y78380D01*
D02*
G37*
G36*
X223889Y102764D02*
X222604Y102595D01*
X221407Y102099D01*
X220379Y101310D01*
X220379Y101310D01*
X212879Y93810D01*
X212879Y93810D01*
X212528Y93352D01*
X212090Y92782D01*
X211594Y91585D01*
X211425Y90300D01*
X211425Y66109D01*
X211594Y64825D01*
X212090Y63628D01*
X212879Y62599D01*
X213907Y61811D01*
X215104Y61315D01*
X216389Y61146D01*
X237070Y61146D01*
X238355Y61315D01*
X239552Y61811D01*
X240580Y62599D01*
X241369Y63628D01*
X241865Y64825D01*
X242034Y66109D01*
Y82338D01*
X242075Y82622D01*
X242070Y82660D01*
X242075Y82698D01*
X242030Y97815D01*
X241944Y98451D01*
X241860Y99085D01*
X241858Y99092D01*
X241857Y99099D01*
X241609Y99691D01*
X241365Y100282D01*
X241360Y100288D01*
X241357Y100295D01*
X240966Y100801D01*
X240576Y101310D01*
X240570Y101314D01*
X240565Y101320D01*
X240057Y101708D01*
X239548Y102099D01*
X239541Y102102D01*
X239535Y102106D01*
X238943Y102349D01*
X238351Y102595D01*
X238343Y102596D01*
X238336Y102598D01*
X237701Y102680D01*
X237066Y102764D01*
X223889Y102764D01*
D02*
G37*
G36*
X17798Y58380D02*
X16831Y58253D01*
X15931Y57880D01*
X15158Y57287D01*
X14565Y56514D01*
X14192Y55613D01*
X14065Y54647D01*
X14192Y53681D01*
X14565Y52781D01*
X15158Y52008D01*
X15931Y51415D01*
X16831Y51042D01*
X17798Y50915D01*
X18764Y51042D01*
X19664Y51415D01*
X20437Y52008D01*
X21030Y52781D01*
X21403Y53681D01*
X21530Y54647D01*
X21403Y55613D01*
X21030Y56514D01*
X20437Y57287D01*
X19664Y57880D01*
X18764Y58253D01*
X17798Y58380D01*
D02*
G37*
G36*
Y48380D02*
X16831Y48253D01*
X15931Y47880D01*
X15158Y47287D01*
X14565Y46514D01*
X14192Y45613D01*
X14065Y44647D01*
X14192Y43681D01*
X14565Y42781D01*
X15158Y42008D01*
X15931Y41415D01*
X16831Y41042D01*
X17798Y40914D01*
X18764Y41042D01*
X19664Y41415D01*
X20437Y42008D01*
X21030Y42781D01*
X21403Y43681D01*
X21530Y44647D01*
X21403Y45613D01*
X21030Y46514D01*
X20437Y47287D01*
X19664Y47880D01*
X18764Y48253D01*
X17798Y48380D01*
D02*
G37*
G36*
Y38380D02*
X16831Y38253D01*
X15931Y37880D01*
X15158Y37287D01*
X14565Y36514D01*
X14192Y35613D01*
X14065Y34647D01*
X14192Y33681D01*
X14565Y32781D01*
X15158Y32008D01*
X15931Y31415D01*
X16831Y31042D01*
X17798Y30915D01*
X18764Y31042D01*
X19664Y31415D01*
X20437Y32008D01*
X21030Y32781D01*
X21403Y33681D01*
X21530Y34647D01*
X21403Y35613D01*
X21030Y36514D01*
X20437Y37287D01*
X19664Y37880D01*
X18764Y38253D01*
X17798Y38380D01*
D02*
G37*
%LPD*%
G36*
X131389Y141900D02*
X180189Y93100D01*
Y86700D01*
X165118D01*
X137162Y114581D01*
X116889Y114647D01*
X116889Y159647D01*
X131389Y159647D01*
X131389Y141900D01*
D02*
G37*
G36*
X237066Y97800D02*
X237111Y82683D01*
X237070Y82642D01*
Y66109D01*
X216389Y66109D01*
X216389Y90300D01*
X223889Y97800D01*
X237066Y97800D01*
D02*
G37*
D12*
X242520Y160472D02*
D03*
X261339D02*
D03*
D13*
X105589Y50300D02*
D03*
X78589D02*
D03*
X62389Y50500D02*
D03*
X35389D02*
D03*
D14*
X229773Y95067D02*
D03*
Y106878D02*
D03*
Y118689D02*
D03*
Y130500D02*
D03*
Y142311D02*
D03*
Y154122D02*
D03*
X123789Y95067D02*
D03*
Y106878D02*
D03*
Y118689D02*
D03*
Y130500D02*
D03*
Y142311D02*
D03*
Y154122D02*
D03*
D15*
X123898Y59961D02*
D03*
X158898D02*
D03*
D16*
X226789Y72300D02*
D03*
Y45300D02*
D03*
D28*
X189504Y25355D02*
X229703D01*
X259042Y94647D02*
X261889Y91800D01*
Y27750D02*
Y91800D01*
X259494Y25355D02*
X261889Y27750D01*
X256475Y25355D02*
X259494D01*
X229703D02*
X256475D01*
X189503Y25355D02*
X189504Y25355D01*
X247798Y94647D02*
Y104647D01*
Y94647D02*
X259042D01*
D29*
X32402Y92638D02*
D03*
Y71138D02*
D03*
X102913Y91929D02*
D03*
Y70429D02*
D03*
D30*
X32402Y114138D02*
D03*
X102913Y113429D02*
D03*
D31*
X216275Y7245D02*
D03*
Y25355D02*
D03*
X189503D02*
D03*
Y7245D02*
D03*
X256475Y7245D02*
D03*
Y25355D02*
D03*
X229703D02*
D03*
Y7245D02*
D03*
D32*
X145889Y19300D02*
D03*
X125889D02*
D03*
X60489Y19000D02*
D03*
X40489D02*
D03*
X102089Y19300D02*
D03*
X82089D02*
D03*
D33*
X247798Y34647D02*
D03*
Y44647D02*
D03*
Y54647D02*
D03*
Y64647D02*
D03*
Y74647D02*
D03*
Y84647D02*
D03*
Y94647D02*
D03*
Y104647D02*
D03*
Y114647D02*
D03*
Y124647D02*
D03*
Y134647D02*
D03*
X17798Y34647D02*
D03*
Y44647D02*
D03*
Y54647D02*
D03*
Y64647D02*
D03*
Y74647D02*
D03*
Y84647D02*
D03*
Y94647D02*
D03*
Y104647D02*
D03*
Y114647D02*
D03*
Y124647D02*
D03*
Y134647D02*
D03*
D34*
X247798Y144647D02*
D03*
X17798D02*
D03*
D35*
X251326Y69600D02*
D03*
Y30230D02*
D03*
X245420Y49915D02*
D03*
X243452Y69600D02*
D03*
Y61726D02*
D03*
X241483Y57789D02*
D03*
X243452Y38104D02*
D03*
Y30230D02*
D03*
X237546Y57789D02*
D03*
X233609D02*
D03*
X229672D02*
D03*
X225735D02*
D03*
X221798D02*
D03*
X219830Y164088D02*
D03*
X217861Y160152D02*
D03*
Y57789D02*
D03*
X215893Y164088D02*
D03*
X213924Y160152D02*
D03*
X215893Y156214D02*
D03*
X213924Y152278D02*
D03*
Y57789D02*
D03*
X211956Y164088D02*
D03*
X209987Y160152D02*
D03*
X211956Y156214D02*
D03*
X209987Y152278D02*
D03*
X211956Y148340D02*
D03*
X209987Y65663D02*
D03*
Y57789D02*
D03*
X208019Y164088D02*
D03*
X206050Y160152D02*
D03*
X208019Y156214D02*
D03*
Y148340D02*
D03*
X206050Y73537D02*
D03*
X208019Y69600D02*
D03*
X206050Y65663D02*
D03*
X208019Y61726D02*
D03*
X206050Y57789D02*
D03*
X204082Y164088D02*
D03*
X202113Y160152D02*
D03*
X204082Y156214D02*
D03*
Y77474D02*
D03*
X202113Y73537D02*
D03*
X204082Y69600D02*
D03*
X200145Y164088D02*
D03*
X198176Y160152D02*
D03*
X200145Y156214D02*
D03*
X198176Y136529D02*
D03*
X200145Y77474D02*
D03*
X198176Y73537D02*
D03*
X200145Y69600D02*
D03*
X198176Y65663D02*
D03*
X196207Y164088D02*
D03*
X194239Y160152D02*
D03*
X196207Y156214D02*
D03*
X194239Y152278D02*
D03*
Y136529D02*
D03*
X196207Y132592D02*
D03*
Y77474D02*
D03*
Y69600D02*
D03*
Y61726D02*
D03*
X192271Y164088D02*
D03*
X190302Y160152D02*
D03*
X192271Y156214D02*
D03*
X190302Y152278D02*
D03*
X192271Y148340D02*
D03*
X190302Y144404D02*
D03*
X192271Y140466D02*
D03*
X190302Y136529D02*
D03*
X192271Y132592D02*
D03*
X190302Y97159D02*
D03*
X188333Y164088D02*
D03*
X186365Y160152D02*
D03*
X188333Y156214D02*
D03*
X186365Y136529D02*
D03*
X188333Y132592D02*
D03*
Y101096D02*
D03*
X186365Y97159D02*
D03*
X184397Y164088D02*
D03*
X182428Y160152D02*
D03*
X184397Y156214D02*
D03*
X182428Y136529D02*
D03*
X184397Y132592D02*
D03*
Y101096D02*
D03*
X182428Y97159D02*
D03*
X184397Y93222D02*
D03*
X180459Y164088D02*
D03*
X178491Y160152D02*
D03*
X180459Y156214D02*
D03*
X178491Y136529D02*
D03*
X180459Y132592D02*
D03*
Y101096D02*
D03*
Y53852D02*
D03*
X178491Y49915D02*
D03*
X176523Y164088D02*
D03*
X174554Y160152D02*
D03*
X176523Y156214D02*
D03*
X174554Y152278D02*
D03*
Y144404D02*
D03*
Y136529D02*
D03*
X176523Y132592D02*
D03*
Y101096D02*
D03*
Y53852D02*
D03*
X174554Y49915D02*
D03*
X172585Y164088D02*
D03*
X170617Y160152D02*
D03*
X172585Y156214D02*
D03*
X170617Y152278D02*
D03*
X172585Y53852D02*
D03*
X170617Y49915D02*
D03*
X172585Y45978D02*
D03*
X170617Y42041D02*
D03*
X168649Y164088D02*
D03*
X166680Y160152D02*
D03*
X168649Y156214D02*
D03*
X166680Y152278D02*
D03*
X168649Y53852D02*
D03*
X166680Y49915D02*
D03*
X168649Y45978D02*
D03*
X166680Y42041D02*
D03*
X164711Y164088D02*
D03*
X162743Y160152D02*
D03*
X164711Y156214D02*
D03*
X162743Y152278D02*
D03*
Y81411D02*
D03*
Y73537D02*
D03*
Y65663D02*
D03*
X164711Y53852D02*
D03*
X162743Y49915D02*
D03*
X164711Y45978D02*
D03*
X162743Y42041D02*
D03*
X164711Y38104D02*
D03*
X162743Y34167D02*
D03*
X160774Y164088D02*
D03*
X158806Y160152D02*
D03*
X160774Y156214D02*
D03*
X158806Y152278D02*
D03*
Y89285D02*
D03*
X160774Y85348D02*
D03*
X158806Y81411D02*
D03*
X160774Y77474D02*
D03*
X158806Y73537D02*
D03*
X160774Y69600D02*
D03*
X158806Y65663D02*
D03*
X160774Y53852D02*
D03*
X158806Y49915D02*
D03*
X160774Y45978D02*
D03*
X158806Y42041D02*
D03*
X160774Y38104D02*
D03*
X158806Y34167D02*
D03*
X156837Y164088D02*
D03*
X154869Y160152D02*
D03*
X156837Y156214D02*
D03*
X154869Y152278D02*
D03*
Y89285D02*
D03*
X156837Y85348D02*
D03*
X154869Y81411D02*
D03*
X156837Y77474D02*
D03*
X154869Y73537D02*
D03*
X156837Y69600D02*
D03*
X154869Y65663D02*
D03*
X156837Y53852D02*
D03*
X154869Y49915D02*
D03*
X156837Y45978D02*
D03*
X154869Y42041D02*
D03*
X156837Y38104D02*
D03*
X154869Y34167D02*
D03*
X156837Y30230D02*
D03*
X154869Y26293D02*
D03*
X152900Y164088D02*
D03*
X150932Y160152D02*
D03*
X152900Y156214D02*
D03*
X150932Y152278D02*
D03*
Y89285D02*
D03*
X152900Y85348D02*
D03*
X150932Y81411D02*
D03*
X152900Y77474D02*
D03*
X150932Y73537D02*
D03*
X152900Y69600D02*
D03*
X150932Y65663D02*
D03*
X152900Y53852D02*
D03*
X150932Y49915D02*
D03*
X152900Y45978D02*
D03*
X150932Y42041D02*
D03*
X152900Y38104D02*
D03*
X150932Y34167D02*
D03*
X152900Y30230D02*
D03*
X150932Y26293D02*
D03*
X148963Y164088D02*
D03*
X146995Y160152D02*
D03*
X148963Y156214D02*
D03*
X146995Y152278D02*
D03*
X148963Y85348D02*
D03*
Y77474D02*
D03*
X146995Y73537D02*
D03*
X148963Y69600D02*
D03*
X146995Y65663D02*
D03*
X148963Y61726D02*
D03*
X146995Y57789D02*
D03*
X148963Y53852D02*
D03*
X146995Y49915D02*
D03*
X148963Y45978D02*
D03*
X146995Y42041D02*
D03*
X148963Y38104D02*
D03*
X146995Y34167D02*
D03*
X148963Y30230D02*
D03*
X146995Y26293D02*
D03*
X145026Y164088D02*
D03*
X143058Y160152D02*
D03*
X145026Y156214D02*
D03*
X143058Y152278D02*
D03*
Y73537D02*
D03*
X145026Y69600D02*
D03*
X143058Y65663D02*
D03*
X145026Y61726D02*
D03*
X143058Y57789D02*
D03*
X145026Y53852D02*
D03*
X143058Y49915D02*
D03*
X145026Y45978D02*
D03*
X143058Y42041D02*
D03*
X145026Y38104D02*
D03*
X143058Y34167D02*
D03*
X145026Y30230D02*
D03*
X143058Y26293D02*
D03*
X141089Y164088D02*
D03*
X139121Y160152D02*
D03*
X141089Y156214D02*
D03*
X139121Y152278D02*
D03*
Y73537D02*
D03*
X141089Y69600D02*
D03*
X139121Y65663D02*
D03*
X141089Y61726D02*
D03*
X139121Y57789D02*
D03*
X141089Y53852D02*
D03*
X139121Y49915D02*
D03*
X141089Y45978D02*
D03*
X139121Y42041D02*
D03*
X141089Y38104D02*
D03*
X139121Y34167D02*
D03*
X141089Y30230D02*
D03*
X139121Y26293D02*
D03*
X137152Y164088D02*
D03*
X135184Y160152D02*
D03*
X137152Y156214D02*
D03*
X135184Y152278D02*
D03*
Y89285D02*
D03*
X137152Y85348D02*
D03*
X135184Y81411D02*
D03*
X137152Y77474D02*
D03*
X135184Y73537D02*
D03*
X137152Y69600D02*
D03*
Y61726D02*
D03*
Y53852D02*
D03*
Y45978D02*
D03*
Y38104D02*
D03*
X133215Y164088D02*
D03*
Y101096D02*
D03*
Y93222D02*
D03*
X131247Y89285D02*
D03*
X133215Y85348D02*
D03*
X131247Y81411D02*
D03*
X133215Y77474D02*
D03*
X131247Y73537D02*
D03*
X133215Y69600D02*
D03*
X129278Y164088D02*
D03*
Y101096D02*
D03*
X127310Y89285D02*
D03*
X129278Y85348D02*
D03*
X127310Y81411D02*
D03*
X129278Y77474D02*
D03*
X127310Y73537D02*
D03*
X129278Y69600D02*
D03*
X125341Y164088D02*
D03*
Y101096D02*
D03*
X123373Y89285D02*
D03*
X125341Y85348D02*
D03*
X123373Y81411D02*
D03*
X125341Y77474D02*
D03*
X123373Y73537D02*
D03*
X125341Y69600D02*
D03*
X121404Y164088D02*
D03*
Y101096D02*
D03*
X119436Y89285D02*
D03*
X121404Y85348D02*
D03*
X119436Y81411D02*
D03*
X121404Y77474D02*
D03*
X119436Y73537D02*
D03*
X121404Y69600D02*
D03*
X117467Y164088D02*
D03*
X115499Y112907D02*
D03*
Y105033D02*
D03*
X117467Y101096D02*
D03*
X115499Y89285D02*
D03*
X117467Y85348D02*
D03*
X115499Y81411D02*
D03*
X117467Y77474D02*
D03*
X115499Y73537D02*
D03*
X117467Y69600D02*
D03*
X113530Y164088D02*
D03*
X111562Y160152D02*
D03*
X113530Y156214D02*
D03*
X111562Y152278D02*
D03*
X113530Y116844D02*
D03*
X111562Y112907D02*
D03*
X113530Y108970D02*
D03*
X111562Y105033D02*
D03*
X113530Y85348D02*
D03*
X111562Y81411D02*
D03*
X113530Y77474D02*
D03*
X111562Y73537D02*
D03*
X113530Y69600D02*
D03*
X109593Y164088D02*
D03*
X107625Y160152D02*
D03*
Y105033D02*
D03*
X109593Y77474D02*
D03*
X105656Y164088D02*
D03*
X103688Y160152D02*
D03*
Y120781D02*
D03*
Y105033D02*
D03*
X105656Y77474D02*
D03*
X101719Y164088D02*
D03*
X99751Y160152D02*
D03*
X101719Y156214D02*
D03*
X99751Y120781D02*
D03*
Y105033D02*
D03*
X97782Y164088D02*
D03*
X95814Y160152D02*
D03*
X97782Y156214D02*
D03*
X95814Y120781D02*
D03*
Y112907D02*
D03*
X93845Y164088D02*
D03*
X91877Y160152D02*
D03*
X93845Y156214D02*
D03*
X91877Y120781D02*
D03*
X93845Y116844D02*
D03*
X91877Y112907D02*
D03*
X89908Y164088D02*
D03*
X87940Y160152D02*
D03*
X89908Y156214D02*
D03*
X87940Y120781D02*
D03*
X89908Y116844D02*
D03*
X87940Y112907D02*
D03*
X85971Y164088D02*
D03*
X84003Y160152D02*
D03*
X85971Y156214D02*
D03*
X84003Y120781D02*
D03*
X85971Y116844D02*
D03*
X84003Y112907D02*
D03*
X82034Y164088D02*
D03*
X80066Y160152D02*
D03*
X82034Y156214D02*
D03*
Y116844D02*
D03*
X78097Y164088D02*
D03*
X76129Y160152D02*
D03*
X78097Y156214D02*
D03*
X74160Y164088D02*
D03*
X72192Y160152D02*
D03*
X74160Y156214D02*
D03*
X70223Y164088D02*
D03*
X68255Y160152D02*
D03*
X70223Y156214D02*
D03*
X66286Y164088D02*
D03*
X64318Y160152D02*
D03*
X66286Y156214D02*
D03*
Y93222D02*
D03*
X64318Y89285D02*
D03*
X66286Y85348D02*
D03*
Y77474D02*
D03*
Y69600D02*
D03*
X62349Y164088D02*
D03*
X60381Y160152D02*
D03*
X62349Y156214D02*
D03*
X60381Y152278D02*
D03*
Y105033D02*
D03*
Y97159D02*
D03*
X62349Y93222D02*
D03*
X58412Y164088D02*
D03*
X56444Y160152D02*
D03*
X58412Y156214D02*
D03*
X56444Y152278D02*
D03*
X58412Y148340D02*
D03*
X56444Y144404D02*
D03*
X58412Y140466D02*
D03*
X56444Y136529D02*
D03*
X58412Y132592D02*
D03*
X56444Y128655D02*
D03*
X58412Y124718D02*
D03*
X56444Y120781D02*
D03*
X58412Y116844D02*
D03*
X54475Y164088D02*
D03*
X52507Y160152D02*
D03*
X54475Y156214D02*
D03*
X52507Y152278D02*
D03*
X54475Y148340D02*
D03*
X52507Y144404D02*
D03*
X54475Y140466D02*
D03*
X52507Y136529D02*
D03*
X54475Y132592D02*
D03*
X52507Y128655D02*
D03*
X54475Y124718D02*
D03*
X52507Y120781D02*
D03*
X54475Y116844D02*
D03*
Y108970D02*
D03*
X50538Y164088D02*
D03*
X48570Y160152D02*
D03*
X50538Y156214D02*
D03*
X48570Y152278D02*
D03*
X50538Y148340D02*
D03*
Y140466D02*
D03*
Y132592D02*
D03*
X48570Y128655D02*
D03*
X50538Y124718D02*
D03*
X48570Y120781D02*
D03*
X50538Y116844D02*
D03*
Y108970D02*
D03*
X46601Y164088D02*
D03*
X44633Y160152D02*
D03*
X46601Y156214D02*
D03*
X44633Y152278D02*
D03*
X46601Y148340D02*
D03*
Y132592D02*
D03*
X44633Y128655D02*
D03*
X46601Y124718D02*
D03*
X44633Y120781D02*
D03*
X46601Y116844D02*
D03*
X42664Y164088D02*
D03*
X40696Y160152D02*
D03*
X42664Y156214D02*
D03*
X40696Y152278D02*
D03*
X42664Y148340D02*
D03*
Y132592D02*
D03*
X40696Y128655D02*
D03*
X42664Y124718D02*
D03*
X40696Y120781D02*
D03*
X42664Y116844D02*
D03*
X38727Y164088D02*
D03*
X36759Y160152D02*
D03*
X38727Y156214D02*
D03*
X36759Y152278D02*
D03*
X38727Y148340D02*
D03*
Y132592D02*
D03*
X36759Y128655D02*
D03*
X38727Y124718D02*
D03*
X34790Y164088D02*
D03*
X32822Y160152D02*
D03*
X34790Y156214D02*
D03*
X32822Y152278D02*
D03*
X34790Y148340D02*
D03*
X32822Y144404D02*
D03*
X34790Y140466D02*
D03*
X32822Y136529D02*
D03*
X34790Y132592D02*
D03*
X32822Y128655D02*
D03*
X34790Y124718D02*
D03*
X30853Y164088D02*
D03*
X28885Y160152D02*
D03*
X30853Y156214D02*
D03*
X28885Y152278D02*
D03*
X30853Y148340D02*
D03*
X28885Y144404D02*
D03*
X30853Y140466D02*
D03*
X28885Y136529D02*
D03*
X30853Y132592D02*
D03*
X28885Y128655D02*
D03*
X30853Y124718D02*
D03*
X26916Y164088D02*
D03*
X24948Y160152D02*
D03*
X26916Y156214D02*
D03*
X24948Y152278D02*
D03*
X26916Y148340D02*
D03*
X24948Y144404D02*
D03*
X26916Y140466D02*
D03*
X24948Y136529D02*
D03*
X26916Y132592D02*
D03*
X24948Y128655D02*
D03*
X26916Y124718D02*
D03*
X24948Y120781D02*
D03*
Y112907D02*
D03*
X26916Y77474D02*
D03*
X24948Y73537D02*
D03*
Y65663D02*
D03*
X22979Y164088D02*
D03*
X21011Y160152D02*
D03*
X22979Y156214D02*
D03*
X21011Y152278D02*
D03*
X22979Y148340D02*
D03*
Y140466D02*
D03*
Y132592D02*
D03*
X21011Y128655D02*
D03*
X22979Y124718D02*
D03*
Y116844D02*
D03*
Y77474D02*
D03*
Y69600D02*
D03*
Y61726D02*
D03*
X21011Y18419D02*
D03*
Y10545D02*
D03*
X19042Y164088D02*
D03*
X17074Y160152D02*
D03*
X19042Y156214D02*
D03*
X17074Y152278D02*
D03*
X19042Y22356D02*
D03*
X17074Y18419D02*
D03*
X19042Y14482D02*
D03*
X17074Y10545D02*
D03*
X15105Y164088D02*
D03*
X13137Y160152D02*
D03*
X15105Y156214D02*
D03*
X13137Y152278D02*
D03*
Y128655D02*
D03*
Y120781D02*
D03*
Y89285D02*
D03*
Y81411D02*
D03*
X15105Y69600D02*
D03*
X13137Y57789D02*
D03*
Y49915D02*
D03*
X15105Y14482D02*
D03*
X11168Y164088D02*
D03*
X9200Y160152D02*
D03*
X11168Y156214D02*
D03*
X9200Y152278D02*
D03*
X11168Y148340D02*
D03*
X9200Y144404D02*
D03*
X11168Y140466D02*
D03*
X9200Y136529D02*
D03*
X11168Y132592D02*
D03*
X9200Y128655D02*
D03*
X11168Y124718D02*
D03*
X9200Y120781D02*
D03*
X11168Y116844D02*
D03*
X9200Y112907D02*
D03*
X11168Y108970D02*
D03*
X9200Y105033D02*
D03*
X7231Y164088D02*
D03*
X5263Y160152D02*
D03*
X7231Y156214D02*
D03*
X5263Y152278D02*
D03*
X7231Y148340D02*
D03*
X5263Y144404D02*
D03*
X7231Y140466D02*
D03*
X5263Y136529D02*
D03*
X7231Y132592D02*
D03*
X5263Y128655D02*
D03*
X7231Y124718D02*
D03*
X5263Y120781D02*
D03*
X7231Y116844D02*
D03*
X5263Y112907D02*
D03*
X7231Y108970D02*
D03*
X5263Y105033D02*
D03*
X7231Y101096D02*
D03*
X5263Y97159D02*
D03*
Y2671D02*
D03*
D36*
X176289Y88675D02*
D03*
X173789D02*
D03*
X171189D02*
D03*
X168789D02*
D03*
X229803Y165157D02*
D03*
X228268Y163622D02*
D03*
X226732Y162087D02*
D03*
X225197Y160551D02*
D03*
X223701Y158976D02*
D03*
X178789Y88675D02*
D03*
X166289D02*
D03*
M02*
