G04*
G04 #@! TF.GenerationSoftware,Altium Limited,Altium Designer,22.4.2 (48)*
G04*
G04 Layer_Color=128*
%FSLAX25Y25*%
%MOIN*%
G70*
G04*
G04 #@! TF.SameCoordinates,3CF9D964-3833-4CBE-B755-AF4B9B4EF88F*
G04*
G04*
G04 #@! TF.FilePolarity,Positive*
G04*
G01*
G75*
%ADD37R,0.02362X0.05984*%
%ADD38O,0.02362X0.05984*%
%ADD40R,0.09000X0.05500*%
%ADD41R,0.03000X0.06500*%
%ADD42R,0.03740X0.01200*%
%ADD43O,0.03740X0.01200*%
%ADD44O,0.05984X0.02362*%
%ADD45R,0.05984X0.02362*%
%ADD46R,0.09449X0.10236*%
%ADD47R,0.10236X0.09449*%
%ADD48R,0.02800X0.05400*%
%ADD49R,0.05512X0.08268*%
%ADD50R,0.02165X0.01772*%
%ADD51R,0.03543X0.02756*%
%ADD52R,0.01772X0.02165*%
%ADD53R,0.05118X0.03347*%
%ADD54R,0.01575X0.01968*%
G36*
X182689Y68100D02*
X164889D01*
Y85600D01*
X167689D01*
Y83300D01*
X169889D01*
Y85600D01*
X172689D01*
Y83300D01*
X174889D01*
Y85600D01*
X177689D01*
Y83300D01*
X179889D01*
Y85600D01*
X182689D01*
Y68100D01*
D02*
G37*
D37*
X153189Y97940D02*
D03*
D38*
X148189D02*
D03*
X143189D02*
D03*
X138189D02*
D03*
X153189Y118940D02*
D03*
X148189D02*
D03*
X143189D02*
D03*
X138189D02*
D03*
D40*
X151089Y139200D02*
D03*
X127089D02*
D03*
D41*
X201689Y61100D02*
D03*
X190689D02*
D03*
D42*
X230705Y94146D02*
D03*
D43*
Y92178D02*
D03*
Y90209D02*
D03*
Y88241D02*
D03*
Y86272D02*
D03*
X213658Y94146D02*
D03*
Y92178D02*
D03*
Y90209D02*
D03*
Y88241D02*
D03*
Y86272D02*
D03*
D44*
X76289Y104100D02*
D03*
Y99100D02*
D03*
Y94100D02*
D03*
Y89100D02*
D03*
X55289Y104100D02*
D03*
Y99100D02*
D03*
Y94100D02*
D03*
D45*
Y89100D02*
D03*
D46*
X201089Y121294D02*
D03*
Y146491D02*
D03*
X182017D02*
D03*
Y121294D02*
D03*
D47*
X68095Y140528D02*
D03*
X42898D02*
D03*
D48*
X181289Y82900D02*
D03*
X176289D02*
D03*
X171289D02*
D03*
X166289D02*
D03*
Y61100D02*
D03*
X171289D02*
D03*
X176289D02*
D03*
X181289D02*
D03*
D49*
X97321Y131100D02*
D03*
X113857D02*
D03*
D50*
X239189Y76128D02*
D03*
Y79672D02*
D03*
X236589Y93528D02*
D03*
Y97072D02*
D03*
X210458Y75038D02*
D03*
Y78581D02*
D03*
D51*
X221689Y73053D02*
D03*
Y78565D02*
D03*
X226689Y73053D02*
D03*
Y78565D02*
D03*
X231789Y73053D02*
D03*
Y78565D02*
D03*
X216858D02*
D03*
Y73053D02*
D03*
D52*
X44829Y112800D02*
D03*
X48373D02*
D03*
X91427Y106400D02*
D03*
X87883D02*
D03*
X197533Y90685D02*
D03*
X201076D02*
D03*
X197602Y94894D02*
D03*
X201145D02*
D03*
X107861Y148100D02*
D03*
X104317D02*
D03*
X108132Y153700D02*
D03*
X104589D02*
D03*
D53*
X168389Y123547D02*
D03*
Y116853D02*
D03*
X160889Y123547D02*
D03*
Y116853D02*
D03*
X143183Y87500D02*
D03*
Y80807D02*
D03*
D54*
X7089Y18041D02*
D03*
Y23159D02*
D03*
X10389D02*
D03*
Y18041D02*
D03*
M02*
