%TF.GenerationSoftware,Altium Limited,Altium Designer,23.6.0 (18)*%
G04 Layer_Physical_Order=1*
G04 Layer_Color=255*
%FSLAX45Y45*%
%MOMM*%
%TF.SameCoordinates,CA757A27-890D-4031-9470-5F8B39CF6935*%
%TF.FilePolarity,Positive*%
%TF.FileFunction,Copper,L1,Top,Signal*%
%TF.Part,Single*%
G01*
G75*
%TA.AperFunction,SMDPad,CuDef*%
%ADD10R,2.95000X1.00000*%
%ADD11R,1.45000X0.65000*%
%ADD12R,1.05000X0.90000*%
%ADD13R,4.60000X1.35000*%
%ADD14R,9.40000X10.80000*%
%ADD15R,0.90000X1.00000*%
%ADD16C,1.00000*%
%ADD17C,3.00000*%
%ADD18R,4.25000X2.10000*%
%ADD19R,1.29540X1.65100*%
%ADD20R,1.45000X0.45000*%
%ADD21R,2.74000X3.86000*%
%ADD22R,3.55600X2.03200*%
%ADD23R,1.47000X0.97000*%
%ADD24R,0.60000X0.75000*%
%ADD25R,0.65000X0.90000*%
%ADD26R,0.80000X0.90000*%
%ADD27R,2.00000X2.00000*%
%ADD28R,1.52500X0.65000*%
%ADD29R,1.45000X1.50000*%
%ADD30R,0.78000X0.98000*%
%ADD31R,2.05000X4.30000*%
%TA.AperFunction,Conductor*%
%ADD32C,0.30000*%
%ADD33C,1.00000*%
%ADD34C,0.50000*%
%TA.AperFunction,ViaPad*%
%ADD35C,3.40000*%
%TA.AperFunction,ComponentPad*%
%ADD36C,1.50800*%
%ADD37C,2.55000*%
%ADD38R,2.55000X2.55000*%
%ADD39R,1.90000X1.90000*%
%ADD40C,1.90000*%
%ADD41C,3.00000*%
%TA.AperFunction,ViaPad*%
%ADD42C,1.27000*%
%ADD43C,0.70000*%
G36*
X14351289Y14551535D02*
X14405208Y14540492D01*
X14457092Y14522133D01*
X14508600Y14495436D01*
X14653279Y14405247D01*
X14796065Y14312138D01*
X14842117Y14276598D01*
X14880734Y14237173D01*
X14913541Y14192799D01*
X14939909Y14144318D01*
X14959334Y14092664D01*
X14971445Y14038823D01*
X14976007Y13983827D01*
X14972935Y13928725D01*
X14961261Y13869344D01*
X14947894Y13811497D01*
X14947557Y13807991D01*
X14946555Y13804616D01*
X14936691Y13742526D01*
X14936584Y13738522D01*
X14935751Y13734604D01*
X14928398Y13641048D01*
X14928629Y13636665D01*
X14928091Y13632312D01*
X14928923Y13531493D01*
X14929491Y13527451D01*
X14929318Y13523372D01*
X14938954Y13415250D01*
X14939780Y13411549D01*
X14939905Y13407761D01*
X14958965Y13292410D01*
X14959987Y13289043D01*
X14960347Y13285538D01*
X14989420Y13163177D01*
X14990585Y13160117D01*
X14991130Y13156886D01*
X15030740Y13027879D01*
X15032011Y13025102D01*
X15032700Y13022125D01*
X15083281Y12886996D01*
X15084624Y12884474D01*
X15085423Y12881729D01*
X15147284Y12741163D01*
X15148679Y12738865D01*
X15149568Y12736327D01*
X15222864Y12591173D01*
X15224297Y12589073D01*
X15225255Y12586718D01*
X15309978Y12437968D01*
X15311436Y12436041D01*
X15312456Y12433849D01*
X15408400Y12282633D01*
X15409883Y12280858D01*
X15410953Y12278806D01*
X15517723Y12126365D01*
X15519231Y12124721D01*
X15520345Y12122792D01*
X15637346Y11970451D01*
X15638875Y11968923D01*
X15640036Y11967099D01*
X15766476Y11816233D01*
X15768034Y11814805D01*
X15769241Y11813071D01*
X15904153Y11665077D01*
X15905740Y11663737D01*
X15906998Y11662081D01*
X16049249Y11518330D01*
X16050969Y11516997D01*
X16052357Y11515323D01*
X16217479Y11362183D01*
X16219345Y11360860D01*
X16220883Y11359166D01*
X16391617Y11214577D01*
X16393556Y11213330D01*
X16395183Y11211695D01*
X16569572Y11077126D01*
X16571600Y11075948D01*
X16573331Y11074364D01*
X16749400Y10951050D01*
X16751534Y10949938D01*
X16753384Y10948398D01*
X16929201Y10837306D01*
X16931461Y10836262D01*
X16933450Y10834764D01*
X17107181Y10736581D01*
X17109592Y10735608D01*
X17111746Y10734153D01*
X17281715Y10649279D01*
X17284299Y10648388D01*
X17286642Y10646983D01*
X17451361Y10575545D01*
X17454112Y10574758D01*
X17456647Y10573428D01*
X17611287Y10516494D01*
X17614261Y10515823D01*
X17617039Y10514571D01*
X17766174Y10469642D01*
X17822266Y10450531D01*
X17870721Y10426262D01*
X17915440Y10395650D01*
X17955597Y10359259D01*
X17990451Y10317761D01*
X18019357Y10271923D01*
X18042860Y10220224D01*
X18136919Y9956043D01*
X18222922Y9686399D01*
X18299895Y9414046D01*
X18367758Y9139287D01*
X18426437Y8862412D01*
X18475864Y8583745D01*
X18515987Y8303574D01*
X18546754Y8022239D01*
X18568143Y7740016D01*
X18580118Y7457258D01*
X18582674Y7174242D01*
X18575806Y6891306D01*
X18559521Y6608752D01*
X18533838Y6326903D01*
X18498784Y6046064D01*
X18454398Y5766538D01*
X18400732Y5488655D01*
X18337840Y5212705D01*
X18265800Y4939011D01*
X18184685Y4667862D01*
X18094588Y4399567D01*
X17995602Y4134413D01*
X17887848Y3872712D01*
X17771442Y3614739D01*
X17646506Y3360783D01*
X17513188Y3111136D01*
X17372951Y2868343D01*
X17339957Y2821080D01*
X17302579Y2780748D01*
X17260008Y2745938D01*
X17213054Y2717313D01*
X17162614Y2695419D01*
X17109636Y2680669D01*
X17055136Y2673345D01*
X17000146Y2673586D01*
X16945712Y2681388D01*
X16892868Y2696601D01*
X16842619Y2718938D01*
X16791179Y2750920D01*
X16706497Y2806867D01*
X16702905Y2808615D01*
X16699690Y2810989D01*
X16606680Y2862397D01*
X16603140Y2863786D01*
X16599921Y2865808D01*
X16496683Y2913138D01*
X16493205Y2914210D01*
X16489993Y2915918D01*
X16377869Y2957870D01*
X16374506Y2958647D01*
X16371356Y2960057D01*
X16250420Y2996134D01*
X16247185Y2996652D01*
X16244116Y2997794D01*
X16114545Y3027488D01*
X16111449Y3027781D01*
X16108472Y3028685D01*
X15970561Y3051494D01*
X15967603Y3051591D01*
X15964726Y3052284D01*
X15818904Y3067731D01*
X15816081Y3067659D01*
X15813307Y3068166D01*
X15660130Y3075811D01*
X15657440Y3075592D01*
X15654761Y3075936D01*
X15494925Y3075393D01*
X15492355Y3075046D01*
X15489771Y3075244D01*
X15324100Y3066202D01*
X15321642Y3065741D01*
X15319144Y3065809D01*
X15148586Y3048039D01*
X15146231Y3047477D01*
X15143811Y3047426D01*
X14969421Y3020796D01*
X14967160Y3020140D01*
X14964810Y3019982D01*
X14787743Y2984464D01*
X14785564Y2983720D01*
X14783276Y2983462D01*
X14604755Y2939141D01*
X14602650Y2938314D01*
X14600414Y2937960D01*
X14421712Y2885031D01*
X14419672Y2884123D01*
X14417480Y2883676D01*
X14239899Y2822452D01*
X14237802Y2821406D01*
X14235532Y2820833D01*
X14041106Y2743586D01*
X14038956Y2742387D01*
X14036601Y2741669D01*
X13846906Y2655423D01*
X13844806Y2654114D01*
X13842477Y2653278D01*
X13659151Y2558882D01*
X13657095Y2557455D01*
X13654784Y2556495D01*
X13479333Y2454905D01*
X13477315Y2453351D01*
X13475014Y2452256D01*
X13308788Y2344508D01*
X13306801Y2342814D01*
X13304504Y2341572D01*
X13148659Y2228754D01*
X13146706Y2226906D01*
X13144409Y2225502D01*
X12999892Y2108719D01*
X12997971Y2106698D01*
X12995676Y2105115D01*
X12863217Y1985462D01*
X12861334Y1983251D01*
X12859041Y1981467D01*
X12739159Y1860004D01*
X12737342Y1857602D01*
X12735077Y1855614D01*
X12629842Y1735485D01*
X12628085Y1732853D01*
X12625842Y1730621D01*
X12532675Y1609820D01*
X12495048Y1564386D01*
X12455379Y1527881D01*
X12411147Y1497058D01*
X12363167Y1472481D01*
X12312307Y1454598D01*
X12259500Y1443735D01*
X12202302Y1439860D01*
X7965292D01*
X7908094Y1443735D01*
X7855286Y1454598D01*
X7804428Y1472481D01*
X7756445Y1497058D01*
X7712215Y1527881D01*
X7672545Y1564386D01*
X7635223Y1609453D01*
X7571041Y1694326D01*
X7569435Y1695954D01*
X7568217Y1697889D01*
X7497102Y1783608D01*
X7495253Y1785322D01*
X7493806Y1787387D01*
X7391434Y1898994D01*
X7389339Y1900750D01*
X7387651Y1902901D01*
X7274726Y2013415D01*
X7272629Y2014989D01*
X7270906Y2016965D01*
X7147765Y2125600D01*
X7145670Y2127009D01*
X7143918Y2128827D01*
X7011046Y2234770D01*
X7008954Y2236030D01*
X7007177Y2237705D01*
X6865205Y2340126D01*
X6863117Y2341251D01*
X6861316Y2342795D01*
X6711018Y2440877D01*
X6708929Y2441879D01*
X6707105Y2443305D01*
X6549388Y2536250D01*
X6547296Y2537138D01*
X6545444Y2538456D01*
X6381334Y2625510D01*
X6379234Y2626293D01*
X6377352Y2627511D01*
X6207976Y2707982D01*
X6205860Y2708666D01*
X6203944Y2709790D01*
X6030508Y2783060D01*
X6028254Y2783681D01*
X6026184Y2784770D01*
X5830269Y2857089D01*
X5827862Y2857634D01*
X5825625Y2858676D01*
X5628045Y2920870D01*
X5625592Y2921302D01*
X5623285Y2922241D01*
X5425802Y2973899D01*
X5423292Y2974214D01*
X5420904Y2975050D01*
X5225237Y3015929D01*
X5222657Y3016123D01*
X5220177Y3016852D01*
X5027953Y3046879D01*
X5025295Y3046943D01*
X5022707Y3047558D01*
X4835427Y3066823D01*
X4832677Y3066744D01*
X4829971Y3067235D01*
X4648983Y3075972D01*
X4646133Y3075736D01*
X4643294Y3076086D01*
X4469772Y3074666D01*
X4466811Y3074251D01*
X4463829Y3074442D01*
X4298750Y3063339D01*
X4295675Y3062722D01*
X4292539Y3062728D01*
X4136687Y3042503D01*
X4133494Y3041654D01*
X4130197Y3041445D01*
X3984162Y3012714D01*
X3980856Y3011600D01*
X3977397Y3011140D01*
X3841581Y2974552D01*
X3838170Y2973134D01*
X3834556Y2972382D01*
X3709193Y2928593D01*
X3705701Y2926832D01*
X3701945Y2925742D01*
X3587120Y2875384D01*
X3583609Y2873259D01*
X3579771Y2871799D01*
X3477125Y2816468D01*
X3473608Y2813929D01*
X3469701Y2812045D01*
X3376565Y2751013D01*
X3324974Y2718937D01*
X3274725Y2696601D01*
X3221880Y2681387D01*
X3167447Y2673586D01*
X3112459Y2673345D01*
X3057956Y2680669D01*
X3004982Y2695418D01*
X2954540Y2717313D01*
X2907585Y2745939D01*
X2865014Y2780748D01*
X2827638Y2821080D01*
X2794545Y2868486D01*
X2683531Y3059135D01*
X2576216Y3255103D01*
X2474090Y3453823D01*
X2379053Y3651353D01*
X2371306Y3673366D01*
X2368556Y3692262D01*
X2369495Y3711331D01*
X2374089Y3729859D01*
X2382167Y3747158D01*
X2393427Y3762580D01*
X2407442Y3775542D01*
X2423693Y3785561D01*
X2446172Y3793989D01*
X3382167Y4044788D01*
X3386754Y4046688D01*
X3391591Y4047816D01*
X3428284Y4061626D01*
X3437008Y4066289D01*
X3446019Y4070372D01*
X3479313Y4091076D01*
X3486957Y4097349D01*
X3494999Y4103112D01*
X3523614Y4129914D01*
X3529889Y4137559D01*
X3536651Y4144779D01*
X3559488Y4176648D01*
X3564151Y4185372D01*
X3569375Y4193772D01*
X3585556Y4229484D01*
X3588428Y4238951D01*
X3591912Y4248209D01*
X3600814Y4286391D01*
X3601783Y4296233D01*
X3603394Y4305992D01*
X3604678Y4345178D01*
X3603708Y4355021D01*
X3603384Y4364909D01*
X3596998Y4403592D01*
X3595556Y4408344D01*
X3594908Y4413267D01*
X3051388Y6441711D01*
X3049488Y6446298D01*
X3048360Y6451134D01*
X3034550Y6487828D01*
X3029887Y6496552D01*
X3025805Y6505561D01*
X3005102Y6538855D01*
X2998826Y6546502D01*
X2993064Y6554543D01*
X2966262Y6583159D01*
X2958617Y6589433D01*
X2951398Y6596194D01*
X2919530Y6619032D01*
X2910806Y6623694D01*
X2902404Y6628919D01*
X2866692Y6645100D01*
X2857225Y6647971D01*
X2847969Y6651455D01*
X2809787Y6660358D01*
X2799942Y6661328D01*
X2790184Y6662939D01*
X2750998Y6664221D01*
X2741155Y6663252D01*
X2731268Y6662928D01*
X2692585Y6656542D01*
X2687833Y6655100D01*
X2682910Y6654452D01*
X1746914Y6403653D01*
X1723234Y6399713D01*
X1704151Y6400264D01*
X1685530Y6404481D01*
X1668071Y6412206D01*
X1652426Y6423148D01*
X1639181Y6436900D01*
X1628833Y6452943D01*
X1621769Y6470680D01*
X1617496Y6493483D01*
X1598178Y6760050D01*
X1587212Y7031193D01*
X1584908Y7302543D01*
X1591269Y7573830D01*
X1606287Y7844765D01*
X1629946Y8115096D01*
X1662224Y8384530D01*
X1703086Y8652795D01*
X1752490Y8919614D01*
X1810389Y9184727D01*
X1876722Y9447858D01*
X1951420Y9708732D01*
X2034406Y9967084D01*
X2124720Y10220195D01*
X2148236Y10271922D01*
X2177143Y10317762D01*
X2211997Y10359259D01*
X2252153Y10395650D01*
X2296872Y10426262D01*
X2345327Y10450531D01*
X2401196Y10469566D01*
X2527436Y10506954D01*
X2529839Y10508023D01*
X2532413Y10508569D01*
X2663455Y10554897D01*
X2665758Y10556069D01*
X2668256Y10556733D01*
X2817588Y10618252D01*
X2819807Y10619527D01*
X2822243Y10620309D01*
X2976097Y10692973D01*
X2978141Y10694289D01*
X2980419Y10695142D01*
X3137672Y10778854D01*
X3139565Y10780206D01*
X3141703Y10781120D01*
X3301103Y10875595D01*
X3302862Y10876977D01*
X3304880Y10877948D01*
X3465074Y10982707D01*
X3466720Y10984122D01*
X3468632Y10985144D01*
X3628198Y11099519D01*
X3629744Y11100967D01*
X3631568Y11102043D01*
X3789047Y11225187D01*
X3790506Y11226673D01*
X3792254Y11227803D01*
X3946196Y11358703D01*
X3947656Y11360318D01*
X3949431Y11361577D01*
X4114609Y11514715D01*
X4116068Y11516475D01*
X4117871Y11517879D01*
X4275106Y11677415D01*
X4276495Y11679252D01*
X4278245Y11680748D01*
X4425910Y11844847D01*
X4427235Y11846775D01*
X4428941Y11848376D01*
X4565639Y12015152D01*
X4566905Y12017191D01*
X4568575Y12018912D01*
X4693170Y12186502D01*
X4694377Y12188668D01*
X4696015Y12190530D01*
X4807666Y12357140D01*
X4808813Y12359458D01*
X4810419Y12361485D01*
X4908571Y12525452D01*
X4909650Y12527945D01*
X4911222Y12530162D01*
X4995615Y12689995D01*
X4996614Y12692692D01*
X4998142Y12695129D01*
X5068780Y12849536D01*
X5069680Y12852464D01*
X5071148Y12855154D01*
X5128279Y13003069D01*
X5129052Y13006259D01*
X5130435Y13009238D01*
X5174506Y13149821D01*
X5175115Y13153307D01*
X5176376Y13156610D01*
X5207991Y13289262D01*
X5208384Y13293065D01*
X5209475Y13296729D01*
X5229348Y13421069D01*
X5229462Y13425208D01*
X5230315Y13429259D01*
X5239221Y13545108D01*
X5238978Y13549586D01*
X5239510Y13554041D01*
X5238231Y13661401D01*
X5237548Y13666148D01*
X5237664Y13670946D01*
X5227275Y13767912D01*
X5226059Y13772928D01*
X5225658Y13778075D01*
X5206510Y13868440D01*
X5194658Y13928725D01*
X5191587Y13983829D01*
X5196149Y14038823D01*
X5208260Y14092664D01*
X5227684Y14144318D01*
X5254053Y14192798D01*
X5286859Y14237173D01*
X5325476Y14276598D01*
X5371529Y14312138D01*
X5514315Y14405247D01*
X5658992Y14495435D01*
X5710501Y14522131D01*
X5762387Y14540492D01*
X5816303Y14551535D01*
X5871229Y14555051D01*
X5926116Y14550974D01*
X5979917Y14539381D01*
X6031613Y14520493D01*
X6080217Y14494667D01*
X6124801Y14462399D01*
X6164522Y14424300D01*
X6201876Y14376971D01*
X6283824Y14265544D01*
X6286281Y14262985D01*
X6288204Y14260005D01*
X6378859Y14153278D01*
X6381489Y14150896D01*
X6383616Y14148058D01*
X6481517Y14047935D01*
X6484307Y14045744D01*
X6486628Y14043062D01*
X6591295Y13950035D01*
X6594231Y13948045D01*
X6596735Y13945531D01*
X6707655Y13860056D01*
X6710724Y13858276D01*
X6713396Y13855943D01*
X6830025Y13778441D01*
X6833211Y13776878D01*
X6836039Y13774741D01*
X6957805Y13705588D01*
X6961091Y13704253D01*
X6964064Y13702316D01*
X7090370Y13641853D01*
X7093742Y13640753D01*
X7096843Y13639030D01*
X7227071Y13587553D01*
X7230512Y13586691D01*
X7233725Y13585188D01*
X7367235Y13542950D01*
X7370728Y13542331D01*
X7374039Y13541057D01*
X7508535Y13508659D01*
X7566186Y13492715D01*
X7616318Y13471118D01*
X7663031Y13442880D01*
X7705450Y13408533D01*
X7742784Y13368712D01*
X7774333Y13324168D01*
X7799506Y13275732D01*
X7817830Y13224316D01*
X7828964Y13170882D01*
X7832935Y13112968D01*
Y11469216D01*
X7829306Y11413843D01*
X7819126Y11362665D01*
X7802353Y11313253D01*
X7779273Y11266453D01*
X7750282Y11223064D01*
X7715878Y11183833D01*
X7676646Y11149428D01*
X7633257Y11120436D01*
X7586457Y11097358D01*
X7537047Y11080585D01*
X7485865Y11070404D01*
X7430494Y11066775D01*
X6933797D01*
X6930509Y11066342D01*
X6927200Y11066559D01*
X6861938Y11062282D01*
X6855453Y11060992D01*
X6848856Y11060560D01*
X6784710Y11047800D01*
X6778451Y11045675D01*
X6771967Y11044385D01*
X6710035Y11023362D01*
X6704107Y11020439D01*
X6697846Y11018314D01*
X6639188Y10989387D01*
X6633690Y10985714D01*
X6627760Y10982790D01*
X6573380Y10946454D01*
X6568409Y10942094D01*
X6562913Y10938422D01*
X6513741Y10895299D01*
X6509383Y10890329D01*
X6504412Y10885969D01*
X6461289Y10836796D01*
X6457616Y10831300D01*
X6453258Y10826330D01*
X6416921Y10771950D01*
X6413997Y10766020D01*
X6410324Y10760524D01*
X6381397Y10701865D01*
X6379272Y10695605D01*
X6376348Y10689676D01*
X6355325Y10627745D01*
X6354036Y10621261D01*
X6351910Y10615000D01*
X6339151Y10550852D01*
X6338719Y10544256D01*
X6337430Y10537774D01*
X6333151Y10472511D01*
X6333368Y10469202D01*
X6332935Y10465914D01*
Y7465913D01*
X6333368Y7462625D01*
X6333151Y7459315D01*
X6337430Y7394053D01*
X6338719Y7387571D01*
X6339151Y7380975D01*
X6351910Y7316828D01*
X6354035Y7310567D01*
X6355325Y7304083D01*
X6376348Y7242151D01*
X6379273Y7236221D01*
X6381397Y7229961D01*
X6410325Y7171303D01*
X6413997Y7165807D01*
X6416921Y7159877D01*
X6453258Y7105497D01*
X6457616Y7100527D01*
X6461289Y7095031D01*
X6504412Y7045858D01*
X6509382Y7041499D01*
X6513741Y7036528D01*
X6562913Y6993405D01*
X6568409Y6989733D01*
X6573380Y6985373D01*
X6627760Y6949037D01*
X6633690Y6946113D01*
X6639188Y6942440D01*
X6690621Y6917077D01*
X6691580Y6902443D01*
X6691181Y6902177D01*
X6686760Y6895561D01*
X6685208Y6887757D01*
Y6323936D01*
X6686760Y6316132D01*
X6691181Y6309516D01*
X6697796Y6305096D01*
X6705600Y6303544D01*
X6894074D01*
X7690314Y5481263D01*
X7691154Y5480008D01*
X7703057Y5468104D01*
X7846651Y5319815D01*
X7846788Y5319720D01*
X7846881Y5319581D01*
X7850058Y5317457D01*
X7853194Y5315288D01*
X7853357Y5315253D01*
X7853496Y5315160D01*
X7857240Y5314416D01*
X7860972Y5313611D01*
X7861136Y5313641D01*
X7861300Y5313608D01*
X7977553D01*
X8215580Y5075581D01*
X8222196Y5071160D01*
X8230000Y5069608D01*
X9599999D01*
X9600000Y5069608D01*
X9607804Y5071160D01*
X9614419Y5075581D01*
X9614420Y5075581D01*
X9852447Y5313608D01*
X12255499D01*
X12255500Y5313608D01*
X12263304Y5315160D01*
X12269919Y5319581D01*
X12269920Y5319581D01*
X12746547Y5796208D01*
X13157199D01*
X13157201Y5796208D01*
X13165004Y5797760D01*
X13171619Y5802181D01*
X13814960Y6445522D01*
X14898712D01*
X14898714Y6445521D01*
X14906517Y6447074D01*
X14913133Y6451494D01*
X14913133Y6451495D01*
X15444919Y6983280D01*
X15449339Y6989896D01*
X15450891Y6997699D01*
Y7137398D01*
X15450893Y7137400D01*
Y7268653D01*
X15642146Y7459908D01*
X16751300Y7459908D01*
X16759103Y7461460D01*
X16765720Y7465881D01*
X16765720Y7465881D01*
X16867319Y7567481D01*
X16871741Y7574096D01*
X16873293Y7581900D01*
Y8039100D01*
X16871741Y8046903D01*
X16867319Y8053519D01*
X16867319Y8053520D01*
X16733592Y8187247D01*
Y8508998D01*
X16733592Y8509000D01*
X16732040Y8516803D01*
X16727618Y8523419D01*
X16727618Y8523420D01*
X16486319Y8764719D01*
X16479704Y8769140D01*
X16471899Y8770692D01*
X15337346D01*
X15222292Y8885747D01*
X15222292Y9643553D01*
X15399336Y9820598D01*
X15630898D01*
Y9822108D01*
X15633701D01*
X15641504Y9823660D01*
X15648119Y9828081D01*
X15652541Y9834696D01*
X15654092Y9842500D01*
Y10096500D01*
X15652541Y10104304D01*
X15648119Y10110919D01*
X15648119Y10110920D01*
X15546519Y10212519D01*
X15539903Y10216940D01*
X15532100Y10218492D01*
X14808200D01*
X14800397Y10216940D01*
X14793781Y10212519D01*
X14717581Y10136319D01*
X14713161Y10129704D01*
X14711607Y10121900D01*
Y8750300D01*
Y8382001D01*
X14711607Y8382000D01*
X14711607Y8381999D01*
Y7237370D01*
X14365331Y6891092D01*
X13627100D01*
X13619296Y6889540D01*
X13612682Y6885119D01*
X13072552Y6344992D01*
X12776201D01*
X12776200Y6344992D01*
X12768396Y6343440D01*
X12761781Y6339019D01*
X12170853Y5748092D01*
X8047547D01*
X7253420Y6542218D01*
X7253419Y6542219D01*
X6943287Y6852352D01*
X6948547Y6865052D01*
X7430494D01*
X7485865Y6861423D01*
X7537047Y6851242D01*
X7586458Y6834469D01*
X7633258Y6811390D01*
X7676644Y6782400D01*
X7715877Y6747995D01*
X7750282Y6708763D01*
X7779274Y6665373D01*
X7802352Y6618575D01*
X7819126Y6569162D01*
X7829306Y6517984D01*
X7833151Y6459317D01*
X7833151Y6459316D01*
X7837430Y6394053D01*
X7838719Y6387571D01*
X7839151Y6380975D01*
X7851910Y6316828D01*
X7854035Y6310567D01*
X7855325Y6304083D01*
X7876348Y6242151D01*
X7879273Y6236221D01*
X7881397Y6229961D01*
X7910325Y6171303D01*
X7913997Y6165807D01*
X7916921Y6159877D01*
X7953258Y6105497D01*
X7957617Y6100527D01*
X7961289Y6095031D01*
X8004412Y6045858D01*
X8009382Y6041499D01*
X8013741Y6036528D01*
X8062913Y5993405D01*
X8068411Y5989732D01*
X8073381Y5985373D01*
X8127761Y5949037D01*
X8133690Y5946114D01*
X8139187Y5942440D01*
X8197846Y5913514D01*
X8204105Y5911389D01*
X8210035Y5908465D01*
X8271967Y5887442D01*
X8278451Y5886152D01*
X8284710Y5884027D01*
X8348856Y5871267D01*
X8355453Y5870835D01*
X8361938Y5869545D01*
X8427200Y5865268D01*
X8430509Y5865485D01*
X8433797Y5865052D01*
X11733797D01*
X11737085Y5865485D01*
X11740394Y5865268D01*
X11805656Y5869545D01*
X11812141Y5870835D01*
X11818738Y5871267D01*
X11882884Y5884027D01*
X11889143Y5886152D01*
X11895627Y5887442D01*
X11957559Y5908465D01*
X11963489Y5911389D01*
X11969748Y5913514D01*
X12028406Y5942440D01*
X12033904Y5946114D01*
X12039833Y5949037D01*
X12094213Y5985373D01*
X12099184Y5989732D01*
X12104681Y5993405D01*
X12153853Y6036528D01*
X12158211Y6041498D01*
X12163182Y6045858D01*
X12206305Y6095031D01*
X12209977Y6100527D01*
X12214336Y6105497D01*
X12250672Y6159877D01*
X12253597Y6165807D01*
X12257269Y6171303D01*
X12286196Y6229961D01*
X12288321Y6236221D01*
X12291246Y6242151D01*
X12312269Y6304083D01*
X12313559Y6310567D01*
X12315684Y6316828D01*
X12328443Y6380975D01*
X12328875Y6387571D01*
X12330164Y6394053D01*
X12334443Y6459316D01*
X12334443Y6459317D01*
X12338288Y6517984D01*
X12348468Y6569162D01*
X12365241Y6618575D01*
X12388320Y6665373D01*
X12417311Y6708762D01*
X12451717Y6747995D01*
X12490948Y6782399D01*
X12534336Y6811390D01*
X12581136Y6834469D01*
X12630548Y6851242D01*
X12681726Y6861423D01*
X12737099Y6865052D01*
X13233797D01*
X13237085Y6865485D01*
X13240395Y6865268D01*
X13305656Y6869545D01*
X13312141Y6870835D01*
X13318738Y6871267D01*
X13382884Y6884027D01*
X13389143Y6886152D01*
X13395627Y6887442D01*
X13457559Y6908465D01*
X13463487Y6911388D01*
X13469748Y6913513D01*
X13528406Y6942440D01*
X13533904Y6946113D01*
X13539833Y6949037D01*
X13594214Y6985373D01*
X13599185Y6989733D01*
X13604681Y6993405D01*
X13653853Y7036528D01*
X13658211Y7041498D01*
X13663182Y7045858D01*
X13706305Y7095031D01*
X13709978Y7100527D01*
X13714336Y7105497D01*
X13750673Y7159877D01*
X13753596Y7165807D01*
X13757269Y7171303D01*
X13786195Y7229961D01*
X13788321Y7236221D01*
X13791246Y7242151D01*
X13812270Y7304083D01*
X13813559Y7310567D01*
X13815685Y7316828D01*
X13828442Y7380975D01*
X13828876Y7387571D01*
X13830164Y7394053D01*
X13834444Y7459316D01*
X13834225Y7462625D01*
X13834659Y7465913D01*
Y10465914D01*
X13834225Y10469202D01*
X13834444Y10472512D01*
X13830164Y10537774D01*
X13828876Y10544256D01*
X13828442Y10550852D01*
X13815685Y10615000D01*
X13813557Y10621261D01*
X13812270Y10627745D01*
X13791246Y10689676D01*
X13788322Y10695605D01*
X13786197Y10701865D01*
X13757269Y10760524D01*
X13753596Y10766020D01*
X13750673Y10771950D01*
X13714336Y10826330D01*
X13709978Y10831300D01*
X13706305Y10836796D01*
X13663182Y10885969D01*
X13658212Y10890328D01*
X13653853Y10895299D01*
X13604681Y10938422D01*
X13599185Y10942094D01*
X13594214Y10946454D01*
X13539833Y10982790D01*
X13533904Y10985714D01*
X13528406Y10989387D01*
X13469748Y11018313D01*
X13463487Y11020438D01*
X13457559Y11023362D01*
X13395627Y11044385D01*
X13389143Y11045675D01*
X13382884Y11047800D01*
X13318738Y11060560D01*
X13312141Y11060992D01*
X13305656Y11062282D01*
X13240395Y11066559D01*
X13237085Y11066342D01*
X13233797Y11066775D01*
X12737099D01*
X12681726Y11070404D01*
X12630548Y11080585D01*
X12581137Y11097358D01*
X12534336Y11120437D01*
X12490947Y11149428D01*
X12451716Y11183833D01*
X12417312Y11223063D01*
X12388321Y11266452D01*
X12365241Y11313253D01*
X12348468Y11362665D01*
X12338288Y11413843D01*
X12334659Y11469216D01*
Y13112968D01*
X12338630Y13170882D01*
X12349764Y13224316D01*
X12368088Y13275732D01*
X12393261Y13324168D01*
X12424809Y13368710D01*
X12462144Y13408533D01*
X12504563Y13442880D01*
X12551276Y13471118D01*
X12601408Y13492715D01*
X12659061Y13508661D01*
X12793555Y13541057D01*
X12796866Y13542331D01*
X12800359Y13542950D01*
X12933868Y13585188D01*
X12937082Y13586691D01*
X12940523Y13587553D01*
X13070750Y13639030D01*
X13073853Y13640753D01*
X13077225Y13641853D01*
X13203529Y13702316D01*
X13206502Y13704253D01*
X13209789Y13705588D01*
X13331554Y13774741D01*
X13334384Y13776880D01*
X13337569Y13778441D01*
X13454198Y13855943D01*
X13456870Y13858276D01*
X13459940Y13860056D01*
X13570859Y13945531D01*
X13573363Y13948045D01*
X13576299Y13950035D01*
X13680966Y14043062D01*
X13683287Y14045744D01*
X13686076Y14047935D01*
X13783977Y14148059D01*
X13786104Y14150897D01*
X13788734Y14153278D01*
X13879388Y14260005D01*
X13881313Y14262984D01*
X13883771Y14265544D01*
X13965717Y14376967D01*
X14003072Y14424300D01*
X14042792Y14462399D01*
X14087376Y14494667D01*
X14135982Y14520493D01*
X14187675Y14539381D01*
X14241478Y14550974D01*
X14296364Y14555051D01*
X14351289Y14551535D01*
D02*
G37*
G36*
X15633701Y10096500D02*
Y9842500D01*
X15392400D01*
X15201900Y9652000D01*
X15201900Y8877300D01*
X15328899Y8750300D01*
X16471899D01*
X16713200Y8509000D01*
Y8178800D01*
X16852901Y8039100D01*
Y7581900D01*
X16751300Y7480300D01*
X15633701Y7480300D01*
X15430499Y7277100D01*
Y7137400D01*
X15430499Y7137399D01*
Y6997699D01*
X14898714Y6465913D01*
X13806512D01*
X13157201Y5816600D01*
X12738100D01*
X12255500Y5334000D01*
X9844000D01*
X9600000Y5090000D01*
X8230000D01*
X7986000Y5334000D01*
X7861300D01*
X7717588Y5482411D01*
X7705573Y5494427D01*
X7705687Y5494702D01*
X6902713Y6323936D01*
X6705600D01*
Y6887757D01*
X6771037D01*
X6771967Y6887442D01*
X6778451Y6886152D01*
X6784710Y6884027D01*
X6848856Y6871267D01*
X6855453Y6870835D01*
X6861938Y6869545D01*
X6899732Y6867068D01*
X6899732Y6867068D01*
X7239000Y6527800D01*
X7239000Y6527800D01*
X8039100Y5727700D01*
X12179300D01*
X12776200Y6324600D01*
X13081000D01*
X13627100Y6870700D01*
X14373776D01*
X14732001Y7228923D01*
Y8382000D01*
Y10121900D01*
X14808200Y10198100D01*
X15532100D01*
X15633701Y10096500D01*
D02*
G37*
%LPC*%
G36*
X14401439Y14181531D02*
X14362949D01*
X14325197Y14174022D01*
X14289638Y14159293D01*
X14257632Y14137907D01*
X14230415Y14110690D01*
X14209032Y14078688D01*
X14194302Y14043127D01*
X14186794Y14005376D01*
Y13966885D01*
X14194302Y13929135D01*
X14209032Y13893575D01*
X14230415Y13861571D01*
X14257632Y13834354D01*
X14289638Y13812970D01*
X14325197Y13798241D01*
X14362949Y13790730D01*
X14401439D01*
X14439189Y13798241D01*
X14474750Y13812970D01*
X14506754Y13834354D01*
X14533971Y13861571D01*
X14555354Y13893575D01*
X14570084Y13929135D01*
X14577592Y13966885D01*
Y14005376D01*
X14570084Y14043127D01*
X14555354Y14078688D01*
X14533971Y14110690D01*
X14506754Y14137907D01*
X14474750Y14159293D01*
X14439189Y14174022D01*
X14401439Y14181531D01*
D02*
G37*
G36*
X5804646D02*
X5766155D01*
X5728405Y14174022D01*
X5692844Y14159293D01*
X5660841Y14137907D01*
X5633624Y14110690D01*
X5612239Y14078688D01*
X5597510Y14043127D01*
X5590001Y14005376D01*
Y13966885D01*
X5597510Y13929135D01*
X5612239Y13893575D01*
X5633624Y13861571D01*
X5660841Y13834354D01*
X5692844Y13812970D01*
X5728405Y13798241D01*
X5766155Y13790730D01*
X5804646D01*
X5842397Y13798241D01*
X5877957Y13812970D01*
X5909961Y13834354D01*
X5937178Y13861571D01*
X5958562Y13893575D01*
X5973291Y13929135D01*
X5980801Y13966885D01*
Y14005376D01*
X5973291Y14043127D01*
X5958562Y14078688D01*
X5937178Y14110690D01*
X5909961Y14137907D01*
X5877957Y14159293D01*
X5842397Y14174022D01*
X5804646Y14181531D01*
D02*
G37*
G36*
X7499475Y12680902D02*
X7464925D01*
X7431038Y12674161D01*
X7399117Y12660939D01*
X7370389Y12641744D01*
X7345958Y12617313D01*
X7326763Y12588585D01*
X7313541Y12556664D01*
X7306800Y12522777D01*
Y12488227D01*
X7313541Y12454340D01*
X7326763Y12422419D01*
X7345958Y12393691D01*
X7370389Y12369260D01*
X7399117Y12350065D01*
X7431038Y12336843D01*
X7464925Y12330102D01*
X7499475D01*
X7533362Y12336843D01*
X7565283Y12350065D01*
X7594011Y12369260D01*
X7618442Y12393691D01*
X7637637Y12422419D01*
X7650859Y12454340D01*
X7657600Y12488227D01*
Y12522777D01*
X7650859Y12556664D01*
X7637637Y12588585D01*
X7618442Y12617313D01*
X7594011Y12641744D01*
X7565283Y12660939D01*
X7533362Y12674161D01*
X7499475Y12680902D01*
D02*
G37*
G36*
X5299475D02*
X5264924D01*
X5231037Y12674161D01*
X5199116Y12660939D01*
X5170388Y12641744D01*
X5145957Y12617313D01*
X5126762Y12588585D01*
X5113540Y12556664D01*
X5106799Y12522777D01*
Y12488227D01*
X5113540Y12454340D01*
X5126762Y12422419D01*
X5145957Y12393691D01*
X5170388Y12369260D01*
X5199116Y12350065D01*
X5231037Y12336843D01*
X5264924Y12330102D01*
X5299475D01*
X5333361Y12336843D01*
X5365282Y12350065D01*
X5394010Y12369260D01*
X5418441Y12393691D01*
X5437637Y12422419D01*
X5450859Y12454340D01*
X5457599Y12488227D01*
Y12522777D01*
X5450859Y12556664D01*
X5437637Y12588585D01*
X5418441Y12617313D01*
X5394010Y12641744D01*
X5365282Y12660939D01*
X5333361Y12674161D01*
X5299475Y12680902D01*
D02*
G37*
G36*
X7132598Y12121900D02*
X6891799D01*
Y12042691D01*
X6841500D01*
X6825737Y12039556D01*
X6812373Y12030627D01*
X5983892Y11202145D01*
X5971976Y11206150D01*
X5971192Y11206769D01*
Y11322239D01*
X6540992Y11892039D01*
X6545727Y11889305D01*
X6576348Y11881100D01*
X6608050D01*
X6638672Y11889305D01*
X6666126Y11905156D01*
X6688543Y11927573D01*
X6704394Y11955027D01*
X6712599Y11985649D01*
Y12017351D01*
X6704394Y12047973D01*
X6688543Y12075427D01*
X6666126Y12097844D01*
X6638672Y12113695D01*
X6608050Y12121900D01*
X6576348D01*
X6545727Y12113695D01*
X6518272Y12097844D01*
X6495855Y12075427D01*
X6480005Y12047973D01*
X6471799Y12017351D01*
Y11985649D01*
X6480005Y11955027D01*
X6482738Y11950293D01*
X5900873Y11368428D01*
X5891944Y11355064D01*
X5888809Y11339301D01*
Y9160162D01*
X5361547Y8632900D01*
X5347386D01*
X5325186Y8623705D01*
X5308195Y8606714D01*
X5299000Y8584514D01*
Y8560486D01*
X5308195Y8538286D01*
X5325186Y8521295D01*
X5347386Y8512100D01*
X5371414D01*
X5393614Y8521295D01*
X5410605Y8538286D01*
X5419800Y8560486D01*
Y8574647D01*
X5956108Y9110955D01*
X5968024Y9106950D01*
X5968808Y9106331D01*
Y8997062D01*
X5542147Y8570400D01*
X5527986D01*
X5505786Y8561205D01*
X5488795Y8544214D01*
X5479600Y8522014D01*
Y8497986D01*
X5488795Y8475786D01*
X5505786Y8458795D01*
X5527986Y8449600D01*
X5552014D01*
X5574214Y8458795D01*
X5591205Y8475786D01*
X5600400Y8497986D01*
Y8512147D01*
X6039127Y8950873D01*
X6048056Y8964237D01*
X6051191Y8980000D01*
Y11152938D01*
X6858562Y11960309D01*
X6891799D01*
Y11881100D01*
X7132598D01*
Y12121900D01*
D02*
G37*
G36*
X6188051D02*
X6156349D01*
X6125727Y12113695D01*
X6098273Y12097844D01*
X6075856Y12075427D01*
X6060005Y12047973D01*
X6051800Y12017351D01*
Y11985649D01*
X6060005Y11955027D01*
X6075856Y11927573D01*
X6098273Y11905156D01*
X6125727Y11889305D01*
X6156349Y11881100D01*
X6188051D01*
X6218673Y11889305D01*
X6246127Y11905156D01*
X6268544Y11927573D01*
X6284395Y11955027D01*
X6292600Y11985649D01*
Y12017351D01*
X6284395Y12047973D01*
X6268544Y12075427D01*
X6246127Y12097844D01*
X6218673Y12113695D01*
X6188051Y12121900D01*
D02*
G37*
G36*
X5768052D02*
X5736350D01*
X5705728Y12113695D01*
X5678274Y12097844D01*
X5655857Y12075427D01*
X5640006Y12047973D01*
X5631801Y12017351D01*
Y11985649D01*
X5640006Y11955027D01*
X5655857Y11927573D01*
X5678274Y11905156D01*
X5705728Y11889305D01*
X5736350Y11881100D01*
X5768052D01*
X5798673Y11889305D01*
X5826128Y11905156D01*
X5848545Y11927573D01*
X5864395Y11955027D01*
X5872601Y11985649D01*
Y12017351D01*
X5864395Y12047973D01*
X5848545Y12075427D01*
X5826128Y12097844D01*
X5798673Y12113695D01*
X5768052Y12121900D01*
D02*
G37*
G36*
X4470000Y11560392D02*
X4462196Y11558840D01*
X4455581Y11554419D01*
X3614953Y10713792D01*
X3441701D01*
X3441700Y10713792D01*
X3433896Y10712240D01*
X3427281Y10707819D01*
X3427280Y10707819D01*
X3401361Y10681900D01*
X3396200D01*
Y10676739D01*
X3376481Y10657019D01*
X3372060Y10650404D01*
X3370508Y10642600D01*
Y9588501D01*
X3370508Y9588500D01*
X3372060Y9580696D01*
X3376481Y9574081D01*
X3376481Y9574080D01*
X3389181Y9561381D01*
X3395796Y9556960D01*
X3403600Y9555408D01*
X3649153D01*
X3700708Y9503853D01*
Y9194800D01*
X3702260Y9186996D01*
X3706681Y9180381D01*
X3713296Y9175960D01*
X3721100Y9174408D01*
X4076700D01*
X4084504Y9175960D01*
X4091119Y9180381D01*
X4091120Y9180381D01*
X4116519Y9205781D01*
X4120940Y9212396D01*
X4122492Y9220200D01*
Y9491153D01*
X4186747Y9555408D01*
X4368799D01*
X4368800Y9555408D01*
X4376604Y9556960D01*
X4383219Y9561381D01*
X4618547Y9796708D01*
X4826000D01*
X4833804Y9798260D01*
X4840419Y9802681D01*
X4840420Y9802681D01*
X4903919Y9866181D01*
X4908340Y9872796D01*
X4909892Y9880600D01*
Y10058400D01*
X4908340Y10066204D01*
X4903919Y10072819D01*
X4903919Y10072820D01*
X4802319Y10174419D01*
X4795704Y10178840D01*
X4787900Y10180392D01*
X4491547D01*
X4376492Y10295447D01*
Y10487653D01*
X4954419Y11065581D01*
X4958839Y11072196D01*
X4960392Y11080000D01*
X4960392Y11229999D01*
X4958840Y11237803D01*
X4954419Y11244418D01*
X4644421Y11554418D01*
X4644420Y11554419D01*
X4637805Y11558839D01*
X4630001Y11560392D01*
X4470001Y11560392D01*
X4470000Y11560392D01*
D02*
G37*
G36*
X14491270Y10874301D02*
X14464729D01*
X14439093Y10867432D01*
X14416109Y10854161D01*
X14397340Y10835394D01*
X14384070Y10812409D01*
X14377200Y10786772D01*
Y10760231D01*
X14384070Y10734594D01*
X14397340Y10711609D01*
X14416109Y10692841D01*
X14439093Y10679571D01*
X14464729Y10672702D01*
X14491270D01*
X14516907Y10679571D01*
X14539893Y10692841D01*
X14558659Y10711609D01*
X14571930Y10734594D01*
X14578799Y10760231D01*
Y10786772D01*
X14571930Y10812409D01*
X14558659Y10835394D01*
X14539893Y10854161D01*
X14516907Y10867432D01*
X14491270Y10874301D01*
D02*
G37*
G36*
X5766370D02*
X5739830D01*
X5714193Y10867432D01*
X5691208Y10854161D01*
X5672440Y10835394D01*
X5659170Y10812409D01*
X5652300Y10786772D01*
Y10760231D01*
X5659170Y10734594D01*
X5672440Y10711609D01*
X5691208Y10692841D01*
X5714193Y10679571D01*
X5739830Y10672702D01*
X5766370D01*
X5792007Y10679571D01*
X5814992Y10692841D01*
X5833760Y10711609D01*
X5847030Y10734594D01*
X5853900Y10760231D01*
Y10786772D01*
X5847030Y10812409D01*
X5833760Y10835394D01*
X5814992Y10854161D01*
X5792007Y10867432D01*
X5766370Y10874301D01*
D02*
G37*
G36*
X3311200Y10438000D02*
X2811200D01*
Y10391691D01*
X2730500D01*
X2714737Y10388556D01*
X2701373Y10379627D01*
X2330873Y10009127D01*
X2321944Y9995763D01*
X2318809Y9980000D01*
Y9590700D01*
X2321944Y9574937D01*
X2330873Y9561573D01*
X4311697Y7580750D01*
X4325061Y7571821D01*
X4340824Y7568685D01*
X4903062D01*
X6981909Y5489838D01*
Y5439962D01*
X6967938Y5425991D01*
X6847000D01*
Y5437300D01*
X6662000D01*
Y5335768D01*
X6662000Y5332300D01*
X6662361Y5319600D01*
X6653081Y5310319D01*
X6652324Y5309187D01*
X6599885D01*
X6528387Y5380685D01*
Y5676900D01*
X6524476Y5696565D01*
X6513336Y5713236D01*
X5791787Y6434785D01*
Y6578600D01*
X5787876Y6598265D01*
X5776736Y6614936D01*
X5281068Y7110604D01*
X5264397Y7121743D01*
X5244732Y7125655D01*
X5049385D01*
X5028514Y7134300D01*
X5004486D01*
X4982286Y7125105D01*
X4965295Y7108114D01*
X4956100Y7085914D01*
Y7061886D01*
X4965295Y7039686D01*
X4982286Y7022695D01*
X5004486Y7013500D01*
X5028514D01*
X5050714Y7022695D01*
X5050899Y7022881D01*
X5223447D01*
X5689013Y6557315D01*
Y6413500D01*
X5692924Y6393835D01*
X5704064Y6377164D01*
X6425613Y5655615D01*
Y5359400D01*
X6429524Y5339735D01*
X6440664Y5323064D01*
X6542264Y5221464D01*
X6558935Y5210324D01*
X6578600Y5206413D01*
X6662000D01*
Y5205300D01*
X6665762D01*
X6675061Y5196000D01*
X6670225Y5183300D01*
X6662000D01*
Y5171991D01*
X6629400D01*
X6613637Y5168856D01*
X6600273Y5159927D01*
X6352147Y4911800D01*
X6337986D01*
X6315786Y4902605D01*
X6298795Y4885614D01*
X6289600Y4863414D01*
Y4839386D01*
X6298795Y4817186D01*
X6315786Y4800195D01*
X6337986Y4791000D01*
X6362014D01*
X6384214Y4800195D01*
X6401205Y4817186D01*
X6410400Y4839386D01*
Y4853547D01*
X6646462Y5089609D01*
X6662000D01*
Y5078300D01*
X6847000D01*
X6847000Y5183300D01*
X6858330Y5186608D01*
X6939208D01*
Y3998239D01*
X6927475Y3993379D01*
X6878527Y4042327D01*
X6865164Y4051256D01*
X6849401Y4054391D01*
X6589302D01*
Y4078200D01*
X6484302D01*
Y3948200D01*
X6589302D01*
Y3972009D01*
X6832339D01*
X7024724Y3779623D01*
X7019864Y3767890D01*
X6894864D01*
X6874427Y3788327D01*
X6861063Y3797256D01*
X6845300Y3800391D01*
X6609300D01*
Y3829200D01*
X6479300D01*
Y3689200D01*
X6609300D01*
Y3718009D01*
X6828238D01*
X6848675Y3697571D01*
X6862039Y3688642D01*
X6877802Y3685507D01*
X7323899D01*
Y3637892D01*
X6873301D01*
X6857538Y3634757D01*
X6844174Y3625828D01*
X6802838Y3584491D01*
X6563902D01*
Y3608300D01*
X6458902D01*
Y3597313D01*
X6446202Y3596062D01*
X6445040Y3601903D01*
X6440619Y3608519D01*
X6440619Y3608520D01*
X6389819Y3659319D01*
X6383204Y3663739D01*
X6375400Y3665292D01*
X6121401Y3665292D01*
X6121400Y3665292D01*
X6113596Y3663740D01*
X6106981Y3659319D01*
X6106980Y3659319D01*
X6024053Y3576392D01*
X5583451D01*
X5468692Y3691151D01*
Y4206779D01*
X5468692Y4206780D01*
X5467139Y4214584D01*
X5462719Y4221200D01*
X5462718Y4221200D01*
X5376901Y4307018D01*
X5376901Y4307018D01*
X5370285Y4311439D01*
X5362482Y4312991D01*
X5105878Y4312992D01*
X5102026Y4312226D01*
X5098162Y4311476D01*
X5098122Y4311449D01*
X5098074Y4311440D01*
X5094795Y4309249D01*
X5091526Y4307087D01*
X5002993Y4219378D01*
X5000799Y4216127D01*
X4998579Y4212871D01*
X4998569Y4212823D01*
X4998542Y4212783D01*
X4997754Y4208916D01*
X4996954Y4205082D01*
X4991289Y3599110D01*
X4991308Y3599015D01*
X4991288Y3598919D01*
X4992047Y3595104D01*
X4992769Y3591292D01*
X4992822Y3591211D01*
X4992841Y3591116D01*
X4994994Y3587893D01*
X4997127Y3584635D01*
X4997207Y3584581D01*
X4997261Y3584500D01*
X5534043Y3047718D01*
X5540658Y3043298D01*
X5548462Y3041746D01*
X6098816D01*
X6373681Y2766881D01*
X6380296Y2762460D01*
X6388100Y2760908D01*
X7483444D01*
X8111718Y2132634D01*
X8118334Y2128213D01*
X8126138Y2126661D01*
X11938752D01*
X11938753Y2126661D01*
X11946556Y2128213D01*
X11953172Y2132634D01*
X11953173Y2132634D01*
X12775375Y2954836D01*
X14062328D01*
X14070132Y2956388D01*
X14076747Y2960809D01*
X14448347Y3332408D01*
X15274806D01*
X15274808Y3332408D01*
X15282611Y3333960D01*
X15289226Y3338381D01*
X15905554Y3954708D01*
X17608296D01*
X17616100Y3956260D01*
X17622716Y3960681D01*
X17832520Y4170485D01*
X17836940Y4177100D01*
X17838492Y4184904D01*
Y5346698D01*
X17838492Y5346700D01*
X17836940Y5354503D01*
X17832520Y5361119D01*
X17832520Y5361120D01*
X17667419Y5526219D01*
X17660805Y5530640D01*
X17653000Y5532192D01*
X16065501D01*
X16065500Y5532192D01*
X16057697Y5530640D01*
X16051080Y5526219D01*
X16051080Y5526219D01*
X15829359Y5304499D01*
X15824940Y5297883D01*
X15823387Y5290079D01*
Y4485726D01*
X15188026Y3850365D01*
X14445642Y3850365D01*
X14437839Y3848813D01*
X14431223Y3844393D01*
X14431223Y3844392D01*
X14016122Y3429292D01*
X12713144D01*
X12713143Y3429293D01*
X12705339Y3427740D01*
X12698724Y3423320D01*
X11878330Y2602927D01*
X8106611D01*
X7570919Y3138619D01*
X7564304Y3143040D01*
X7556500Y3144592D01*
X6514247D01*
X6446592Y3212246D01*
Y3477358D01*
X6458902Y3478300D01*
X6459292Y3478300D01*
X6563902D01*
Y3502109D01*
X6819900D01*
X6835663Y3505244D01*
X6849027Y3514173D01*
X6890363Y3555510D01*
X7323899D01*
Y3482452D01*
X7210038Y3368591D01*
X6592800D01*
Y3397400D01*
X6462800D01*
Y3257400D01*
X6592800D01*
Y3286209D01*
X7227100D01*
X7242863Y3289344D01*
X7256227Y3298273D01*
X7382152Y3424199D01*
X7508899D01*
Y3489203D01*
Y3554201D01*
Y3619200D01*
Y3684198D01*
Y3749202D01*
Y3832175D01*
X7511840Y3836577D01*
X7513392Y3844380D01*
X7513391Y3937000D01*
X7511839Y3944804D01*
X7508899Y3949205D01*
Y4009202D01*
Y4094201D01*
X7323899D01*
Y3974917D01*
X7312165Y3970057D01*
X7297492Y3984731D01*
Y5207000D01*
X7295940Y5214804D01*
X7291519Y5221419D01*
X7291519Y5221420D01*
X7189919Y5323019D01*
X7183304Y5327440D01*
X7175500Y5328992D01*
X6864268D01*
X6855963Y5336717D01*
X6855439Y5343067D01*
X6855980Y5343609D01*
X6985000D01*
X7000763Y5346744D01*
X7014127Y5355673D01*
X7052227Y5393773D01*
X7061156Y5407137D01*
X7064291Y5422900D01*
Y5506900D01*
X7061156Y5522663D01*
X7052227Y5536027D01*
X4949250Y7639003D01*
X4935887Y7647932D01*
X4920124Y7651068D01*
X4357886D01*
X2401192Y9607762D01*
Y9962938D01*
X2747562Y10309309D01*
X2811200D01*
Y10263000D01*
X3311200D01*
Y10438000D01*
D02*
G37*
G36*
X14491270Y9774298D02*
X14464729D01*
X14439093Y9767429D01*
X14416109Y9754159D01*
X14397340Y9735391D01*
X14384070Y9712406D01*
X14377200Y9686769D01*
Y9660228D01*
X14384070Y9634591D01*
X14397340Y9611606D01*
X14416109Y9592839D01*
X14439093Y9579568D01*
X14464729Y9572699D01*
X14491270D01*
X14516907Y9579568D01*
X14539893Y9592839D01*
X14558659Y9611606D01*
X14571930Y9634591D01*
X14578799Y9660228D01*
Y9686769D01*
X14571930Y9712406D01*
X14558659Y9735391D01*
X14539893Y9754159D01*
X14516907Y9767429D01*
X14491270Y9774298D01*
D02*
G37*
G36*
X5766370D02*
X5739830D01*
X5714193Y9767429D01*
X5691208Y9754159D01*
X5672440Y9735391D01*
X5659170Y9712406D01*
X5652300Y9686769D01*
Y9660228D01*
X5659170Y9634591D01*
X5672440Y9611606D01*
X5691208Y9592839D01*
X5714193Y9579568D01*
X5739830Y9572699D01*
X5766370D01*
X5792007Y9579568D01*
X5814992Y9592839D01*
X5833760Y9611606D01*
X5847030Y9634591D01*
X5853900Y9660228D01*
Y9686769D01*
X5847030Y9712406D01*
X5833760Y9735391D01*
X5814992Y9754159D01*
X5792007Y9767429D01*
X5766370Y9774298D01*
D02*
G37*
G36*
X14491270Y9426501D02*
X14464729D01*
X14439093Y9419632D01*
X14416109Y9406361D01*
X14397340Y9387594D01*
X14384070Y9364609D01*
X14377200Y9338972D01*
Y9312431D01*
X14384070Y9286794D01*
X14397340Y9263809D01*
X14416109Y9245041D01*
X14439093Y9231771D01*
X14464729Y9224902D01*
X14491270D01*
X14516907Y9231771D01*
X14539893Y9245041D01*
X14558659Y9263809D01*
X14571930Y9286794D01*
X14578799Y9312431D01*
Y9338972D01*
X14571930Y9364609D01*
X14558659Y9387594D01*
X14539893Y9406361D01*
X14516907Y9419632D01*
X14491270Y9426501D01*
D02*
G37*
G36*
X5766368Y9426498D02*
X5739827D01*
X5714191Y9419629D01*
X5691206Y9406358D01*
X5672438Y9387591D01*
X5659167Y9364606D01*
X5652298Y9338969D01*
Y9312428D01*
X5659167Y9286791D01*
X5672438Y9263806D01*
X5691206Y9245038D01*
X5714191Y9231768D01*
X5739827Y9224898D01*
X5766368D01*
X5792005Y9231768D01*
X5814990Y9245038D01*
X5833758Y9263806D01*
X5847028Y9286791D01*
X5853898Y9312428D01*
Y9338969D01*
X5847028Y9364606D01*
X5833758Y9387591D01*
X5814990Y9406358D01*
X5792005Y9419629D01*
X5766368Y9426498D01*
D02*
G37*
G36*
X2429743Y9326700D02*
X2396257D01*
X2363413Y9320167D01*
X2332475Y9307352D01*
X2304631Y9288747D01*
X2280953Y9265069D01*
X2262348Y9237225D01*
X2249533Y9206287D01*
X2243000Y9173443D01*
Y9139957D01*
X2249533Y9107113D01*
X2251387Y9102638D01*
X1965524Y8816776D01*
X1953438Y8801025D01*
X1945841Y8782683D01*
X1943249Y8763000D01*
Y8146400D01*
X1899300D01*
Y7906400D01*
X2066628D01*
X2348913Y7624115D01*
Y7404100D01*
X2352824Y7384435D01*
X2363964Y7367764D01*
X2541764Y7189964D01*
X2558435Y7178824D01*
X2578100Y7174913D01*
X3572815D01*
X3811764Y6935964D01*
X3828435Y6924824D01*
X3848100Y6920913D01*
X4335027D01*
X4356786Y6911900D01*
X4380814D01*
X4390582Y6915946D01*
X4549914Y6756613D01*
Y6280553D01*
X4487353Y6217992D01*
X3771900D01*
X3764096Y6216440D01*
X3762991Y6215701D01*
X3762700D01*
Y6215507D01*
X3757481Y6212019D01*
X3753060Y6205404D01*
X3751508Y6197600D01*
Y6108700D01*
X3753060Y6100896D01*
X3757481Y6094281D01*
X3762700Y6089061D01*
Y6085702D01*
X3766060D01*
X3795581Y6056181D01*
X3802196Y6051760D01*
X3810000Y6050208D01*
X4851399D01*
X4851400Y6050208D01*
X4859204Y6051760D01*
X4865819Y6056181D01*
X4865820Y6056181D01*
X4878519Y6068881D01*
X4882940Y6075496D01*
X4884492Y6083300D01*
Y6184899D01*
X4884492Y6184900D01*
X4882940Y6192704D01*
X4878519Y6199319D01*
X4878519Y6199320D01*
X4873300Y6204539D01*
Y6215701D01*
X4860309D01*
X4859204Y6216440D01*
X4851400Y6217992D01*
X4720146D01*
X4655891Y6282247D01*
X4655892Y6400798D01*
X4655892Y6400800D01*
X4654339Y6408604D01*
X4652689Y6411074D01*
Y6777899D01*
X4648777Y6797563D01*
X4637638Y6814235D01*
X4443236Y7008636D01*
X4426565Y7019776D01*
X4406900Y7023687D01*
X4402573D01*
X4380814Y7032700D01*
X4356786D01*
X4335027Y7023687D01*
X3869385D01*
X3630436Y7262636D01*
X3613765Y7273776D01*
X3594100Y7277687D01*
X2599385D01*
X2451687Y7425385D01*
Y7645400D01*
X2447776Y7665065D01*
X2436636Y7681736D01*
X2139300Y7979072D01*
Y8146400D01*
X2095351D01*
Y8731499D01*
X2358938Y8995087D01*
X2363413Y8993233D01*
X2396257Y8986700D01*
X2429743D01*
X2462587Y8993233D01*
X2493525Y9006048D01*
X2521369Y9024653D01*
X2545047Y9048331D01*
X2563652Y9076175D01*
X2576467Y9107113D01*
X2583000Y9139957D01*
Y9173443D01*
X2576467Y9206287D01*
X2563652Y9237225D01*
X2545047Y9265069D01*
X2521369Y9288747D01*
X2493525Y9307352D01*
X2462587Y9320167D01*
X2429743Y9326700D01*
D02*
G37*
G36*
X15056110Y11660392D02*
X15048305Y11658840D01*
X15041690Y11654419D01*
X15041689Y11654419D01*
X14793141Y11405870D01*
X14788721Y11399255D01*
X14787167Y11391451D01*
X14787170Y10662439D01*
X14787170Y10662437D01*
X14788722Y10654634D01*
X14793143Y10648018D01*
X14793143Y10648018D01*
X15155881Y10285281D01*
X15162495Y10280860D01*
X15170300Y10279308D01*
X15701453Y10279308D01*
X15787888Y10192874D01*
X15787888Y9363122D01*
X15787888Y9363120D01*
X15789439Y9355317D01*
X15793860Y9348701D01*
X15793861Y9348701D01*
X16152679Y8989880D01*
X16159296Y8985460D01*
X16167099Y8983908D01*
X16548099Y8983908D01*
X16548100Y8983908D01*
X16555904Y8985460D01*
X16562518Y8989881D01*
X16562520Y8989881D01*
X16892719Y9320080D01*
X16897141Y9326696D01*
X16898692Y9334499D01*
X16898692Y10460017D01*
X16898692Y10460019D01*
X16897139Y10467822D01*
X16892719Y10474438D01*
X16892719Y10474439D01*
X16834900Y10532257D01*
Y10631100D01*
X16736057D01*
X15712740Y11654419D01*
X15706123Y11658840D01*
X15698320Y11660392D01*
X15056110D01*
X15056110Y11660392D01*
D02*
G37*
G36*
X4734214Y10736306D02*
X4726410Y10734753D01*
X4719794Y10730333D01*
X4615863Y10626402D01*
X4600202D01*
Y10320602D01*
X4625239D01*
X4627696Y10318960D01*
X4635500Y10317408D01*
X4830253D01*
X4932608Y10215053D01*
Y9701445D01*
X4191114Y8959956D01*
X3834166D01*
X3834164Y8959957D01*
X3826361Y8958404D01*
X3819745Y8953984D01*
X3819744Y8953983D01*
X3613211Y8747449D01*
X3608790Y8740833D01*
X3607238Y8733030D01*
Y8475471D01*
X3607238Y8475469D01*
X3608790Y8467666D01*
X3613211Y8461050D01*
X4341681Y7732581D01*
X4348296Y7728160D01*
X4356100Y7726608D01*
X4957253D01*
X5879347Y6804514D01*
X5885963Y6800093D01*
X5893766Y6798541D01*
X5901570Y6800093D01*
X5901571Y6800094D01*
X5913303Y6804953D01*
X5913303Y6804954D01*
X5919919Y6809374D01*
X5924340Y6815990D01*
X5925892Y6823793D01*
X5925892Y7518400D01*
X5924340Y7526204D01*
X5919919Y7532819D01*
X5919919Y7532820D01*
X5183319Y8269419D01*
X5176704Y8273840D01*
X5168900Y8275392D01*
X4631247D01*
X4566992Y8339647D01*
Y8652953D01*
X4611819Y8697781D01*
X4720147Y8806108D01*
X5010783D01*
X5010784Y8806108D01*
X5010785Y8806108D01*
X5150231D01*
X5158035Y8807660D01*
X5164650Y8812081D01*
X5164651Y8812081D01*
X5574419Y9221849D01*
X5578840Y9228465D01*
X5580392Y9236269D01*
Y10240000D01*
X5578840Y10247803D01*
X5574419Y10254419D01*
X5098506Y10730333D01*
X5091890Y10734753D01*
X5084086Y10736305D01*
X4734215D01*
X4734214Y10736306D01*
D02*
G37*
G36*
X5766368Y8326500D02*
X5739827D01*
X5714191Y8319631D01*
X5691206Y8306361D01*
X5672438Y8287593D01*
X5659167Y8264608D01*
X5652298Y8238971D01*
Y8212430D01*
X5659167Y8186793D01*
X5672438Y8163808D01*
X5691206Y8145041D01*
X5714191Y8131770D01*
X5739827Y8124901D01*
X5766368D01*
X5792005Y8131770D01*
X5814990Y8145041D01*
X5833758Y8163808D01*
X5847028Y8186793D01*
X5853898Y8212430D01*
Y8238971D01*
X5847028Y8264608D01*
X5833758Y8287593D01*
X5814990Y8306361D01*
X5792005Y8319631D01*
X5766368Y8326500D01*
D02*
G37*
G36*
X14491270Y8326498D02*
X14464729D01*
X14439093Y8319629D01*
X14416109Y8306359D01*
X14397340Y8287591D01*
X14384070Y8264606D01*
X14377200Y8238969D01*
Y8212428D01*
X14384070Y8186791D01*
X14397340Y8163806D01*
X14416109Y8145039D01*
X14439093Y8131768D01*
X14464729Y8124899D01*
X14491270D01*
X14516907Y8131768D01*
X14539893Y8145039D01*
X14558659Y8163806D01*
X14571930Y8186791D01*
X14578799Y8212428D01*
Y8238969D01*
X14571930Y8264606D01*
X14558659Y8287591D01*
X14539893Y8306359D01*
X14516907Y8319629D01*
X14491270Y8326498D01*
D02*
G37*
G36*
X17288300Y8565900D02*
X17103300D01*
Y8375900D01*
X17154610D01*
Y7921462D01*
X16973946Y7740800D01*
X16902200D01*
Y7600800D01*
X17032201D01*
Y7682546D01*
X17224927Y7875273D01*
X17233856Y7888637D01*
X17236990Y7904400D01*
Y8375900D01*
X17288300D01*
Y8565900D01*
D02*
G37*
G36*
X2939400Y7033601D02*
X2699400D01*
Y6793601D01*
X2939400D01*
Y6872409D01*
X3069337D01*
X3621188Y6320558D01*
X3612825Y6308041D01*
X3609689Y6292278D01*
Y6082120D01*
X3612825Y6066357D01*
X3621754Y6052993D01*
X3733890Y5940858D01*
X3747253Y5931928D01*
X3763016Y5928793D01*
X5417554D01*
X5635709Y5710639D01*
Y5524500D01*
X5638844Y5508737D01*
X5647773Y5495373D01*
X6041473Y5101673D01*
X6054837Y5092744D01*
X6070600Y5089609D01*
X6107000D01*
Y5078300D01*
X6292000D01*
Y5183300D01*
X6107000D01*
Y5171991D01*
X6087662D01*
X5718091Y5541562D01*
Y5727701D01*
X5714956Y5743464D01*
X5706027Y5756827D01*
X5463743Y5999111D01*
X5450379Y6008040D01*
X5434616Y6011176D01*
X3780078D01*
X3692072Y6099182D01*
Y6275216D01*
X3696363Y6279507D01*
X3762700D01*
Y6255699D01*
X3882700D01*
Y6279507D01*
X3901349D01*
X3917112Y6282643D01*
X3930475Y6291572D01*
X4088284Y6449380D01*
X4199570D01*
Y6654480D01*
X4030030D01*
Y6507634D01*
X3895400Y6373004D01*
X3882700Y6378264D01*
Y6385698D01*
X3762700D01*
Y6361890D01*
X3696363D01*
X3115526Y6942727D01*
X3102162Y6951656D01*
X3086399Y6954792D01*
X2939400D01*
Y7033601D01*
D02*
G37*
G36*
X13870433Y6181925D02*
X13862630Y6180373D01*
X13856013Y6175952D01*
X13752380Y6072319D01*
X13635580Y5955519D01*
X13631160Y5948904D01*
X13629608Y5941100D01*
Y5350000D01*
X13631160Y5342197D01*
X13635580Y5335581D01*
X13635580Y5335580D01*
X13795581Y5175581D01*
X13802196Y5171160D01*
X13810001Y5169608D01*
X14050000D01*
X14057803Y5171160D01*
X14064420Y5175581D01*
X14064420Y5175581D01*
X14154419Y5265581D01*
X14158839Y5272196D01*
X14160393Y5280000D01*
X14160391Y5431553D01*
X14499648Y5770808D01*
X14846300D01*
X14846300Y5770808D01*
X14854105Y5772360D01*
X14860719Y5776781D01*
X14936919Y5852980D01*
X14941339Y5859596D01*
X14942891Y5867399D01*
X14942892Y6083299D01*
X14941341Y6091103D01*
X14936919Y6097719D01*
X14936919Y6097719D01*
X14858687Y6175952D01*
X14858687Y6175952D01*
X14852071Y6180373D01*
X14844267Y6181925D01*
X13870435D01*
X13870433Y6181925D01*
D02*
G37*
G36*
X17643198Y5739702D02*
X17308199D01*
Y5599702D01*
X17643198D01*
Y5739702D01*
D02*
G37*
G36*
X14848203D02*
X14513202D01*
Y5599702D01*
X14848203D01*
Y5739702D01*
D02*
G37*
G36*
X6847000Y5564300D02*
X6662000D01*
Y5459300D01*
X6847000D01*
Y5564300D01*
D02*
G37*
G36*
X6292000D02*
X6107000D01*
Y5459300D01*
X6292000D01*
Y5564300D01*
D02*
G37*
G36*
X2939400Y8598799D02*
X2699400D01*
Y8358799D01*
X2881147D01*
X3458573Y7781373D01*
X3471936Y7772444D01*
X3487699Y7769309D01*
X3919938D01*
X5081193Y6608053D01*
X5084130Y6606091D01*
Y6520333D01*
X4925687Y6361890D01*
X4873300D01*
Y6385698D01*
X4753300D01*
Y6255699D01*
X4873300D01*
Y6279507D01*
X4942749D01*
X4958512Y6282643D01*
X4971875Y6291572D01*
X5142383Y6462080D01*
X5182479D01*
Y6447630D01*
X5185614Y6431867D01*
X5194543Y6418503D01*
X5838909Y5774138D01*
Y5537200D01*
X5842044Y5521437D01*
X5850973Y5508073D01*
X6003373Y5355673D01*
X6016737Y5346744D01*
X6032500Y5343609D01*
X6107000D01*
Y5332300D01*
X6292000D01*
Y5437300D01*
X6107000D01*
Y5425991D01*
X6049562D01*
X5921291Y5554262D01*
Y5791200D01*
X5918156Y5806963D01*
X5909227Y5820327D01*
X5264861Y6464692D01*
Y6509860D01*
X5261726Y6525623D01*
X5253670Y6537680D01*
Y6667180D01*
X5141950D01*
X5131775Y6673979D01*
X3966127Y7839627D01*
X3952763Y7848556D01*
X3937000Y7851691D01*
X3504761D01*
X2939400Y8417053D01*
Y8598799D01*
D02*
G37*
G36*
X4199570Y5742620D02*
X4030030D01*
Y5537520D01*
X4073609D01*
Y5479201D01*
X4042300D01*
Y5356900D01*
X4042300Y5349201D01*
X4042300Y5336501D01*
Y5214200D01*
X4187300D01*
Y5229309D01*
X4492664D01*
X4493986Y5227019D01*
X4507019Y5213986D01*
X4522981Y5204770D01*
X4540784Y5200000D01*
X4559216D01*
X4577019Y5204770D01*
X4592981Y5213986D01*
X4606014Y5227019D01*
X4607336Y5229309D01*
X4794473D01*
X4804486Y5219295D01*
X4826686Y5210100D01*
X4850714D01*
X4872914Y5219295D01*
X4889905Y5236286D01*
X4899100Y5258486D01*
Y5282514D01*
X4889905Y5304714D01*
X4872914Y5321705D01*
X4850714Y5330900D01*
X4826686D01*
X4804486Y5321705D01*
X4794473Y5311691D01*
X4606758D01*
X4606014Y5312981D01*
X4592981Y5326014D01*
X4577019Y5335229D01*
X4559216Y5340000D01*
X4540784D01*
X4522981Y5335229D01*
X4507019Y5326014D01*
X4493986Y5312981D01*
X4493242Y5311691D01*
X4196280D01*
X4187300Y5320672D01*
X4187300Y5344200D01*
X4187300Y5356900D01*
Y5479201D01*
X4155991D01*
Y5537520D01*
X4199570D01*
Y5567392D01*
X4203656Y5573507D01*
X4206791Y5589270D01*
X4203656Y5605033D01*
X4199570Y5611148D01*
Y5742620D01*
D02*
G37*
G36*
X5253670Y5755320D02*
X5084130D01*
Y5550220D01*
X5127709D01*
Y5479196D01*
X5096400D01*
Y5356900D01*
X5096400Y5349196D01*
X5096400Y5336496D01*
Y5214200D01*
X5127709D01*
Y5181191D01*
X5037047D01*
X5036014Y5182981D01*
X5022981Y5196014D01*
X5007019Y5205229D01*
X4989216Y5210000D01*
X4970784D01*
X4952981Y5205229D01*
X4937019Y5196014D01*
X4923986Y5182981D01*
X4914770Y5167019D01*
X4910000Y5149216D01*
Y5130784D01*
X4914770Y5112981D01*
X4923986Y5097019D01*
X4937019Y5083986D01*
X4952981Y5074770D01*
X4970784Y5070000D01*
X4989216D01*
X5007019Y5074770D01*
X5022981Y5083986D01*
X5036014Y5097019D01*
X5037047Y5098808D01*
X5111096D01*
X5116575Y5086108D01*
X5108500Y5066614D01*
Y5042586D01*
X5117695Y5020386D01*
X5134686Y5003395D01*
X5156886Y4994200D01*
X5180914D01*
X5203114Y5003395D01*
X5220105Y5020386D01*
X5229300Y5042586D01*
Y5066614D01*
X5220105Y5088814D01*
X5210091Y5098827D01*
Y5214200D01*
X5241400D01*
Y5336496D01*
X5241400Y5344200D01*
X5241400Y5356900D01*
Y5479196D01*
X5210091D01*
Y5550220D01*
X5253670D01*
Y5755320D01*
D02*
G37*
G36*
X14510281Y5488273D02*
X14502477Y5486721D01*
X14495862Y5482300D01*
X14349281Y5335719D01*
X14344859Y5329104D01*
X14343307Y5321300D01*
Y5067904D01*
X14159895Y4884492D01*
X10490201D01*
X10490200Y4884492D01*
X10482396Y4882940D01*
X10475781Y4878519D01*
X10475780Y4878519D01*
X9008553Y3411292D01*
X8788400D01*
X8780596Y3409740D01*
X8773981Y3405319D01*
X8773980Y3405319D01*
X8748581Y3379919D01*
X8744160Y3373304D01*
X8743683Y3370903D01*
X8732600Y3367000D01*
X8729900Y3367000D01*
X8627599D01*
Y3343191D01*
X8489112D01*
X8271474Y3560829D01*
X8258110Y3569758D01*
X8242347Y3572894D01*
X8093901D01*
Y3574202D01*
X7908901D01*
Y3489203D01*
Y3424199D01*
X8035648D01*
X8453673Y3006173D01*
X8467037Y2997244D01*
X8482800Y2994109D01*
X8625302D01*
Y2970300D01*
X8730302D01*
Y2981271D01*
X8743002Y2982522D01*
X8744160Y2976696D01*
X8748581Y2970081D01*
X8899708Y2818954D01*
X8906323Y2814533D01*
X8914127Y2812981D01*
X11077587D01*
X11085391Y2814533D01*
X11092007Y2818954D01*
X11092007Y2818954D01*
X12049961Y3776908D01*
X13792200D01*
X13792200Y3776908D01*
X13800005Y3778460D01*
X13806619Y3782881D01*
X13806619Y3782881D01*
X14100916Y4077177D01*
X14847568D01*
X14855373Y4078729D01*
X14861987Y4083149D01*
X14861987Y4083150D01*
X15224419Y4445581D01*
X15228841Y4452196D01*
X15230392Y4460000D01*
Y5163219D01*
X15228841Y5171023D01*
X15224419Y5177638D01*
X14919757Y5482300D01*
X14913141Y5486721D01*
X14905338Y5488273D01*
X14510281Y5488273D01*
X14510281Y5488273D01*
D02*
G37*
G36*
X17419901Y9930000D02*
X16919901D01*
Y9755000D01*
X17419901D01*
Y9801309D01*
X17483537D01*
X17573709Y9711138D01*
Y7764062D01*
X16137338Y6327691D01*
X13842999D01*
X13827237Y6324556D01*
X13813873Y6315627D01*
X13203638Y5705391D01*
X12801601D01*
X12785837Y5702256D01*
X12772473Y5693327D01*
X12213038Y5133891D01*
X9931400D01*
X9915637Y5130756D01*
X9902273Y5121827D01*
X9450947Y4670500D01*
X9436786D01*
X9414586Y4661305D01*
X9397595Y4644314D01*
X9388400Y4622114D01*
Y4598086D01*
X9397595Y4575886D01*
X9414586Y4558895D01*
X9436786Y4549700D01*
X9460814D01*
X9483014Y4558895D01*
X9500005Y4575886D01*
X9509200Y4598086D01*
Y4612247D01*
X9948462Y5051509D01*
X12230100D01*
X12245863Y5054644D01*
X12259227Y5063573D01*
X12818661Y5623009D01*
X13220700D01*
X13236462Y5626144D01*
X13249828Y5635073D01*
X13860062Y6245309D01*
X16154401D01*
X16170163Y6248444D01*
X16183527Y6257373D01*
X17644028Y7717873D01*
X17652956Y7731237D01*
X17656091Y7747000D01*
Y9728200D01*
X17652956Y9743963D01*
X17644028Y9757327D01*
X17529727Y9871627D01*
X17516364Y9880556D01*
X17500600Y9883691D01*
X17419901D01*
Y9930000D01*
D02*
G37*
G36*
X2139300Y7546401D02*
X1899300D01*
Y7306401D01*
X1990809D01*
Y7023100D01*
X1993944Y7007337D01*
X2002873Y6993973D01*
X2295973Y6700873D01*
X2309337Y6691944D01*
X2325100Y6688809D01*
X2962938D01*
X3498809Y6152938D01*
Y5248400D01*
X3501944Y5232637D01*
X3510873Y5219273D01*
X4187273Y4542873D01*
X4200637Y4533944D01*
X4216400Y4530809D01*
X6470873D01*
X6480886Y4520795D01*
X6503086Y4511600D01*
X6527114D01*
X6549314Y4520795D01*
X6566305Y4537786D01*
X6575500Y4559986D01*
Y4584014D01*
X6566305Y4606214D01*
X6549314Y4623205D01*
X6527114Y4632400D01*
X6503086D01*
X6480886Y4623205D01*
X6470873Y4613191D01*
X4233462D01*
X3581191Y5265462D01*
Y6170000D01*
X3578056Y6185763D01*
X3569127Y6199127D01*
X3009127Y6759127D01*
X2995763Y6768056D01*
X2980000Y6771191D01*
X2342162D01*
X2073191Y7040162D01*
Y7306401D01*
X2139300D01*
Y7546401D01*
D02*
G37*
G36*
X7581900Y12969791D02*
X6969298D01*
X6953534Y12966656D01*
X6940171Y12957727D01*
X6643407Y12660962D01*
X6638672Y12663696D01*
X6608050Y12671901D01*
X6576348D01*
X6545727Y12663696D01*
X6518272Y12647845D01*
X6495855Y12625429D01*
X6480005Y12597974D01*
X6471799Y12567352D01*
Y12535651D01*
X6480005Y12505029D01*
X6495855Y12477574D01*
X6518272Y12455158D01*
X6545727Y12439307D01*
X6576348Y12431102D01*
X6608050D01*
X6638672Y12439307D01*
X6666126Y12455158D01*
X6688543Y12477574D01*
X6704394Y12505029D01*
X6712599Y12535651D01*
Y12567352D01*
X6704394Y12597974D01*
X6701660Y12602709D01*
X6986360Y12887408D01*
X7564838D01*
X7678809Y12773438D01*
Y11787062D01*
X7312938Y11421192D01*
X6600000D01*
X6584237Y11418056D01*
X6570873Y11409127D01*
X6200873Y11039127D01*
X6191944Y11025763D01*
X6188809Y11010000D01*
Y6673200D01*
X6191944Y6657437D01*
X6200873Y6644073D01*
X7946473Y4898473D01*
X7959837Y4889544D01*
X7975600Y4886409D01*
X8568138D01*
X8740610Y4713937D01*
Y4536302D01*
X8731801D01*
Y4421302D01*
X8831801D01*
Y4536302D01*
X8822993D01*
Y4730999D01*
X8819857Y4746762D01*
X8810928Y4760126D01*
X8614327Y4956727D01*
X8600963Y4965656D01*
X8585200Y4968791D01*
X7992662D01*
X6271191Y6690262D01*
Y10992938D01*
X6617062Y11338809D01*
X7330000D01*
X7345763Y11341944D01*
X7359127Y11350873D01*
X7749127Y11740873D01*
X7758056Y11754237D01*
X7761191Y11770000D01*
Y12790500D01*
X7758056Y12806264D01*
X7749127Y12819627D01*
X7611027Y12957727D01*
X7597663Y12966656D01*
X7581900Y12969791D01*
D02*
G37*
G36*
X8641799Y4536302D02*
X8541799D01*
Y4421302D01*
X8641799D01*
Y4536302D01*
D02*
G37*
G36*
X7028049Y12671901D02*
X6996347D01*
X6965726Y12663696D01*
X6938271Y12647845D01*
X6915855Y12625429D01*
X6900004Y12597974D01*
X6891799Y12567352D01*
Y12535651D01*
X6900004Y12505029D01*
X6915855Y12477574D01*
X6938271Y12455158D01*
X6965726Y12439307D01*
X6996347Y12431102D01*
X7028049D01*
X7030017Y12431629D01*
X7401009Y12060638D01*
Y11802662D01*
X7259538Y11661191D01*
X6650000D01*
X6634237Y11658056D01*
X6620873Y11649127D01*
X6100873Y11129127D01*
X6091944Y11115763D01*
X6088808Y11100000D01*
Y6582700D01*
X6091944Y6566937D01*
X6100873Y6553573D01*
X7312109Y5342338D01*
Y4406900D01*
X7315244Y4391137D01*
X7324173Y4377773D01*
X7463873Y4238073D01*
X7477237Y4229144D01*
X7493000Y4226009D01*
X7804373D01*
X7814386Y4215995D01*
X7836586Y4206800D01*
X7860614D01*
X7882814Y4215995D01*
X7899805Y4232986D01*
X7909000Y4255186D01*
Y4279214D01*
X7899805Y4301414D01*
X7882814Y4318405D01*
X7860614Y4327600D01*
X7836586D01*
X7814386Y4318405D01*
X7804373Y4308391D01*
X7510062D01*
X7394491Y4423962D01*
Y5359400D01*
X7391356Y5375163D01*
X7382427Y5388527D01*
X6171191Y6599762D01*
Y11082938D01*
X6667062Y11578808D01*
X7276600D01*
X7292363Y11581944D01*
X7305727Y11590873D01*
X7471327Y11756473D01*
X7480256Y11769837D01*
X7483391Y11785600D01*
Y12077700D01*
X7480256Y12093463D01*
X7471327Y12106827D01*
X7104561Y12473593D01*
X7108542Y12477574D01*
X7124393Y12505029D01*
X7132598Y12535651D01*
Y12567352D01*
X7124393Y12597974D01*
X7108542Y12625429D01*
X7086126Y12647845D01*
X7058671Y12663696D01*
X7028049Y12671901D01*
D02*
G37*
G36*
X5999216Y4170000D02*
X5980784D01*
X5962981Y4165229D01*
X5947019Y4156014D01*
X5934297Y4143291D01*
X5841151D01*
Y4154600D01*
X5648651D01*
Y4049600D01*
X5841151D01*
Y4060909D01*
X5931740D01*
X5933986Y4057019D01*
X5947019Y4043986D01*
X5962981Y4034770D01*
X5980784Y4030000D01*
X5999216D01*
X6017019Y4034770D01*
X6032981Y4043986D01*
X6046014Y4057019D01*
X6048259Y4060909D01*
X6298336D01*
X6339298Y4019947D01*
Y3948200D01*
X6444298D01*
Y4078200D01*
X6397552D01*
X6344525Y4131227D01*
X6331162Y4140156D01*
X6315398Y4143291D01*
X6045703D01*
X6032981Y4156014D01*
X6017019Y4165229D01*
X5999216Y4170000D01*
D02*
G37*
G36*
X7581214Y4619700D02*
X7557186D01*
X7534986Y4610505D01*
X7517995Y4593514D01*
X7508800Y4571314D01*
Y4547286D01*
X7517995Y4525086D01*
X7534986Y4508095D01*
X7557186Y4498900D01*
X7581214D01*
X7603414Y4508095D01*
X7613427Y4518109D01*
X7869638D01*
X8158076Y4229671D01*
X8171439Y4220742D01*
X8187202Y4217606D01*
X8636800D01*
Y4201298D01*
X8645609D01*
Y4083200D01*
X8618000D01*
Y4054391D01*
X8545398D01*
X8540064Y4063631D01*
X8527031Y4076664D01*
X8511069Y4085880D01*
X8493266Y4090650D01*
X8474834D01*
X8457031Y4085880D01*
X8441069Y4076664D01*
X8428036Y4063631D01*
X8422702Y4054391D01*
X8398152D01*
X8382388Y4051256D01*
X8369025Y4042327D01*
X8289589Y3962890D01*
X8093901D01*
Y3964199D01*
X7908901D01*
Y3879199D01*
Y3814201D01*
Y3749202D01*
X8093901D01*
Y3815509D01*
X8284050D01*
Y3811435D01*
X8288821Y3793631D01*
X8298036Y3777669D01*
X8311069Y3764636D01*
X8327031Y3755421D01*
X8344834Y3750650D01*
X8363266D01*
X8366782Y3751592D01*
X8374337Y3746544D01*
X8390100Y3743409D01*
X8452073D01*
X8462086Y3733395D01*
X8484286Y3724200D01*
X8508314D01*
X8530514Y3733395D01*
X8540527Y3743409D01*
X8621298D01*
Y3715600D01*
X8739297D01*
Y3853600D01*
X8621298D01*
Y3825791D01*
X8540527D01*
X8530514Y3835805D01*
X8508314Y3845000D01*
X8484286D01*
X8462086Y3835805D01*
X8452073Y3825791D01*
X8424050D01*
Y3829866D01*
X8419280Y3847669D01*
X8410064Y3863631D01*
X8397031Y3876664D01*
X8381069Y3885880D01*
X8363266Y3890650D01*
X8351816D01*
X8346555Y3903350D01*
X8415214Y3972009D01*
X8433697D01*
X8441069Y3964636D01*
X8457031Y3955421D01*
X8474834Y3950650D01*
X8493266D01*
X8511069Y3955421D01*
X8527031Y3964636D01*
X8534403Y3972009D01*
X8618000D01*
Y3943200D01*
X8748000D01*
Y4083200D01*
X8727991D01*
Y4201298D01*
X8736800D01*
Y4316298D01*
X8636800D01*
Y4299989D01*
X8204264D01*
X7915827Y4588427D01*
X7902463Y4597356D01*
X7886700Y4600491D01*
X7613427D01*
X7603414Y4610505D01*
X7581214Y4619700D01*
D02*
G37*
G36*
X8093901Y4094201D02*
X7908901D01*
Y4009202D01*
X8093901D01*
Y4094201D01*
D02*
G37*
G36*
X9277215Y4022800D02*
X9253186D01*
X9230987Y4013605D01*
X9213996Y3996614D01*
X9204800Y3974414D01*
Y3960253D01*
X8890947Y3646400D01*
X8846900D01*
X8844200Y3646400D01*
X8834200D01*
X8831500Y3646400D01*
X8729199D01*
Y3622591D01*
X8414413D01*
X8346178Y3690826D01*
X8332814Y3699755D01*
X8317051Y3702891D01*
X8093901D01*
Y3704199D01*
X7908901D01*
Y3619200D01*
X8093901D01*
Y3620508D01*
X8299989D01*
X8368224Y3552273D01*
X8381588Y3543344D01*
X8397351Y3540209D01*
X8729199D01*
Y3516400D01*
X8831500D01*
X8834200Y3516400D01*
X8844200D01*
X8846900Y3516400D01*
X8949201D01*
Y3588147D01*
X9263054Y3902000D01*
X9277215D01*
X9299414Y3911195D01*
X9316405Y3928186D01*
X9325600Y3950386D01*
Y3974414D01*
X9316405Y3996614D01*
X9299414Y4013605D01*
X9277215Y4022800D01*
D02*
G37*
G36*
X17031245Y3434399D02*
X16992754D01*
X16955003Y3426890D01*
X16919443Y3412160D01*
X16887439Y3390776D01*
X16860223Y3363559D01*
X16838838Y3331555D01*
X16824109Y3295995D01*
X16816600Y3258244D01*
Y3219754D01*
X16824109Y3182003D01*
X16838838Y3146442D01*
X16860223Y3114439D01*
X16887439Y3087222D01*
X16919443Y3065838D01*
X16955003Y3051108D01*
X16992754Y3043599D01*
X17031245D01*
X17068996Y3051108D01*
X17104556Y3065838D01*
X17136560Y3087222D01*
X17163776Y3114439D01*
X17185161Y3146442D01*
X17199890Y3182003D01*
X17207399Y3219754D01*
Y3258244D01*
X17199890Y3295995D01*
X17185161Y3331555D01*
X17163776Y3363559D01*
X17136560Y3390776D01*
X17104556Y3412160D01*
X17068996Y3426890D01*
X17031245Y3434399D01*
D02*
G37*
G36*
X3174839D02*
X3136348D01*
X3098597Y3426890D01*
X3063037Y3412160D01*
X3031033Y3390776D01*
X3003816Y3363559D01*
X2982432Y3331555D01*
X2967703Y3295995D01*
X2960193Y3258244D01*
Y3219754D01*
X2967703Y3182003D01*
X2982432Y3146442D01*
X3003816Y3114439D01*
X3031033Y3087222D01*
X3063037Y3065838D01*
X3098597Y3051108D01*
X3136348Y3043599D01*
X3174839D01*
X3212589Y3051108D01*
X3248150Y3065838D01*
X3280153Y3087222D01*
X3307370Y3114439D01*
X3328755Y3146442D01*
X3343484Y3182003D01*
X3350993Y3219754D01*
Y3258244D01*
X3343484Y3295995D01*
X3328755Y3331555D01*
X3307370Y3363559D01*
X3280153Y3390776D01*
X3248150Y3412160D01*
X3212589Y3426890D01*
X3174839Y3434399D01*
D02*
G37*
%LPD*%
G36*
X4630001Y11540000D02*
X4940000Y11229999D01*
X4940000Y11080000D01*
X4356100Y10496100D01*
Y10287000D01*
X4483100Y10160000D01*
X4787900D01*
X4889500Y10058400D01*
Y9880600D01*
X4826000Y9817100D01*
X4610100D01*
X4368800Y9575800D01*
X4178300D01*
X4102100Y9499600D01*
Y9220200D01*
X4076700Y9194800D01*
X3721100D01*
Y9512300D01*
X3657600Y9575800D01*
X3403600D01*
X3390900Y9588500D01*
Y10642600D01*
X3441700Y10693400D01*
X3623400D01*
X4470000Y11540000D01*
X4630001Y11540000D01*
D02*
G37*
G36*
X7277100Y5207000D02*
Y3976285D01*
X7316384Y3937000D01*
X7492999Y3937000D01*
X7493000Y3844380D01*
X7484020Y3835400D01*
X7085454D01*
X6959600Y3961254D01*
Y5207000D01*
X6692900D01*
X6667500Y5232400D01*
Y5295900D01*
X6680200Y5308600D01*
X7175500D01*
X7277100Y5207000D01*
D02*
G37*
G36*
X17818100Y5346700D02*
Y4184904D01*
X17608296Y3975100D01*
X15897107D01*
X15274808Y3352800D01*
X14439900D01*
X14062328Y2975228D01*
X12766928D01*
X11938753Y2147053D01*
X8126138D01*
X7491891Y2781300D01*
X6388100D01*
X6107262Y3062138D01*
X5548462D01*
X5011680Y3598919D01*
X5017345Y4204891D01*
X5105878Y4292600D01*
X5362482Y4292599D01*
X5448300Y4206780D01*
Y3682704D01*
X5575004Y3556000D01*
X6032500D01*
X6121400Y3644900D01*
X6375400Y3644900D01*
X6426200Y3594100D01*
Y3203800D01*
X6505800Y3124200D01*
X7556500D01*
X8098164Y2582535D01*
X11886777D01*
X12713143Y3408900D01*
X14024570D01*
X14445642Y3829973D01*
X15196474Y3829974D01*
X15843779Y4477279D01*
Y5290079D01*
X16065500Y5511800D01*
X17653000D01*
X17818100Y5346700D01*
D02*
G37*
G36*
X4635500Y6400800D02*
X4635499Y6273800D01*
X4711700Y6197600D01*
X4851400D01*
X4864100Y6184900D01*
Y6083300D01*
X4851400Y6070600D01*
X3810000D01*
X3771900Y6108700D01*
Y6197600D01*
X4495800D01*
X4572000Y6273800D01*
Y6400800D01*
X4584700Y6413500D01*
X4622800D01*
X4635500Y6400800D01*
D02*
G37*
G36*
X16878300Y10460019D02*
X16878300Y9334499D01*
X16548100Y9004300D01*
X16167099Y9004300D01*
X15808279Y9363120D01*
X15808279Y10201321D01*
X15709900Y10299700D01*
X15170300Y10299700D01*
X14807562Y10662437D01*
X14807561Y11391451D01*
X15056110Y11640000D01*
X15698320D01*
X16878300Y10460019D01*
D02*
G37*
G36*
X5560000Y10240000D02*
Y9236269D01*
X5150231Y8826500D01*
X4711700D01*
X4597400Y8712200D01*
X4546600Y8661400D01*
Y8331200D01*
X4622800Y8255000D01*
X5168900D01*
X5905500Y7518400D01*
X5905500Y6823793D01*
X5893766Y6818933D01*
X4965700Y7747000D01*
X4356100D01*
X3627630Y8475469D01*
Y8733030D01*
X3834164Y8939565D01*
X4199561D01*
X4953000Y9692998D01*
Y10223500D01*
X4838700Y10337800D01*
X4635500D01*
X4622800Y10350500D01*
Y10604500D01*
X4734214Y10715914D01*
X5084086D01*
X5560000Y10240000D01*
D02*
G37*
G36*
X14922501Y6083299D02*
X14922499Y5867399D01*
X14846300Y5791200D01*
X14491200D01*
X14139999Y5439999D01*
X14139999Y5280000D01*
X14050000Y5190000D01*
X13810001D01*
X13650000Y5350000D01*
Y5941100D01*
X13766800Y6057900D01*
X13870433Y6161533D01*
X14844267D01*
X14922501Y6083299D01*
D02*
G37*
G36*
X14905338Y5467881D02*
X15210001Y5163219D01*
Y4460000D01*
X14847568Y4097569D01*
X14092468D01*
X13792200Y3797300D01*
X12041514D01*
X11077587Y2833373D01*
X8914127D01*
X8763000Y2984500D01*
Y3365500D01*
X8788400Y3390900D01*
X9017000D01*
X10490200Y4864100D01*
X14168343D01*
X14363699Y5059457D01*
Y5321300D01*
X14510281Y5467881D01*
X14905338Y5467881D01*
D02*
G37*
D10*
X17475697Y5969701D02*
D03*
Y5669702D02*
D03*
Y5369702D02*
D03*
Y5069698D02*
D03*
Y4769698D02*
D03*
Y4469699D02*
D03*
X14680702D02*
D03*
Y4769698D02*
D03*
Y5069698D02*
D03*
Y5369702D02*
D03*
Y5669702D02*
D03*
Y5969701D02*
D03*
D11*
X6754500Y5511800D02*
D03*
Y5384800D02*
D03*
Y5257800D02*
D03*
Y5130800D02*
D03*
X6199500D02*
D03*
Y5257800D02*
D03*
Y5384800D02*
D03*
Y5511800D02*
D03*
D12*
X4114800Y5414201D02*
D03*
Y5279200D02*
D03*
X5168900Y5414196D02*
D03*
Y5279200D02*
D03*
D13*
X17169901Y9842500D02*
D03*
Y10350500D02*
D03*
X3061200Y9842500D02*
D03*
Y10350500D02*
D03*
D14*
X16344901Y10071100D02*
D03*
X3886200Y10121900D02*
D03*
D15*
X16967200Y7670800D02*
D03*
X16807201D02*
D03*
X8683000Y4013200D02*
D03*
X8843000D02*
D03*
X6384300Y3759200D02*
D03*
X6544300D02*
D03*
X6367800Y3327400D02*
D03*
X6527800D02*
D03*
D16*
X4980000Y5140000D02*
D03*
X4550000Y5270000D02*
D03*
X8484050Y4020650D02*
D03*
X8354050Y3820650D02*
D03*
X5990000Y4100000D02*
D03*
D17*
X8775700Y1828800D02*
D03*
X8940000Y5420000D02*
D03*
X4530000Y11160000D02*
D03*
X13930000Y5400000D02*
D03*
X15350000Y11280000D02*
D03*
X10198100Y3454400D02*
D03*
X2413000Y9156700D02*
D03*
D18*
X15951199Y7162800D02*
D03*
X15111200D02*
D03*
D19*
X5168900Y6564630D02*
D03*
X5422900D02*
D03*
Y5652770D02*
D03*
X5168900D02*
D03*
X4114800Y5640070D02*
D03*
X4368800D02*
D03*
Y6551930D02*
D03*
X4114800D02*
D03*
D20*
X8001401Y3466699D02*
D03*
Y3531702D02*
D03*
Y3596701D02*
D03*
Y3661700D02*
D03*
Y3726698D02*
D03*
Y3791702D02*
D03*
Y3856700D02*
D03*
Y3921699D02*
D03*
Y3986698D02*
D03*
Y4051701D02*
D03*
X7416399D02*
D03*
Y3986698D02*
D03*
Y3921699D02*
D03*
Y3856700D02*
D03*
Y3791702D02*
D03*
Y3726698D02*
D03*
Y3661700D02*
D03*
Y3596701D02*
D03*
Y3531702D02*
D03*
Y3466699D02*
D03*
D21*
X7708900Y3759200D02*
D03*
D22*
X16357600Y9156700D02*
D03*
Y8470900D02*
D03*
X14008099Y5981700D02*
D03*
Y6667500D02*
D03*
X3911600Y9321800D02*
D03*
Y8636000D02*
D03*
D23*
X13652499Y3867602D02*
D03*
Y3701598D02*
D03*
X13347701Y3867602D02*
D03*
Y3701598D02*
D03*
X13042900Y3867602D02*
D03*
Y3701598D02*
D03*
X12738100D02*
D03*
Y3867602D02*
D03*
X12433300D02*
D03*
Y3701598D02*
D03*
D24*
X8781801Y4478802D02*
D03*
X8591799D02*
D03*
X8686800Y4258798D02*
D03*
D25*
X8896701Y3581400D02*
D03*
X8781699D02*
D03*
X8795101Y3302000D02*
D03*
X8680099D02*
D03*
X8677802Y3035300D02*
D03*
X8822800D02*
D03*
X6511402Y3543300D02*
D03*
X6366398D02*
D03*
X6536802Y4013200D02*
D03*
X6391798D02*
D03*
D26*
X4813300Y6320699D02*
D03*
Y6150701D02*
D03*
X3822700Y6320699D02*
D03*
Y6150701D02*
D03*
D27*
X2019300Y8026400D02*
D03*
Y7426401D02*
D03*
X2819400Y6913601D02*
D03*
Y7513599D02*
D03*
Y8478799D02*
D03*
Y7878801D02*
D03*
D28*
X5202499Y3721100D02*
D03*
Y3848100D02*
D03*
Y3975100D02*
D03*
Y4102100D02*
D03*
X5744901D02*
D03*
Y3975100D02*
D03*
Y3848100D02*
D03*
Y3721100D02*
D03*
D29*
X17195799Y8470900D02*
D03*
Y8670900D02*
D03*
D30*
X8820302Y3784600D02*
D03*
X8680298D02*
D03*
D31*
X13004800Y5220599D02*
D03*
Y4380601D02*
D03*
D32*
X5930000Y9143100D02*
Y11339301D01*
X5359400Y8572500D02*
X5930000Y9143100D01*
X5540000Y8510000D02*
X6010000Y8980000D01*
X4123500Y5270500D02*
X4838700D01*
X5930000Y11339301D02*
X6592199Y12001500D01*
X6010000Y8980000D02*
Y11170000D01*
X3540000Y5248400D02*
X4216400Y4572000D01*
X2980000Y6730000D02*
X3540000Y6170000D01*
Y5248400D02*
Y6170000D01*
X2032000Y7023100D02*
X2325100Y6730000D01*
X2980000D01*
X3650880Y6082120D02*
X3763016Y5969984D01*
X3650880Y6082120D02*
Y6292278D01*
X3679301Y6320699D01*
X3822700D01*
X2819400Y6913601D02*
X3086399D01*
X3679301Y6320699D01*
X6230000Y6673200D02*
X7975600Y4927600D01*
X6230000Y11010000D02*
X6600000Y11380000D01*
X6230000Y6673200D02*
Y11010000D01*
X6130000Y6582700D02*
X7353300Y5359400D01*
X6130000Y6582700D02*
Y11100000D01*
X6650000Y11620000D01*
X6010000Y11170000D02*
X6841500Y12001500D01*
X6600000Y11380000D02*
X7330000D01*
X7720000Y11770000D02*
Y12790500D01*
X7330000Y11380000D02*
X7720000Y11770000D01*
X7581900Y12928600D02*
X7720000Y12790500D01*
X6841500Y12001500D02*
X7012198D01*
X6650000Y11620000D02*
X7276600D01*
X7442200Y11785600D01*
X2360000Y9590700D02*
X4340824Y7609876D01*
X2360000Y9980000D02*
X2730500Y10350500D01*
X2360000Y9590700D02*
Y9980000D01*
X16967200Y7675800D02*
X17195799Y7904400D01*
Y8470900D01*
X16967200Y7670800D02*
Y7675800D01*
X5168900Y5140000D02*
Y5279200D01*
Y5054600D02*
Y5140000D01*
X4980000D02*
X5168900D01*
X7023100Y5422900D02*
Y5506900D01*
X4340824Y7609876D02*
X4920124D01*
X7023100Y5506900D01*
X7442200Y11785600D02*
Y12077700D01*
X7029899Y12490001D02*
Y12533801D01*
Y12490001D02*
X7442200Y12077700D01*
X7012198Y12551501D02*
X7029899Y12533801D01*
X8686800Y4017000D02*
Y4258798D01*
X8683000Y4013200D02*
X8686800Y4017000D01*
X5110320Y6637180D02*
X5114130D01*
X3937000Y7810500D02*
X5110320Y6637180D01*
X3487699Y7810500D02*
X3937000D01*
X5114130Y6637180D02*
X5168900Y6582410D01*
X9448800Y4610100D02*
X9931400Y5092700D01*
X12230100D02*
X12801601Y5664200D01*
X9931400Y5092700D02*
X12230100D01*
X6754500Y5384800D02*
X6985000D01*
X7023100Y5422900D01*
X7886700Y4559300D02*
X8187202Y4258798D01*
X7569200Y4559300D02*
X7886700D01*
X8585200Y4927600D02*
X8781801Y4730999D01*
Y4478802D02*
Y4730999D01*
X7975600Y4927600D02*
X8585200D01*
X6873301Y3596701D02*
X7416399D01*
X6819900Y3543300D02*
X6873301Y3596701D01*
X6511402Y3543300D02*
X6819900D01*
X12801601Y5664200D02*
X13220700D01*
X13842999Y6286500D02*
X16154401D01*
X13220700Y5664200D02*
X13842999Y6286500D01*
X16154401D02*
X17614900Y7747000D01*
X4114800Y5279200D02*
X4123500Y5270500D01*
X8390100Y3784600D02*
X8496300D01*
X8398152Y4013200D02*
X8683000D01*
X8306651Y3921699D02*
X8398152Y4013200D01*
X8896701Y3593900D02*
X9265200Y3962400D01*
X8896701Y3581400D02*
Y3593900D01*
X3901349Y6320699D02*
X4114800Y6534150D01*
X3822700Y6320699D02*
X3901349D01*
X4114800Y6534150D02*
Y6551930D01*
X3763016Y5969984D02*
X5434616D01*
X5676900Y5524500D02*
Y5727701D01*
X5434616Y5969984D02*
X5676900Y5727701D01*
X4216400Y4572000D02*
X6515100D01*
X6350000Y4851400D02*
X6629400Y5130800D01*
X6754500D01*
X7353300Y4406900D02*
X7493000Y4267200D01*
X7353300Y4406900D02*
Y5359400D01*
X2032000Y7023100D02*
Y7413701D01*
X2019300Y7426401D02*
X2032000Y7413701D01*
X8187202Y4258798D02*
X8686800D01*
X2819400Y8478799D02*
X3487699Y7810500D01*
X2730500Y10350500D02*
X3061200D01*
X8397351Y3581400D02*
X8781699D01*
X8317051Y3661700D02*
X8397351Y3581400D01*
X8001401Y3856700D02*
X8318000D01*
X8390100Y3784600D01*
X6592199Y12551501D02*
X6969298Y12928600D01*
X7581900D01*
X8496300Y3784600D02*
X8680298D01*
X7493000Y4267200D02*
X7848600D01*
X5676900Y5524500D02*
X6070600Y5130800D01*
X6032500Y5384800D02*
X6199500D01*
X5880100Y5537200D02*
X6032500Y5384800D01*
X5880100Y5537200D02*
Y5791200D01*
X8001401Y3921699D02*
X8306651D01*
X6070600Y5130800D02*
X6199500D01*
X4942749Y6320699D02*
X5168900Y6546850D01*
X4813300Y6320699D02*
X4942749D01*
X5168900Y6546850D02*
Y6564630D01*
X4114800Y5414201D02*
Y5640070D01*
X5168900Y5414198D02*
Y5652770D01*
X4114800Y5640070D02*
X4165600Y5589270D01*
X5223670Y6447630D02*
Y6509860D01*
Y6447630D02*
X5880100Y5791200D01*
X5168900Y6564630D02*
X5223670Y6509860D01*
X5168900Y6564630D02*
Y6582410D01*
X7416399Y3856700D02*
Y3921699D01*
X8001401Y3661700D02*
X8317051D01*
X8482800Y3035300D02*
X8677802D01*
X8051401Y3466699D02*
X8482800Y3035300D01*
X8001401Y3466699D02*
X8051401D01*
X8242347Y3531702D02*
X8472050Y3302000D01*
X8680099D01*
X8001401Y3531702D02*
X8242347D01*
X5744901Y4102100D02*
X6315398D01*
X6391798Y4025700D01*
Y4013200D02*
Y4025700D01*
X7227100Y3327400D02*
X7366399Y3466699D01*
X7416399D01*
X6527800Y3327400D02*
X7227100D01*
X6845300Y3759200D02*
X6877802Y3726698D01*
X7416399D01*
X6544300Y3759200D02*
X6845300D01*
X7070899Y3791702D02*
X7416399D01*
X6849401Y4013200D02*
X7070899Y3791702D01*
X6536802Y4013200D02*
X6849401D01*
X17614900Y7747000D02*
Y9728200D01*
X17500600Y9842500D02*
X17614900Y9728200D01*
X17169901Y9842500D02*
X17500600D01*
D33*
X2019300Y8763000D02*
X2413000Y9156700D01*
X2019300Y8026400D02*
Y8763000D01*
D34*
Y8026400D02*
X2400300Y7645400D01*
Y7404100D02*
X2578100Y7226300D01*
X3594100D02*
X3848100Y6972300D01*
X2578100Y7226300D02*
X3594100D01*
X4368800Y6972300D02*
X4406900D01*
X5016868Y7074268D02*
X5244732D01*
X5016500Y7073900D02*
X5016868Y7074268D01*
X4601301Y6150701D02*
X4813300D01*
X4601301D02*
Y6777899D01*
X4406900Y6972300D02*
X4601301Y6777899D01*
X3822700Y6150701D02*
X4601301D01*
X3848100Y6972300D02*
X4368800D01*
X2400300Y7404100D02*
Y7645400D01*
X5244732Y7074268D02*
X5740400Y6578600D01*
Y6413500D02*
Y6578600D01*
Y6413500D02*
X6477000Y5676900D01*
Y5359400D02*
Y5676900D01*
Y5359400D02*
X6578600Y5257800D01*
X6754500D01*
D35*
X17012000Y3238999D02*
D03*
X5785401Y13986131D02*
D03*
X3155593Y3238999D02*
D03*
X14382193Y13986131D02*
D03*
D36*
X5753098Y9325698D02*
D03*
Y8225701D02*
D03*
X5753100Y10773501D02*
D03*
Y9673499D02*
D03*
X14478000Y8225699D02*
D03*
Y9325701D02*
D03*
Y10773501D02*
D03*
Y9673499D02*
D03*
D37*
X4753100Y8525700D02*
D03*
X4753102Y9973498D02*
D03*
X15477998Y9025702D02*
D03*
Y10473502D02*
D03*
D38*
X4753100Y9025699D02*
D03*
X4753102Y10473502D02*
D03*
X15477998Y8525698D02*
D03*
Y9973498D02*
D03*
D39*
X7012198Y12001500D02*
D03*
D40*
X6592199D02*
D03*
X6172200D02*
D03*
X5752201D02*
D03*
X7012198Y12551501D02*
D03*
X6592199D02*
D03*
X6172200D02*
D03*
X5752201D02*
D03*
D41*
X7482200Y12505502D02*
D03*
X5282199D02*
D03*
D42*
X18000002Y10000000D02*
D03*
Y9000000D02*
D03*
X18250002Y8500000D02*
D03*
X18000002Y8000000D02*
D03*
X18250002Y7500000D02*
D03*
X18000002Y7000000D02*
D03*
X18250002Y6500000D02*
D03*
X18000002Y6000000D02*
D03*
X18250002Y5500000D02*
D03*
X18000002Y5000000D02*
D03*
X17500002Y10000000D02*
D03*
X17750002Y9500000D02*
D03*
X17500002Y9000000D02*
D03*
X17750002Y8500000D02*
D03*
X17500002Y8000000D02*
D03*
X17750002Y7500000D02*
D03*
X17500002Y7000000D02*
D03*
X17750002Y6500000D02*
D03*
X17250002Y10500000D02*
D03*
X17000002Y10000000D02*
D03*
X17250002Y9500000D02*
D03*
X17000002Y9000000D02*
D03*
Y8000000D02*
D03*
X17250002Y6500000D02*
D03*
X17000002Y6000000D02*
D03*
X17250002Y3500000D02*
D03*
X16500002Y11000000D02*
D03*
Y7000000D02*
D03*
X16750002Y6500000D02*
D03*
X16500002Y6000000D02*
D03*
X16750002Y3500000D02*
D03*
X16500002Y3000000D02*
D03*
X16000002Y9000000D02*
D03*
Y6000000D02*
D03*
X16250002Y3500000D02*
D03*
X15500000Y12000000D02*
D03*
X15750002Y6500000D02*
D03*
X15500000Y6000000D02*
D03*
X15750002Y5500000D02*
D03*
X15500000Y5000000D02*
D03*
X15750002Y3500000D02*
D03*
X15000000Y12000000D02*
D03*
X15250000Y6500000D02*
D03*
Y5500000D02*
D03*
X15000000Y4000000D02*
D03*
X14750000Y13500000D02*
D03*
X14500000Y13000000D02*
D03*
X14750000Y12500000D02*
D03*
X14500000Y12000000D02*
D03*
X14750000Y11500000D02*
D03*
X14500000Y11000000D02*
D03*
X14750000Y10500000D02*
D03*
X14500000Y10000000D02*
D03*
Y9000000D02*
D03*
Y8000000D02*
D03*
Y4000000D02*
D03*
Y3000000D02*
D03*
X14000000Y14000000D02*
D03*
X14250000Y13500000D02*
D03*
X14000000Y13000000D02*
D03*
X14250000Y12500000D02*
D03*
X14000000Y12000000D02*
D03*
X14250000Y11500000D02*
D03*
X14000000Y11000000D02*
D03*
X14250000Y10500000D02*
D03*
X14000000Y10000000D02*
D03*
X14250000Y9500000D02*
D03*
X14000000Y9000000D02*
D03*
X14250000Y8500000D02*
D03*
X14000000Y8000000D02*
D03*
X14250000Y7500000D02*
D03*
X14000000Y7000000D02*
D03*
Y5000000D02*
D03*
X13750000Y13500000D02*
D03*
X13500000Y13000000D02*
D03*
X13750000Y12500000D02*
D03*
X13500000Y12000000D02*
D03*
X13750000Y11500000D02*
D03*
X13500000Y5000000D02*
D03*
X13750000Y3500000D02*
D03*
X13250000Y13500000D02*
D03*
X13000000Y13000000D02*
D03*
X13250000Y12500000D02*
D03*
X13000000Y12000000D02*
D03*
X13250000Y11500000D02*
D03*
Y5500000D02*
D03*
Y3500000D02*
D03*
Y2500000D02*
D03*
X12500000Y13000000D02*
D03*
X12750000Y12500000D02*
D03*
X12500000Y12000000D02*
D03*
X12750000Y11500000D02*
D03*
Y6500000D02*
D03*
X12500000Y5000000D02*
D03*
X12750000Y3500000D02*
D03*
Y2500000D02*
D03*
X12500000Y2000000D02*
D03*
X12250000Y3500000D02*
D03*
X12000000Y3000000D02*
D03*
Y2000000D02*
D03*
X11500000D02*
D03*
X11000000D02*
D03*
X10500000D02*
D03*
X10000000D02*
D03*
X9750000Y4500000D02*
D03*
X9500000Y2000000D02*
D03*
X9000000Y5000000D02*
D03*
Y2000000D02*
D03*
X8500000D02*
D03*
X8250000Y4500000D02*
D03*
X8000000Y2000000D02*
D03*
X7750000Y11500000D02*
D03*
Y6500000D02*
D03*
X7500000Y5000000D02*
D03*
Y2000000D02*
D03*
X7250000Y13500000D02*
D03*
Y11500000D02*
D03*
Y2500000D02*
D03*
X6750000Y13500000D02*
D03*
X6500000Y13000000D02*
D03*
X6750000Y11500000D02*
D03*
X6500000Y11000000D02*
D03*
X6750000Y2500000D02*
D03*
X6250000Y13500000D02*
D03*
X6000000Y13000000D02*
D03*
Y8000000D02*
D03*
X5500000Y14000000D02*
D03*
X5750000Y13500000D02*
D03*
X5500000Y13000000D02*
D03*
Y11000000D02*
D03*
X5750000Y10500000D02*
D03*
Y9500000D02*
D03*
X5500000Y9000000D02*
D03*
X5750000Y8500000D02*
D03*
X5250000D02*
D03*
X5000000Y5000000D02*
D03*
X4750000Y7500000D02*
D03*
Y6500000D02*
D03*
Y5500000D02*
D03*
X4250000Y11500000D02*
D03*
Y3500000D02*
D03*
X3750000Y7500000D02*
D03*
X3500000Y4000000D02*
D03*
X3750000Y3500000D02*
D03*
X3500000Y3000000D02*
D03*
X3250000Y3500000D02*
D03*
X3000000Y3000000D02*
D03*
X2750000Y10500000D02*
D03*
X2500000Y7000000D02*
D03*
X2750000Y3500000D02*
D03*
X2250000Y9500000D02*
D03*
X2000000Y9000000D02*
D03*
X2250000Y8500000D02*
D03*
Y7500000D02*
D03*
D43*
X5359400Y8572500D02*
D03*
X5540000Y8510000D02*
D03*
X5670000Y7630175D02*
D03*
Y7500000D02*
D03*
Y7369825D02*
D03*
Y7250000D02*
D03*
X2500000Y9709825D02*
D03*
Y9970175D02*
D03*
Y9840000D02*
D03*
X2640000Y9859825D02*
D03*
Y10120175D02*
D03*
Y9990000D02*
D03*
X2785850Y9960325D02*
D03*
Y10220675D02*
D03*
Y10090500D02*
D03*
X6807200Y6451600D02*
D03*
Y6616700D02*
D03*
Y6781800D02*
D03*
X11785600Y4097020D02*
D03*
X11938000D02*
D03*
X12077700D02*
D03*
X12230100D02*
D03*
X11785600Y3937000D02*
D03*
X11938000D02*
D03*
X12077700D02*
D03*
X12230100D02*
D03*
X11785600Y4417060D02*
D03*
X11938000D02*
D03*
X12077700D02*
D03*
X12230100D02*
D03*
X11785600Y4257040D02*
D03*
X11938000D02*
D03*
X12077700D02*
D03*
X12230100D02*
D03*
Y4577080D02*
D03*
X12077700D02*
D03*
X11938000D02*
D03*
X11785600D02*
D03*
X12230100Y4737100D02*
D03*
X12077700D02*
D03*
X11938000D02*
D03*
X11785600D02*
D03*
X4838700Y5270500D02*
D03*
X7124700Y4051300D02*
D03*
Y4208780D02*
D03*
Y4368800D02*
D03*
X8496300Y3784600D02*
D03*
X9265200Y3962400D02*
D03*
X9448800Y4610100D02*
D03*
X4368800Y6972300D02*
D03*
X5016500Y7073900D02*
D03*
X5168900Y5054600D02*
D03*
X6515100Y4572000D02*
D03*
X6350000Y4851400D02*
D03*
X7569200Y4559300D02*
D03*
X7848600Y4267200D02*
D03*
%TF.MD5,40c84eb23fbc0c8f63d643d7783140a0*%
M02*
