%TF.GenerationSoftware,Altium Limited,Altium Designer,23.6.0 (18)*%
G04 Layer_Color=16711935*
%FSLAX45Y45*%
%MOMM*%
%TF.SameCoordinates,CA757A27-890D-4031-9470-5F8B39CF6935*%
%TF.FilePolarity,Positive*%
%TF.FileFunction,Other,Bottom_Courtyard*%
%TF.Part,Single*%
G01*
G75*
%TA.AperFunction,NonConductor*%
%ADD53C,0.20000*%
%ADD54C,0.05000*%
%ADD55C,0.10000*%
D53*
X10649301Y4870501D02*
Y5035499D01*
X10339299Y4870501D02*
X10649301D01*
X10339299D02*
Y5035499D01*
X10649301D01*
X10109688Y3494090D02*
X10540512D01*
Y3744910D01*
X10109688D02*
X10540512D01*
X10109688Y3494090D02*
Y3744910D01*
X7690698Y4567702D02*
X8590702D01*
X7690698D02*
Y5617698D01*
X8590702D01*
Y4567702D02*
Y5617698D01*
X8980500Y5465811D02*
X9180500D01*
Y5075189D02*
Y5465811D01*
X8980500Y5075189D02*
X9180500D01*
X8980500D02*
Y5465811D01*
D54*
X10813801Y4648799D02*
X11893799D01*
X10813801Y3453801D02*
X11893799D01*
X10813801D02*
Y4648799D01*
X11893799Y3453801D02*
Y4648799D01*
D55*
X11353800Y4001303D02*
Y4101302D01*
X11303798Y4051300D02*
X11403802D01*
%TF.MD5,893563e1ee26c567b88698d49a8ff622*%
M02*
