%TF.GenerationSoftware,Altium Limited,Altium Designer,23.6.0 (18)*%
G04 Layer_Color=8388736*
%FSLAX45Y45*%
%MOMM*%
%TF.SameCoordinates,CA757A27-890D-4031-9470-5F8B39CF6935*%
%TF.FilePolarity,Negative*%
%TF.FileFunction,Soldermask,Top*%
%TF.Part,Single*%
G01*
G75*
%TA.AperFunction,SMDPad,CuDef*%
%ADD11R,1.45000X0.65000*%
%ADD19R,1.29540X1.65100*%
%ADD26R,0.80000X0.90000*%
%ADD59R,3.15320X1.20320*%
%ADD60R,1.25320X1.10320*%
%ADD61R,4.80320X1.55320*%
%ADD62R,9.60320X11.00320*%
%ADD63R,1.10320X1.20320*%
%ADD64C,1.20320*%
%ADD65C,3.20320*%
%ADD66R,4.45320X2.30320*%
%ADD67R,1.65320X0.65320*%
%ADD68R,2.94320X4.06320*%
%ADD69R,3.75920X2.23520*%
%ADD70R,1.67320X1.17320*%
%ADD71R,0.80320X0.95320*%
%ADD72R,0.85320X1.10320*%
%ADD73R,2.20320X2.20320*%
%ADD74R,1.72820X0.85320*%
%ADD75R,1.65320X1.70320*%
%ADD76R,0.98320X1.18320*%
%ADD77R,2.25320X4.50320*%
%TA.AperFunction,ViaPad*%
%ADD78C,3.60320*%
%TA.AperFunction,ComponentPad*%
%ADD79C,1.71120*%
%ADD80C,2.75320*%
%ADD81R,2.75320X2.75320*%
%ADD82R,2.10320X2.10320*%
%ADD83C,2.10320*%
%ADD84C,3.20320*%
D11*
X6754500Y5511800D02*
D03*
Y5384800D02*
D03*
Y5257800D02*
D03*
Y5130800D02*
D03*
X6199500D02*
D03*
Y5257800D02*
D03*
Y5384800D02*
D03*
Y5511800D02*
D03*
D19*
X5168900Y6564630D02*
D03*
X5422900D02*
D03*
Y5652770D02*
D03*
X5168900D02*
D03*
X4114800Y5640070D02*
D03*
X4368800D02*
D03*
Y6551930D02*
D03*
X4114800D02*
D03*
D26*
X4813300Y6320699D02*
D03*
Y6150701D02*
D03*
X3822700Y6320699D02*
D03*
Y6150701D02*
D03*
D59*
X17475697Y5969701D02*
D03*
Y5669702D02*
D03*
Y5369702D02*
D03*
Y5069698D02*
D03*
Y4769698D02*
D03*
Y4469699D02*
D03*
X14680702D02*
D03*
Y4769698D02*
D03*
Y5069698D02*
D03*
Y5369702D02*
D03*
Y5669702D02*
D03*
Y5969701D02*
D03*
D60*
X4114800Y5414201D02*
D03*
Y5279200D02*
D03*
X5168900Y5414196D02*
D03*
Y5279200D02*
D03*
D61*
X17169901Y9842500D02*
D03*
Y10350500D02*
D03*
X3061200Y9842500D02*
D03*
Y10350500D02*
D03*
D62*
X16344901Y10071100D02*
D03*
X3886200Y10121900D02*
D03*
D63*
X16967200Y7670800D02*
D03*
X16807201D02*
D03*
X8683000Y4013200D02*
D03*
X8843000D02*
D03*
X6384300Y3759200D02*
D03*
X6544300D02*
D03*
X6367800Y3327400D02*
D03*
X6527800D02*
D03*
D64*
X4980000Y5140000D02*
D03*
X4550000Y5270000D02*
D03*
X8484050Y4020650D02*
D03*
X8354050Y3820650D02*
D03*
X5990000Y4100000D02*
D03*
D65*
X8775700Y1828800D02*
D03*
X8940000Y5420000D02*
D03*
X4530000Y11160000D02*
D03*
X13930000Y5400000D02*
D03*
X15350000Y11280000D02*
D03*
X10198100Y3454400D02*
D03*
X2413000Y9156700D02*
D03*
D66*
X15951199Y7162800D02*
D03*
X15111200D02*
D03*
D67*
X8001401Y3466699D02*
D03*
Y3531702D02*
D03*
Y3596701D02*
D03*
Y3661700D02*
D03*
Y3726698D02*
D03*
Y3791702D02*
D03*
Y3856700D02*
D03*
Y3921699D02*
D03*
Y3986698D02*
D03*
Y4051701D02*
D03*
X7416399D02*
D03*
Y3986698D02*
D03*
Y3921699D02*
D03*
Y3856700D02*
D03*
Y3791702D02*
D03*
Y3726698D02*
D03*
Y3661700D02*
D03*
Y3596701D02*
D03*
Y3531702D02*
D03*
Y3466699D02*
D03*
D68*
X7708900Y3759200D02*
D03*
D69*
X16357600Y9156700D02*
D03*
Y8470900D02*
D03*
X14008099Y5981700D02*
D03*
Y6667500D02*
D03*
X3911600Y9321800D02*
D03*
Y8636000D02*
D03*
D70*
X13652499Y3867602D02*
D03*
Y3701598D02*
D03*
X13347701Y3867602D02*
D03*
Y3701598D02*
D03*
X13042900Y3867602D02*
D03*
Y3701598D02*
D03*
X12738100D02*
D03*
Y3867602D02*
D03*
X12433300D02*
D03*
Y3701598D02*
D03*
D71*
X8781801Y4478802D02*
D03*
X8591799D02*
D03*
X8686800Y4258798D02*
D03*
D72*
X8896701Y3581400D02*
D03*
X8781699D02*
D03*
X8795101Y3302000D02*
D03*
X8680099D02*
D03*
X8677802Y3035300D02*
D03*
X8822800D02*
D03*
X6511402Y3543300D02*
D03*
X6366398D02*
D03*
X6536802Y4013200D02*
D03*
X6391798D02*
D03*
D73*
X2019300Y8026400D02*
D03*
Y7426401D02*
D03*
X2819400Y6913601D02*
D03*
Y7513599D02*
D03*
Y8478799D02*
D03*
Y7878801D02*
D03*
D74*
X5202499Y3721100D02*
D03*
Y3848100D02*
D03*
Y3975100D02*
D03*
Y4102100D02*
D03*
X5744901D02*
D03*
Y3975100D02*
D03*
Y3848100D02*
D03*
Y3721100D02*
D03*
D75*
X17195799Y8470900D02*
D03*
Y8670900D02*
D03*
D76*
X8820302Y3784600D02*
D03*
X8680298D02*
D03*
D77*
X13004800Y5220599D02*
D03*
Y4380601D02*
D03*
D78*
X17012000Y3238999D02*
D03*
X5785401Y13986131D02*
D03*
X3155593Y3238999D02*
D03*
X14382193Y13986131D02*
D03*
D79*
X5753098Y9325698D02*
D03*
Y8225701D02*
D03*
X5753100Y10773501D02*
D03*
Y9673499D02*
D03*
X14478000Y8225699D02*
D03*
Y9325701D02*
D03*
Y10773501D02*
D03*
Y9673499D02*
D03*
D80*
X4753100Y8525700D02*
D03*
X4753102Y9973498D02*
D03*
X15477998Y9025702D02*
D03*
Y10473502D02*
D03*
D81*
X4753100Y9025699D02*
D03*
X4753102Y10473502D02*
D03*
X15477998Y8525698D02*
D03*
Y9973498D02*
D03*
D82*
X7012198Y12001500D02*
D03*
D83*
X6592199D02*
D03*
X6172200D02*
D03*
X5752201D02*
D03*
X7012198Y12551501D02*
D03*
X6592199D02*
D03*
X6172200D02*
D03*
X5752201D02*
D03*
D84*
X7482200Y12505502D02*
D03*
X5282199D02*
D03*
%TF.MD5,fe1b70d85d30d5cd949b3e875ec61557*%
M02*
