%TF.GenerationSoftware,Altium Limited,Altium Designer,23.6.0 (18)*%
G04 Layer_Color=32896*
%FSLAX45Y45*%
%MOMM*%
%TF.SameCoordinates,CA757A27-890D-4031-9470-5F8B39CF6935*%
%TF.FilePolarity,Positive*%
%TF.FileFunction,Other,Bottom_Assembly*%
%TF.Part,Single*%
G01*
G75*
%TA.AperFunction,NonConductor*%
%ADD53C,0.20000*%
G36*
X10409519Y5015684D02*
X10410536Y5014205D01*
X10411738Y5012725D01*
X10412848Y5011431D01*
X10413957Y5010321D01*
X10414789Y5009397D01*
X10415159Y5009120D01*
X10415436Y5008842D01*
X10415529Y5008750D01*
X10415621Y5008657D01*
X10417563Y5007085D01*
X10419504Y5005606D01*
X10421354Y5004312D01*
X10423203Y5003295D01*
X10424774Y5002370D01*
X10425422Y5002000D01*
X10425976Y5001723D01*
X10426439Y5001446D01*
X10426808Y5001353D01*
X10426993Y5001168D01*
X10427086D01*
Y4993587D01*
X10425699Y4994142D01*
X10424312Y4994789D01*
X10422925Y4995436D01*
X10421631Y4996083D01*
X10420521Y4996638D01*
X10419597Y4997100D01*
X10419042Y4997470D01*
X10418950Y4997563D01*
X10418857D01*
X10417193Y4998580D01*
X10415714Y4999597D01*
X10414419Y5000521D01*
X10413402Y5001353D01*
X10412478Y5002000D01*
X10411923Y5002555D01*
X10411461Y5002925D01*
X10411368Y5003017D01*
Y4952999D01*
X10403510D01*
Y5017256D01*
X10408595D01*
X10409519Y5015684D01*
D02*
G37*
G36*
X10494301Y4952999D02*
X10485795D01*
Y4981383D01*
X10474886D01*
X10473869Y4981290D01*
X10473129D01*
X10472482Y4981198D01*
X10472019Y4981105D01*
X10471650D01*
X10471465Y4981013D01*
X10471372D01*
X10469893Y4980551D01*
X10469246Y4980273D01*
X10468691Y4979996D01*
X10468136Y4979719D01*
X10467766Y4979534D01*
X10467582Y4979441D01*
X10467489Y4979349D01*
X10466749Y4978794D01*
X10466010Y4978147D01*
X10464623Y4976760D01*
X10463976Y4976113D01*
X10463513Y4975558D01*
X10463236Y4975188D01*
X10463144Y4975096D01*
X10462219Y4973801D01*
X10461202Y4972414D01*
X10460185Y4970935D01*
X10459168Y4969548D01*
X10458336Y4968254D01*
X10457689Y4967237D01*
X10457411Y4966867D01*
X10457226Y4966590D01*
X10457042Y4966405D01*
Y4966312D01*
X10448628Y4952999D01*
X10438088D01*
X10449090Y4970380D01*
X10450385Y4972230D01*
X10451587Y4973894D01*
X10452789Y4975281D01*
X10453806Y4976575D01*
X10454730Y4977500D01*
X10455470Y4978239D01*
X10455932Y4978701D01*
X10456117Y4978886D01*
X10456857Y4979441D01*
X10457689Y4980088D01*
X10459353Y4981105D01*
X10460093Y4981475D01*
X10460647Y4981845D01*
X10461017Y4982030D01*
X10461202Y4982122D01*
X10459538Y4982400D01*
X10457966Y4982677D01*
X10456579Y4983139D01*
X10455192Y4983509D01*
X10453991Y4983971D01*
X10452881Y4984526D01*
X10451864Y4984989D01*
X10450939Y4985451D01*
X10450200Y4986006D01*
X10449460Y4986468D01*
X10448905Y4986838D01*
X10448443Y4987207D01*
X10448073Y4987485D01*
X10447796Y4987762D01*
X10447704Y4987855D01*
X10447611Y4987947D01*
X10446871Y4988872D01*
X10446132Y4989796D01*
X10445022Y4991738D01*
X10444283Y4993679D01*
X10443728Y4995528D01*
X10443358Y4997100D01*
X10443266Y4997747D01*
Y4998395D01*
X10443173Y4998857D01*
Y4999227D01*
Y4999412D01*
Y4999504D01*
X10443266Y5001446D01*
X10443543Y5003202D01*
X10444005Y5004867D01*
X10444468Y5006253D01*
X10445022Y5007455D01*
X10445392Y5008380D01*
X10445762Y5008935D01*
X10445854Y5009027D01*
Y5009120D01*
X10446964Y5010599D01*
X10448073Y5011893D01*
X10449275Y5013003D01*
X10450385Y5013835D01*
X10451402Y5014482D01*
X10452234Y5014852D01*
X10452789Y5015129D01*
X10452881Y5015222D01*
X10452974D01*
X10453806Y5015499D01*
X10454823Y5015776D01*
X10456857Y5016239D01*
X10459076Y5016516D01*
X10461110Y5016793D01*
X10463051Y5016886D01*
X10463883D01*
X10464623Y5016978D01*
X10494301D01*
Y4952999D01*
D02*
G37*
G36*
X10386035Y4975558D02*
Y4968346D01*
X10358206D01*
Y4952999D01*
X10350347D01*
Y4968346D01*
X10341656D01*
Y4975558D01*
X10350347D01*
Y5016978D01*
X10356727D01*
X10386035Y4975558D01*
D02*
G37*
G36*
X10408411Y3601009D02*
X10407117Y3599160D01*
X10405915Y3597495D01*
X10404713Y3596109D01*
X10403696Y3594814D01*
X10402771Y3593890D01*
X10402032Y3593150D01*
X10401569Y3592688D01*
X10401384Y3592503D01*
X10400645Y3591948D01*
X10399813Y3591301D01*
X10398148Y3590284D01*
X10397409Y3589914D01*
X10396854Y3589544D01*
X10396484Y3589359D01*
X10396299Y3589267D01*
X10397963Y3588990D01*
X10399535Y3588712D01*
X10400922Y3588250D01*
X10402309Y3587880D01*
X10403511Y3587418D01*
X10404620Y3586863D01*
X10405637Y3586401D01*
X10406562Y3585938D01*
X10407302Y3585384D01*
X10408041Y3584921D01*
X10408596Y3584552D01*
X10409058Y3584182D01*
X10409428Y3583904D01*
X10409705Y3583627D01*
X10409798Y3583535D01*
X10409890Y3583442D01*
X10410630Y3582518D01*
X10411370Y3581593D01*
X10412479Y3579651D01*
X10413219Y3577710D01*
X10413773Y3575861D01*
X10414143Y3574289D01*
X10414236Y3573642D01*
Y3572995D01*
X10414328Y3572532D01*
Y3572163D01*
Y3571978D01*
Y3571885D01*
X10414236Y3569944D01*
X10413958Y3568187D01*
X10413496Y3566523D01*
X10413034Y3565136D01*
X10412479Y3563934D01*
X10412109Y3563009D01*
X10411739Y3562455D01*
X10411647Y3562362D01*
Y3562270D01*
X10410537Y3560790D01*
X10409428Y3559496D01*
X10408226Y3558387D01*
X10407117Y3557554D01*
X10406100Y3556907D01*
X10405267Y3556537D01*
X10404713Y3556260D01*
X10404620Y3556168D01*
X10404528D01*
X10403696Y3555890D01*
X10402679Y3555613D01*
X10400645Y3555151D01*
X10398426Y3554873D01*
X10396392Y3554596D01*
X10394450Y3554503D01*
X10393618D01*
X10392878Y3554411D01*
X10363200D01*
Y3618391D01*
X10371706D01*
Y3590007D01*
X10382616D01*
X10383633Y3590099D01*
X10384372D01*
X10385020Y3590191D01*
X10385482Y3590284D01*
X10385852D01*
X10386037Y3590376D01*
X10386129D01*
X10387608Y3590839D01*
X10388256Y3591116D01*
X10388810Y3591393D01*
X10389365Y3591671D01*
X10389735Y3591856D01*
X10389920Y3591948D01*
X10390012Y3592041D01*
X10390752Y3592595D01*
X10391492Y3593242D01*
X10392878Y3594629D01*
X10393526Y3595277D01*
X10393988Y3595831D01*
X10394265Y3596201D01*
X10394358Y3596294D01*
X10395282Y3597588D01*
X10396299Y3598975D01*
X10397316Y3600454D01*
X10398333Y3601841D01*
X10399165Y3603135D01*
X10399813Y3604152D01*
X10400090Y3604522D01*
X10400275Y3604799D01*
X10400460Y3604984D01*
Y3605077D01*
X10408873Y3618391D01*
X10419413D01*
X10408411Y3601009D01*
D02*
G37*
G36*
X10496614Y3619408D02*
X10498463Y3619130D01*
X10500220Y3618760D01*
X10501792Y3618298D01*
X10503271Y3617651D01*
X10504658Y3617004D01*
X10505952Y3616356D01*
X10507062Y3615617D01*
X10508079Y3614877D01*
X10509003Y3614230D01*
X10509743Y3613490D01*
X10510390Y3612936D01*
X10510852Y3612473D01*
X10511222Y3612104D01*
X10511407Y3611826D01*
X10511499Y3611734D01*
X10512424Y3610532D01*
X10513164Y3609237D01*
X10513903Y3608035D01*
X10514458Y3606741D01*
X10515383Y3604245D01*
X10515937Y3601841D01*
X10516122Y3600824D01*
X10516307Y3599807D01*
X10516400Y3598975D01*
X10516492Y3598235D01*
X10516585Y3597588D01*
Y3597126D01*
Y3596848D01*
Y3596756D01*
X10516492Y3595092D01*
X10516307Y3593520D01*
X10516030Y3591948D01*
X10515660Y3590561D01*
X10515198Y3589267D01*
X10514735Y3587973D01*
X10514181Y3586863D01*
X10513718Y3585846D01*
X10513164Y3584921D01*
X10512609Y3584089D01*
X10512147Y3583442D01*
X10511684Y3582795D01*
X10511315Y3582333D01*
X10511037Y3582055D01*
X10510852Y3581870D01*
X10510760Y3581778D01*
X10509650Y3580761D01*
X10508541Y3579836D01*
X10507339Y3579097D01*
X10506137Y3578450D01*
X10504935Y3577802D01*
X10503733Y3577340D01*
X10501514Y3576693D01*
X10500497Y3576416D01*
X10499573Y3576231D01*
X10498740Y3576138D01*
X10498001Y3576046D01*
X10497446Y3575953D01*
X10495412D01*
X10494303Y3576138D01*
X10492084Y3576600D01*
X10490050Y3577248D01*
X10488201Y3577987D01*
X10486721Y3578727D01*
X10486074Y3579097D01*
X10485519Y3579374D01*
X10485057Y3579651D01*
X10484780Y3579836D01*
X10484595Y3579929D01*
X10484502Y3580021D01*
X10487923Y3562732D01*
X10513533D01*
Y3555243D01*
X10481729D01*
X10475534Y3588157D01*
X10482931Y3589174D01*
X10483578Y3588157D01*
X10484410Y3587325D01*
X10485149Y3586493D01*
X10485889Y3585846D01*
X10486629Y3585384D01*
X10487183Y3584921D01*
X10487553Y3584737D01*
X10487646Y3584644D01*
X10488848Y3584089D01*
X10490050Y3583627D01*
X10491159Y3583350D01*
X10492269Y3583072D01*
X10493193Y3582980D01*
X10493933Y3582887D01*
X10495689D01*
X10496799Y3583072D01*
X10498740Y3583535D01*
X10500405Y3584182D01*
X10501884Y3584829D01*
X10502993Y3585569D01*
X10503826Y3586216D01*
X10504288Y3586678D01*
X10504473Y3586771D01*
Y3586863D01*
X10505767Y3588435D01*
X10506692Y3590099D01*
X10507339Y3591856D01*
X10507801Y3593612D01*
X10508079Y3595092D01*
X10508171Y3595739D01*
Y3596294D01*
X10508263Y3596756D01*
Y3597126D01*
Y3597311D01*
Y3597403D01*
Y3598697D01*
X10508079Y3599899D01*
X10507616Y3602211D01*
X10506969Y3604152D01*
X10506322Y3605724D01*
X10505582Y3607018D01*
X10504935Y3608035D01*
X10504658Y3608313D01*
X10504473Y3608590D01*
X10504380Y3608683D01*
X10504288Y3608775D01*
X10503548Y3609515D01*
X10502809Y3610162D01*
X10501144Y3611271D01*
X10499573Y3612011D01*
X10498001Y3612473D01*
X10496706Y3612843D01*
X10495597Y3612936D01*
X10495227Y3613028D01*
X10494672D01*
X10492916Y3612936D01*
X10491344Y3612566D01*
X10489957Y3612104D01*
X10488848Y3611549D01*
X10487831Y3610994D01*
X10487091Y3610532D01*
X10486721Y3610162D01*
X10486536Y3610069D01*
X10485427Y3608775D01*
X10484502Y3607388D01*
X10483763Y3605817D01*
X10483208Y3604430D01*
X10482838Y3603043D01*
X10482561Y3602026D01*
X10482468Y3601564D01*
X10482376Y3601286D01*
Y3601101D01*
Y3601009D01*
X10474147Y3601656D01*
X10474332Y3603135D01*
X10474609Y3604522D01*
X10475442Y3607111D01*
X10476459Y3609330D01*
X10477013Y3610347D01*
X10477568Y3611179D01*
X10478030Y3612011D01*
X10478585Y3612751D01*
X10479047Y3613305D01*
X10479510Y3613768D01*
X10479879Y3614138D01*
X10480064Y3614507D01*
X10480249Y3614600D01*
X10480342Y3614692D01*
X10481451Y3615524D01*
X10482561Y3616264D01*
X10483763Y3616911D01*
X10484965Y3617466D01*
X10487276Y3618298D01*
X10489587Y3618853D01*
X10490604Y3619130D01*
X10491621Y3619223D01*
X10492453Y3619315D01*
X10493193Y3619408D01*
X10493840Y3619500D01*
X10494672D01*
X10496614Y3619408D01*
D02*
G37*
G36*
X10453992Y3554134D02*
X10448907D01*
X10447982Y3555705D01*
X10446965Y3557185D01*
X10445763Y3558664D01*
X10444654Y3559958D01*
X10443544Y3561068D01*
X10442712Y3561992D01*
X10442342Y3562270D01*
X10442065Y3562547D01*
X10441973Y3562640D01*
X10441880Y3562732D01*
X10439938Y3564304D01*
X10437997Y3565783D01*
X10436148Y3567077D01*
X10434299Y3568094D01*
X10432727Y3569019D01*
X10432080Y3569389D01*
X10431525Y3569666D01*
X10431063Y3569944D01*
X10430693Y3570036D01*
X10430508Y3570221D01*
X10430416D01*
Y3577802D01*
X10431802Y3577248D01*
X10433189Y3576600D01*
X10434576Y3575953D01*
X10435870Y3575306D01*
X10436980Y3574751D01*
X10437904Y3574289D01*
X10438459Y3573919D01*
X10438552Y3573827D01*
X10438644D01*
X10440308Y3572810D01*
X10441788Y3571793D01*
X10443082Y3570868D01*
X10444099Y3570036D01*
X10445024Y3569389D01*
X10445578Y3568834D01*
X10446041Y3568464D01*
X10446133Y3568372D01*
Y3618391D01*
X10453992D01*
Y3554134D01*
D02*
G37*
G36*
X8149390Y5216035D02*
X8150961Y5217144D01*
X8151609Y5217699D01*
X8152256Y5218161D01*
X8152810Y5218623D01*
X8153180Y5218993D01*
X8153458Y5219270D01*
X8153550Y5219363D01*
X8154012Y5219825D01*
X8154475Y5220380D01*
X8155677Y5221674D01*
X8157063Y5223154D01*
X8158450Y5224725D01*
X8159652Y5226205D01*
X8160207Y5226852D01*
X8160762Y5227407D01*
X8161132Y5227869D01*
X8161409Y5228239D01*
X8161594Y5228424D01*
X8161686Y5228516D01*
X8162981Y5229995D01*
X8164183Y5231475D01*
X8165384Y5232769D01*
X8166401Y5233971D01*
X8167419Y5235080D01*
X8168343Y5236005D01*
X8169175Y5236930D01*
X8169915Y5237669D01*
X8170654Y5238409D01*
X8171209Y5238964D01*
X8171671Y5239426D01*
X8172134Y5239888D01*
X8172689Y5240350D01*
X8172873Y5240535D01*
X8174445Y5241830D01*
X8175832Y5242939D01*
X8177219Y5243864D01*
X8178328Y5244603D01*
X8179345Y5245158D01*
X8180085Y5245528D01*
X8180547Y5245713D01*
X8180732Y5245805D01*
X8182119Y5246360D01*
X8183506Y5246730D01*
X8184800Y5247100D01*
X8185910Y5247285D01*
X8186927Y5247377D01*
X8187666Y5247470D01*
X8188129D01*
X8188314D01*
X8189700Y5247377D01*
X8190995Y5247192D01*
X8192289Y5247007D01*
X8193399Y5246637D01*
X8195618Y5245713D01*
X8197374Y5244788D01*
X8198206Y5244234D01*
X8198854Y5243771D01*
X8199501Y5243309D01*
X8199963Y5242847D01*
X8200333Y5242477D01*
X8200703Y5242292D01*
X8200795Y5242107D01*
X8200888Y5242015D01*
X8201812Y5240998D01*
X8202644Y5239888D01*
X8203291Y5238686D01*
X8203846Y5237484D01*
X8204771Y5235080D01*
X8205418Y5232677D01*
X8205603Y5231660D01*
X8205788Y5230643D01*
X8205880Y5229718D01*
X8205973Y5228978D01*
X8206065Y5228331D01*
Y5227407D01*
X8205973Y5225742D01*
X8205880Y5224171D01*
X8205603Y5222691D01*
X8205325Y5221305D01*
X8204956Y5220010D01*
X8204586Y5218808D01*
X8204124Y5217699D01*
X8203661Y5216682D01*
X8203199Y5215757D01*
X8202737Y5215018D01*
X8202367Y5214370D01*
X8201997Y5213816D01*
X8201720Y5213353D01*
X8201442Y5213076D01*
X8201350Y5212891D01*
X8201257Y5212799D01*
X8200333Y5211874D01*
X8199316Y5211042D01*
X8198206Y5210210D01*
X8197097Y5209563D01*
X8194878Y5208453D01*
X8192659Y5207713D01*
X8191642Y5207436D01*
X8190625Y5207159D01*
X8189793Y5206974D01*
X8189053Y5206789D01*
X8188406Y5206696D01*
X8187944D01*
X8187666Y5206604D01*
X8187574D01*
X8186742Y5214648D01*
X8188868Y5214833D01*
X8190717Y5215202D01*
X8192382Y5215757D01*
X8193676Y5216404D01*
X8194785Y5216959D01*
X8195525Y5217514D01*
X8195987Y5217884D01*
X8196172Y5218069D01*
X8197282Y5219455D01*
X8198114Y5220935D01*
X8198761Y5222506D01*
X8199131Y5223893D01*
X8199408Y5225188D01*
X8199501Y5226297D01*
X8199593Y5226667D01*
Y5227222D01*
X8199501Y5229163D01*
X8199131Y5230920D01*
X8198576Y5232399D01*
X8198021Y5233694D01*
X8197374Y5234711D01*
X8196912Y5235358D01*
X8196542Y5235820D01*
X8196357Y5236005D01*
X8195063Y5237114D01*
X8193768Y5237947D01*
X8192474Y5238594D01*
X8191180Y5238964D01*
X8190163Y5239241D01*
X8189238Y5239333D01*
X8188683Y5239426D01*
X8188591D01*
X8188498D01*
X8186834Y5239241D01*
X8185078Y5238871D01*
X8183506Y5238224D01*
X8182027Y5237577D01*
X8180825Y5236837D01*
X8179808Y5236190D01*
X8179438Y5236005D01*
X8179160Y5235820D01*
X8179068Y5235635D01*
X8178976D01*
X8177958Y5234896D01*
X8176941Y5233971D01*
X8175832Y5232954D01*
X8174723Y5231845D01*
X8172504Y5229533D01*
X8170285Y5227222D01*
X8169268Y5226020D01*
X8168343Y5225003D01*
X8167511Y5223986D01*
X8166771Y5223154D01*
X8166217Y5222506D01*
X8165754Y5221952D01*
X8165477Y5221582D01*
X8165384Y5221489D01*
X8163443Y5219178D01*
X8161594Y5217052D01*
X8159930Y5215295D01*
X8158543Y5213908D01*
X8157341Y5212706D01*
X8156509Y5211874D01*
X8155954Y5211412D01*
X8155862Y5211227D01*
X8155769D01*
X8154197Y5209932D01*
X8152718Y5208915D01*
X8151239Y5207991D01*
X8149944Y5207251D01*
X8148835Y5206696D01*
X8148003Y5206327D01*
X8147448Y5206142D01*
X8147356Y5206049D01*
X8147263D01*
X8146246Y5205679D01*
X8145322Y5205495D01*
X8144397Y5205310D01*
X8143565Y5205217D01*
X8142825Y5205125D01*
X8142270D01*
X8141901D01*
X8141808D01*
Y5247562D01*
X8149390D01*
Y5216035D01*
D02*
G37*
G36*
X8206065Y5180994D02*
X8204493Y5180069D01*
X8203014Y5179052D01*
X8201535Y5177850D01*
X8200240Y5176741D01*
X8199131Y5175631D01*
X8198206Y5174799D01*
X8197929Y5174429D01*
X8197652Y5174152D01*
X8197559Y5174060D01*
X8197467Y5173967D01*
X8195895Y5172025D01*
X8194416Y5170084D01*
X8193121Y5168235D01*
X8192104Y5166386D01*
X8191180Y5164814D01*
X8190810Y5164167D01*
X8190533Y5163612D01*
X8190255Y5163150D01*
X8190163Y5162780D01*
X8189978Y5162595D01*
Y5162503D01*
X8182396D01*
X8182951Y5163889D01*
X8183598Y5165276D01*
X8184246Y5166663D01*
X8184893Y5167957D01*
X8185447Y5169067D01*
X8185910Y5169991D01*
X8186280Y5170546D01*
X8186372Y5170639D01*
Y5170731D01*
X8187389Y5172395D01*
X8188406Y5173875D01*
X8189331Y5175169D01*
X8190163Y5176186D01*
X8190810Y5177111D01*
X8191365Y5177665D01*
X8191734Y5178128D01*
X8191827Y5178220D01*
X8141808D01*
Y5186079D01*
X8206065D01*
Y5180994D01*
D02*
G37*
G36*
X8164183Y5140775D02*
X8162703Y5140406D01*
X8161316Y5139943D01*
X8160022Y5139481D01*
X8158820Y5139019D01*
X8157711Y5138464D01*
X8156786Y5137909D01*
X8155862Y5137262D01*
X8155029Y5136707D01*
X8154290Y5136245D01*
X8153735Y5135690D01*
X8153180Y5135228D01*
X8152718Y5134858D01*
X8152441Y5134488D01*
X8152163Y5134211D01*
X8152071Y5134119D01*
X8151978Y5134026D01*
X8151239Y5133101D01*
X8150684Y5132084D01*
X8149667Y5130050D01*
X8148927Y5128109D01*
X8148465Y5126167D01*
X8148095Y5124503D01*
X8148003Y5123856D01*
Y5123209D01*
X8147910Y5122654D01*
Y5122007D01*
X8148003Y5119880D01*
X8148373Y5117846D01*
X8148835Y5115997D01*
X8149390Y5114333D01*
X8149944Y5113039D01*
X8150222Y5112484D01*
X8150407Y5112022D01*
X8150592Y5111652D01*
X8150776Y5111374D01*
X8150869Y5111189D01*
Y5111097D01*
X8152163Y5109340D01*
X8153550Y5107861D01*
X8155122Y5106567D01*
X8156601Y5105550D01*
X8157896Y5104718D01*
X8159005Y5104163D01*
X8159467Y5103978D01*
X8159745Y5103793D01*
X8159930Y5103700D01*
X8160022D01*
X8162426Y5102961D01*
X8164830Y5102406D01*
X8167234Y5101944D01*
X8169453Y5101666D01*
X8170470Y5101574D01*
X8171394Y5101482D01*
X8172226D01*
X8172873Y5101389D01*
X8173428D01*
X8173890D01*
X8174168D01*
X8174260D01*
X8176664Y5101482D01*
X8178883Y5101666D01*
X8180917Y5102036D01*
X8182766Y5102406D01*
X8184338Y5102683D01*
X8184985Y5102868D01*
X8185540Y5103053D01*
X8186002Y5103146D01*
X8186280Y5103238D01*
X8186464Y5103331D01*
X8186557D01*
X8188683Y5104255D01*
X8190625Y5105272D01*
X8192197Y5106382D01*
X8193584Y5107584D01*
X8194693Y5108601D01*
X8195433Y5109433D01*
X8195895Y5110080D01*
X8196080Y5110172D01*
Y5110265D01*
X8197282Y5112206D01*
X8198206Y5114333D01*
X8198854Y5116367D01*
X8199223Y5118309D01*
X8199501Y5120065D01*
X8199593Y5120805D01*
Y5121452D01*
X8199686Y5121914D01*
Y5122654D01*
X8199593Y5124965D01*
X8199223Y5127092D01*
X8198669Y5128849D01*
X8198114Y5130420D01*
X8197467Y5131622D01*
X8197004Y5132547D01*
X8196635Y5133101D01*
X8196450Y5133286D01*
X8195063Y5134766D01*
X8193491Y5136153D01*
X8191827Y5137262D01*
X8190163Y5138187D01*
X8188683Y5138926D01*
X8187944Y5139204D01*
X8187389Y5139389D01*
X8186927Y5139573D01*
X8186557Y5139758D01*
X8186372Y5139851D01*
X8186280D01*
X8188221Y5148172D01*
X8189885Y5147617D01*
X8191365Y5147062D01*
X8192751Y5146323D01*
X8194138Y5145676D01*
X8195340Y5144936D01*
X8196450Y5144104D01*
X8197559Y5143364D01*
X8198484Y5142624D01*
X8199223Y5141885D01*
X8199963Y5141238D01*
X8200610Y5140590D01*
X8201072Y5140128D01*
X8201535Y5139666D01*
X8201812Y5139296D01*
X8201905Y5139111D01*
X8201997Y5139019D01*
X8202829Y5137724D01*
X8203661Y5136430D01*
X8204308Y5135136D01*
X8204863Y5133749D01*
X8205695Y5130975D01*
X8206250Y5128479D01*
X8206527Y5127277D01*
X8206620Y5126260D01*
X8206712Y5125243D01*
X8206805Y5124411D01*
X8206897Y5123763D01*
Y5122839D01*
X8206712Y5119788D01*
X8206250Y5116829D01*
X8205695Y5114240D01*
X8205325Y5113039D01*
X8204956Y5111929D01*
X8204586Y5110912D01*
X8204216Y5109987D01*
X8203939Y5109248D01*
X8203661Y5108508D01*
X8203384Y5108046D01*
X8203199Y5107676D01*
X8203107Y5107399D01*
X8203014Y5107306D01*
X8201442Y5104810D01*
X8199593Y5102683D01*
X8197744Y5100834D01*
X8195895Y5099263D01*
X8194231Y5098061D01*
X8193491Y5097598D01*
X8192844Y5097229D01*
X8192382Y5096859D01*
X8192012Y5096674D01*
X8191734Y5096581D01*
X8191642Y5096489D01*
X8188776Y5095195D01*
X8185817Y5094270D01*
X8182859Y5093623D01*
X8180177Y5093161D01*
X8178976Y5092976D01*
X8177774Y5092883D01*
X8176849Y5092791D01*
X8175924D01*
X8175277Y5092698D01*
X8174723D01*
X8174353D01*
X8174260D01*
X8170932Y5092883D01*
X8167696Y5093253D01*
X8164830Y5093715D01*
X8163443Y5094085D01*
X8162241Y5094362D01*
X8161132Y5094640D01*
X8160114Y5095010D01*
X8159190Y5095287D01*
X8158450Y5095472D01*
X8157896Y5095749D01*
X8157433Y5095842D01*
X8157156Y5096027D01*
X8157063D01*
X8154290Y5097413D01*
X8151793Y5098985D01*
X8149667Y5100649D01*
X8148835Y5101482D01*
X8148003Y5102221D01*
X8147263Y5102961D01*
X8146616Y5103700D01*
X8146061Y5104348D01*
X8145691Y5104902D01*
X8145322Y5105272D01*
X8145044Y5105642D01*
X8144952Y5105827D01*
X8144859Y5105919D01*
X8144120Y5107214D01*
X8143472Y5108508D01*
X8142455Y5111282D01*
X8141716Y5114056D01*
X8141253Y5116737D01*
X8141069Y5118031D01*
X8140884Y5119141D01*
X8140791Y5120158D01*
Y5120990D01*
X8140699Y5121729D01*
Y5122746D01*
X8140791Y5124596D01*
X8140976Y5126352D01*
X8141161Y5128016D01*
X8141531Y5129588D01*
X8141993Y5131067D01*
X8142455Y5132454D01*
X8142918Y5133749D01*
X8143472Y5134951D01*
X8143935Y5135968D01*
X8144397Y5136985D01*
X8144859Y5137724D01*
X8145322Y5138464D01*
X8145691Y5138926D01*
X8145876Y5139389D01*
X8146061Y5139573D01*
X8146154Y5139666D01*
X8147263Y5140960D01*
X8148373Y5142070D01*
X8149667Y5143087D01*
X8150961Y5144104D01*
X8153550Y5145768D01*
X8156139Y5147062D01*
X8157341Y5147617D01*
X8158450Y5148079D01*
X8159467Y5148449D01*
X8160299Y5148727D01*
X8161039Y5149004D01*
X8161594Y5149189D01*
X8161964Y5149281D01*
X8162056D01*
X8164183Y5140775D01*
D02*
G37*
G36*
X9050268Y5270316D02*
X9053504Y5269947D01*
X9056370Y5269484D01*
X9057757Y5269114D01*
X9058959Y5268837D01*
X9060068Y5268560D01*
X9061085Y5268190D01*
X9062010Y5267913D01*
X9062749Y5267728D01*
X9063304Y5267450D01*
X9063766Y5267358D01*
X9064044Y5267173D01*
X9064136D01*
X9066910Y5265786D01*
X9069406Y5264214D01*
X9071533Y5262550D01*
X9072365Y5261718D01*
X9073197Y5260978D01*
X9073936Y5260239D01*
X9074584Y5259499D01*
X9075138Y5258852D01*
X9075508Y5258297D01*
X9075878Y5257927D01*
X9076155Y5257557D01*
X9076248Y5257373D01*
X9076340Y5257280D01*
X9077080Y5255986D01*
X9077727Y5254691D01*
X9078744Y5251918D01*
X9079484Y5249144D01*
X9079946Y5246463D01*
X9080131Y5245168D01*
X9080316Y5244059D01*
X9080408Y5243042D01*
Y5242210D01*
X9080501Y5241470D01*
Y5240453D01*
X9080408Y5238604D01*
X9080223Y5236847D01*
X9080038Y5235183D01*
X9079669Y5233611D01*
X9079206Y5232132D01*
X9078744Y5230745D01*
X9078282Y5229451D01*
X9077727Y5228249D01*
X9077265Y5227232D01*
X9076803Y5226215D01*
X9076340Y5225475D01*
X9075878Y5224736D01*
X9075508Y5224273D01*
X9075323Y5223811D01*
X9075138Y5223626D01*
X9075046Y5223534D01*
X9073936Y5222239D01*
X9072827Y5221130D01*
X9071533Y5220113D01*
X9070238Y5219096D01*
X9067649Y5217432D01*
X9065061Y5216137D01*
X9063859Y5215582D01*
X9062749Y5215120D01*
X9061732Y5214750D01*
X9060900Y5214473D01*
X9060160Y5214196D01*
X9059606Y5214011D01*
X9059236Y5213918D01*
X9059143D01*
X9057017Y5222424D01*
X9058496Y5222794D01*
X9059883Y5223256D01*
X9061177Y5223719D01*
X9062379Y5224181D01*
X9063489Y5224736D01*
X9064413Y5225290D01*
X9065338Y5225937D01*
X9066170Y5226492D01*
X9066910Y5226954D01*
X9067464Y5227509D01*
X9068019Y5227972D01*
X9068481Y5228341D01*
X9068759Y5228711D01*
X9069036Y5228989D01*
X9069129Y5229081D01*
X9069221Y5229173D01*
X9069961Y5230098D01*
X9070516Y5231115D01*
X9071533Y5233149D01*
X9072272Y5235091D01*
X9072734Y5237032D01*
X9073104Y5238696D01*
X9073197Y5239344D01*
Y5239991D01*
X9073289Y5240546D01*
Y5241193D01*
X9073197Y5243319D01*
X9072827Y5245353D01*
X9072365Y5247202D01*
X9071810Y5248867D01*
X9071255Y5250161D01*
X9070978Y5250716D01*
X9070793Y5251178D01*
X9070608Y5251548D01*
X9070423Y5251825D01*
X9070331Y5252010D01*
Y5252103D01*
X9069036Y5253859D01*
X9067649Y5255338D01*
X9066078Y5256633D01*
X9064598Y5257650D01*
X9063304Y5258482D01*
X9062194Y5259037D01*
X9061732Y5259222D01*
X9061455Y5259407D01*
X9061270Y5259499D01*
X9061177D01*
X9058774Y5260239D01*
X9056370Y5260793D01*
X9053966Y5261256D01*
X9051747Y5261533D01*
X9050730Y5261625D01*
X9049805Y5261718D01*
X9048973D01*
X9048326Y5261810D01*
X9047771D01*
X9047309D01*
X9047032D01*
X9046939D01*
X9044535Y5261718D01*
X9042316Y5261533D01*
X9040282Y5261163D01*
X9038433Y5260793D01*
X9036862Y5260516D01*
X9036214Y5260331D01*
X9035660Y5260146D01*
X9035197Y5260054D01*
X9034920Y5259961D01*
X9034735Y5259869D01*
X9034643D01*
X9032516Y5258944D01*
X9030575Y5257927D01*
X9029003Y5256818D01*
X9027616Y5255616D01*
X9026506Y5254599D01*
X9025767Y5253767D01*
X9025305Y5253120D01*
X9025120Y5253027D01*
Y5252935D01*
X9023918Y5250993D01*
X9022993Y5248867D01*
X9022346Y5246833D01*
X9021976Y5244891D01*
X9021699Y5243134D01*
X9021606Y5242395D01*
Y5241747D01*
X9021514Y5241285D01*
Y5240546D01*
X9021606Y5238234D01*
X9021976Y5236108D01*
X9022531Y5234351D01*
X9023086Y5232779D01*
X9023733Y5231577D01*
X9024195Y5230653D01*
X9024565Y5230098D01*
X9024750Y5229913D01*
X9026137Y5228434D01*
X9027708Y5227047D01*
X9029373Y5225937D01*
X9031037Y5225013D01*
X9032516Y5224273D01*
X9033256Y5223996D01*
X9033810Y5223811D01*
X9034273Y5223626D01*
X9034643Y5223441D01*
X9034827Y5223349D01*
X9034920D01*
X9032978Y5215028D01*
X9031314Y5215582D01*
X9029835Y5216137D01*
X9028448Y5216877D01*
X9027061Y5217524D01*
X9025859Y5218264D01*
X9024750Y5219096D01*
X9023640Y5219835D01*
X9022716Y5220575D01*
X9021976Y5221315D01*
X9021236Y5221962D01*
X9020589Y5222609D01*
X9020127Y5223071D01*
X9019665Y5223534D01*
X9019387Y5223903D01*
X9019295Y5224088D01*
X9019202Y5224181D01*
X9018370Y5225475D01*
X9017538Y5226770D01*
X9016891Y5228064D01*
X9016336Y5229451D01*
X9015504Y5232224D01*
X9014949Y5234721D01*
X9014672Y5235923D01*
X9014580Y5236940D01*
X9014487Y5237957D01*
X9014395Y5238789D01*
X9014302Y5239436D01*
Y5240361D01*
X9014487Y5243412D01*
X9014949Y5246370D01*
X9015504Y5248959D01*
X9015874Y5250161D01*
X9016244Y5251270D01*
X9016614Y5252287D01*
X9016983Y5253212D01*
X9017261Y5253952D01*
X9017538Y5254691D01*
X9017816Y5255154D01*
X9018001Y5255523D01*
X9018093Y5255801D01*
X9018185Y5255893D01*
X9019757Y5258390D01*
X9021606Y5260516D01*
X9023455Y5262365D01*
X9025305Y5263937D01*
X9026969Y5265139D01*
X9027708Y5265601D01*
X9028356Y5265971D01*
X9028818Y5266341D01*
X9029188Y5266526D01*
X9029465Y5266618D01*
X9029558Y5266711D01*
X9032424Y5268005D01*
X9035382Y5268930D01*
X9038341Y5269577D01*
X9041022Y5270039D01*
X9042224Y5270224D01*
X9043426Y5270316D01*
X9044350Y5270409D01*
X9045275D01*
X9045922Y5270501D01*
X9046477D01*
X9046847D01*
X9046939D01*
X9050268Y5270316D01*
D02*
G37*
G36*
X9038248Y5199310D02*
X9037601Y5197923D01*
X9036954Y5196536D01*
X9036307Y5195242D01*
X9035752Y5194133D01*
X9035290Y5193208D01*
X9034920Y5192653D01*
X9034827Y5192561D01*
Y5192468D01*
X9033810Y5190804D01*
X9032793Y5189325D01*
X9031869Y5188031D01*
X9031037Y5187014D01*
X9030390Y5186089D01*
X9029835Y5185534D01*
X9029465Y5185072D01*
X9029373Y5184979D01*
X9079391D01*
Y5177121D01*
X9015134D01*
Y5182206D01*
X9016706Y5183130D01*
X9018185Y5184147D01*
X9019665Y5185349D01*
X9020959Y5186459D01*
X9022069Y5187568D01*
X9022993Y5188400D01*
X9023270Y5188770D01*
X9023548Y5189048D01*
X9023640Y5189140D01*
X9023733Y5189232D01*
X9025305Y5191174D01*
X9026784Y5193116D01*
X9028078Y5194965D01*
X9029095Y5196814D01*
X9030020Y5198386D01*
X9030390Y5199033D01*
X9030667Y5199588D01*
X9030944Y5200050D01*
X9031037Y5200420D01*
X9031222Y5200605D01*
Y5200697D01*
X9038803D01*
X9038248Y5199310D01*
D02*
G37*
G36*
X9063951Y5156688D02*
X9065338Y5156411D01*
X9067927Y5155578D01*
X9070146Y5154561D01*
X9071070Y5154007D01*
X9071995Y5153452D01*
X9072827Y5152897D01*
X9073474Y5152343D01*
X9074121Y5151880D01*
X9074584Y5151418D01*
X9074953Y5151141D01*
X9075231Y5150863D01*
X9075416Y5150678D01*
X9075508Y5150586D01*
X9076340Y5149476D01*
X9077172Y5148367D01*
X9077820Y5147257D01*
X9078374Y5146055D01*
X9079299Y5143744D01*
X9079854Y5141525D01*
X9080038Y5140508D01*
X9080223Y5139584D01*
X9080316Y5138751D01*
X9080408Y5138012D01*
X9080501Y5137457D01*
Y5136625D01*
X9080408Y5134868D01*
X9080223Y5133297D01*
X9079946Y5131725D01*
X9079576Y5130246D01*
X9079114Y5128859D01*
X9078652Y5127657D01*
X9078097Y5126455D01*
X9077542Y5125438D01*
X9077080Y5124421D01*
X9076525Y5123589D01*
X9076063Y5122849D01*
X9075601Y5122294D01*
X9075231Y5121832D01*
X9074953Y5121462D01*
X9074768Y5121277D01*
X9074676Y5121185D01*
X9073567Y5120075D01*
X9072365Y5119151D01*
X9071163Y5118319D01*
X9069961Y5117579D01*
X9068851Y5117024D01*
X9067649Y5116470D01*
X9065430Y5115730D01*
X9064413Y5115545D01*
X9063489Y5115360D01*
X9062657Y5115175D01*
X9061917Y5115083D01*
X9061362Y5114990D01*
X9060900D01*
X9060623D01*
X9060530D01*
X9058311Y5115083D01*
X9056277Y5115453D01*
X9054521Y5116007D01*
X9053041Y5116562D01*
X9051839Y5117117D01*
X9050915Y5117672D01*
X9050360Y5118041D01*
X9050175Y5118134D01*
X9048788Y5119428D01*
X9047586Y5120815D01*
X9046662Y5122294D01*
X9045922Y5123774D01*
X9045367Y5125068D01*
X9044998Y5126085D01*
X9044905Y5126455D01*
X9044813Y5126732D01*
X9044720Y5126917D01*
Y5127010D01*
X9043888Y5125438D01*
X9043056Y5124143D01*
X9042132Y5123034D01*
X9041299Y5122109D01*
X9040560Y5121370D01*
X9039913Y5120815D01*
X9039543Y5120538D01*
X9039358Y5120445D01*
X9038063Y5119706D01*
X9036769Y5119151D01*
X9035475Y5118689D01*
X9034273Y5118411D01*
X9033256Y5118226D01*
X9032516Y5118134D01*
X9031961D01*
X9031776D01*
X9030205Y5118226D01*
X9028633Y5118504D01*
X9027246Y5118873D01*
X9026044Y5119336D01*
X9025027Y5119798D01*
X9024195Y5120168D01*
X9023733Y5120445D01*
X9023548Y5120538D01*
X9022161Y5121462D01*
X9020959Y5122572D01*
X9019942Y5123681D01*
X9019018Y5124791D01*
X9018370Y5125715D01*
X9017816Y5126547D01*
X9017538Y5127102D01*
X9017446Y5127194D01*
Y5127287D01*
X9016706Y5128951D01*
X9016151Y5130615D01*
X9015689Y5132280D01*
X9015412Y5133759D01*
X9015227Y5134961D01*
X9015134Y5135978D01*
Y5138289D01*
X9015319Y5139584D01*
X9015782Y5142080D01*
X9016521Y5144206D01*
X9017261Y5146055D01*
X9017723Y5146888D01*
X9018093Y5147535D01*
X9018463Y5148182D01*
X9018833Y5148644D01*
X9019110Y5149014D01*
X9019295Y5149291D01*
X9019387Y5149476D01*
X9019480Y5149569D01*
X9021236Y5151325D01*
X9023178Y5152712D01*
X9025212Y5153822D01*
X9027246Y5154746D01*
X9029003Y5155301D01*
X9029742Y5155578D01*
X9030390Y5155763D01*
X9030944Y5155856D01*
X9031314Y5155948D01*
X9031592Y5156041D01*
X9031684D01*
X9033071Y5148182D01*
X9031037Y5147812D01*
X9029280Y5147257D01*
X9027801Y5146610D01*
X9026599Y5145963D01*
X9025674Y5145316D01*
X9025027Y5144761D01*
X9024565Y5144391D01*
X9024472Y5144299D01*
X9023548Y5143097D01*
X9022808Y5141803D01*
X9022346Y5140601D01*
X9021976Y5139399D01*
X9021791Y5138289D01*
X9021606Y5137457D01*
Y5136717D01*
X9021699Y5135053D01*
X9022069Y5133574D01*
X9022531Y5132280D01*
X9022993Y5131170D01*
X9023548Y5130338D01*
X9024010Y5129691D01*
X9024380Y5129229D01*
X9024472Y5129136D01*
X9025582Y5128119D01*
X9026784Y5127379D01*
X9027986Y5126917D01*
X9029095Y5126547D01*
X9030112Y5126362D01*
X9030852Y5126177D01*
X9031407D01*
X9031499D01*
X9031592D01*
X9032609D01*
X9033533Y5126362D01*
X9035105Y5126825D01*
X9036492Y5127472D01*
X9037694Y5128211D01*
X9038526Y5128951D01*
X9039173Y5129598D01*
X9039543Y5130061D01*
X9039635Y5130153D01*
Y5130246D01*
X9040467Y5131817D01*
X9041115Y5133297D01*
X9041577Y5134868D01*
X9041854Y5136255D01*
X9042039Y5137457D01*
X9042224Y5138474D01*
Y5139676D01*
X9042132Y5140046D01*
Y5140508D01*
X9049066Y5141433D01*
X9048788Y5140231D01*
X9048603Y5139121D01*
X9048419Y5138197D01*
X9048326Y5137365D01*
X9048234Y5136717D01*
Y5135885D01*
X9048419Y5133944D01*
X9048788Y5132187D01*
X9049343Y5130615D01*
X9049990Y5129321D01*
X9050637Y5128304D01*
X9051192Y5127564D01*
X9051562Y5127102D01*
X9051747Y5126917D01*
X9053134Y5125715D01*
X9054613Y5124791D01*
X9056092Y5124143D01*
X9057572Y5123774D01*
X9058774Y5123496D01*
X9059791Y5123404D01*
X9060160Y5123311D01*
X9060438D01*
X9060623D01*
X9060715D01*
X9062749Y5123496D01*
X9064598Y5123959D01*
X9066170Y5124513D01*
X9067557Y5125253D01*
X9068666Y5125993D01*
X9069498Y5126547D01*
X9070053Y5127010D01*
X9070238Y5127194D01*
X9071533Y5128674D01*
X9072457Y5130246D01*
X9073104Y5131817D01*
X9073567Y5133297D01*
X9073844Y5134591D01*
X9073936Y5135608D01*
X9074029Y5135978D01*
Y5136533D01*
X9073936Y5138197D01*
X9073567Y5139768D01*
X9073104Y5141155D01*
X9072550Y5142265D01*
X9072087Y5143189D01*
X9071625Y5143929D01*
X9071255Y5144299D01*
X9071163Y5144484D01*
X9069868Y5145593D01*
X9068389Y5146518D01*
X9066817Y5147350D01*
X9065153Y5147997D01*
X9063766Y5148459D01*
X9063119Y5148644D01*
X9062564Y5148737D01*
X9062102Y5148829D01*
X9061732Y5148922D01*
X9061547Y5149014D01*
X9061455D01*
X9062472Y5156873D01*
X9063951Y5156688D01*
D02*
G37*
%LPC*%
G36*
X10485795Y5009859D02*
X10465640D01*
X10463144Y5009767D01*
X10461017Y5009397D01*
X10459168Y5008935D01*
X10457781Y5008380D01*
X10456579Y5007825D01*
X10455840Y5007363D01*
X10455377Y5006993D01*
X10455192Y5006901D01*
X10454083Y5005699D01*
X10453251Y5004497D01*
X10452696Y5003202D01*
X10452234Y5002093D01*
X10452049Y5000983D01*
X10451956Y5000151D01*
X10451864Y4999597D01*
Y4999504D01*
Y4999412D01*
X10451956Y4998302D01*
X10452141Y4997193D01*
X10452419Y4996268D01*
X10452696Y4995436D01*
X10453066Y4994696D01*
X10453343Y4994142D01*
X10453528Y4993772D01*
X10453621Y4993679D01*
X10454268Y4992755D01*
X10455100Y4991923D01*
X10455932Y4991276D01*
X10456764Y4990721D01*
X10457504Y4990351D01*
X10458059Y4990074D01*
X10458428Y4989889D01*
X10458613Y4989796D01*
X10459908Y4989426D01*
X10461387Y4989149D01*
X10462866Y4988964D01*
X10464346Y4988872D01*
X10465640Y4988779D01*
X10466749Y4988687D01*
X10485795D01*
Y5009859D01*
D02*
G37*
G36*
X10358206Y5004219D02*
Y4975558D01*
X10378362D01*
X10358206Y5004219D01*
D02*
G37*
G36*
X10390752Y3582703D02*
X10371706D01*
Y3561530D01*
X10391861D01*
X10394358Y3561623D01*
X10396484Y3561992D01*
X10398333Y3562455D01*
X10399720Y3563009D01*
X10400922Y3563564D01*
X10401662Y3564026D01*
X10402124Y3564396D01*
X10402309Y3564489D01*
X10403418Y3565691D01*
X10404250Y3566893D01*
X10404805Y3568187D01*
X10405267Y3569296D01*
X10405452Y3570406D01*
X10405545Y3571238D01*
X10405637Y3571793D01*
Y3571885D01*
Y3571978D01*
X10405545Y3573087D01*
X10405360Y3574197D01*
X10405083Y3575121D01*
X10404805Y3575953D01*
X10404435Y3576693D01*
X10404158Y3577248D01*
X10403973Y3577617D01*
X10403881Y3577710D01*
X10403233Y3578634D01*
X10402401Y3579467D01*
X10401569Y3580114D01*
X10400737Y3580668D01*
X10399997Y3581038D01*
X10399443Y3581316D01*
X10399073Y3581501D01*
X10398888Y3581593D01*
X10397594Y3581963D01*
X10396114Y3582240D01*
X10394635Y3582425D01*
X10393156Y3582518D01*
X10391861Y3582610D01*
X10390752Y3582703D01*
D02*
G37*
%LPD*%
D53*
X10649301Y4870501D02*
Y5035499D01*
X10339299Y4870501D02*
X10649301D01*
X10339299D02*
Y5035499D01*
X10649301D01*
X10109688Y3494090D02*
X10540512D01*
Y3744910D01*
X10109688D02*
X10540512D01*
X10109688Y3494090D02*
Y3744910D01*
X7690698Y4567702D02*
X8590702D01*
X7690698D02*
Y5617698D01*
X8590702D01*
Y4567702D02*
Y5617698D01*
X8980500Y5465811D02*
X9180500D01*
Y5075189D02*
Y5465811D01*
X8980500Y5075189D02*
X9180500D01*
X8980500D02*
Y5465811D01*
%TF.MD5,ceef7b3eb435f1e2109b5bbe68de88a2*%
M02*
