%TF.GenerationSoftware,Altium Limited,Altium Designer,23.6.0 (18)*%
G04 Layer_Color=8421504*
%FSLAX45Y45*%
%MOMM*%
%TF.SameCoordinates,CA757A27-890D-4031-9470-5F8B39CF6935*%
%TF.FilePolarity,Positive*%
%TF.FileFunction,Paste,Top*%
%TF.Part,Single*%
G01*
G75*
%TA.AperFunction,SMDPad,CuDef*%
%ADD10R,2.95000X1.00000*%
%ADD11R,1.45000X0.65000*%
%ADD12R,1.05000X0.90000*%
%ADD13R,4.60000X1.35000*%
%ADD14R,9.40000X10.80000*%
%ADD15R,0.90000X1.00000*%
%ADD16C,1.00000*%
%ADD17C,3.00000*%
%ADD18R,4.25000X2.10000*%
%ADD19R,1.29540X1.65100*%
%ADD20R,1.45000X0.45000*%
%ADD21R,2.74000X3.86000*%
%ADD22R,3.55600X2.03200*%
%ADD23R,1.47000X0.97000*%
%ADD24R,0.60000X0.75000*%
%ADD25R,0.65000X0.90000*%
%ADD26R,0.80000X0.90000*%
%ADD27R,2.00000X2.00000*%
%ADD28R,1.52500X0.65000*%
%ADD29R,1.45000X1.50000*%
%ADD30R,0.78000X0.98000*%
%ADD31R,2.05000X4.30000*%
D10*
X17475697Y5969701D02*
D03*
Y5669702D02*
D03*
Y5369702D02*
D03*
Y5069698D02*
D03*
Y4769698D02*
D03*
Y4469699D02*
D03*
X14680702D02*
D03*
Y4769698D02*
D03*
Y5069698D02*
D03*
Y5369702D02*
D03*
Y5669702D02*
D03*
Y5969701D02*
D03*
D11*
X6754500Y5511800D02*
D03*
Y5384800D02*
D03*
Y5257800D02*
D03*
Y5130800D02*
D03*
X6199500D02*
D03*
Y5257800D02*
D03*
Y5384800D02*
D03*
Y5511800D02*
D03*
D12*
X4114800Y5414201D02*
D03*
Y5279200D02*
D03*
X5168900Y5414196D02*
D03*
Y5279200D02*
D03*
D13*
X17169901Y9842500D02*
D03*
Y10350500D02*
D03*
X3061200Y9842500D02*
D03*
Y10350500D02*
D03*
D14*
X16344901Y10071100D02*
D03*
X3886200Y10121900D02*
D03*
D15*
X16967200Y7670800D02*
D03*
X16807201D02*
D03*
X8683000Y4013200D02*
D03*
X8843000D02*
D03*
X6384300Y3759200D02*
D03*
X6544300D02*
D03*
X6367800Y3327400D02*
D03*
X6527800D02*
D03*
D16*
X4980000Y5140000D02*
D03*
X4550000Y5270000D02*
D03*
X8484050Y4020650D02*
D03*
X8354050Y3820650D02*
D03*
X5990000Y4100000D02*
D03*
D17*
X8775700Y1828800D02*
D03*
X8940000Y5420000D02*
D03*
X4530000Y11160000D02*
D03*
X13930000Y5400000D02*
D03*
X15350000Y11280000D02*
D03*
X10198100Y3454400D02*
D03*
X2413000Y9156700D02*
D03*
D18*
X15951199Y7162800D02*
D03*
X15111200D02*
D03*
D19*
X5168900Y6564630D02*
D03*
X5422900D02*
D03*
Y5652770D02*
D03*
X5168900D02*
D03*
X4114800Y5640070D02*
D03*
X4368800D02*
D03*
Y6551930D02*
D03*
X4114800D02*
D03*
D20*
X8001401Y3466699D02*
D03*
Y3531702D02*
D03*
Y3596701D02*
D03*
Y3661700D02*
D03*
Y3726698D02*
D03*
Y3791702D02*
D03*
Y3856700D02*
D03*
Y3921699D02*
D03*
Y3986698D02*
D03*
Y4051701D02*
D03*
X7416399D02*
D03*
Y3986698D02*
D03*
Y3921699D02*
D03*
Y3856700D02*
D03*
Y3791702D02*
D03*
Y3726698D02*
D03*
Y3661700D02*
D03*
Y3596701D02*
D03*
Y3531702D02*
D03*
Y3466699D02*
D03*
D21*
X7708900Y3759200D02*
D03*
D22*
X16357600Y9156700D02*
D03*
Y8470900D02*
D03*
X14008099Y5981700D02*
D03*
Y6667500D02*
D03*
X3911600Y9321800D02*
D03*
Y8636000D02*
D03*
D23*
X13652499Y3867602D02*
D03*
Y3701598D02*
D03*
X13347701Y3867602D02*
D03*
Y3701598D02*
D03*
X13042900Y3867602D02*
D03*
Y3701598D02*
D03*
X12738100D02*
D03*
Y3867602D02*
D03*
X12433300D02*
D03*
Y3701598D02*
D03*
D24*
X8781801Y4478802D02*
D03*
X8591799D02*
D03*
X8686800Y4258798D02*
D03*
D25*
X8896701Y3581400D02*
D03*
X8781699D02*
D03*
X8795101Y3302000D02*
D03*
X8680099D02*
D03*
X8677802Y3035300D02*
D03*
X8822800D02*
D03*
X6511402Y3543300D02*
D03*
X6366398D02*
D03*
X6536802Y4013200D02*
D03*
X6391798D02*
D03*
D26*
X4813300Y6320699D02*
D03*
Y6150701D02*
D03*
X3822700Y6320699D02*
D03*
Y6150701D02*
D03*
D27*
X2019300Y8026400D02*
D03*
Y7426401D02*
D03*
X2819400Y6913601D02*
D03*
Y7513599D02*
D03*
Y8478799D02*
D03*
Y7878801D02*
D03*
D28*
X5202499Y3721100D02*
D03*
Y3848100D02*
D03*
Y3975100D02*
D03*
Y4102100D02*
D03*
X5744901D02*
D03*
Y3975100D02*
D03*
Y3848100D02*
D03*
Y3721100D02*
D03*
D29*
X17195799Y8470900D02*
D03*
Y8670900D02*
D03*
D30*
X8820302Y3784600D02*
D03*
X8680298D02*
D03*
D31*
X13004800Y5220599D02*
D03*
Y4380601D02*
D03*
%TF.MD5,602555463e2e88e42a492e47278f8f37*%
M02*
