%TF.GenerationSoftware,Altium Limited,Altium Designer,23.6.0 (18)*%
G04 Layer_Color=128*
%FSLAX45Y45*%
%MOMM*%
%TF.SameCoordinates,CA757A27-890D-4031-9470-5F8B39CF6935*%
%TF.FilePolarity,Positive*%
%TF.FileFunction,Drillmap*%
%TF.Part,Single*%
G01*
G75*
%TA.AperFunction,NonConductor*%
%ADD56C,0.12700*%
D56*
X16842000Y3238999D02*
X17181999D01*
X17012000Y3068999D02*
Y3408999D01*
X5615401Y13986131D02*
X5955401D01*
X5785401Y13816132D02*
Y14156131D01*
X2985593Y3238999D02*
X3325593D01*
X3155593Y3068999D02*
Y3408999D01*
X14212193Y13986131D02*
X14552193D01*
X14382193Y13816132D02*
Y14156131D01*
X5703098Y9325698D02*
X5803098D01*
X5753098Y9275698D02*
Y9375698D01*
X5703098Y8225701D02*
X5803098D01*
X5753098Y8175701D02*
Y8275700D01*
X4668100Y8525700D02*
X4838100D01*
X4753100Y8440700D02*
Y8610700D01*
X4668100Y9025699D02*
X4838100D01*
X4753100Y8940699D02*
Y9110699D01*
X5703100Y10773501D02*
X5803100D01*
X5753100Y10723502D02*
Y10823501D01*
X5703100Y9673499D02*
X5803100D01*
X5753100Y9623499D02*
Y9723498D01*
X4668102Y9973498D02*
X4838102D01*
X4753102Y9888498D02*
Y10058498D01*
X4668102Y10473502D02*
X4838102D01*
X4753102Y10388502D02*
Y10558502D01*
X6942198Y12001500D02*
X7082198D01*
X7012198Y11931500D02*
Y12071500D01*
X6522199Y12001500D02*
X6662199D01*
X6592199Y11931500D02*
Y12071500D01*
X6102200Y12001500D02*
X6242200D01*
X6172200Y11931500D02*
Y12071500D01*
X5682201Y12001500D02*
X5822201D01*
X5752201Y11931500D02*
Y12071500D01*
X6942198Y12551501D02*
X7082198D01*
X7012198Y12481502D02*
Y12621501D01*
X6522199Y12551501D02*
X6662199D01*
X6592199Y12481502D02*
Y12621501D01*
X6102200Y12551501D02*
X6242200D01*
X6172200Y12481502D02*
Y12621501D01*
X5682201Y12551501D02*
X5822201D01*
X5752201Y12481502D02*
Y12621501D01*
X7332200Y12505502D02*
X7632200D01*
X7482200Y12355502D02*
Y12655502D01*
X5132199Y12505502D02*
X5432199D01*
X5282199Y12355502D02*
Y12655502D01*
X14428000Y8225699D02*
X14528000D01*
X14478000Y8175699D02*
Y8275698D01*
X14428000Y9325701D02*
X14528000D01*
X14478000Y9275702D02*
Y9375701D01*
X15392998Y9025702D02*
X15562997D01*
X15477998Y8940702D02*
Y9110702D01*
X15392998Y8525698D02*
X15562997D01*
X15477998Y8440698D02*
Y8610698D01*
X15392998Y9973498D02*
X15562997D01*
X15477998Y9888498D02*
Y10058498D01*
X15392998Y10473502D02*
X15562997D01*
X15477998Y10388502D02*
Y10558502D01*
X14428000Y10773501D02*
X14528000D01*
X14478000Y10723502D02*
Y10823501D01*
X14428000Y9673499D02*
X14528000D01*
X14478000Y9623499D02*
Y9723498D01*
X17964441Y10000000D02*
X18035561D01*
X18000002Y9964440D02*
Y10035560D01*
X17964441Y9000000D02*
X18035561D01*
X18000002Y8964440D02*
Y9035560D01*
X18214441Y8500000D02*
X18285561D01*
X18250002Y8464440D02*
Y8535560D01*
X17964441Y8000000D02*
X18035561D01*
X18000002Y7964440D02*
Y8035560D01*
X18214441Y7500000D02*
X18285561D01*
X18250002Y7464440D02*
Y7535560D01*
X17964441Y7000000D02*
X18035561D01*
X18000002Y6964440D02*
Y7035560D01*
X18214441Y6500000D02*
X18285561D01*
X18250002Y6464440D02*
Y6535560D01*
X17964441Y6000000D02*
X18035561D01*
X18000002Y5964440D02*
Y6035560D01*
X18214441Y5500000D02*
X18285561D01*
X18250002Y5464440D02*
Y5535560D01*
X17964441Y5000000D02*
X18035561D01*
X18000002Y4964440D02*
Y5035560D01*
X17464441Y10000000D02*
X17535561D01*
X17500002Y9964440D02*
Y10035560D01*
X17714441Y9500000D02*
X17785561D01*
X17750002Y9464440D02*
Y9535560D01*
X17464441Y9000000D02*
X17535561D01*
X17500002Y8964440D02*
Y9035560D01*
X17714441Y8500000D02*
X17785561D01*
X17750002Y8464440D02*
Y8535560D01*
X17464441Y8000000D02*
X17535561D01*
X17500002Y7964440D02*
Y8035560D01*
X17714441Y7500000D02*
X17785561D01*
X17750002Y7464440D02*
Y7535560D01*
X17464441Y7000000D02*
X17535561D01*
X17500002Y6964440D02*
Y7035560D01*
X17714441Y6500000D02*
X17785561D01*
X17750002Y6464440D02*
Y6535560D01*
X17214441Y10500000D02*
X17285561D01*
X17250002Y10464440D02*
Y10535560D01*
X16964441Y10000000D02*
X17035561D01*
X17000002Y9964440D02*
Y10035560D01*
X17214441Y9500000D02*
X17285561D01*
X17250002Y9464440D02*
Y9535560D01*
X16964441Y9000000D02*
X17035561D01*
X17000002Y8964440D02*
Y9035560D01*
X16964441Y8000000D02*
X17035561D01*
X17000002Y7964440D02*
Y8035560D01*
X17214441Y6500000D02*
X17285561D01*
X17250002Y6464440D02*
Y6535560D01*
X16964441Y6000000D02*
X17035561D01*
X17000002Y5964440D02*
Y6035560D01*
X17214441Y3500000D02*
X17285561D01*
X17250002Y3464440D02*
Y3535560D01*
X16464441Y11000000D02*
X16535561D01*
X16500002Y10964440D02*
Y11035560D01*
X16464441Y7000000D02*
X16535561D01*
X16500002Y6964440D02*
Y7035560D01*
X16714441Y6500000D02*
X16785561D01*
X16750002Y6464440D02*
Y6535560D01*
X16464441Y6000000D02*
X16535561D01*
X16500002Y5964440D02*
Y6035560D01*
X16714441Y3500000D02*
X16785561D01*
X16750002Y3464440D02*
Y3535560D01*
X16464441Y3000000D02*
X16535561D01*
X16500002Y2964440D02*
Y3035560D01*
X15964441Y9000000D02*
X16035561D01*
X16000002Y8964440D02*
Y9035560D01*
X15964441Y6000000D02*
X16035561D01*
X16000002Y5964440D02*
Y6035560D01*
X16214441Y3500000D02*
X16285561D01*
X16250002Y3464440D02*
Y3535560D01*
X15464439Y12000000D02*
X15535561D01*
X15500000Y11964440D02*
Y12035560D01*
X15714441Y6500000D02*
X15785561D01*
X15750002Y6464440D02*
Y6535560D01*
X15464439Y6000000D02*
X15535561D01*
X15500000Y5964440D02*
Y6035560D01*
X15714441Y5500000D02*
X15785561D01*
X15750002Y5464440D02*
Y5535560D01*
X15464439Y5000000D02*
X15535561D01*
X15500000Y4964440D02*
Y5035560D01*
X15714441Y3500000D02*
X15785561D01*
X15750002Y3464440D02*
Y3535560D01*
X14964439Y12000000D02*
X15035561D01*
X15000000Y11964440D02*
Y12035560D01*
X15214439Y6500000D02*
X15285561D01*
X15250000Y6464440D02*
Y6535560D01*
X15214439Y5500000D02*
X15285561D01*
X15250000Y5464440D02*
Y5535560D01*
X14964439Y4000000D02*
X15035561D01*
X15000000Y3964440D02*
Y4035560D01*
X14714439Y13500000D02*
X14785561D01*
X14750000Y13464439D02*
Y13535561D01*
X14464439Y13000000D02*
X14535561D01*
X14500000Y12964439D02*
Y13035561D01*
X14714439Y12500000D02*
X14785561D01*
X14750000Y12464440D02*
Y12535560D01*
X14464439Y12000000D02*
X14535561D01*
X14500000Y11964440D02*
Y12035560D01*
X14714439Y11500000D02*
X14785561D01*
X14750000Y11464440D02*
Y11535560D01*
X14464439Y11000000D02*
X14535561D01*
X14500000Y10964440D02*
Y11035560D01*
X14714439Y10500000D02*
X14785561D01*
X14750000Y10464440D02*
Y10535560D01*
X14464439Y10000000D02*
X14535561D01*
X14500000Y9964440D02*
Y10035560D01*
X14464439Y9000000D02*
X14535561D01*
X14500000Y8964440D02*
Y9035560D01*
X14464439Y8000000D02*
X14535561D01*
X14500000Y7964440D02*
Y8035560D01*
X14464439Y4000000D02*
X14535561D01*
X14500000Y3964440D02*
Y4035560D01*
X14464439Y3000000D02*
X14535561D01*
X14500000Y2964440D02*
Y3035560D01*
X13964439Y14000000D02*
X14035561D01*
X14000000Y13964439D02*
Y14035561D01*
X14214439Y13500000D02*
X14285561D01*
X14250000Y13464439D02*
Y13535561D01*
X13964439Y13000000D02*
X14035561D01*
X14000000Y12964439D02*
Y13035561D01*
X14214439Y12500000D02*
X14285561D01*
X14250000Y12464440D02*
Y12535560D01*
X13964439Y12000000D02*
X14035561D01*
X14000000Y11964440D02*
Y12035560D01*
X14214439Y11500000D02*
X14285561D01*
X14250000Y11464440D02*
Y11535560D01*
X13964439Y11000000D02*
X14035561D01*
X14000000Y10964440D02*
Y11035560D01*
X14214439Y10500000D02*
X14285561D01*
X14250000Y10464440D02*
Y10535560D01*
X13964439Y10000000D02*
X14035561D01*
X14000000Y9964440D02*
Y10035560D01*
X14214439Y9500000D02*
X14285561D01*
X14250000Y9464440D02*
Y9535560D01*
X13964439Y9000000D02*
X14035561D01*
X14000000Y8964440D02*
Y9035560D01*
X14214439Y8500000D02*
X14285561D01*
X14250000Y8464440D02*
Y8535560D01*
X13964439Y8000000D02*
X14035561D01*
X14000000Y7964440D02*
Y8035560D01*
X14214439Y7500000D02*
X14285561D01*
X14250000Y7464440D02*
Y7535560D01*
X13964439Y7000000D02*
X14035561D01*
X14000000Y6964440D02*
Y7035560D01*
X13964439Y5000000D02*
X14035561D01*
X14000000Y4964440D02*
Y5035560D01*
X13714439Y13500000D02*
X13785561D01*
X13750000Y13464439D02*
Y13535561D01*
X13464439Y13000000D02*
X13535561D01*
X13500000Y12964439D02*
Y13035561D01*
X13714439Y12500000D02*
X13785561D01*
X13750000Y12464440D02*
Y12535560D01*
X13464439Y12000000D02*
X13535561D01*
X13500000Y11964440D02*
Y12035560D01*
X13714439Y11500000D02*
X13785561D01*
X13750000Y11464440D02*
Y11535560D01*
X13464439Y5000000D02*
X13535561D01*
X13500000Y4964440D02*
Y5035560D01*
X13714439Y3500000D02*
X13785561D01*
X13750000Y3464440D02*
Y3535560D01*
X13214439Y13500000D02*
X13285561D01*
X13250000Y13464439D02*
Y13535561D01*
X12964439Y13000000D02*
X13035561D01*
X13000000Y12964439D02*
Y13035561D01*
X13214439Y12500000D02*
X13285561D01*
X13250000Y12464440D02*
Y12535560D01*
X12964439Y12000000D02*
X13035561D01*
X13000000Y11964440D02*
Y12035560D01*
X13214439Y11500000D02*
X13285561D01*
X13250000Y11464440D02*
Y11535560D01*
X13214439Y5500000D02*
X13285561D01*
X13250000Y5464440D02*
Y5535560D01*
X13214439Y3500000D02*
X13285561D01*
X13250000Y3464440D02*
Y3535560D01*
X13214439Y2500000D02*
X13285561D01*
X13250000Y2464440D02*
Y2535560D01*
X12464440Y13000000D02*
X12535560D01*
X12500000Y12964439D02*
Y13035561D01*
X12714440Y12500000D02*
X12785560D01*
X12750000Y12464440D02*
Y12535560D01*
X12464440Y12000000D02*
X12535560D01*
X12500000Y11964440D02*
Y12035560D01*
X12714440Y11500000D02*
X12785560D01*
X12750000Y11464440D02*
Y11535560D01*
X12714440Y6500000D02*
X12785560D01*
X12750000Y6464440D02*
Y6535560D01*
X12464440Y5000000D02*
X12535560D01*
X12500000Y4964440D02*
Y5035560D01*
X12714440Y3500000D02*
X12785560D01*
X12750000Y3464440D02*
Y3535560D01*
X12714440Y2500000D02*
X12785560D01*
X12750000Y2464440D02*
Y2535560D01*
X12464440Y2000000D02*
X12535560D01*
X12500000Y1964440D02*
Y2035560D01*
X12214440Y3500000D02*
X12285560D01*
X12250000Y3464440D02*
Y3535560D01*
X11964440Y3000000D02*
X12035560D01*
X12000000Y2964440D02*
Y3035560D01*
X11964440Y2000000D02*
X12035560D01*
X12000000Y1964440D02*
Y2035560D01*
X11464440Y2000000D02*
X11535560D01*
X11500000Y1964440D02*
Y2035560D01*
X10964440Y2000000D02*
X11035560D01*
X11000000Y1964440D02*
Y2035560D01*
X10464440Y2000000D02*
X10535560D01*
X10500000Y1964440D02*
Y2035560D01*
X9964440Y2000000D02*
X10035560D01*
X10000000Y1964440D02*
Y2035560D01*
X9714440Y4500000D02*
X9785560D01*
X9750000Y4464440D02*
Y4535560D01*
X9464440Y2000000D02*
X9535560D01*
X9500000Y1964440D02*
Y2035560D01*
X8964440Y5000000D02*
X9035560D01*
X9000000Y4964440D02*
Y5035560D01*
X8964440Y2000000D02*
X9035560D01*
X9000000Y1964440D02*
Y2035560D01*
X8464440Y2000000D02*
X8535560D01*
X8500000Y1964440D02*
Y2035560D01*
X8214440Y4500000D02*
X8285560D01*
X8250000Y4464440D02*
Y4535560D01*
X7964440Y2000000D02*
X8035560D01*
X8000000Y1964440D02*
Y2035560D01*
X7714440Y11500000D02*
X7785560D01*
X7750000Y11464440D02*
Y11535560D01*
X7714440Y6500000D02*
X7785560D01*
X7750000Y6464440D02*
Y6535560D01*
X7464440Y5000000D02*
X7535560D01*
X7500000Y4964440D02*
Y5035560D01*
X7464440Y2000000D02*
X7535560D01*
X7500000Y1964440D02*
Y2035560D01*
X7214440Y13500000D02*
X7285560D01*
X7250000Y13464439D02*
Y13535561D01*
X7214440Y11500000D02*
X7285560D01*
X7250000Y11464440D02*
Y11535560D01*
X7214440Y2500000D02*
X7285560D01*
X7250000Y2464440D02*
Y2535560D01*
X6714440Y13500000D02*
X6785560D01*
X6750000Y13464439D02*
Y13535561D01*
X6464440Y13000000D02*
X6535560D01*
X6500000Y12964439D02*
Y13035561D01*
X6714440Y11500000D02*
X6785560D01*
X6750000Y11464440D02*
Y11535560D01*
X6464440Y11000000D02*
X6535560D01*
X6500000Y10964440D02*
Y11035560D01*
X6714440Y2500000D02*
X6785560D01*
X6750000Y2464440D02*
Y2535560D01*
X6214440Y13500000D02*
X6285560D01*
X6250000Y13464439D02*
Y13535561D01*
X5964440Y13000000D02*
X6035560D01*
X6000000Y12964439D02*
Y13035561D01*
X5964440Y8000000D02*
X6035560D01*
X6000000Y7964440D02*
Y8035560D01*
X5464440Y14000000D02*
X5535560D01*
X5500000Y13964439D02*
Y14035561D01*
X5714440Y13500000D02*
X5785560D01*
X5750000Y13464439D02*
Y13535561D01*
X5464440Y13000000D02*
X5535560D01*
X5500000Y12964439D02*
Y13035561D01*
X5464440Y11000000D02*
X5535560D01*
X5500000Y10964440D02*
Y11035560D01*
X5714440Y10500000D02*
X5785560D01*
X5750000Y10464440D02*
Y10535560D01*
X5714440Y9500000D02*
X5785560D01*
X5750000Y9464440D02*
Y9535560D01*
X5464440Y9000000D02*
X5535560D01*
X5500000Y8964440D02*
Y9035560D01*
X5714440Y8500000D02*
X5785560D01*
X5750000Y8464440D02*
Y8535560D01*
X5214440Y8500000D02*
X5285560D01*
X5250000Y8464440D02*
Y8535560D01*
X4964440Y5000000D02*
X5035560D01*
X5000000Y4964440D02*
Y5035560D01*
X4714440Y7500000D02*
X4785560D01*
X4750000Y7464440D02*
Y7535560D01*
X4714440Y6500000D02*
X4785560D01*
X4750000Y6464440D02*
Y6535560D01*
X4714440Y5500000D02*
X4785560D01*
X4750000Y5464440D02*
Y5535560D01*
X4214440Y11500000D02*
X4285560D01*
X4250000Y11464440D02*
Y11535560D01*
X4214440Y3500000D02*
X4285560D01*
X4250000Y3464440D02*
Y3535560D01*
X3714440Y7500000D02*
X3785560D01*
X3750000Y7464440D02*
Y7535560D01*
X3464440Y4000000D02*
X3535560D01*
X3500000Y3964440D02*
Y4035560D01*
X3714440Y3500000D02*
X3785560D01*
X3750000Y3464440D02*
Y3535560D01*
X3464440Y3000000D02*
X3535560D01*
X3500000Y2964440D02*
Y3035560D01*
X3214440Y3500000D02*
X3285560D01*
X3250000Y3464440D02*
Y3535560D01*
X2964440Y3000000D02*
X3035560D01*
X3000000Y2964440D02*
Y3035560D01*
X2714440Y10500000D02*
X2785560D01*
X2750000Y10464440D02*
Y10535560D01*
X2464440Y7000000D02*
X2535560D01*
X2500000Y6964440D02*
Y7035560D01*
X2714440Y3500000D02*
X2785560D01*
X2750000Y3464440D02*
Y3535560D01*
X2214440Y9500000D02*
X2285560D01*
X2250000Y9464440D02*
Y9535560D01*
X1964440Y9000000D02*
X2035560D01*
X2000000Y8964440D02*
Y9035560D01*
X2214440Y8500000D02*
X2285560D01*
X2250000Y8464440D02*
Y8535560D01*
X2214440Y7500000D02*
X2285560D01*
X2250000Y7464440D02*
Y7535560D01*
X5344400Y8572500D02*
X5374400D01*
X5359400Y8557500D02*
Y8587500D01*
X5525000Y8510000D02*
X5555000D01*
X5540000Y8495000D02*
Y8525000D01*
X5655000Y7630175D02*
X5685000D01*
X5670000Y7615175D02*
Y7645175D01*
X5655000Y7500000D02*
X5685000D01*
X5670000Y7485000D02*
Y7515000D01*
X5655000Y7369825D02*
X5685000D01*
X5670000Y7354825D02*
Y7384825D01*
X5655000Y7250000D02*
X5685000D01*
X5670000Y7235000D02*
Y7265000D01*
X2485000Y9709825D02*
X2515000D01*
X2500000Y9694825D02*
Y9724825D01*
X2485000Y9970175D02*
X2515000D01*
X2500000Y9955175D02*
Y9985175D01*
X2485000Y9840000D02*
X2515000D01*
X2500000Y9825000D02*
Y9855000D01*
X2625000Y9859825D02*
X2655000D01*
X2640000Y9844825D02*
Y9874825D01*
X2625000Y10120175D02*
X2655000D01*
X2640000Y10105175D02*
Y10135175D01*
X2625000Y9990000D02*
X2655000D01*
X2640000Y9975000D02*
Y10005000D01*
X2770850Y9960325D02*
X2800850D01*
X2785850Y9945325D02*
Y9975325D01*
X2770850Y10220675D02*
X2800850D01*
X2785850Y10205675D02*
Y10235675D01*
X2770850Y10090500D02*
X2800850D01*
X2785850Y10075500D02*
Y10105500D01*
X6792200Y6451600D02*
X6822200D01*
X6807200Y6436600D02*
Y6466600D01*
X6792200Y6616700D02*
X6822200D01*
X6807200Y6601700D02*
Y6631700D01*
X6792200Y6781800D02*
X6822200D01*
X6807200Y6766800D02*
Y6796800D01*
X11770600Y4097020D02*
X11800600D01*
X11785600Y4082020D02*
Y4112020D01*
X11923000Y4097020D02*
X11953000D01*
X11938000Y4082020D02*
Y4112020D01*
X12062700Y4097020D02*
X12092700D01*
X12077700Y4082020D02*
Y4112020D01*
X12215100Y4097020D02*
X12245100D01*
X12230100Y4082020D02*
Y4112020D01*
X11770600Y3937000D02*
X11800600D01*
X11785600Y3922000D02*
Y3952000D01*
X11923000Y3937000D02*
X11953000D01*
X11938000Y3922000D02*
Y3952000D01*
X12062700Y3937000D02*
X12092700D01*
X12077700Y3922000D02*
Y3952000D01*
X12215100Y3937000D02*
X12245100D01*
X12230100Y3922000D02*
Y3952000D01*
X11770600Y4417060D02*
X11800600D01*
X11785600Y4402060D02*
Y4432060D01*
X11923000Y4417060D02*
X11953000D01*
X11938000Y4402060D02*
Y4432060D01*
X12062700Y4417060D02*
X12092700D01*
X12077700Y4402060D02*
Y4432060D01*
X12215100Y4417060D02*
X12245100D01*
X12230100Y4402060D02*
Y4432060D01*
X11770600Y4257040D02*
X11800600D01*
X11785600Y4242040D02*
Y4272040D01*
X11923000Y4257040D02*
X11953000D01*
X11938000Y4242040D02*
Y4272040D01*
X12062700Y4257040D02*
X12092700D01*
X12077700Y4242040D02*
Y4272040D01*
X12215100Y4257040D02*
X12245100D01*
X12230100Y4242040D02*
Y4272040D01*
X12215100Y4577080D02*
X12245100D01*
X12230100Y4562080D02*
Y4592080D01*
X12062700Y4577080D02*
X12092700D01*
X12077700Y4562080D02*
Y4592080D01*
X11923000Y4577080D02*
X11953000D01*
X11938000Y4562080D02*
Y4592080D01*
X11770600Y4577080D02*
X11800600D01*
X11785600Y4562080D02*
Y4592080D01*
X12215100Y4737100D02*
X12245100D01*
X12230100Y4722100D02*
Y4752100D01*
X12062700Y4737100D02*
X12092700D01*
X12077700Y4722100D02*
Y4752100D01*
X11923000Y4737100D02*
X11953000D01*
X11938000Y4722100D02*
Y4752100D01*
X11770600Y4737100D02*
X11800600D01*
X11785600Y4722100D02*
Y4752100D01*
X4823700Y5270500D02*
X4853700D01*
X4838700Y5255500D02*
Y5285500D01*
X7109700Y4051300D02*
X7139700D01*
X7124700Y4036300D02*
Y4066300D01*
X7109700Y4208780D02*
X7139700D01*
X7124700Y4193780D02*
Y4223780D01*
X7109700Y4368800D02*
X7139700D01*
X7124700Y4353800D02*
Y4383800D01*
X8481300Y3784600D02*
X8511300D01*
X8496300Y3769600D02*
Y3799600D01*
X9250200Y3962400D02*
X9280200D01*
X9265200Y3947400D02*
Y3977400D01*
X9433800Y4610100D02*
X9463800D01*
X9448800Y4595100D02*
Y4625100D01*
X4353800Y6972300D02*
X4383800D01*
X4368800Y6957300D02*
Y6987300D01*
X5001500Y7073900D02*
X5031500D01*
X5016500Y7058900D02*
Y7088900D01*
X5153900Y5054600D02*
X5183900D01*
X5168900Y5039600D02*
Y5069600D01*
X6500100Y4572000D02*
X6530100D01*
X6515100Y4557000D02*
Y4587000D01*
X6335000Y4851400D02*
X6365000D01*
X6350000Y4836400D02*
Y4866400D01*
X7554200Y4559300D02*
X7584200D01*
X7569200Y4544300D02*
Y4574300D01*
X7833600Y4267200D02*
X7863600D01*
X7848600Y4252200D02*
Y4282200D01*
%TF.MD5,a46e7976932e37bbde4d946d6f643b7c*%
M02*
