%TF.GenerationSoftware,Altium Limited,Altium Designer,23.6.0 (18)*%
G04 Layer_Color=128*
%FSLAX45Y45*%
%MOMM*%
%TF.SameCoordinates,CA757A27-890D-4031-9470-5F8B39CF6935*%
%TF.FilePolarity,Positive*%
%TF.FileFunction,Paste,Bot*%
%TF.Part,Single*%
G01*
G75*
%TA.AperFunction,SMDPad,CuDef*%
%ADD23R,1.47000X0.97000*%
%ADD44R,0.95000X1.35000*%
%ADD45R,0.95000X1.45000*%
%ADD46R,3.30000X2.40000*%
%ADD47R,1.35000X0.95000*%
%ADD48R,1.20651X1.50822*%
%ADD49R,2.50000X3.50000*%
%ADD50R,1.70620X1.20443*%
%ADD51R,0.47500X0.30000*%
D23*
X11341100Y2971537D02*
D03*
Y3137541D02*
D03*
D44*
X10601640Y5181600D02*
D03*
X10441641D02*
D03*
D45*
X10396799Y4953000D02*
D03*
X10591800D02*
D03*
D46*
X11353800Y4506300D02*
D03*
Y3596300D02*
D03*
D47*
X11087101Y2980700D02*
D03*
Y3140700D02*
D03*
X11569700Y2978542D02*
D03*
Y3138541D02*
D03*
D48*
X10220015Y3619500D02*
D03*
X10430185D02*
D03*
D49*
X8140700Y5417698D02*
D03*
Y4767702D02*
D03*
D50*
X9080500Y5145410D02*
D03*
Y5395590D02*
D03*
D51*
X9989800Y4839899D02*
D03*
Y4889901D02*
D03*
Y4939899D02*
D03*
Y4989901D02*
D03*
X9822200D02*
D03*
Y4939899D02*
D03*
Y4889901D02*
D03*
Y4839899D02*
D03*
%TF.MD5,cdf95838313a4d1af615878df280216e*%
M02*
