%TF.GenerationSoftware,Altium Limited,Altium Designer,23.6.0 (18)*%
G04 Layer_Color=2752767*
%FSLAX45Y45*%
%MOMM*%
%TF.SameCoordinates,CA757A27-890D-4031-9470-5F8B39CF6935*%
%TF.FilePolarity,Positive*%
%TF.FileFunction,Drawing*%
%TF.Part,Single*%
G01*
G75*
%TA.AperFunction,NonConductor*%
%ADD56C,0.12700*%
%ADD104C,0.16933*%
D56*
X16961200Y3188199D02*
Y3289799D01*
X17062801D01*
Y3188199D01*
X16961200D01*
X5734601Y13935332D02*
Y14036931D01*
X5836201D01*
Y13935332D01*
X5734601D01*
X3104793Y3188199D02*
Y3289799D01*
X3206393D01*
Y3188199D01*
X3104793D01*
X14331393Y13935332D02*
Y14036931D01*
X14432993D01*
Y13935332D01*
X14331393D01*
X5702298Y9274898D02*
X5727698Y9325698D01*
X5702298Y9376498D01*
X5753098Y9351098D01*
X5803898Y9376498D01*
X5778498Y9325698D01*
X5803898Y9274898D01*
X5753098Y9300298D01*
X5702298Y9274898D01*
Y8174901D02*
X5727698Y8225701D01*
X5702298Y8276501D01*
X5753098Y8251101D01*
X5803898Y8276501D01*
X5778498Y8225701D01*
X5803898Y8174901D01*
X5753098Y8200301D01*
X5702298Y8174901D01*
X4727700Y8500300D02*
Y8474900D01*
X4778500D01*
Y8500300D01*
X4803900D01*
Y8551100D01*
X4778500D01*
Y8576500D01*
X4727700D01*
Y8551100D01*
X4702300D01*
Y8500300D01*
X4727700D01*
Y9000299D02*
Y8974899D01*
X4778500D01*
Y9000299D01*
X4803900D01*
Y9051099D01*
X4778500D01*
Y9076499D01*
X4727700D01*
Y9051099D01*
X4702300D01*
Y9000299D01*
X4727700D01*
X5702300Y10722701D02*
X5727700Y10773501D01*
X5702300Y10824301D01*
X5753100Y10798901D01*
X5803900Y10824301D01*
X5778500Y10773501D01*
X5803900Y10722701D01*
X5753100Y10748101D01*
X5702300Y10722701D01*
Y9622699D02*
X5727700Y9673499D01*
X5702300Y9724299D01*
X5753100Y9698899D01*
X5803900Y9724299D01*
X5778500Y9673499D01*
X5803900Y9622699D01*
X5753100Y9648099D01*
X5702300Y9622699D01*
X4727702Y9948098D02*
Y9922698D01*
X4778502D01*
Y9948098D01*
X4803902D01*
Y9998898D01*
X4778502D01*
Y10024298D01*
X4727702D01*
Y9998898D01*
X4702302D01*
Y9948098D01*
X4727702D01*
Y10448102D02*
Y10422702D01*
X4778502D01*
Y10448102D01*
X4803902D01*
Y10498902D01*
X4778502D01*
Y10524302D01*
X4727702D01*
Y10498902D01*
X4702302D01*
Y10448102D01*
X4727702D01*
X7012198Y11950700D02*
X6961398Y12052300D01*
X7062998D01*
X7012198Y11950700D01*
X6592199D02*
X6541399Y12052300D01*
X6642999D01*
X6592199Y11950700D01*
X6172200D02*
X6121400Y12052300D01*
X6223000D01*
X6172200Y11950700D01*
X5752201D02*
X5701401Y12052300D01*
X5803001D01*
X5752201Y11950700D01*
X7012198Y12500701D02*
X6961398Y12602301D01*
X7062998D01*
X7012198Y12500701D01*
X6592199D02*
X6541399Y12602301D01*
X6642999D01*
X6592199Y12500701D01*
X6172200D02*
X6121400Y12602301D01*
X6223000D01*
X6172200Y12500701D01*
X5752201D02*
X5701401Y12602301D01*
X5803001D01*
X5752201Y12500701D01*
X7482200Y12454702D02*
X7507600Y12480102D01*
X7533000D01*
X7507600Y12505502D01*
X7533000Y12530902D01*
X7507600D01*
X7482200Y12556302D01*
X7456800Y12530902D01*
X7431400D01*
X7456800Y12505502D01*
X7431400Y12480102D01*
X7456800D01*
X7482200Y12454702D01*
X5282199D02*
X5307599Y12480102D01*
X5332999D01*
X5307599Y12505502D01*
X5332999Y12530902D01*
X5307599D01*
X5282199Y12556302D01*
X5256799Y12530902D01*
X5231399D01*
X5256799Y12505502D01*
X5231399Y12480102D01*
X5256799D01*
X5282199Y12454702D01*
X14427200Y8174899D02*
X14452600Y8225699D01*
X14427200Y8276499D01*
X14478000Y8251099D01*
X14528799Y8276499D01*
X14503400Y8225699D01*
X14528799Y8174899D01*
X14478000Y8200299D01*
X14427200Y8174899D01*
Y9274901D02*
X14452600Y9325701D01*
X14427200Y9376501D01*
X14478000Y9351101D01*
X14528799Y9376501D01*
X14503400Y9325701D01*
X14528799Y9274901D01*
X14478000Y9300301D01*
X14427200Y9274901D01*
X15452599Y9000302D02*
Y8974902D01*
X15503398D01*
Y9000302D01*
X15528798D01*
Y9051102D01*
X15503398D01*
Y9076502D01*
X15452599D01*
Y9051102D01*
X15427197D01*
Y9000302D01*
X15452599D01*
Y8500298D02*
Y8474898D01*
X15503398D01*
Y8500298D01*
X15528798D01*
Y8551098D01*
X15503398D01*
Y8576498D01*
X15452599D01*
Y8551098D01*
X15427197D01*
Y8500298D01*
X15452599D01*
Y9948098D02*
Y9922698D01*
X15503398D01*
Y9948098D01*
X15528798D01*
Y9998898D01*
X15503398D01*
Y10024298D01*
X15452599D01*
Y9998898D01*
X15427197D01*
Y9948098D01*
X15452599D01*
Y10448102D02*
Y10422702D01*
X15503398D01*
Y10448102D01*
X15528798D01*
Y10498902D01*
X15503398D01*
Y10524302D01*
X15452599D01*
Y10498902D01*
X15427197D01*
Y10448102D01*
X15452599D01*
X14427200Y10722701D02*
X14452600Y10773501D01*
X14427200Y10824301D01*
X14478000Y10798901D01*
X14528799Y10824301D01*
X14503400Y10773501D01*
X14528799Y10722701D01*
X14478000Y10748101D01*
X14427200Y10722701D01*
Y9622699D02*
X14452600Y9673499D01*
X14427200Y9724299D01*
X14478000Y9698899D01*
X14528799Y9724299D01*
X14503400Y9673499D01*
X14528799Y9622699D01*
X14478000Y9648099D01*
X14427200Y9622699D01*
X5308600Y8521700D02*
X5334000D01*
X5359400Y8547100D01*
X5384800Y8521700D01*
X5410200D01*
Y8547100D01*
X5384800Y8572500D01*
X5410200Y8597900D01*
Y8623300D01*
X5384800D01*
X5359400Y8597900D01*
X5334000Y8623300D01*
X5308600D01*
Y8597900D01*
X5334000Y8572500D01*
X5308600Y8547100D01*
Y8521700D01*
X5489200Y8459200D02*
X5514600D01*
X5540000Y8484600D01*
X5565400Y8459200D01*
X5590800D01*
Y8484600D01*
X5565400Y8510000D01*
X5590800Y8535400D01*
Y8560800D01*
X5565400D01*
X5540000Y8535400D01*
X5514600Y8560800D01*
X5489200D01*
Y8535400D01*
X5514600Y8510000D01*
X5489200Y8484600D01*
Y8459200D01*
X5619200Y7579375D02*
X5644600D01*
X5670000Y7604775D01*
X5695400Y7579375D01*
X5720800D01*
Y7604775D01*
X5695400Y7630175D01*
X5720800Y7655575D01*
Y7680975D01*
X5695400D01*
X5670000Y7655575D01*
X5644600Y7680975D01*
X5619200D01*
Y7655575D01*
X5644600Y7630175D01*
X5619200Y7604775D01*
Y7579375D01*
Y7449200D02*
X5644600D01*
X5670000Y7474600D01*
X5695400Y7449200D01*
X5720800D01*
Y7474600D01*
X5695400Y7500000D01*
X5720800Y7525400D01*
Y7550800D01*
X5695400D01*
X5670000Y7525400D01*
X5644600Y7550800D01*
X5619200D01*
Y7525400D01*
X5644600Y7500000D01*
X5619200Y7474600D01*
Y7449200D01*
Y7319025D02*
X5644600D01*
X5670000Y7344425D01*
X5695400Y7319025D01*
X5720800D01*
Y7344425D01*
X5695400Y7369825D01*
X5720800Y7395225D01*
Y7420625D01*
X5695400D01*
X5670000Y7395225D01*
X5644600Y7420625D01*
X5619200D01*
Y7395225D01*
X5644600Y7369825D01*
X5619200Y7344425D01*
Y7319025D01*
Y7199200D02*
X5644600D01*
X5670000Y7224600D01*
X5695400Y7199200D01*
X5720800D01*
Y7224600D01*
X5695400Y7250000D01*
X5720800Y7275400D01*
Y7300800D01*
X5695400D01*
X5670000Y7275400D01*
X5644600Y7300800D01*
X5619200D01*
Y7275400D01*
X5644600Y7250000D01*
X5619200Y7224600D01*
Y7199200D01*
X2449200Y9659025D02*
X2474600D01*
X2500000Y9684425D01*
X2525400Y9659025D01*
X2550800D01*
Y9684425D01*
X2525400Y9709825D01*
X2550800Y9735225D01*
Y9760625D01*
X2525400D01*
X2500000Y9735225D01*
X2474600Y9760625D01*
X2449200D01*
Y9735225D01*
X2474600Y9709825D01*
X2449200Y9684425D01*
Y9659025D01*
Y9919375D02*
X2474600D01*
X2500000Y9944775D01*
X2525400Y9919375D01*
X2550800D01*
Y9944775D01*
X2525400Y9970175D01*
X2550800Y9995575D01*
Y10020975D01*
X2525400D01*
X2500000Y9995575D01*
X2474600Y10020975D01*
X2449200D01*
Y9995575D01*
X2474600Y9970175D01*
X2449200Y9944775D01*
Y9919375D01*
Y9789200D02*
X2474600D01*
X2500000Y9814600D01*
X2525400Y9789200D01*
X2550800D01*
Y9814600D01*
X2525400Y9840000D01*
X2550800Y9865400D01*
Y9890800D01*
X2525400D01*
X2500000Y9865400D01*
X2474600Y9890800D01*
X2449200D01*
Y9865400D01*
X2474600Y9840000D01*
X2449200Y9814600D01*
Y9789200D01*
X2589200Y9809025D02*
X2614600D01*
X2640000Y9834425D01*
X2665400Y9809025D01*
X2690800D01*
Y9834425D01*
X2665400Y9859825D01*
X2690800Y9885225D01*
Y9910625D01*
X2665400D01*
X2640000Y9885225D01*
X2614600Y9910625D01*
X2589200D01*
Y9885225D01*
X2614600Y9859825D01*
X2589200Y9834425D01*
Y9809025D01*
Y10069375D02*
X2614600D01*
X2640000Y10094775D01*
X2665400Y10069375D01*
X2690800D01*
Y10094775D01*
X2665400Y10120175D01*
X2690800Y10145575D01*
Y10170975D01*
X2665400D01*
X2640000Y10145575D01*
X2614600Y10170975D01*
X2589200D01*
Y10145575D01*
X2614600Y10120175D01*
X2589200Y10094775D01*
Y10069375D01*
Y9939200D02*
X2614600D01*
X2640000Y9964600D01*
X2665400Y9939200D01*
X2690800D01*
Y9964600D01*
X2665400Y9990000D01*
X2690800Y10015400D01*
Y10040800D01*
X2665400D01*
X2640000Y10015400D01*
X2614600Y10040800D01*
X2589200D01*
Y10015400D01*
X2614600Y9990000D01*
X2589200Y9964600D01*
Y9939200D01*
X2735050Y9909525D02*
X2760450D01*
X2785850Y9934925D01*
X2811250Y9909525D01*
X2836650D01*
Y9934925D01*
X2811250Y9960325D01*
X2836650Y9985725D01*
Y10011125D01*
X2811250D01*
X2785850Y9985725D01*
X2760450Y10011125D01*
X2735050D01*
Y9985725D01*
X2760450Y9960325D01*
X2735050Y9934925D01*
Y9909525D01*
Y10169875D02*
X2760450D01*
X2785850Y10195275D01*
X2811250Y10169875D01*
X2836650D01*
Y10195275D01*
X2811250Y10220675D01*
X2836650Y10246075D01*
Y10271475D01*
X2811250D01*
X2785850Y10246075D01*
X2760450Y10271475D01*
X2735050D01*
Y10246075D01*
X2760450Y10220675D01*
X2735050Y10195275D01*
Y10169875D01*
Y10039700D02*
X2760450D01*
X2785850Y10065100D01*
X2811250Y10039700D01*
X2836650D01*
Y10065100D01*
X2811250Y10090500D01*
X2836650Y10115900D01*
Y10141300D01*
X2811250D01*
X2785850Y10115900D01*
X2760450Y10141300D01*
X2735050D01*
Y10115900D01*
X2760450Y10090500D01*
X2735050Y10065100D01*
Y10039700D01*
X6756400Y6400800D02*
X6781800D01*
X6807200Y6426200D01*
X6832600Y6400800D01*
X6858000D01*
Y6426200D01*
X6832600Y6451600D01*
X6858000Y6477000D01*
Y6502400D01*
X6832600D01*
X6807200Y6477000D01*
X6781800Y6502400D01*
X6756400D01*
Y6477000D01*
X6781800Y6451600D01*
X6756400Y6426200D01*
Y6400800D01*
Y6565900D02*
X6781800D01*
X6807200Y6591300D01*
X6832600Y6565900D01*
X6858000D01*
Y6591300D01*
X6832600Y6616700D01*
X6858000Y6642100D01*
Y6667500D01*
X6832600D01*
X6807200Y6642100D01*
X6781800Y6667500D01*
X6756400D01*
Y6642100D01*
X6781800Y6616700D01*
X6756400Y6591300D01*
Y6565900D01*
Y6731000D02*
X6781800D01*
X6807200Y6756400D01*
X6832600Y6731000D01*
X6858000D01*
Y6756400D01*
X6832600Y6781800D01*
X6858000Y6807200D01*
Y6832600D01*
X6832600D01*
X6807200Y6807200D01*
X6781800Y6832600D01*
X6756400D01*
Y6807200D01*
X6781800Y6781800D01*
X6756400Y6756400D01*
Y6731000D01*
X11734800Y4046220D02*
X11760200D01*
X11785600Y4071620D01*
X11811000Y4046220D01*
X11836400D01*
Y4071620D01*
X11811000Y4097020D01*
X11836400Y4122420D01*
Y4147820D01*
X11811000D01*
X11785600Y4122420D01*
X11760200Y4147820D01*
X11734800D01*
Y4122420D01*
X11760200Y4097020D01*
X11734800Y4071620D01*
Y4046220D01*
X11887200D02*
X11912600D01*
X11938000Y4071620D01*
X11963400Y4046220D01*
X11988800D01*
Y4071620D01*
X11963400Y4097020D01*
X11988800Y4122420D01*
Y4147820D01*
X11963400D01*
X11938000Y4122420D01*
X11912600Y4147820D01*
X11887200D01*
Y4122420D01*
X11912600Y4097020D01*
X11887200Y4071620D01*
Y4046220D01*
X12026900D02*
X12052300D01*
X12077700Y4071620D01*
X12103100Y4046220D01*
X12128500D01*
Y4071620D01*
X12103100Y4097020D01*
X12128500Y4122420D01*
Y4147820D01*
X12103100D01*
X12077700Y4122420D01*
X12052300Y4147820D01*
X12026900D01*
Y4122420D01*
X12052300Y4097020D01*
X12026900Y4071620D01*
Y4046220D01*
X12179300D02*
X12204700D01*
X12230100Y4071620D01*
X12255500Y4046220D01*
X12280900D01*
Y4071620D01*
X12255500Y4097020D01*
X12280900Y4122420D01*
Y4147820D01*
X12255500D01*
X12230100Y4122420D01*
X12204700Y4147820D01*
X12179300D01*
Y4122420D01*
X12204700Y4097020D01*
X12179300Y4071620D01*
Y4046220D01*
X11734800Y3886200D02*
X11760200D01*
X11785600Y3911600D01*
X11811000Y3886200D01*
X11836400D01*
Y3911600D01*
X11811000Y3937000D01*
X11836400Y3962400D01*
Y3987800D01*
X11811000D01*
X11785600Y3962400D01*
X11760200Y3987800D01*
X11734800D01*
Y3962400D01*
X11760200Y3937000D01*
X11734800Y3911600D01*
Y3886200D01*
X11887200D02*
X11912600D01*
X11938000Y3911600D01*
X11963400Y3886200D01*
X11988800D01*
Y3911600D01*
X11963400Y3937000D01*
X11988800Y3962400D01*
Y3987800D01*
X11963400D01*
X11938000Y3962400D01*
X11912600Y3987800D01*
X11887200D01*
Y3962400D01*
X11912600Y3937000D01*
X11887200Y3911600D01*
Y3886200D01*
X12026900D02*
X12052300D01*
X12077700Y3911600D01*
X12103100Y3886200D01*
X12128500D01*
Y3911600D01*
X12103100Y3937000D01*
X12128500Y3962400D01*
Y3987800D01*
X12103100D01*
X12077700Y3962400D01*
X12052300Y3987800D01*
X12026900D01*
Y3962400D01*
X12052300Y3937000D01*
X12026900Y3911600D01*
Y3886200D01*
X12179300D02*
X12204700D01*
X12230100Y3911600D01*
X12255500Y3886200D01*
X12280900D01*
Y3911600D01*
X12255500Y3937000D01*
X12280900Y3962400D01*
Y3987800D01*
X12255500D01*
X12230100Y3962400D01*
X12204700Y3987800D01*
X12179300D01*
Y3962400D01*
X12204700Y3937000D01*
X12179300Y3911600D01*
Y3886200D01*
X11734800Y4366260D02*
X11760200D01*
X11785600Y4391660D01*
X11811000Y4366260D01*
X11836400D01*
Y4391660D01*
X11811000Y4417060D01*
X11836400Y4442460D01*
Y4467860D01*
X11811000D01*
X11785600Y4442460D01*
X11760200Y4467860D01*
X11734800D01*
Y4442460D01*
X11760200Y4417060D01*
X11734800Y4391660D01*
Y4366260D01*
X11887200D02*
X11912600D01*
X11938000Y4391660D01*
X11963400Y4366260D01*
X11988800D01*
Y4391660D01*
X11963400Y4417060D01*
X11988800Y4442460D01*
Y4467860D01*
X11963400D01*
X11938000Y4442460D01*
X11912600Y4467860D01*
X11887200D01*
Y4442460D01*
X11912600Y4417060D01*
X11887200Y4391660D01*
Y4366260D01*
X12026900D02*
X12052300D01*
X12077700Y4391660D01*
X12103100Y4366260D01*
X12128500D01*
Y4391660D01*
X12103100Y4417060D01*
X12128500Y4442460D01*
Y4467860D01*
X12103100D01*
X12077700Y4442460D01*
X12052300Y4467860D01*
X12026900D01*
Y4442460D01*
X12052300Y4417060D01*
X12026900Y4391660D01*
Y4366260D01*
X12179300D02*
X12204700D01*
X12230100Y4391660D01*
X12255500Y4366260D01*
X12280900D01*
Y4391660D01*
X12255500Y4417060D01*
X12280900Y4442460D01*
Y4467860D01*
X12255500D01*
X12230100Y4442460D01*
X12204700Y4467860D01*
X12179300D01*
Y4442460D01*
X12204700Y4417060D01*
X12179300Y4391660D01*
Y4366260D01*
X11734800Y4206240D02*
X11760200D01*
X11785600Y4231640D01*
X11811000Y4206240D01*
X11836400D01*
Y4231640D01*
X11811000Y4257040D01*
X11836400Y4282440D01*
Y4307840D01*
X11811000D01*
X11785600Y4282440D01*
X11760200Y4307840D01*
X11734800D01*
Y4282440D01*
X11760200Y4257040D01*
X11734800Y4231640D01*
Y4206240D01*
X11887200D02*
X11912600D01*
X11938000Y4231640D01*
X11963400Y4206240D01*
X11988800D01*
Y4231640D01*
X11963400Y4257040D01*
X11988800Y4282440D01*
Y4307840D01*
X11963400D01*
X11938000Y4282440D01*
X11912600Y4307840D01*
X11887200D01*
Y4282440D01*
X11912600Y4257040D01*
X11887200Y4231640D01*
Y4206240D01*
X12026900D02*
X12052300D01*
X12077700Y4231640D01*
X12103100Y4206240D01*
X12128500D01*
Y4231640D01*
X12103100Y4257040D01*
X12128500Y4282440D01*
Y4307840D01*
X12103100D01*
X12077700Y4282440D01*
X12052300Y4307840D01*
X12026900D01*
Y4282440D01*
X12052300Y4257040D01*
X12026900Y4231640D01*
Y4206240D01*
X12179300D02*
X12204700D01*
X12230100Y4231640D01*
X12255500Y4206240D01*
X12280900D01*
Y4231640D01*
X12255500Y4257040D01*
X12280900Y4282440D01*
Y4307840D01*
X12255500D01*
X12230100Y4282440D01*
X12204700Y4307840D01*
X12179300D01*
Y4282440D01*
X12204700Y4257040D01*
X12179300Y4231640D01*
Y4206240D01*
Y4526280D02*
X12204700D01*
X12230100Y4551680D01*
X12255500Y4526280D01*
X12280900D01*
Y4551680D01*
X12255500Y4577080D01*
X12280900Y4602480D01*
Y4627880D01*
X12255500D01*
X12230100Y4602480D01*
X12204700Y4627880D01*
X12179300D01*
Y4602480D01*
X12204700Y4577080D01*
X12179300Y4551680D01*
Y4526280D01*
X12026900D02*
X12052300D01*
X12077700Y4551680D01*
X12103100Y4526280D01*
X12128500D01*
Y4551680D01*
X12103100Y4577080D01*
X12128500Y4602480D01*
Y4627880D01*
X12103100D01*
X12077700Y4602480D01*
X12052300Y4627880D01*
X12026900D01*
Y4602480D01*
X12052300Y4577080D01*
X12026900Y4551680D01*
Y4526280D01*
X11887200D02*
X11912600D01*
X11938000Y4551680D01*
X11963400Y4526280D01*
X11988800D01*
Y4551680D01*
X11963400Y4577080D01*
X11988800Y4602480D01*
Y4627880D01*
X11963400D01*
X11938000Y4602480D01*
X11912600Y4627880D01*
X11887200D01*
Y4602480D01*
X11912600Y4577080D01*
X11887200Y4551680D01*
Y4526280D01*
X11734800D02*
X11760200D01*
X11785600Y4551680D01*
X11811000Y4526280D01*
X11836400D01*
Y4551680D01*
X11811000Y4577080D01*
X11836400Y4602480D01*
Y4627880D01*
X11811000D01*
X11785600Y4602480D01*
X11760200Y4627880D01*
X11734800D01*
Y4602480D01*
X11760200Y4577080D01*
X11734800Y4551680D01*
Y4526280D01*
X12179300Y4686300D02*
X12204700D01*
X12230100Y4711700D01*
X12255500Y4686300D01*
X12280900D01*
Y4711700D01*
X12255500Y4737100D01*
X12280900Y4762500D01*
Y4787900D01*
X12255500D01*
X12230100Y4762500D01*
X12204700Y4787900D01*
X12179300D01*
Y4762500D01*
X12204700Y4737100D01*
X12179300Y4711700D01*
Y4686300D01*
X12026900D02*
X12052300D01*
X12077700Y4711700D01*
X12103100Y4686300D01*
X12128500D01*
Y4711700D01*
X12103100Y4737100D01*
X12128500Y4762500D01*
Y4787900D01*
X12103100D01*
X12077700Y4762500D01*
X12052300Y4787900D01*
X12026900D01*
Y4762500D01*
X12052300Y4737100D01*
X12026900Y4711700D01*
Y4686300D01*
X11887200D02*
X11912600D01*
X11938000Y4711700D01*
X11963400Y4686300D01*
X11988800D01*
Y4711700D01*
X11963400Y4737100D01*
X11988800Y4762500D01*
Y4787900D01*
X11963400D01*
X11938000Y4762500D01*
X11912600Y4787900D01*
X11887200D01*
Y4762500D01*
X11912600Y4737100D01*
X11887200Y4711700D01*
Y4686300D01*
X11734800D02*
X11760200D01*
X11785600Y4711700D01*
X11811000Y4686300D01*
X11836400D01*
Y4711700D01*
X11811000Y4737100D01*
X11836400Y4762500D01*
Y4787900D01*
X11811000D01*
X11785600Y4762500D01*
X11760200Y4787900D01*
X11734800D01*
Y4762500D01*
X11760200Y4737100D01*
X11734800Y4711700D01*
Y4686300D01*
X4787900Y5219700D02*
X4813300D01*
X4838700Y5245100D01*
X4864100Y5219700D01*
X4889500D01*
Y5245100D01*
X4864100Y5270500D01*
X4889500Y5295900D01*
Y5321300D01*
X4864100D01*
X4838700Y5295900D01*
X4813300Y5321300D01*
X4787900D01*
Y5295900D01*
X4813300Y5270500D01*
X4787900Y5245100D01*
Y5219700D01*
X7073900Y4000500D02*
X7099300D01*
X7124700Y4025900D01*
X7150100Y4000500D01*
X7175500D01*
Y4025900D01*
X7150100Y4051300D01*
X7175500Y4076700D01*
Y4102100D01*
X7150100D01*
X7124700Y4076700D01*
X7099300Y4102100D01*
X7073900D01*
Y4076700D01*
X7099300Y4051300D01*
X7073900Y4025900D01*
Y4000500D01*
Y4157980D02*
X7099300D01*
X7124700Y4183380D01*
X7150100Y4157980D01*
X7175500D01*
Y4183380D01*
X7150100Y4208780D01*
X7175500Y4234180D01*
Y4259580D01*
X7150100D01*
X7124700Y4234180D01*
X7099300Y4259580D01*
X7073900D01*
Y4234180D01*
X7099300Y4208780D01*
X7073900Y4183380D01*
Y4157980D01*
Y4318000D02*
X7099300D01*
X7124700Y4343400D01*
X7150100Y4318000D01*
X7175500D01*
Y4343400D01*
X7150100Y4368800D01*
X7175500Y4394200D01*
Y4419600D01*
X7150100D01*
X7124700Y4394200D01*
X7099300Y4419600D01*
X7073900D01*
Y4394200D01*
X7099300Y4368800D01*
X7073900Y4343400D01*
Y4318000D01*
X8445500Y3733800D02*
X8470900D01*
X8496300Y3759200D01*
X8521700Y3733800D01*
X8547100D01*
Y3759200D01*
X8521700Y3784600D01*
X8547100Y3810000D01*
Y3835400D01*
X8521700D01*
X8496300Y3810000D01*
X8470900Y3835400D01*
X8445500D01*
Y3810000D01*
X8470900Y3784600D01*
X8445500Y3759200D01*
Y3733800D01*
X9214400Y3911600D02*
X9239800D01*
X9265200Y3937000D01*
X9290600Y3911600D01*
X9316000D01*
Y3937000D01*
X9290600Y3962400D01*
X9316000Y3987800D01*
Y4013200D01*
X9290600D01*
X9265200Y3987800D01*
X9239800Y4013200D01*
X9214400D01*
Y3987800D01*
X9239800Y3962400D01*
X9214400Y3937000D01*
Y3911600D01*
X9398000Y4559300D02*
X9423400D01*
X9448800Y4584700D01*
X9474200Y4559300D01*
X9499600D01*
Y4584700D01*
X9474200Y4610100D01*
X9499600Y4635500D01*
Y4660900D01*
X9474200D01*
X9448800Y4635500D01*
X9423400Y4660900D01*
X9398000D01*
Y4635500D01*
X9423400Y4610100D01*
X9398000Y4584700D01*
Y4559300D01*
X4318000Y6921500D02*
X4343400D01*
X4368800Y6946900D01*
X4394200Y6921500D01*
X4419600D01*
Y6946900D01*
X4394200Y6972300D01*
X4419600Y6997700D01*
Y7023100D01*
X4394200D01*
X4368800Y6997700D01*
X4343400Y7023100D01*
X4318000D01*
Y6997700D01*
X4343400Y6972300D01*
X4318000Y6946900D01*
Y6921500D01*
X4965700Y7023100D02*
X4991100D01*
X5016500Y7048500D01*
X5041900Y7023100D01*
X5067300D01*
Y7048500D01*
X5041900Y7073900D01*
X5067300Y7099300D01*
Y7124700D01*
X5041900D01*
X5016500Y7099300D01*
X4991100Y7124700D01*
X4965700D01*
Y7099300D01*
X4991100Y7073900D01*
X4965700Y7048500D01*
Y7023100D01*
X5118100Y5003800D02*
X5143500D01*
X5168900Y5029200D01*
X5194300Y5003800D01*
X5219700D01*
Y5029200D01*
X5194300Y5054600D01*
X5219700Y5080000D01*
Y5105400D01*
X5194300D01*
X5168900Y5080000D01*
X5143500Y5105400D01*
X5118100D01*
Y5080000D01*
X5143500Y5054600D01*
X5118100Y5029200D01*
Y5003800D01*
X6464300Y4521200D02*
X6489700D01*
X6515100Y4546600D01*
X6540500Y4521200D01*
X6565900D01*
Y4546600D01*
X6540500Y4572000D01*
X6565900Y4597400D01*
Y4622800D01*
X6540500D01*
X6515100Y4597400D01*
X6489700Y4622800D01*
X6464300D01*
Y4597400D01*
X6489700Y4572000D01*
X6464300Y4546600D01*
Y4521200D01*
X6299200Y4800600D02*
X6324600D01*
X6350000Y4826000D01*
X6375400Y4800600D01*
X6400800D01*
Y4826000D01*
X6375400Y4851400D01*
X6400800Y4876800D01*
Y4902200D01*
X6375400D01*
X6350000Y4876800D01*
X6324600Y4902200D01*
X6299200D01*
Y4876800D01*
X6324600Y4851400D01*
X6299200Y4826000D01*
Y4800600D01*
X7518400Y4508500D02*
X7543800D01*
X7569200Y4533900D01*
X7594600Y4508500D01*
X7620000D01*
Y4533900D01*
X7594600Y4559300D01*
X7620000Y4584700D01*
Y4610100D01*
X7594600D01*
X7569200Y4584700D01*
X7543800Y4610100D01*
X7518400D01*
Y4584700D01*
X7543800Y4559300D01*
X7518400Y4533900D01*
Y4508500D01*
X7797800Y4216400D02*
X7823200D01*
X7848600Y4241800D01*
X7874000Y4216400D01*
X7899400D01*
Y4241800D01*
X7874000Y4267200D01*
X7899400Y4292600D01*
Y4318000D01*
X7874000D01*
X7848600Y4292600D01*
X7823200Y4318000D01*
X7797800D01*
Y4292600D01*
X7823200Y4267200D01*
X7797800Y4241800D01*
Y4216400D01*
D104*
X18050801Y10000000D02*
G03*
X18050801Y10000000I-50800J0D01*
G01*
Y9000000D02*
G03*
X18050801Y9000000I-50800J0D01*
G01*
X18300801Y8500000D02*
G03*
X18300801Y8500000I-50800J0D01*
G01*
X18050801Y8000000D02*
G03*
X18050801Y8000000I-50800J0D01*
G01*
X18300801Y7500000D02*
G03*
X18300801Y7500000I-50800J0D01*
G01*
X18050801Y7000000D02*
G03*
X18050801Y7000000I-50800J0D01*
G01*
X18300801Y6500000D02*
G03*
X18300801Y6500000I-50800J0D01*
G01*
X18050801Y6000000D02*
G03*
X18050801Y6000000I-50800J0D01*
G01*
X18300801Y5500000D02*
G03*
X18300801Y5500000I-50800J0D01*
G01*
X18050801Y5000000D02*
G03*
X18050801Y5000000I-50800J0D01*
G01*
X17550801Y10000000D02*
G03*
X17550801Y10000000I-50800J0D01*
G01*
X17800801Y9500000D02*
G03*
X17800801Y9500000I-50800J0D01*
G01*
X17550801Y9000000D02*
G03*
X17550801Y9000000I-50800J0D01*
G01*
X17800801Y8500000D02*
G03*
X17800801Y8500000I-50800J0D01*
G01*
X17550801Y8000000D02*
G03*
X17550801Y8000000I-50800J0D01*
G01*
X17800801Y7500000D02*
G03*
X17800801Y7500000I-50800J0D01*
G01*
X17550801Y7000000D02*
G03*
X17550801Y7000000I-50800J0D01*
G01*
X17800801Y6500000D02*
G03*
X17800801Y6500000I-50800J0D01*
G01*
X17300801Y10500000D02*
G03*
X17300801Y10500000I-50800J0D01*
G01*
X17050801Y10000000D02*
G03*
X17050801Y10000000I-50800J0D01*
G01*
X17300801Y9500000D02*
G03*
X17300801Y9500000I-50800J0D01*
G01*
X17050801Y9000000D02*
G03*
X17050801Y9000000I-50800J0D01*
G01*
Y8000000D02*
G03*
X17050801Y8000000I-50800J0D01*
G01*
X17300801Y6500000D02*
G03*
X17300801Y6500000I-50800J0D01*
G01*
X17050801Y6000000D02*
G03*
X17050801Y6000000I-50800J0D01*
G01*
X17300801Y3500000D02*
G03*
X17300801Y3500000I-50800J0D01*
G01*
X16550801Y11000000D02*
G03*
X16550801Y11000000I-50800J0D01*
G01*
Y7000000D02*
G03*
X16550801Y7000000I-50800J0D01*
G01*
X16800801Y6500000D02*
G03*
X16800801Y6500000I-50800J0D01*
G01*
X16550801Y6000000D02*
G03*
X16550801Y6000000I-50800J0D01*
G01*
X16800801Y3500000D02*
G03*
X16800801Y3500000I-50800J0D01*
G01*
X16550801Y3000000D02*
G03*
X16550801Y3000000I-50800J0D01*
G01*
X16050801Y9000000D02*
G03*
X16050801Y9000000I-50800J0D01*
G01*
Y6000000D02*
G03*
X16050801Y6000000I-50800J0D01*
G01*
X16300801Y3500000D02*
G03*
X16300801Y3500000I-50800J0D01*
G01*
X15550800Y12000000D02*
G03*
X15550800Y12000000I-50800J0D01*
G01*
X15800801Y6500000D02*
G03*
X15800801Y6500000I-50800J0D01*
G01*
X15550800Y6000000D02*
G03*
X15550800Y6000000I-50800J0D01*
G01*
X15800801Y5500000D02*
G03*
X15800801Y5500000I-50800J0D01*
G01*
X15550800Y5000000D02*
G03*
X15550800Y5000000I-50800J0D01*
G01*
X15800801Y3500000D02*
G03*
X15800801Y3500000I-50800J0D01*
G01*
X15050800Y12000000D02*
G03*
X15050800Y12000000I-50800J0D01*
G01*
X15300800Y6500000D02*
G03*
X15300800Y6500000I-50800J0D01*
G01*
Y5500000D02*
G03*
X15300800Y5500000I-50800J0D01*
G01*
X15050800Y4000000D02*
G03*
X15050800Y4000000I-50800J0D01*
G01*
X14800800Y13500000D02*
G03*
X14800800Y13500000I-50800J0D01*
G01*
X14550800Y13000000D02*
G03*
X14550800Y13000000I-50800J0D01*
G01*
X14800800Y12500000D02*
G03*
X14800800Y12500000I-50800J0D01*
G01*
X14550800Y12000000D02*
G03*
X14550800Y12000000I-50800J0D01*
G01*
X14800800Y11500000D02*
G03*
X14800800Y11500000I-50800J0D01*
G01*
X14550800Y11000000D02*
G03*
X14550800Y11000000I-50800J0D01*
G01*
X14800800Y10500000D02*
G03*
X14800800Y10500000I-50800J0D01*
G01*
X14550800Y10000000D02*
G03*
X14550800Y10000000I-50800J0D01*
G01*
Y9000000D02*
G03*
X14550800Y9000000I-50800J0D01*
G01*
Y8000000D02*
G03*
X14550800Y8000000I-50800J0D01*
G01*
Y4000000D02*
G03*
X14550800Y4000000I-50800J0D01*
G01*
Y3000000D02*
G03*
X14550800Y3000000I-50800J0D01*
G01*
X14050800Y14000000D02*
G03*
X14050800Y14000000I-50800J0D01*
G01*
X14300800Y13500000D02*
G03*
X14300800Y13500000I-50800J0D01*
G01*
X14050800Y13000000D02*
G03*
X14050800Y13000000I-50800J0D01*
G01*
X14300800Y12500000D02*
G03*
X14300800Y12500000I-50800J0D01*
G01*
X14050800Y12000000D02*
G03*
X14050800Y12000000I-50800J0D01*
G01*
X14300800Y11500000D02*
G03*
X14300800Y11500000I-50800J0D01*
G01*
X14050800Y11000000D02*
G03*
X14050800Y11000000I-50800J0D01*
G01*
X14300800Y10500000D02*
G03*
X14300800Y10500000I-50800J0D01*
G01*
X14050800Y10000000D02*
G03*
X14050800Y10000000I-50800J0D01*
G01*
X14300800Y9500000D02*
G03*
X14300800Y9500000I-50800J0D01*
G01*
X14050800Y9000000D02*
G03*
X14050800Y9000000I-50800J0D01*
G01*
X14300800Y8500000D02*
G03*
X14300800Y8500000I-50800J0D01*
G01*
X14050800Y8000000D02*
G03*
X14050800Y8000000I-50800J0D01*
G01*
X14300800Y7500000D02*
G03*
X14300800Y7500000I-50800J0D01*
G01*
X14050800Y7000000D02*
G03*
X14050800Y7000000I-50800J0D01*
G01*
Y5000000D02*
G03*
X14050800Y5000000I-50800J0D01*
G01*
X13800800Y13500000D02*
G03*
X13800800Y13500000I-50800J0D01*
G01*
X13550800Y13000000D02*
G03*
X13550800Y13000000I-50800J0D01*
G01*
X13800800Y12500000D02*
G03*
X13800800Y12500000I-50800J0D01*
G01*
X13550800Y12000000D02*
G03*
X13550800Y12000000I-50800J0D01*
G01*
X13800800Y11500000D02*
G03*
X13800800Y11500000I-50800J0D01*
G01*
X13550800Y5000000D02*
G03*
X13550800Y5000000I-50800J0D01*
G01*
X13800800Y3500000D02*
G03*
X13800800Y3500000I-50800J0D01*
G01*
X13300800Y13500000D02*
G03*
X13300800Y13500000I-50800J0D01*
G01*
X13050800Y13000000D02*
G03*
X13050800Y13000000I-50800J0D01*
G01*
X13300800Y12500000D02*
G03*
X13300800Y12500000I-50800J0D01*
G01*
X13050800Y12000000D02*
G03*
X13050800Y12000000I-50800J0D01*
G01*
X13300800Y11500000D02*
G03*
X13300800Y11500000I-50800J0D01*
G01*
Y5500000D02*
G03*
X13300800Y5500000I-50800J0D01*
G01*
Y3500000D02*
G03*
X13300800Y3500000I-50800J0D01*
G01*
Y2500000D02*
G03*
X13300800Y2500000I-50800J0D01*
G01*
X12550800Y13000000D02*
G03*
X12550800Y13000000I-50800J0D01*
G01*
X12800800Y12500000D02*
G03*
X12800800Y12500000I-50800J0D01*
G01*
X12550800Y12000000D02*
G03*
X12550800Y12000000I-50800J0D01*
G01*
X12800800Y11500000D02*
G03*
X12800800Y11500000I-50800J0D01*
G01*
Y6500000D02*
G03*
X12800800Y6500000I-50800J0D01*
G01*
X12550800Y5000000D02*
G03*
X12550800Y5000000I-50800J0D01*
G01*
X12800800Y3500000D02*
G03*
X12800800Y3500000I-50800J0D01*
G01*
Y2500000D02*
G03*
X12800800Y2500000I-50800J0D01*
G01*
X12550800Y2000000D02*
G03*
X12550800Y2000000I-50800J0D01*
G01*
X12300800Y3500000D02*
G03*
X12300800Y3500000I-50800J0D01*
G01*
X12050800Y3000000D02*
G03*
X12050800Y3000000I-50800J0D01*
G01*
Y2000000D02*
G03*
X12050800Y2000000I-50800J0D01*
G01*
X11550800D02*
G03*
X11550800Y2000000I-50800J0D01*
G01*
X11050800D02*
G03*
X11050800Y2000000I-50800J0D01*
G01*
X10550800D02*
G03*
X10550800Y2000000I-50800J0D01*
G01*
X10050800D02*
G03*
X10050800Y2000000I-50800J0D01*
G01*
X9800800Y4500000D02*
G03*
X9800800Y4500000I-50800J0D01*
G01*
X9550800Y2000000D02*
G03*
X9550800Y2000000I-50800J0D01*
G01*
X9050800Y5000000D02*
G03*
X9050800Y5000000I-50800J0D01*
G01*
Y2000000D02*
G03*
X9050800Y2000000I-50800J0D01*
G01*
X8550800D02*
G03*
X8550800Y2000000I-50800J0D01*
G01*
X8300800Y4500000D02*
G03*
X8300800Y4500000I-50800J0D01*
G01*
X8050800Y2000000D02*
G03*
X8050800Y2000000I-50800J0D01*
G01*
X7800800Y11500000D02*
G03*
X7800800Y11500000I-50800J0D01*
G01*
Y6500000D02*
G03*
X7800800Y6500000I-50800J0D01*
G01*
X7550800Y5000000D02*
G03*
X7550800Y5000000I-50800J0D01*
G01*
Y2000000D02*
G03*
X7550800Y2000000I-50800J0D01*
G01*
X7300800Y13500000D02*
G03*
X7300800Y13500000I-50800J0D01*
G01*
Y11500000D02*
G03*
X7300800Y11500000I-50800J0D01*
G01*
Y2500000D02*
G03*
X7300800Y2500000I-50800J0D01*
G01*
X6800800Y13500000D02*
G03*
X6800800Y13500000I-50800J0D01*
G01*
X6550800Y13000000D02*
G03*
X6550800Y13000000I-50800J0D01*
G01*
X6800800Y11500000D02*
G03*
X6800800Y11500000I-50800J0D01*
G01*
X6550800Y11000000D02*
G03*
X6550800Y11000000I-50800J0D01*
G01*
X6800800Y2500000D02*
G03*
X6800800Y2500000I-50800J0D01*
G01*
X6300800Y13500000D02*
G03*
X6300800Y13500000I-50800J0D01*
G01*
X6050800Y13000000D02*
G03*
X6050800Y13000000I-50800J0D01*
G01*
Y8000000D02*
G03*
X6050800Y8000000I-50800J0D01*
G01*
X5550800Y14000000D02*
G03*
X5550800Y14000000I-50800J0D01*
G01*
X5800800Y13500000D02*
G03*
X5800800Y13500000I-50800J0D01*
G01*
X5550800Y13000000D02*
G03*
X5550800Y13000000I-50800J0D01*
G01*
Y11000000D02*
G03*
X5550800Y11000000I-50800J0D01*
G01*
X5800800Y10500000D02*
G03*
X5800800Y10500000I-50800J0D01*
G01*
Y9500000D02*
G03*
X5800800Y9500000I-50800J0D01*
G01*
X5550800Y9000000D02*
G03*
X5550800Y9000000I-50800J0D01*
G01*
X5800800Y8500000D02*
G03*
X5800800Y8500000I-50800J0D01*
G01*
X5300800D02*
G03*
X5300800Y8500000I-50800J0D01*
G01*
X5050800Y5000000D02*
G03*
X5050800Y5000000I-50800J0D01*
G01*
X4800800Y7500000D02*
G03*
X4800800Y7500000I-50800J0D01*
G01*
Y6500000D02*
G03*
X4800800Y6500000I-50800J0D01*
G01*
Y5500000D02*
G03*
X4800800Y5500000I-50800J0D01*
G01*
X4300800Y11500000D02*
G03*
X4300800Y11500000I-50800J0D01*
G01*
Y3500000D02*
G03*
X4300800Y3500000I-50800J0D01*
G01*
X3800800Y7500000D02*
G03*
X3800800Y7500000I-50800J0D01*
G01*
X3550800Y4000000D02*
G03*
X3550800Y4000000I-50800J0D01*
G01*
X3800800Y3500000D02*
G03*
X3800800Y3500000I-50800J0D01*
G01*
X3550800Y3000000D02*
G03*
X3550800Y3000000I-50800J0D01*
G01*
X3300800Y3500000D02*
G03*
X3300800Y3500000I-50800J0D01*
G01*
X3050800Y3000000D02*
G03*
X3050800Y3000000I-50800J0D01*
G01*
X2800800Y10500000D02*
G03*
X2800800Y10500000I-50800J0D01*
G01*
X2550800Y7000000D02*
G03*
X2550800Y7000000I-50800J0D01*
G01*
X2800800Y3500000D02*
G03*
X2800800Y3500000I-50800J0D01*
G01*
X2300800Y9500000D02*
G03*
X2300800Y9500000I-50800J0D01*
G01*
X2050800Y9000000D02*
G03*
X2050800Y9000000I-50800J0D01*
G01*
X2300800Y8500000D02*
G03*
X2300800Y8500000I-50800J0D01*
G01*
Y7500000D02*
G03*
X2300800Y7500000I-50800J0D01*
G01*
%TF.MD5,05f17b21b9c463463744f757814c26ee*%
M02*
