%TF.GenerationSoftware,Altium Limited,Altium Designer,23.6.0 (18)*%
G04 Layer_Color=16711935*
%FSLAX45Y45*%
%MOMM*%
%TF.SameCoordinates,CA757A27-890D-4031-9470-5F8B39CF6935*%
%TF.FilePolarity,Positive*%
%TF.FileFunction,Other,Mechanical_1*%
%TF.Part,Single*%
G01*
G75*
%TA.AperFunction,NonConductor*%
%ADD89C,1.20000*%
D89*
X2709468Y2814153D02*
X2748922Y2757633D01*
X2795774Y2707077D01*
X2849133Y2663446D01*
X2907987Y2627566D01*
X2971215Y2600122D01*
X3037617Y2581634D01*
X3105931Y2572454D01*
X3174858Y2572756D01*
X3243088Y2582535D01*
X3309326Y2601604D01*
X3372311Y2629602D01*
X3430848Y2665996D01*
X3524984Y2727684D01*
X3627630Y2783015D01*
X3742454Y2833373D01*
X3867816Y2877163D01*
X4003632Y2913750D01*
X4149667Y2942480D01*
X4305518Y2962705D01*
X4470597Y2973808D01*
X4644120Y2975228D01*
X4825107Y2966490D01*
X5012386Y2947226D01*
X5204610Y2917199D01*
X5400278Y2876320D01*
X5597761Y2824663D01*
X5795341Y2762468D01*
X5991256Y2690150D01*
X6164693Y2616880D01*
X6334069Y2536408D01*
X6498180Y2449355D01*
X6655896Y2356410D01*
X6806195Y2258328D01*
X6948167Y2155907D01*
X7081039Y2049965D01*
X7204180Y1941330D01*
X7317105Y1830816D01*
X7419477Y1719208D01*
X7490592Y1633489D01*
X7556120Y1546837D01*
X7599220Y1494793D01*
X7648944Y1449036D01*
X7704384Y1410402D01*
X7764526Y1379596D01*
X7828274Y1357181D01*
X7894461Y1343566D01*
X7961880Y1338999D01*
X12205714D01*
X12273133Y1343566D01*
X12339320Y1357181D01*
X12403068Y1379596D01*
X12463210Y1410402D01*
X12518650Y1449036D01*
X12568373Y1494793D01*
X12611474Y1546837D01*
X12705710Y1669024D01*
X12810945Y1789153D01*
X12930827Y1910616D01*
X13063284Y2030270D01*
X13207803Y2147053D01*
X13363649Y2259872D01*
X13529875Y2367619D01*
X13705324Y2469209D01*
X13888651Y2563606D01*
X14078346Y2649852D01*
X14272772Y2727098D01*
X14450356Y2788323D01*
X14629057Y2841251D01*
X14807579Y2885572D01*
X14984647Y2921090D01*
X15159036Y2947721D01*
X15329594Y2965491D01*
X15495267Y2974532D01*
X15655103Y2975075D01*
X15808279Y2967430D01*
X15954103Y2951984D01*
X16092014Y2929175D01*
X16221587Y2899481D01*
X16342525Y2863404D01*
X16454648Y2821452D01*
X16557887Y2774122D01*
X16650899Y2722713D01*
X16736746Y2665996D01*
X16795284Y2629602D01*
X16858269Y2601604D01*
X16924506Y2582535D01*
X16992735Y2572756D01*
X17061664Y2572454D01*
X17129974Y2581634D01*
X17196379Y2600122D01*
X17259607Y2627566D01*
X17318460Y2663446D01*
X17371820Y2707077D01*
X17418672Y2757633D01*
X17458127Y2814153D01*
X17601366Y3062138D01*
X17736267Y3314754D01*
X17862685Y3571722D01*
X17980473Y3832756D01*
X18089508Y4097569D01*
X18189665Y4365864D01*
X18280833Y4637345D01*
X18362912Y4911711D01*
X18435808Y5188658D01*
X18499446Y5467879D01*
X18553749Y5749063D01*
X18598660Y6031900D01*
X18634131Y6316076D01*
X18660120Y6601274D01*
X18676598Y6887180D01*
X18683546Y7173476D01*
X18680960Y7459845D02*
X18683546Y7173476D01*
X18668842Y7745968D02*
X18680960Y7459845D01*
X18647202Y8031530D02*
X18668842Y7745968D01*
X18616066Y8316213D02*
X18647202Y8031530D01*
X18575468Y8599700D02*
X18616066Y8316213D01*
X18525455Y8881680D02*
X18575468Y8599700D01*
X18466080Y9161838D02*
X18525455Y8881680D01*
X18397411Y9439863D02*
X18466080Y9161838D01*
X18319524Y9715449D02*
X18397411Y9439863D01*
X18232503Y9988288D02*
X18319524Y9715449D01*
X18136446Y10258079D02*
X18232503Y9988288D01*
X18108334Y10319915D02*
X18136446Y10258079D01*
X18072102Y10377371D02*
X18108334Y10319915D01*
X18028413Y10429386D02*
X18072102Y10377371D01*
X17978081Y10475000D02*
X18028413Y10429386D01*
X17922029Y10513370D02*
X17978081Y10475000D01*
X17861295Y10543789D02*
X17922029Y10513370D01*
X17796999Y10565695D02*
X17861295Y10543789D01*
X17646133Y10611145D02*
X17796999Y10565695D01*
X17491493Y10668078D02*
X17646133Y10611145D01*
X17326775Y10739516D02*
X17491493Y10668078D01*
X17156805Y10824390D02*
X17326775Y10739516D01*
X16983076Y10922573D02*
X17156805Y10824390D01*
X16807260Y11033664D02*
X16983076Y10922573D01*
X16631190Y11156978D02*
X16807260Y11033664D01*
X16456799Y11291547D02*
X16631190Y11156978D01*
X16286066Y11436136D02*
X16456799Y11291547D01*
X16120943Y11589275D02*
X16286066Y11436136D01*
X15978691Y11733026D02*
X16120943Y11589275D01*
X15843779Y11881021D02*
X15978691Y11733026D01*
X15717339Y12031887D02*
X15843779Y11881021D01*
X15600337Y12184228D02*
X15717339Y12031887D01*
X15493565Y12336669D02*
X15600337Y12184228D01*
X15397620Y12487886D02*
X15493565Y12336669D01*
X15312898Y12636636D02*
X15397620Y12487886D01*
X15239603Y12781790D02*
X15312898Y12636636D01*
X15177742Y12922356D02*
X15239603Y12781790D01*
X15127161Y13057484D02*
X15177742Y12922356D01*
X15087549Y13186491D02*
X15127161Y13057484D01*
X15058476Y13308853D02*
X15087549Y13186491D01*
X15039417Y13424203D02*
X15058476Y13308853D01*
X15029781Y13532326D02*
X15039417Y13424203D01*
X15028949Y13633144D02*
X15029781Y13532326D01*
X15028949Y13633144D02*
X15036304Y13726701D01*
X15046169Y13788789D01*
X15059908Y13848257D01*
X15073251Y13916132D01*
X15077103Y13985196D01*
X15071384Y14054134D02*
X15077103Y13985196D01*
X15056203Y14121620D02*
X15071384Y14054134D01*
X15031854Y14186366D02*
X15056203Y14121620D01*
X14998804Y14247133D02*
X15031854Y14186366D01*
X14957681Y14302756D02*
X14998804Y14247133D01*
X14909277Y14352171D02*
X14957681Y14302756D01*
X14854515Y14394434D02*
X14909277Y14352171D01*
X14707503Y14490300D02*
X14854515Y14394434D01*
X14558563Y14583145D02*
X14707503Y14490300D01*
X14497314Y14614890D02*
X14558563Y14583145D01*
X14432278Y14637903D02*
X14497314Y14614890D01*
X14364694Y14651746D02*
X14432278Y14637903D01*
X14295848Y14656152D02*
X14364694Y14651746D01*
X14227049Y14651042D02*
X14295848Y14656152D01*
X14159612Y14636510D02*
X14227049Y14651042D01*
X14094815Y14612834D02*
X14159612Y14636510D01*
X14033893Y14580466D02*
X14094815Y14612834D01*
X13978008Y14540018D02*
X14033893Y14580466D01*
X13928220Y14492262D02*
X13978008Y14540018D01*
X13885481Y14438110D02*
X13928220Y14492262D01*
X13802516Y14325301D02*
X13885481Y14438110D01*
X13711861Y14218575D02*
X13802516Y14325301D01*
X13613960Y14118451D02*
X13711861Y14218575D01*
X13509294Y14025424D02*
X13613960Y14118451D01*
X13398373Y13939949D02*
X13509294Y14025424D01*
X13281744Y13862445D02*
X13398373Y13939949D01*
X13159979Y13793292D02*
X13281744Y13862445D01*
X13033675Y13732829D02*
X13159979Y13793292D01*
X12903445Y13681352D02*
X13033675Y13732829D01*
X12769935Y13639114D02*
X12903445Y13681352D01*
X12633797Y13606322D02*
X12769935Y13639114D01*
X12567854Y13588084D02*
X12633797Y13606322D01*
X12505018Y13561012D02*
X12567854Y13588084D01*
X12446466Y13525620D02*
X12505018Y13561012D01*
X12393295Y13482564D02*
X12446466Y13525620D01*
X12346499Y13432652D02*
X12393295Y13482564D01*
X12306954Y13376819D02*
X12346499Y13432652D01*
X12275402Y13316110D02*
X12306954Y13376819D01*
X12252434Y13251662D02*
X12275402Y13316110D01*
X12238478Y13184682D02*
X12252434Y13251662D01*
X12233797Y13116425D02*
X12238478Y13184682D01*
X12233797Y11465914D02*
Y13116425D01*
Y11465914D02*
X12238075Y11400650D01*
X12250835Y11336504D01*
X12271858Y11274571D01*
X12300784Y11215914D01*
X12337120Y11161532D01*
X12380243Y11112360D01*
X12429416Y11069237D01*
X12483797Y11032900D01*
X12542455Y11003974D01*
X12604387Y10982951D01*
X12668533Y10970191D01*
X12733797Y10965914D01*
X13233797D01*
X13299060Y10961636D01*
X13363206Y10948876D01*
X13425139Y10927853D01*
X13483797Y10898927D01*
X13538177Y10862590D01*
X13587350Y10819467D01*
X13630473Y10770294D01*
X13666809Y10715914D01*
X13695737Y10657255D01*
X13716760Y10595323D01*
X13729520Y10531176D01*
X13733797Y10465914D01*
Y7465913D02*
Y10465914D01*
X13729520Y7400651D02*
X13733797Y7465913D01*
X13716760Y7336504D02*
X13729520Y7400651D01*
X13695737Y7274572D02*
X13716760Y7336504D01*
X13666809Y7215913D02*
X13695737Y7274572D01*
X13630473Y7161533D02*
X13666809Y7215913D01*
X13587350Y7112360D02*
X13630473Y7161533D01*
X13538177Y7069237D02*
X13587350Y7112360D01*
X13483797Y7032900D02*
X13538177Y7069237D01*
X13425139Y7003974D02*
X13483797Y7032900D01*
X13363206Y6982951D02*
X13425139Y7003974D01*
X13299060Y6970191D02*
X13363206Y6982951D01*
X13233797Y6965913D02*
X13299060Y6970191D01*
X12733797Y6965913D02*
X13233797D01*
X12668533Y6961636D02*
X12733797Y6965913D01*
X12604387Y6948876D02*
X12668533Y6961636D01*
X12542455Y6927853D02*
X12604387Y6948876D01*
X12483797Y6898926D02*
X12542455Y6927853D01*
X12429416Y6862590D02*
X12483797Y6898926D01*
X12380243Y6819467D02*
X12429416Y6862590D01*
X12337120Y6770294D02*
X12380243Y6819467D01*
X12300784Y6715913D02*
X12337120Y6770294D01*
X12271858Y6657255D02*
X12300784Y6715913D01*
X12250835Y6595323D02*
X12271858Y6657255D01*
X12238075Y6531176D02*
X12250835Y6595323D01*
X12233797Y6465913D02*
X12238075Y6531176D01*
X12229519Y6400651D02*
X12233797Y6465913D01*
X12216760Y6336504D02*
X12229519Y6400651D01*
X12195737Y6274572D02*
X12216760Y6336504D01*
X12166809Y6215913D02*
X12195737Y6274572D01*
X12130473Y6161533D02*
X12166809Y6215913D01*
X12087350Y6112360D02*
X12130473Y6161533D01*
X12038178Y6069237D02*
X12087350Y6112360D01*
X11983797Y6032901D02*
X12038178Y6069237D01*
X11925138Y6003974D02*
X11983797Y6032901D01*
X11863206Y5982951D02*
X11925138Y6003974D01*
X11799060Y5970191D02*
X11863206Y5982951D01*
X11733797Y5965913D02*
X11799060Y5970191D01*
X8433797Y5965913D02*
X11733797D01*
X8368534Y5970191D02*
X8433797Y5965913D01*
X8304388Y5982951D02*
X8368534Y5970191D01*
X8242455Y6003974D02*
X8304388Y5982951D01*
X8183797Y6032901D02*
X8242455Y6003974D01*
X8129416Y6069237D02*
X8183797Y6032901D01*
X8080244Y6112360D02*
X8129416Y6069237D01*
X8037121Y6161533D02*
X8080244Y6112360D01*
X8000785Y6215913D02*
X8037121Y6161533D01*
X7971857Y6274572D02*
X8000785Y6215913D01*
X7950834Y6336504D02*
X7971857Y6274572D01*
X7938075Y6400651D02*
X7950834Y6336504D01*
X7933797Y6465913D02*
X7938075Y6400651D01*
X7929519Y6531176D02*
X7933797Y6465913D01*
X7916759Y6595323D02*
X7929519Y6531176D01*
X7895736Y6657255D02*
X7916759Y6595323D01*
X7866810Y6715913D02*
X7895736Y6657255D01*
X7830474Y6770294D02*
X7866810Y6715913D01*
X7787350Y6819467D02*
X7830474Y6770294D01*
X7738177Y6862590D02*
X7787350Y6819467D01*
X7683797Y6898926D02*
X7738177Y6862590D01*
X7625139Y6927853D02*
X7683797Y6898926D01*
X7563207Y6948876D02*
X7625139Y6927853D01*
X7499059Y6961636D02*
X7563207Y6948876D01*
X7433797Y6965913D02*
X7499059Y6961636D01*
X6933797Y6965913D02*
X7433797D01*
X6868534Y6970191D02*
X6933797Y6965913D01*
X6804388Y6982951D02*
X6868534Y6970191D01*
X6742455Y7003974D02*
X6804388Y6982951D01*
X6683797Y7032900D02*
X6742455Y7003974D01*
X6629416Y7069237D02*
X6683797Y7032900D01*
X6580244Y7112360D02*
X6629416Y7069237D01*
X6537121Y7161533D02*
X6580244Y7112360D01*
X6500785Y7215913D02*
X6537121Y7161533D01*
X6471857Y7274572D02*
X6500785Y7215913D01*
X6450834Y7336504D02*
X6471857Y7274572D01*
X6438075Y7400651D02*
X6450834Y7336504D01*
X6433797Y7465913D02*
X6438075Y7400651D01*
X6433797Y7465913D02*
Y10465914D01*
X6438075Y10531176D01*
X6450834Y10595323D01*
X6471857Y10657255D01*
X6500785Y10715914D01*
X6537121Y10770294D01*
X6580244Y10819467D01*
X6629416Y10862590D01*
X6683797Y10898927D01*
X6742455Y10927853D01*
X6804388Y10948876D01*
X6868534Y10961636D01*
X6933797Y10965914D01*
X7433797D01*
X7499059Y10970191D01*
X7563207Y10982951D01*
X7625139Y11003974D01*
X7683797Y11032900D01*
X7738177Y11069237D01*
X7787350Y11112360D01*
X7830474Y11161532D01*
X7866810Y11215914D01*
X7895736Y11274571D01*
X7916759Y11336504D01*
X7929519Y11400650D01*
X7933797Y11465914D01*
Y13116425D01*
X7929116Y13184682D02*
X7933797Y13116425D01*
X7915160Y13251662D02*
X7929116Y13184682D01*
X7892191Y13316110D02*
X7915160Y13251662D01*
X7860640Y13376819D02*
X7892191Y13316110D01*
X7821095Y13432652D02*
X7860640Y13376819D01*
X7774299Y13482564D02*
X7821095Y13432652D01*
X7721128Y13525620D02*
X7774299Y13482564D01*
X7662575Y13561012D02*
X7721128Y13525620D01*
X7599740Y13588084D02*
X7662575Y13561012D01*
X7533796Y13606322D02*
X7599740Y13588084D01*
X7397659Y13639114D02*
X7533796Y13606322D01*
X7264148Y13681352D02*
X7397659Y13639114D01*
X7133920Y13732829D02*
X7264148Y13681352D01*
X7007614Y13793292D02*
X7133920Y13732829D01*
X6885849Y13862445D02*
X7007614Y13793292D01*
X6769220Y13939949D02*
X6885849Y13862445D01*
X6658300Y14025424D02*
X6769220Y13939949D01*
X6553633Y14118451D02*
X6658300Y14025424D01*
X6455732Y14218575D02*
X6553633Y14118451D01*
X6365077Y14325301D02*
X6455732Y14218575D01*
X6282113Y14438110D02*
X6365077Y14325301D01*
X6239374Y14492262D02*
X6282113Y14438110D01*
X6189587Y14540018D02*
X6239374Y14492262D01*
X6133701Y14580466D02*
X6189587Y14540018D01*
X6072779Y14612834D02*
X6133701Y14580466D01*
X6007982Y14636510D02*
X6072779Y14612834D01*
X5940543Y14651042D02*
X6007982Y14636510D01*
X5871745Y14656152D02*
X5940543Y14651042D01*
X5802899Y14651746D02*
X5871745Y14656152D01*
X5735316Y14637903D02*
X5802899Y14651746D01*
X5670280Y14614890D02*
X5735316Y14637903D01*
X5609031Y14583145D02*
X5670280Y14614890D01*
X5460092Y14490300D02*
X5609031Y14583145D01*
X5313079Y14394434D02*
X5460092Y14490300D01*
X5258317Y14352171D02*
X5313079Y14394434D01*
X5209912Y14302756D02*
X5258317Y14352171D01*
X5168790Y14247133D02*
X5209912Y14302756D01*
X5135740Y14186366D02*
X5168790Y14247133D01*
X5111391Y14121620D02*
X5135740Y14186366D01*
X5096211Y14054134D02*
X5111391Y14121620D01*
X5090492Y13985196D02*
X5096211Y14054134D01*
X5090492Y13985196D02*
X5094342Y13916132D01*
X5107686Y13848257D01*
X5126987Y13757166D01*
X5137377Y13660199D01*
X5138656Y13552840D01*
X5129750Y13436987D02*
X5138656Y13552840D01*
X5109878Y13312646D02*
X5129750Y13436987D01*
X5078263Y13179993D02*
X5109878Y13312646D01*
X5034192Y13039409D02*
X5078263Y13179993D01*
X4977061Y12891496D02*
X5034192Y13039409D01*
X4906422Y12737089D02*
X4977061Y12891496D01*
X4822029Y12577256D02*
X4906422Y12737089D01*
X4723878Y12413289D02*
X4822029Y12577256D01*
X4612228Y12246679D02*
X4723878Y12413289D01*
X4487632Y12079090D02*
X4612228Y12246679D01*
X4350935Y11912313D02*
X4487632Y12079090D01*
X4203270Y11748215D02*
X4350935Y11912313D01*
X4046035Y11588679D02*
X4203270Y11748215D01*
X3880858Y11435541D02*
X4046035Y11588679D01*
X3726917Y11304641D02*
X3880858Y11435541D01*
X3569438Y11181497D02*
X3726917Y11304641D01*
X3409872Y11067121D02*
X3569438Y11181497D01*
X3249677Y10962362D02*
X3409872Y11067121D01*
X3090277Y10867887D02*
X3249677Y10962362D01*
X2933023Y10784175D02*
X3090277Y10867887D01*
X2779169Y10711510D02*
X2933023Y10784175D01*
X2629837Y10649990D02*
X2779169Y10711510D01*
X2498794Y10603663D02*
X2629837Y10649990D01*
X2370596Y10565695D02*
X2498794Y10603663D01*
X2306299Y10543789D02*
X2370596Y10565695D01*
X2245564Y10513370D02*
X2306299Y10543789D01*
X2189513Y10475000D02*
X2245564Y10513370D01*
X2139179Y10429386D02*
X2189513Y10475000D01*
X2095492Y10377371D02*
X2139179Y10429386D01*
X2059259Y10319915D02*
X2095492Y10377371D01*
X2031148Y10258079D02*
X2059259Y10319915D01*
X1938871Y9999468D02*
X2031148Y10258079D01*
X1854898Y9738043D02*
X1938871Y9999468D01*
X1779313Y9474072D02*
X1854898Y9738043D01*
X1712194Y9207821D02*
X1779313Y9474072D01*
X1653608Y8939565D02*
X1712194Y9207821D01*
X1603617Y8669574D02*
X1653608Y8939565D01*
X1562270Y8398124D02*
X1603617Y8669574D01*
X1529609Y8125494D02*
X1562270Y8398124D01*
X1505669Y7851959D02*
X1529609Y8125494D01*
X1490473Y7577800D02*
X1505669Y7851959D01*
X1484037Y7303296D02*
X1490473Y7577800D01*
X1484037Y7303296D02*
X1486367Y7028726D01*
X1497463Y6754370D01*
X1517311Y6480508D01*
X1524438Y6442469D01*
X1538757Y6406514D01*
X1559735Y6373991D01*
X1586583Y6346117D01*
X1618296Y6323936D01*
X1653688Y6308277D01*
X1691434Y6299728D01*
X1730118Y6298610D01*
X1768295Y6304962D01*
X2709015Y6557027D01*
X2747698Y6563414D01*
X2786884Y6562131D01*
X2825066Y6553228D01*
X2860779Y6537048D01*
X2892648Y6514210D01*
X2919450Y6485594D01*
X2940153Y6452300D01*
X2953963Y6415606D01*
X3497483Y4387162D01*
X3503870Y4348479D01*
X3502587Y4309293D02*
X3503870Y4348479D01*
X3493685Y4271110D02*
X3502587Y4309293D01*
X3477504Y4235398D02*
X3493685Y4271110D01*
X3454666Y4203529D02*
X3477504Y4235398D01*
X3426051Y4176727D02*
X3454666Y4203529D01*
X3392756Y4156023D02*
X3426051Y4176727D01*
X3356062Y4142213D02*
X3392756Y4156023D01*
X2415343Y3890148D02*
X3356062Y4142213D01*
X2379104Y3876561D02*
X2415343Y3890148D01*
X2346161Y3856250D02*
X2379104Y3876561D01*
X2317748Y3829974D02*
X2346161Y3856250D01*
X2294927Y3798717D02*
X2317748Y3829974D01*
X2278552Y3763650D02*
X2294927Y3798717D01*
X2269238Y3726087D02*
X2278552Y3763650D01*
X2267334Y3687433D02*
X2269238Y3726087D01*
X2267334Y3687433D02*
X2272909Y3649135D01*
X2285756Y3612629D01*
X2383775Y3408900D01*
X2487114Y3207820D01*
X2595703Y3009525D01*
X2709468Y2814153D01*
%TF.MD5,649cdb0a083c724f6f4842067ffb00d9*%
M02*
