%TF.GenerationSoftware,Altium Limited,Altium Designer,23.6.0 (18)*%
G04 Layer_Color=128*
%FSLAX45Y45*%
%MOMM*%
%TF.SameCoordinates,8B2A78E3-6762-467B-82E4-ABAB87B9FA14*%
%TF.FilePolarity,Positive*%
%TF.FileFunction,Drillmap*%
%TF.Part,Single*%
G01*
G75*
%TA.AperFunction,NonConductor*%
%ADD71C,0.12700*%
D71*
X1801500Y6738000D02*
X2061500D01*
X1931500Y6608000D02*
Y6868000D01*
X7605400Y6738000D02*
X7865400D01*
X7735400Y6608000D02*
Y6868000D01*
X7605400Y1848500D02*
X7865400D01*
X7735400Y1718500D02*
Y1978500D01*
X1788800Y1848500D02*
X2048800D01*
X1918800Y1718500D02*
Y1978500D01*
X7207800Y1734200D02*
X7297800D01*
X7252800Y1689200D02*
Y1779200D01*
X7207800Y1988200D02*
X7297800D01*
X7252800Y1943200D02*
Y2033200D01*
X6953800Y1734200D02*
X7043800D01*
X6998800Y1689200D02*
Y1779200D01*
X6953800Y1988200D02*
X7043800D01*
X6998800Y1943200D02*
Y2033200D01*
X6699800Y1734200D02*
X6789800D01*
X6744800Y1689200D02*
Y1779200D01*
X6699800Y1988200D02*
X6789800D01*
X6744800Y1943200D02*
Y2033200D01*
X6445800Y1734200D02*
X6535800D01*
X6490800Y1689200D02*
Y1779200D01*
X6191800Y1734200D02*
X6281800D01*
X6236800Y1689200D02*
Y1779200D01*
X6191800Y1988200D02*
X6281800D01*
X6236800Y1943200D02*
Y2033200D01*
X5937800Y1734200D02*
X6027800D01*
X5982800Y1689200D02*
Y1779200D01*
X5937800Y1988200D02*
X6027800D01*
X5982800Y1943200D02*
Y2033200D01*
X5683800Y1734200D02*
X5773800D01*
X5728800Y1689200D02*
Y1779200D01*
X5683800Y1988200D02*
X5773800D01*
X5728800Y1943200D02*
Y2033200D01*
X5429800Y1734200D02*
X5519800D01*
X5474800Y1689200D02*
Y1779200D01*
X5429800Y1988200D02*
X5519800D01*
X5474800Y1943200D02*
Y2033200D01*
X5175800Y1734200D02*
X5265800D01*
X5220800Y1689200D02*
Y1779200D01*
X5175800Y1988200D02*
X5265800D01*
X5220800Y1943200D02*
Y2033200D01*
X4921800Y1734200D02*
X5011800D01*
X4966800Y1689200D02*
Y1779200D01*
X4921800Y1988200D02*
X5011800D01*
X4966800Y1943200D02*
Y2033200D01*
X4667800Y1734200D02*
X4757800D01*
X4712800Y1689200D02*
Y1779200D01*
X4667800Y1988200D02*
X4757800D01*
X4712800Y1943200D02*
Y2033200D01*
X4413800Y1734200D02*
X4503800D01*
X4458800Y1689200D02*
Y1779200D01*
X4413800Y1988200D02*
X4503800D01*
X4458800Y1943200D02*
Y2033200D01*
X4159800Y1734200D02*
X4249800D01*
X4204800Y1689200D02*
Y1779200D01*
X4159800Y1988200D02*
X4249800D01*
X4204800Y1943200D02*
Y2033200D01*
X3905800Y1734200D02*
X3995800D01*
X3950800Y1689200D02*
Y1779200D01*
X3905800Y1988200D02*
X3995800D01*
X3950800Y1943200D02*
Y2033200D01*
X3651800Y1734200D02*
X3741800D01*
X3696800Y1689200D02*
Y1779200D01*
X3651800Y1988200D02*
X3741800D01*
X3696800Y1943200D02*
Y2033200D01*
X3397800Y1734200D02*
X3487800D01*
X3442800Y1689200D02*
Y1779200D01*
X3397800Y1988200D02*
X3487800D01*
X3442800Y1943200D02*
Y2033200D01*
X3143800Y1734200D02*
X3233800D01*
X3188800Y1689200D02*
Y1779200D01*
X3143800Y1988200D02*
X3233800D01*
X3188800Y1943200D02*
Y2033200D01*
X2889800Y1734200D02*
X2979800D01*
X2934800Y1689200D02*
Y1779200D01*
X2889800Y1988200D02*
X2979800D01*
X2934800Y1943200D02*
Y2033200D01*
X2635800Y1734200D02*
X2725800D01*
X2680800Y1689200D02*
Y1779200D01*
X2635800Y1988200D02*
X2725800D01*
X2680800Y1943200D02*
Y2033200D01*
X2381800Y1734200D02*
X2471800D01*
X2426800Y1689200D02*
Y1779200D01*
X2381800Y1988200D02*
X2471800D01*
X2426800Y1943200D02*
Y2033200D01*
X6445800Y1988200D02*
X6535800D01*
X6490800Y1943200D02*
Y2033200D01*
X8965000Y3540000D02*
X9105000D01*
X9035000Y3470000D02*
Y3610000D01*
X9515000Y3540000D02*
X9655000D01*
X9585000Y3470000D02*
Y3610000D01*
X-1442500Y2975000D02*
X-1302500D01*
X-1372500Y2905000D02*
Y3045000D01*
X-1992500Y2975000D02*
X-1852500D01*
X-1922500Y2905000D02*
Y3045000D01*
X7805000Y14172501D02*
X8255000D01*
X8030000Y13947501D02*
Y14397501D01*
X7085000Y14203000D02*
X7535000D01*
X7310000Y13978000D02*
Y14428000D01*
X5807500Y15062500D02*
X5967500D01*
X5887500Y14982500D02*
Y15142500D01*
X6277500Y15062500D02*
X6437500D01*
X6357500Y14982500D02*
Y15142500D01*
X6747500Y15062500D02*
X6907500D01*
X6827500Y14982500D02*
Y15142500D01*
X-470000Y9470000D02*
X-335000D01*
X-402500Y9402500D02*
Y9537500D01*
X-849000Y8845000D02*
X-724000D01*
X-786500Y8782500D02*
Y8907500D01*
X-849000Y9095000D02*
X-724000D01*
X-786500Y9032500D02*
Y9157500D01*
X-849000Y9345000D02*
X-724000D01*
X-786500Y9282500D02*
Y9407500D01*
X-849000Y9595000D02*
X-724000D01*
X-786500Y9532500D02*
Y9657500D01*
X-849000Y9845000D02*
X-724000D01*
X-786500Y9782500D02*
Y9907500D01*
X-595000Y8845000D02*
X-470000D01*
X-532500Y8782500D02*
Y8907500D01*
X-595000Y9095000D02*
X-470000D01*
X-532500Y9032500D02*
Y9157500D01*
X-595000Y9345000D02*
X-470000D01*
X-532500Y9282500D02*
Y9407500D01*
X-595000Y9595000D02*
X-470000D01*
X-532500Y9532500D02*
Y9657500D01*
X-595000Y9845000D02*
X-470000D01*
X-532500Y9782500D02*
Y9907500D01*
X-456700Y11287700D02*
X-321700D01*
X-389200Y11220200D02*
Y11355200D01*
X-835700Y10662700D02*
X-710700D01*
X-773200Y10600200D02*
Y10725200D01*
X-835700Y10912700D02*
X-710700D01*
X-773200Y10850200D02*
Y10975200D01*
X-835700Y11162700D02*
X-710700D01*
X-773200Y11100200D02*
Y11225200D01*
X-835700Y11412700D02*
X-710700D01*
X-773200Y11350200D02*
Y11475200D01*
X-835700Y11662700D02*
X-710700D01*
X-773200Y11600200D02*
Y11725200D01*
X-581700Y10662700D02*
X-456700D01*
X-519200Y10600200D02*
Y10725200D01*
X-581700Y10912700D02*
X-456700D01*
X-519200Y10850200D02*
Y10975200D01*
X-581700Y11162700D02*
X-456700D01*
X-519200Y11100200D02*
Y11225200D01*
X-581700Y11412700D02*
X-456700D01*
X-519200Y11350200D02*
Y11475200D01*
X-581700Y11662700D02*
X-456700D01*
X-519200Y11600200D02*
Y11725200D01*
X7563700Y9162100D02*
X7698700D01*
X7631200Y9094600D02*
Y9229600D01*
X7952700Y9787100D02*
X8077700D01*
X8015200Y9724600D02*
Y9849600D01*
X7952700Y9537100D02*
X8077700D01*
X8015200Y9474600D02*
Y9599600D01*
X7952700Y9287100D02*
X8077700D01*
X8015200Y9224600D02*
Y9349600D01*
X7952700Y9037100D02*
X8077700D01*
X8015200Y8974600D02*
Y9099600D01*
X7952700Y8787100D02*
X8077700D01*
X8015200Y8724600D02*
Y8849600D01*
X7698700Y9787100D02*
X7823700D01*
X7761200Y9724600D02*
Y9849600D01*
X7698700Y9537100D02*
X7823700D01*
X7761200Y9474600D02*
Y9599600D01*
X7698700Y9287100D02*
X7823700D01*
X7761200Y9224600D02*
Y9349600D01*
X7698700Y9037100D02*
X7823700D01*
X7761200Y8974600D02*
Y9099600D01*
X7698700Y8787100D02*
X7823700D01*
X7761200Y8724600D02*
Y8849600D01*
X7686000Y10662700D02*
X7811000D01*
X7748500Y10600200D02*
Y10725200D01*
X7686000Y10912700D02*
X7811000D01*
X7748500Y10850200D02*
Y10975200D01*
X7686000Y11162700D02*
X7811000D01*
X7748500Y11100200D02*
Y11225200D01*
X7686000Y11412700D02*
X7811000D01*
X7748500Y11350200D02*
Y11475200D01*
X7686000Y11662700D02*
X7811000D01*
X7748500Y11600200D02*
Y11725200D01*
X7940000Y10662700D02*
X8065000D01*
X8002500Y10600200D02*
Y10725200D01*
X7940000Y10912700D02*
X8065000D01*
X8002500Y10850200D02*
Y10975200D01*
X7940000Y11162700D02*
X8065000D01*
X8002500Y11100200D02*
Y11225200D01*
X7940000Y11412700D02*
X8065000D01*
X8002500Y11350200D02*
Y11475200D01*
X7940000Y11662700D02*
X8065000D01*
X8002500Y11600200D02*
Y11725200D01*
X7551000Y11037700D02*
X7686000D01*
X7618500Y10970200D02*
Y11105200D01*
X-1170000Y14594000D02*
X-870000D01*
X-1020000Y14444000D02*
Y14744000D01*
X-200000Y14089999D02*
X-60000D01*
X-130000Y14020000D02*
Y14160001D01*
X640000Y14089999D02*
X780000D01*
X710000Y14020000D02*
Y14160001D01*
X220000Y14089999D02*
X360000D01*
X290000Y14020000D02*
Y14160001D01*
X-620000Y14089999D02*
X-480000D01*
X-550000Y14020000D02*
Y14160001D01*
X-620000Y14639999D02*
X-480000D01*
X-550000Y14570000D02*
Y14710001D01*
X-200000Y14639999D02*
X-60000D01*
X-130000Y14570000D02*
Y14710001D01*
X640000Y14639999D02*
X780000D01*
X710000Y14570000D02*
Y14710001D01*
X220000Y14639999D02*
X360000D01*
X290000Y14570000D02*
Y14710001D01*
X1030000Y14594000D02*
X1330000D01*
X1180000Y14444000D02*
Y14744000D01*
X8365000Y2440000D02*
X8485000D01*
X8425000Y2380000D02*
Y2500000D01*
X8615000Y2440000D02*
X8735000D01*
X8675000Y2380000D02*
Y2500000D01*
X8365000Y2690000D02*
X8485000D01*
X8425000Y2630000D02*
Y2750000D01*
X8615000Y2690000D02*
X8735000D01*
X8675000Y2630000D02*
Y2750000D01*
X8744000Y2565000D02*
X8874000D01*
X8809000Y2500000D02*
Y2630000D01*
X6727612Y3439272D02*
X6827612D01*
X6777612Y3389272D02*
Y3489271D01*
X6473612Y3439272D02*
X6573612D01*
X6523612Y3389272D02*
Y3489271D01*
X6727612Y3693272D02*
X6827612D01*
X6777612Y3643272D02*
Y3743271D01*
X6473612Y3693272D02*
X6573612D01*
X6523612Y3643272D02*
Y3743271D01*
X6727612Y3947272D02*
X6827612D01*
X6777612Y3897272D02*
Y3997271D01*
X6473612Y3947272D02*
X6573612D01*
X6523612Y3897272D02*
Y3997271D01*
X6727612Y4201272D02*
X6827612D01*
X6777612Y4151272D02*
Y4251271D01*
X6473612Y4201272D02*
X6573612D01*
X6523612Y4151272D02*
Y4251271D01*
X6727612Y4455272D02*
X6827612D01*
X6777612Y4405272D02*
Y4505271D01*
X6473612Y4455272D02*
X6573612D01*
X6523612Y4405272D02*
Y4505271D01*
X6727612Y4709272D02*
X6827612D01*
X6777612Y4659272D02*
Y4759271D01*
X6473612Y4709272D02*
X6573612D01*
X6523612Y4659272D02*
Y4759271D01*
X6727612Y4963272D02*
X6827612D01*
X6777612Y4913272D02*
Y5013271D01*
X6473612Y4963272D02*
X6573612D01*
X6523612Y4913272D02*
Y5013271D01*
X6727612Y5217272D02*
X6827612D01*
X6777612Y5167272D02*
Y5267271D01*
X6473612Y5217272D02*
X6573612D01*
X6523612Y5167272D02*
Y5267271D01*
X6727612Y5471272D02*
X6827612D01*
X6777612Y5421272D02*
Y5521271D01*
X6473612Y5471272D02*
X6573612D01*
X6523612Y5421272D02*
Y5521271D01*
X6727612Y5725272D02*
X6827612D01*
X6777612Y5675272D02*
Y5775271D01*
X6473612Y5725272D02*
X6573612D01*
X6523612Y5675272D02*
Y5775271D01*
X6727612Y5979272D02*
X6827612D01*
X6777612Y5929272D02*
Y6029271D01*
X6473612Y5979272D02*
X6573612D01*
X6523612Y5929272D02*
Y6029271D01*
X6727612Y6233272D02*
X6827612D01*
X6777612Y6183272D02*
Y6283271D01*
X6473612Y6233272D02*
X6573612D01*
X6523612Y6183272D02*
Y6283271D01*
X6727612Y6487272D02*
X6827612D01*
X6777612Y6437272D02*
Y6537271D01*
X6473612Y6487272D02*
X6573612D01*
X6523612Y6437272D02*
Y6537271D01*
X6727612Y6741272D02*
X6827612D01*
X6777612Y6691272D02*
Y6791271D01*
X6473612Y6741272D02*
X6573612D01*
X6523612Y6691272D02*
Y6791271D01*
X6727612Y6995272D02*
X6827612D01*
X6777612Y6945272D02*
Y7045271D01*
X6473612Y6995272D02*
X6573612D01*
X6523612Y6945272D02*
Y7045271D01*
X6727612Y7249272D02*
X6827612D01*
X6777612Y7199272D02*
Y7299271D01*
X6473612Y7249272D02*
X6573612D01*
X6523612Y7199272D02*
Y7299271D01*
X6727612Y7503272D02*
X6827612D01*
X6777612Y7453272D02*
Y7553271D01*
X6473612Y7503272D02*
X6573612D01*
X6523612Y7453272D02*
Y7553271D01*
X6727612Y7757272D02*
X6827612D01*
X6777612Y7707272D02*
Y7807271D01*
X6473612Y7757272D02*
X6573612D01*
X6523612Y7707272D02*
Y7807271D01*
X6727612Y8011272D02*
X6827612D01*
X6777612Y7961272D02*
Y8061271D01*
X6473612Y8011272D02*
X6573612D01*
X6523612Y7961272D02*
Y8061271D01*
X6727612Y8265272D02*
X6827612D01*
X6777612Y8215272D02*
Y8315271D01*
X6473612Y8265272D02*
X6573612D01*
X6523612Y8215272D02*
Y8315271D01*
X6727612Y8519272D02*
X6827612D01*
X6777612Y8469272D02*
Y8569271D01*
X6473612Y8519272D02*
X6573612D01*
X6523612Y8469272D02*
Y8569271D01*
X6727612Y8773272D02*
X6827612D01*
X6777612Y8723272D02*
Y8823271D01*
X6473612Y8773272D02*
X6573612D01*
X6523612Y8723272D02*
Y8823271D01*
X6727612Y9027272D02*
X6827612D01*
X6777612Y8977272D02*
Y9077271D01*
X6473612Y9027272D02*
X6573612D01*
X6523612Y8977272D02*
Y9077271D01*
X6727612Y9281272D02*
X6827612D01*
X6777612Y9231272D02*
Y9331271D01*
X6473612Y9281272D02*
X6573612D01*
X6523612Y9231272D02*
Y9331271D01*
X6727612Y9535272D02*
X6827612D01*
X6777612Y9485272D02*
Y9585271D01*
X6473612Y9535272D02*
X6573612D01*
X6523612Y9485272D02*
Y9585271D01*
X6727612Y9789272D02*
X6827612D01*
X6777612Y9739272D02*
Y9839271D01*
X6473612Y9789272D02*
X6573612D01*
X6523612Y9739272D02*
Y9839271D01*
X6727612Y10043272D02*
X6827612D01*
X6777612Y9993272D02*
Y10093271D01*
X6473612Y10043272D02*
X6573612D01*
X6523612Y9993272D02*
Y10093271D01*
X6727612Y10297272D02*
X6827612D01*
X6777612Y10247272D02*
Y10347271D01*
X6473612Y10297272D02*
X6573612D01*
X6523612Y10247272D02*
Y10347271D01*
X6727612Y10551272D02*
X6827612D01*
X6777612Y10501272D02*
Y10601271D01*
X6473612Y10551272D02*
X6573612D01*
X6523612Y10501272D02*
Y10601271D01*
X6727612Y10805272D02*
X6827612D01*
X6777612Y10755272D02*
Y10855271D01*
X6473612Y10805272D02*
X6573612D01*
X6523612Y10755272D02*
Y10855271D01*
X6727612Y11059272D02*
X6827612D01*
X6777612Y11009272D02*
Y11109271D01*
X6473612Y11059272D02*
X6573612D01*
X6523612Y11009272D02*
Y11109271D01*
X6727612Y11313272D02*
X6827612D01*
X6777612Y11263272D02*
Y11363271D01*
X6473612Y11313272D02*
X6573612D01*
X6523612Y11263272D02*
Y11363271D01*
X6727612Y11567272D02*
X6827612D01*
X6777612Y11517272D02*
Y11617271D01*
X6473612Y11567272D02*
X6573612D01*
X6523612Y11517272D02*
Y11617271D01*
X6727612Y11821272D02*
X6827612D01*
X6777612Y11771272D02*
Y11871271D01*
X6473612Y11821272D02*
X6573612D01*
X6523612Y11771272D02*
Y11871271D01*
X6727612Y12075272D02*
X6827612D01*
X6777612Y12025272D02*
Y12125271D01*
X6473612Y12075272D02*
X6573612D01*
X6523612Y12025272D02*
Y12125271D01*
X631612Y3441273D02*
X731612D01*
X681612Y3391273D02*
Y3491273D01*
X377612Y3441273D02*
X477612D01*
X427612Y3391273D02*
Y3491273D01*
X6727612Y12329272D02*
X6827612D01*
X6777612Y12279272D02*
Y12379271D01*
X6473612Y12329272D02*
X6573612D01*
X6523612Y12279272D02*
Y12379271D01*
X631612Y3695273D02*
X731612D01*
X681612Y3645273D02*
Y3745273D01*
X377612Y3695273D02*
X477612D01*
X427612Y3645273D02*
Y3745273D01*
X631612Y3949273D02*
X731612D01*
X681612Y3899273D02*
Y3999273D01*
X377612Y3949273D02*
X477612D01*
X427612Y3899273D02*
Y3999273D01*
X631612Y4203273D02*
X731612D01*
X681612Y4153273D02*
Y4253273D01*
X377612Y4203273D02*
X477612D01*
X427612Y4153273D02*
Y4253273D01*
X631612Y4457273D02*
X731612D01*
X681612Y4407273D02*
Y4507273D01*
X377612Y4457273D02*
X477612D01*
X427612Y4407273D02*
Y4507273D01*
X631612Y4711273D02*
X731612D01*
X681612Y4661273D02*
Y4761273D01*
X377612Y4711273D02*
X477612D01*
X427612Y4661273D02*
Y4761273D01*
X631612Y4965273D02*
X731612D01*
X681612Y4915273D02*
Y5015273D01*
X377612Y4965273D02*
X477612D01*
X427612Y4915273D02*
Y5015273D01*
X631612Y5219273D02*
X731612D01*
X681612Y5169273D02*
Y5269273D01*
X377612Y5219273D02*
X477612D01*
X427612Y5169273D02*
Y5269273D01*
X631612Y5473273D02*
X731612D01*
X681612Y5423273D02*
Y5523273D01*
X377612Y5473273D02*
X477612D01*
X427612Y5423273D02*
Y5523273D01*
X631612Y5727273D02*
X731612D01*
X681612Y5677273D02*
Y5777273D01*
X377612Y5727273D02*
X477612D01*
X427612Y5677273D02*
Y5777273D01*
X631612Y5981273D02*
X731612D01*
X681612Y5931273D02*
Y6031273D01*
X377612Y5981273D02*
X477612D01*
X427612Y5931273D02*
Y6031273D01*
X631612Y6235273D02*
X731612D01*
X681612Y6185273D02*
Y6285273D01*
X377612Y6235273D02*
X477612D01*
X427612Y6185273D02*
Y6285273D01*
X631612Y6489273D02*
X731612D01*
X681612Y6439273D02*
Y6539273D01*
X377612Y6489273D02*
X477612D01*
X427612Y6439273D02*
Y6539273D01*
X631612Y6743273D02*
X731612D01*
X681612Y6693273D02*
Y6793273D01*
X377612Y6743273D02*
X477612D01*
X427612Y6693273D02*
Y6793273D01*
X631612Y6997273D02*
X731612D01*
X681612Y6947273D02*
Y7047273D01*
X377612Y6997273D02*
X477612D01*
X427612Y6947273D02*
Y7047273D01*
X631612Y7251273D02*
X731612D01*
X681612Y7201273D02*
Y7301273D01*
X377612Y7251273D02*
X477612D01*
X427612Y7201273D02*
Y7301273D01*
X631612Y7505273D02*
X731612D01*
X681612Y7455273D02*
Y7555273D01*
X377612Y7505273D02*
X477612D01*
X427612Y7455273D02*
Y7555273D01*
X631612Y7759273D02*
X731612D01*
X681612Y7709273D02*
Y7809273D01*
X377612Y7759273D02*
X477612D01*
X427612Y7709273D02*
Y7809273D01*
X631612Y8013273D02*
X731612D01*
X681612Y7963273D02*
Y8063273D01*
X377612Y8013273D02*
X477612D01*
X427612Y7963273D02*
Y8063273D01*
X631612Y8267273D02*
X731612D01*
X681612Y8217273D02*
Y8317273D01*
X377612Y8267273D02*
X477612D01*
X427612Y8217273D02*
Y8317273D01*
X631612Y8521273D02*
X731612D01*
X681612Y8471273D02*
Y8571273D01*
X377612Y8521273D02*
X477612D01*
X427612Y8471273D02*
Y8571273D01*
X631612Y8775273D02*
X731612D01*
X681612Y8725273D02*
Y8825273D01*
X377612Y8775273D02*
X477612D01*
X427612Y8725273D02*
Y8825273D01*
X631612Y9029273D02*
X731612D01*
X681612Y8979273D02*
Y9079273D01*
X377612Y9029273D02*
X477612D01*
X427612Y8979273D02*
Y9079273D01*
X631612Y9283273D02*
X731612D01*
X681612Y9233273D02*
Y9333273D01*
X377612Y9283273D02*
X477612D01*
X427612Y9233273D02*
Y9333273D01*
X631612Y9537273D02*
X731612D01*
X681612Y9487273D02*
Y9587273D01*
X377612Y9537273D02*
X477612D01*
X427612Y9487273D02*
Y9587273D01*
X631612Y9791273D02*
X731612D01*
X681612Y9741273D02*
Y9841273D01*
X377612Y9791273D02*
X477612D01*
X427612Y9741273D02*
Y9841273D01*
X631612Y10045273D02*
X731612D01*
X681612Y9995273D02*
Y10095273D01*
X377612Y10045273D02*
X477612D01*
X427612Y9995273D02*
Y10095273D01*
X631612Y10299273D02*
X731612D01*
X681612Y10249273D02*
Y10349273D01*
X377612Y10299273D02*
X477612D01*
X427612Y10249273D02*
Y10349273D01*
X631612Y10553273D02*
X731612D01*
X681612Y10503273D02*
Y10603273D01*
X377612Y10553273D02*
X477612D01*
X427612Y10503273D02*
Y10603273D01*
X631612Y10807273D02*
X731612D01*
X681612Y10757273D02*
Y10857273D01*
X377612Y10807273D02*
X477612D01*
X427612Y10757273D02*
Y10857273D01*
X631612Y11061273D02*
X731612D01*
X681612Y11011273D02*
Y11111273D01*
X377612Y11061273D02*
X477612D01*
X427612Y11011273D02*
Y11111273D01*
X631612Y11315273D02*
X731612D01*
X681612Y11265273D02*
Y11365273D01*
X377612Y11315273D02*
X477612D01*
X427612Y11265273D02*
Y11365273D01*
X631612Y11569273D02*
X731612D01*
X681612Y11519273D02*
Y11619273D01*
X377612Y11569273D02*
X477612D01*
X427612Y11519273D02*
Y11619273D01*
X631612Y11823273D02*
X731612D01*
X681612Y11773273D02*
Y11873273D01*
X377612Y11823273D02*
X477612D01*
X427612Y11773273D02*
Y11873273D01*
X631612Y12077273D02*
X731612D01*
X681612Y12027273D02*
Y12127273D01*
X377612Y12077273D02*
X477612D01*
X427612Y12027273D02*
Y12127273D01*
X631612Y12331273D02*
X731612D01*
X681612Y12281273D02*
Y12381273D01*
X377612Y12331273D02*
X477612D01*
X427612Y12281273D02*
Y12381273D01*
X-3767500Y5555000D02*
X-3682500D01*
X-3725000Y5512500D02*
Y5597500D01*
X-3767500Y6055000D02*
X-3682500D01*
X-3725000Y6012500D02*
Y6097500D01*
X-3833000Y9469500D02*
X-3728000D01*
X-3780500Y9417000D02*
Y9522000D01*
X-3833000Y9215500D02*
X-3728000D01*
X-3780500Y9163000D02*
Y9268000D01*
X-3833000Y8961500D02*
X-3728000D01*
X-3780500Y8909000D02*
Y9014000D01*
X-3833000Y8707500D02*
X-3728000D01*
X-3780500Y8655000D02*
Y8760000D01*
X-3833000Y8453500D02*
X-3728000D01*
X-3780500Y8401000D02*
Y8506000D01*
X-4595000Y8453500D02*
X-4490000D01*
X-4542500Y8401000D02*
Y8506000D01*
X-4595000Y8707500D02*
X-4490000D01*
X-4542500Y8655000D02*
Y8760000D01*
X-4595000Y8961500D02*
X-4490000D01*
X-4542500Y8909000D02*
Y9014000D01*
X-4595000Y9215500D02*
X-4490000D01*
X-4542500Y9163000D02*
Y9268000D01*
X-4595000Y9469500D02*
X-4490000D01*
X-4542500Y9417000D02*
Y9522000D01*
X-2329900Y3965330D02*
X-2239900D01*
X-2284900Y3920330D02*
Y4010330D01*
X-2456900Y4185300D02*
X-2366900D01*
X-2411900Y4140300D02*
Y4230300D01*
X-2583900Y4405271D02*
X-2493900D01*
X-2538900Y4360271D02*
Y4450270D01*
X-2710900Y4625241D02*
X-2620900D01*
X-2665900Y4580241D02*
Y4670241D01*
X11557500Y9017503D02*
X11797500D01*
X11677500Y8897503D02*
Y9137503D01*
X9157500Y5444998D02*
X9397500D01*
X9277500Y5324998D02*
Y5564998D01*
X-2782501Y11889999D02*
X-2542501D01*
X-2662501Y11769999D02*
Y12009999D01*
X-387500Y8319998D02*
X-147500D01*
X-267500Y8199998D02*
Y8439998D01*
X-380002Y3310001D02*
X-140002D01*
X-260002Y3190001D02*
Y3430001D01*
X-2782501Y6880001D02*
X-2542501D01*
X-2662501Y6760001D02*
Y7000001D01*
X7777498Y7240001D02*
X8017498D01*
X7897498Y7120000D02*
Y7360001D01*
X10180003Y3672499D02*
X10420003D01*
X10300003Y3552499D02*
Y3792499D01*
X9919998Y8602502D02*
X10159998D01*
X10039998Y8482502D02*
Y8722502D01*
X7514999Y12172498D02*
X7754999D01*
X7634999Y12052498D02*
Y12292498D01*
X9993213Y12393412D02*
X10333213D01*
X10163213Y12223412D02*
Y12563411D01*
X7440000Y876594D02*
X7780000D01*
X7610000Y706594D02*
Y1046594D01*
X-3113217Y12393412D02*
X-2773217D01*
X-2943217Y12223412D02*
Y12563411D01*
X-559999Y876594D02*
X-219999D01*
X-389999Y706594D02*
Y1046594D01*
X11474441Y10245000D02*
X11545561D01*
X11510001Y10209440D02*
Y10280560D01*
X11724441Y9745000D02*
X11795561D01*
X11760001Y9709440D02*
Y9780560D01*
X11724441Y8745000D02*
X11795561D01*
X11760001Y8709440D02*
Y8780560D01*
X11724441Y7745000D02*
X11795561D01*
X11760001Y7709440D02*
Y7780560D01*
X11724441Y6745000D02*
X11795561D01*
X11760001Y6709440D02*
Y6780560D01*
X11724441Y5745000D02*
X11795561D01*
X11760001Y5709440D02*
Y5780560D01*
X11474441Y5245000D02*
X11545561D01*
X11510001Y5209440D02*
Y5280560D01*
X11224441Y10745000D02*
X11295561D01*
X11260001Y10709440D02*
Y10780560D01*
X10974441Y9245000D02*
X11045561D01*
X11010001Y9209440D02*
Y9280560D01*
X10974441Y8245000D02*
X11045561D01*
X11010001Y8209440D02*
Y8280560D01*
X11224441Y4745000D02*
X11295561D01*
X11260001Y4709440D02*
Y4780560D01*
X10974441Y4245000D02*
X11045561D01*
X11010001Y4209440D02*
Y4280560D01*
X10474441Y12245000D02*
X10545561D01*
X10510001Y12209440D02*
Y12280560D01*
X10474441Y11245000D02*
X10545561D01*
X10510001Y11209440D02*
Y11280560D01*
X10724441Y9745000D02*
X10795561D01*
X10760001Y9709440D02*
Y9780560D01*
X10474441Y9245000D02*
X10545561D01*
X10510001Y9209440D02*
Y9280560D01*
X10724441Y8745000D02*
X10795561D01*
X10760001Y8709440D02*
Y8780560D01*
X10474441Y4245000D02*
X10545561D01*
X10510001Y4209440D02*
Y4280560D01*
X10224441Y12745000D02*
X10295561D01*
X10260001Y12709440D02*
Y12780560D01*
X9974441Y10245000D02*
X10045561D01*
X10010001Y10209440D02*
Y10280560D01*
X9974441Y9245000D02*
X10045561D01*
X10010001Y9209440D02*
Y9280560D01*
X10224441Y8745000D02*
X10295561D01*
X10260001Y8709440D02*
Y8780560D01*
X9474441Y12245000D02*
X9545561D01*
X9510001Y12209440D02*
Y12280560D01*
X8974441Y13245000D02*
X9045561D01*
X9010001Y13209441D02*
Y13280560D01*
X9224441Y12745000D02*
X9295561D01*
X9260001Y12709440D02*
Y12780560D01*
X8974441Y8245000D02*
X9045561D01*
X9010001Y8209440D02*
Y8280560D01*
X9224441Y3745000D02*
X9295561D01*
X9260001Y3709440D02*
Y3780560D01*
X8474441Y6245000D02*
X8545561D01*
X8510001Y6209440D02*
Y6280560D01*
X8474441Y5245000D02*
X8545561D01*
X8510001Y5209440D02*
Y5280560D01*
X8474441Y4245000D02*
X8545561D01*
X8510001Y4209440D02*
Y4280560D01*
X8724441Y3745000D02*
X8795561D01*
X8760001Y3709440D02*
Y3780560D01*
X8474441Y2245000D02*
X8545561D01*
X8510001Y2209440D02*
Y2280560D01*
X8474441Y1245000D02*
X8545561D01*
X8510001Y1209440D02*
Y1280560D01*
X8224440Y11745000D02*
X8295560D01*
X8260000Y11709440D02*
Y11780560D01*
X7974440Y4245000D02*
X8045560D01*
X8010000Y4209440D02*
Y4280560D01*
X8224440Y3745000D02*
X8295560D01*
X8260000Y3709440D02*
Y3780560D01*
X7974440Y3245000D02*
X8045560D01*
X8010000Y3209440D02*
Y3280560D01*
X7974440Y2245000D02*
X8045560D01*
X8010000Y2209440D02*
Y2280560D01*
X7974440Y1245000D02*
X8045560D01*
X8010000Y1209440D02*
Y1280560D01*
X7474440Y15245000D02*
X7545560D01*
X7510000Y15209441D02*
Y15280560D01*
X7724440Y7745000D02*
X7795560D01*
X7760000Y7709440D02*
Y7780560D01*
X7474440Y6245000D02*
X7545560D01*
X7510000Y6209440D02*
Y6280560D01*
X7724440Y2745000D02*
X7795560D01*
X7760000Y2709440D02*
Y2780560D01*
X7474440Y2245000D02*
X7545560D01*
X7510000Y2209440D02*
Y2280560D01*
X6974440Y15245000D02*
X7045560D01*
X7010000Y15209441D02*
Y15280560D01*
X7224440Y14745000D02*
X7295560D01*
X7260000Y14709441D02*
Y14780560D01*
X7224440Y12745000D02*
X7295560D01*
X7260000Y12709440D02*
Y12780560D01*
X6974440Y12245000D02*
X7045560D01*
X7010000Y12209440D02*
Y12280560D01*
X6974440Y11245000D02*
X7045560D01*
X7010000Y11209440D02*
Y11280560D01*
X6974440Y7245000D02*
X7045560D01*
X7010000Y7209440D02*
Y7280560D01*
X7224440Y5745000D02*
X7295560D01*
X7260000Y5709440D02*
Y5780560D01*
X6974440Y4245000D02*
X7045560D01*
X7010000Y4209440D02*
Y4280560D01*
X7224440Y3745000D02*
X7295560D01*
X7260000Y3709440D02*
Y3780560D01*
X6974440Y3245000D02*
X7045560D01*
X7010000Y3209440D02*
Y3280560D01*
X7224440Y2745000D02*
X7295560D01*
X7260000Y2709440D02*
Y2780560D01*
X6974440Y2245000D02*
X7045560D01*
X7010000Y2209440D02*
Y2280560D01*
X7224440Y745000D02*
X7295560D01*
X7260000Y709440D02*
Y780560D01*
X6974440Y245000D02*
X7045560D01*
X7010000Y209440D02*
Y280560D01*
X6474440Y15245000D02*
X6545560D01*
X6510000Y15209441D02*
Y15280560D01*
X6474440Y14245000D02*
X6545560D01*
X6510000Y14209441D02*
Y14280560D01*
X6724440Y12745000D02*
X6795560D01*
X6760000Y12709440D02*
Y12780560D01*
X6474440Y3245000D02*
X6545560D01*
X6510000Y3209440D02*
Y3280560D01*
X6724440Y2745000D02*
X6795560D01*
X6760000Y2709440D02*
Y2780560D01*
X6474440Y2245000D02*
X6545560D01*
X6510000Y2209440D02*
Y2280560D01*
X6724440Y745000D02*
X6795560D01*
X6760000Y709440D02*
Y780560D01*
X6474440Y245000D02*
X6545560D01*
X6510000Y209440D02*
Y280560D01*
X6224440Y15745001D02*
X6295560D01*
X6260000Y15709441D02*
Y15780560D01*
X6224440Y7745000D02*
X6295560D01*
X6260000Y7709440D02*
Y7780560D01*
X5974440Y7245000D02*
X6045560D01*
X6010000Y7209440D02*
Y7280560D01*
X5974440Y6245000D02*
X6045560D01*
X6010000Y6209440D02*
Y6280560D01*
X6224440Y5745000D02*
X6295560D01*
X6260000Y5709440D02*
Y5780560D01*
X6224440Y3745000D02*
X6295560D01*
X6260000Y3709440D02*
Y3780560D01*
X5974440Y3245000D02*
X6045560D01*
X6010000Y3209440D02*
Y3280560D01*
X5974440Y2245000D02*
X6045560D01*
X6010000Y2209440D02*
Y2280560D01*
X6224440Y745000D02*
X6295560D01*
X6260000Y709440D02*
Y780560D01*
X5974440Y245000D02*
X6045560D01*
X6010000Y209440D02*
Y280560D01*
X5724440Y15745001D02*
X5795560D01*
X5760000Y15709441D02*
Y15780560D01*
X5724440Y13745000D02*
X5795560D01*
X5760000Y13709441D02*
Y13780560D01*
X5474440Y12245000D02*
X5545560D01*
X5510000Y12209440D02*
Y12280560D01*
X5724440Y11745000D02*
X5795560D01*
X5760000Y11709440D02*
Y11780560D01*
X5474440Y11245000D02*
X5545560D01*
X5510000Y11209440D02*
Y11280560D01*
X5724440Y10745000D02*
X5795560D01*
X5760000Y10709440D02*
Y10780560D01*
X5724440Y7745000D02*
X5795560D01*
X5760000Y7709440D02*
Y7780560D01*
X5724440Y5745000D02*
X5795560D01*
X5760000Y5709440D02*
Y5780560D01*
X5724440Y4745000D02*
X5795560D01*
X5760000Y4709440D02*
Y4780560D01*
X5724440Y3745000D02*
X5795560D01*
X5760000Y3709440D02*
Y3780560D01*
X5474440Y3245000D02*
X5545560D01*
X5510000Y3209440D02*
Y3280560D01*
X5474440Y2245000D02*
X5545560D01*
X5510000Y2209440D02*
Y2280560D01*
X5724440Y745000D02*
X5795560D01*
X5760000Y709440D02*
Y780560D01*
X5474440Y245000D02*
X5545560D01*
X5510000Y209440D02*
Y280560D01*
X5224440Y12745000D02*
X5295560D01*
X5260000Y12709440D02*
Y12780560D01*
X4974440Y8245000D02*
X5045560D01*
X5010000Y8209440D02*
Y8280560D01*
X4974440Y7245000D02*
X5045560D01*
X5010000Y7209440D02*
Y7280560D01*
X4974440Y6245000D02*
X5045560D01*
X5010000Y6209440D02*
Y6280560D01*
X5224440Y5745000D02*
X5295560D01*
X5260000Y5709440D02*
Y5780560D01*
X5224440Y4745000D02*
X5295560D01*
X5260000Y4709440D02*
Y4780560D01*
X4974440Y4245000D02*
X5045560D01*
X5010000Y4209440D02*
Y4280560D01*
X4974440Y3245000D02*
X5045560D01*
X5010000Y3209440D02*
Y3280560D01*
X5224440Y2745000D02*
X5295560D01*
X5260000Y2709440D02*
Y2780560D01*
X4974440Y2245000D02*
X5045560D01*
X5010000Y2209440D02*
Y2280560D01*
X5224440Y745000D02*
X5295560D01*
X5260000Y709440D02*
Y780560D01*
X4974440Y245000D02*
X5045560D01*
X5010000Y209440D02*
Y280560D01*
X4474440Y10245000D02*
X4545560D01*
X4510000Y10209440D02*
Y10280560D01*
X4724440Y2745000D02*
X4795560D01*
X4760000Y2709440D02*
Y2780560D01*
X4474440Y2245000D02*
X4545560D01*
X4510000Y2209440D02*
Y2280560D01*
X4724440Y745000D02*
X4795560D01*
X4760000Y709440D02*
Y780560D01*
X4474440Y245000D02*
X4545560D01*
X4510000Y209440D02*
Y280560D01*
X3974440Y11245000D02*
X4045560D01*
X4010000Y11209440D02*
Y11280560D01*
X3974440Y9245000D02*
X4045560D01*
X4010000Y9209440D02*
Y9280560D01*
X4224440Y7745000D02*
X4295560D01*
X4260000Y7709440D02*
Y7780560D01*
X3974440Y6245000D02*
X4045560D01*
X4010000Y6209440D02*
Y6280560D01*
X4224440Y5745000D02*
X4295560D01*
X4260000Y5709440D02*
Y5780560D01*
X4224440Y4745000D02*
X4295560D01*
X4260000Y4709440D02*
Y4780560D01*
X3974440Y4245000D02*
X4045560D01*
X4010000Y4209440D02*
Y4280560D01*
X4224440Y2745000D02*
X4295560D01*
X4260000Y2709440D02*
Y2780560D01*
X3974440Y2245000D02*
X4045560D01*
X4010000Y2209440D02*
Y2280560D01*
X4224440Y745000D02*
X4295560D01*
X4260000Y709440D02*
Y780560D01*
X3974440Y245000D02*
X4045560D01*
X4010000Y209440D02*
Y280560D01*
X3724440Y12745000D02*
X3795560D01*
X3760000Y12709440D02*
Y12780560D01*
X3724440Y10745000D02*
X3795560D01*
X3760000Y10709440D02*
Y10780560D01*
X3724440Y9745000D02*
X3795560D01*
X3760000Y9709440D02*
Y9780560D01*
X3474440Y9245000D02*
X3545560D01*
X3510000Y9209440D02*
Y9280560D01*
X3724440Y6745000D02*
X3795560D01*
X3760000Y6709440D02*
Y6780560D01*
X3474440Y6245000D02*
X3545560D01*
X3510000Y6209440D02*
Y6280560D01*
X3724440Y5745000D02*
X3795560D01*
X3760000Y5709440D02*
Y5780560D01*
X3724440Y4745000D02*
X3795560D01*
X3760000Y4709440D02*
Y4780560D01*
X3474440Y4245000D02*
X3545560D01*
X3510000Y4209440D02*
Y4280560D01*
X3474440Y2245000D02*
X3545560D01*
X3510000Y2209440D02*
Y2280560D01*
X3724440Y745000D02*
X3795560D01*
X3760000Y709440D02*
Y780560D01*
X3474440Y245000D02*
X3545560D01*
X3510000Y209440D02*
Y280560D01*
X2974440Y12245000D02*
X3045560D01*
X3010000Y12209440D02*
Y12280560D01*
X3224440Y11745000D02*
X3295560D01*
X3260000Y11709440D02*
Y11780560D01*
X2974440Y11245000D02*
X3045560D01*
X3010000Y11209440D02*
Y11280560D01*
X2974440Y7245000D02*
X3045560D01*
X3010000Y7209440D02*
Y7280560D01*
X3224440Y6745000D02*
X3295560D01*
X3260000Y6709440D02*
Y6780560D01*
X2974440Y6245000D02*
X3045560D01*
X3010000Y6209440D02*
Y6280560D01*
X3224440Y5745000D02*
X3295560D01*
X3260000Y5709440D02*
Y5780560D01*
X3224440Y4745000D02*
X3295560D01*
X3260000Y4709440D02*
Y4780560D01*
X2974440Y4245000D02*
X3045560D01*
X3010000Y4209440D02*
Y4280560D01*
X2974440Y2245000D02*
X3045560D01*
X3010000Y2209440D02*
Y2280560D01*
X3224440Y745000D02*
X3295560D01*
X3260000Y709440D02*
Y780560D01*
X2974440Y245000D02*
X3045560D01*
X3010000Y209440D02*
Y280560D01*
X2724440Y12745000D02*
X2795560D01*
X2760000Y12709440D02*
Y12780560D01*
X2474440Y12245000D02*
X2545560D01*
X2510000Y12209440D02*
Y12280560D01*
X2724440Y11745000D02*
X2795560D01*
X2760000Y11709440D02*
Y11780560D01*
X2474440Y11245000D02*
X2545560D01*
X2510000Y11209440D02*
Y11280560D01*
X2724440Y5745000D02*
X2795560D01*
X2760000Y5709440D02*
Y5780560D01*
X2724440Y4745000D02*
X2795560D01*
X2760000Y4709440D02*
Y4780560D01*
X2474440Y4245000D02*
X2545560D01*
X2510000Y4209440D02*
Y4280560D01*
X2474440Y2245000D02*
X2545560D01*
X2510000Y2209440D02*
Y2280560D01*
X2724440Y745000D02*
X2795560D01*
X2760000Y709440D02*
Y780560D01*
X2474440Y245000D02*
X2545560D01*
X2510000Y209440D02*
Y280560D01*
X2224440Y6745000D02*
X2295560D01*
X2260000Y6709440D02*
Y6780560D01*
X2224440Y5745000D02*
X2295560D01*
X2260000Y5709440D02*
Y5780560D01*
X2224440Y4745000D02*
X2295560D01*
X2260000Y4709440D02*
Y4780560D01*
X1974440Y4245000D02*
X2045560D01*
X2010000Y4209440D02*
Y4280560D01*
X1974440Y2245000D02*
X2045560D01*
X2010000Y2209440D02*
Y2280560D01*
X2224440Y745000D02*
X2295560D01*
X2260000Y709440D02*
Y780560D01*
X1974440Y245000D02*
X2045560D01*
X2010000Y209440D02*
Y280560D01*
X1474440Y15245000D02*
X1545560D01*
X1510000Y15209441D02*
Y15280560D01*
X1724440Y12745000D02*
X1795560D01*
X1760000Y12709440D02*
Y12780560D01*
X1474440Y12245000D02*
X1545560D01*
X1510000Y12209440D02*
Y12280560D01*
X1724440Y11745000D02*
X1795560D01*
X1760000Y11709440D02*
Y11780560D01*
X1474440Y11245000D02*
X1545560D01*
X1510000Y11209440D02*
Y11280560D01*
X1724440Y9745000D02*
X1795560D01*
X1760000Y9709440D02*
Y9780560D01*
X1724440Y8745000D02*
X1795560D01*
X1760000Y8709440D02*
Y8780560D01*
X1474440Y7245000D02*
X1545560D01*
X1510000Y7209440D02*
Y7280560D01*
X1474440Y2245000D02*
X1545560D01*
X1510000Y2209440D02*
Y2280560D01*
X1724440Y745000D02*
X1795560D01*
X1760000Y709440D02*
Y780560D01*
X1474440Y245000D02*
X1545560D01*
X1510000Y209440D02*
Y280560D01*
X1224440Y15745001D02*
X1295560D01*
X1260000Y15709441D02*
Y15780560D01*
X974440Y15245000D02*
X1045560D01*
X1010000Y15209441D02*
Y15280560D01*
X974440Y6245000D02*
X1045560D01*
X1010000Y6209440D02*
Y6280560D01*
X1224440Y4745000D02*
X1295560D01*
X1260000Y4709440D02*
Y4780560D01*
X974440Y4245000D02*
X1045560D01*
X1010000Y4209440D02*
Y4280560D01*
X974440Y2245000D02*
X1045560D01*
X1010000Y2209440D02*
Y2280560D01*
X1224440Y1745000D02*
X1295560D01*
X1260000Y1709440D02*
Y1780560D01*
X1224440Y745000D02*
X1295560D01*
X1260000Y709440D02*
Y780560D01*
X974440Y245000D02*
X1045560D01*
X1010000Y209440D02*
Y280560D01*
X474440Y15245000D02*
X545560D01*
X510000Y15209441D02*
Y15280560D01*
X474440Y2245000D02*
X545560D01*
X510000Y2209440D02*
Y2280560D01*
X724440Y1745000D02*
X795560D01*
X760000Y1709440D02*
Y1780560D01*
X724440Y745000D02*
X795560D01*
X760000Y709440D02*
Y780560D01*
X474440Y245000D02*
X545560D01*
X510000Y209440D02*
Y280560D01*
X-25560Y15245000D02*
X45560D01*
X10000Y15209441D02*
Y15280560D01*
X-25560Y12245000D02*
X45560D01*
X10000Y12209440D02*
Y12280560D01*
X224440Y7745000D02*
X295560D01*
X260000Y7709440D02*
Y7780560D01*
X224440Y6745000D02*
X295560D01*
X260000Y6709440D02*
Y6780560D01*
X224440Y745000D02*
X295560D01*
X260000Y709440D02*
Y780560D01*
X-25560Y245000D02*
X45560D01*
X10000Y209440D02*
Y280560D01*
X-275560Y5745000D02*
X-204440D01*
X-240000Y5709440D02*
Y5780560D01*
X-525560Y5245000D02*
X-454440D01*
X-490000Y5209440D02*
Y5280560D01*
X-525560Y4245000D02*
X-454440D01*
X-490000Y4209440D02*
Y4280560D01*
X-775560Y14745000D02*
X-704440D01*
X-740000Y14709441D02*
Y14780560D01*
X-1025560Y14245000D02*
X-954440D01*
X-990000Y14209441D02*
Y14280560D01*
X-1025560Y4245000D02*
X-954440D01*
X-990000Y4209440D02*
Y4280560D01*
X-1025560Y1245000D02*
X-954440D01*
X-990000Y1209440D02*
Y1280560D01*
X-775560Y745000D02*
X-704440D01*
X-740000Y709440D02*
Y780560D01*
X-1275560Y13745000D02*
X-1204440D01*
X-1240000Y13709441D02*
Y13780560D01*
X-1525560Y8245000D02*
X-1454440D01*
X-1490000Y8209440D02*
Y8280560D01*
X-1275560Y6745000D02*
X-1204440D01*
X-1240000Y6709440D02*
Y6780560D01*
X-1525560Y5245000D02*
X-1454440D01*
X-1490000Y5209440D02*
Y5280560D01*
X-1275560Y2745000D02*
X-1204440D01*
X-1240000Y2709440D02*
Y2780560D01*
X-2275560Y12745000D02*
X-2204440D01*
X-2240000Y12709440D02*
Y12780560D01*
X-2775560Y12745000D02*
X-2704440D01*
X-2740000Y12709440D02*
Y12780560D01*
X-3025560Y11245000D02*
X-2954440D01*
X-2990000Y11209440D02*
Y11280560D01*
X-2775560Y3745000D02*
X-2704440D01*
X-2740000Y3709440D02*
Y3780560D01*
X-3025560Y3245000D02*
X-2954440D01*
X-2990000Y3209440D02*
Y3280560D01*
X-3525560Y12245000D02*
X-3454440D01*
X-3490000Y12209440D02*
Y12280560D01*
X-3525560Y11245000D02*
X-3454440D01*
X-3490000Y11209440D02*
Y11280560D01*
X-3525560Y9245000D02*
X-3454440D01*
X-3490000Y9209440D02*
Y9280560D01*
X-3275560Y8745000D02*
X-3204440D01*
X-3240000Y8709440D02*
Y8780560D01*
X-3525560Y8245000D02*
X-3454440D01*
X-3490000Y8209440D02*
Y8280560D01*
X-3275560Y7745000D02*
X-3204440D01*
X-3240000Y7709440D02*
Y7780560D01*
X-3275560Y6745000D02*
X-3204440D01*
X-3240000Y6709440D02*
Y6780560D01*
X-3525560Y6245000D02*
X-3454440D01*
X-3490000Y6209440D02*
Y6280560D01*
X-3275560Y5745000D02*
X-3204440D01*
X-3240000Y5709440D02*
Y5780560D01*
X-3525560Y5245000D02*
X-3454440D01*
X-3490000Y5209440D02*
Y5280560D01*
X-3275560Y4745000D02*
X-3204440D01*
X-3240000Y4709440D02*
Y4780560D01*
X-3525560Y4245000D02*
X-3454440D01*
X-3490000Y4209440D02*
Y4280560D01*
X-3275560Y3745000D02*
X-3204440D01*
X-3240000Y3709440D02*
Y3780560D01*
X-4025560Y11245000D02*
X-3954440D01*
X-3990000Y11209440D02*
Y11280560D01*
X-4025560Y8245000D02*
X-3954440D01*
X-3990000Y8209440D02*
Y8280560D01*
X-3775560Y7745000D02*
X-3704440D01*
X-3740000Y7709440D02*
Y7780560D01*
X-4025560Y7245000D02*
X-3954440D01*
X-3990000Y7209440D02*
Y7280560D01*
X-3775560Y6745000D02*
X-3704440D01*
X-3740000Y6709440D02*
Y6780560D01*
X-4025560Y6245000D02*
X-3954440D01*
X-3990000Y6209440D02*
Y6280560D01*
X-3775560Y5745000D02*
X-3704440D01*
X-3740000Y5709440D02*
Y5780560D01*
X-4025560Y5245000D02*
X-3954440D01*
X-3990000Y5209440D02*
Y5280560D01*
X-3775560Y4745000D02*
X-3704440D01*
X-3740000Y4709440D02*
Y4780560D01*
X-4025560Y4245000D02*
X-3954440D01*
X-3990000Y4209440D02*
Y4280560D01*
X-3775560Y3745000D02*
X-3704440D01*
X-3740000Y3709440D02*
Y3780560D01*
X-4275560Y10745000D02*
X-4204440D01*
X-4240000Y10709440D02*
Y10780560D01*
X-4525560Y8245000D02*
X-4454440D01*
X-4490000Y8209440D02*
Y8280560D01*
X-4275560Y7745000D02*
X-4204440D01*
X-4240000Y7709440D02*
Y7780560D01*
X-4525560Y7245000D02*
X-4454440D01*
X-4490000Y7209440D02*
Y7280560D01*
X-4275560Y6745000D02*
X-4204440D01*
X-4240000Y6709440D02*
Y6780560D01*
X-4525560Y6245000D02*
X-4454440D01*
X-4490000Y6209440D02*
Y6280560D01*
X-4275560Y5745000D02*
X-4204440D01*
X-4240000Y5709440D02*
Y5780560D01*
X-4275560Y4745000D02*
X-4204440D01*
X-4240000Y4709440D02*
Y4780560D01*
X3697500Y14502499D02*
X3727500D01*
X3712500Y14487500D02*
Y14517500D01*
X3442100Y14503731D02*
X3472100D01*
X3457100Y14488731D02*
Y14518732D01*
X-2847900Y7417100D02*
X-2817900D01*
X-2832900Y7402100D02*
Y7432100D01*
X-274566Y7787934D02*
X-244566D01*
X-259566Y7772934D02*
Y7802934D01*
X-102500Y8550000D02*
X-72500D01*
X-87500Y8535000D02*
Y8565000D01*
X7190000Y10137900D02*
X7220000D01*
X7205000Y10122900D02*
Y10152900D01*
X7049184Y10155816D02*
X7079184D01*
X7064184Y10140816D02*
Y10170816D01*
X7177500Y8320000D02*
X7207500D01*
X7192500Y8305000D02*
Y8335000D01*
X-2645000Y5827500D02*
X-2615000D01*
X-2630000Y5812500D02*
Y5842500D01*
X-2645000Y5947500D02*
X-2615000D01*
X-2630000Y5932500D02*
Y5962500D01*
X-2353334Y5947500D02*
X-2323334D01*
X-2338334Y5932500D02*
Y5962500D01*
X-2207501Y5947500D02*
X-2177501D01*
X-2192501Y5932500D02*
Y5962500D01*
X-2499167Y5947500D02*
X-2469167D01*
X-2484167Y5932500D02*
Y5962500D01*
X-2499167Y5827500D02*
X-2469167D01*
X-2484167Y5812500D02*
Y5842500D01*
X10482499Y5650000D02*
X10512499D01*
X10497499Y5635000D02*
Y5665000D01*
X10105000Y5652500D02*
X10135000D01*
X10120000Y5637500D02*
Y5667500D01*
X8835000Y8625000D02*
X8865000D01*
X8850000Y8610000D02*
Y8640000D01*
X9040000Y8562500D02*
X9070000D01*
X9055000Y8547500D02*
Y8577500D01*
X9247500Y8495000D02*
X9277500D01*
X9262500Y8480000D02*
Y8510000D01*
X-807500Y1927500D02*
X-777500D01*
X-792500Y1912500D02*
Y1942500D01*
X-593958Y1764895D02*
X-563958D01*
X-578958Y1749895D02*
Y1779895D01*
X-180000Y2750000D02*
X-150000D01*
X-165000Y2735000D02*
Y2765000D01*
X-715000Y3392500D02*
X-685000D01*
X-700000Y3377500D02*
Y3407500D01*
X4460000Y12765000D02*
X4490000D01*
X4475000Y12750000D02*
Y12780000D01*
X1070400Y10325000D02*
X1100400D01*
X1085400Y10310000D02*
Y10340000D01*
X-2847500Y6680000D02*
X-2817500D01*
X-2832500Y6665000D02*
Y6695000D01*
X4770000Y11550000D02*
X4800000D01*
X4785000Y11535000D02*
Y11565000D01*
X4617500Y11550000D02*
X4647500D01*
X4632500Y11535000D02*
Y11565000D01*
X4465000Y11550000D02*
X4495000D01*
X4480000Y11535000D02*
Y11565000D01*
X4312500Y11550000D02*
X4342500D01*
X4327500Y11535000D02*
Y11565000D01*
X5074999Y11550000D02*
X5104999D01*
X5089999Y11535000D02*
Y11565000D01*
X4922499Y11550000D02*
X4952499D01*
X4937499Y11535000D02*
Y11565000D01*
X4945000Y8472500D02*
X4975000D01*
X4960000Y8457500D02*
Y8487500D01*
X4830000Y6517500D02*
X4860000D01*
X4845000Y6502500D02*
Y6532500D01*
X7592500Y4830000D02*
X7622500D01*
X7607500Y4815000D02*
Y4845000D01*
X8305000Y5057500D02*
X8335000D01*
X8320000Y5042500D02*
Y5072500D01*
X2662500Y7637500D02*
X2692500D01*
X2677500Y7622500D02*
Y7652500D01*
X1980000Y12742500D02*
X2010000D01*
X1995000Y12727500D02*
Y12757500D01*
X3112500Y12125000D02*
X3142500D01*
X3127500Y12110000D02*
Y12140000D01*
X5202500Y11435000D02*
X5232500D01*
X5217500Y11420000D02*
Y11450000D01*
X3280000Y9722500D02*
X3310000D01*
X3295000Y9707500D02*
Y9737500D01*
X390000Y13617500D02*
X420000D01*
X405000Y13602499D02*
Y13632500D01*
X1207500Y13810001D02*
X1237500D01*
X1222500Y13795000D02*
Y13825000D01*
X-3305000Y11847500D02*
X-3275000D01*
X-3290000Y11832500D02*
Y11862500D01*
X1577500Y6357500D02*
X1607500D01*
X1592500Y6342500D02*
Y6372500D01*
X5117500Y6517500D02*
X5147500D01*
X5132500Y6502500D02*
Y6532500D01*
X1317500Y5095000D02*
X1347500D01*
X1332500Y5080000D02*
Y5110000D01*
X32500Y2110000D02*
X62500D01*
X47500Y2095000D02*
Y2125000D01*
X4542500Y6517500D02*
X4572500D01*
X4557500Y6502500D02*
Y6532500D01*
X4830000Y8667500D02*
X4860000D01*
X4845000Y8652500D02*
Y8682500D01*
X4982500Y8600000D02*
X5012500D01*
X4997500Y8585000D02*
Y8615000D01*
X-1707500Y4865000D02*
X-1677500D01*
X-1692500Y4850000D02*
Y4880000D01*
X-1702500Y3737500D02*
X-1672500D01*
X-1687500Y3722500D02*
Y3752500D01*
X1820000Y8157500D02*
X1850000D01*
X1835000Y8142500D02*
Y8172500D01*
X1345000Y7680000D02*
X1375000D01*
X1360000Y7665000D02*
Y7695000D01*
X1685000Y6467500D02*
X1715000D01*
X1700000Y6452500D02*
Y6482500D01*
X2045000Y5610000D02*
X2075000D01*
X2060000Y5595000D02*
Y5625000D01*
X8774000Y12185000D02*
X8804000D01*
X8789000Y12170000D02*
Y12200000D01*
X8774000Y12082500D02*
X8804000D01*
X8789000Y12067500D02*
Y12097500D01*
X8887500Y12082500D02*
X8917500D01*
X8902500Y12067500D02*
Y12097500D01*
X8887500Y12185000D02*
X8917500D01*
X8902500Y12170000D02*
Y12200000D01*
X8547000Y12187500D02*
X8577000D01*
X8562000Y12172500D02*
Y12202500D01*
X8547000Y12085000D02*
X8577000D01*
X8562000Y12070000D02*
Y12100000D01*
X8660500Y12085000D02*
X8690500D01*
X8675500Y12070000D02*
Y12100000D01*
X8660500Y12187500D02*
X8690500D01*
X8675500Y12172500D02*
Y12202500D01*
X8433500Y12182500D02*
X8463500D01*
X8448500Y12167500D02*
Y12197500D01*
X8433500Y12080000D02*
X8463500D01*
X8448500Y12065000D02*
Y12095000D01*
X-1300000Y8405000D02*
X-1270000D01*
X-1285000Y8390000D02*
Y8420000D01*
X-910000Y7997500D02*
X-880000D01*
X-895000Y7982500D02*
Y8012500D01*
X-100000Y9157500D02*
X-70000D01*
X-85000Y9142500D02*
Y9172500D01*
X7112500Y6370000D02*
X7142500D01*
X7127500Y6355000D02*
Y6385000D01*
X6145000Y9537500D02*
X6175000D01*
X6160000Y9522500D02*
Y9552500D01*
X6150000Y9942500D02*
X6180000D01*
X6165000Y9927500D02*
Y9957500D01*
X-975000Y10360000D02*
X-945000D01*
X-960000Y10345000D02*
Y10375000D01*
X7130000Y8187500D02*
X7160000D01*
X7145000Y8172500D02*
Y8202500D01*
X-2890000Y10720000D02*
X-2860000D01*
X-2875000Y10705000D02*
Y10735000D01*
X-3030000Y10710000D02*
X-3000000D01*
X-3015000Y10695000D02*
Y10725000D01*
X7187500Y1207500D02*
X7217500D01*
X7202500Y1192500D02*
Y1222500D01*
X9674999Y7745000D02*
X9704999D01*
X9689999Y7730000D02*
Y7760000D01*
X9532500Y7747500D02*
X9562500D01*
X9547500Y7732500D02*
Y7762500D01*
X9674999Y7620000D02*
X9704999D01*
X9689999Y7605000D02*
Y7635000D01*
X9532500Y7622500D02*
X9562500D01*
X9547500Y7607500D02*
Y7637500D01*
X8502500Y8180000D02*
X8532500D01*
X8517500Y8165000D02*
Y8195000D01*
X7164375Y1330625D02*
X7194375D01*
X7179375Y1315625D02*
Y1345625D01*
X9390000Y7625000D02*
X9420000D01*
X9405000Y7610000D02*
Y7640000D01*
X-782500Y5195000D02*
X-752500D01*
X-767500Y5180000D02*
Y5210000D01*
X-837500Y7830000D02*
X-807500D01*
X-822500Y7815000D02*
Y7845000D01*
X-3135000Y10137500D02*
X-3105000D01*
X-3120000Y10122500D02*
Y10152500D01*
X5666999Y5861277D02*
X5696999D01*
X5681999Y5846277D02*
Y5876277D01*
X4079375Y8463125D02*
X4109375D01*
X4094375Y8448125D02*
Y8478125D01*
X3794375Y8735625D02*
X3824375D01*
X3809375Y8720625D02*
Y8750625D01*
X986875Y5583125D02*
X1016875D01*
X1001875Y5568125D02*
Y5598125D01*
X1205400Y7762500D02*
X1235400D01*
X1220400Y7747500D02*
Y7777500D01*
X3999375Y8373125D02*
X4029375D01*
X4014375Y8358125D02*
Y8388125D01*
X3876875Y8495625D02*
X3906875D01*
X3891875Y8480625D02*
Y8510625D01*
X2684375Y8006875D02*
X2714375D01*
X2699375Y7991875D02*
Y8021875D01*
X1970000Y10205000D02*
X2000000D01*
X1985000Y10190000D02*
Y10220000D01*
X2197500Y7625000D02*
X2227500D01*
X2212500Y7610000D02*
Y7640000D01*
X3660000Y7560000D02*
X3690000D01*
X3675000Y7545000D02*
Y7575000D01*
X3755000Y7462500D02*
X3785000D01*
X3770000Y7447500D02*
Y7477500D01*
X3577500Y7640000D02*
X3607500D01*
X3592500Y7625000D02*
Y7655000D01*
X6092500Y11240000D02*
X6122500D01*
X6107500Y11225000D02*
Y11255000D01*
X5727500Y9145000D02*
X5757500D01*
X5742500Y9130000D02*
Y9160000D01*
X6335000Y9547500D02*
X6365000D01*
X6350000Y9532500D02*
Y9562500D01*
X6332500Y9772500D02*
X6362500D01*
X6347500Y9757500D02*
Y9787500D01*
X7040000Y5737500D02*
X7070000D01*
X7055000Y5722500D02*
Y5752500D01*
X6227500Y11195000D02*
X6257500D01*
X6242500Y11180000D02*
Y11210000D01*
X4562500Y12437500D02*
X4592500D01*
X4577500Y12422500D02*
Y12452500D01*
X5547500Y9767500D02*
X5577500D01*
X5562500Y9752500D02*
Y9782500D01*
X5702500Y9785000D02*
X5732500D01*
X5717500Y9770000D02*
Y9800000D01*
X5807500Y9847500D02*
X5837500D01*
X5822500Y9832500D02*
Y9862500D01*
X5812500Y9532500D02*
X5842500D01*
X5827500Y9517500D02*
Y9547500D01*
X5918803Y9331303D02*
X5948803D01*
X5933803Y9316303D02*
Y9346303D01*
X5087500Y10427500D02*
X5117500D01*
X5102500Y10412500D02*
Y10442500D01*
X4975000Y10300000D02*
X5005000D01*
X4990000Y10285000D02*
Y10315000D01*
X5362500Y9490000D02*
X5392500D01*
X5377500Y9475000D02*
Y9505000D01*
X2737500Y8410000D02*
X2767500D01*
X2752500Y8395000D02*
Y8425000D01*
X2020000Y7912500D02*
X2050000D01*
X2035000Y7897500D02*
Y7927500D01*
X1937500Y8030000D02*
X1967500D01*
X1952500Y8015000D02*
Y8045000D01*
X2740000Y9177500D02*
X2770000D01*
X2755000Y9162500D02*
Y9192500D01*
X582500Y12810001D02*
X612500D01*
X597500Y12795000D02*
Y12825000D01*
X3450000Y7767500D02*
X3480000D01*
X3465000Y7752500D02*
Y7782500D01*
X3350000Y7872500D02*
X3380000D01*
X3365000Y7857500D02*
Y7887500D01*
X2492500Y6770000D02*
X2522500D01*
X2507500Y6755000D02*
Y6785000D01*
X2480000Y7867500D02*
X2510000D01*
X2495000Y7852500D02*
Y7882500D01*
X4735000Y10427500D02*
X4765000D01*
X4750000Y10412500D02*
Y10442500D01*
X1977500Y9182500D02*
X2007500D01*
X1992500Y9167500D02*
Y9197500D01*
X2217500Y8927500D02*
X2247500D01*
X2232500Y8912500D02*
Y8942500D01*
X4712500Y13705000D02*
X4742500D01*
X4727500Y13689999D02*
Y13720000D01*
X4810000Y13795000D02*
X4840000D01*
X4825000Y13780000D02*
Y13810001D01*
X4912500Y13705000D02*
X4942500D01*
X4927500Y13689999D02*
Y13720000D01*
X910000Y9732500D02*
X940000D01*
X925000Y9717500D02*
Y9747500D01*
X1100000Y9335000D02*
X1130000D01*
X1115000Y9320000D02*
Y9350000D01*
X5697500Y5610000D02*
X5727500D01*
X5712500Y5595000D02*
Y5625000D01*
X5700000Y5345000D02*
X5730000D01*
X5715000Y5330000D02*
Y5360000D01*
X-479598Y7565402D02*
X-449598D01*
X-464598Y7550402D02*
Y7580402D01*
X5650000Y8015000D02*
X5680000D01*
X5665000Y8000000D02*
Y8030000D01*
X5405000Y7005000D02*
X5435000D01*
X5420000Y6990000D02*
Y7020000D01*
X5405000Y6517500D02*
X5435000D01*
X5420000Y6502500D02*
Y6532500D01*
X-1062500Y3250000D02*
X-1032500D01*
X-1047500Y3235000D02*
Y3265000D01*
X-100000Y12832500D02*
X-70000D01*
X-85000Y12817500D02*
Y12847501D01*
X-250000Y12680000D02*
X-220000D01*
X-235000Y12665000D02*
Y12695000D01*
X1217500Y10680000D02*
X1247500D01*
X1232500Y10665000D02*
Y10695000D01*
X-3270000Y10137500D02*
X-3240000D01*
X-3255000Y10122500D02*
Y10152500D01*
X-3272500Y9722500D02*
X-3242500D01*
X-3257500Y9707500D02*
Y9737500D01*
X8587500Y8305000D02*
X8617500D01*
X8602500Y8290000D02*
Y8320000D01*
X-830000Y8430000D02*
X-800000D01*
X-815000Y8415000D02*
Y8445000D01*
X-855000Y8620000D02*
X-825000D01*
X-840000Y8605000D02*
Y8635000D01*
X7580000Y10350000D02*
X7610000D01*
X7595000Y10335000D02*
Y10365000D01*
X-1205000Y8130000D02*
X-1175000D01*
X-1190000Y8115000D02*
Y8145000D01*
X6152500Y6665000D02*
X6182500D01*
X6167500Y6650000D02*
Y6680000D01*
X-1280000Y8705000D02*
X-1250000D01*
X-1265000Y8690000D02*
Y8720000D01*
X-2207501Y5827500D02*
X-2177501D01*
X-2192501Y5812500D02*
Y5842500D01*
X10820000Y10190000D02*
X10850000D01*
X10835000Y10175000D02*
Y10205000D01*
X10402500Y11050000D02*
X10432500D01*
X10417500Y11035000D02*
Y11065000D01*
X8637500Y10525000D02*
X8667500D01*
X8652500Y10510000D02*
Y10540000D01*
X8322500Y10617500D02*
X8352500D01*
X8337500Y10602500D02*
Y10632500D01*
X8320000Y12080000D02*
X8350000D01*
X8335000Y12065000D02*
Y12095000D01*
X8320000Y12182500D02*
X8350000D01*
X8335000Y12167500D02*
Y12197500D01*
X-2353334Y5827500D02*
X-2323334D01*
X-2338334Y5812500D02*
Y5842500D01*
X-2177500Y7210000D02*
X-2147500D01*
X-2162500Y7195000D02*
Y7225000D01*
X-1975000Y7210000D02*
X-1945000D01*
X-1960000Y7195000D02*
Y7225000D01*
X-1772500Y7210000D02*
X-1742500D01*
X-1757500Y7195000D02*
Y7225000D01*
X-1570000Y7210000D02*
X-1540000D01*
X-1555000Y7195000D02*
Y7225000D01*
X10105000Y5792500D02*
X10135000D01*
X10120000Y5777500D02*
Y5807500D01*
X10293750Y5792500D02*
X10323750D01*
X10308750Y5777500D02*
Y5807500D01*
X10482499Y5790000D02*
X10512499D01*
X10497499Y5775000D02*
Y5805000D01*
X10293750Y5650000D02*
X10323750D01*
X10308750Y5635000D02*
Y5665000D01*
X10482499Y5507500D02*
X10512499D01*
X10497499Y5492500D02*
Y5522500D01*
X10293750Y5512500D02*
X10323750D01*
X10308750Y5497500D02*
Y5527500D01*
X10105000Y5512500D02*
X10135000D01*
X10120000Y5497500D02*
Y5527500D01*
X9390000Y7750000D02*
X9420000D01*
X9405000Y7735000D02*
Y7765000D01*
X9247500Y7750000D02*
X9277500D01*
X9262500Y7735000D02*
Y7765000D01*
X9247500Y7625000D02*
X9277500D01*
X9262500Y7610000D02*
Y7640000D01*
X8750000Y6947500D02*
X8780000D01*
X8765000Y6932500D02*
Y6962500D01*
X8876250Y6947500D02*
X8906250D01*
X8891250Y6932500D02*
Y6962500D01*
X9002499Y6942500D02*
X9032499D01*
X9017499Y6927500D02*
Y6957500D01*
X-1727500Y7745000D02*
X-1697500D01*
X-1712500Y7730000D02*
Y7760000D01*
X-1877500Y8105000D02*
X-1847500D01*
X-1862500Y8090000D02*
Y8120000D01*
X-3635000Y11732500D02*
X-3605000D01*
X-3620000Y11717500D02*
Y11747500D01*
X-3635000Y10702500D02*
X-3605000D01*
X-3620000Y10687500D02*
Y10717500D01*
X-3810000Y11085000D02*
X-3780000D01*
X-3795000Y11070000D02*
Y11100000D01*
X-3810000Y10702500D02*
X-3780000D01*
X-3795000Y10687500D02*
Y10717500D01*
X8570000Y7370000D02*
X8600000D01*
X8585000Y7355000D02*
Y7385000D01*
X8560000Y6912500D02*
X8590000D01*
X8575000Y6897500D02*
Y6927500D01*
X8317500Y11077500D02*
X8347500D01*
X8332500Y11062500D02*
Y11092500D01*
X-3347500Y10702500D02*
X-3317500D01*
X-3332500Y10687500D02*
Y10717500D01*
%TF.MD5,8e11d4bb8558f71e44c52e27791d0d80*%
M02*
