%TF.GenerationSoftware,Altium Limited,Altium Designer,23.6.0 (18)*%
G04 Layer_Color=255*
%FSLAX45Y45*%
%MOMM*%
%TF.SameCoordinates,8B2A78E3-6762-467B-82E4-ABAB87B9FA14*%
%TF.FilePolarity,Positive*%
%TF.FileFunction,Pads,Top*%
%TF.Part,Single*%
G01*
G75*
%TA.AperFunction,SMDPad,CuDef*%
%ADD10R,1.00000X2.80000*%
%ADD11R,0.89000X1.91000*%
%ADD12R,1.14220X1.46200*%
%ADD13R,7.08660X5.84200*%
%ADD14R,1.13504X1.06213*%
%ADD15R,1.06213X1.13504*%
%ADD16R,0.47500X0.25000*%
%ADD17R,0.25000X0.47500*%
%ADD18R,1.40000X1.10000*%
%ADD19R,1.00000X0.90000*%
%ADD20R,0.90000X1.00000*%
%ADD21R,1.35000X0.95000*%
%TA.AperFunction,ComponentPad*%
%ADD29C,1.52400*%
%ADD30C,1.65000*%
%ADD31R,1.65000X1.65000*%
%ADD32R,1.75000X1.75000*%
%ADD33C,1.75000*%
%ADD34R,6.00000X6.00000*%
%ADD35C,6.00000*%
%ADD36R,2.45000X2.45000*%
%ADD37C,2.45000*%
%ADD38C,0.67500*%
%ADD39C,1.87500*%
%ADD40R,1.87500X1.87500*%
%ADD41C,3.00000*%
%ADD42C,1.90000*%
%ADD43R,1.90000X1.90000*%
%ADD44C,1.80000*%
%ADD45R,1.80000X1.80000*%
%ADD46C,0.65000*%
%ADD47R,1.50800X1.50800*%
%ADD48C,1.50800*%
%ADD49C,1.35000*%
%ADD50C,1.57500*%
%ADD51C,1.50000*%
%ADD52P,2.12132X4X345.0*%
%TA.AperFunction,ViaPad*%
%ADD53C,1.52400*%
%ADD54C,3.40000*%
D10*
X3337500Y15600000D02*
D03*
Y16039999D02*
D03*
X3527500Y15600000D02*
D03*
Y16039999D02*
D03*
X3717500Y15600000D02*
D03*
Y16039999D02*
D03*
D11*
X-1782500Y4375500D02*
D03*
Y3974500D02*
D03*
X-1582500Y4375500D02*
D03*
Y3974500D02*
D03*
X-1382500Y4375500D02*
D03*
Y3974500D02*
D03*
X-1182500Y4375500D02*
D03*
Y3974500D02*
D03*
X-1782500Y6235500D02*
D03*
Y5834500D02*
D03*
X-1582500Y6235500D02*
D03*
Y5834500D02*
D03*
X-1382500Y6235500D02*
D03*
Y5834500D02*
D03*
X-1182500Y6235500D02*
D03*
Y5834500D02*
D03*
X-1777501Y11236000D02*
D03*
Y10835000D02*
D03*
X-1577501Y11236000D02*
D03*
Y10835000D02*
D03*
X-1377501Y11236000D02*
D03*
Y10835000D02*
D03*
X-1177501Y11236000D02*
D03*
Y10835000D02*
D03*
X-1777501Y9376000D02*
D03*
Y8975000D02*
D03*
X-1577501Y9376000D02*
D03*
Y8975000D02*
D03*
X-1377501Y9376000D02*
D03*
Y8975000D02*
D03*
X-1177501Y9376000D02*
D03*
Y8975000D02*
D03*
X8920000Y11525000D02*
D03*
X9120000D02*
D03*
X8720000Y11124000D02*
D03*
X9120000D02*
D03*
X8920000D02*
D03*
X8520000Y11525000D02*
D03*
X8720000D02*
D03*
X8520000Y11124000D02*
D03*
X8920000Y9665000D02*
D03*
X9120000D02*
D03*
X8720000Y9264000D02*
D03*
X9120000D02*
D03*
X8920000D02*
D03*
X8520000Y9665000D02*
D03*
X8720000D02*
D03*
X8520000Y9264000D02*
D03*
X9385000Y4332500D02*
D03*
Y4733500D02*
D03*
X9185000Y4332500D02*
D03*
Y4733500D02*
D03*
X8985000Y4332500D02*
D03*
Y4733500D02*
D03*
X8785000Y4332500D02*
D03*
Y4733500D02*
D03*
X9385000Y6192500D02*
D03*
Y6593500D02*
D03*
X9185000Y6192500D02*
D03*
Y6593500D02*
D03*
X8985000Y6192500D02*
D03*
Y6593500D02*
D03*
X8785000Y6192500D02*
D03*
Y6593500D02*
D03*
D12*
X6780000Y13743430D02*
D03*
X6580000D02*
D03*
X6380000D02*
D03*
X6180000D02*
D03*
D13*
X6480000Y13156689D02*
D03*
D14*
X6583461Y14410001D02*
D03*
X6746539D02*
D03*
X6291539Y14412500D02*
D03*
X6128461D02*
D03*
D15*
X3722500Y15135960D02*
D03*
Y15299039D02*
D03*
X3327500Y15135960D02*
D03*
Y15299039D02*
D03*
X3532500Y15133461D02*
D03*
Y15296539D02*
D03*
D16*
X3493750Y8277500D02*
D03*
Y8227500D02*
D03*
Y8177500D02*
D03*
Y8127500D02*
D03*
X3726250D02*
D03*
Y8177500D02*
D03*
Y8227500D02*
D03*
Y8277500D02*
D03*
D17*
X3560000Y8111250D02*
D03*
X3610000D02*
D03*
X3660000D02*
D03*
Y8293750D02*
D03*
X3610000D02*
D03*
X3560000D02*
D03*
D18*
X5200000Y12339498D02*
D03*
Y12569498D02*
D03*
D19*
X5665300Y12977499D02*
D03*
Y12817500D02*
D03*
X4067500Y9022500D02*
D03*
Y8862500D02*
D03*
X3100000D02*
D03*
Y9022500D02*
D03*
D20*
X5665300Y12569500D02*
D03*
Y12389500D02*
D03*
X-4247500Y9907500D02*
D03*
X-4087500D02*
D03*
D21*
X3595839Y8897911D02*
D03*
Y9047911D02*
D03*
D29*
X1931500Y6738000D02*
D03*
X7735400D02*
D03*
Y1848500D02*
D03*
X1918800D02*
D03*
D30*
X7252800Y1734200D02*
D03*
Y1988200D02*
D03*
X6998800Y1734200D02*
D03*
Y1988200D02*
D03*
X6744800Y1734200D02*
D03*
Y1988200D02*
D03*
X6490800Y1734200D02*
D03*
X6236800D02*
D03*
Y1988200D02*
D03*
X5982800Y1734200D02*
D03*
Y1988200D02*
D03*
X5728800Y1734200D02*
D03*
Y1988200D02*
D03*
X5474800Y1734200D02*
D03*
Y1988200D02*
D03*
X5220800Y1734200D02*
D03*
Y1988200D02*
D03*
X4966800Y1734200D02*
D03*
Y1988200D02*
D03*
X4712800Y1734200D02*
D03*
Y1988200D02*
D03*
X4458800Y1734200D02*
D03*
Y1988200D02*
D03*
X4204800Y1734200D02*
D03*
Y1988200D02*
D03*
X3950800Y1734200D02*
D03*
Y1988200D02*
D03*
X3696800Y1734200D02*
D03*
Y1988200D02*
D03*
X3442800Y1734200D02*
D03*
Y1988200D02*
D03*
X3188800Y1734200D02*
D03*
Y1988200D02*
D03*
X2934800Y1734200D02*
D03*
Y1988200D02*
D03*
X2680800Y1734200D02*
D03*
Y1988200D02*
D03*
X2426800Y1734200D02*
D03*
X6490800Y1988200D02*
D03*
D31*
X2426800D02*
D03*
D32*
X9035000Y3540000D02*
D03*
X-1922500Y2975000D02*
D03*
D33*
X9585000Y3540000D02*
D03*
X-1372500Y2975000D02*
D03*
D34*
X8030000Y14172501D02*
D03*
D35*
X7310000Y14203000D02*
D03*
D36*
X5887500Y15062500D02*
D03*
D37*
X6357500D02*
D03*
X6827500D02*
D03*
D38*
X-402500Y9470000D02*
D03*
X-389200Y11287700D02*
D03*
X7631200Y9162100D02*
D03*
X7618500Y11037700D02*
D03*
D39*
X-786500Y8845000D02*
D03*
Y9095000D02*
D03*
Y9345000D02*
D03*
Y9595000D02*
D03*
Y9845000D02*
D03*
X-532500Y8845000D02*
D03*
Y9095000D02*
D03*
Y9345000D02*
D03*
Y9595000D02*
D03*
X-773200Y10662700D02*
D03*
Y10912700D02*
D03*
Y11162700D02*
D03*
Y11412700D02*
D03*
Y11662700D02*
D03*
X-519200Y10662700D02*
D03*
Y10912700D02*
D03*
Y11162700D02*
D03*
Y11412700D02*
D03*
X8015200Y9787100D02*
D03*
Y9537100D02*
D03*
Y9287100D02*
D03*
Y9037100D02*
D03*
Y8787100D02*
D03*
X7761200Y9787100D02*
D03*
Y9537100D02*
D03*
Y9287100D02*
D03*
Y9037100D02*
D03*
X7748500Y10912700D02*
D03*
Y11162700D02*
D03*
Y11412700D02*
D03*
Y11662700D02*
D03*
X8002500Y10662700D02*
D03*
Y10912700D02*
D03*
Y11162700D02*
D03*
Y11412700D02*
D03*
Y11662700D02*
D03*
D40*
X-532500Y9845000D02*
D03*
X-519200Y11662700D02*
D03*
X7761200Y8787100D02*
D03*
X7748500Y10662700D02*
D03*
D41*
X-1020000Y14594000D02*
D03*
X1180000D02*
D03*
D42*
X-130000Y14089999D02*
D03*
X710000D02*
D03*
X290000D02*
D03*
X-550000Y14639999D02*
D03*
X-130000D02*
D03*
X710000D02*
D03*
X290000D02*
D03*
D43*
X-550000Y14089999D02*
D03*
D44*
X8425000Y2440000D02*
D03*
X8675000D02*
D03*
X8425000Y2690000D02*
D03*
D45*
X8675000D02*
D03*
D46*
X8809000Y2565000D02*
D03*
D47*
X6777612Y3439272D02*
D03*
X681612Y3441273D02*
D03*
X6777612Y12329272D02*
D03*
X681612Y12331273D02*
D03*
D48*
X6523612Y3439272D02*
D03*
X6777612Y3693272D02*
D03*
X6523612D02*
D03*
X6777612Y3947272D02*
D03*
X6523612D02*
D03*
X6777612Y4201272D02*
D03*
X6523612D02*
D03*
X6777612Y4455272D02*
D03*
X6523612D02*
D03*
X6777612Y4709272D02*
D03*
X6523612D02*
D03*
X6777612Y4963272D02*
D03*
X6523612D02*
D03*
X6777612Y5217272D02*
D03*
X6523612D02*
D03*
X6777612Y5471272D02*
D03*
X6523612D02*
D03*
X6777612Y5725272D02*
D03*
X6523612D02*
D03*
X6777612Y5979272D02*
D03*
X6523612D02*
D03*
X6777612Y6233272D02*
D03*
X6523612D02*
D03*
X6777612Y6487272D02*
D03*
X6523612D02*
D03*
X6777612Y6741272D02*
D03*
X6523612D02*
D03*
X6777612Y6995272D02*
D03*
X6523612D02*
D03*
X6777612Y7249272D02*
D03*
X6523612D02*
D03*
X6777612Y7503272D02*
D03*
X6523612D02*
D03*
X6777612Y7757272D02*
D03*
X6523612D02*
D03*
X6777612Y8011272D02*
D03*
X6523612D02*
D03*
X6777612Y8265272D02*
D03*
X6523612D02*
D03*
X6777612Y8519272D02*
D03*
X6523612D02*
D03*
X6777612Y8773272D02*
D03*
X6523612D02*
D03*
X6777612Y9027272D02*
D03*
X6523612D02*
D03*
X6777612Y9281272D02*
D03*
X6523612D02*
D03*
X6777612Y9535272D02*
D03*
X6523612D02*
D03*
X6777612Y9789272D02*
D03*
X6523612D02*
D03*
X6777612Y10043272D02*
D03*
X6523612D02*
D03*
X6777612Y10297272D02*
D03*
X6523612D02*
D03*
X6777612Y10551272D02*
D03*
X6523612D02*
D03*
X6777612Y10805272D02*
D03*
X6523612D02*
D03*
X6777612Y11059272D02*
D03*
X6523612D02*
D03*
X6777612Y11313272D02*
D03*
X6523612D02*
D03*
X6777612Y11567272D02*
D03*
X6523612D02*
D03*
X6777612Y11821272D02*
D03*
X6523612D02*
D03*
X6777612Y12075272D02*
D03*
X6523612D02*
D03*
X427612Y3441273D02*
D03*
X6523612Y12329272D02*
D03*
X681612Y3695273D02*
D03*
X427612D02*
D03*
X681612Y3949273D02*
D03*
X427612D02*
D03*
X681612Y4203273D02*
D03*
X427612D02*
D03*
X681612Y4457273D02*
D03*
X427612D02*
D03*
X681612Y4711273D02*
D03*
X427612D02*
D03*
X681612Y4965273D02*
D03*
X427612D02*
D03*
X681612Y5219273D02*
D03*
X427612D02*
D03*
X681612Y5473273D02*
D03*
X427612D02*
D03*
X681612Y5727273D02*
D03*
X427612D02*
D03*
X681612Y5981273D02*
D03*
X427612D02*
D03*
X681612Y6235273D02*
D03*
X427612D02*
D03*
X681612Y6489273D02*
D03*
X427612D02*
D03*
X681612Y6743273D02*
D03*
X427612D02*
D03*
X681612Y6997273D02*
D03*
X427612D02*
D03*
X681612Y7251273D02*
D03*
X427612D02*
D03*
X681612Y7505273D02*
D03*
X427612D02*
D03*
X681612Y7759273D02*
D03*
X427612D02*
D03*
X681612Y8013273D02*
D03*
X427612D02*
D03*
X681612Y8267273D02*
D03*
X427612D02*
D03*
X681612Y8521273D02*
D03*
X427612D02*
D03*
X681612Y8775273D02*
D03*
X427612D02*
D03*
X681612Y9029273D02*
D03*
X427612D02*
D03*
X681612Y9283273D02*
D03*
X427612D02*
D03*
X681612Y9537273D02*
D03*
X427612D02*
D03*
X681612Y9791273D02*
D03*
X427612D02*
D03*
X681612Y10045273D02*
D03*
X427612D02*
D03*
X681612Y10299273D02*
D03*
X427612D02*
D03*
X681612Y10553273D02*
D03*
X427612D02*
D03*
X681612Y10807273D02*
D03*
X427612D02*
D03*
X681612Y11061273D02*
D03*
X427612D02*
D03*
X681612Y11315273D02*
D03*
X427612D02*
D03*
X681612Y11569273D02*
D03*
X427612D02*
D03*
X681612Y11823273D02*
D03*
X427612D02*
D03*
X681612Y12077273D02*
D03*
X427612D02*
D03*
Y12331273D02*
D03*
D49*
X-3725000Y5555000D02*
D03*
Y6055000D02*
D03*
D50*
X-3780500Y9469500D02*
D03*
Y9215500D02*
D03*
Y8961500D02*
D03*
Y8707500D02*
D03*
Y8453500D02*
D03*
X-4542500D02*
D03*
Y8707500D02*
D03*
Y8961500D02*
D03*
Y9215500D02*
D03*
Y9469500D02*
D03*
D51*
X-2284900Y3965330D02*
D03*
X-2411900Y4185300D02*
D03*
X-2538900Y4405271D02*
D03*
D52*
X-2665900Y4625241D02*
D03*
D53*
X11677500Y9017503D02*
D03*
X9277500Y5444998D02*
D03*
X-2662501Y11889999D02*
D03*
X-267500Y8319998D02*
D03*
X-260002Y3310001D02*
D03*
X-2662501Y6880001D02*
D03*
X7897498Y7240001D02*
D03*
X10300003Y3672499D02*
D03*
X10039998Y8602502D02*
D03*
X7634999Y12172498D02*
D03*
D54*
X10163213Y12393412D02*
D03*
X7610000Y876594D02*
D03*
X-2943217Y12393412D02*
D03*
X-389999Y876594D02*
D03*
%TF.MD5,c6a555473d6d9ce7d8cbf59b3e4f2b4e*%
M02*
