%TF.GenerationSoftware,Altium Limited,Altium Designer,23.6.0 (18)*%
G04 Layer_Color=32896*
%FSLAX45Y45*%
%MOMM*%
%TF.SameCoordinates,8B2A78E3-6762-467B-82E4-ABAB87B9FA14*%
%TF.FilePolarity,Positive*%
%TF.FileFunction,Other,Bottom_Component_Center*%
%TF.Part,Single*%
G01*
G75*
%TA.AperFunction,NonConductor*%
%ADD114C,0.10000*%
D114*
X8160000Y3310000D02*
Y3410000D01*
X8110000Y3360000D02*
X8210000D01*
X-1920000Y8292500D02*
Y8392500D01*
X-1970000Y8342500D02*
X-1870000D01*
X6307500Y15062500D02*
X6407500D01*
X6357500Y15012500D02*
Y15112500D01*
X9295000Y10360000D02*
X9395000D01*
X9345000Y10310000D02*
Y10410000D01*
X-2405000Y7447500D02*
X-2305000D01*
X-2355000Y7397500D02*
Y7497500D01*
X9487500Y11497500D02*
X9587500D01*
X9537500Y11447500D02*
Y11547500D01*
X9482500Y11112500D02*
X9582500D01*
X9532500Y11062500D02*
Y11162500D01*
X-1720000Y7472500D02*
Y7572500D01*
X-1770000Y7522500D02*
X-1670000D01*
X10540000Y10597500D02*
Y10697500D01*
X10490000Y10647500D02*
X10590000D01*
X9400000Y11912500D02*
Y12012500D01*
X9350000Y11962500D02*
X9450000D01*
X-2050000Y6605000D02*
Y6705000D01*
X-2100000Y6655000D02*
X-2000000D01*
X-2385001Y8332500D02*
X-2285002D01*
X-2334999Y8282498D02*
Y8382498D01*
X-2634998Y8330001D02*
X-2534998D01*
X-2585001Y8279998D02*
Y8379998D01*
%TF.MD5,8a05eda673fbc0772bf2a2adbdd4b577*%
M02*
