%TF.GenerationSoftware,Altium Limited,Altium Designer,23.6.0 (18)*%
G04 Layer_Color=2752767*
%FSLAX45Y45*%
%MOMM*%
%TF.SameCoordinates,8B2A78E3-6762-467B-82E4-ABAB87B9FA14*%
%TF.FilePolarity,Positive*%
%TF.FileFunction,Drawing*%
%TF.Part,Single*%
G01*
G75*
%TA.AperFunction,NonConductor*%
%ADD71C,0.12700*%
%ADD149C,0.16933*%
%ADD150C,0.10160*%
D71*
X1931500Y6738000D02*
Y6822639D01*
X1973820Y6864959D01*
X2016139Y6822639D01*
Y6738000D01*
Y6801479D01*
X1931500D01*
X7735400Y6738000D02*
Y6822639D01*
X7777720Y6864959D01*
X7820039Y6822639D01*
Y6738000D01*
Y6801479D01*
X7735400D01*
Y1848500D02*
Y1933139D01*
X7777720Y1975459D01*
X7820039Y1933139D01*
Y1848500D01*
Y1911979D01*
X7735400D01*
X1918800Y1848500D02*
Y1933139D01*
X1961120Y1975459D01*
X2003439Y1933139D01*
Y1848500D01*
Y1911979D01*
X1918800D01*
X7202000Y1683400D02*
X7227400Y1734200D01*
X7202000Y1785000D01*
X7252800Y1759600D01*
X7303600Y1785000D01*
X7278200Y1734200D01*
X7303600Y1683400D01*
X7252800Y1708800D01*
X7202000Y1683400D01*
Y1937400D02*
X7227400Y1988200D01*
X7202000Y2039000D01*
X7252800Y2013600D01*
X7303600Y2039000D01*
X7278200Y1988200D01*
X7303600Y1937400D01*
X7252800Y1962800D01*
X7202000Y1937400D01*
X6948000Y1683400D02*
X6973400Y1734200D01*
X6948000Y1785000D01*
X6998800Y1759600D01*
X7049600Y1785000D01*
X7024200Y1734200D01*
X7049600Y1683400D01*
X6998800Y1708800D01*
X6948000Y1683400D01*
Y1937400D02*
X6973400Y1988200D01*
X6948000Y2039000D01*
X6998800Y2013600D01*
X7049600Y2039000D01*
X7024200Y1988200D01*
X7049600Y1937400D01*
X6998800Y1962800D01*
X6948000Y1937400D01*
X6694000Y1683400D02*
X6719400Y1734200D01*
X6694000Y1785000D01*
X6744800Y1759600D01*
X6795600Y1785000D01*
X6770200Y1734200D01*
X6795600Y1683400D01*
X6744800Y1708800D01*
X6694000Y1683400D01*
Y1937400D02*
X6719400Y1988200D01*
X6694000Y2039000D01*
X6744800Y2013600D01*
X6795600Y2039000D01*
X6770200Y1988200D01*
X6795600Y1937400D01*
X6744800Y1962800D01*
X6694000Y1937400D01*
X6440000Y1683400D02*
X6465400Y1734200D01*
X6440000Y1785000D01*
X6490800Y1759600D01*
X6541600Y1785000D01*
X6516200Y1734200D01*
X6541600Y1683400D01*
X6490800Y1708800D01*
X6440000Y1683400D01*
X6186000D02*
X6211400Y1734200D01*
X6186000Y1785000D01*
X6236800Y1759600D01*
X6287600Y1785000D01*
X6262200Y1734200D01*
X6287600Y1683400D01*
X6236800Y1708800D01*
X6186000Y1683400D01*
Y1937400D02*
X6211400Y1988200D01*
X6186000Y2039000D01*
X6236800Y2013600D01*
X6287600Y2039000D01*
X6262200Y1988200D01*
X6287600Y1937400D01*
X6236800Y1962800D01*
X6186000Y1937400D01*
X5932000Y1683400D02*
X5957400Y1734200D01*
X5932000Y1785000D01*
X5982800Y1759600D01*
X6033600Y1785000D01*
X6008200Y1734200D01*
X6033600Y1683400D01*
X5982800Y1708800D01*
X5932000Y1683400D01*
Y1937400D02*
X5957400Y1988200D01*
X5932000Y2039000D01*
X5982800Y2013600D01*
X6033600Y2039000D01*
X6008200Y1988200D01*
X6033600Y1937400D01*
X5982800Y1962800D01*
X5932000Y1937400D01*
X5678000Y1683400D02*
X5703400Y1734200D01*
X5678000Y1785000D01*
X5728800Y1759600D01*
X5779600Y1785000D01*
X5754200Y1734200D01*
X5779600Y1683400D01*
X5728800Y1708800D01*
X5678000Y1683400D01*
Y1937400D02*
X5703400Y1988200D01*
X5678000Y2039000D01*
X5728800Y2013600D01*
X5779600Y2039000D01*
X5754200Y1988200D01*
X5779600Y1937400D01*
X5728800Y1962800D01*
X5678000Y1937400D01*
X5424000Y1683400D02*
X5449400Y1734200D01*
X5424000Y1785000D01*
X5474800Y1759600D01*
X5525600Y1785000D01*
X5500200Y1734200D01*
X5525600Y1683400D01*
X5474800Y1708800D01*
X5424000Y1683400D01*
Y1937400D02*
X5449400Y1988200D01*
X5424000Y2039000D01*
X5474800Y2013600D01*
X5525600Y2039000D01*
X5500200Y1988200D01*
X5525600Y1937400D01*
X5474800Y1962800D01*
X5424000Y1937400D01*
X5170000Y1683400D02*
X5195400Y1734200D01*
X5170000Y1785000D01*
X5220800Y1759600D01*
X5271600Y1785000D01*
X5246200Y1734200D01*
X5271600Y1683400D01*
X5220800Y1708800D01*
X5170000Y1683400D01*
Y1937400D02*
X5195400Y1988200D01*
X5170000Y2039000D01*
X5220800Y2013600D01*
X5271600Y2039000D01*
X5246200Y1988200D01*
X5271600Y1937400D01*
X5220800Y1962800D01*
X5170000Y1937400D01*
X4916000Y1683400D02*
X4941400Y1734200D01*
X4916000Y1785000D01*
X4966800Y1759600D01*
X5017600Y1785000D01*
X4992200Y1734200D01*
X5017600Y1683400D01*
X4966800Y1708800D01*
X4916000Y1683400D01*
Y1937400D02*
X4941400Y1988200D01*
X4916000Y2039000D01*
X4966800Y2013600D01*
X5017600Y2039000D01*
X4992200Y1988200D01*
X5017600Y1937400D01*
X4966800Y1962800D01*
X4916000Y1937400D01*
X4662000Y1683400D02*
X4687400Y1734200D01*
X4662000Y1785000D01*
X4712800Y1759600D01*
X4763600Y1785000D01*
X4738200Y1734200D01*
X4763600Y1683400D01*
X4712800Y1708800D01*
X4662000Y1683400D01*
Y1937400D02*
X4687400Y1988200D01*
X4662000Y2039000D01*
X4712800Y2013600D01*
X4763600Y2039000D01*
X4738200Y1988200D01*
X4763600Y1937400D01*
X4712800Y1962800D01*
X4662000Y1937400D01*
X4408000Y1683400D02*
X4433400Y1734200D01*
X4408000Y1785000D01*
X4458800Y1759600D01*
X4509600Y1785000D01*
X4484200Y1734200D01*
X4509600Y1683400D01*
X4458800Y1708800D01*
X4408000Y1683400D01*
Y1937400D02*
X4433400Y1988200D01*
X4408000Y2039000D01*
X4458800Y2013600D01*
X4509600Y2039000D01*
X4484200Y1988200D01*
X4509600Y1937400D01*
X4458800Y1962800D01*
X4408000Y1937400D01*
X4154000Y1683400D02*
X4179400Y1734200D01*
X4154000Y1785000D01*
X4204800Y1759600D01*
X4255600Y1785000D01*
X4230200Y1734200D01*
X4255600Y1683400D01*
X4204800Y1708800D01*
X4154000Y1683400D01*
Y1937400D02*
X4179400Y1988200D01*
X4154000Y2039000D01*
X4204800Y2013600D01*
X4255600Y2039000D01*
X4230200Y1988200D01*
X4255600Y1937400D01*
X4204800Y1962800D01*
X4154000Y1937400D01*
X3900000Y1683400D02*
X3925400Y1734200D01*
X3900000Y1785000D01*
X3950800Y1759600D01*
X4001600Y1785000D01*
X3976200Y1734200D01*
X4001600Y1683400D01*
X3950800Y1708800D01*
X3900000Y1683400D01*
Y1937400D02*
X3925400Y1988200D01*
X3900000Y2039000D01*
X3950800Y2013600D01*
X4001600Y2039000D01*
X3976200Y1988200D01*
X4001600Y1937400D01*
X3950800Y1962800D01*
X3900000Y1937400D01*
X3646000Y1683400D02*
X3671400Y1734200D01*
X3646000Y1785000D01*
X3696800Y1759600D01*
X3747600Y1785000D01*
X3722200Y1734200D01*
X3747600Y1683400D01*
X3696800Y1708800D01*
X3646000Y1683400D01*
Y1937400D02*
X3671400Y1988200D01*
X3646000Y2039000D01*
X3696800Y2013600D01*
X3747600Y2039000D01*
X3722200Y1988200D01*
X3747600Y1937400D01*
X3696800Y1962800D01*
X3646000Y1937400D01*
X3392000Y1683400D02*
X3417400Y1734200D01*
X3392000Y1785000D01*
X3442800Y1759600D01*
X3493600Y1785000D01*
X3468200Y1734200D01*
X3493600Y1683400D01*
X3442800Y1708800D01*
X3392000Y1683400D01*
Y1937400D02*
X3417400Y1988200D01*
X3392000Y2039000D01*
X3442800Y2013600D01*
X3493600Y2039000D01*
X3468200Y1988200D01*
X3493600Y1937400D01*
X3442800Y1962800D01*
X3392000Y1937400D01*
X3138000Y1683400D02*
X3163400Y1734200D01*
X3138000Y1785000D01*
X3188800Y1759600D01*
X3239600Y1785000D01*
X3214200Y1734200D01*
X3239600Y1683400D01*
X3188800Y1708800D01*
X3138000Y1683400D01*
Y1937400D02*
X3163400Y1988200D01*
X3138000Y2039000D01*
X3188800Y2013600D01*
X3239600Y2039000D01*
X3214200Y1988200D01*
X3239600Y1937400D01*
X3188800Y1962800D01*
X3138000Y1937400D01*
X2884000Y1683400D02*
X2909400Y1734200D01*
X2884000Y1785000D01*
X2934800Y1759600D01*
X2985600Y1785000D01*
X2960200Y1734200D01*
X2985600Y1683400D01*
X2934800Y1708800D01*
X2884000Y1683400D01*
Y1937400D02*
X2909400Y1988200D01*
X2884000Y2039000D01*
X2934800Y2013600D01*
X2985600Y2039000D01*
X2960200Y1988200D01*
X2985600Y1937400D01*
X2934800Y1962800D01*
X2884000Y1937400D01*
X2630000Y1683400D02*
X2655400Y1734200D01*
X2630000Y1785000D01*
X2680800Y1759600D01*
X2731600Y1785000D01*
X2706200Y1734200D01*
X2731600Y1683400D01*
X2680800Y1708800D01*
X2630000Y1683400D01*
Y1937400D02*
X2655400Y1988200D01*
X2630000Y2039000D01*
X2680800Y2013600D01*
X2731600Y2039000D01*
X2706200Y1988200D01*
X2731600Y1937400D01*
X2680800Y1962800D01*
X2630000Y1937400D01*
X2376000Y1683400D02*
X2401400Y1734200D01*
X2376000Y1785000D01*
X2426800Y1759600D01*
X2477600Y1785000D01*
X2452200Y1734200D01*
X2477600Y1683400D01*
X2426800Y1708800D01*
X2376000Y1683400D01*
Y1937400D02*
X2401400Y1988200D01*
X2376000Y2039000D01*
X2426800Y2013600D01*
X2477600Y2039000D01*
X2452200Y1988200D01*
X2477600Y1937400D01*
X2426800Y1962800D01*
X2376000Y1937400D01*
X6440000D02*
X6465400Y1988200D01*
X6440000Y2039000D01*
X6490800Y2013600D01*
X6541600Y2039000D01*
X6516200Y1988200D01*
X6541600Y1937400D01*
X6490800Y1962800D01*
X6440000Y1937400D01*
X8984200Y3540000D02*
X9035000Y3590800D01*
X9085800Y3540000D01*
X9035000Y3489200D01*
X8984200Y3540000D01*
X9534200D02*
X9585000Y3590800D01*
X9635800Y3540000D01*
X9585000Y3489200D01*
X9534200Y3540000D01*
X-1423300Y2975000D02*
X-1372500Y3025800D01*
X-1321700Y2975000D01*
X-1372500Y2924200D01*
X-1423300Y2975000D01*
X-1973300D02*
X-1922500Y3025800D01*
X-1871700Y2975000D01*
X-1922500Y2924200D01*
X-1973300Y2975000D01*
X8030000Y14121700D02*
X8055400Y14147099D01*
X8080800D01*
X8055400Y14172501D01*
X8080800Y14197900D01*
X8055400D01*
X8030000Y14223300D01*
X8004600Y14197900D01*
X7979200D01*
X8004600Y14172501D01*
X7979200Y14147099D01*
X8004600D01*
X8030000Y14121700D01*
X7310000Y14152200D02*
X7335400Y14177600D01*
X7360800D01*
X7335400Y14203000D01*
X7360800Y14228400D01*
X7335400D01*
X7310000Y14253799D01*
X7284600Y14228400D01*
X7259200D01*
X7284600Y14203000D01*
X7259200Y14177600D01*
X7284600D01*
X7310000Y14152200D01*
X5887500Y15011700D02*
X5836700Y15113300D01*
X5938300D01*
X5887500Y15011700D01*
X6357500D02*
X6306700Y15113300D01*
X6408300D01*
X6357500Y15011700D01*
X6827500D02*
X6776700Y15113300D01*
X6878300D01*
X6827500Y15011700D01*
X-402500Y9419200D02*
X-377100Y9444600D01*
X-351700D01*
X-377100Y9470000D01*
X-351700Y9495400D01*
X-377100D01*
X-402500Y9520800D01*
X-427900Y9495400D01*
X-453300D01*
X-427900Y9470000D01*
X-453300Y9444600D01*
X-427900D01*
X-402500Y9419200D01*
Y9439520D02*
X-387260Y9454760D01*
X-372020D01*
X-387260Y9470000D01*
X-372020Y9485240D01*
X-387260D01*
X-402500Y9500480D01*
X-417740Y9485240D01*
X-432980D01*
X-417740Y9470000D01*
X-432980Y9454760D01*
X-417740D01*
X-402500Y9439520D01*
X-786500Y8794200D02*
X-837300Y8895800D01*
X-735700D01*
X-786500Y8794200D01*
Y8814520D02*
X-816980Y8875480D01*
X-756020D01*
X-786500Y8814520D01*
Y9044200D02*
X-837300Y9145800D01*
X-735700D01*
X-786500Y9044200D01*
Y9064520D02*
X-816980Y9125480D01*
X-756020D01*
X-786500Y9064520D01*
Y9294200D02*
X-837300Y9395800D01*
X-735700D01*
X-786500Y9294200D01*
Y9314520D02*
X-816980Y9375480D01*
X-756020D01*
X-786500Y9314520D01*
Y9544200D02*
X-837300Y9645800D01*
X-735700D01*
X-786500Y9544200D01*
Y9564520D02*
X-816980Y9625480D01*
X-756020D01*
X-786500Y9564520D01*
Y9794200D02*
X-837300Y9895800D01*
X-735700D01*
X-786500Y9794200D01*
Y9814520D02*
X-816980Y9875480D01*
X-756020D01*
X-786500Y9814520D01*
X-532500Y8794200D02*
X-583300Y8895800D01*
X-481700D01*
X-532500Y8794200D01*
Y8814520D02*
X-562980Y8875480D01*
X-502020D01*
X-532500Y8814520D01*
Y9044200D02*
X-583300Y9145800D01*
X-481700D01*
X-532500Y9044200D01*
Y9064520D02*
X-562980Y9125480D01*
X-502020D01*
X-532500Y9064520D01*
Y9294200D02*
X-583300Y9395800D01*
X-481700D01*
X-532500Y9294200D01*
Y9314520D02*
X-562980Y9375480D01*
X-502020D01*
X-532500Y9314520D01*
Y9544200D02*
X-583300Y9645800D01*
X-481700D01*
X-532500Y9544200D01*
Y9564520D02*
X-562980Y9625480D01*
X-502020D01*
X-532500Y9564520D01*
Y9794200D02*
X-583300Y9895800D01*
X-481700D01*
X-532500Y9794200D01*
Y9814520D02*
X-562980Y9875480D01*
X-502020D01*
X-532500Y9814520D01*
X-389200Y11236900D02*
X-363800Y11262300D01*
X-338400D01*
X-363800Y11287700D01*
X-338400Y11313100D01*
X-363800D01*
X-389200Y11338500D01*
X-414600Y11313100D01*
X-440000D01*
X-414600Y11287700D01*
X-440000Y11262300D01*
X-414600D01*
X-389200Y11236900D01*
Y11257220D02*
X-373960Y11272460D01*
X-358720D01*
X-373960Y11287700D01*
X-358720Y11302940D01*
X-373960D01*
X-389200Y11318180D01*
X-404440Y11302940D01*
X-419680D01*
X-404440Y11287700D01*
X-419680Y11272460D01*
X-404440D01*
X-389200Y11257220D01*
X-773200Y10611900D02*
X-824000Y10713500D01*
X-722400D01*
X-773200Y10611900D01*
Y10632220D02*
X-803680Y10693180D01*
X-742720D01*
X-773200Y10632220D01*
Y10861900D02*
X-824000Y10963500D01*
X-722400D01*
X-773200Y10861900D01*
Y10882220D02*
X-803680Y10943180D01*
X-742720D01*
X-773200Y10882220D01*
Y11111900D02*
X-824000Y11213500D01*
X-722400D01*
X-773200Y11111900D01*
Y11132220D02*
X-803680Y11193180D01*
X-742720D01*
X-773200Y11132220D01*
Y11361900D02*
X-824000Y11463500D01*
X-722400D01*
X-773200Y11361900D01*
Y11382220D02*
X-803680Y11443180D01*
X-742720D01*
X-773200Y11382220D01*
Y11611900D02*
X-824000Y11713500D01*
X-722400D01*
X-773200Y11611900D01*
Y11632220D02*
X-803680Y11693180D01*
X-742720D01*
X-773200Y11632220D01*
X-519200Y10611900D02*
X-570000Y10713500D01*
X-468400D01*
X-519200Y10611900D01*
Y10632220D02*
X-549680Y10693180D01*
X-488720D01*
X-519200Y10632220D01*
Y10861900D02*
X-570000Y10963500D01*
X-468400D01*
X-519200Y10861900D01*
Y10882220D02*
X-549680Y10943180D01*
X-488720D01*
X-519200Y10882220D01*
Y11111900D02*
X-570000Y11213500D01*
X-468400D01*
X-519200Y11111900D01*
Y11132220D02*
X-549680Y11193180D01*
X-488720D01*
X-519200Y11132220D01*
Y11361900D02*
X-570000Y11463500D01*
X-468400D01*
X-519200Y11361900D01*
Y11382220D02*
X-549680Y11443180D01*
X-488720D01*
X-519200Y11382220D01*
Y11611900D02*
X-570000Y11713500D01*
X-468400D01*
X-519200Y11611900D01*
Y11632220D02*
X-549680Y11693180D01*
X-488720D01*
X-519200Y11632220D01*
X7631200Y9111300D02*
X7656600Y9136700D01*
X7682000D01*
X7656600Y9162100D01*
X7682000Y9187500D01*
X7656600D01*
X7631200Y9212900D01*
X7605800Y9187500D01*
X7580400D01*
X7605800Y9162100D01*
X7580400Y9136700D01*
X7605800D01*
X7631200Y9111300D01*
Y9131620D02*
X7646440Y9146860D01*
X7661680D01*
X7646440Y9162100D01*
X7661680Y9177340D01*
X7646440D01*
X7631200Y9192580D01*
X7615960Y9177340D01*
X7600720D01*
X7615960Y9162100D01*
X7600720Y9146860D01*
X7615960D01*
X7631200Y9131620D01*
X8015200Y9736300D02*
X7964400Y9837900D01*
X8066000D01*
X8015200Y9736300D01*
Y9756620D02*
X7984720Y9817580D01*
X8045680D01*
X8015200Y9756620D01*
Y9486300D02*
X7964400Y9587900D01*
X8066000D01*
X8015200Y9486300D01*
Y9506620D02*
X7984720Y9567580D01*
X8045680D01*
X8015200Y9506620D01*
Y9236300D02*
X7964400Y9337900D01*
X8066000D01*
X8015200Y9236300D01*
Y9256620D02*
X7984720Y9317580D01*
X8045680D01*
X8015200Y9256620D01*
Y8986300D02*
X7964400Y9087900D01*
X8066000D01*
X8015200Y8986300D01*
Y9006620D02*
X7984720Y9067580D01*
X8045680D01*
X8015200Y9006620D01*
Y8736300D02*
X7964400Y8837900D01*
X8066000D01*
X8015200Y8736300D01*
Y8756620D02*
X7984720Y8817580D01*
X8045680D01*
X8015200Y8756620D01*
X7761200Y9736300D02*
X7710400Y9837900D01*
X7812000D01*
X7761200Y9736300D01*
Y9756620D02*
X7730720Y9817580D01*
X7791680D01*
X7761200Y9756620D01*
Y9486300D02*
X7710400Y9587900D01*
X7812000D01*
X7761200Y9486300D01*
Y9506620D02*
X7730720Y9567580D01*
X7791680D01*
X7761200Y9506620D01*
Y9236300D02*
X7710400Y9337900D01*
X7812000D01*
X7761200Y9236300D01*
Y9256620D02*
X7730720Y9317580D01*
X7791680D01*
X7761200Y9256620D01*
Y8986300D02*
X7710400Y9087900D01*
X7812000D01*
X7761200Y8986300D01*
Y9006620D02*
X7730720Y9067580D01*
X7791680D01*
X7761200Y9006620D01*
Y8736300D02*
X7710400Y8837900D01*
X7812000D01*
X7761200Y8736300D01*
Y8756620D02*
X7730720Y8817580D01*
X7791680D01*
X7761200Y8756620D01*
X7748500Y10611900D02*
X7697700Y10713500D01*
X7799300D01*
X7748500Y10611900D01*
Y10632220D02*
X7718020Y10693180D01*
X7778980D01*
X7748500Y10632220D01*
Y10861900D02*
X7697700Y10963500D01*
X7799300D01*
X7748500Y10861900D01*
Y10882220D02*
X7718020Y10943180D01*
X7778980D01*
X7748500Y10882220D01*
Y11111900D02*
X7697700Y11213500D01*
X7799300D01*
X7748500Y11111900D01*
Y11132220D02*
X7718020Y11193180D01*
X7778980D01*
X7748500Y11132220D01*
Y11361900D02*
X7697700Y11463500D01*
X7799300D01*
X7748500Y11361900D01*
Y11382220D02*
X7718020Y11443180D01*
X7778980D01*
X7748500Y11382220D01*
Y11611900D02*
X7697700Y11713500D01*
X7799300D01*
X7748500Y11611900D01*
Y11632220D02*
X7718020Y11693180D01*
X7778980D01*
X7748500Y11632220D01*
X8002500Y10611900D02*
X7951700Y10713500D01*
X8053300D01*
X8002500Y10611900D01*
Y10632220D02*
X7972020Y10693180D01*
X8032980D01*
X8002500Y10632220D01*
Y10861900D02*
X7951700Y10963500D01*
X8053300D01*
X8002500Y10861900D01*
Y10882220D02*
X7972020Y10943180D01*
X8032980D01*
X8002500Y10882220D01*
Y11111900D02*
X7951700Y11213500D01*
X8053300D01*
X8002500Y11111900D01*
Y11132220D02*
X7972020Y11193180D01*
X8032980D01*
X8002500Y11132220D01*
Y11361900D02*
X7951700Y11463500D01*
X8053300D01*
X8002500Y11361900D01*
Y11382220D02*
X7972020Y11443180D01*
X8032980D01*
X8002500Y11382220D01*
Y11611900D02*
X7951700Y11713500D01*
X8053300D01*
X8002500Y11611900D01*
Y11632220D02*
X7972020Y11693180D01*
X8032980D01*
X8002500Y11632220D01*
X7618500Y10986900D02*
X7643900Y11012300D01*
X7669300D01*
X7643900Y11037700D01*
X7669300Y11063100D01*
X7643900D01*
X7618500Y11088500D01*
X7593100Y11063100D01*
X7567700D01*
X7593100Y11037700D01*
X7567700Y11012300D01*
X7593100D01*
X7618500Y10986900D01*
Y11007220D02*
X7633740Y11022460D01*
X7648980D01*
X7633740Y11037700D01*
X7648980Y11052940D01*
X7633740D01*
X7618500Y11068180D01*
X7603260Y11052940D01*
X7588020D01*
X7603260Y11037700D01*
X7588020Y11022460D01*
X7603260D01*
X7618500Y11007220D01*
X-1070800Y14543201D02*
Y14644800D01*
X-969200D01*
Y14543201D01*
X-1070800D01*
X-1050480Y14563519D02*
Y14624480D01*
X-989520D01*
Y14563519D01*
X-1050480D01*
X-180800Y14089999D02*
X-130000Y14140800D01*
X-79200Y14089999D01*
X-130000Y14039200D01*
X-180800Y14089999D01*
X659200D02*
X710000Y14140800D01*
X760800Y14089999D01*
X710000Y14039200D01*
X659200Y14089999D01*
X239200D02*
X290000Y14140800D01*
X340800Y14089999D01*
X290000Y14039200D01*
X239200Y14089999D01*
X-600800D02*
X-550000Y14140800D01*
X-499200Y14089999D01*
X-550000Y14039200D01*
X-600800Y14089999D01*
Y14639999D02*
X-550000Y14690800D01*
X-499200Y14639999D01*
X-550000Y14589200D01*
X-600800Y14639999D01*
X-180800D02*
X-130000Y14690800D01*
X-79200Y14639999D01*
X-130000Y14589200D01*
X-180800Y14639999D01*
X659200D02*
X710000Y14690800D01*
X760800Y14639999D01*
X710000Y14589200D01*
X659200Y14639999D01*
X239200D02*
X290000Y14690800D01*
X340800Y14639999D01*
X290000Y14589200D01*
X239200Y14639999D01*
X1129200Y14543201D02*
Y14644800D01*
X1230800D01*
Y14543201D01*
X1129200D01*
X1149520Y14563519D02*
Y14624480D01*
X1210480D01*
Y14563519D01*
X1149520D01*
X8374200Y2389200D02*
X8399600Y2440000D01*
X8374200Y2490800D01*
X8425000Y2465400D01*
X8475800Y2490800D01*
X8450400Y2440000D01*
X8475800Y2389200D01*
X8425000Y2414600D01*
X8374200Y2389200D01*
X8394520Y2409520D02*
X8409760Y2440000D01*
X8394520Y2470480D01*
X8425000Y2455240D01*
X8455480Y2470480D01*
X8440240Y2440000D01*
X8455480Y2409520D01*
X8425000Y2424760D01*
X8394520Y2409520D01*
X8624200Y2389200D02*
X8649600Y2440000D01*
X8624200Y2490800D01*
X8675000Y2465400D01*
X8725800Y2490800D01*
X8700400Y2440000D01*
X8725800Y2389200D01*
X8675000Y2414600D01*
X8624200Y2389200D01*
X8644520Y2409520D02*
X8659760Y2440000D01*
X8644520Y2470480D01*
X8675000Y2455240D01*
X8705480Y2470480D01*
X8690240Y2440000D01*
X8705480Y2409520D01*
X8675000Y2424760D01*
X8644520Y2409520D01*
X8374200Y2639200D02*
X8399600Y2690000D01*
X8374200Y2740800D01*
X8425000Y2715400D01*
X8475800Y2740800D01*
X8450400Y2690000D01*
X8475800Y2639200D01*
X8425000Y2664600D01*
X8374200Y2639200D01*
X8394520Y2659520D02*
X8409760Y2690000D01*
X8394520Y2720480D01*
X8425000Y2705240D01*
X8455480Y2720480D01*
X8440240Y2690000D01*
X8455480Y2659520D01*
X8425000Y2674760D01*
X8394520Y2659520D01*
X8624200Y2639200D02*
X8649600Y2690000D01*
X8624200Y2740800D01*
X8675000Y2715400D01*
X8725800Y2740800D01*
X8700400Y2690000D01*
X8725800Y2639200D01*
X8675000Y2664600D01*
X8624200Y2639200D01*
X8644520Y2659520D02*
X8659760Y2690000D01*
X8644520Y2720480D01*
X8675000Y2705240D01*
X8705480Y2720480D01*
X8690240Y2690000D01*
X8705480Y2659520D01*
X8675000Y2674760D01*
X8644520Y2659520D01*
X8783600Y2539600D02*
Y2514200D01*
X8834400D01*
Y2539600D01*
X8859800D01*
Y2590400D01*
X8834400D01*
Y2615800D01*
X8783600D01*
Y2590400D01*
X8758200D01*
Y2539600D01*
X8783600D01*
X8793760Y2549760D02*
Y2534520D01*
X8824240D01*
Y2549760D01*
X8839480D01*
Y2580240D01*
X8824240D01*
Y2595480D01*
X8793760D01*
Y2580240D01*
X8778520D01*
Y2549760D01*
X8793760D01*
X-3750400Y5529600D02*
Y5504200D01*
X-3699600D01*
Y5529600D01*
X-3674200D01*
Y5580400D01*
X-3699600D01*
Y5605800D01*
X-3750400D01*
Y5580400D01*
X-3775800D01*
Y5529600D01*
X-3750400D01*
Y6029600D02*
Y6004200D01*
X-3699600D01*
Y6029600D01*
X-3674200D01*
Y6080400D01*
X-3699600D01*
Y6105800D01*
X-3750400D01*
Y6080400D01*
X-3775800D01*
Y6029600D01*
X-3750400D01*
X-3831300Y9418700D02*
X-3805900D01*
X-3780500Y9444100D01*
X-3755100Y9418700D01*
X-3729700D01*
Y9444100D01*
X-3755100Y9469500D01*
X-3729700Y9494900D01*
Y9520300D01*
X-3755100D01*
X-3780500Y9494900D01*
X-3805900Y9520300D01*
X-3831300D01*
Y9494900D01*
X-3805900Y9469500D01*
X-3831300Y9444100D01*
Y9418700D01*
Y9164700D02*
X-3805900D01*
X-3780500Y9190100D01*
X-3755100Y9164700D01*
X-3729700D01*
Y9190100D01*
X-3755100Y9215500D01*
X-3729700Y9240900D01*
Y9266300D01*
X-3755100D01*
X-3780500Y9240900D01*
X-3805900Y9266300D01*
X-3831300D01*
Y9240900D01*
X-3805900Y9215500D01*
X-3831300Y9190100D01*
Y9164700D01*
Y8910700D02*
X-3805900D01*
X-3780500Y8936100D01*
X-3755100Y8910700D01*
X-3729700D01*
Y8936100D01*
X-3755100Y8961500D01*
X-3729700Y8986900D01*
Y9012300D01*
X-3755100D01*
X-3780500Y8986900D01*
X-3805900Y9012300D01*
X-3831300D01*
Y8986900D01*
X-3805900Y8961500D01*
X-3831300Y8936100D01*
Y8910700D01*
Y8656700D02*
X-3805900D01*
X-3780500Y8682100D01*
X-3755100Y8656700D01*
X-3729700D01*
Y8682100D01*
X-3755100Y8707500D01*
X-3729700Y8732900D01*
Y8758300D01*
X-3755100D01*
X-3780500Y8732900D01*
X-3805900Y8758300D01*
X-3831300D01*
Y8732900D01*
X-3805900Y8707500D01*
X-3831300Y8682100D01*
Y8656700D01*
Y8402700D02*
X-3805900D01*
X-3780500Y8428100D01*
X-3755100Y8402700D01*
X-3729700D01*
Y8428100D01*
X-3755100Y8453500D01*
X-3729700Y8478900D01*
Y8504300D01*
X-3755100D01*
X-3780500Y8478900D01*
X-3805900Y8504300D01*
X-3831300D01*
Y8478900D01*
X-3805900Y8453500D01*
X-3831300Y8428100D01*
Y8402700D01*
X-4593300D02*
X-4567900D01*
X-4542500Y8428100D01*
X-4517100Y8402700D01*
X-4491700D01*
Y8428100D01*
X-4517100Y8453500D01*
X-4491700Y8478900D01*
Y8504300D01*
X-4517100D01*
X-4542500Y8478900D01*
X-4567900Y8504300D01*
X-4593300D01*
Y8478900D01*
X-4567900Y8453500D01*
X-4593300Y8428100D01*
Y8402700D01*
Y8656700D02*
X-4567900D01*
X-4542500Y8682100D01*
X-4517100Y8656700D01*
X-4491700D01*
Y8682100D01*
X-4517100Y8707500D01*
X-4491700Y8732900D01*
Y8758300D01*
X-4517100D01*
X-4542500Y8732900D01*
X-4567900Y8758300D01*
X-4593300D01*
Y8732900D01*
X-4567900Y8707500D01*
X-4593300Y8682100D01*
Y8656700D01*
Y8910700D02*
X-4567900D01*
X-4542500Y8936100D01*
X-4517100Y8910700D01*
X-4491700D01*
Y8936100D01*
X-4517100Y8961500D01*
X-4491700Y8986900D01*
Y9012300D01*
X-4517100D01*
X-4542500Y8986900D01*
X-4567900Y9012300D01*
X-4593300D01*
Y8986900D01*
X-4567900Y8961500D01*
X-4593300Y8936100D01*
Y8910700D01*
Y9164700D02*
X-4567900D01*
X-4542500Y9190100D01*
X-4517100Y9164700D01*
X-4491700D01*
Y9190100D01*
X-4517100Y9215500D01*
X-4491700Y9240900D01*
Y9266300D01*
X-4517100D01*
X-4542500Y9240900D01*
X-4567900Y9266300D01*
X-4593300D01*
Y9240900D01*
X-4567900Y9215500D01*
X-4593300Y9190100D01*
Y9164700D01*
Y9418700D02*
X-4567900D01*
X-4542500Y9444100D01*
X-4517100Y9418700D01*
X-4491700D01*
Y9444100D01*
X-4517100Y9469500D01*
X-4491700Y9494900D01*
Y9520300D01*
X-4517100D01*
X-4542500Y9494900D01*
X-4567900Y9520300D01*
X-4593300D01*
Y9494900D01*
X-4567900Y9469500D01*
X-4593300Y9444100D01*
Y9418700D01*
X-2335700Y3914530D02*
X-2310300Y3965330D01*
X-2335700Y4016130D01*
X-2284900Y3990730D01*
X-2234100Y4016130D01*
X-2259500Y3965330D01*
X-2234100Y3914530D01*
X-2284900Y3939930D01*
X-2335700Y3914530D01*
X-2462700Y4134500D02*
X-2437300Y4185300D01*
X-2462700Y4236100D01*
X-2411900Y4210700D01*
X-2361100Y4236100D01*
X-2386500Y4185300D01*
X-2361100Y4134500D01*
X-2411900Y4159900D01*
X-2462700Y4134500D01*
X-2589700Y4354471D02*
X-2564300Y4405271D01*
X-2589700Y4456071D01*
X-2538900Y4430671D01*
X-2488100Y4456071D01*
X-2513500Y4405271D01*
X-2488100Y4354471D01*
X-2538900Y4379871D01*
X-2589700Y4354471D01*
X-2716700Y4574441D02*
X-2691300Y4625241D01*
X-2716700Y4676041D01*
X-2665900Y4650641D01*
X-2615100Y4676041D01*
X-2640500Y4625241D01*
X-2615100Y4574441D01*
X-2665900Y4599841D01*
X-2716700Y4574441D01*
X11626700Y8966703D02*
X11652100D01*
X11677500Y8992103D01*
X11702900Y8966703D01*
X11728300D01*
Y8992103D01*
X11702900Y9017503D01*
X11728300Y9042903D01*
Y9068303D01*
X11702900D01*
X11677500Y9042903D01*
X11652100Y9068303D01*
X11626700D01*
Y9042903D01*
X11652100Y9017503D01*
X11626700Y8992103D01*
Y8966703D01*
X11647020Y8987023D02*
X11662260D01*
X11677500Y9002263D01*
X11692740Y8987023D01*
X11707980D01*
Y9002263D01*
X11692740Y9017503D01*
X11707980Y9032743D01*
Y9047983D01*
X11692740D01*
X11677500Y9032743D01*
X11662260Y9047983D01*
X11647020D01*
Y9032743D01*
X11662260Y9017503D01*
X11647020Y9002263D01*
Y8987023D01*
X9226700Y5394198D02*
X9252100D01*
X9277500Y5419598D01*
X9302900Y5394198D01*
X9328300D01*
Y5419598D01*
X9302900Y5444998D01*
X9328300Y5470398D01*
Y5495798D01*
X9302900D01*
X9277500Y5470398D01*
X9252100Y5495798D01*
X9226700D01*
Y5470398D01*
X9252100Y5444998D01*
X9226700Y5419598D01*
Y5394198D01*
X9247020Y5414518D02*
X9262260D01*
X9277500Y5429758D01*
X9292740Y5414518D01*
X9307980D01*
Y5429758D01*
X9292740Y5444998D01*
X9307980Y5460238D01*
Y5475478D01*
X9292740D01*
X9277500Y5460238D01*
X9262260Y5475478D01*
X9247020D01*
Y5460238D01*
X9262260Y5444998D01*
X9247020Y5429758D01*
Y5414518D01*
X-2713301Y11839199D02*
X-2687901D01*
X-2662501Y11864599D01*
X-2637101Y11839199D01*
X-2611701D01*
Y11864599D01*
X-2637101Y11889999D01*
X-2611701Y11915399D01*
Y11940799D01*
X-2637101D01*
X-2662501Y11915399D01*
X-2687901Y11940799D01*
X-2713301D01*
Y11915399D01*
X-2687901Y11889999D01*
X-2713301Y11864599D01*
Y11839199D01*
X-2692981Y11859519D02*
X-2677741D01*
X-2662501Y11874759D01*
X-2647261Y11859519D01*
X-2632021D01*
Y11874759D01*
X-2647261Y11889999D01*
X-2632021Y11905239D01*
Y11920479D01*
X-2647261D01*
X-2662501Y11905239D01*
X-2677741Y11920479D01*
X-2692981D01*
Y11905239D01*
X-2677741Y11889999D01*
X-2692981Y11874759D01*
Y11859519D01*
X-318300Y8269198D02*
X-292900D01*
X-267500Y8294598D01*
X-242100Y8269198D01*
X-216700D01*
Y8294598D01*
X-242100Y8319998D01*
X-216700Y8345398D01*
Y8370798D01*
X-242100D01*
X-267500Y8345398D01*
X-292900Y8370798D01*
X-318300D01*
Y8345398D01*
X-292900Y8319998D01*
X-318300Y8294598D01*
Y8269198D01*
X-297980Y8289518D02*
X-282740D01*
X-267500Y8304758D01*
X-252260Y8289518D01*
X-237020D01*
Y8304758D01*
X-252260Y8319998D01*
X-237020Y8335238D01*
Y8350478D01*
X-252260D01*
X-267500Y8335238D01*
X-282740Y8350478D01*
X-297980D01*
Y8335238D01*
X-282740Y8319998D01*
X-297980Y8304758D01*
Y8289518D01*
X-310802Y3259201D02*
X-285402D01*
X-260002Y3284601D01*
X-234602Y3259201D01*
X-209202D01*
Y3284601D01*
X-234602Y3310001D01*
X-209202Y3335401D01*
Y3360801D01*
X-234602D01*
X-260002Y3335401D01*
X-285402Y3360801D01*
X-310802D01*
Y3335401D01*
X-285402Y3310001D01*
X-310802Y3284601D01*
Y3259201D01*
X-290482Y3279521D02*
X-275242D01*
X-260002Y3294761D01*
X-244762Y3279521D01*
X-229522D01*
Y3294761D01*
X-244762Y3310001D01*
X-229522Y3325241D01*
Y3340481D01*
X-244762D01*
X-260002Y3325241D01*
X-275242Y3340481D01*
X-290482D01*
Y3325241D01*
X-275242Y3310001D01*
X-290482Y3294761D01*
Y3279521D01*
X-2713301Y6829201D02*
X-2687901D01*
X-2662501Y6854601D01*
X-2637101Y6829201D01*
X-2611701D01*
Y6854601D01*
X-2637101Y6880001D01*
X-2611701Y6905401D01*
Y6930801D01*
X-2637101D01*
X-2662501Y6905401D01*
X-2687901Y6930801D01*
X-2713301D01*
Y6905401D01*
X-2687901Y6880001D01*
X-2713301Y6854601D01*
Y6829201D01*
X-2692981Y6849521D02*
X-2677741D01*
X-2662501Y6864761D01*
X-2647261Y6849521D01*
X-2632021D01*
Y6864761D01*
X-2647261Y6880001D01*
X-2632021Y6895241D01*
Y6910481D01*
X-2647261D01*
X-2662501Y6895241D01*
X-2677741Y6910481D01*
X-2692981D01*
Y6895241D01*
X-2677741Y6880001D01*
X-2692981Y6864761D01*
Y6849521D01*
X7846698Y7189201D02*
X7872098D01*
X7897498Y7214601D01*
X7922898Y7189201D01*
X7948298D01*
Y7214601D01*
X7922898Y7240001D01*
X7948298Y7265401D01*
Y7290801D01*
X7922898D01*
X7897498Y7265401D01*
X7872098Y7290801D01*
X7846698D01*
Y7265401D01*
X7872098Y7240001D01*
X7846698Y7214601D01*
Y7189201D01*
X7867018Y7209521D02*
X7882258D01*
X7897498Y7224761D01*
X7912738Y7209521D01*
X7927978D01*
Y7224761D01*
X7912738Y7240001D01*
X7927978Y7255241D01*
Y7270481D01*
X7912738D01*
X7897498Y7255241D01*
X7882258Y7270481D01*
X7867018D01*
Y7255241D01*
X7882258Y7240001D01*
X7867018Y7224761D01*
Y7209521D01*
X10249203Y3621699D02*
X10274603D01*
X10300003Y3647099D01*
X10325403Y3621699D01*
X10350803D01*
Y3647099D01*
X10325403Y3672499D01*
X10350803Y3697899D01*
Y3723299D01*
X10325403D01*
X10300003Y3697899D01*
X10274603Y3723299D01*
X10249203D01*
Y3697899D01*
X10274603Y3672499D01*
X10249203Y3647099D01*
Y3621699D01*
X10269523Y3642019D02*
X10284763D01*
X10300003Y3657259D01*
X10315243Y3642019D01*
X10330483D01*
Y3657259D01*
X10315243Y3672499D01*
X10330483Y3687739D01*
Y3702979D01*
X10315243D01*
X10300003Y3687739D01*
X10284763Y3702979D01*
X10269523D01*
Y3687739D01*
X10284763Y3672499D01*
X10269523Y3657259D01*
Y3642019D01*
X9989198Y8551702D02*
X10014598D01*
X10039998Y8577102D01*
X10065398Y8551702D01*
X10090798D01*
Y8577102D01*
X10065398Y8602502D01*
X10090798Y8627902D01*
Y8653302D01*
X10065398D01*
X10039998Y8627902D01*
X10014598Y8653302D01*
X9989198D01*
Y8627902D01*
X10014598Y8602502D01*
X9989198Y8577102D01*
Y8551702D01*
X10009518Y8572022D02*
X10024758D01*
X10039998Y8587262D01*
X10055238Y8572022D01*
X10070478D01*
Y8587262D01*
X10055238Y8602502D01*
X10070478Y8617742D01*
Y8632982D01*
X10055238D01*
X10039998Y8617742D01*
X10024758Y8632982D01*
X10009518D01*
Y8617742D01*
X10024758Y8602502D01*
X10009518Y8587262D01*
Y8572022D01*
X7584199Y12121698D02*
X7609599D01*
X7634999Y12147098D01*
X7660399Y12121698D01*
X7685799D01*
Y12147098D01*
X7660399Y12172498D01*
X7685799Y12197898D01*
Y12223298D01*
X7660399D01*
X7634999Y12197898D01*
X7609599Y12223298D01*
X7584199D01*
Y12197898D01*
X7609599Y12172498D01*
X7584199Y12147098D01*
Y12121698D01*
X7604519Y12142018D02*
X7619759D01*
X7634999Y12157258D01*
X7650239Y12142018D01*
X7665479D01*
Y12157258D01*
X7650239Y12172498D01*
X7665479Y12187738D01*
Y12202978D01*
X7650239D01*
X7634999Y12187738D01*
X7619759Y12202978D01*
X7604519D01*
Y12187738D01*
X7619759Y12172498D01*
X7604519Y12157258D01*
Y12142018D01*
X10112413Y12342612D02*
Y12444212D01*
X10214013D01*
Y12342612D01*
X10112413D01*
X7559200Y825794D02*
Y927394D01*
X7660800D01*
Y825794D01*
X7559200D01*
X-2994017Y12342612D02*
Y12444212D01*
X-2892417D01*
Y12342612D01*
X-2994017D01*
X-440799Y825794D02*
Y927394D01*
X-339199D01*
Y825794D01*
X-440799D01*
X11510001Y10371959D02*
Y10245000D01*
X11573480D01*
X11594640Y10266160D01*
Y10287320D01*
X11573480Y10308480D01*
X11510001D01*
X11573480D01*
X11594640Y10329640D01*
Y10350799D01*
X11573480Y10371959D01*
X11510001D01*
X11760001Y9871959D02*
Y9745000D01*
X11823480D01*
X11844640Y9766160D01*
Y9787320D01*
X11823480Y9808480D01*
X11760001D01*
X11823480D01*
X11844640Y9829640D01*
Y9850799D01*
X11823480Y9871959D01*
X11760001D01*
Y8871959D02*
Y8745000D01*
X11823480D01*
X11844640Y8766160D01*
Y8787320D01*
X11823480Y8808480D01*
X11760001D01*
X11823480D01*
X11844640Y8829640D01*
Y8850799D01*
X11823480Y8871959D01*
X11760001D01*
Y7871959D02*
Y7745000D01*
X11823480D01*
X11844640Y7766160D01*
Y7787320D01*
X11823480Y7808480D01*
X11760001D01*
X11823480D01*
X11844640Y7829640D01*
Y7850799D01*
X11823480Y7871959D01*
X11760001D01*
Y6871959D02*
Y6745000D01*
X11823480D01*
X11844640Y6766160D01*
Y6787320D01*
X11823480Y6808480D01*
X11760001D01*
X11823480D01*
X11844640Y6829640D01*
Y6850799D01*
X11823480Y6871959D01*
X11760001D01*
Y5871959D02*
Y5745000D01*
X11823480D01*
X11844640Y5766160D01*
Y5787320D01*
X11823480Y5808480D01*
X11760001D01*
X11823480D01*
X11844640Y5829640D01*
Y5850799D01*
X11823480Y5871959D01*
X11760001D01*
X11510001Y5371959D02*
Y5245000D01*
X11573480D01*
X11594640Y5266160D01*
Y5287320D01*
X11573480Y5308480D01*
X11510001D01*
X11573480D01*
X11594640Y5329640D01*
Y5350799D01*
X11573480Y5371959D01*
X11510001D01*
X11260001Y10871959D02*
Y10745000D01*
X11323480D01*
X11344640Y10766160D01*
Y10787320D01*
X11323480Y10808480D01*
X11260001D01*
X11323480D01*
X11344640Y10829640D01*
Y10850799D01*
X11323480Y10871959D01*
X11260001D01*
X11010001Y9371959D02*
Y9245000D01*
X11073480D01*
X11094640Y9266160D01*
Y9287320D01*
X11073480Y9308480D01*
X11010001D01*
X11073480D01*
X11094640Y9329640D01*
Y9350799D01*
X11073480Y9371959D01*
X11010001D01*
Y8371959D02*
Y8245000D01*
X11073480D01*
X11094640Y8266160D01*
Y8287320D01*
X11073480Y8308480D01*
X11010001D01*
X11073480D01*
X11094640Y8329640D01*
Y8350799D01*
X11073480Y8371959D01*
X11010001D01*
X11260001Y4871959D02*
Y4745000D01*
X11323480D01*
X11344640Y4766160D01*
Y4787320D01*
X11323480Y4808480D01*
X11260001D01*
X11323480D01*
X11344640Y4829640D01*
Y4850799D01*
X11323480Y4871959D01*
X11260001D01*
X11010001Y4371959D02*
Y4245000D01*
X11073480D01*
X11094640Y4266160D01*
Y4287320D01*
X11073480Y4308480D01*
X11010001D01*
X11073480D01*
X11094640Y4329640D01*
Y4350799D01*
X11073480Y4371959D01*
X11010001D01*
X10510001Y12371959D02*
Y12245000D01*
X10573480D01*
X10594640Y12266160D01*
Y12287320D01*
X10573480Y12308480D01*
X10510001D01*
X10573480D01*
X10594640Y12329640D01*
Y12350800D01*
X10573480Y12371959D01*
X10510001D01*
Y11371959D02*
Y11245000D01*
X10573480D01*
X10594640Y11266160D01*
Y11287320D01*
X10573480Y11308480D01*
X10510001D01*
X10573480D01*
X10594640Y11329640D01*
Y11350799D01*
X10573480Y11371959D01*
X10510001D01*
X10760001Y9871959D02*
Y9745000D01*
X10823480D01*
X10844640Y9766160D01*
Y9787320D01*
X10823480Y9808480D01*
X10760001D01*
X10823480D01*
X10844640Y9829640D01*
Y9850799D01*
X10823480Y9871959D01*
X10760001D01*
X10510001Y9371959D02*
Y9245000D01*
X10573480D01*
X10594640Y9266160D01*
Y9287320D01*
X10573480Y9308480D01*
X10510001D01*
X10573480D01*
X10594640Y9329640D01*
Y9350799D01*
X10573480Y9371959D01*
X10510001D01*
X10760001Y8871959D02*
Y8745000D01*
X10823480D01*
X10844640Y8766160D01*
Y8787320D01*
X10823480Y8808480D01*
X10760001D01*
X10823480D01*
X10844640Y8829640D01*
Y8850799D01*
X10823480Y8871959D01*
X10760001D01*
X10510001Y4371959D02*
Y4245000D01*
X10573480D01*
X10594640Y4266160D01*
Y4287320D01*
X10573480Y4308480D01*
X10510001D01*
X10573480D01*
X10594640Y4329640D01*
Y4350799D01*
X10573480Y4371959D01*
X10510001D01*
X10260001Y12871959D02*
Y12745000D01*
X10323480D01*
X10344640Y12766160D01*
Y12787320D01*
X10323480Y12808479D01*
X10260001D01*
X10323480D01*
X10344640Y12829640D01*
Y12850800D01*
X10323480Y12871959D01*
X10260001D01*
X10010001Y10371959D02*
Y10245000D01*
X10073480D01*
X10094640Y10266160D01*
Y10287320D01*
X10073480Y10308480D01*
X10010001D01*
X10073480D01*
X10094640Y10329640D01*
Y10350799D01*
X10073480Y10371959D01*
X10010001D01*
Y9371959D02*
Y9245000D01*
X10073480D01*
X10094640Y9266160D01*
Y9287320D01*
X10073480Y9308480D01*
X10010001D01*
X10073480D01*
X10094640Y9329640D01*
Y9350799D01*
X10073480Y9371959D01*
X10010001D01*
X10260001Y8871959D02*
Y8745000D01*
X10323480D01*
X10344640Y8766160D01*
Y8787320D01*
X10323480Y8808480D01*
X10260001D01*
X10323480D01*
X10344640Y8829640D01*
Y8850799D01*
X10323480Y8871959D01*
X10260001D01*
X9510001Y12371959D02*
Y12245000D01*
X9573480D01*
X9594640Y12266160D01*
Y12287320D01*
X9573480Y12308480D01*
X9510001D01*
X9573480D01*
X9594640Y12329640D01*
Y12350800D01*
X9573480Y12371959D01*
X9510001D01*
X9010001Y13371959D02*
Y13245000D01*
X9073480D01*
X9094640Y13266161D01*
Y13287320D01*
X9073480Y13308479D01*
X9010001D01*
X9073480D01*
X9094640Y13329640D01*
Y13350800D01*
X9073480Y13371959D01*
X9010001D01*
X9260001Y12871959D02*
Y12745000D01*
X9323480D01*
X9344640Y12766160D01*
Y12787320D01*
X9323480Y12808479D01*
X9260001D01*
X9323480D01*
X9344640Y12829640D01*
Y12850800D01*
X9323480Y12871959D01*
X9260001D01*
X9010001Y8371959D02*
Y8245000D01*
X9073480D01*
X9094640Y8266160D01*
Y8287320D01*
X9073480Y8308480D01*
X9010001D01*
X9073480D01*
X9094640Y8329640D01*
Y8350799D01*
X9073480Y8371959D01*
X9010001D01*
X9260001Y3871959D02*
Y3745000D01*
X9323480D01*
X9344640Y3766160D01*
Y3787320D01*
X9323480Y3808480D01*
X9260001D01*
X9323480D01*
X9344640Y3829640D01*
Y3850799D01*
X9323480Y3871959D01*
X9260001D01*
X8510001Y6371959D02*
Y6245000D01*
X8573480D01*
X8594640Y6266160D01*
Y6287320D01*
X8573480Y6308480D01*
X8510001D01*
X8573480D01*
X8594640Y6329640D01*
Y6350799D01*
X8573480Y6371959D01*
X8510001D01*
Y5371959D02*
Y5245000D01*
X8573480D01*
X8594640Y5266160D01*
Y5287320D01*
X8573480Y5308480D01*
X8510001D01*
X8573480D01*
X8594640Y5329640D01*
Y5350799D01*
X8573480Y5371959D01*
X8510001D01*
Y4371959D02*
Y4245000D01*
X8573480D01*
X8594640Y4266160D01*
Y4287320D01*
X8573480Y4308480D01*
X8510001D01*
X8573480D01*
X8594640Y4329640D01*
Y4350799D01*
X8573480Y4371959D01*
X8510001D01*
X8760001Y3871959D02*
Y3745000D01*
X8823480D01*
X8844640Y3766160D01*
Y3787320D01*
X8823480Y3808480D01*
X8760001D01*
X8823480D01*
X8844640Y3829640D01*
Y3850799D01*
X8823480Y3871959D01*
X8760001D01*
X8510001Y2371959D02*
Y2245000D01*
X8573480D01*
X8594640Y2266160D01*
Y2287320D01*
X8573480Y2308480D01*
X8510001D01*
X8573480D01*
X8594640Y2329639D01*
Y2350799D01*
X8573480Y2371959D01*
X8510001D01*
Y1371959D02*
Y1245000D01*
X8573480D01*
X8594640Y1266160D01*
Y1287320D01*
X8573480Y1308479D01*
X8510001D01*
X8573480D01*
X8594640Y1329639D01*
Y1350799D01*
X8573480Y1371959D01*
X8510001D01*
X8260000Y11871959D02*
Y11745000D01*
X8323480D01*
X8344640Y11766160D01*
Y11787320D01*
X8323480Y11808480D01*
X8260000D01*
X8323480D01*
X8344640Y11829640D01*
Y11850800D01*
X8323480Y11871959D01*
X8260000D01*
X8010000Y4371959D02*
Y4245000D01*
X8073480D01*
X8094640Y4266160D01*
Y4287320D01*
X8073480Y4308480D01*
X8010000D01*
X8073480D01*
X8094640Y4329640D01*
Y4350799D01*
X8073480Y4371959D01*
X8010000D01*
X8260000Y3871959D02*
Y3745000D01*
X8323480D01*
X8344640Y3766160D01*
Y3787320D01*
X8323480Y3808480D01*
X8260000D01*
X8323480D01*
X8344640Y3829640D01*
Y3850799D01*
X8323480Y3871959D01*
X8260000D01*
X8010000Y3371959D02*
Y3245000D01*
X8073480D01*
X8094640Y3266160D01*
Y3287320D01*
X8073480Y3308480D01*
X8010000D01*
X8073480D01*
X8094640Y3329640D01*
Y3350799D01*
X8073480Y3371959D01*
X8010000D01*
Y2371959D02*
Y2245000D01*
X8073480D01*
X8094640Y2266160D01*
Y2287320D01*
X8073480Y2308480D01*
X8010000D01*
X8073480D01*
X8094640Y2329639D01*
Y2350799D01*
X8073480Y2371959D01*
X8010000D01*
Y1371959D02*
Y1245000D01*
X8073480D01*
X8094640Y1266160D01*
Y1287320D01*
X8073480Y1308479D01*
X8010000D01*
X8073480D01*
X8094640Y1329639D01*
Y1350799D01*
X8073480Y1371959D01*
X8010000D01*
X7510000Y15371959D02*
Y15245000D01*
X7573480D01*
X7594640Y15266161D01*
Y15287320D01*
X7573480Y15308479D01*
X7510000D01*
X7573480D01*
X7594640Y15329640D01*
Y15350800D01*
X7573480Y15371959D01*
X7510000D01*
X7760000Y7871959D02*
Y7745000D01*
X7823480D01*
X7844640Y7766160D01*
Y7787320D01*
X7823480Y7808480D01*
X7760000D01*
X7823480D01*
X7844640Y7829640D01*
Y7850799D01*
X7823480Y7871959D01*
X7760000D01*
X7510000Y6371959D02*
Y6245000D01*
X7573480D01*
X7594640Y6266160D01*
Y6287320D01*
X7573480Y6308480D01*
X7510000D01*
X7573480D01*
X7594640Y6329640D01*
Y6350799D01*
X7573480Y6371959D01*
X7510000D01*
X7760000Y2871959D02*
Y2745000D01*
X7823480D01*
X7844640Y2766160D01*
Y2787320D01*
X7823480Y2808480D01*
X7760000D01*
X7823480D01*
X7844640Y2829640D01*
Y2850799D01*
X7823480Y2871959D01*
X7760000D01*
X7510000Y2371959D02*
Y2245000D01*
X7573480D01*
X7594640Y2266160D01*
Y2287320D01*
X7573480Y2308480D01*
X7510000D01*
X7573480D01*
X7594640Y2329639D01*
Y2350799D01*
X7573480Y2371959D01*
X7510000D01*
X7010000Y15371959D02*
Y15245000D01*
X7073480D01*
X7094640Y15266161D01*
Y15287320D01*
X7073480Y15308479D01*
X7010000D01*
X7073480D01*
X7094640Y15329640D01*
Y15350800D01*
X7073480Y15371959D01*
X7010000D01*
X7260000Y14871959D02*
Y14745000D01*
X7323480D01*
X7344640Y14766161D01*
Y14787320D01*
X7323480Y14808479D01*
X7260000D01*
X7323480D01*
X7344640Y14829640D01*
Y14850800D01*
X7323480Y14871959D01*
X7260000D01*
Y12871959D02*
Y12745000D01*
X7323480D01*
X7344640Y12766160D01*
Y12787320D01*
X7323480Y12808479D01*
X7260000D01*
X7323480D01*
X7344640Y12829640D01*
Y12850800D01*
X7323480Y12871959D01*
X7260000D01*
X7010000Y12371959D02*
Y12245000D01*
X7073480D01*
X7094640Y12266160D01*
Y12287320D01*
X7073480Y12308480D01*
X7010000D01*
X7073480D01*
X7094640Y12329640D01*
Y12350800D01*
X7073480Y12371959D01*
X7010000D01*
Y11371959D02*
Y11245000D01*
X7073480D01*
X7094640Y11266160D01*
Y11287320D01*
X7073480Y11308480D01*
X7010000D01*
X7073480D01*
X7094640Y11329640D01*
Y11350799D01*
X7073480Y11371959D01*
X7010000D01*
Y7371959D02*
Y7245000D01*
X7073480D01*
X7094640Y7266160D01*
Y7287320D01*
X7073480Y7308480D01*
X7010000D01*
X7073480D01*
X7094640Y7329640D01*
Y7350799D01*
X7073480Y7371959D01*
X7010000D01*
X7260000Y5871959D02*
Y5745000D01*
X7323480D01*
X7344640Y5766160D01*
Y5787320D01*
X7323480Y5808480D01*
X7260000D01*
X7323480D01*
X7344640Y5829640D01*
Y5850799D01*
X7323480Y5871959D01*
X7260000D01*
X7010000Y4371959D02*
Y4245000D01*
X7073480D01*
X7094640Y4266160D01*
Y4287320D01*
X7073480Y4308480D01*
X7010000D01*
X7073480D01*
X7094640Y4329640D01*
Y4350799D01*
X7073480Y4371959D01*
X7010000D01*
X7260000Y3871959D02*
Y3745000D01*
X7323480D01*
X7344640Y3766160D01*
Y3787320D01*
X7323480Y3808480D01*
X7260000D01*
X7323480D01*
X7344640Y3829640D01*
Y3850799D01*
X7323480Y3871959D01*
X7260000D01*
X7010000Y3371959D02*
Y3245000D01*
X7073480D01*
X7094640Y3266160D01*
Y3287320D01*
X7073480Y3308480D01*
X7010000D01*
X7073480D01*
X7094640Y3329640D01*
Y3350799D01*
X7073480Y3371959D01*
X7010000D01*
X7260000Y2871959D02*
Y2745000D01*
X7323480D01*
X7344640Y2766160D01*
Y2787320D01*
X7323480Y2808480D01*
X7260000D01*
X7323480D01*
X7344640Y2829640D01*
Y2850799D01*
X7323480Y2871959D01*
X7260000D01*
X7010000Y2371959D02*
Y2245000D01*
X7073480D01*
X7094640Y2266160D01*
Y2287320D01*
X7073480Y2308480D01*
X7010000D01*
X7073480D01*
X7094640Y2329639D01*
Y2350799D01*
X7073480Y2371959D01*
X7010000D01*
X7260000Y871959D02*
Y745000D01*
X7323480D01*
X7344640Y766160D01*
Y787320D01*
X7323480Y808479D01*
X7260000D01*
X7323480D01*
X7344640Y829639D01*
Y850799D01*
X7323480Y871959D01*
X7260000D01*
X7010000Y371959D02*
Y245000D01*
X7073480D01*
X7094640Y266160D01*
Y287320D01*
X7073480Y308479D01*
X7010000D01*
X7073480D01*
X7094640Y329639D01*
Y350799D01*
X7073480Y371959D01*
X7010000D01*
X6510000Y15371959D02*
Y15245000D01*
X6573480D01*
X6594640Y15266161D01*
Y15287320D01*
X6573480Y15308479D01*
X6510000D01*
X6573480D01*
X6594640Y15329640D01*
Y15350800D01*
X6573480Y15371959D01*
X6510000D01*
Y14371959D02*
Y14245000D01*
X6573480D01*
X6594640Y14266161D01*
Y14287320D01*
X6573480Y14308479D01*
X6510000D01*
X6573480D01*
X6594640Y14329640D01*
Y14350800D01*
X6573480Y14371959D01*
X6510000D01*
X6760000Y12871959D02*
Y12745000D01*
X6823480D01*
X6844640Y12766160D01*
Y12787320D01*
X6823480Y12808479D01*
X6760000D01*
X6823480D01*
X6844640Y12829640D01*
Y12850800D01*
X6823480Y12871959D01*
X6760000D01*
X6510000Y3371959D02*
Y3245000D01*
X6573480D01*
X6594640Y3266160D01*
Y3287320D01*
X6573480Y3308480D01*
X6510000D01*
X6573480D01*
X6594640Y3329640D01*
Y3350799D01*
X6573480Y3371959D01*
X6510000D01*
X6760000Y2871959D02*
Y2745000D01*
X6823480D01*
X6844640Y2766160D01*
Y2787320D01*
X6823480Y2808480D01*
X6760000D01*
X6823480D01*
X6844640Y2829640D01*
Y2850799D01*
X6823480Y2871959D01*
X6760000D01*
X6510000Y2371959D02*
Y2245000D01*
X6573480D01*
X6594640Y2266160D01*
Y2287320D01*
X6573480Y2308480D01*
X6510000D01*
X6573480D01*
X6594640Y2329639D01*
Y2350799D01*
X6573480Y2371959D01*
X6510000D01*
X6760000Y871959D02*
Y745000D01*
X6823480D01*
X6844640Y766160D01*
Y787320D01*
X6823480Y808479D01*
X6760000D01*
X6823480D01*
X6844640Y829639D01*
Y850799D01*
X6823480Y871959D01*
X6760000D01*
X6510000Y371959D02*
Y245000D01*
X6573480D01*
X6594640Y266160D01*
Y287320D01*
X6573480Y308479D01*
X6510000D01*
X6573480D01*
X6594640Y329639D01*
Y350799D01*
X6573480Y371959D01*
X6510000D01*
X6260000Y15871959D02*
Y15745001D01*
X6323480D01*
X6344640Y15766161D01*
Y15787320D01*
X6323480Y15808479D01*
X6260000D01*
X6323480D01*
X6344640Y15829640D01*
Y15850800D01*
X6323480Y15871959D01*
X6260000D01*
Y7871959D02*
Y7745000D01*
X6323480D01*
X6344640Y7766160D01*
Y7787320D01*
X6323480Y7808480D01*
X6260000D01*
X6323480D01*
X6344640Y7829640D01*
Y7850799D01*
X6323480Y7871959D01*
X6260000D01*
X6010000Y7371959D02*
Y7245000D01*
X6073480D01*
X6094640Y7266160D01*
Y7287320D01*
X6073480Y7308480D01*
X6010000D01*
X6073480D01*
X6094640Y7329640D01*
Y7350799D01*
X6073480Y7371959D01*
X6010000D01*
Y6371959D02*
Y6245000D01*
X6073480D01*
X6094640Y6266160D01*
Y6287320D01*
X6073480Y6308480D01*
X6010000D01*
X6073480D01*
X6094640Y6329640D01*
Y6350799D01*
X6073480Y6371959D01*
X6010000D01*
X6260000Y5871959D02*
Y5745000D01*
X6323480D01*
X6344640Y5766160D01*
Y5787320D01*
X6323480Y5808480D01*
X6260000D01*
X6323480D01*
X6344640Y5829640D01*
Y5850799D01*
X6323480Y5871959D01*
X6260000D01*
Y3871959D02*
Y3745000D01*
X6323480D01*
X6344640Y3766160D01*
Y3787320D01*
X6323480Y3808480D01*
X6260000D01*
X6323480D01*
X6344640Y3829640D01*
Y3850799D01*
X6323480Y3871959D01*
X6260000D01*
X6010000Y3371959D02*
Y3245000D01*
X6073480D01*
X6094640Y3266160D01*
Y3287320D01*
X6073480Y3308480D01*
X6010000D01*
X6073480D01*
X6094640Y3329640D01*
Y3350799D01*
X6073480Y3371959D01*
X6010000D01*
Y2371959D02*
Y2245000D01*
X6073480D01*
X6094640Y2266160D01*
Y2287320D01*
X6073480Y2308480D01*
X6010000D01*
X6073480D01*
X6094640Y2329639D01*
Y2350799D01*
X6073480Y2371959D01*
X6010000D01*
X6260000Y871959D02*
Y745000D01*
X6323480D01*
X6344640Y766160D01*
Y787320D01*
X6323480Y808479D01*
X6260000D01*
X6323480D01*
X6344640Y829639D01*
Y850799D01*
X6323480Y871959D01*
X6260000D01*
X6010000Y371959D02*
Y245000D01*
X6073480D01*
X6094640Y266160D01*
Y287320D01*
X6073480Y308479D01*
X6010000D01*
X6073480D01*
X6094640Y329639D01*
Y350799D01*
X6073480Y371959D01*
X6010000D01*
X5760000Y15871959D02*
Y15745001D01*
X5823480D01*
X5844640Y15766161D01*
Y15787320D01*
X5823480Y15808479D01*
X5760000D01*
X5823480D01*
X5844640Y15829640D01*
Y15850800D01*
X5823480Y15871959D01*
X5760000D01*
Y13871959D02*
Y13745000D01*
X5823480D01*
X5844640Y13766161D01*
Y13787320D01*
X5823480Y13808479D01*
X5760000D01*
X5823480D01*
X5844640Y13829640D01*
Y13850800D01*
X5823480Y13871959D01*
X5760000D01*
X5510000Y12371959D02*
Y12245000D01*
X5573480D01*
X5594640Y12266160D01*
Y12287320D01*
X5573480Y12308480D01*
X5510000D01*
X5573480D01*
X5594640Y12329640D01*
Y12350800D01*
X5573480Y12371959D01*
X5510000D01*
X5760000Y11871959D02*
Y11745000D01*
X5823480D01*
X5844640Y11766160D01*
Y11787320D01*
X5823480Y11808480D01*
X5760000D01*
X5823480D01*
X5844640Y11829640D01*
Y11850800D01*
X5823480Y11871959D01*
X5760000D01*
X5510000Y11371959D02*
Y11245000D01*
X5573480D01*
X5594640Y11266160D01*
Y11287320D01*
X5573480Y11308480D01*
X5510000D01*
X5573480D01*
X5594640Y11329640D01*
Y11350799D01*
X5573480Y11371959D01*
X5510000D01*
X5760000Y10871959D02*
Y10745000D01*
X5823480D01*
X5844640Y10766160D01*
Y10787320D01*
X5823480Y10808480D01*
X5760000D01*
X5823480D01*
X5844640Y10829640D01*
Y10850799D01*
X5823480Y10871959D01*
X5760000D01*
Y7871959D02*
Y7745000D01*
X5823480D01*
X5844640Y7766160D01*
Y7787320D01*
X5823480Y7808480D01*
X5760000D01*
X5823480D01*
X5844640Y7829640D01*
Y7850799D01*
X5823480Y7871959D01*
X5760000D01*
Y5871959D02*
Y5745000D01*
X5823480D01*
X5844640Y5766160D01*
Y5787320D01*
X5823480Y5808480D01*
X5760000D01*
X5823480D01*
X5844640Y5829640D01*
Y5850799D01*
X5823480Y5871959D01*
X5760000D01*
Y4871959D02*
Y4745000D01*
X5823480D01*
X5844640Y4766160D01*
Y4787320D01*
X5823480Y4808480D01*
X5760000D01*
X5823480D01*
X5844640Y4829640D01*
Y4850799D01*
X5823480Y4871959D01*
X5760000D01*
Y3871959D02*
Y3745000D01*
X5823480D01*
X5844640Y3766160D01*
Y3787320D01*
X5823480Y3808480D01*
X5760000D01*
X5823480D01*
X5844640Y3829640D01*
Y3850799D01*
X5823480Y3871959D01*
X5760000D01*
X5510000Y3371959D02*
Y3245000D01*
X5573480D01*
X5594640Y3266160D01*
Y3287320D01*
X5573480Y3308480D01*
X5510000D01*
X5573480D01*
X5594640Y3329640D01*
Y3350799D01*
X5573480Y3371959D01*
X5510000D01*
Y2371959D02*
Y2245000D01*
X5573480D01*
X5594640Y2266160D01*
Y2287320D01*
X5573480Y2308480D01*
X5510000D01*
X5573480D01*
X5594640Y2329639D01*
Y2350799D01*
X5573480Y2371959D01*
X5510000D01*
X5760000Y871959D02*
Y745000D01*
X5823480D01*
X5844640Y766160D01*
Y787320D01*
X5823480Y808479D01*
X5760000D01*
X5823480D01*
X5844640Y829639D01*
Y850799D01*
X5823480Y871959D01*
X5760000D01*
X5510000Y371959D02*
Y245000D01*
X5573480D01*
X5594640Y266160D01*
Y287320D01*
X5573480Y308479D01*
X5510000D01*
X5573480D01*
X5594640Y329639D01*
Y350799D01*
X5573480Y371959D01*
X5510000D01*
X5260000Y12871959D02*
Y12745000D01*
X5323480D01*
X5344640Y12766160D01*
Y12787320D01*
X5323480Y12808479D01*
X5260000D01*
X5323480D01*
X5344640Y12829640D01*
Y12850800D01*
X5323480Y12871959D01*
X5260000D01*
X5010000Y8371959D02*
Y8245000D01*
X5073480D01*
X5094640Y8266160D01*
Y8287320D01*
X5073480Y8308480D01*
X5010000D01*
X5073480D01*
X5094640Y8329640D01*
Y8350799D01*
X5073480Y8371959D01*
X5010000D01*
Y7371959D02*
Y7245000D01*
X5073480D01*
X5094640Y7266160D01*
Y7287320D01*
X5073480Y7308480D01*
X5010000D01*
X5073480D01*
X5094640Y7329640D01*
Y7350799D01*
X5073480Y7371959D01*
X5010000D01*
Y6371959D02*
Y6245000D01*
X5073480D01*
X5094640Y6266160D01*
Y6287320D01*
X5073480Y6308480D01*
X5010000D01*
X5073480D01*
X5094640Y6329640D01*
Y6350799D01*
X5073480Y6371959D01*
X5010000D01*
X5260000Y5871959D02*
Y5745000D01*
X5323480D01*
X5344640Y5766160D01*
Y5787320D01*
X5323480Y5808480D01*
X5260000D01*
X5323480D01*
X5344640Y5829640D01*
Y5850799D01*
X5323480Y5871959D01*
X5260000D01*
Y4871959D02*
Y4745000D01*
X5323480D01*
X5344640Y4766160D01*
Y4787320D01*
X5323480Y4808480D01*
X5260000D01*
X5323480D01*
X5344640Y4829640D01*
Y4850799D01*
X5323480Y4871959D01*
X5260000D01*
X5010000Y4371959D02*
Y4245000D01*
X5073480D01*
X5094640Y4266160D01*
Y4287320D01*
X5073480Y4308480D01*
X5010000D01*
X5073480D01*
X5094640Y4329640D01*
Y4350799D01*
X5073480Y4371959D01*
X5010000D01*
Y3371959D02*
Y3245000D01*
X5073480D01*
X5094640Y3266160D01*
Y3287320D01*
X5073480Y3308480D01*
X5010000D01*
X5073480D01*
X5094640Y3329640D01*
Y3350799D01*
X5073480Y3371959D01*
X5010000D01*
X5260000Y2871959D02*
Y2745000D01*
X5323480D01*
X5344640Y2766160D01*
Y2787320D01*
X5323480Y2808480D01*
X5260000D01*
X5323480D01*
X5344640Y2829640D01*
Y2850799D01*
X5323480Y2871959D01*
X5260000D01*
X5010000Y2371959D02*
Y2245000D01*
X5073480D01*
X5094640Y2266160D01*
Y2287320D01*
X5073480Y2308480D01*
X5010000D01*
X5073480D01*
X5094640Y2329639D01*
Y2350799D01*
X5073480Y2371959D01*
X5010000D01*
X5260000Y871959D02*
Y745000D01*
X5323480D01*
X5344640Y766160D01*
Y787320D01*
X5323480Y808479D01*
X5260000D01*
X5323480D01*
X5344640Y829639D01*
Y850799D01*
X5323480Y871959D01*
X5260000D01*
X5010000Y371959D02*
Y245000D01*
X5073480D01*
X5094640Y266160D01*
Y287320D01*
X5073480Y308479D01*
X5010000D01*
X5073480D01*
X5094640Y329639D01*
Y350799D01*
X5073480Y371959D01*
X5010000D01*
X4510000Y10371959D02*
Y10245000D01*
X4573480D01*
X4594640Y10266160D01*
Y10287320D01*
X4573480Y10308480D01*
X4510000D01*
X4573480D01*
X4594640Y10329640D01*
Y10350799D01*
X4573480Y10371959D01*
X4510000D01*
X4760000Y2871959D02*
Y2745000D01*
X4823480D01*
X4844640Y2766160D01*
Y2787320D01*
X4823480Y2808480D01*
X4760000D01*
X4823480D01*
X4844640Y2829640D01*
Y2850799D01*
X4823480Y2871959D01*
X4760000D01*
X4510000Y2371959D02*
Y2245000D01*
X4573480D01*
X4594640Y2266160D01*
Y2287320D01*
X4573480Y2308480D01*
X4510000D01*
X4573480D01*
X4594640Y2329639D01*
Y2350799D01*
X4573480Y2371959D01*
X4510000D01*
X4760000Y871959D02*
Y745000D01*
X4823480D01*
X4844640Y766160D01*
Y787320D01*
X4823480Y808479D01*
X4760000D01*
X4823480D01*
X4844640Y829639D01*
Y850799D01*
X4823480Y871959D01*
X4760000D01*
X4510000Y371959D02*
Y245000D01*
X4573480D01*
X4594640Y266160D01*
Y287320D01*
X4573480Y308479D01*
X4510000D01*
X4573480D01*
X4594640Y329639D01*
Y350799D01*
X4573480Y371959D01*
X4510000D01*
X4010000Y11371959D02*
Y11245000D01*
X4073480D01*
X4094640Y11266160D01*
Y11287320D01*
X4073480Y11308480D01*
X4010000D01*
X4073480D01*
X4094640Y11329640D01*
Y11350799D01*
X4073480Y11371959D01*
X4010000D01*
Y9371959D02*
Y9245000D01*
X4073480D01*
X4094640Y9266160D01*
Y9287320D01*
X4073480Y9308480D01*
X4010000D01*
X4073480D01*
X4094640Y9329640D01*
Y9350799D01*
X4073480Y9371959D01*
X4010000D01*
X4260000Y7871959D02*
Y7745000D01*
X4323480D01*
X4344640Y7766160D01*
Y7787320D01*
X4323480Y7808480D01*
X4260000D01*
X4323480D01*
X4344640Y7829640D01*
Y7850799D01*
X4323480Y7871959D01*
X4260000D01*
X4010000Y6371959D02*
Y6245000D01*
X4073480D01*
X4094640Y6266160D01*
Y6287320D01*
X4073480Y6308480D01*
X4010000D01*
X4073480D01*
X4094640Y6329640D01*
Y6350799D01*
X4073480Y6371959D01*
X4010000D01*
X4260000Y5871959D02*
Y5745000D01*
X4323480D01*
X4344640Y5766160D01*
Y5787320D01*
X4323480Y5808480D01*
X4260000D01*
X4323480D01*
X4344640Y5829640D01*
Y5850799D01*
X4323480Y5871959D01*
X4260000D01*
Y4871959D02*
Y4745000D01*
X4323480D01*
X4344640Y4766160D01*
Y4787320D01*
X4323480Y4808480D01*
X4260000D01*
X4323480D01*
X4344640Y4829640D01*
Y4850799D01*
X4323480Y4871959D01*
X4260000D01*
X4010000Y4371959D02*
Y4245000D01*
X4073480D01*
X4094640Y4266160D01*
Y4287320D01*
X4073480Y4308480D01*
X4010000D01*
X4073480D01*
X4094640Y4329640D01*
Y4350799D01*
X4073480Y4371959D01*
X4010000D01*
X4260000Y2871959D02*
Y2745000D01*
X4323480D01*
X4344640Y2766160D01*
Y2787320D01*
X4323480Y2808480D01*
X4260000D01*
X4323480D01*
X4344640Y2829640D01*
Y2850799D01*
X4323480Y2871959D01*
X4260000D01*
X4010000Y2371959D02*
Y2245000D01*
X4073480D01*
X4094640Y2266160D01*
Y2287320D01*
X4073480Y2308480D01*
X4010000D01*
X4073480D01*
X4094640Y2329639D01*
Y2350799D01*
X4073480Y2371959D01*
X4010000D01*
X4260000Y871959D02*
Y745000D01*
X4323480D01*
X4344640Y766160D01*
Y787320D01*
X4323480Y808479D01*
X4260000D01*
X4323480D01*
X4344640Y829639D01*
Y850799D01*
X4323480Y871959D01*
X4260000D01*
X4010000Y371959D02*
Y245000D01*
X4073480D01*
X4094640Y266160D01*
Y287320D01*
X4073480Y308479D01*
X4010000D01*
X4073480D01*
X4094640Y329639D01*
Y350799D01*
X4073480Y371959D01*
X4010000D01*
X3760000Y12871959D02*
Y12745000D01*
X3823480D01*
X3844640Y12766160D01*
Y12787320D01*
X3823480Y12808479D01*
X3760000D01*
X3823480D01*
X3844640Y12829640D01*
Y12850800D01*
X3823480Y12871959D01*
X3760000D01*
Y10871959D02*
Y10745000D01*
X3823480D01*
X3844640Y10766160D01*
Y10787320D01*
X3823480Y10808480D01*
X3760000D01*
X3823480D01*
X3844640Y10829640D01*
Y10850799D01*
X3823480Y10871959D01*
X3760000D01*
Y9871959D02*
Y9745000D01*
X3823480D01*
X3844640Y9766160D01*
Y9787320D01*
X3823480Y9808480D01*
X3760000D01*
X3823480D01*
X3844640Y9829640D01*
Y9850799D01*
X3823480Y9871959D01*
X3760000D01*
X3510000Y9371959D02*
Y9245000D01*
X3573480D01*
X3594640Y9266160D01*
Y9287320D01*
X3573480Y9308480D01*
X3510000D01*
X3573480D01*
X3594640Y9329640D01*
Y9350799D01*
X3573480Y9371959D01*
X3510000D01*
X3760000Y6871959D02*
Y6745000D01*
X3823480D01*
X3844640Y6766160D01*
Y6787320D01*
X3823480Y6808480D01*
X3760000D01*
X3823480D01*
X3844640Y6829640D01*
Y6850799D01*
X3823480Y6871959D01*
X3760000D01*
X3510000Y6371959D02*
Y6245000D01*
X3573480D01*
X3594640Y6266160D01*
Y6287320D01*
X3573480Y6308480D01*
X3510000D01*
X3573480D01*
X3594640Y6329640D01*
Y6350799D01*
X3573480Y6371959D01*
X3510000D01*
X3760000Y5871959D02*
Y5745000D01*
X3823480D01*
X3844640Y5766160D01*
Y5787320D01*
X3823480Y5808480D01*
X3760000D01*
X3823480D01*
X3844640Y5829640D01*
Y5850799D01*
X3823480Y5871959D01*
X3760000D01*
Y4871959D02*
Y4745000D01*
X3823480D01*
X3844640Y4766160D01*
Y4787320D01*
X3823480Y4808480D01*
X3760000D01*
X3823480D01*
X3844640Y4829640D01*
Y4850799D01*
X3823480Y4871959D01*
X3760000D01*
X3510000Y4371959D02*
Y4245000D01*
X3573480D01*
X3594640Y4266160D01*
Y4287320D01*
X3573480Y4308480D01*
X3510000D01*
X3573480D01*
X3594640Y4329640D01*
Y4350799D01*
X3573480Y4371959D01*
X3510000D01*
Y2371959D02*
Y2245000D01*
X3573480D01*
X3594640Y2266160D01*
Y2287320D01*
X3573480Y2308480D01*
X3510000D01*
X3573480D01*
X3594640Y2329639D01*
Y2350799D01*
X3573480Y2371959D01*
X3510000D01*
X3760000Y871959D02*
Y745000D01*
X3823480D01*
X3844640Y766160D01*
Y787320D01*
X3823480Y808479D01*
X3760000D01*
X3823480D01*
X3844640Y829639D01*
Y850799D01*
X3823480Y871959D01*
X3760000D01*
X3510000Y371959D02*
Y245000D01*
X3573480D01*
X3594640Y266160D01*
Y287320D01*
X3573480Y308479D01*
X3510000D01*
X3573480D01*
X3594640Y329639D01*
Y350799D01*
X3573480Y371959D01*
X3510000D01*
X3010000Y12371959D02*
Y12245000D01*
X3073480D01*
X3094640Y12266160D01*
Y12287320D01*
X3073480Y12308480D01*
X3010000D01*
X3073480D01*
X3094640Y12329640D01*
Y12350800D01*
X3073480Y12371959D01*
X3010000D01*
X3260000Y11871959D02*
Y11745000D01*
X3323480D01*
X3344640Y11766160D01*
Y11787320D01*
X3323480Y11808480D01*
X3260000D01*
X3323480D01*
X3344640Y11829640D01*
Y11850800D01*
X3323480Y11871959D01*
X3260000D01*
X3010000Y11371959D02*
Y11245000D01*
X3073480D01*
X3094640Y11266160D01*
Y11287320D01*
X3073480Y11308480D01*
X3010000D01*
X3073480D01*
X3094640Y11329640D01*
Y11350799D01*
X3073480Y11371959D01*
X3010000D01*
Y7371959D02*
Y7245000D01*
X3073480D01*
X3094640Y7266160D01*
Y7287320D01*
X3073480Y7308480D01*
X3010000D01*
X3073480D01*
X3094640Y7329640D01*
Y7350799D01*
X3073480Y7371959D01*
X3010000D01*
X3260000Y6871959D02*
Y6745000D01*
X3323480D01*
X3344640Y6766160D01*
Y6787320D01*
X3323480Y6808480D01*
X3260000D01*
X3323480D01*
X3344640Y6829640D01*
Y6850799D01*
X3323480Y6871959D01*
X3260000D01*
X3010000Y6371959D02*
Y6245000D01*
X3073480D01*
X3094640Y6266160D01*
Y6287320D01*
X3073480Y6308480D01*
X3010000D01*
X3073480D01*
X3094640Y6329640D01*
Y6350799D01*
X3073480Y6371959D01*
X3010000D01*
X3260000Y5871959D02*
Y5745000D01*
X3323480D01*
X3344640Y5766160D01*
Y5787320D01*
X3323480Y5808480D01*
X3260000D01*
X3323480D01*
X3344640Y5829640D01*
Y5850799D01*
X3323480Y5871959D01*
X3260000D01*
Y4871959D02*
Y4745000D01*
X3323480D01*
X3344640Y4766160D01*
Y4787320D01*
X3323480Y4808480D01*
X3260000D01*
X3323480D01*
X3344640Y4829640D01*
Y4850799D01*
X3323480Y4871959D01*
X3260000D01*
X3010000Y4371959D02*
Y4245000D01*
X3073480D01*
X3094640Y4266160D01*
Y4287320D01*
X3073480Y4308480D01*
X3010000D01*
X3073480D01*
X3094640Y4329640D01*
Y4350799D01*
X3073480Y4371959D01*
X3010000D01*
Y2371959D02*
Y2245000D01*
X3073480D01*
X3094640Y2266160D01*
Y2287320D01*
X3073480Y2308480D01*
X3010000D01*
X3073480D01*
X3094640Y2329639D01*
Y2350799D01*
X3073480Y2371959D01*
X3010000D01*
X3260000Y871959D02*
Y745000D01*
X3323480D01*
X3344640Y766160D01*
Y787320D01*
X3323480Y808479D01*
X3260000D01*
X3323480D01*
X3344640Y829639D01*
Y850799D01*
X3323480Y871959D01*
X3260000D01*
X3010000Y371959D02*
Y245000D01*
X3073480D01*
X3094640Y266160D01*
Y287320D01*
X3073480Y308479D01*
X3010000D01*
X3073480D01*
X3094640Y329639D01*
Y350799D01*
X3073480Y371959D01*
X3010000D01*
X2760000Y12871959D02*
Y12745000D01*
X2823480D01*
X2844640Y12766160D01*
Y12787320D01*
X2823480Y12808479D01*
X2760000D01*
X2823480D01*
X2844640Y12829640D01*
Y12850800D01*
X2823480Y12871959D01*
X2760000D01*
X2510000Y12371959D02*
Y12245000D01*
X2573480D01*
X2594640Y12266160D01*
Y12287320D01*
X2573480Y12308480D01*
X2510000D01*
X2573480D01*
X2594640Y12329640D01*
Y12350800D01*
X2573480Y12371959D01*
X2510000D01*
X2760000Y11871959D02*
Y11745000D01*
X2823480D01*
X2844640Y11766160D01*
Y11787320D01*
X2823480Y11808480D01*
X2760000D01*
X2823480D01*
X2844640Y11829640D01*
Y11850800D01*
X2823480Y11871959D01*
X2760000D01*
X2510000Y11371959D02*
Y11245000D01*
X2573480D01*
X2594640Y11266160D01*
Y11287320D01*
X2573480Y11308480D01*
X2510000D01*
X2573480D01*
X2594640Y11329640D01*
Y11350799D01*
X2573480Y11371959D01*
X2510000D01*
X2760000Y5871959D02*
Y5745000D01*
X2823480D01*
X2844640Y5766160D01*
Y5787320D01*
X2823480Y5808480D01*
X2760000D01*
X2823480D01*
X2844640Y5829640D01*
Y5850799D01*
X2823480Y5871959D01*
X2760000D01*
Y4871959D02*
Y4745000D01*
X2823480D01*
X2844640Y4766160D01*
Y4787320D01*
X2823480Y4808480D01*
X2760000D01*
X2823480D01*
X2844640Y4829640D01*
Y4850799D01*
X2823480Y4871959D01*
X2760000D01*
X2510000Y4371959D02*
Y4245000D01*
X2573480D01*
X2594640Y4266160D01*
Y4287320D01*
X2573480Y4308480D01*
X2510000D01*
X2573480D01*
X2594640Y4329640D01*
Y4350799D01*
X2573480Y4371959D01*
X2510000D01*
Y2371959D02*
Y2245000D01*
X2573480D01*
X2594640Y2266160D01*
Y2287320D01*
X2573480Y2308480D01*
X2510000D01*
X2573480D01*
X2594640Y2329639D01*
Y2350799D01*
X2573480Y2371959D01*
X2510000D01*
X2760000Y871959D02*
Y745000D01*
X2823480D01*
X2844640Y766160D01*
Y787320D01*
X2823480Y808479D01*
X2760000D01*
X2823480D01*
X2844640Y829639D01*
Y850799D01*
X2823480Y871959D01*
X2760000D01*
X2510000Y371959D02*
Y245000D01*
X2573480D01*
X2594640Y266160D01*
Y287320D01*
X2573480Y308479D01*
X2510000D01*
X2573480D01*
X2594640Y329639D01*
Y350799D01*
X2573480Y371959D01*
X2510000D01*
X2260000Y6871959D02*
Y6745000D01*
X2323480D01*
X2344640Y6766160D01*
Y6787320D01*
X2323480Y6808480D01*
X2260000D01*
X2323480D01*
X2344640Y6829640D01*
Y6850799D01*
X2323480Y6871959D01*
X2260000D01*
Y5871959D02*
Y5745000D01*
X2323480D01*
X2344640Y5766160D01*
Y5787320D01*
X2323480Y5808480D01*
X2260000D01*
X2323480D01*
X2344640Y5829640D01*
Y5850799D01*
X2323480Y5871959D01*
X2260000D01*
Y4871959D02*
Y4745000D01*
X2323480D01*
X2344640Y4766160D01*
Y4787320D01*
X2323480Y4808480D01*
X2260000D01*
X2323480D01*
X2344640Y4829640D01*
Y4850799D01*
X2323480Y4871959D01*
X2260000D01*
X2010000Y4371959D02*
Y4245000D01*
X2073480D01*
X2094640Y4266160D01*
Y4287320D01*
X2073480Y4308480D01*
X2010000D01*
X2073480D01*
X2094640Y4329640D01*
Y4350799D01*
X2073480Y4371959D01*
X2010000D01*
Y2371959D02*
Y2245000D01*
X2073480D01*
X2094640Y2266160D01*
Y2287320D01*
X2073480Y2308480D01*
X2010000D01*
X2073480D01*
X2094640Y2329639D01*
Y2350799D01*
X2073480Y2371959D01*
X2010000D01*
X2260000Y871959D02*
Y745000D01*
X2323480D01*
X2344640Y766160D01*
Y787320D01*
X2323480Y808479D01*
X2260000D01*
X2323480D01*
X2344640Y829639D01*
Y850799D01*
X2323480Y871959D01*
X2260000D01*
X2010000Y371959D02*
Y245000D01*
X2073480D01*
X2094640Y266160D01*
Y287320D01*
X2073480Y308479D01*
X2010000D01*
X2073480D01*
X2094640Y329639D01*
Y350799D01*
X2073480Y371959D01*
X2010000D01*
X1510000Y15371959D02*
Y15245000D01*
X1573480D01*
X1594640Y15266161D01*
Y15287320D01*
X1573480Y15308479D01*
X1510000D01*
X1573480D01*
X1594640Y15329640D01*
Y15350800D01*
X1573480Y15371959D01*
X1510000D01*
X1760000Y12871959D02*
Y12745000D01*
X1823480D01*
X1844640Y12766160D01*
Y12787320D01*
X1823480Y12808479D01*
X1760000D01*
X1823480D01*
X1844640Y12829640D01*
Y12850800D01*
X1823480Y12871959D01*
X1760000D01*
X1510000Y12371959D02*
Y12245000D01*
X1573480D01*
X1594640Y12266160D01*
Y12287320D01*
X1573480Y12308480D01*
X1510000D01*
X1573480D01*
X1594640Y12329640D01*
Y12350800D01*
X1573480Y12371959D01*
X1510000D01*
X1760000Y11871959D02*
Y11745000D01*
X1823480D01*
X1844640Y11766160D01*
Y11787320D01*
X1823480Y11808480D01*
X1760000D01*
X1823480D01*
X1844640Y11829640D01*
Y11850800D01*
X1823480Y11871959D01*
X1760000D01*
X1510000Y11371959D02*
Y11245000D01*
X1573480D01*
X1594640Y11266160D01*
Y11287320D01*
X1573480Y11308480D01*
X1510000D01*
X1573480D01*
X1594640Y11329640D01*
Y11350799D01*
X1573480Y11371959D01*
X1510000D01*
X1760000Y9871959D02*
Y9745000D01*
X1823480D01*
X1844640Y9766160D01*
Y9787320D01*
X1823480Y9808480D01*
X1760000D01*
X1823480D01*
X1844640Y9829640D01*
Y9850799D01*
X1823480Y9871959D01*
X1760000D01*
Y8871959D02*
Y8745000D01*
X1823480D01*
X1844640Y8766160D01*
Y8787320D01*
X1823480Y8808480D01*
X1760000D01*
X1823480D01*
X1844640Y8829640D01*
Y8850799D01*
X1823480Y8871959D01*
X1760000D01*
X1510000Y7371959D02*
Y7245000D01*
X1573480D01*
X1594640Y7266160D01*
Y7287320D01*
X1573480Y7308480D01*
X1510000D01*
X1573480D01*
X1594640Y7329640D01*
Y7350799D01*
X1573480Y7371959D01*
X1510000D01*
Y2371959D02*
Y2245000D01*
X1573480D01*
X1594640Y2266160D01*
Y2287320D01*
X1573480Y2308480D01*
X1510000D01*
X1573480D01*
X1594640Y2329639D01*
Y2350799D01*
X1573480Y2371959D01*
X1510000D01*
X1760000Y871959D02*
Y745000D01*
X1823480D01*
X1844640Y766160D01*
Y787320D01*
X1823480Y808479D01*
X1760000D01*
X1823480D01*
X1844640Y829639D01*
Y850799D01*
X1823480Y871959D01*
X1760000D01*
X1510000Y371959D02*
Y245000D01*
X1573480D01*
X1594640Y266160D01*
Y287320D01*
X1573480Y308479D01*
X1510000D01*
X1573480D01*
X1594640Y329639D01*
Y350799D01*
X1573480Y371959D01*
X1510000D01*
X1260000Y15871959D02*
Y15745001D01*
X1323480D01*
X1344640Y15766161D01*
Y15787320D01*
X1323480Y15808479D01*
X1260000D01*
X1323480D01*
X1344640Y15829640D01*
Y15850800D01*
X1323480Y15871959D01*
X1260000D01*
X1010000Y15371959D02*
Y15245000D01*
X1073480D01*
X1094640Y15266161D01*
Y15287320D01*
X1073480Y15308479D01*
X1010000D01*
X1073480D01*
X1094640Y15329640D01*
Y15350800D01*
X1073480Y15371959D01*
X1010000D01*
Y6371959D02*
Y6245000D01*
X1073480D01*
X1094640Y6266160D01*
Y6287320D01*
X1073480Y6308480D01*
X1010000D01*
X1073480D01*
X1094640Y6329640D01*
Y6350799D01*
X1073480Y6371959D01*
X1010000D01*
X1260000Y4871959D02*
Y4745000D01*
X1323480D01*
X1344640Y4766160D01*
Y4787320D01*
X1323480Y4808480D01*
X1260000D01*
X1323480D01*
X1344640Y4829640D01*
Y4850799D01*
X1323480Y4871959D01*
X1260000D01*
X1010000Y4371959D02*
Y4245000D01*
X1073480D01*
X1094640Y4266160D01*
Y4287320D01*
X1073480Y4308480D01*
X1010000D01*
X1073480D01*
X1094640Y4329640D01*
Y4350799D01*
X1073480Y4371959D01*
X1010000D01*
Y2371959D02*
Y2245000D01*
X1073480D01*
X1094640Y2266160D01*
Y2287320D01*
X1073480Y2308480D01*
X1010000D01*
X1073480D01*
X1094640Y2329639D01*
Y2350799D01*
X1073480Y2371959D01*
X1010000D01*
X1260000Y1871959D02*
Y1745000D01*
X1323480D01*
X1344640Y1766160D01*
Y1787320D01*
X1323480Y1808479D01*
X1260000D01*
X1323480D01*
X1344640Y1829639D01*
Y1850799D01*
X1323480Y1871959D01*
X1260000D01*
Y871959D02*
Y745000D01*
X1323480D01*
X1344640Y766160D01*
Y787320D01*
X1323480Y808479D01*
X1260000D01*
X1323480D01*
X1344640Y829639D01*
Y850799D01*
X1323480Y871959D01*
X1260000D01*
X1010000Y371959D02*
Y245000D01*
X1073480D01*
X1094640Y266160D01*
Y287320D01*
X1073480Y308479D01*
X1010000D01*
X1073480D01*
X1094640Y329639D01*
Y350799D01*
X1073480Y371959D01*
X1010000D01*
X510000Y15371959D02*
Y15245000D01*
X573480D01*
X594640Y15266161D01*
Y15287320D01*
X573480Y15308479D01*
X510000D01*
X573480D01*
X594640Y15329640D01*
Y15350800D01*
X573480Y15371959D01*
X510000D01*
Y2371959D02*
Y2245000D01*
X573480D01*
X594640Y2266160D01*
Y2287320D01*
X573480Y2308480D01*
X510000D01*
X573480D01*
X594640Y2329639D01*
Y2350799D01*
X573480Y2371959D01*
X510000D01*
X760000Y1871959D02*
Y1745000D01*
X823480D01*
X844640Y1766160D01*
Y1787320D01*
X823480Y1808479D01*
X760000D01*
X823480D01*
X844640Y1829639D01*
Y1850799D01*
X823480Y1871959D01*
X760000D01*
Y871959D02*
Y745000D01*
X823480D01*
X844640Y766160D01*
Y787320D01*
X823480Y808479D01*
X760000D01*
X823480D01*
X844640Y829639D01*
Y850799D01*
X823480Y871959D01*
X760000D01*
X510000Y371959D02*
Y245000D01*
X573480D01*
X594640Y266160D01*
Y287320D01*
X573480Y308479D01*
X510000D01*
X573480D01*
X594640Y329639D01*
Y350799D01*
X573480Y371959D01*
X510000D01*
X10000Y15371959D02*
Y15245000D01*
X73480D01*
X94640Y15266161D01*
Y15287320D01*
X73480Y15308479D01*
X10000D01*
X73480D01*
X94640Y15329640D01*
Y15350800D01*
X73480Y15371959D01*
X10000D01*
Y12371959D02*
Y12245000D01*
X73480D01*
X94640Y12266160D01*
Y12287320D01*
X73480Y12308480D01*
X10000D01*
X73480D01*
X94640Y12329640D01*
Y12350800D01*
X73480Y12371959D01*
X10000D01*
X260000Y7871959D02*
Y7745000D01*
X323480D01*
X344640Y7766160D01*
Y7787320D01*
X323480Y7808480D01*
X260000D01*
X323480D01*
X344640Y7829640D01*
Y7850799D01*
X323480Y7871959D01*
X260000D01*
Y6871959D02*
Y6745000D01*
X323480D01*
X344640Y6766160D01*
Y6787320D01*
X323480Y6808480D01*
X260000D01*
X323480D01*
X344640Y6829640D01*
Y6850799D01*
X323480Y6871959D01*
X260000D01*
Y871959D02*
Y745000D01*
X323480D01*
X344640Y766160D01*
Y787320D01*
X323480Y808479D01*
X260000D01*
X323480D01*
X344640Y829639D01*
Y850799D01*
X323480Y871959D01*
X260000D01*
X10000Y371959D02*
Y245000D01*
X73480D01*
X94640Y266160D01*
Y287320D01*
X73480Y308479D01*
X10000D01*
X73480D01*
X94640Y329639D01*
Y350799D01*
X73480Y371959D01*
X10000D01*
X-240000Y5871959D02*
Y5745000D01*
X-176520D01*
X-155360Y5766160D01*
Y5787320D01*
X-176520Y5808480D01*
X-240000D01*
X-176520D01*
X-155360Y5829640D01*
Y5850799D01*
X-176520Y5871959D01*
X-240000D01*
X-490000Y5371959D02*
Y5245000D01*
X-426520D01*
X-405360Y5266160D01*
Y5287320D01*
X-426520Y5308480D01*
X-490000D01*
X-426520D01*
X-405360Y5329640D01*
Y5350799D01*
X-426520Y5371959D01*
X-490000D01*
Y4371959D02*
Y4245000D01*
X-426520D01*
X-405360Y4266160D01*
Y4287320D01*
X-426520Y4308480D01*
X-490000D01*
X-426520D01*
X-405360Y4329640D01*
Y4350799D01*
X-426520Y4371959D01*
X-490000D01*
X-740000Y14871959D02*
Y14745000D01*
X-676520D01*
X-655360Y14766161D01*
Y14787320D01*
X-676520Y14808479D01*
X-740000D01*
X-676520D01*
X-655360Y14829640D01*
Y14850800D01*
X-676520Y14871959D01*
X-740000D01*
X-990000Y14371959D02*
Y14245000D01*
X-926520D01*
X-905360Y14266161D01*
Y14287320D01*
X-926520Y14308479D01*
X-990000D01*
X-926520D01*
X-905360Y14329640D01*
Y14350800D01*
X-926520Y14371959D01*
X-990000D01*
Y4371959D02*
Y4245000D01*
X-926520D01*
X-905360Y4266160D01*
Y4287320D01*
X-926520Y4308480D01*
X-990000D01*
X-926520D01*
X-905360Y4329640D01*
Y4350799D01*
X-926520Y4371959D01*
X-990000D01*
Y1371959D02*
Y1245000D01*
X-926520D01*
X-905360Y1266160D01*
Y1287320D01*
X-926520Y1308479D01*
X-990000D01*
X-926520D01*
X-905360Y1329639D01*
Y1350799D01*
X-926520Y1371959D01*
X-990000D01*
X-740000Y871959D02*
Y745000D01*
X-676520D01*
X-655360Y766160D01*
Y787320D01*
X-676520Y808479D01*
X-740000D01*
X-676520D01*
X-655360Y829639D01*
Y850799D01*
X-676520Y871959D01*
X-740000D01*
X-1240000Y13871959D02*
Y13745000D01*
X-1176520D01*
X-1155360Y13766161D01*
Y13787320D01*
X-1176520Y13808479D01*
X-1240000D01*
X-1176520D01*
X-1155360Y13829640D01*
Y13850800D01*
X-1176520Y13871959D01*
X-1240000D01*
X-1490000Y8371959D02*
Y8245000D01*
X-1426520D01*
X-1405360Y8266160D01*
Y8287320D01*
X-1426520Y8308480D01*
X-1490000D01*
X-1426520D01*
X-1405360Y8329640D01*
Y8350799D01*
X-1426520Y8371959D01*
X-1490000D01*
X-1240000Y6871959D02*
Y6745000D01*
X-1176520D01*
X-1155360Y6766160D01*
Y6787320D01*
X-1176520Y6808480D01*
X-1240000D01*
X-1176520D01*
X-1155360Y6829640D01*
Y6850799D01*
X-1176520Y6871959D01*
X-1240000D01*
X-1490000Y5371959D02*
Y5245000D01*
X-1426520D01*
X-1405360Y5266160D01*
Y5287320D01*
X-1426520Y5308480D01*
X-1490000D01*
X-1426520D01*
X-1405360Y5329640D01*
Y5350799D01*
X-1426520Y5371959D01*
X-1490000D01*
X-1240000Y2871959D02*
Y2745000D01*
X-1176520D01*
X-1155360Y2766160D01*
Y2787320D01*
X-1176520Y2808480D01*
X-1240000D01*
X-1176520D01*
X-1155360Y2829640D01*
Y2850799D01*
X-1176520Y2871959D01*
X-1240000D01*
X-2240000Y12871959D02*
Y12745000D01*
X-2176520D01*
X-2155360Y12766160D01*
Y12787320D01*
X-2176520Y12808479D01*
X-2240000D01*
X-2176520D01*
X-2155360Y12829640D01*
Y12850800D01*
X-2176520Y12871959D01*
X-2240000D01*
X-2740000D02*
Y12745000D01*
X-2676520D01*
X-2655360Y12766160D01*
Y12787320D01*
X-2676520Y12808479D01*
X-2740000D01*
X-2676520D01*
X-2655360Y12829640D01*
Y12850800D01*
X-2676520Y12871959D01*
X-2740000D01*
X-2990000Y11371959D02*
Y11245000D01*
X-2926520D01*
X-2905360Y11266160D01*
Y11287320D01*
X-2926520Y11308480D01*
X-2990000D01*
X-2926520D01*
X-2905360Y11329640D01*
Y11350799D01*
X-2926520Y11371959D01*
X-2990000D01*
X-2740000Y3871959D02*
Y3745000D01*
X-2676520D01*
X-2655360Y3766160D01*
Y3787320D01*
X-2676520Y3808480D01*
X-2740000D01*
X-2676520D01*
X-2655360Y3829640D01*
Y3850799D01*
X-2676520Y3871959D01*
X-2740000D01*
X-2990000Y3371959D02*
Y3245000D01*
X-2926520D01*
X-2905360Y3266160D01*
Y3287320D01*
X-2926520Y3308480D01*
X-2990000D01*
X-2926520D01*
X-2905360Y3329640D01*
Y3350799D01*
X-2926520Y3371959D01*
X-2990000D01*
X-3490000Y12371959D02*
Y12245000D01*
X-3426520D01*
X-3405360Y12266160D01*
Y12287320D01*
X-3426520Y12308480D01*
X-3490000D01*
X-3426520D01*
X-3405360Y12329640D01*
Y12350800D01*
X-3426520Y12371959D01*
X-3490000D01*
Y11371959D02*
Y11245000D01*
X-3426520D01*
X-3405360Y11266160D01*
Y11287320D01*
X-3426520Y11308480D01*
X-3490000D01*
X-3426520D01*
X-3405360Y11329640D01*
Y11350799D01*
X-3426520Y11371959D01*
X-3490000D01*
Y9371959D02*
Y9245000D01*
X-3426520D01*
X-3405360Y9266160D01*
Y9287320D01*
X-3426520Y9308480D01*
X-3490000D01*
X-3426520D01*
X-3405360Y9329640D01*
Y9350799D01*
X-3426520Y9371959D01*
X-3490000D01*
X-3240000Y8871959D02*
Y8745000D01*
X-3176520D01*
X-3155360Y8766160D01*
Y8787320D01*
X-3176520Y8808480D01*
X-3240000D01*
X-3176520D01*
X-3155360Y8829640D01*
Y8850799D01*
X-3176520Y8871959D01*
X-3240000D01*
X-3490000Y8371959D02*
Y8245000D01*
X-3426520D01*
X-3405360Y8266160D01*
Y8287320D01*
X-3426520Y8308480D01*
X-3490000D01*
X-3426520D01*
X-3405360Y8329640D01*
Y8350799D01*
X-3426520Y8371959D01*
X-3490000D01*
X-3240000Y7871959D02*
Y7745000D01*
X-3176520D01*
X-3155360Y7766160D01*
Y7787320D01*
X-3176520Y7808480D01*
X-3240000D01*
X-3176520D01*
X-3155360Y7829640D01*
Y7850799D01*
X-3176520Y7871959D01*
X-3240000D01*
Y6871959D02*
Y6745000D01*
X-3176520D01*
X-3155360Y6766160D01*
Y6787320D01*
X-3176520Y6808480D01*
X-3240000D01*
X-3176520D01*
X-3155360Y6829640D01*
Y6850799D01*
X-3176520Y6871959D01*
X-3240000D01*
X-3490000Y6371959D02*
Y6245000D01*
X-3426520D01*
X-3405360Y6266160D01*
Y6287320D01*
X-3426520Y6308480D01*
X-3490000D01*
X-3426520D01*
X-3405360Y6329640D01*
Y6350799D01*
X-3426520Y6371959D01*
X-3490000D01*
X-3240000Y5871959D02*
Y5745000D01*
X-3176520D01*
X-3155360Y5766160D01*
Y5787320D01*
X-3176520Y5808480D01*
X-3240000D01*
X-3176520D01*
X-3155360Y5829640D01*
Y5850799D01*
X-3176520Y5871959D01*
X-3240000D01*
X-3490000Y5371959D02*
Y5245000D01*
X-3426520D01*
X-3405360Y5266160D01*
Y5287320D01*
X-3426520Y5308480D01*
X-3490000D01*
X-3426520D01*
X-3405360Y5329640D01*
Y5350799D01*
X-3426520Y5371959D01*
X-3490000D01*
X-3240000Y4871959D02*
Y4745000D01*
X-3176520D01*
X-3155360Y4766160D01*
Y4787320D01*
X-3176520Y4808480D01*
X-3240000D01*
X-3176520D01*
X-3155360Y4829640D01*
Y4850799D01*
X-3176520Y4871959D01*
X-3240000D01*
X-3490000Y4371959D02*
Y4245000D01*
X-3426520D01*
X-3405360Y4266160D01*
Y4287320D01*
X-3426520Y4308480D01*
X-3490000D01*
X-3426520D01*
X-3405360Y4329640D01*
Y4350799D01*
X-3426520Y4371959D01*
X-3490000D01*
X-3240000Y3871959D02*
Y3745000D01*
X-3176520D01*
X-3155360Y3766160D01*
Y3787320D01*
X-3176520Y3808480D01*
X-3240000D01*
X-3176520D01*
X-3155360Y3829640D01*
Y3850799D01*
X-3176520Y3871959D01*
X-3240000D01*
X-3990000Y11371959D02*
Y11245000D01*
X-3926520D01*
X-3905360Y11266160D01*
Y11287320D01*
X-3926520Y11308480D01*
X-3990000D01*
X-3926520D01*
X-3905360Y11329640D01*
Y11350799D01*
X-3926520Y11371959D01*
X-3990000D01*
Y8371959D02*
Y8245000D01*
X-3926520D01*
X-3905360Y8266160D01*
Y8287320D01*
X-3926520Y8308480D01*
X-3990000D01*
X-3926520D01*
X-3905360Y8329640D01*
Y8350799D01*
X-3926520Y8371959D01*
X-3990000D01*
X-3740000Y7871959D02*
Y7745000D01*
X-3676520D01*
X-3655360Y7766160D01*
Y7787320D01*
X-3676520Y7808480D01*
X-3740000D01*
X-3676520D01*
X-3655360Y7829640D01*
Y7850799D01*
X-3676520Y7871959D01*
X-3740000D01*
X-3990000Y7371959D02*
Y7245000D01*
X-3926520D01*
X-3905360Y7266160D01*
Y7287320D01*
X-3926520Y7308480D01*
X-3990000D01*
X-3926520D01*
X-3905360Y7329640D01*
Y7350799D01*
X-3926520Y7371959D01*
X-3990000D01*
X-3740000Y6871959D02*
Y6745000D01*
X-3676520D01*
X-3655360Y6766160D01*
Y6787320D01*
X-3676520Y6808480D01*
X-3740000D01*
X-3676520D01*
X-3655360Y6829640D01*
Y6850799D01*
X-3676520Y6871959D01*
X-3740000D01*
X-3990000Y6371959D02*
Y6245000D01*
X-3926520D01*
X-3905360Y6266160D01*
Y6287320D01*
X-3926520Y6308480D01*
X-3990000D01*
X-3926520D01*
X-3905360Y6329640D01*
Y6350799D01*
X-3926520Y6371959D01*
X-3990000D01*
X-3740000Y5871959D02*
Y5745000D01*
X-3676520D01*
X-3655360Y5766160D01*
Y5787320D01*
X-3676520Y5808480D01*
X-3740000D01*
X-3676520D01*
X-3655360Y5829640D01*
Y5850799D01*
X-3676520Y5871959D01*
X-3740000D01*
X-3990000Y5371959D02*
Y5245000D01*
X-3926520D01*
X-3905360Y5266160D01*
Y5287320D01*
X-3926520Y5308480D01*
X-3990000D01*
X-3926520D01*
X-3905360Y5329640D01*
Y5350799D01*
X-3926520Y5371959D01*
X-3990000D01*
X-3740000Y4871959D02*
Y4745000D01*
X-3676520D01*
X-3655360Y4766160D01*
Y4787320D01*
X-3676520Y4808480D01*
X-3740000D01*
X-3676520D01*
X-3655360Y4829640D01*
Y4850799D01*
X-3676520Y4871959D01*
X-3740000D01*
X-3990000Y4371959D02*
Y4245000D01*
X-3926520D01*
X-3905360Y4266160D01*
Y4287320D01*
X-3926520Y4308480D01*
X-3990000D01*
X-3926520D01*
X-3905360Y4329640D01*
Y4350799D01*
X-3926520Y4371959D01*
X-3990000D01*
X-3740000Y3871959D02*
Y3745000D01*
X-3676520D01*
X-3655360Y3766160D01*
Y3787320D01*
X-3676520Y3808480D01*
X-3740000D01*
X-3676520D01*
X-3655360Y3829640D01*
Y3850799D01*
X-3676520Y3871959D01*
X-3740000D01*
X-4240000Y10871959D02*
Y10745000D01*
X-4176520D01*
X-4155360Y10766160D01*
Y10787320D01*
X-4176520Y10808480D01*
X-4240000D01*
X-4176520D01*
X-4155360Y10829640D01*
Y10850799D01*
X-4176520Y10871959D01*
X-4240000D01*
X-4490000Y8371959D02*
Y8245000D01*
X-4426520D01*
X-4405361Y8266160D01*
Y8287320D01*
X-4426520Y8308480D01*
X-4490000D01*
X-4426520D01*
X-4405361Y8329640D01*
Y8350799D01*
X-4426520Y8371959D01*
X-4490000D01*
X-4240000Y7871959D02*
Y7745000D01*
X-4176520D01*
X-4155360Y7766160D01*
Y7787320D01*
X-4176520Y7808480D01*
X-4240000D01*
X-4176520D01*
X-4155360Y7829640D01*
Y7850799D01*
X-4176520Y7871959D01*
X-4240000D01*
X-4490000Y7371959D02*
Y7245000D01*
X-4426520D01*
X-4405361Y7266160D01*
Y7287320D01*
X-4426520Y7308480D01*
X-4490000D01*
X-4426520D01*
X-4405361Y7329640D01*
Y7350799D01*
X-4426520Y7371959D01*
X-4490000D01*
X-4240000Y6871959D02*
Y6745000D01*
X-4176520D01*
X-4155360Y6766160D01*
Y6787320D01*
X-4176520Y6808480D01*
X-4240000D01*
X-4176520D01*
X-4155360Y6829640D01*
Y6850799D01*
X-4176520Y6871959D01*
X-4240000D01*
X-4490000Y6371959D02*
Y6245000D01*
X-4426520D01*
X-4405361Y6266160D01*
Y6287320D01*
X-4426520Y6308480D01*
X-4490000D01*
X-4426520D01*
X-4405361Y6329640D01*
Y6350799D01*
X-4426520Y6371959D01*
X-4490000D01*
X-4240000Y5871959D02*
Y5745000D01*
X-4176520D01*
X-4155360Y5766160D01*
Y5787320D01*
X-4176520Y5808480D01*
X-4240000D01*
X-4176520D01*
X-4155360Y5829640D01*
Y5850799D01*
X-4176520Y5871959D01*
X-4240000D01*
Y4871959D02*
Y4745000D01*
X-4176520D01*
X-4155360Y4766160D01*
Y4787320D01*
X-4176520Y4808480D01*
X-4240000D01*
X-4176520D01*
X-4155360Y4829640D01*
Y4850799D01*
X-4176520Y4871959D01*
X-4240000D01*
X3797139Y14608299D02*
X3775979Y14629459D01*
X3733660D01*
X3712500Y14608299D01*
Y14523660D01*
X3733660Y14502499D01*
X3775979D01*
X3797139Y14523660D01*
X3541739Y14609531D02*
X3520579Y14630690D01*
X3478260D01*
X3457100Y14609531D01*
Y14524892D01*
X3478260Y14503731D01*
X3520579D01*
X3541739Y14524892D01*
X-2748260Y7522899D02*
X-2769420Y7544059D01*
X-2811740D01*
X-2832900Y7522899D01*
Y7438260D01*
X-2811740Y7417100D01*
X-2769420D01*
X-2748260Y7438260D01*
X-174926Y7893733D02*
X-196086Y7914893D01*
X-238406D01*
X-259566Y7893733D01*
Y7809094D01*
X-238406Y7787934D01*
X-196086D01*
X-174926Y7809094D01*
X-2861Y8655799D02*
X-24021Y8676959D01*
X-66340D01*
X-87500Y8655799D01*
Y8571160D01*
X-66340Y8550000D01*
X-24021D01*
X-2861Y8571160D01*
X7289639Y10243699D02*
X7268479Y10264859D01*
X7226160D01*
X7205000Y10243699D01*
Y10159060D01*
X7226160Y10137900D01*
X7268479D01*
X7289639Y10159060D01*
X7148823Y10261615D02*
X7127663Y10282775D01*
X7085344D01*
X7064184Y10261615D01*
Y10176976D01*
X7085344Y10155816D01*
X7127663D01*
X7148823Y10176976D01*
X7277139Y8425799D02*
X7255979Y8446959D01*
X7213660D01*
X7192500Y8425799D01*
Y8341160D01*
X7213660Y8320000D01*
X7255979D01*
X7277139Y8341160D01*
X-2545361Y5933299D02*
X-2566521Y5954459D01*
X-2608840D01*
X-2630000Y5933299D01*
Y5848660D01*
X-2608840Y5827500D01*
X-2566521D01*
X-2545361Y5848660D01*
Y6053299D02*
X-2566521Y6074459D01*
X-2608840D01*
X-2630000Y6053299D01*
Y5968660D01*
X-2608840Y5947500D01*
X-2566521D01*
X-2545361Y5968660D01*
X-2253695Y6053299D02*
X-2274854Y6074459D01*
X-2317174D01*
X-2338334Y6053299D01*
Y5968660D01*
X-2317174Y5947500D01*
X-2274854D01*
X-2253695Y5968660D01*
X-2107861Y6053299D02*
X-2129021Y6074459D01*
X-2171341D01*
X-2192501Y6053299D01*
Y5968660D01*
X-2171341Y5947500D01*
X-2129021D01*
X-2107861Y5968660D01*
X-2399528Y6053299D02*
X-2420688Y6074459D01*
X-2463007D01*
X-2484167Y6053299D01*
Y5968660D01*
X-2463007Y5947500D01*
X-2420688D01*
X-2399528Y5968660D01*
Y5933299D02*
X-2420688Y5954459D01*
X-2463007D01*
X-2484167Y5933299D01*
Y5848660D01*
X-2463007Y5827500D01*
X-2420688D01*
X-2399528Y5848660D01*
X10582139Y5755799D02*
X10560979Y5776959D01*
X10518659D01*
X10497499Y5755799D01*
Y5671160D01*
X10518659Y5650000D01*
X10560979D01*
X10582139Y5671160D01*
X10204639Y5758299D02*
X10183480Y5779459D01*
X10141160D01*
X10120000Y5758299D01*
Y5673660D01*
X10141160Y5652500D01*
X10183480D01*
X10204639Y5673660D01*
X8934639Y8730799D02*
X8913480Y8751959D01*
X8871160D01*
X8850000Y8730799D01*
Y8646160D01*
X8871160Y8625000D01*
X8913480D01*
X8934639Y8646160D01*
X9139639Y8668299D02*
X9118479Y8689459D01*
X9076160D01*
X9055000Y8668299D01*
Y8583660D01*
X9076160Y8562500D01*
X9118479D01*
X9139639Y8583660D01*
X9347139Y8600799D02*
X9325979Y8621959D01*
X9283660D01*
X9262500Y8600799D01*
Y8516160D01*
X9283660Y8495000D01*
X9325979D01*
X9347139Y8516160D01*
X-707861Y2033299D02*
X-729021Y2054459D01*
X-771340D01*
X-792500Y2033299D01*
Y1948660D01*
X-771340Y1927500D01*
X-729021D01*
X-707861Y1948660D01*
X-494319Y1870694D02*
X-515479Y1891854D01*
X-557798D01*
X-578958Y1870694D01*
Y1786055D01*
X-557798Y1764895D01*
X-515479D01*
X-494319Y1786055D01*
X-80361Y2855799D02*
X-101520Y2876959D01*
X-143840D01*
X-165000Y2855799D01*
Y2771160D01*
X-143840Y2750000D01*
X-101520D01*
X-80361Y2771160D01*
X-615361Y3498299D02*
X-636521Y3519459D01*
X-678840D01*
X-700000Y3498299D01*
Y3413660D01*
X-678840Y3392500D01*
X-636521D01*
X-615361Y3413660D01*
X4559639Y12870799D02*
X4538479Y12891959D01*
X4496160D01*
X4475000Y12870799D01*
Y12786160D01*
X4496160Y12765000D01*
X4538479D01*
X4559639Y12786160D01*
X1170040Y10430799D02*
X1148880Y10451959D01*
X1106560D01*
X1085400Y10430799D01*
Y10346160D01*
X1106560Y10325000D01*
X1148880D01*
X1170040Y10346160D01*
X-2747861Y6785799D02*
X-2769021Y6806959D01*
X-2811340D01*
X-2832500Y6785799D01*
Y6701160D01*
X-2811340Y6680000D01*
X-2769021D01*
X-2747861Y6701160D01*
X4869639Y11655799D02*
X4848479Y11676959D01*
X4806159D01*
X4785000Y11655799D01*
Y11571160D01*
X4806159Y11550000D01*
X4848479D01*
X4869639Y11571160D01*
X4717139Y11655799D02*
X4695979Y11676959D01*
X4653659D01*
X4632500Y11655799D01*
Y11571160D01*
X4653659Y11550000D01*
X4695979D01*
X4717139Y11571160D01*
X4564639Y11655799D02*
X4543479Y11676959D01*
X4501160D01*
X4480000Y11655799D01*
Y11571160D01*
X4501160Y11550000D01*
X4543479D01*
X4564639Y11571160D01*
X4412140Y11655799D02*
X4390980Y11676959D01*
X4348660D01*
X4327500Y11655799D01*
Y11571160D01*
X4348660Y11550000D01*
X4390980D01*
X4412140Y11571160D01*
X5174639Y11655799D02*
X5153479Y11676959D01*
X5111159D01*
X5089999Y11655799D01*
Y11571160D01*
X5111159Y11550000D01*
X5153479D01*
X5174639Y11571160D01*
X5022139Y11655799D02*
X5000979Y11676959D01*
X4958659D01*
X4937499Y11655799D01*
Y11571160D01*
X4958659Y11550000D01*
X5000979D01*
X5022139Y11571160D01*
X5044639Y8578299D02*
X5023479Y8599459D01*
X4981160D01*
X4960000Y8578299D01*
Y8493660D01*
X4981160Y8472500D01*
X5023479D01*
X5044639Y8493660D01*
X4929639Y6623299D02*
X4908479Y6644459D01*
X4866160D01*
X4845000Y6623299D01*
Y6538660D01*
X4866160Y6517500D01*
X4908479D01*
X4929639Y6538660D01*
X7692139Y4935799D02*
X7670979Y4956959D01*
X7628660D01*
X7607500Y4935799D01*
Y4851160D01*
X7628660Y4830000D01*
X7670979D01*
X7692139Y4851160D01*
X8404640Y5163299D02*
X8383480Y5184459D01*
X8341160D01*
X8320000Y5163299D01*
Y5078660D01*
X8341160Y5057500D01*
X8383480D01*
X8404640Y5078660D01*
X2762140Y7743299D02*
X2740980Y7764459D01*
X2698660D01*
X2677500Y7743299D01*
Y7658660D01*
X2698660Y7637500D01*
X2740980D01*
X2762140Y7658660D01*
X2079639Y12848299D02*
X2058479Y12869460D01*
X2016160D01*
X1995000Y12848299D01*
Y12763660D01*
X2016160Y12742500D01*
X2058479D01*
X2079639Y12763660D01*
X3212139Y12230799D02*
X3190979Y12251959D01*
X3148660D01*
X3127500Y12230799D01*
Y12146160D01*
X3148660Y12125000D01*
X3190979D01*
X3212139Y12146160D01*
X5302140Y11540799D02*
X5280980Y11561959D01*
X5238660D01*
X5217500Y11540799D01*
Y11456160D01*
X5238660Y11435000D01*
X5280980D01*
X5302140Y11456160D01*
X3379639Y9828299D02*
X3358479Y9849459D01*
X3316160D01*
X3295000Y9828299D01*
Y9743660D01*
X3316160Y9722500D01*
X3358479D01*
X3379639Y9743660D01*
X489639Y13723299D02*
X468479Y13744460D01*
X426160D01*
X405000Y13723299D01*
Y13638660D01*
X426160Y13617500D01*
X468479D01*
X489639Y13638660D01*
X1307139Y13915799D02*
X1285979Y13936958D01*
X1243660D01*
X1222500Y13915799D01*
Y13831160D01*
X1243660Y13810001D01*
X1285979D01*
X1307139Y13831160D01*
X-3205361Y11953299D02*
X-3226521Y11974459D01*
X-3268840D01*
X-3290000Y11953299D01*
Y11868660D01*
X-3268840Y11847500D01*
X-3226521D01*
X-3205361Y11868660D01*
X1677139Y6463299D02*
X1655979Y6484459D01*
X1613660D01*
X1592500Y6463299D01*
Y6378660D01*
X1613660Y6357500D01*
X1655979D01*
X1677139Y6378660D01*
X5217139Y6623299D02*
X5195979Y6644459D01*
X5153660D01*
X5132500Y6623299D01*
Y6538660D01*
X5153660Y6517500D01*
X5195979D01*
X5217139Y6538660D01*
X1417139Y5200799D02*
X1395979Y5221959D01*
X1353660D01*
X1332500Y5200799D01*
Y5116160D01*
X1353660Y5095000D01*
X1395979D01*
X1417139Y5116160D01*
X132139Y2215799D02*
X110979Y2236959D01*
X68660D01*
X47500Y2215799D01*
Y2131160D01*
X68660Y2110000D01*
X110979D01*
X132139Y2131160D01*
X4642139Y6623299D02*
X4620979Y6644459D01*
X4578660D01*
X4557500Y6623299D01*
Y6538660D01*
X4578660Y6517500D01*
X4620979D01*
X4642139Y6538660D01*
X4929639Y8773299D02*
X4908479Y8794459D01*
X4866160D01*
X4845000Y8773299D01*
Y8688660D01*
X4866160Y8667500D01*
X4908479D01*
X4929639Y8688660D01*
X5082139Y8705799D02*
X5060979Y8726959D01*
X5018660D01*
X4997500Y8705799D01*
Y8621160D01*
X5018660Y8600000D01*
X5060979D01*
X5082139Y8621160D01*
X-1607861Y4970799D02*
X-1629021Y4991959D01*
X-1671340D01*
X-1692500Y4970799D01*
Y4886160D01*
X-1671340Y4865000D01*
X-1629021D01*
X-1607861Y4886160D01*
X-1602861Y3843299D02*
X-1624021Y3864459D01*
X-1666340D01*
X-1687500Y3843299D01*
Y3758660D01*
X-1666340Y3737500D01*
X-1624021D01*
X-1602861Y3758660D01*
X1919639Y8263299D02*
X1898479Y8284459D01*
X1856160D01*
X1835000Y8263299D01*
Y8178660D01*
X1856160Y8157500D01*
X1898479D01*
X1919639Y8178660D01*
X1444639Y7785799D02*
X1423479Y7806959D01*
X1381160D01*
X1360000Y7785799D01*
Y7701160D01*
X1381160Y7680000D01*
X1423479D01*
X1444639Y7701160D01*
X1784639Y6573299D02*
X1763479Y6594459D01*
X1721160D01*
X1700000Y6573299D01*
Y6488660D01*
X1721160Y6467500D01*
X1763479D01*
X1784639Y6488660D01*
X2144640Y5715799D02*
X2123480Y5736959D01*
X2081160D01*
X2060000Y5715799D01*
Y5631160D01*
X2081160Y5610000D01*
X2123480D01*
X2144640Y5631160D01*
X8873639Y12290799D02*
X8852479Y12311959D01*
X8810159D01*
X8789000Y12290799D01*
Y12206160D01*
X8810159Y12185000D01*
X8852479D01*
X8873639Y12206160D01*
Y12188299D02*
X8852479Y12209459D01*
X8810159D01*
X8789000Y12188299D01*
Y12103660D01*
X8810159Y12082500D01*
X8852479D01*
X8873639Y12103660D01*
X8987139Y12188299D02*
X8965979Y12209459D01*
X8923659D01*
X8902500Y12188299D01*
Y12103660D01*
X8923659Y12082500D01*
X8965979D01*
X8987139Y12103660D01*
Y12290799D02*
X8965979Y12311959D01*
X8923659D01*
X8902500Y12290799D01*
Y12206160D01*
X8923659Y12185000D01*
X8965979D01*
X8987139Y12206160D01*
X8646639Y12293299D02*
X8625479Y12314459D01*
X8583160D01*
X8562000Y12293299D01*
Y12208660D01*
X8583160Y12187500D01*
X8625479D01*
X8646639Y12208660D01*
Y12190799D02*
X8625479Y12211959D01*
X8583160D01*
X8562000Y12190799D01*
Y12106160D01*
X8583160Y12085000D01*
X8625479D01*
X8646639Y12106160D01*
X8760139Y12190799D02*
X8738979Y12211959D01*
X8696660D01*
X8675500Y12190799D01*
Y12106160D01*
X8696660Y12085000D01*
X8738979D01*
X8760139Y12106160D01*
Y12293299D02*
X8738979Y12314459D01*
X8696660D01*
X8675500Y12293299D01*
Y12208660D01*
X8696660Y12187500D01*
X8738979D01*
X8760139Y12208660D01*
X8533139Y12288299D02*
X8511979Y12309459D01*
X8469660D01*
X8448500Y12288299D01*
Y12203660D01*
X8469660Y12182500D01*
X8511979D01*
X8533139Y12203660D01*
Y12185799D02*
X8511979Y12206959D01*
X8469660D01*
X8448500Y12185799D01*
Y12101160D01*
X8469660Y12080000D01*
X8511979D01*
X8533139Y12101160D01*
X-1200361Y8510799D02*
X-1221521Y8531959D01*
X-1263840D01*
X-1285000Y8510799D01*
Y8426160D01*
X-1263840Y8405000D01*
X-1221521D01*
X-1200361Y8426160D01*
X-810361Y8103299D02*
X-831521Y8124459D01*
X-873840D01*
X-895000Y8103299D01*
Y8018660D01*
X-873840Y7997500D01*
X-831521D01*
X-810361Y8018660D01*
X-360Y9263299D02*
X-21520Y9284459D01*
X-63840D01*
X-85000Y9263299D01*
Y9178660D01*
X-63840Y9157500D01*
X-21520D01*
X-360Y9178660D01*
X7212139Y6475799D02*
X7190980Y6496959D01*
X7148660D01*
X7127500Y6475799D01*
Y6391160D01*
X7148660Y6370000D01*
X7190980D01*
X7212139Y6391160D01*
X6244640Y9643299D02*
X6223480Y9664459D01*
X6181160D01*
X6160000Y9643299D01*
Y9558660D01*
X6181160Y9537500D01*
X6223480D01*
X6244640Y9558660D01*
X6249640Y10048299D02*
X6228480Y10069459D01*
X6186160D01*
X6165000Y10048299D01*
Y9963660D01*
X6186160Y9942500D01*
X6228480D01*
X6249640Y9963660D01*
X-875361Y10465799D02*
X-896521Y10486959D01*
X-938840D01*
X-960000Y10465799D01*
Y10381160D01*
X-938840Y10360000D01*
X-896521D01*
X-875361Y10381160D01*
X7229639Y8293299D02*
X7208479Y8314459D01*
X7166160D01*
X7145000Y8293299D01*
Y8208660D01*
X7166160Y8187500D01*
X7208479D01*
X7229639Y8208660D01*
X-2790361Y10825799D02*
X-2811521Y10846959D01*
X-2853840D01*
X-2875000Y10825799D01*
Y10741160D01*
X-2853840Y10720000D01*
X-2811521D01*
X-2790361Y10741160D01*
X-2930361Y10815799D02*
X-2951521Y10836959D01*
X-2993840D01*
X-3015000Y10815799D01*
Y10731160D01*
X-2993840Y10710000D01*
X-2951521D01*
X-2930361Y10731160D01*
X7287139Y1313299D02*
X7265979Y1334459D01*
X7223660D01*
X7202500Y1313299D01*
Y1228660D01*
X7223660Y1207500D01*
X7265979D01*
X7287139Y1228660D01*
X9774639Y7850799D02*
X9753479Y7871959D01*
X9711159D01*
X9689999Y7850799D01*
Y7766160D01*
X9711159Y7745000D01*
X9753479D01*
X9774639Y7766160D01*
X9632139Y7853299D02*
X9610979Y7874459D01*
X9568659D01*
X9547500Y7853299D01*
Y7768660D01*
X9568659Y7747500D01*
X9610979D01*
X9632139Y7768660D01*
X9774639Y7725799D02*
X9753479Y7746959D01*
X9711159D01*
X9689999Y7725799D01*
Y7641160D01*
X9711159Y7620000D01*
X9753479D01*
X9774639Y7641160D01*
X9632139Y7728299D02*
X9610979Y7749459D01*
X9568659D01*
X9547500Y7728299D01*
Y7643660D01*
X9568659Y7622500D01*
X9610979D01*
X9632139Y7643660D01*
X8602140Y8285799D02*
X8580980Y8306959D01*
X8538660D01*
X8517500Y8285799D01*
Y8201160D01*
X8538660Y8180000D01*
X8580980D01*
X8602140Y8201160D01*
X7264014Y1436424D02*
X7242854Y1457584D01*
X7200535D01*
X7179375Y1436424D01*
Y1351785D01*
X7200535Y1330625D01*
X7242854D01*
X7264014Y1351785D01*
X9489639Y7730799D02*
X9468479Y7751959D01*
X9426159D01*
X9405000Y7730799D01*
Y7646160D01*
X9426159Y7625000D01*
X9468479D01*
X9489639Y7646160D01*
X-682861Y5300799D02*
X-704021Y5321959D01*
X-746340D01*
X-767500Y5300799D01*
Y5216160D01*
X-746340Y5195000D01*
X-704021D01*
X-682861Y5216160D01*
X-737861Y7935799D02*
X-759021Y7956959D01*
X-801340D01*
X-822500Y7935799D01*
Y7851160D01*
X-801340Y7830000D01*
X-759021D01*
X-737861Y7851160D01*
X-3035361Y10243299D02*
X-3056521Y10264459D01*
X-3098840D01*
X-3120000Y10243299D01*
Y10158660D01*
X-3098840Y10137500D01*
X-3056521D01*
X-3035361Y10158660D01*
X5766639Y5967076D02*
X5745479Y5988235D01*
X5703159D01*
X5681999Y5967076D01*
Y5882436D01*
X5703159Y5861277D01*
X5745479D01*
X5766639Y5882436D01*
X4179015Y8568924D02*
X4157855Y8590084D01*
X4115535D01*
X4094375Y8568924D01*
Y8484285D01*
X4115535Y8463125D01*
X4157855D01*
X4179015Y8484285D01*
X3894015Y8841424D02*
X3872855Y8862584D01*
X3830535D01*
X3809375Y8841424D01*
Y8756785D01*
X3830535Y8735625D01*
X3872855D01*
X3894015Y8756785D01*
X1086514Y5688924D02*
X1065354Y5710084D01*
X1023035D01*
X1001875Y5688924D01*
Y5604285D01*
X1023035Y5583125D01*
X1065354D01*
X1086514Y5604285D01*
X1305040Y7868299D02*
X1283880Y7889459D01*
X1241560D01*
X1220400Y7868299D01*
Y7783660D01*
X1241560Y7762500D01*
X1283880D01*
X1305040Y7783660D01*
X4099014Y8478924D02*
X4077854Y8500084D01*
X4035534D01*
X4014375Y8478924D01*
Y8394285D01*
X4035534Y8373125D01*
X4077854D01*
X4099014Y8394285D01*
X3976514Y8601424D02*
X3955354Y8622584D01*
X3913035D01*
X3891875Y8601424D01*
Y8516785D01*
X3913035Y8495625D01*
X3955354D01*
X3976514Y8516785D01*
X2784014Y8112674D02*
X2762855Y8133834D01*
X2720535D01*
X2699375Y8112674D01*
Y8028035D01*
X2720535Y8006875D01*
X2762855D01*
X2784014Y8028035D01*
X2069639Y10310799D02*
X2048480Y10331959D01*
X2006160D01*
X1985000Y10310799D01*
Y10226160D01*
X2006160Y10205000D01*
X2048480D01*
X2069639Y10226160D01*
X2297139Y7730799D02*
X2275979Y7751959D01*
X2233660D01*
X2212500Y7730799D01*
Y7646160D01*
X2233660Y7625000D01*
X2275979D01*
X2297139Y7646160D01*
X3759639Y7665799D02*
X3738479Y7686959D01*
X3696160D01*
X3675000Y7665799D01*
Y7581160D01*
X3696160Y7560000D01*
X3738479D01*
X3759639Y7581160D01*
X3854639Y7568299D02*
X3833480Y7589459D01*
X3791160D01*
X3770000Y7568299D01*
Y7483660D01*
X3791160Y7462500D01*
X3833480D01*
X3854639Y7483660D01*
X3677139Y7745799D02*
X3655979Y7766959D01*
X3613660D01*
X3592500Y7745799D01*
Y7661160D01*
X3613660Y7640000D01*
X3655979D01*
X3677139Y7661160D01*
X6192140Y11345799D02*
X6170980Y11366959D01*
X6128660D01*
X6107500Y11345799D01*
Y11261160D01*
X6128660Y11240000D01*
X6170980D01*
X6192140Y11261160D01*
X5827140Y9250799D02*
X5805980Y9271959D01*
X5763660D01*
X5742500Y9250799D01*
Y9166160D01*
X5763660Y9145000D01*
X5805980D01*
X5827140Y9166160D01*
X6434639Y9653299D02*
X6413479Y9674459D01*
X6371160D01*
X6350000Y9653299D01*
Y9568660D01*
X6371160Y9547500D01*
X6413479D01*
X6434639Y9568660D01*
X6432139Y9878299D02*
X6410979Y9899459D01*
X6368660D01*
X6347500Y9878299D01*
Y9793660D01*
X6368660Y9772500D01*
X6410979D01*
X6432139Y9793660D01*
X7139640Y5843299D02*
X7118480Y5864459D01*
X7076160D01*
X7055000Y5843299D01*
Y5758660D01*
X7076160Y5737500D01*
X7118480D01*
X7139640Y5758660D01*
X6327140Y11300799D02*
X6305980Y11321959D01*
X6263660D01*
X6242500Y11300799D01*
Y11216160D01*
X6263660Y11195000D01*
X6305980D01*
X6327140Y11216160D01*
X4662140Y12543299D02*
X4640980Y12564459D01*
X4598660D01*
X4577500Y12543299D01*
Y12458660D01*
X4598660Y12437500D01*
X4640980D01*
X4662140Y12458660D01*
X5647140Y9873299D02*
X5625980Y9894459D01*
X5583660D01*
X5562500Y9873299D01*
Y9788660D01*
X5583660Y9767500D01*
X5625980D01*
X5647140Y9788660D01*
X5802140Y9890799D02*
X5780980Y9911959D01*
X5738660D01*
X5717500Y9890799D01*
Y9806160D01*
X5738660Y9785000D01*
X5780980D01*
X5802140Y9806160D01*
X5907139Y9953299D02*
X5885979Y9974459D01*
X5843660D01*
X5822500Y9953299D01*
Y9868660D01*
X5843660Y9847500D01*
X5885979D01*
X5907139Y9868660D01*
X5912139Y9638299D02*
X5890979Y9659459D01*
X5848660D01*
X5827500Y9638299D01*
Y9553660D01*
X5848660Y9532500D01*
X5890979D01*
X5912139Y9553660D01*
X6018442Y9437102D02*
X5997282Y9458262D01*
X5954963D01*
X5933803Y9437102D01*
Y9352463D01*
X5954963Y9331303D01*
X5997282D01*
X6018442Y9352463D01*
X5187139Y10533299D02*
X5165980Y10554459D01*
X5123660D01*
X5102500Y10533299D01*
Y10448660D01*
X5123660Y10427500D01*
X5165980D01*
X5187139Y10448660D01*
X5074639Y10405799D02*
X5053479Y10426959D01*
X5011160D01*
X4990000Y10405799D01*
Y10321160D01*
X5011160Y10300000D01*
X5053479D01*
X5074639Y10321160D01*
X5462139Y9595799D02*
X5440979Y9616959D01*
X5398660D01*
X5377500Y9595799D01*
Y9511160D01*
X5398660Y9490000D01*
X5440979D01*
X5462139Y9511160D01*
X2837139Y8515799D02*
X2815979Y8536959D01*
X2773660D01*
X2752500Y8515799D01*
Y8431160D01*
X2773660Y8410000D01*
X2815979D01*
X2837139Y8431160D01*
X2119639Y8018299D02*
X2098479Y8039459D01*
X2056160D01*
X2035000Y8018299D01*
Y7933660D01*
X2056160Y7912500D01*
X2098479D01*
X2119639Y7933660D01*
X2037139Y8135799D02*
X2015979Y8156959D01*
X1973660D01*
X1952500Y8135799D01*
Y8051160D01*
X1973660Y8030000D01*
X2015979D01*
X2037139Y8051160D01*
X2839640Y9283299D02*
X2818480Y9304459D01*
X2776160D01*
X2755000Y9283299D01*
Y9198660D01*
X2776160Y9177500D01*
X2818480D01*
X2839640Y9198660D01*
X682139Y12915799D02*
X660979Y12936958D01*
X618660D01*
X597500Y12915799D01*
Y12831160D01*
X618660Y12810001D01*
X660979D01*
X682139Y12831160D01*
X3549639Y7873299D02*
X3528479Y7894459D01*
X3486160D01*
X3465000Y7873299D01*
Y7788660D01*
X3486160Y7767500D01*
X3528479D01*
X3549639Y7788660D01*
X3449639Y7978299D02*
X3428479Y7999459D01*
X3386160D01*
X3365000Y7978299D01*
Y7893660D01*
X3386160Y7872500D01*
X3428479D01*
X3449639Y7893660D01*
X2592139Y6875799D02*
X2570979Y6896959D01*
X2528660D01*
X2507500Y6875799D01*
Y6791160D01*
X2528660Y6770000D01*
X2570979D01*
X2592139Y6791160D01*
X2579639Y7973299D02*
X2558480Y7994459D01*
X2516160D01*
X2495000Y7973299D01*
Y7888660D01*
X2516160Y7867500D01*
X2558480D01*
X2579639Y7888660D01*
X4834640Y10533299D02*
X4813480Y10554459D01*
X4771160D01*
X4750000Y10533299D01*
Y10448660D01*
X4771160Y10427500D01*
X4813480D01*
X4834640Y10448660D01*
X2077140Y9288299D02*
X2055980Y9309459D01*
X2013660D01*
X1992500Y9288299D01*
Y9203660D01*
X2013660Y9182500D01*
X2055980D01*
X2077140Y9203660D01*
X2317140Y9033299D02*
X2295980Y9054459D01*
X2253660D01*
X2232500Y9033299D01*
Y8948660D01*
X2253660Y8927500D01*
X2295980D01*
X2317140Y8948660D01*
X4812139Y13810799D02*
X4790979Y13831960D01*
X4748660D01*
X4727500Y13810799D01*
Y13726160D01*
X4748660Y13705000D01*
X4790979D01*
X4812139Y13726160D01*
X4909639Y13900800D02*
X4888479Y13921959D01*
X4846160D01*
X4825000Y13900800D01*
Y13816161D01*
X4846160Y13795000D01*
X4888479D01*
X4909639Y13816161D01*
X5012139Y13810799D02*
X4990979Y13831960D01*
X4948660D01*
X4927500Y13810799D01*
Y13726160D01*
X4948660Y13705000D01*
X4990979D01*
X5012139Y13726160D01*
X1009640Y9838299D02*
X988480Y9859459D01*
X946160D01*
X925000Y9838299D01*
Y9753660D01*
X946160Y9732500D01*
X988480D01*
X1009640Y9753660D01*
X1199640Y9440799D02*
X1178480Y9461959D01*
X1136160D01*
X1115000Y9440799D01*
Y9356160D01*
X1136160Y9335000D01*
X1178480D01*
X1199640Y9356160D01*
X5797140Y5715799D02*
X5775980Y5736959D01*
X5733660D01*
X5712500Y5715799D01*
Y5631160D01*
X5733660Y5610000D01*
X5775980D01*
X5797140Y5631160D01*
X5799640Y5450799D02*
X5778480Y5471959D01*
X5736160D01*
X5715000Y5450799D01*
Y5366160D01*
X5736160Y5345000D01*
X5778480D01*
X5799640Y5366160D01*
X-379958Y7671201D02*
X-401118Y7692361D01*
X-443438D01*
X-464598Y7671201D01*
Y7586562D01*
X-443438Y7565402D01*
X-401118D01*
X-379958Y7586562D01*
X5749640Y8120799D02*
X5728480Y8141959D01*
X5686160D01*
X5665000Y8120799D01*
Y8036160D01*
X5686160Y8015000D01*
X5728480D01*
X5749640Y8036160D01*
X5504640Y7110799D02*
X5483480Y7131959D01*
X5441160D01*
X5420000Y7110799D01*
Y7026160D01*
X5441160Y7005000D01*
X5483480D01*
X5504640Y7026160D01*
X5504639Y6623299D02*
X5483480Y6644459D01*
X5441160D01*
X5420000Y6623299D01*
Y6538660D01*
X5441160Y6517500D01*
X5483480D01*
X5504639Y6538660D01*
X-962860Y3355799D02*
X-984020Y3376959D01*
X-1026340D01*
X-1047500Y3355799D01*
Y3271160D01*
X-1026340Y3250000D01*
X-984020D01*
X-962860Y3271160D01*
X-360Y12938300D02*
X-21520Y12959459D01*
X-63840D01*
X-85000Y12938300D01*
Y12853661D01*
X-63840Y12832500D01*
X-21520D01*
X-360Y12853661D01*
X-150361Y12785799D02*
X-171521Y12806960D01*
X-213840D01*
X-235000Y12785799D01*
Y12701160D01*
X-213840Y12680000D01*
X-171521D01*
X-150361Y12701160D01*
X1317139Y10785799D02*
X1295979Y10806959D01*
X1253660D01*
X1232500Y10785799D01*
Y10701160D01*
X1253660Y10680000D01*
X1295979D01*
X1317139Y10701160D01*
X-3170360Y10243299D02*
X-3191520Y10264459D01*
X-3233840D01*
X-3255000Y10243299D01*
Y10158660D01*
X-3233840Y10137500D01*
X-3191520D01*
X-3170360Y10158660D01*
X-3172860Y9828299D02*
X-3194020Y9849459D01*
X-3236340D01*
X-3257500Y9828299D01*
Y9743660D01*
X-3236340Y9722500D01*
X-3194020D01*
X-3172860Y9743660D01*
X8687140Y8410799D02*
X8665980Y8431959D01*
X8623660D01*
X8602500Y8410799D01*
Y8326160D01*
X8623660Y8305000D01*
X8665980D01*
X8687140Y8326160D01*
X-730360Y8535799D02*
X-751520Y8556959D01*
X-793840D01*
X-815000Y8535799D01*
Y8451160D01*
X-793840Y8430000D01*
X-751520D01*
X-730360Y8451160D01*
X-755360Y8725799D02*
X-776520Y8746959D01*
X-818840D01*
X-840000Y8725799D01*
Y8641160D01*
X-818840Y8620000D01*
X-776520D01*
X-755360Y8641160D01*
X7679639Y10455799D02*
X7658479Y10476959D01*
X7616160D01*
X7595000Y10455799D01*
Y10371160D01*
X7616160Y10350000D01*
X7658479D01*
X7679639Y10371160D01*
X-1105361Y8235799D02*
X-1126520Y8256959D01*
X-1168840D01*
X-1190000Y8235799D01*
Y8151160D01*
X-1168840Y8130000D01*
X-1126520D01*
X-1105361Y8151160D01*
X6252139Y6770799D02*
X6230979Y6791959D01*
X6188660D01*
X6167500Y6770799D01*
Y6686160D01*
X6188660Y6665000D01*
X6230979D01*
X6252139Y6686160D01*
X-1180361Y8810799D02*
X-1201521Y8831959D01*
X-1243840D01*
X-1265000Y8810799D01*
Y8726160D01*
X-1243840Y8705000D01*
X-1201521D01*
X-1180361Y8726160D01*
X-2107861Y5933299D02*
X-2129021Y5954459D01*
X-2171341D01*
X-2192501Y5933299D01*
Y5848660D01*
X-2171341Y5827500D01*
X-2129021D01*
X-2107861Y5848660D01*
X10919639Y10295799D02*
X10898479Y10316959D01*
X10856160D01*
X10835000Y10295799D01*
Y10211160D01*
X10856160Y10190000D01*
X10898479D01*
X10919639Y10211160D01*
X10502140Y11155799D02*
X10480980Y11176959D01*
X10438660D01*
X10417500Y11155799D01*
Y11071160D01*
X10438660Y11050000D01*
X10480980D01*
X10502140Y11071160D01*
X8737139Y10630799D02*
X8715980Y10651959D01*
X8673660D01*
X8652500Y10630799D01*
Y10546160D01*
X8673660Y10525000D01*
X8715980D01*
X8737139Y10546160D01*
X8422139Y10723299D02*
X8400979Y10744459D01*
X8358660D01*
X8337500Y10723299D01*
Y10638660D01*
X8358660Y10617500D01*
X8400979D01*
X8422139Y10638660D01*
X8419639Y12185799D02*
X8398480Y12206959D01*
X8356160D01*
X8335000Y12185799D01*
Y12101160D01*
X8356160Y12080000D01*
X8398480D01*
X8419639Y12101160D01*
Y12288299D02*
X8398480Y12309459D01*
X8356160D01*
X8335000Y12288299D01*
Y12203660D01*
X8356160Y12182500D01*
X8398480D01*
X8419639Y12203660D01*
X-2253695Y5933299D02*
X-2274854Y5954459D01*
X-2317174D01*
X-2338334Y5933299D01*
Y5848660D01*
X-2317174Y5827500D01*
X-2274854D01*
X-2253695Y5848660D01*
X-2077860Y7315799D02*
X-2099020Y7336959D01*
X-2141340D01*
X-2162500Y7315799D01*
Y7231160D01*
X-2141340Y7210000D01*
X-2099020D01*
X-2077860Y7231160D01*
X-1875360Y7315799D02*
X-1896520Y7336959D01*
X-1938840D01*
X-1960000Y7315799D01*
Y7231160D01*
X-1938840Y7210000D01*
X-1896520D01*
X-1875360Y7231160D01*
X-1672861Y7315799D02*
X-1694020Y7336959D01*
X-1736340D01*
X-1757500Y7315799D01*
Y7231160D01*
X-1736340Y7210000D01*
X-1694020D01*
X-1672861Y7231160D01*
X-1470361Y7315799D02*
X-1491521Y7336959D01*
X-1533840D01*
X-1555000Y7315799D01*
Y7231160D01*
X-1533840Y7210000D01*
X-1491521D01*
X-1470361Y7231160D01*
X10204639Y5898299D02*
X10183480Y5919459D01*
X10141160D01*
X10120000Y5898299D01*
Y5813660D01*
X10141160Y5792500D01*
X10183480D01*
X10204639Y5813660D01*
X10393389Y5898299D02*
X10372229Y5919459D01*
X10329909D01*
X10308750Y5898299D01*
Y5813660D01*
X10329909Y5792500D01*
X10372229D01*
X10393389Y5813660D01*
X10582139Y5895799D02*
X10560979Y5916959D01*
X10518659D01*
X10497499Y5895799D01*
Y5811160D01*
X10518659Y5790000D01*
X10560979D01*
X10582139Y5811160D01*
X10393389Y5755799D02*
X10372229Y5776959D01*
X10329909D01*
X10308750Y5755799D01*
Y5671160D01*
X10329909Y5650000D01*
X10372229D01*
X10393389Y5671160D01*
X10582139Y5613299D02*
X10560979Y5634459D01*
X10518659D01*
X10497499Y5613299D01*
Y5528660D01*
X10518659Y5507500D01*
X10560979D01*
X10582139Y5528660D01*
X10393389Y5618299D02*
X10372229Y5639459D01*
X10329909D01*
X10308750Y5618299D01*
Y5533660D01*
X10329909Y5512500D01*
X10372229D01*
X10393389Y5533660D01*
X10204639Y5618299D02*
X10183480Y5639459D01*
X10141160D01*
X10120000Y5618299D01*
Y5533660D01*
X10141160Y5512500D01*
X10183480D01*
X10204639Y5533660D01*
X9489639Y7855799D02*
X9468479Y7876959D01*
X9426159D01*
X9405000Y7855799D01*
Y7771160D01*
X9426159Y7750000D01*
X9468479D01*
X9489639Y7771160D01*
X9347139Y7855799D02*
X9325979Y7876959D01*
X9283660D01*
X9262500Y7855799D01*
Y7771160D01*
X9283660Y7750000D01*
X9325979D01*
X9347139Y7771160D01*
Y7730799D02*
X9325979Y7751959D01*
X9283660D01*
X9262500Y7730799D01*
Y7646160D01*
X9283660Y7625000D01*
X9325979D01*
X9347139Y7646160D01*
X8849639Y7053299D02*
X8828479Y7074459D01*
X8786160D01*
X8765000Y7053299D01*
Y6968660D01*
X8786160Y6947500D01*
X8828479D01*
X8849639Y6968660D01*
X8975889Y7053299D02*
X8954729Y7074459D01*
X8912409D01*
X8891250Y7053299D01*
Y6968660D01*
X8912409Y6947500D01*
X8954729D01*
X8975889Y6968660D01*
X9102139Y7048299D02*
X9080979Y7069459D01*
X9038659D01*
X9017499Y7048299D01*
Y6963660D01*
X9038659Y6942500D01*
X9080979D01*
X9102139Y6963660D01*
X-1627861Y7850799D02*
X-1649021Y7871959D01*
X-1691340D01*
X-1712500Y7850799D01*
Y7766160D01*
X-1691340Y7745000D01*
X-1649021D01*
X-1627861Y7766160D01*
X-1777861Y8210799D02*
X-1799021Y8231959D01*
X-1841340D01*
X-1862500Y8210799D01*
Y8126160D01*
X-1841340Y8105000D01*
X-1799021D01*
X-1777861Y8126160D01*
X-3535361Y11838299D02*
X-3556521Y11859459D01*
X-3598840D01*
X-3620000Y11838299D01*
Y11753660D01*
X-3598840Y11732500D01*
X-3556521D01*
X-3535361Y11753660D01*
Y10808299D02*
X-3556521Y10829459D01*
X-3598840D01*
X-3620000Y10808299D01*
Y10723660D01*
X-3598840Y10702500D01*
X-3556521D01*
X-3535361Y10723660D01*
X-3710361Y11190799D02*
X-3731521Y11211959D01*
X-3773840D01*
X-3795000Y11190799D01*
Y11106160D01*
X-3773840Y11085000D01*
X-3731521D01*
X-3710361Y11106160D01*
Y10808299D02*
X-3731521Y10829459D01*
X-3773840D01*
X-3795000Y10808299D01*
Y10723660D01*
X-3773840Y10702500D01*
X-3731521D01*
X-3710361Y10723660D01*
X8669640Y7475799D02*
X8648480Y7496959D01*
X8606160D01*
X8585000Y7475799D01*
Y7391160D01*
X8606160Y7370000D01*
X8648480D01*
X8669640Y7391160D01*
X8659640Y7018299D02*
X8638480Y7039459D01*
X8596160D01*
X8575000Y7018299D01*
Y6933660D01*
X8596160Y6912500D01*
X8638480D01*
X8659640Y6933660D01*
X8417139Y11183299D02*
X8395979Y11204459D01*
X8353660D01*
X8332500Y11183299D01*
Y11098660D01*
X8353660Y11077500D01*
X8395979D01*
X8417139Y11098660D01*
X-3247860Y10808299D02*
X-3269020Y10829459D01*
X-3311340D01*
X-3332500Y10808299D01*
Y10723660D01*
X-3311340Y10702500D01*
X-3269020D01*
X-3247860Y10723660D01*
D149*
X6828412Y3439272D02*
G03*
X6828412Y3439272I-50800J0D01*
G01*
X6574412D02*
G03*
X6574412Y3439272I-50800J0D01*
G01*
X6828412Y3693272D02*
G03*
X6828412Y3693272I-50800J0D01*
G01*
X6574412D02*
G03*
X6574412Y3693272I-50800J0D01*
G01*
X6828412Y3947272D02*
G03*
X6828412Y3947272I-50800J0D01*
G01*
X6574412D02*
G03*
X6574412Y3947272I-50800J0D01*
G01*
X6828412Y4201272D02*
G03*
X6828412Y4201272I-50800J0D01*
G01*
X6574412D02*
G03*
X6574412Y4201272I-50800J0D01*
G01*
X6828412Y4455272D02*
G03*
X6828412Y4455272I-50800J0D01*
G01*
X6574412D02*
G03*
X6574412Y4455272I-50800J0D01*
G01*
X6828412Y4709272D02*
G03*
X6828412Y4709272I-50800J0D01*
G01*
X6574412D02*
G03*
X6574412Y4709272I-50800J0D01*
G01*
X6828412Y4963272D02*
G03*
X6828412Y4963272I-50800J0D01*
G01*
X6574412D02*
G03*
X6574412Y4963272I-50800J0D01*
G01*
X6828412Y5217272D02*
G03*
X6828412Y5217272I-50800J0D01*
G01*
X6574412D02*
G03*
X6574412Y5217272I-50800J0D01*
G01*
X6828412Y5471272D02*
G03*
X6828412Y5471272I-50800J0D01*
G01*
X6574412D02*
G03*
X6574412Y5471272I-50800J0D01*
G01*
X6828412Y5725272D02*
G03*
X6828412Y5725272I-50800J0D01*
G01*
X6574412D02*
G03*
X6574412Y5725272I-50800J0D01*
G01*
X6828412Y5979272D02*
G03*
X6828412Y5979272I-50800J0D01*
G01*
X6574412D02*
G03*
X6574412Y5979272I-50800J0D01*
G01*
X6828412Y6233272D02*
G03*
X6828412Y6233272I-50800J0D01*
G01*
X6574412D02*
G03*
X6574412Y6233272I-50800J0D01*
G01*
X6828412Y6487272D02*
G03*
X6828412Y6487272I-50800J0D01*
G01*
X6574412D02*
G03*
X6574412Y6487272I-50800J0D01*
G01*
X6828412Y6741272D02*
G03*
X6828412Y6741272I-50800J0D01*
G01*
X6574412D02*
G03*
X6574412Y6741272I-50800J0D01*
G01*
X6828412Y6995272D02*
G03*
X6828412Y6995272I-50800J0D01*
G01*
X6574412D02*
G03*
X6574412Y6995272I-50800J0D01*
G01*
X6828412Y7249272D02*
G03*
X6828412Y7249272I-50800J0D01*
G01*
X6574412D02*
G03*
X6574412Y7249272I-50800J0D01*
G01*
X6828412Y7503272D02*
G03*
X6828412Y7503272I-50800J0D01*
G01*
X6574412D02*
G03*
X6574412Y7503272I-50800J0D01*
G01*
X6828412Y7757272D02*
G03*
X6828412Y7757272I-50800J0D01*
G01*
X6574412D02*
G03*
X6574412Y7757272I-50800J0D01*
G01*
X6828412Y8011272D02*
G03*
X6828412Y8011272I-50800J0D01*
G01*
X6574412D02*
G03*
X6574412Y8011272I-50800J0D01*
G01*
X6828412Y8265272D02*
G03*
X6828412Y8265272I-50800J0D01*
G01*
X6574412D02*
G03*
X6574412Y8265272I-50800J0D01*
G01*
X6828412Y8519272D02*
G03*
X6828412Y8519272I-50800J0D01*
G01*
X6574412D02*
G03*
X6574412Y8519272I-50800J0D01*
G01*
X6828412Y8773272D02*
G03*
X6828412Y8773272I-50800J0D01*
G01*
X6574412D02*
G03*
X6574412Y8773272I-50800J0D01*
G01*
X6828412Y9027272D02*
G03*
X6828412Y9027272I-50800J0D01*
G01*
X6574412D02*
G03*
X6574412Y9027272I-50800J0D01*
G01*
X6828412Y9281272D02*
G03*
X6828412Y9281272I-50800J0D01*
G01*
X6574412D02*
G03*
X6574412Y9281272I-50800J0D01*
G01*
X6828412Y9535272D02*
G03*
X6828412Y9535272I-50800J0D01*
G01*
X6574412D02*
G03*
X6574412Y9535272I-50800J0D01*
G01*
X6828412Y9789272D02*
G03*
X6828412Y9789272I-50800J0D01*
G01*
X6574412D02*
G03*
X6574412Y9789272I-50800J0D01*
G01*
X6828412Y10043272D02*
G03*
X6828412Y10043272I-50800J0D01*
G01*
X6574412D02*
G03*
X6574412Y10043272I-50800J0D01*
G01*
X6828412Y10297272D02*
G03*
X6828412Y10297272I-50800J0D01*
G01*
X6574412D02*
G03*
X6574412Y10297272I-50800J0D01*
G01*
X6828412Y10551272D02*
G03*
X6828412Y10551272I-50800J0D01*
G01*
X6574412D02*
G03*
X6574412Y10551272I-50800J0D01*
G01*
X6828412Y10805272D02*
G03*
X6828412Y10805272I-50800J0D01*
G01*
X6574412D02*
G03*
X6574412Y10805272I-50800J0D01*
G01*
X6828412Y11059272D02*
G03*
X6828412Y11059272I-50800J0D01*
G01*
X6574412D02*
G03*
X6574412Y11059272I-50800J0D01*
G01*
X6828412Y11313272D02*
G03*
X6828412Y11313272I-50800J0D01*
G01*
X6574412D02*
G03*
X6574412Y11313272I-50800J0D01*
G01*
X6828412Y11567272D02*
G03*
X6828412Y11567272I-50800J0D01*
G01*
X6574412D02*
G03*
X6574412Y11567272I-50800J0D01*
G01*
X6828412Y11821272D02*
G03*
X6828412Y11821272I-50800J0D01*
G01*
X6574412D02*
G03*
X6574412Y11821272I-50800J0D01*
G01*
X6828412Y12075272D02*
G03*
X6828412Y12075272I-50800J0D01*
G01*
X6574412D02*
G03*
X6574412Y12075272I-50800J0D01*
G01*
X732412Y3441273D02*
G03*
X732412Y3441273I-50800J0D01*
G01*
X478412D02*
G03*
X478412Y3441273I-50800J0D01*
G01*
X6828412Y12329272D02*
G03*
X6828412Y12329272I-50800J0D01*
G01*
X6574412D02*
G03*
X6574412Y12329272I-50800J0D01*
G01*
X732412Y3695273D02*
G03*
X732412Y3695273I-50800J0D01*
G01*
X478412D02*
G03*
X478412Y3695273I-50800J0D01*
G01*
X732412Y3949273D02*
G03*
X732412Y3949273I-50800J0D01*
G01*
X478412D02*
G03*
X478412Y3949273I-50800J0D01*
G01*
X732412Y4203273D02*
G03*
X732412Y4203273I-50800J0D01*
G01*
X478412D02*
G03*
X478412Y4203273I-50800J0D01*
G01*
X732412Y4457273D02*
G03*
X732412Y4457273I-50800J0D01*
G01*
X478412D02*
G03*
X478412Y4457273I-50800J0D01*
G01*
X732412Y4711273D02*
G03*
X732412Y4711273I-50800J0D01*
G01*
X478412D02*
G03*
X478412Y4711273I-50800J0D01*
G01*
X732412Y4965273D02*
G03*
X732412Y4965273I-50800J0D01*
G01*
X478412D02*
G03*
X478412Y4965273I-50800J0D01*
G01*
X732412Y5219273D02*
G03*
X732412Y5219273I-50800J0D01*
G01*
X478412D02*
G03*
X478412Y5219273I-50800J0D01*
G01*
X732412Y5473273D02*
G03*
X732412Y5473273I-50800J0D01*
G01*
X478412D02*
G03*
X478412Y5473273I-50800J0D01*
G01*
X732412Y5727273D02*
G03*
X732412Y5727273I-50800J0D01*
G01*
X478412D02*
G03*
X478412Y5727273I-50800J0D01*
G01*
X732412Y5981273D02*
G03*
X732412Y5981273I-50800J0D01*
G01*
X478412D02*
G03*
X478412Y5981273I-50800J0D01*
G01*
X732412Y6235273D02*
G03*
X732412Y6235273I-50800J0D01*
G01*
X478412D02*
G03*
X478412Y6235273I-50800J0D01*
G01*
X732412Y6489273D02*
G03*
X732412Y6489273I-50800J0D01*
G01*
X478412D02*
G03*
X478412Y6489273I-50800J0D01*
G01*
X732412Y6743273D02*
G03*
X732412Y6743273I-50800J0D01*
G01*
X478412D02*
G03*
X478412Y6743273I-50800J0D01*
G01*
X732412Y6997273D02*
G03*
X732412Y6997273I-50800J0D01*
G01*
X478412D02*
G03*
X478412Y6997273I-50800J0D01*
G01*
X732412Y7251273D02*
G03*
X732412Y7251273I-50800J0D01*
G01*
X478412D02*
G03*
X478412Y7251273I-50800J0D01*
G01*
X732412Y7505273D02*
G03*
X732412Y7505273I-50800J0D01*
G01*
X478412D02*
G03*
X478412Y7505273I-50800J0D01*
G01*
X732412Y7759273D02*
G03*
X732412Y7759273I-50800J0D01*
G01*
X478412D02*
G03*
X478412Y7759273I-50800J0D01*
G01*
X732412Y8013273D02*
G03*
X732412Y8013273I-50800J0D01*
G01*
X478412D02*
G03*
X478412Y8013273I-50800J0D01*
G01*
X732412Y8267273D02*
G03*
X732412Y8267273I-50800J0D01*
G01*
X478412D02*
G03*
X478412Y8267273I-50800J0D01*
G01*
X732412Y8521273D02*
G03*
X732412Y8521273I-50800J0D01*
G01*
X478412D02*
G03*
X478412Y8521273I-50800J0D01*
G01*
X732412Y8775273D02*
G03*
X732412Y8775273I-50800J0D01*
G01*
X478412D02*
G03*
X478412Y8775273I-50800J0D01*
G01*
X732412Y9029273D02*
G03*
X732412Y9029273I-50800J0D01*
G01*
X478412D02*
G03*
X478412Y9029273I-50800J0D01*
G01*
X732412Y9283273D02*
G03*
X732412Y9283273I-50800J0D01*
G01*
X478412D02*
G03*
X478412Y9283273I-50800J0D01*
G01*
X732412Y9537273D02*
G03*
X732412Y9537273I-50800J0D01*
G01*
X478412D02*
G03*
X478412Y9537273I-50800J0D01*
G01*
X732412Y9791273D02*
G03*
X732412Y9791273I-50800J0D01*
G01*
X478412D02*
G03*
X478412Y9791273I-50800J0D01*
G01*
X732412Y10045273D02*
G03*
X732412Y10045273I-50800J0D01*
G01*
X478412D02*
G03*
X478412Y10045273I-50800J0D01*
G01*
X732412Y10299273D02*
G03*
X732412Y10299273I-50800J0D01*
G01*
X478412D02*
G03*
X478412Y10299273I-50800J0D01*
G01*
X732412Y10553273D02*
G03*
X732412Y10553273I-50800J0D01*
G01*
X478412D02*
G03*
X478412Y10553273I-50800J0D01*
G01*
X732412Y10807273D02*
G03*
X732412Y10807273I-50800J0D01*
G01*
X478412D02*
G03*
X478412Y10807273I-50800J0D01*
G01*
X732412Y11061273D02*
G03*
X732412Y11061273I-50800J0D01*
G01*
X478412D02*
G03*
X478412Y11061273I-50800J0D01*
G01*
X732412Y11315273D02*
G03*
X732412Y11315273I-50800J0D01*
G01*
X478412D02*
G03*
X478412Y11315273I-50800J0D01*
G01*
X732412Y11569273D02*
G03*
X732412Y11569273I-50800J0D01*
G01*
X478412D02*
G03*
X478412Y11569273I-50800J0D01*
G01*
X732412Y11823273D02*
G03*
X732412Y11823273I-50800J0D01*
G01*
X478412D02*
G03*
X478412Y11823273I-50800J0D01*
G01*
X732412Y12077273D02*
G03*
X732412Y12077273I-50800J0D01*
G01*
X478412D02*
G03*
X478412Y12077273I-50800J0D01*
G01*
X732412Y12331273D02*
G03*
X732412Y12331273I-50800J0D01*
G01*
X478412D02*
G03*
X478412Y12331273I-50800J0D01*
G01*
D150*
X6808092Y3439272D02*
G03*
X6808092Y3439272I-30480J0D01*
G01*
X6554092D02*
G03*
X6554092Y3439272I-30480J0D01*
G01*
X6808092Y3693272D02*
G03*
X6808092Y3693272I-30480J0D01*
G01*
X6554092D02*
G03*
X6554092Y3693272I-30480J0D01*
G01*
X6808092Y3947272D02*
G03*
X6808092Y3947272I-30480J0D01*
G01*
X6554092D02*
G03*
X6554092Y3947272I-30480J0D01*
G01*
X6808092Y4201272D02*
G03*
X6808092Y4201272I-30480J0D01*
G01*
X6554092D02*
G03*
X6554092Y4201272I-30480J0D01*
G01*
X6808092Y4455272D02*
G03*
X6808092Y4455272I-30480J0D01*
G01*
X6554092D02*
G03*
X6554092Y4455272I-30480J0D01*
G01*
X6808092Y4709272D02*
G03*
X6808092Y4709272I-30480J0D01*
G01*
X6554092D02*
G03*
X6554092Y4709272I-30480J0D01*
G01*
X6808092Y4963272D02*
G03*
X6808092Y4963272I-30480J0D01*
G01*
X6554092D02*
G03*
X6554092Y4963272I-30480J0D01*
G01*
X6808092Y5217272D02*
G03*
X6808092Y5217272I-30480J0D01*
G01*
X6554092D02*
G03*
X6554092Y5217272I-30480J0D01*
G01*
X6808092Y5471272D02*
G03*
X6808092Y5471272I-30480J0D01*
G01*
X6554092D02*
G03*
X6554092Y5471272I-30480J0D01*
G01*
X6808092Y5725272D02*
G03*
X6808092Y5725272I-30480J0D01*
G01*
X6554092D02*
G03*
X6554092Y5725272I-30480J0D01*
G01*
X6808092Y5979272D02*
G03*
X6808092Y5979272I-30480J0D01*
G01*
X6554092D02*
G03*
X6554092Y5979272I-30480J0D01*
G01*
X6808092Y6233272D02*
G03*
X6808092Y6233272I-30480J0D01*
G01*
X6554092D02*
G03*
X6554092Y6233272I-30480J0D01*
G01*
X6808092Y6487272D02*
G03*
X6808092Y6487272I-30480J0D01*
G01*
X6554092D02*
G03*
X6554092Y6487272I-30480J0D01*
G01*
X6808092Y6741272D02*
G03*
X6808092Y6741272I-30480J0D01*
G01*
X6554092D02*
G03*
X6554092Y6741272I-30480J0D01*
G01*
X6808092Y6995272D02*
G03*
X6808092Y6995272I-30480J0D01*
G01*
X6554092D02*
G03*
X6554092Y6995272I-30480J0D01*
G01*
X6808092Y7249272D02*
G03*
X6808092Y7249272I-30480J0D01*
G01*
X6554092D02*
G03*
X6554092Y7249272I-30480J0D01*
G01*
X6808092Y7503272D02*
G03*
X6808092Y7503272I-30480J0D01*
G01*
X6554092D02*
G03*
X6554092Y7503272I-30480J0D01*
G01*
X6808092Y7757272D02*
G03*
X6808092Y7757272I-30480J0D01*
G01*
X6554092D02*
G03*
X6554092Y7757272I-30480J0D01*
G01*
X6808092Y8011272D02*
G03*
X6808092Y8011272I-30480J0D01*
G01*
X6554092D02*
G03*
X6554092Y8011272I-30480J0D01*
G01*
X6808092Y8265272D02*
G03*
X6808092Y8265272I-30480J0D01*
G01*
X6554092D02*
G03*
X6554092Y8265272I-30480J0D01*
G01*
X6808092Y8519272D02*
G03*
X6808092Y8519272I-30480J0D01*
G01*
X6554092D02*
G03*
X6554092Y8519272I-30480J0D01*
G01*
X6808092Y8773272D02*
G03*
X6808092Y8773272I-30480J0D01*
G01*
X6554092D02*
G03*
X6554092Y8773272I-30480J0D01*
G01*
X6808092Y9027272D02*
G03*
X6808092Y9027272I-30480J0D01*
G01*
X6554092D02*
G03*
X6554092Y9027272I-30480J0D01*
G01*
X6808092Y9281272D02*
G03*
X6808092Y9281272I-30480J0D01*
G01*
X6554092D02*
G03*
X6554092Y9281272I-30480J0D01*
G01*
X6808092Y9535272D02*
G03*
X6808092Y9535272I-30480J0D01*
G01*
X6554092D02*
G03*
X6554092Y9535272I-30480J0D01*
G01*
X6808092Y9789272D02*
G03*
X6808092Y9789272I-30480J0D01*
G01*
X6554092D02*
G03*
X6554092Y9789272I-30480J0D01*
G01*
X6808092Y10043272D02*
G03*
X6808092Y10043272I-30480J0D01*
G01*
X6554092D02*
G03*
X6554092Y10043272I-30480J0D01*
G01*
X6808092Y10297272D02*
G03*
X6808092Y10297272I-30480J0D01*
G01*
X6554092D02*
G03*
X6554092Y10297272I-30480J0D01*
G01*
X6808092Y10551272D02*
G03*
X6808092Y10551272I-30480J0D01*
G01*
X6554092D02*
G03*
X6554092Y10551272I-30480J0D01*
G01*
X6808092Y10805272D02*
G03*
X6808092Y10805272I-30480J0D01*
G01*
X6554092D02*
G03*
X6554092Y10805272I-30480J0D01*
G01*
X6808092Y11059272D02*
G03*
X6808092Y11059272I-30480J0D01*
G01*
X6554092D02*
G03*
X6554092Y11059272I-30480J0D01*
G01*
X6808092Y11313272D02*
G03*
X6808092Y11313272I-30480J0D01*
G01*
X6554092D02*
G03*
X6554092Y11313272I-30480J0D01*
G01*
X6808092Y11567272D02*
G03*
X6808092Y11567272I-30480J0D01*
G01*
X6554092D02*
G03*
X6554092Y11567272I-30480J0D01*
G01*
X6808092Y11821272D02*
G03*
X6808092Y11821272I-30480J0D01*
G01*
X6554092D02*
G03*
X6554092Y11821272I-30480J0D01*
G01*
X6808092Y12075272D02*
G03*
X6808092Y12075272I-30480J0D01*
G01*
X6554092D02*
G03*
X6554092Y12075272I-30480J0D01*
G01*
X712092Y3441273D02*
G03*
X712092Y3441273I-30480J0D01*
G01*
X458092D02*
G03*
X458092Y3441273I-30480J0D01*
G01*
X6808092Y12329272D02*
G03*
X6808092Y12329272I-30480J0D01*
G01*
X6554092D02*
G03*
X6554092Y12329272I-30480J0D01*
G01*
X712092Y3695273D02*
G03*
X712092Y3695273I-30480J0D01*
G01*
X458092D02*
G03*
X458092Y3695273I-30480J0D01*
G01*
X712092Y3949273D02*
G03*
X712092Y3949273I-30480J0D01*
G01*
X458092D02*
G03*
X458092Y3949273I-30480J0D01*
G01*
X712092Y4203273D02*
G03*
X712092Y4203273I-30480J0D01*
G01*
X458092D02*
G03*
X458092Y4203273I-30480J0D01*
G01*
X712092Y4457273D02*
G03*
X712092Y4457273I-30480J0D01*
G01*
X458092D02*
G03*
X458092Y4457273I-30480J0D01*
G01*
X712092Y4711273D02*
G03*
X712092Y4711273I-30480J0D01*
G01*
X458092D02*
G03*
X458092Y4711273I-30480J0D01*
G01*
X712092Y4965273D02*
G03*
X712092Y4965273I-30480J0D01*
G01*
X458092D02*
G03*
X458092Y4965273I-30480J0D01*
G01*
X712092Y5219273D02*
G03*
X712092Y5219273I-30480J0D01*
G01*
X458092D02*
G03*
X458092Y5219273I-30480J0D01*
G01*
X712092Y5473273D02*
G03*
X712092Y5473273I-30480J0D01*
G01*
X458092D02*
G03*
X458092Y5473273I-30480J0D01*
G01*
X712092Y5727273D02*
G03*
X712092Y5727273I-30480J0D01*
G01*
X458092D02*
G03*
X458092Y5727273I-30480J0D01*
G01*
X712092Y5981273D02*
G03*
X712092Y5981273I-30480J0D01*
G01*
X458092D02*
G03*
X458092Y5981273I-30480J0D01*
G01*
X712092Y6235273D02*
G03*
X712092Y6235273I-30480J0D01*
G01*
X458092D02*
G03*
X458092Y6235273I-30480J0D01*
G01*
X712092Y6489273D02*
G03*
X712092Y6489273I-30480J0D01*
G01*
X458092D02*
G03*
X458092Y6489273I-30480J0D01*
G01*
X712092Y6743273D02*
G03*
X712092Y6743273I-30480J0D01*
G01*
X458092D02*
G03*
X458092Y6743273I-30480J0D01*
G01*
X712092Y6997273D02*
G03*
X712092Y6997273I-30480J0D01*
G01*
X458092D02*
G03*
X458092Y6997273I-30480J0D01*
G01*
X712092Y7251273D02*
G03*
X712092Y7251273I-30480J0D01*
G01*
X458092D02*
G03*
X458092Y7251273I-30480J0D01*
G01*
X712092Y7505273D02*
G03*
X712092Y7505273I-30480J0D01*
G01*
X458092D02*
G03*
X458092Y7505273I-30480J0D01*
G01*
X712092Y7759273D02*
G03*
X712092Y7759273I-30480J0D01*
G01*
X458092D02*
G03*
X458092Y7759273I-30480J0D01*
G01*
X712092Y8013273D02*
G03*
X712092Y8013273I-30480J0D01*
G01*
X458092D02*
G03*
X458092Y8013273I-30480J0D01*
G01*
X712092Y8267273D02*
G03*
X712092Y8267273I-30480J0D01*
G01*
X458092D02*
G03*
X458092Y8267273I-30480J0D01*
G01*
X712092Y8521273D02*
G03*
X712092Y8521273I-30480J0D01*
G01*
X458092D02*
G03*
X458092Y8521273I-30480J0D01*
G01*
X712092Y8775273D02*
G03*
X712092Y8775273I-30480J0D01*
G01*
X458092D02*
G03*
X458092Y8775273I-30480J0D01*
G01*
X712092Y9029273D02*
G03*
X712092Y9029273I-30480J0D01*
G01*
X458092D02*
G03*
X458092Y9029273I-30480J0D01*
G01*
X712092Y9283273D02*
G03*
X712092Y9283273I-30480J0D01*
G01*
X458092D02*
G03*
X458092Y9283273I-30480J0D01*
G01*
X712092Y9537273D02*
G03*
X712092Y9537273I-30480J0D01*
G01*
X458092D02*
G03*
X458092Y9537273I-30480J0D01*
G01*
X712092Y9791273D02*
G03*
X712092Y9791273I-30480J0D01*
G01*
X458092D02*
G03*
X458092Y9791273I-30480J0D01*
G01*
X712092Y10045273D02*
G03*
X712092Y10045273I-30480J0D01*
G01*
X458092D02*
G03*
X458092Y10045273I-30480J0D01*
G01*
X712092Y10299273D02*
G03*
X712092Y10299273I-30480J0D01*
G01*
X458092D02*
G03*
X458092Y10299273I-30480J0D01*
G01*
X712092Y10553273D02*
G03*
X712092Y10553273I-30480J0D01*
G01*
X458092D02*
G03*
X458092Y10553273I-30480J0D01*
G01*
X712092Y10807273D02*
G03*
X712092Y10807273I-30480J0D01*
G01*
X458092D02*
G03*
X458092Y10807273I-30480J0D01*
G01*
X712092Y11061273D02*
G03*
X712092Y11061273I-30480J0D01*
G01*
X458092D02*
G03*
X458092Y11061273I-30480J0D01*
G01*
X712092Y11315273D02*
G03*
X712092Y11315273I-30480J0D01*
G01*
X458092D02*
G03*
X458092Y11315273I-30480J0D01*
G01*
X712092Y11569273D02*
G03*
X712092Y11569273I-30480J0D01*
G01*
X458092D02*
G03*
X458092Y11569273I-30480J0D01*
G01*
X712092Y11823273D02*
G03*
X712092Y11823273I-30480J0D01*
G01*
X458092D02*
G03*
X458092Y11823273I-30480J0D01*
G01*
X712092Y12077273D02*
G03*
X712092Y12077273I-30480J0D01*
G01*
X458092D02*
G03*
X458092Y12077273I-30480J0D01*
G01*
X712092Y12331273D02*
G03*
X712092Y12331273I-30480J0D01*
G01*
X458092D02*
G03*
X458092Y12331273I-30480J0D01*
G01*
%TF.MD5,a0d254a85dea3832f15193b0d79f660d*%
M02*
