%TF.GenerationSoftware,Altium Limited,Altium Designer,23.6.0 (18)*%
G04 Layer_Color=8421504*
%FSLAX45Y45*%
%MOMM*%
%TF.SameCoordinates,8B2A78E3-6762-467B-82E4-ABAB87B9FA14*%
%TF.FilePolarity,Positive*%
%TF.FileFunction,Paste,Top*%
%TF.Part,Single*%
G01*
G75*
%TA.AperFunction,SMDPad,CuDef*%
%ADD10R,1.00000X2.80000*%
%ADD11R,0.89000X1.91000*%
%ADD12R,1.14220X1.46200*%
%ADD13R,7.08660X5.84200*%
%ADD14R,1.13504X1.06213*%
%ADD15R,1.06213X1.13504*%
%ADD16R,0.47500X0.25000*%
%ADD17R,0.25000X0.47500*%
%ADD18R,1.40000X1.10000*%
%ADD19R,1.00000X0.90000*%
%ADD20R,0.90000X1.00000*%
%ADD21R,1.35000X0.95000*%
D10*
X3337500Y15600000D02*
D03*
Y16039999D02*
D03*
X3527500Y15600000D02*
D03*
Y16039999D02*
D03*
X3717500Y15600000D02*
D03*
Y16039999D02*
D03*
D11*
X-1782500Y4375500D02*
D03*
Y3974500D02*
D03*
X-1582500Y4375500D02*
D03*
Y3974500D02*
D03*
X-1382500Y4375500D02*
D03*
Y3974500D02*
D03*
X-1182500Y4375500D02*
D03*
Y3974500D02*
D03*
X-1782500Y6235500D02*
D03*
Y5834500D02*
D03*
X-1582500Y6235500D02*
D03*
Y5834500D02*
D03*
X-1382500Y6235500D02*
D03*
Y5834500D02*
D03*
X-1182500Y6235500D02*
D03*
Y5834500D02*
D03*
X-1777501Y11236000D02*
D03*
Y10835000D02*
D03*
X-1577501Y11236000D02*
D03*
Y10835000D02*
D03*
X-1377501Y11236000D02*
D03*
Y10835000D02*
D03*
X-1177501Y11236000D02*
D03*
Y10835000D02*
D03*
X-1777501Y9376000D02*
D03*
Y8975000D02*
D03*
X-1577501Y9376000D02*
D03*
Y8975000D02*
D03*
X-1377501Y9376000D02*
D03*
Y8975000D02*
D03*
X-1177501Y9376000D02*
D03*
Y8975000D02*
D03*
X8920000Y11525000D02*
D03*
X9120000D02*
D03*
X8720000Y11124000D02*
D03*
X9120000D02*
D03*
X8920000D02*
D03*
X8520000Y11525000D02*
D03*
X8720000D02*
D03*
X8520000Y11124000D02*
D03*
X8920000Y9665000D02*
D03*
X9120000D02*
D03*
X8720000Y9264000D02*
D03*
X9120000D02*
D03*
X8920000D02*
D03*
X8520000Y9665000D02*
D03*
X8720000D02*
D03*
X8520000Y9264000D02*
D03*
X9385000Y4332500D02*
D03*
Y4733500D02*
D03*
X9185000Y4332500D02*
D03*
Y4733500D02*
D03*
X8985000Y4332500D02*
D03*
Y4733500D02*
D03*
X8785000Y4332500D02*
D03*
Y4733500D02*
D03*
X9385000Y6192500D02*
D03*
Y6593500D02*
D03*
X9185000Y6192500D02*
D03*
Y6593500D02*
D03*
X8985000Y6192500D02*
D03*
Y6593500D02*
D03*
X8785000Y6192500D02*
D03*
Y6593500D02*
D03*
D12*
X6780000Y13743430D02*
D03*
X6580000D02*
D03*
X6380000D02*
D03*
X6180000D02*
D03*
D13*
X6480000Y13156689D02*
D03*
D14*
X6583461Y14410001D02*
D03*
X6746539D02*
D03*
X6291539Y14412500D02*
D03*
X6128461D02*
D03*
D15*
X3722500Y15135960D02*
D03*
Y15299039D02*
D03*
X3327500Y15135960D02*
D03*
Y15299039D02*
D03*
X3532500Y15133461D02*
D03*
Y15296539D02*
D03*
D16*
X3493750Y8277500D02*
D03*
Y8227500D02*
D03*
Y8177500D02*
D03*
Y8127500D02*
D03*
X3726250D02*
D03*
Y8177500D02*
D03*
Y8227500D02*
D03*
Y8277500D02*
D03*
D17*
X3560000Y8111250D02*
D03*
X3610000D02*
D03*
X3660000D02*
D03*
Y8293750D02*
D03*
X3610000D02*
D03*
X3560000D02*
D03*
D18*
X5200000Y12339498D02*
D03*
Y12569498D02*
D03*
D19*
X5665300Y12977499D02*
D03*
Y12817500D02*
D03*
X4067500Y9022500D02*
D03*
Y8862500D02*
D03*
X3100000D02*
D03*
Y9022500D02*
D03*
D20*
X5665300Y12569500D02*
D03*
Y12389500D02*
D03*
X-4247500Y9907500D02*
D03*
X-4087500D02*
D03*
D21*
X3595839Y8897911D02*
D03*
Y9047911D02*
D03*
%TF.MD5,6ef4b9c181340191ec5e47f6d1800bf9*%
M02*
