%TF.GenerationSoftware,Altium Limited,Altium Designer,23.6.0 (18)*%
G04 Layer_Color=8388736*
%FSLAX45Y45*%
%MOMM*%
%TF.SameCoordinates,8B2A78E3-6762-467B-82E4-ABAB87B9FA14*%
%TF.FilePolarity,Negative*%
%TF.FileFunction,Soldermask,Top*%
%TF.Part,Single*%
G01*
G75*
%TA.AperFunction,SMDPad,CuDef*%
%ADD12R,1.14220X1.46200*%
%ADD13R,7.08660X5.84200*%
%ADD14R,1.13504X1.06213*%
%ADD15R,1.06213X1.13504*%
%ADD20R,0.90000X1.00000*%
%ADD21R,1.35000X0.95000*%
%TA.AperFunction,ComponentPad*%
%ADD36R,2.45000X2.45000*%
%ADD37C,2.45000*%
%TA.AperFunction,SMDPad,CuDef*%
%ADD74R,1.20320X3.00320*%
%ADD75R,1.09320X2.11320*%
%ADD76R,0.57500X0.35000*%
%ADD77R,0.35000X0.57500*%
%ADD78R,1.60320X1.30320*%
%ADD79R,1.20320X1.10320*%
%ADD80R,1.10320X1.20320*%
%TA.AperFunction,ComponentPad*%
%ADD81C,1.72720*%
%ADD82C,1.85320*%
%ADD83R,1.85320X1.85320*%
%ADD84R,1.95320X1.95320*%
%ADD85C,1.95320*%
%ADD86R,6.20320X6.20320*%
%ADD87C,6.20320*%
%ADD88C,0.87820*%
%ADD89C,2.07820*%
%ADD90R,2.07820X2.07820*%
%ADD91C,3.20320*%
%ADD92C,2.10320*%
%ADD93R,2.10320X2.10320*%
%ADD94C,2.00320*%
%ADD95R,2.00320X2.00320*%
%ADD96C,0.85320*%
%ADD97R,1.71120X1.71120*%
%ADD98C,1.71120*%
%ADD99C,1.55320*%
%ADD100C,1.77820*%
%ADD101C,1.70320*%
%ADD102P,2.40869X4X345.0*%
%TA.AperFunction,ViaPad*%
%ADD103C,1.72720*%
%ADD104C,3.60320*%
G36*
X-785693Y13218245D02*
X-773436Y13218245D01*
X-750787Y13208862D01*
X-733452Y13191528D01*
X-724070Y13168880D01*
X-724071Y13156621D01*
X-724071Y13156621D01*
X-724070Y13156619D01*
X-724070Y12894122D01*
X-724070Y12887315D01*
X-726726Y12873959D01*
X-731937Y12861382D01*
X-739502Y12850060D01*
X-749130Y12840433D01*
X-760451Y12832867D01*
X-773030Y12827657D01*
X-780941Y12826083D01*
X-793192Y12825000D01*
X-793193Y12825002D01*
X-793193Y12825000D01*
X-1066807D01*
X-1075344Y12825000D01*
X-1092090Y12828329D01*
X-1107864Y12834863D01*
X-1122061Y12844350D01*
X-1134134Y12856422D01*
X-1143620Y12870619D01*
X-1150154Y12886394D01*
X-1153485Y12903139D01*
X-1153484Y12911676D01*
X-1153485Y12911678D01*
Y13158711D01*
X-1150947Y13171471D01*
X-1145969Y13183488D01*
X-1138742Y13194304D01*
X-1129544Y13203502D01*
X-1118728Y13210728D01*
X-1106710Y13215707D01*
X-1093951Y13218245D01*
X-1087447D01*
X-1087447Y13218245D01*
X-785693Y13218245D01*
D02*
G37*
G36*
X868377Y15501622D02*
X877401Y15501622D01*
X895103Y15498100D01*
X911777Y15491194D01*
X926783Y15481168D01*
X939545Y15468405D01*
X949572Y15453400D01*
X956478Y15436723D01*
X959462Y15421724D01*
X959999Y15410028D01*
Y15409999D01*
X959998Y15409999D01*
X960000Y15409998D01*
X960000Y15190915D01*
X960000Y15182787D01*
X956828Y15166840D01*
X950606Y15151819D01*
X941573Y15138300D01*
X930077Y15126804D01*
X916558Y15117770D01*
X901537Y15111549D01*
X889277Y15109111D01*
X877462Y15108379D01*
X877462Y15108379D01*
X877461Y15108377D01*
X603641D01*
X587985Y15111491D01*
X573237Y15117599D01*
X559964Y15126469D01*
X548677Y15137756D01*
X539808Y15151028D01*
X533700Y15165776D01*
X530586Y15181433D01*
Y15189413D01*
X530585Y15189413D01*
Y15414014D01*
X534320Y15432788D01*
X541646Y15450475D01*
X552281Y15466389D01*
X565817Y15479926D01*
X581733Y15490562D01*
X599419Y15497887D01*
X618194Y15501622D01*
X627766D01*
X627766Y15501622D01*
X868377Y15501622D01*
D02*
G37*
D12*
X6780000Y13743430D02*
D03*
X6580000D02*
D03*
X6380000D02*
D03*
X6180000D02*
D03*
D13*
X6480000Y13156689D02*
D03*
D14*
X6583461Y14410001D02*
D03*
X6746539D02*
D03*
X6291539Y14412500D02*
D03*
X6128461D02*
D03*
D15*
X3722500Y15135960D02*
D03*
Y15299039D02*
D03*
X3327500Y15135960D02*
D03*
Y15299039D02*
D03*
X3532500Y15133461D02*
D03*
Y15296539D02*
D03*
D20*
X5665300Y12569500D02*
D03*
Y12389500D02*
D03*
D21*
X3595839Y8897911D02*
D03*
Y9047911D02*
D03*
D36*
X5887500Y15062500D02*
D03*
D37*
X6357500D02*
D03*
X6827500D02*
D03*
D74*
X3337500Y15600000D02*
D03*
Y16039999D02*
D03*
X3527500Y15600000D02*
D03*
Y16039999D02*
D03*
X3717500Y15600000D02*
D03*
Y16039999D02*
D03*
D75*
X-1782500Y4375500D02*
D03*
Y3974500D02*
D03*
X-1582500Y4375500D02*
D03*
Y3974500D02*
D03*
X-1382500Y4375500D02*
D03*
Y3974500D02*
D03*
X-1182500Y4375500D02*
D03*
Y3974500D02*
D03*
X-1782500Y6235500D02*
D03*
Y5834500D02*
D03*
X-1582500Y6235500D02*
D03*
Y5834500D02*
D03*
X-1382500Y6235500D02*
D03*
Y5834500D02*
D03*
X-1182500Y6235500D02*
D03*
Y5834500D02*
D03*
X-1777501Y11236000D02*
D03*
Y10835000D02*
D03*
X-1577501Y11236000D02*
D03*
Y10835000D02*
D03*
X-1377501Y11236000D02*
D03*
Y10835000D02*
D03*
X-1177501Y11236000D02*
D03*
Y10835000D02*
D03*
X-1777501Y9376000D02*
D03*
Y8975000D02*
D03*
X-1577501Y9376000D02*
D03*
Y8975000D02*
D03*
X-1377501Y9376000D02*
D03*
Y8975000D02*
D03*
X-1177501Y9376000D02*
D03*
Y8975000D02*
D03*
X8920000Y11525000D02*
D03*
X9120000D02*
D03*
X8720000Y11124000D02*
D03*
X9120000D02*
D03*
X8920000D02*
D03*
X8520000Y11525000D02*
D03*
X8720000D02*
D03*
X8520000Y11124000D02*
D03*
X8920000Y9665000D02*
D03*
X9120000D02*
D03*
X8720000Y9264000D02*
D03*
X9120000D02*
D03*
X8920000D02*
D03*
X8520000Y9665000D02*
D03*
X8720000D02*
D03*
X8520000Y9264000D02*
D03*
X9385000Y4332500D02*
D03*
Y4733500D02*
D03*
X9185000Y4332500D02*
D03*
Y4733500D02*
D03*
X8985000Y4332500D02*
D03*
Y4733500D02*
D03*
X8785000Y4332500D02*
D03*
Y4733500D02*
D03*
X9385000Y6192500D02*
D03*
Y6593500D02*
D03*
X9185000Y6192500D02*
D03*
Y6593500D02*
D03*
X8985000Y6192500D02*
D03*
Y6593500D02*
D03*
X8785000Y6192500D02*
D03*
Y6593500D02*
D03*
D76*
X3493750Y8277500D02*
D03*
Y8227500D02*
D03*
Y8177500D02*
D03*
Y8127500D02*
D03*
X3726250D02*
D03*
Y8177500D02*
D03*
Y8227500D02*
D03*
Y8277500D02*
D03*
D77*
X3560000Y8111250D02*
D03*
X3610000D02*
D03*
X3660000D02*
D03*
Y8293750D02*
D03*
X3610000D02*
D03*
X3560000D02*
D03*
D78*
X5200000Y12339498D02*
D03*
Y12569498D02*
D03*
D79*
X5665300Y12977499D02*
D03*
Y12817500D02*
D03*
X4067500Y9022500D02*
D03*
Y8862500D02*
D03*
X3100000D02*
D03*
Y9022500D02*
D03*
D80*
X-4247500Y9907500D02*
D03*
X-4087500D02*
D03*
D81*
X1931500Y6738000D02*
D03*
X7735400D02*
D03*
Y1848500D02*
D03*
X1918800D02*
D03*
D82*
X7252800Y1734200D02*
D03*
Y1988200D02*
D03*
X6998800Y1734200D02*
D03*
Y1988200D02*
D03*
X6744800Y1734200D02*
D03*
Y1988200D02*
D03*
X6490800Y1734200D02*
D03*
X6236800D02*
D03*
Y1988200D02*
D03*
X5982800Y1734200D02*
D03*
Y1988200D02*
D03*
X5728800Y1734200D02*
D03*
Y1988200D02*
D03*
X5474800Y1734200D02*
D03*
Y1988200D02*
D03*
X5220800Y1734200D02*
D03*
Y1988200D02*
D03*
X4966800Y1734200D02*
D03*
Y1988200D02*
D03*
X4712800Y1734200D02*
D03*
Y1988200D02*
D03*
X4458800Y1734200D02*
D03*
Y1988200D02*
D03*
X4204800Y1734200D02*
D03*
Y1988200D02*
D03*
X3950800Y1734200D02*
D03*
Y1988200D02*
D03*
X3696800Y1734200D02*
D03*
Y1988200D02*
D03*
X3442800Y1734200D02*
D03*
Y1988200D02*
D03*
X3188800Y1734200D02*
D03*
Y1988200D02*
D03*
X2934800Y1734200D02*
D03*
Y1988200D02*
D03*
X2680800Y1734200D02*
D03*
Y1988200D02*
D03*
X2426800Y1734200D02*
D03*
X6490800Y1988200D02*
D03*
D83*
X2426800D02*
D03*
D84*
X9035000Y3540000D02*
D03*
X-1922500Y2975000D02*
D03*
D85*
X9585000Y3540000D02*
D03*
X-1372500Y2975000D02*
D03*
D86*
X8030000Y14172501D02*
D03*
D87*
X7310000Y14203000D02*
D03*
D88*
X-402500Y9470000D02*
D03*
X-389200Y11287700D02*
D03*
X7631200Y9162100D02*
D03*
X7618500Y11037700D02*
D03*
D89*
X-786500Y8845000D02*
D03*
Y9095000D02*
D03*
Y9345000D02*
D03*
Y9595000D02*
D03*
Y9845000D02*
D03*
X-532500Y8845000D02*
D03*
Y9095000D02*
D03*
Y9345000D02*
D03*
Y9595000D02*
D03*
X-773200Y10662700D02*
D03*
Y10912700D02*
D03*
Y11162700D02*
D03*
Y11412700D02*
D03*
Y11662700D02*
D03*
X-519200Y10662700D02*
D03*
Y10912700D02*
D03*
Y11162700D02*
D03*
Y11412700D02*
D03*
X8015200Y9787100D02*
D03*
Y9537100D02*
D03*
Y9287100D02*
D03*
Y9037100D02*
D03*
Y8787100D02*
D03*
X7761200Y9787100D02*
D03*
Y9537100D02*
D03*
Y9287100D02*
D03*
Y9037100D02*
D03*
X7748500Y10912700D02*
D03*
Y11162700D02*
D03*
Y11412700D02*
D03*
Y11662700D02*
D03*
X8002500Y10662700D02*
D03*
Y10912700D02*
D03*
Y11162700D02*
D03*
Y11412700D02*
D03*
Y11662700D02*
D03*
D90*
X-532500Y9845000D02*
D03*
X-519200Y11662700D02*
D03*
X7761200Y8787100D02*
D03*
X7748500Y10662700D02*
D03*
D91*
X-1020000Y14594000D02*
D03*
X1180000D02*
D03*
D92*
X-130000Y14089999D02*
D03*
X710000D02*
D03*
X290000D02*
D03*
X-550000Y14639999D02*
D03*
X-130000D02*
D03*
X710000D02*
D03*
X290000D02*
D03*
D93*
X-550000Y14089999D02*
D03*
D94*
X8425000Y2440000D02*
D03*
X8675000D02*
D03*
X8425000Y2690000D02*
D03*
D95*
X8675000D02*
D03*
D96*
X8809000Y2565000D02*
D03*
D97*
X6777612Y3439272D02*
D03*
X681612Y3441273D02*
D03*
X6777612Y12329272D02*
D03*
X681612Y12331273D02*
D03*
D98*
X6523612Y3439272D02*
D03*
X6777612Y3693272D02*
D03*
X6523612D02*
D03*
X6777612Y3947272D02*
D03*
X6523612D02*
D03*
X6777612Y4201272D02*
D03*
X6523612D02*
D03*
X6777612Y4455272D02*
D03*
X6523612D02*
D03*
X6777612Y4709272D02*
D03*
X6523612D02*
D03*
X6777612Y4963272D02*
D03*
X6523612D02*
D03*
X6777612Y5217272D02*
D03*
X6523612D02*
D03*
X6777612Y5471272D02*
D03*
X6523612D02*
D03*
X6777612Y5725272D02*
D03*
X6523612D02*
D03*
X6777612Y5979272D02*
D03*
X6523612D02*
D03*
X6777612Y6233272D02*
D03*
X6523612D02*
D03*
X6777612Y6487272D02*
D03*
X6523612D02*
D03*
X6777612Y6741272D02*
D03*
X6523612D02*
D03*
X6777612Y6995272D02*
D03*
X6523612D02*
D03*
X6777612Y7249272D02*
D03*
X6523612D02*
D03*
X6777612Y7503272D02*
D03*
X6523612D02*
D03*
X6777612Y7757272D02*
D03*
X6523612D02*
D03*
X6777612Y8011272D02*
D03*
X6523612D02*
D03*
X6777612Y8265272D02*
D03*
X6523612D02*
D03*
X6777612Y8519272D02*
D03*
X6523612D02*
D03*
X6777612Y8773272D02*
D03*
X6523612D02*
D03*
X6777612Y9027272D02*
D03*
X6523612D02*
D03*
X6777612Y9281272D02*
D03*
X6523612D02*
D03*
X6777612Y9535272D02*
D03*
X6523612D02*
D03*
X6777612Y9789272D02*
D03*
X6523612D02*
D03*
X6777612Y10043272D02*
D03*
X6523612D02*
D03*
X6777612Y10297272D02*
D03*
X6523612D02*
D03*
X6777612Y10551272D02*
D03*
X6523612D02*
D03*
X6777612Y10805272D02*
D03*
X6523612D02*
D03*
X6777612Y11059272D02*
D03*
X6523612D02*
D03*
X6777612Y11313272D02*
D03*
X6523612D02*
D03*
X6777612Y11567272D02*
D03*
X6523612D02*
D03*
X6777612Y11821272D02*
D03*
X6523612D02*
D03*
X6777612Y12075272D02*
D03*
X6523612D02*
D03*
X427612Y3441273D02*
D03*
X6523612Y12329272D02*
D03*
X681612Y3695273D02*
D03*
X427612D02*
D03*
X681612Y3949273D02*
D03*
X427612D02*
D03*
X681612Y4203273D02*
D03*
X427612D02*
D03*
X681612Y4457273D02*
D03*
X427612D02*
D03*
X681612Y4711273D02*
D03*
X427612D02*
D03*
X681612Y4965273D02*
D03*
X427612D02*
D03*
X681612Y5219273D02*
D03*
X427612D02*
D03*
X681612Y5473273D02*
D03*
X427612D02*
D03*
X681612Y5727273D02*
D03*
X427612D02*
D03*
X681612Y5981273D02*
D03*
X427612D02*
D03*
X681612Y6235273D02*
D03*
X427612D02*
D03*
X681612Y6489273D02*
D03*
X427612D02*
D03*
X681612Y6743273D02*
D03*
X427612D02*
D03*
X681612Y6997273D02*
D03*
X427612D02*
D03*
X681612Y7251273D02*
D03*
X427612D02*
D03*
X681612Y7505273D02*
D03*
X427612D02*
D03*
X681612Y7759273D02*
D03*
X427612D02*
D03*
X681612Y8013273D02*
D03*
X427612D02*
D03*
X681612Y8267273D02*
D03*
X427612D02*
D03*
X681612Y8521273D02*
D03*
X427612D02*
D03*
X681612Y8775273D02*
D03*
X427612D02*
D03*
X681612Y9029273D02*
D03*
X427612D02*
D03*
X681612Y9283273D02*
D03*
X427612D02*
D03*
X681612Y9537273D02*
D03*
X427612D02*
D03*
X681612Y9791273D02*
D03*
X427612D02*
D03*
X681612Y10045273D02*
D03*
X427612D02*
D03*
X681612Y10299273D02*
D03*
X427612D02*
D03*
X681612Y10553273D02*
D03*
X427612D02*
D03*
X681612Y10807273D02*
D03*
X427612D02*
D03*
X681612Y11061273D02*
D03*
X427612D02*
D03*
X681612Y11315273D02*
D03*
X427612D02*
D03*
X681612Y11569273D02*
D03*
X427612D02*
D03*
X681612Y11823273D02*
D03*
X427612D02*
D03*
X681612Y12077273D02*
D03*
X427612D02*
D03*
Y12331273D02*
D03*
D99*
X-3725000Y5555000D02*
D03*
Y6055000D02*
D03*
D100*
X-3780500Y9469500D02*
D03*
Y9215500D02*
D03*
Y8961500D02*
D03*
Y8707500D02*
D03*
Y8453500D02*
D03*
X-4542500D02*
D03*
Y8707500D02*
D03*
Y8961500D02*
D03*
Y9215500D02*
D03*
Y9469500D02*
D03*
D101*
X-2284900Y3965330D02*
D03*
X-2411900Y4185300D02*
D03*
X-2538900Y4405271D02*
D03*
D102*
X-2665900Y4625241D02*
D03*
D103*
X11677500Y9017503D02*
D03*
X9277500Y5444998D02*
D03*
X-2662501Y11889999D02*
D03*
X-267500Y8319998D02*
D03*
X-260002Y3310001D02*
D03*
X-2662501Y6880001D02*
D03*
X7897498Y7240001D02*
D03*
X10300003Y3672499D02*
D03*
X10039998Y8602502D02*
D03*
X7634999Y12172498D02*
D03*
D104*
X10163213Y12393412D02*
D03*
X7610000Y876594D02*
D03*
X-2943217Y12393412D02*
D03*
X-389999Y876594D02*
D03*
%TF.MD5,faac5b969e646523bc95a615c6c72b33*%
M02*
