%TF.GenerationSoftware,Altium Limited,Altium Designer,23.6.0 (18)*%
G04 Layer_Color=16711935*
%FSLAX45Y45*%
%MOMM*%
%TF.SameCoordinates,8B2A78E3-6762-467B-82E4-ABAB87B9FA14*%
%TF.FilePolarity,Positive*%
%TF.FileFunction,Other,Top_Assembly*%
%TF.Part,Single*%
G01*
G75*
%TA.AperFunction,NonConductor*%
%ADD70C,0.20000*%
G36*
X6748209Y14475273D02*
X6749411Y14475089D01*
X6750890Y14474809D01*
X6752555Y14474348D01*
X6754219Y14473793D01*
X6755883Y14473055D01*
X6755976D01*
X6756068Y14472961D01*
X6756623Y14472684D01*
X6757455Y14472128D01*
X6758379Y14471481D01*
X6759489Y14470557D01*
X6760598Y14469540D01*
X6761708Y14468338D01*
X6762632Y14466953D01*
X6762725Y14466766D01*
X6763002Y14466304D01*
X6763372Y14465472D01*
X6763834Y14464455D01*
X6764297Y14463252D01*
X6764666Y14461867D01*
X6764944Y14460295D01*
X6765036Y14458723D01*
Y14458537D01*
Y14457983D01*
X6764944Y14457243D01*
X6764759Y14456227D01*
X6764482Y14455025D01*
X6764019Y14453729D01*
X6763465Y14452435D01*
X6762725Y14451141D01*
X6762632Y14450957D01*
X6762355Y14450587D01*
X6761800Y14449940D01*
X6761061Y14449200D01*
X6760136Y14448367D01*
X6759027Y14447443D01*
X6757732Y14446611D01*
X6756160Y14445779D01*
X6756253D01*
X6756438Y14445686D01*
X6756715Y14445593D01*
X6757085Y14445502D01*
X6758102Y14445132D01*
X6759396Y14444577D01*
X6760876Y14443839D01*
X6762355Y14442912D01*
X6763742Y14441711D01*
X6765036Y14440324D01*
X6765129Y14440138D01*
X6765499Y14439584D01*
X6766053Y14438660D01*
X6766608Y14437457D01*
X6767163Y14435979D01*
X6767717Y14434222D01*
X6768087Y14432188D01*
X6768180Y14429968D01*
Y14429877D01*
Y14429599D01*
Y14429137D01*
X6768087Y14428581D01*
X6767995Y14427843D01*
X6767810Y14427011D01*
X6767625Y14426086D01*
X6767440Y14425069D01*
X6766700Y14422850D01*
X6766146Y14421648D01*
X6765591Y14420538D01*
X6764851Y14419337D01*
X6764019Y14418135D01*
X6763095Y14416933D01*
X6761985Y14415823D01*
X6761893Y14415730D01*
X6761708Y14415546D01*
X6761338Y14415269D01*
X6760876Y14414899D01*
X6760321Y14414436D01*
X6759581Y14413974D01*
X6758749Y14413419D01*
X6757732Y14412956D01*
X6756715Y14412402D01*
X6755513Y14411848D01*
X6754311Y14411385D01*
X6752925Y14410922D01*
X6751445Y14410553D01*
X6749873Y14410275D01*
X6748302Y14410091D01*
X6746545Y14409999D01*
X6745713D01*
X6745158Y14410091D01*
X6744419Y14410184D01*
X6743586Y14410275D01*
X6742662Y14410461D01*
X6741645Y14410646D01*
X6739426Y14411201D01*
X6737115Y14412125D01*
X6735913Y14412680D01*
X6734803Y14413327D01*
X6733694Y14414159D01*
X6732584Y14414992D01*
X6732492Y14415083D01*
X6732307Y14415269D01*
X6732029Y14415546D01*
X6731752Y14415916D01*
X6731290Y14416377D01*
X6730828Y14417026D01*
X6730273Y14417673D01*
X6729718Y14418504D01*
X6729163Y14419429D01*
X6728609Y14420354D01*
X6727592Y14422572D01*
X6726759Y14425162D01*
X6726482Y14426547D01*
X6726297Y14428027D01*
X6734156Y14429045D01*
Y14428952D01*
X6734248Y14428767D01*
X6734341Y14428397D01*
X6734433Y14427934D01*
X6734526Y14427380D01*
X6734711Y14426733D01*
X6735173Y14425346D01*
X6735820Y14423682D01*
X6736652Y14422110D01*
X6737577Y14420631D01*
X6738686Y14419337D01*
X6738871Y14419244D01*
X6739241Y14418874D01*
X6739981Y14418411D01*
X6740905Y14417950D01*
X6742015Y14417395D01*
X6743402Y14416933D01*
X6744973Y14416563D01*
X6746638Y14416470D01*
X6747192D01*
X6747562Y14416563D01*
X6748579Y14416655D01*
X6749873Y14416933D01*
X6751353Y14417395D01*
X6752925Y14418042D01*
X6754496Y14418967D01*
X6755976Y14420261D01*
X6756160Y14420445D01*
X6756623Y14421001D01*
X6757177Y14421832D01*
X6757917Y14422942D01*
X6758657Y14424329D01*
X6759212Y14425900D01*
X6759674Y14427750D01*
X6759859Y14429784D01*
Y14429877D01*
Y14430061D01*
Y14430339D01*
X6759766Y14430708D01*
X6759674Y14431726D01*
X6759396Y14432928D01*
X6759027Y14434407D01*
X6758379Y14435886D01*
X6757455Y14437366D01*
X6756253Y14438753D01*
X6756068Y14438937D01*
X6755606Y14439307D01*
X6754866Y14439862D01*
X6753849Y14440509D01*
X6752555Y14441156D01*
X6750983Y14441711D01*
X6749226Y14442081D01*
X6747285Y14442265D01*
X6746453D01*
X6745805Y14442172D01*
X6744973Y14442081D01*
X6744049Y14441896D01*
X6742939Y14441711D01*
X6741737Y14441434D01*
X6742662Y14448367D01*
X6743124D01*
X6743494Y14448276D01*
X6744696D01*
X6745713Y14448460D01*
X6746915Y14448645D01*
X6748302Y14448923D01*
X6749873Y14449385D01*
X6751353Y14450032D01*
X6752925Y14450864D01*
X6753017D01*
X6753109Y14450957D01*
X6753572Y14451326D01*
X6754219Y14451974D01*
X6754959Y14452806D01*
X6755698Y14454008D01*
X6756345Y14455396D01*
X6756808Y14456966D01*
X6756993Y14457890D01*
Y14458908D01*
Y14459000D01*
Y14459093D01*
Y14459647D01*
X6756808Y14460387D01*
X6756623Y14461404D01*
X6756253Y14462514D01*
X6755791Y14463716D01*
X6755051Y14464917D01*
X6754034Y14466026D01*
X6753942Y14466119D01*
X6753479Y14466489D01*
X6752832Y14466953D01*
X6752000Y14467506D01*
X6750890Y14467969D01*
X6749596Y14468431D01*
X6748117Y14468800D01*
X6746453Y14468893D01*
X6745713D01*
X6744881Y14468707D01*
X6743771Y14468523D01*
X6742569Y14468153D01*
X6741368Y14467691D01*
X6740073Y14466953D01*
X6738871Y14466026D01*
X6738779Y14465935D01*
X6738409Y14465472D01*
X6737854Y14464825D01*
X6737207Y14463901D01*
X6736560Y14462698D01*
X6735913Y14461218D01*
X6735358Y14459464D01*
X6734988Y14457430D01*
X6727129Y14458815D01*
Y14458908D01*
X6727222Y14459184D01*
X6727314Y14459555D01*
X6727407Y14460110D01*
X6727592Y14460757D01*
X6727869Y14461497D01*
X6728424Y14463252D01*
X6729348Y14465286D01*
X6730458Y14467320D01*
X6731845Y14469263D01*
X6733601Y14471021D01*
X6733694Y14471112D01*
X6733879Y14471204D01*
X6734156Y14471388D01*
X6734526Y14471667D01*
X6734988Y14472037D01*
X6735635Y14472406D01*
X6736282Y14472775D01*
X6737115Y14473239D01*
X6738964Y14473978D01*
X6741090Y14474718D01*
X6743586Y14475180D01*
X6744881Y14475365D01*
X6747192D01*
X6748209Y14475273D01*
D02*
G37*
G36*
X6695417Y14474995D02*
X6696249D01*
X6698191Y14474902D01*
X6700225Y14474625D01*
X6702444Y14474348D01*
X6704478Y14473886D01*
X6705495Y14473608D01*
X6706327Y14473331D01*
X6706419D01*
X6706512Y14473239D01*
X6707066Y14472961D01*
X6707898Y14472591D01*
X6708915Y14471944D01*
X6710025Y14471112D01*
X6711227Y14470003D01*
X6712336Y14468707D01*
X6713446Y14467229D01*
Y14467136D01*
X6713538Y14467044D01*
X6713908Y14466489D01*
X6714278Y14465565D01*
X6714833Y14464363D01*
X6715295Y14462976D01*
X6715757Y14461311D01*
X6716035Y14459555D01*
X6716127Y14457613D01*
Y14457521D01*
Y14457336D01*
Y14456966D01*
X6716035Y14456503D01*
Y14455856D01*
X6715942Y14455209D01*
X6715572Y14453638D01*
X6715018Y14451788D01*
X6714278Y14449847D01*
X6713168Y14447906D01*
X6712429Y14446980D01*
X6711689Y14446056D01*
X6711597Y14445964D01*
X6711504Y14445872D01*
X6711227Y14445593D01*
X6710857Y14445317D01*
X6710395Y14444946D01*
X6709840Y14444577D01*
X6709100Y14444115D01*
X6708361Y14443559D01*
X6707436Y14443098D01*
X6706419Y14442636D01*
X6705310Y14442081D01*
X6704108Y14441618D01*
X6702721Y14441249D01*
X6701334Y14440787D01*
X6699762Y14440509D01*
X6698098Y14440231D01*
X6698283Y14440138D01*
X6698653Y14439954D01*
X6699208Y14439584D01*
X6699947Y14439215D01*
X6701611Y14438197D01*
X6702444Y14437550D01*
X6703183Y14436996D01*
X6703368Y14436810D01*
X6703830Y14436349D01*
X6704570Y14435609D01*
X6705495Y14434685D01*
X6706512Y14433389D01*
X6707714Y14432002D01*
X6708915Y14430339D01*
X6710210Y14428490D01*
X6721212Y14411108D01*
X6710672D01*
X6702259Y14424422D01*
Y14424513D01*
X6702074Y14424699D01*
X6701889Y14424976D01*
X6701611Y14425346D01*
X6700964Y14426363D01*
X6700132Y14427658D01*
X6699115Y14429045D01*
X6698098Y14430524D01*
X6697081Y14431911D01*
X6696157Y14433205D01*
X6696064Y14433298D01*
X6695787Y14433667D01*
X6695324Y14434222D01*
X6694677Y14434869D01*
X6693290Y14436256D01*
X6692551Y14436903D01*
X6691811Y14437457D01*
X6691719Y14437550D01*
X6691534Y14437643D01*
X6691164Y14437828D01*
X6690609Y14438104D01*
X6690054Y14438383D01*
X6689407Y14438660D01*
X6687928Y14439122D01*
X6687835D01*
X6687651Y14439215D01*
X6687281D01*
X6686818Y14439307D01*
X6686171Y14439400D01*
X6685432D01*
X6684415Y14439491D01*
X6673505D01*
Y14411108D01*
X6664999D01*
Y14475089D01*
X6694677D01*
X6695417Y14474995D01*
D02*
G37*
G36*
X6210001Y14348521D02*
X6180322D01*
X6179583Y14348615D01*
X6178751D01*
X6176809Y14348708D01*
X6174775Y14348984D01*
X6172556Y14349261D01*
X6170522Y14349724D01*
X6169505Y14350002D01*
X6168673Y14350278D01*
X6168580D01*
X6168488Y14350371D01*
X6167933Y14350648D01*
X6167101Y14351018D01*
X6166084Y14351665D01*
X6164975Y14352496D01*
X6163773Y14353607D01*
X6162663Y14354901D01*
X6161554Y14356380D01*
Y14356473D01*
X6161461Y14356564D01*
X6161092Y14357120D01*
X6160722Y14358044D01*
X6160167Y14359247D01*
X6159705Y14360632D01*
X6159242Y14362299D01*
X6158965Y14364053D01*
X6158873Y14365996D01*
Y14366087D01*
Y14366273D01*
Y14366643D01*
X6158965Y14367105D01*
Y14367754D01*
X6159058Y14368401D01*
X6159427Y14369972D01*
X6159982Y14371822D01*
X6160722Y14373763D01*
X6161831Y14375703D01*
X6162571Y14376628D01*
X6163311Y14377553D01*
X6163403Y14377644D01*
X6163495Y14377737D01*
X6163773Y14378015D01*
X6164143Y14378293D01*
X6164605Y14378662D01*
X6165160Y14379031D01*
X6165899Y14379494D01*
X6166639Y14380049D01*
X6167563Y14380511D01*
X6168580Y14380974D01*
X6169690Y14381529D01*
X6170892Y14381992D01*
X6172279Y14382361D01*
X6173666Y14382823D01*
X6175237Y14383099D01*
X6176902Y14383379D01*
X6176717Y14383470D01*
X6176347Y14383655D01*
X6175792Y14384026D01*
X6175052Y14384395D01*
X6173388Y14385413D01*
X6172556Y14386060D01*
X6171816Y14386613D01*
X6171632Y14386800D01*
X6171169Y14387260D01*
X6170430Y14388000D01*
X6169505Y14388925D01*
X6168488Y14390219D01*
X6167286Y14391606D01*
X6166084Y14393269D01*
X6164790Y14395120D01*
X6153788Y14412502D01*
X6164328D01*
X6172741Y14399188D01*
Y14399095D01*
X6172926Y14398911D01*
X6173111Y14398633D01*
X6173388Y14398264D01*
X6174035Y14397246D01*
X6174868Y14395952D01*
X6175885Y14394565D01*
X6176902Y14393086D01*
X6177919Y14391699D01*
X6178843Y14390404D01*
X6178936Y14390312D01*
X6179213Y14389941D01*
X6179675Y14389388D01*
X6180322Y14388741D01*
X6181709Y14387354D01*
X6182449Y14386707D01*
X6183189Y14386151D01*
X6183281Y14386060D01*
X6183466Y14385966D01*
X6183836Y14385780D01*
X6184390Y14385504D01*
X6184945Y14385226D01*
X6185592Y14384949D01*
X6187072Y14384486D01*
X6187164D01*
X6187349Y14384395D01*
X6187719D01*
X6188181Y14384302D01*
X6188828Y14384210D01*
X6189568D01*
X6190585Y14384117D01*
X6201495D01*
Y14412502D01*
X6210001D01*
Y14348521D01*
D02*
G37*
G36*
X6149904Y14412408D02*
Y14412039D01*
Y14411484D01*
X6149812Y14410745D01*
X6149719Y14409914D01*
X6149535Y14408987D01*
X6149350Y14408063D01*
X6148980Y14407047D01*
Y14406953D01*
X6148887Y14406860D01*
X6148702Y14406306D01*
X6148333Y14405475D01*
X6147778Y14404366D01*
X6147038Y14403072D01*
X6146114Y14401591D01*
X6145097Y14400111D01*
X6143802Y14398540D01*
Y14398448D01*
X6143617Y14398357D01*
X6143155Y14397801D01*
X6142323Y14396970D01*
X6141121Y14395767D01*
X6139734Y14394380D01*
X6137978Y14392715D01*
X6135851Y14390868D01*
X6133540Y14388925D01*
X6133447Y14388834D01*
X6133077Y14388554D01*
X6132523Y14388094D01*
X6131875Y14387538D01*
X6131043Y14386800D01*
X6130026Y14385966D01*
X6129009Y14385042D01*
X6127807Y14384026D01*
X6125496Y14381805D01*
X6123185Y14379587D01*
X6122075Y14378477D01*
X6121058Y14377368D01*
X6120134Y14376350D01*
X6119394Y14375334D01*
Y14375243D01*
X6119209Y14375150D01*
X6119024Y14374872D01*
X6118839Y14374503D01*
X6118192Y14373485D01*
X6117452Y14372282D01*
X6116805Y14370804D01*
X6116158Y14369232D01*
X6115788Y14367474D01*
X6115603Y14365811D01*
Y14365720D01*
Y14365627D01*
X6115696Y14365071D01*
X6115788Y14364146D01*
X6116065Y14363130D01*
X6116435Y14361835D01*
X6117083Y14360541D01*
X6117915Y14359247D01*
X6119024Y14357951D01*
X6119209Y14357767D01*
X6119671Y14357397D01*
X6120318Y14356935D01*
X6121335Y14356288D01*
X6122630Y14355733D01*
X6124109Y14355179D01*
X6125866Y14354810D01*
X6127807Y14354716D01*
X6128362D01*
X6128732Y14354810D01*
X6129841Y14354901D01*
X6131136Y14355179D01*
X6132523Y14355548D01*
X6134094Y14356197D01*
X6135574Y14357028D01*
X6136961Y14358138D01*
X6137145Y14358322D01*
X6137515Y14358784D01*
X6138070Y14359525D01*
X6138625Y14360632D01*
X6139272Y14361928D01*
X6139827Y14363593D01*
X6140197Y14365440D01*
X6140381Y14367567D01*
X6148425Y14366736D01*
Y14366643D01*
X6148333Y14366367D01*
Y14365903D01*
X6148240Y14365256D01*
X6148055Y14364517D01*
X6147870Y14363686D01*
X6147593Y14362666D01*
X6147316Y14361650D01*
X6146576Y14359431D01*
X6145467Y14357213D01*
X6144819Y14356104D01*
X6143987Y14354994D01*
X6143155Y14353976D01*
X6142231Y14353052D01*
X6142138Y14352960D01*
X6141953Y14352867D01*
X6141676Y14352589D01*
X6141214Y14352312D01*
X6140659Y14351942D01*
X6140012Y14351573D01*
X6139272Y14351109D01*
X6138347Y14350648D01*
X6137330Y14350186D01*
X6136221Y14349724D01*
X6135019Y14349355D01*
X6133725Y14348984D01*
X6132338Y14348708D01*
X6130858Y14348428D01*
X6129287Y14348337D01*
X6127622Y14348244D01*
X6126698D01*
X6126051Y14348337D01*
X6125311Y14348428D01*
X6124387Y14348521D01*
X6123370Y14348708D01*
X6122353Y14348892D01*
X6119949Y14349539D01*
X6117545Y14350462D01*
X6116343Y14351018D01*
X6115141Y14351665D01*
X6114031Y14352496D01*
X6113014Y14353423D01*
X6112922Y14353514D01*
X6112737Y14353607D01*
X6112552Y14353976D01*
X6112182Y14354346D01*
X6111720Y14354810D01*
X6111258Y14355457D01*
X6110795Y14356104D01*
X6110241Y14356935D01*
X6109316Y14358691D01*
X6108392Y14360912D01*
X6108022Y14362019D01*
X6107837Y14363315D01*
X6107652Y14364609D01*
X6107560Y14365996D01*
Y14366180D01*
Y14366643D01*
X6107652Y14367383D01*
X6107744Y14368401D01*
X6107929Y14369508D01*
X6108299Y14370804D01*
X6108669Y14372189D01*
X6109224Y14373576D01*
X6109316Y14373763D01*
X6109501Y14374223D01*
X6109871Y14374963D01*
X6110426Y14375981D01*
X6111165Y14377090D01*
X6112090Y14378477D01*
X6113199Y14379865D01*
X6114494Y14381436D01*
X6114679Y14381621D01*
X6115141Y14382176D01*
X6115603Y14382639D01*
X6116065Y14383099D01*
X6116620Y14383655D01*
X6117360Y14384395D01*
X6118100Y14385133D01*
X6119024Y14385966D01*
X6119949Y14386891D01*
X6121058Y14387907D01*
X6122260Y14388925D01*
X6123554Y14390128D01*
X6125034Y14391328D01*
X6126513Y14392622D01*
X6126605Y14392715D01*
X6126790Y14392902D01*
X6127160Y14393178D01*
X6127622Y14393549D01*
X6128177Y14394102D01*
X6128824Y14394656D01*
X6130304Y14395859D01*
X6131875Y14397246D01*
X6133355Y14398633D01*
X6134649Y14399835D01*
X6135204Y14400298D01*
X6135666Y14400758D01*
X6135759Y14400851D01*
X6136036Y14401129D01*
X6136406Y14401498D01*
X6136868Y14402054D01*
X6137330Y14402701D01*
X6137885Y14403348D01*
X6138995Y14404919D01*
X6107467D01*
Y14412502D01*
X6149904D01*
Y14412408D01*
D02*
G37*
G36*
X3786478Y15187823D02*
X3786386Y15187083D01*
Y15186250D01*
X3786293Y15184309D01*
X3786016Y15182275D01*
X3785738Y15180057D01*
X3785276Y15178021D01*
X3784999Y15177005D01*
X3784721Y15176173D01*
Y15176080D01*
X3784629Y15175987D01*
X3784352Y15175433D01*
X3783982Y15174602D01*
X3783335Y15173584D01*
X3782502Y15172475D01*
X3781393Y15171272D01*
X3780099Y15170163D01*
X3778619Y15169054D01*
X3778527D01*
X3778434Y15168962D01*
X3777880Y15168591D01*
X3776955Y15168222D01*
X3775753Y15167667D01*
X3774366Y15167204D01*
X3772702Y15166743D01*
X3770945Y15166466D01*
X3769004Y15166373D01*
X3768911D01*
X3768727D01*
X3768357D01*
X3767894Y15166466D01*
X3767247D01*
X3766600Y15166557D01*
X3765028Y15166928D01*
X3763179Y15167482D01*
X3761238Y15168222D01*
X3759296Y15169331D01*
X3758371Y15170071D01*
X3757447Y15170811D01*
X3757354Y15170903D01*
X3757262Y15170996D01*
X3756985Y15171272D01*
X3756707Y15171643D01*
X3756337Y15172105D01*
X3755968Y15172659D01*
X3755505Y15173399D01*
X3754951Y15174139D01*
X3754488Y15175064D01*
X3754026Y15176080D01*
X3753471Y15177190D01*
X3753009Y15178392D01*
X3752639Y15179779D01*
X3752177Y15181166D01*
X3751900Y15182738D01*
X3751622Y15184402D01*
X3751530Y15184216D01*
X3751345Y15183847D01*
X3750975Y15183292D01*
X3750605Y15182553D01*
X3749588Y15180888D01*
X3748941Y15180057D01*
X3748386Y15179317D01*
X3748201Y15179132D01*
X3747739Y15178670D01*
X3746999Y15177930D01*
X3746075Y15177005D01*
X3744780Y15175987D01*
X3743394Y15174786D01*
X3741729Y15173584D01*
X3739880Y15172290D01*
X3722499Y15161288D01*
Y15171828D01*
X3735812Y15180241D01*
X3735905D01*
X3736090Y15180426D01*
X3736367Y15180611D01*
X3736737Y15180888D01*
X3737754Y15181535D01*
X3739048Y15182368D01*
X3740435Y15183385D01*
X3741914Y15184402D01*
X3743301Y15185419D01*
X3744596Y15186343D01*
X3744688Y15186436D01*
X3745058Y15186713D01*
X3745613Y15187175D01*
X3746260Y15187823D01*
X3747647Y15189209D01*
X3748294Y15189949D01*
X3748848Y15190689D01*
X3748941Y15190781D01*
X3749033Y15190965D01*
X3749218Y15191336D01*
X3749496Y15191891D01*
X3749773Y15192445D01*
X3750050Y15193092D01*
X3750513Y15194572D01*
Y15194664D01*
X3750605Y15194849D01*
Y15195219D01*
X3750698Y15195682D01*
X3750790Y15196329D01*
Y15197067D01*
X3750883Y15198085D01*
Y15208995D01*
X3722499D01*
Y15217500D01*
X3786478D01*
Y15187823D01*
D02*
G37*
G36*
X3724255Y15157312D02*
X3725087Y15157220D01*
X3726012Y15157034D01*
X3726936Y15156850D01*
X3727953Y15156480D01*
X3728046D01*
X3728138Y15156387D01*
X3728693Y15156203D01*
X3729525Y15155833D01*
X3730635Y15155278D01*
X3731929Y15154538D01*
X3733408Y15153613D01*
X3734888Y15152597D01*
X3736459Y15151302D01*
X3736552D01*
X3736644Y15151118D01*
X3737199Y15150655D01*
X3738031Y15149823D01*
X3739233Y15148621D01*
X3740620Y15147234D01*
X3742284Y15145477D01*
X3744133Y15143352D01*
X3746075Y15141040D01*
X3746167Y15140947D01*
X3746445Y15140578D01*
X3746907Y15140022D01*
X3747462Y15139375D01*
X3748201Y15138544D01*
X3749033Y15137526D01*
X3749958Y15136510D01*
X3750975Y15135307D01*
X3753194Y15132996D01*
X3755413Y15130685D01*
X3756522Y15129575D01*
X3757632Y15128558D01*
X3758649Y15127634D01*
X3759666Y15126894D01*
X3759758D01*
X3759851Y15126709D01*
X3760128Y15126524D01*
X3760498Y15126340D01*
X3761515Y15125693D01*
X3762717Y15124953D01*
X3764196Y15124306D01*
X3765768Y15123659D01*
X3767525Y15123288D01*
X3769189Y15123103D01*
X3769281D01*
X3769374D01*
X3769928Y15123196D01*
X3770853Y15123288D01*
X3771870Y15123566D01*
X3773164Y15123935D01*
X3774459Y15124583D01*
X3775753Y15125415D01*
X3777048Y15126524D01*
X3777232Y15126709D01*
X3777602Y15127171D01*
X3778065Y15127818D01*
X3778712Y15128836D01*
X3779267Y15130130D01*
X3779821Y15131609D01*
X3780191Y15133366D01*
X3780284Y15135307D01*
Y15135863D01*
X3780191Y15136232D01*
X3780099Y15137341D01*
X3779821Y15138635D01*
X3779451Y15140022D01*
X3778804Y15141595D01*
X3777972Y15143074D01*
X3776863Y15144461D01*
X3776678Y15144646D01*
X3776215Y15145015D01*
X3775476Y15145570D01*
X3774366Y15146124D01*
X3773072Y15146771D01*
X3771408Y15147327D01*
X3769559Y15147697D01*
X3767432Y15147882D01*
X3768264Y15155925D01*
X3768357D01*
X3768634Y15155833D01*
X3769096D01*
X3769744Y15155740D01*
X3770483Y15155556D01*
X3771315Y15155371D01*
X3772332Y15155093D01*
X3773349Y15154816D01*
X3775568Y15154076D01*
X3777787Y15152966D01*
X3778897Y15152319D01*
X3780006Y15151488D01*
X3781023Y15150655D01*
X3781948Y15149731D01*
X3782040Y15149638D01*
X3782133Y15149454D01*
X3782410Y15149176D01*
X3782687Y15148714D01*
X3783057Y15148158D01*
X3783427Y15147511D01*
X3783889Y15146771D01*
X3784352Y15145848D01*
X3784814Y15144830D01*
X3785276Y15143721D01*
X3785646Y15142519D01*
X3786016Y15141225D01*
X3786293Y15139838D01*
X3786571Y15138359D01*
X3786663Y15136787D01*
X3786755Y15135123D01*
Y15134198D01*
X3786663Y15133551D01*
X3786571Y15132811D01*
X3786478Y15131886D01*
X3786293Y15130870D01*
X3786108Y15129852D01*
X3785461Y15127449D01*
X3784536Y15125044D01*
X3783982Y15123843D01*
X3783335Y15122641D01*
X3782502Y15121532D01*
X3781578Y15120515D01*
X3781485Y15120422D01*
X3781393Y15120238D01*
X3781023Y15120052D01*
X3780653Y15119682D01*
X3780191Y15119220D01*
X3779544Y15118758D01*
X3778897Y15118295D01*
X3778065Y15117741D01*
X3776308Y15116817D01*
X3774089Y15115892D01*
X3772980Y15115521D01*
X3771685Y15115337D01*
X3770391Y15115152D01*
X3769004Y15115060D01*
X3768819D01*
X3768357D01*
X3767617Y15115152D01*
X3766600Y15115245D01*
X3765491Y15115430D01*
X3764196Y15115799D01*
X3762809Y15116170D01*
X3761422Y15116724D01*
X3761238Y15116817D01*
X3760775Y15117001D01*
X3760036Y15117371D01*
X3759019Y15117926D01*
X3757909Y15118665D01*
X3756522Y15119591D01*
X3755135Y15120700D01*
X3753564Y15121994D01*
X3753379Y15122179D01*
X3752824Y15122641D01*
X3752362Y15123103D01*
X3751900Y15123566D01*
X3751345Y15124120D01*
X3750605Y15124860D01*
X3749865Y15125600D01*
X3749033Y15126524D01*
X3748109Y15127449D01*
X3747092Y15128558D01*
X3746075Y15129761D01*
X3744873Y15131055D01*
X3743671Y15132533D01*
X3742377Y15134013D01*
X3742284Y15134106D01*
X3742099Y15134291D01*
X3741822Y15134660D01*
X3741452Y15135123D01*
X3740897Y15135677D01*
X3740343Y15136325D01*
X3739141Y15137804D01*
X3737754Y15139375D01*
X3736367Y15140855D01*
X3735165Y15142149D01*
X3734703Y15142703D01*
X3734240Y15143166D01*
X3734148Y15143259D01*
X3733871Y15143536D01*
X3733501Y15143906D01*
X3732946Y15144368D01*
X3732299Y15144830D01*
X3731652Y15145386D01*
X3730080Y15146495D01*
Y15114967D01*
X3722499D01*
Y15157405D01*
X3722591D01*
X3722961D01*
X3723516D01*
X3724255Y15157312D01*
D02*
G37*
G36*
X3770668Y15100452D02*
X3770853Y15100267D01*
X3770945Y15099896D01*
X3771223Y15099435D01*
X3771500Y15098880D01*
X3771870Y15098233D01*
X3772795Y15096661D01*
X3773812Y15094812D01*
X3775106Y15092963D01*
X3776585Y15091022D01*
X3778157Y15089079D01*
X3778249Y15088988D01*
X3778342Y15088895D01*
X3778619Y15088617D01*
X3778897Y15088248D01*
X3779821Y15087415D01*
X3780931Y15086307D01*
X3782225Y15085196D01*
X3783704Y15083994D01*
X3785184Y15082977D01*
X3786755Y15082053D01*
Y15076968D01*
X3722499D01*
Y15084827D01*
X3772517D01*
X3772425Y15084920D01*
X3772055Y15085381D01*
X3771500Y15085936D01*
X3770853Y15086861D01*
X3770021Y15087878D01*
X3769096Y15089172D01*
X3768079Y15090651D01*
X3767062Y15092316D01*
Y15092409D01*
X3766970Y15092500D01*
X3766600Y15093056D01*
X3766138Y15093980D01*
X3765583Y15095090D01*
X3764936Y15096384D01*
X3764289Y15097771D01*
X3763641Y15099158D01*
X3763087Y15100545D01*
X3770668D01*
Y15100452D01*
D02*
G37*
G36*
X5665301Y12562432D02*
X5615282D01*
X5615375Y12562339D01*
X5615745Y12561877D01*
X5616299Y12561322D01*
X5616947Y12560398D01*
X5617779Y12559381D01*
X5618703Y12558086D01*
X5619720Y12556607D01*
X5620737Y12554943D01*
Y12554850D01*
X5620830Y12554758D01*
X5621200Y12554203D01*
X5621662Y12553278D01*
X5622217Y12552169D01*
X5622864Y12550875D01*
X5623511Y12549488D01*
X5624158Y12548101D01*
X5624713Y12546714D01*
X5617132D01*
Y12546807D01*
X5616947Y12546991D01*
X5616854Y12547361D01*
X5616577Y12547824D01*
X5616299Y12548378D01*
X5615930Y12549025D01*
X5615005Y12550597D01*
X5613988Y12552446D01*
X5612694Y12554295D01*
X5611214Y12556237D01*
X5609643Y12558179D01*
X5609550Y12558271D01*
X5609458Y12558364D01*
X5609180Y12558641D01*
X5608903Y12559011D01*
X5607978Y12559843D01*
X5606869Y12560952D01*
X5605575Y12562062D01*
X5604095Y12563264D01*
X5602616Y12564281D01*
X5601044Y12565205D01*
Y12570290D01*
X5665301D01*
Y12562432D01*
D02*
G37*
G36*
Y12525172D02*
X5651987Y12516758D01*
X5651895D01*
X5651710Y12516573D01*
X5651433Y12516388D01*
X5651063Y12516111D01*
X5650046Y12515464D01*
X5648751Y12514632D01*
X5647365Y12513615D01*
X5645885Y12512598D01*
X5644498Y12511581D01*
X5643204Y12510656D01*
X5643112Y12510564D01*
X5642742Y12510286D01*
X5642187Y12509824D01*
X5641540Y12509177D01*
X5640153Y12507790D01*
X5639506Y12507050D01*
X5638951Y12506311D01*
X5638859Y12506218D01*
X5638766Y12506033D01*
X5638581Y12505664D01*
X5638304Y12505109D01*
X5638027Y12504554D01*
X5637749Y12503907D01*
X5637287Y12502428D01*
Y12502335D01*
X5637194Y12502150D01*
Y12501780D01*
X5637102Y12501318D01*
X5637010Y12500671D01*
Y12499931D01*
X5636917Y12498914D01*
Y12488004D01*
X5665301D01*
Y12479499D01*
X5601322D01*
Y12509177D01*
X5601414Y12509917D01*
Y12510749D01*
X5601506Y12512690D01*
X5601784Y12514724D01*
X5602061Y12516943D01*
X5602523Y12518977D01*
X5602801Y12519994D01*
X5603078Y12520826D01*
Y12520919D01*
X5603171Y12521011D01*
X5603448Y12521566D01*
X5603818Y12522398D01*
X5604465Y12523415D01*
X5605297Y12524525D01*
X5606407Y12525727D01*
X5607701Y12526836D01*
X5609180Y12527945D01*
X5609273D01*
X5609365Y12528038D01*
X5609920Y12528408D01*
X5610845Y12528778D01*
X5612046Y12529332D01*
X5613433Y12529795D01*
X5615097Y12530257D01*
X5616854Y12530534D01*
X5618796Y12530627D01*
X5618888D01*
X5619073D01*
X5619443D01*
X5619905Y12530534D01*
X5620552D01*
X5621200Y12530442D01*
X5622771Y12530072D01*
X5624620Y12529517D01*
X5626562Y12528778D01*
X5628504Y12527668D01*
X5629428Y12526928D01*
X5630353Y12526189D01*
X5630445Y12526096D01*
X5630538Y12526004D01*
X5630815Y12525727D01*
X5631092Y12525357D01*
X5631462Y12524894D01*
X5631832Y12524340D01*
X5632294Y12523600D01*
X5632849Y12522860D01*
X5633311Y12521936D01*
X5633774Y12520919D01*
X5634328Y12519809D01*
X5634791Y12518607D01*
X5635160Y12517221D01*
X5635623Y12515834D01*
X5635900Y12514262D01*
X5636177Y12512598D01*
X5636270Y12512783D01*
X5636455Y12513153D01*
X5636825Y12513707D01*
X5637194Y12514447D01*
X5638211Y12516111D01*
X5638859Y12516943D01*
X5639413Y12517683D01*
X5639598Y12517868D01*
X5640061Y12518330D01*
X5640800Y12519070D01*
X5641725Y12519994D01*
X5643019Y12521011D01*
X5644406Y12522213D01*
X5646070Y12523415D01*
X5647919Y12524710D01*
X5665301Y12535712D01*
Y12525172D01*
D02*
G37*
G36*
X3631063Y8972819D02*
X3631988D01*
X3632912Y8972727D01*
X3634114Y8972634D01*
X3635316Y8972449D01*
X3637997Y8971987D01*
X3640956Y8971340D01*
X3643914Y8970415D01*
X3646781Y8969121D01*
X3646873Y8969029D01*
X3647150Y8968936D01*
X3647520Y8968751D01*
X3647983Y8968381D01*
X3648630Y8968012D01*
X3649369Y8967549D01*
X3651034Y8966347D01*
X3652883Y8964776D01*
X3654732Y8962926D01*
X3656581Y8960800D01*
X3658153Y8958304D01*
X3658245Y8958211D01*
X3658338Y8957934D01*
X3658523Y8957564D01*
X3658800Y8957102D01*
X3659077Y8956362D01*
X3659355Y8955622D01*
X3659724Y8954698D01*
X3660094Y8953681D01*
X3660464Y8952571D01*
X3660834Y8951369D01*
X3661389Y8948781D01*
X3661851Y8945822D01*
X3662036Y8942771D01*
Y8941846D01*
X3661943Y8941199D01*
X3661851Y8940367D01*
X3661758Y8939350D01*
X3661666Y8938333D01*
X3661389Y8937131D01*
X3660834Y8934635D01*
X3660002Y8931861D01*
X3659447Y8930474D01*
X3658800Y8929180D01*
X3657968Y8927886D01*
X3657136Y8926591D01*
X3657043Y8926499D01*
X3656951Y8926314D01*
X3656673Y8925944D01*
X3656211Y8925482D01*
X3655749Y8925019D01*
X3655102Y8924372D01*
X3654362Y8923725D01*
X3653622Y8922985D01*
X3652698Y8922246D01*
X3651588Y8921506D01*
X3650479Y8920674D01*
X3649277Y8919934D01*
X3647890Y8919287D01*
X3646503Y8918548D01*
X3645024Y8917993D01*
X3643360Y8917438D01*
X3641418Y8925759D01*
X3641511D01*
X3641696Y8925852D01*
X3642065Y8926037D01*
X3642528Y8926221D01*
X3643082Y8926406D01*
X3643822Y8926684D01*
X3645301Y8927423D01*
X3646966Y8928348D01*
X3648630Y8929457D01*
X3650201Y8930844D01*
X3651588Y8932324D01*
X3651773Y8932508D01*
X3652143Y8933063D01*
X3652605Y8933988D01*
X3653253Y8935190D01*
X3653807Y8936761D01*
X3654362Y8938518D01*
X3654732Y8940645D01*
X3654824Y8942956D01*
Y8943696D01*
X3654732Y8944158D01*
Y8944805D01*
X3654639Y8945545D01*
X3654362Y8947301D01*
X3653992Y8949243D01*
X3653345Y8951277D01*
X3652420Y8953403D01*
X3651219Y8955345D01*
Y8955438D01*
X3651034Y8955530D01*
X3650571Y8956177D01*
X3649832Y8957009D01*
X3648722Y8958026D01*
X3647335Y8959228D01*
X3645764Y8960338D01*
X3643822Y8961355D01*
X3641696Y8962279D01*
X3641603D01*
X3641418Y8962372D01*
X3641141Y8962464D01*
X3640679Y8962557D01*
X3640124Y8962742D01*
X3639477Y8962926D01*
X3637905Y8963204D01*
X3636056Y8963574D01*
X3634022Y8963943D01*
X3631803Y8964128D01*
X3629399Y8964221D01*
X3629306D01*
X3629029D01*
X3628567D01*
X3628012D01*
X3627365Y8964128D01*
X3626533D01*
X3625608Y8964036D01*
X3624591Y8963943D01*
X3622372Y8963666D01*
X3619968Y8963204D01*
X3617565Y8962649D01*
X3615161Y8961909D01*
X3615068D01*
X3614883Y8961817D01*
X3614606Y8961632D01*
X3614144Y8961447D01*
X3613034Y8960892D01*
X3611740Y8960060D01*
X3610260Y8959043D01*
X3608689Y8957749D01*
X3607302Y8956270D01*
X3606008Y8954513D01*
Y8954420D01*
X3605915Y8954236D01*
X3605730Y8953958D01*
X3605545Y8953588D01*
X3605360Y8953126D01*
X3605083Y8952571D01*
X3604528Y8951277D01*
X3603973Y8949613D01*
X3603511Y8947764D01*
X3603141Y8945730D01*
X3603049Y8943603D01*
Y8942956D01*
X3603141Y8942401D01*
Y8941754D01*
X3603234Y8941107D01*
X3603604Y8939443D01*
X3604066Y8937501D01*
X3604806Y8935559D01*
X3605823Y8933525D01*
X3606377Y8932508D01*
X3607117Y8931584D01*
X3607209Y8931491D01*
X3607302Y8931399D01*
X3607579Y8931122D01*
X3607857Y8930752D01*
X3608319Y8930382D01*
X3608874Y8929920D01*
X3609428Y8929365D01*
X3610168Y8928903D01*
X3611000Y8928348D01*
X3611925Y8927701D01*
X3612849Y8927146D01*
X3613959Y8926591D01*
X3615161Y8926129D01*
X3616455Y8925667D01*
X3617842Y8925204D01*
X3619321Y8924835D01*
X3617195Y8916329D01*
X3617102D01*
X3616732Y8916421D01*
X3616178Y8916606D01*
X3615438Y8916883D01*
X3614606Y8917161D01*
X3613589Y8917531D01*
X3612479Y8917993D01*
X3611278Y8918548D01*
X3608689Y8919842D01*
X3606100Y8921506D01*
X3604806Y8922523D01*
X3603511Y8923540D01*
X3602402Y8924650D01*
X3601292Y8925944D01*
X3601200Y8926037D01*
X3601015Y8926221D01*
X3600830Y8926684D01*
X3600460Y8927146D01*
X3599998Y8927886D01*
X3599536Y8928625D01*
X3599073Y8929642D01*
X3598611Y8930659D01*
X3598056Y8931861D01*
X3597594Y8933156D01*
X3597132Y8934542D01*
X3596669Y8936022D01*
X3596300Y8937594D01*
X3596115Y8939258D01*
X3595930Y8941014D01*
X3595837Y8942863D01*
Y8943881D01*
X3595930Y8944620D01*
Y8945452D01*
X3596022Y8946469D01*
X3596207Y8947579D01*
X3596392Y8948873D01*
X3596854Y8951554D01*
X3597594Y8954328D01*
X3598611Y8957102D01*
X3599258Y8958396D01*
X3599998Y8959690D01*
X3600090Y8959783D01*
X3600183Y8959968D01*
X3600460Y8960338D01*
X3600830Y8960708D01*
X3601200Y8961262D01*
X3601755Y8961909D01*
X3602402Y8962649D01*
X3603141Y8963389D01*
X3603973Y8964128D01*
X3604806Y8964960D01*
X3606932Y8966625D01*
X3609428Y8968196D01*
X3612202Y8969583D01*
X3612295D01*
X3612572Y8969768D01*
X3613034Y8969861D01*
X3613589Y8970138D01*
X3614329Y8970323D01*
X3615253Y8970600D01*
X3616270Y8970970D01*
X3617380Y8971247D01*
X3618582Y8971525D01*
X3619968Y8971895D01*
X3622835Y8972357D01*
X3626070Y8972727D01*
X3629399Y8972912D01*
X3629491D01*
X3629861D01*
X3630416D01*
X3631063Y8972819D01*
D02*
G37*
G36*
X3645116Y8903015D02*
X3645301Y8902830D01*
X3645394Y8902460D01*
X3645671Y8901998D01*
X3645949Y8901443D01*
X3646318Y8900796D01*
X3647243Y8899224D01*
X3648260Y8897375D01*
X3649554Y8895526D01*
X3651034Y8893584D01*
X3652605Y8891643D01*
X3652698Y8891550D01*
X3652790Y8891458D01*
X3653068Y8891181D01*
X3653345Y8890811D01*
X3654270Y8889979D01*
X3655379Y8888869D01*
X3656673Y8887760D01*
X3658153Y8886558D01*
X3659632Y8885541D01*
X3661204Y8884616D01*
Y8879531D01*
X3596947D01*
Y8887390D01*
X3646966D01*
X3646873Y8887482D01*
X3646503Y8887945D01*
X3645949Y8888499D01*
X3645301Y8889424D01*
X3644469Y8890441D01*
X3643545Y8891735D01*
X3642528Y8893215D01*
X3641511Y8894879D01*
Y8894971D01*
X3641418Y8895064D01*
X3641048Y8895618D01*
X3640586Y8896543D01*
X3640031Y8897653D01*
X3639384Y8898947D01*
X3638737Y8900334D01*
X3638090Y8901721D01*
X3637535Y8903107D01*
X3645116D01*
Y8903015D01*
D02*
G37*
G36*
Y8853274D02*
X3645301Y8853089D01*
X3645394Y8852719D01*
X3645671Y8852257D01*
X3645949Y8851702D01*
X3646318Y8851055D01*
X3647243Y8849483D01*
X3648260Y8847634D01*
X3649554Y8845785D01*
X3651034Y8843843D01*
X3652605Y8841902D01*
X3652698Y8841809D01*
X3652790Y8841717D01*
X3653068Y8841439D01*
X3653345Y8841069D01*
X3654270Y8840237D01*
X3655379Y8839128D01*
X3656673Y8838018D01*
X3658153Y8836816D01*
X3659632Y8835799D01*
X3661204Y8834875D01*
Y8829790D01*
X3596947D01*
Y8837649D01*
X3646966D01*
X3646873Y8837741D01*
X3646503Y8838203D01*
X3645949Y8838758D01*
X3645301Y8839683D01*
X3644469Y8840700D01*
X3643545Y8841994D01*
X3642528Y8843473D01*
X3641511Y8845138D01*
Y8845230D01*
X3641418Y8845322D01*
X3641048Y8845877D01*
X3640586Y8846802D01*
X3640031Y8847911D01*
X3639384Y8849206D01*
X3638737Y8850592D01*
X3638090Y8851979D01*
X3637535Y8853366D01*
X3645116D01*
Y8853274D01*
D02*
G37*
G36*
X3392588Y15187823D02*
X3392495Y15187083D01*
Y15186250D01*
X3392403Y15184309D01*
X3392125Y15182275D01*
X3391848Y15180057D01*
X3391386Y15178021D01*
X3391108Y15177005D01*
X3390831Y15176173D01*
Y15176080D01*
X3390738Y15175987D01*
X3390461Y15175433D01*
X3390091Y15174602D01*
X3389444Y15173584D01*
X3388612Y15172475D01*
X3387502Y15171272D01*
X3386208Y15170163D01*
X3384729Y15169054D01*
X3384636D01*
X3384544Y15168962D01*
X3383989Y15168591D01*
X3383065Y15168222D01*
X3381863Y15167667D01*
X3380476Y15167204D01*
X3378812Y15166743D01*
X3377055Y15166466D01*
X3375113Y15166373D01*
X3375021D01*
X3374836D01*
X3374466D01*
X3374004Y15166466D01*
X3373357D01*
X3372710Y15166557D01*
X3371138Y15166928D01*
X3369289Y15167482D01*
X3367347Y15168222D01*
X3365406Y15169331D01*
X3364481Y15170071D01*
X3363556Y15170811D01*
X3363464Y15170903D01*
X3363371Y15170996D01*
X3363094Y15171272D01*
X3362817Y15171643D01*
X3362447Y15172105D01*
X3362077Y15172659D01*
X3361615Y15173399D01*
X3361060Y15174139D01*
X3360598Y15175064D01*
X3360136Y15176080D01*
X3359581Y15177190D01*
X3359119Y15178392D01*
X3358749Y15179779D01*
X3358286Y15181166D01*
X3358009Y15182738D01*
X3357732Y15184402D01*
X3357639Y15184216D01*
X3357454Y15183847D01*
X3357084Y15183292D01*
X3356715Y15182553D01*
X3355698Y15180888D01*
X3355050Y15180057D01*
X3354496Y15179317D01*
X3354311Y15179132D01*
X3353849Y15178670D01*
X3353109Y15177930D01*
X3352184Y15177005D01*
X3350890Y15175987D01*
X3349503Y15174786D01*
X3347839Y15173584D01*
X3345990Y15172290D01*
X3328608Y15161288D01*
Y15171828D01*
X3341922Y15180241D01*
X3342014D01*
X3342199Y15180426D01*
X3342476Y15180611D01*
X3342846Y15180888D01*
X3343863Y15181535D01*
X3345158Y15182368D01*
X3346544Y15183385D01*
X3348024Y15184402D01*
X3349411Y15185419D01*
X3350705Y15186343D01*
X3350797Y15186436D01*
X3351167Y15186713D01*
X3351722Y15187175D01*
X3352369Y15187823D01*
X3353756Y15189209D01*
X3354403Y15189949D01*
X3354958Y15190689D01*
X3355050Y15190781D01*
X3355143Y15190965D01*
X3355328Y15191336D01*
X3355605Y15191891D01*
X3355883Y15192445D01*
X3356160Y15193092D01*
X3356622Y15194572D01*
Y15194664D01*
X3356715Y15194849D01*
Y15195219D01*
X3356807Y15195682D01*
X3356900Y15196329D01*
Y15197067D01*
X3356992Y15198085D01*
Y15208995D01*
X3328608D01*
Y15217500D01*
X3392588D01*
Y15187823D01*
D02*
G37*
G36*
X3330365Y15157312D02*
X3331197Y15157220D01*
X3332121Y15157034D01*
X3333046Y15156850D01*
X3334063Y15156480D01*
X3334155D01*
X3334248Y15156387D01*
X3334803Y15156203D01*
X3335635Y15155833D01*
X3336744Y15155278D01*
X3338039Y15154538D01*
X3339518Y15153613D01*
X3340997Y15152597D01*
X3342569Y15151302D01*
X3342661D01*
X3342754Y15151118D01*
X3343309Y15150655D01*
X3344141Y15149823D01*
X3345343Y15148621D01*
X3346729Y15147234D01*
X3348394Y15145477D01*
X3350243Y15143352D01*
X3352184Y15141040D01*
X3352277Y15140947D01*
X3352554Y15140578D01*
X3353016Y15140022D01*
X3353571Y15139375D01*
X3354311Y15138544D01*
X3355143Y15137526D01*
X3356067Y15136510D01*
X3357084Y15135307D01*
X3359303Y15132996D01*
X3361522Y15130685D01*
X3362632Y15129575D01*
X3363741Y15128558D01*
X3364758Y15127634D01*
X3365775Y15126894D01*
X3365868D01*
X3365960Y15126709D01*
X3366238Y15126524D01*
X3366607Y15126340D01*
X3367624Y15125693D01*
X3368826Y15124953D01*
X3370306Y15124306D01*
X3371877Y15123659D01*
X3373634Y15123288D01*
X3375298Y15123103D01*
X3375391D01*
X3375483D01*
X3376038Y15123196D01*
X3376963Y15123288D01*
X3377980Y15123566D01*
X3379274Y15123935D01*
X3380568Y15124583D01*
X3381863Y15125415D01*
X3383157Y15126524D01*
X3383342Y15126709D01*
X3383712Y15127171D01*
X3384174Y15127818D01*
X3384821Y15128836D01*
X3385376Y15130130D01*
X3385931Y15131609D01*
X3386301Y15133366D01*
X3386393Y15135307D01*
Y15135863D01*
X3386301Y15136232D01*
X3386208Y15137341D01*
X3385931Y15138635D01*
X3385561Y15140022D01*
X3384914Y15141595D01*
X3384082Y15143074D01*
X3382972Y15144461D01*
X3382787Y15144646D01*
X3382325Y15145015D01*
X3381585Y15145570D01*
X3380476Y15146124D01*
X3379181Y15146771D01*
X3377517Y15147327D01*
X3375668Y15147697D01*
X3373542Y15147882D01*
X3374374Y15155925D01*
X3374466D01*
X3374744Y15155833D01*
X3375206D01*
X3375853Y15155740D01*
X3376593Y15155556D01*
X3377425Y15155371D01*
X3378442Y15155093D01*
X3379459Y15154816D01*
X3381678Y15154076D01*
X3383897Y15152966D01*
X3385006Y15152319D01*
X3386116Y15151488D01*
X3387133Y15150655D01*
X3388057Y15149731D01*
X3388150Y15149638D01*
X3388242Y15149454D01*
X3388520Y15149176D01*
X3388797Y15148714D01*
X3389167Y15148158D01*
X3389537Y15147511D01*
X3389999Y15146771D01*
X3390461Y15145848D01*
X3390923Y15144830D01*
X3391386Y15143721D01*
X3391755Y15142519D01*
X3392125Y15141225D01*
X3392403Y15139838D01*
X3392680Y15138359D01*
X3392772Y15136787D01*
X3392865Y15135123D01*
Y15134198D01*
X3392772Y15133551D01*
X3392680Y15132811D01*
X3392588Y15131886D01*
X3392403Y15130870D01*
X3392218Y15129852D01*
X3391571Y15127449D01*
X3390646Y15125044D01*
X3390091Y15123843D01*
X3389444Y15122641D01*
X3388612Y15121532D01*
X3387687Y15120515D01*
X3387595Y15120422D01*
X3387502Y15120238D01*
X3387133Y15120052D01*
X3386763Y15119682D01*
X3386301Y15119220D01*
X3385653Y15118758D01*
X3385006Y15118295D01*
X3384174Y15117741D01*
X3382417Y15116817D01*
X3380198Y15115892D01*
X3379089Y15115521D01*
X3377795Y15115337D01*
X3376500Y15115152D01*
X3375113Y15115060D01*
X3374928D01*
X3374466D01*
X3373727Y15115152D01*
X3372710Y15115245D01*
X3371600Y15115430D01*
X3370306Y15115799D01*
X3368919Y15116170D01*
X3367532Y15116724D01*
X3367347Y15116817D01*
X3366885Y15117001D01*
X3366145Y15117371D01*
X3365128Y15117926D01*
X3364019Y15118665D01*
X3362632Y15119591D01*
X3361245Y15120700D01*
X3359673Y15121994D01*
X3359488Y15122179D01*
X3358934Y15122641D01*
X3358471Y15123103D01*
X3358009Y15123566D01*
X3357454Y15124120D01*
X3356715Y15124860D01*
X3355975Y15125600D01*
X3355143Y15126524D01*
X3354218Y15127449D01*
X3353201Y15128558D01*
X3352184Y15129761D01*
X3350982Y15131055D01*
X3349780Y15132533D01*
X3348486Y15134013D01*
X3348394Y15134106D01*
X3348209Y15134291D01*
X3347931Y15134660D01*
X3347562Y15135123D01*
X3347007Y15135677D01*
X3346452Y15136325D01*
X3345250Y15137804D01*
X3343863Y15139375D01*
X3342476Y15140855D01*
X3341274Y15142149D01*
X3340812Y15142703D01*
X3340350Y15143166D01*
X3340257Y15143259D01*
X3339980Y15143536D01*
X3339610Y15143906D01*
X3339056Y15144368D01*
X3338408Y15144830D01*
X3337761Y15145386D01*
X3336189Y15146495D01*
Y15114967D01*
X3328608D01*
Y15157405D01*
X3328700D01*
X3329070D01*
X3329625D01*
X3330365Y15157312D01*
D02*
G37*
G36*
X3346544Y15098602D02*
X3346452D01*
X3346267Y15098511D01*
X3345897Y15098418D01*
X3345435Y15098325D01*
X3344880Y15098233D01*
X3344233Y15098048D01*
X3342846Y15097586D01*
X3341182Y15096938D01*
X3339610Y15096106D01*
X3338131Y15095181D01*
X3336837Y15094072D01*
X3336744Y15093887D01*
X3336374Y15093517D01*
X3335912Y15092778D01*
X3335450Y15091853D01*
X3334895Y15090744D01*
X3334433Y15089357D01*
X3334063Y15087785D01*
X3333970Y15086121D01*
Y15085567D01*
X3334063Y15085196D01*
X3334155Y15084180D01*
X3334433Y15082886D01*
X3334895Y15081406D01*
X3335542Y15079834D01*
X3336467Y15078262D01*
X3337761Y15076784D01*
X3337946Y15076598D01*
X3338501Y15076135D01*
X3339333Y15075581D01*
X3340442Y15074841D01*
X3341829Y15074101D01*
X3343401Y15073547D01*
X3345250Y15073085D01*
X3347284Y15072900D01*
X3347377D01*
X3347562D01*
X3347839D01*
X3348209Y15072992D01*
X3349226Y15073085D01*
X3350428Y15073363D01*
X3351907Y15073732D01*
X3353386Y15074379D01*
X3354866Y15075304D01*
X3356252Y15076506D01*
X3356437Y15076691D01*
X3356807Y15077153D01*
X3357362Y15077892D01*
X3358009Y15078909D01*
X3358656Y15080203D01*
X3359211Y15081776D01*
X3359581Y15083533D01*
X3359766Y15085474D01*
Y15086307D01*
X3359673Y15086954D01*
X3359581Y15087785D01*
X3359396Y15088710D01*
X3359211Y15089819D01*
X3358934Y15091022D01*
X3365868Y15090097D01*
Y15089635D01*
X3365775Y15089264D01*
Y15088063D01*
X3365960Y15087045D01*
X3366145Y15085844D01*
X3366423Y15084457D01*
X3366885Y15082886D01*
X3367532Y15081406D01*
X3368364Y15079834D01*
Y15079741D01*
X3368457Y15079649D01*
X3368826Y15079187D01*
X3369474Y15078540D01*
X3370306Y15077800D01*
X3371508Y15077060D01*
X3372894Y15076413D01*
X3374466Y15075951D01*
X3375391Y15075766D01*
X3376408D01*
X3376500D01*
X3376593D01*
X3377147D01*
X3377887Y15075951D01*
X3378904Y15076135D01*
X3380014Y15076506D01*
X3381215Y15076968D01*
X3382417Y15077707D01*
X3383527Y15078725D01*
X3383619Y15078818D01*
X3383989Y15079279D01*
X3384451Y15079926D01*
X3385006Y15080759D01*
X3385468Y15081868D01*
X3385931Y15083162D01*
X3386301Y15084642D01*
X3386393Y15086307D01*
Y15087045D01*
X3386208Y15087878D01*
X3386023Y15088988D01*
X3385653Y15090189D01*
X3385191Y15091391D01*
X3384451Y15092685D01*
X3383527Y15093887D01*
X3383434Y15093980D01*
X3382972Y15094350D01*
X3382325Y15094904D01*
X3381400Y15095551D01*
X3380198Y15096199D01*
X3378719Y15096846D01*
X3376963Y15097401D01*
X3374928Y15097771D01*
X3376315Y15105629D01*
X3376408D01*
X3376685Y15105537D01*
X3377055Y15105444D01*
X3377610Y15105351D01*
X3378257Y15105167D01*
X3378997Y15104890D01*
X3380753Y15104335D01*
X3382787Y15103410D01*
X3384821Y15102301D01*
X3386763Y15100914D01*
X3388520Y15099158D01*
X3388612Y15099065D01*
X3388704Y15098880D01*
X3388889Y15098602D01*
X3389167Y15098233D01*
X3389537Y15097771D01*
X3389906Y15097124D01*
X3390276Y15096477D01*
X3390738Y15095644D01*
X3391478Y15093794D01*
X3392218Y15091669D01*
X3392680Y15089172D01*
X3392865Y15087878D01*
Y15085567D01*
X3392772Y15084549D01*
X3392588Y15083347D01*
X3392310Y15081868D01*
X3391848Y15080203D01*
X3391293Y15078540D01*
X3390554Y15076875D01*
Y15076784D01*
X3390461Y15076691D01*
X3390184Y15076135D01*
X3389629Y15075304D01*
X3388982Y15074379D01*
X3388057Y15073270D01*
X3387040Y15072160D01*
X3385838Y15071051D01*
X3384451Y15070126D01*
X3384267Y15070033D01*
X3383804Y15069756D01*
X3382972Y15069386D01*
X3381955Y15068924D01*
X3380753Y15068462D01*
X3379366Y15068092D01*
X3377795Y15067815D01*
X3376223Y15067722D01*
X3376038D01*
X3375483D01*
X3374744Y15067815D01*
X3373727Y15067999D01*
X3372525Y15068277D01*
X3371230Y15068739D01*
X3369936Y15069295D01*
X3368641Y15070033D01*
X3368457Y15070126D01*
X3368087Y15070403D01*
X3367440Y15070958D01*
X3366700Y15071698D01*
X3365868Y15072623D01*
X3364943Y15073732D01*
X3364111Y15075026D01*
X3363279Y15076598D01*
Y15076506D01*
X3363187Y15076321D01*
X3363094Y15076044D01*
X3363002Y15075673D01*
X3362632Y15074657D01*
X3362077Y15073363D01*
X3361337Y15071883D01*
X3360413Y15070403D01*
X3359211Y15069017D01*
X3357824Y15067722D01*
X3357639Y15067630D01*
X3357084Y15067261D01*
X3356160Y15066705D01*
X3354958Y15066150D01*
X3353479Y15065596D01*
X3351722Y15065041D01*
X3349688Y15064671D01*
X3347469Y15064578D01*
X3347377D01*
X3347099D01*
X3346637D01*
X3346082Y15064671D01*
X3345343Y15064764D01*
X3344510Y15064949D01*
X3343586Y15065134D01*
X3342569Y15065318D01*
X3340350Y15066058D01*
X3339148Y15066612D01*
X3338039Y15067168D01*
X3336837Y15067908D01*
X3335635Y15068739D01*
X3334433Y15069664D01*
X3333323Y15070773D01*
X3333231Y15070866D01*
X3333046Y15071051D01*
X3332769Y15071420D01*
X3332399Y15071883D01*
X3331936Y15072437D01*
X3331474Y15073177D01*
X3330919Y15074010D01*
X3330457Y15075026D01*
X3329902Y15076044D01*
X3329348Y15077245D01*
X3328885Y15078447D01*
X3328423Y15079834D01*
X3328053Y15081313D01*
X3327776Y15082886D01*
X3327591Y15084457D01*
X3327499Y15086214D01*
Y15087045D01*
X3327591Y15087601D01*
X3327683Y15088341D01*
X3327776Y15089172D01*
X3327961Y15090097D01*
X3328146Y15091113D01*
X3328700Y15093333D01*
X3329625Y15095644D01*
X3330180Y15096846D01*
X3330827Y15097955D01*
X3331659Y15099065D01*
X3332491Y15100174D01*
X3332584Y15100267D01*
X3332769Y15100452D01*
X3333046Y15100729D01*
X3333416Y15101006D01*
X3333878Y15101469D01*
X3334525Y15101932D01*
X3335172Y15102486D01*
X3336005Y15103040D01*
X3336929Y15103595D01*
X3337854Y15104150D01*
X3340073Y15105167D01*
X3342661Y15106000D01*
X3344048Y15106276D01*
X3345527Y15106461D01*
X3346544Y15098602D01*
D02*
G37*
G36*
X3596478Y15185323D02*
X3596385Y15184583D01*
Y15183751D01*
X3596293Y15181808D01*
X3596016Y15179774D01*
X3595738Y15177556D01*
X3595276Y15175522D01*
X3594999Y15174506D01*
X3594721Y15173672D01*
Y15173581D01*
X3594629Y15173488D01*
X3594351Y15172934D01*
X3593982Y15172101D01*
X3593334Y15171085D01*
X3592502Y15169975D01*
X3591393Y15168773D01*
X3590098Y15167664D01*
X3588619Y15166554D01*
X3588527D01*
X3588434Y15166463D01*
X3587880Y15166092D01*
X3586955Y15165723D01*
X3585753Y15165167D01*
X3584366Y15164705D01*
X3582702Y15164243D01*
X3580945Y15163965D01*
X3579004Y15163873D01*
X3578911D01*
X3578726D01*
X3578357D01*
X3577894Y15163965D01*
X3577247D01*
X3576600Y15164058D01*
X3575028Y15164429D01*
X3573179Y15164983D01*
X3571237Y15165723D01*
X3569296Y15166830D01*
X3568371Y15167570D01*
X3567447Y15168311D01*
X3567354Y15168404D01*
X3567262Y15168497D01*
X3566984Y15168773D01*
X3566707Y15169144D01*
X3566337Y15169604D01*
X3565967Y15170160D01*
X3565505Y15170900D01*
X3564950Y15171638D01*
X3564488Y15172565D01*
X3564026Y15173581D01*
X3563471Y15174690D01*
X3563009Y15175893D01*
X3562639Y15177280D01*
X3562177Y15178667D01*
X3561899Y15180238D01*
X3561622Y15181902D01*
X3561530Y15181717D01*
X3561345Y15181348D01*
X3560975Y15180792D01*
X3560605Y15180054D01*
X3559588Y15178387D01*
X3558941Y15177556D01*
X3558386Y15176817D01*
X3558201Y15176633D01*
X3557739Y15176170D01*
X3556999Y15175430D01*
X3556075Y15174506D01*
X3554780Y15173488D01*
X3553393Y15172285D01*
X3551729Y15171085D01*
X3549880Y15169791D01*
X3532498Y15158788D01*
Y15169328D01*
X3545812Y15177740D01*
X3545905D01*
X3546089Y15177927D01*
X3546367Y15178111D01*
X3546737Y15178387D01*
X3547754Y15179036D01*
X3549048Y15179868D01*
X3550435Y15180885D01*
X3551914Y15181902D01*
X3553301Y15182919D01*
X3554595Y15183842D01*
X3554688Y15183936D01*
X3555058Y15184213D01*
X3555612Y15184676D01*
X3556260Y15185323D01*
X3557646Y15186710D01*
X3558294Y15187450D01*
X3558848Y15188190D01*
X3558941Y15188281D01*
X3559033Y15188466D01*
X3559218Y15188837D01*
X3559496Y15189391D01*
X3559773Y15189944D01*
X3560050Y15190593D01*
X3560513Y15192072D01*
Y15192165D01*
X3560605Y15192349D01*
Y15192719D01*
X3560697Y15193181D01*
X3560790Y15193829D01*
Y15194568D01*
X3560882Y15195586D01*
Y15206496D01*
X3532498D01*
Y15215001D01*
X3596478D01*
Y15185323D01*
D02*
G37*
G36*
X3534255Y15154813D02*
X3535087Y15154720D01*
X3536012Y15154535D01*
X3536936Y15154350D01*
X3537953Y15153979D01*
X3538046D01*
X3538138Y15153888D01*
X3538693Y15153703D01*
X3539525Y15153333D01*
X3540635Y15152779D01*
X3541929Y15152039D01*
X3543408Y15151114D01*
X3544888Y15150098D01*
X3546459Y15148804D01*
X3546552D01*
X3546644Y15148618D01*
X3547199Y15148155D01*
X3548031Y15147324D01*
X3549233Y15146121D01*
X3550620Y15144736D01*
X3552284Y15142978D01*
X3554133Y15140851D01*
X3556075Y15138541D01*
X3556167Y15138448D01*
X3556444Y15138078D01*
X3556907Y15137523D01*
X3557462Y15136876D01*
X3558201Y15136044D01*
X3559033Y15135027D01*
X3559958Y15134010D01*
X3560975Y15132808D01*
X3563194Y15130496D01*
X3565413Y15128185D01*
X3566522Y15127075D01*
X3567632Y15126057D01*
X3568649Y15125134D01*
X3569666Y15124394D01*
X3569758D01*
X3569851Y15124210D01*
X3570128Y15124023D01*
X3570498Y15123839D01*
X3571515Y15123192D01*
X3572717Y15122453D01*
X3574196Y15121805D01*
X3575768Y15121158D01*
X3577524Y15120789D01*
X3579189Y15120602D01*
X3579281D01*
X3579374D01*
X3579928Y15120695D01*
X3580853Y15120789D01*
X3581870Y15121066D01*
X3583164Y15121436D01*
X3584459Y15122083D01*
X3585753Y15122916D01*
X3587047Y15124023D01*
X3587232Y15124210D01*
X3587602Y15124672D01*
X3588064Y15125319D01*
X3588712Y15126337D01*
X3589266Y15127631D01*
X3589821Y15129109D01*
X3590191Y15130865D01*
X3590283Y15132808D01*
Y15133362D01*
X3590191Y15133733D01*
X3590098Y15134842D01*
X3589821Y15136136D01*
X3589451Y15137523D01*
X3588804Y15139095D01*
X3587972Y15140575D01*
X3586863Y15141962D01*
X3586678Y15142146D01*
X3586215Y15142516D01*
X3585476Y15143069D01*
X3584366Y15143625D01*
X3583072Y15144272D01*
X3581408Y15144827D01*
X3579558Y15145197D01*
X3577432Y15145383D01*
X3578264Y15153426D01*
X3578357D01*
X3578634Y15153333D01*
X3579096D01*
X3579743Y15153239D01*
X3580483Y15153056D01*
X3581315Y15152872D01*
X3582332Y15152592D01*
X3583349Y15152316D01*
X3585568Y15151576D01*
X3587787Y15150467D01*
X3588897Y15149820D01*
X3590006Y15148987D01*
X3591023Y15148155D01*
X3591948Y15147231D01*
X3592040Y15147137D01*
X3592133Y15146953D01*
X3592410Y15146677D01*
X3592687Y15146214D01*
X3593057Y15145659D01*
X3593427Y15145012D01*
X3593889Y15144272D01*
X3594351Y15143349D01*
X3594814Y15142331D01*
X3595276Y15141222D01*
X3595646Y15140019D01*
X3596016Y15138725D01*
X3596293Y15137338D01*
X3596570Y15135860D01*
X3596663Y15134286D01*
X3596755Y15132623D01*
Y15131699D01*
X3596663Y15131052D01*
X3596570Y15130312D01*
X3596478Y15129387D01*
X3596293Y15128371D01*
X3596108Y15127353D01*
X3595461Y15124950D01*
X3594536Y15122545D01*
X3593982Y15121342D01*
X3593334Y15120142D01*
X3592502Y15119032D01*
X3591578Y15118015D01*
X3591485Y15117921D01*
X3591393Y15117737D01*
X3591023Y15117552D01*
X3590653Y15117183D01*
X3590191Y15116721D01*
X3589544Y15116258D01*
X3588897Y15115796D01*
X3588064Y15115240D01*
X3586308Y15114316D01*
X3584089Y15113393D01*
X3582979Y15113022D01*
X3581685Y15112837D01*
X3580391Y15112653D01*
X3579004Y15112560D01*
X3578819D01*
X3578357D01*
X3577617Y15112653D01*
X3576600Y15112746D01*
X3575490Y15112930D01*
X3574196Y15113300D01*
X3572809Y15113669D01*
X3571422Y15114224D01*
X3571237Y15114316D01*
X3570775Y15114500D01*
X3570036Y15114871D01*
X3569019Y15115427D01*
X3567909Y15116167D01*
X3566522Y15117090D01*
X3565135Y15118201D01*
X3563564Y15119495D01*
X3563379Y15119679D01*
X3562824Y15120142D01*
X3562362Y15120602D01*
X3561899Y15121066D01*
X3561345Y15121622D01*
X3560605Y15122360D01*
X3559865Y15123100D01*
X3559033Y15124023D01*
X3558109Y15124950D01*
X3557092Y15126057D01*
X3556075Y15127260D01*
X3554873Y15128555D01*
X3553671Y15130034D01*
X3552376Y15131512D01*
X3552284Y15131606D01*
X3552099Y15131792D01*
X3551822Y15132159D01*
X3551452Y15132623D01*
X3550897Y15133179D01*
X3550342Y15133826D01*
X3549140Y15135304D01*
X3547754Y15136876D01*
X3546367Y15138354D01*
X3545165Y15139648D01*
X3544703Y15140204D01*
X3544240Y15140666D01*
X3544148Y15140759D01*
X3543870Y15141035D01*
X3543501Y15141406D01*
X3542946Y15141869D01*
X3542299Y15142331D01*
X3541652Y15142885D01*
X3540080Y15143996D01*
Y15112466D01*
X3532498D01*
Y15154906D01*
X3532591D01*
X3532961D01*
X3533515D01*
X3534255Y15154813D01*
D02*
G37*
G36*
Y15105070D02*
X3535087Y15104977D01*
X3536012Y15104794D01*
X3536936Y15104610D01*
X3537953Y15104239D01*
X3538046D01*
X3538138Y15104146D01*
X3538693Y15103961D01*
X3539525Y15103592D01*
X3540635Y15103036D01*
X3541929Y15102296D01*
X3543408Y15101373D01*
X3544888Y15100356D01*
X3546459Y15099062D01*
X3546552D01*
X3546644Y15098875D01*
X3547199Y15098415D01*
X3548031Y15097581D01*
X3549233Y15096381D01*
X3550620Y15094994D01*
X3552284Y15093237D01*
X3554133Y15091110D01*
X3556075Y15088799D01*
X3556167Y15088705D01*
X3556444Y15088336D01*
X3556907Y15087782D01*
X3557462Y15087134D01*
X3558201Y15086302D01*
X3559033Y15085284D01*
X3559958Y15084268D01*
X3560975Y15083066D01*
X3563194Y15080756D01*
X3565413Y15078444D01*
X3566522Y15077335D01*
X3567632Y15076317D01*
X3568649Y15075394D01*
X3569666Y15074654D01*
X3569758D01*
X3569851Y15074467D01*
X3570128Y15074283D01*
X3570498Y15074098D01*
X3571515Y15073451D01*
X3572717Y15072711D01*
X3574196Y15072064D01*
X3575768Y15071417D01*
X3577524Y15071046D01*
X3579189Y15070862D01*
X3579281D01*
X3579374D01*
X3579928Y15070955D01*
X3580853Y15071046D01*
X3581870Y15071324D01*
X3583164Y15071693D01*
X3584459Y15072340D01*
X3585753Y15073174D01*
X3587047Y15074283D01*
X3587232Y15074467D01*
X3587602Y15074930D01*
X3588064Y15075577D01*
X3588712Y15076595D01*
X3589266Y15077888D01*
X3589821Y15079369D01*
X3590191Y15081125D01*
X3590283Y15083066D01*
Y15083621D01*
X3590191Y15083990D01*
X3590098Y15085100D01*
X3589821Y15086395D01*
X3589451Y15087782D01*
X3588804Y15089352D01*
X3587972Y15090833D01*
X3586863Y15092220D01*
X3586678Y15092404D01*
X3586215Y15092773D01*
X3585476Y15093329D01*
X3584366Y15093884D01*
X3583072Y15094531D01*
X3581408Y15095087D01*
X3579558Y15095454D01*
X3577432Y15095641D01*
X3578264Y15103683D01*
X3578357D01*
X3578634Y15103592D01*
X3579096D01*
X3579743Y15103499D01*
X3580483Y15103314D01*
X3581315Y15103130D01*
X3582332Y15102852D01*
X3583349Y15102576D01*
X3585568Y15101836D01*
X3587787Y15100725D01*
X3588897Y15100078D01*
X3590006Y15099246D01*
X3591023Y15098415D01*
X3591948Y15097488D01*
X3592040Y15097397D01*
X3592133Y15097212D01*
X3592410Y15096935D01*
X3592687Y15096472D01*
X3593057Y15095918D01*
X3593427Y15095271D01*
X3593889Y15094531D01*
X3594351Y15093607D01*
X3594814Y15092589D01*
X3595276Y15091479D01*
X3595646Y15090279D01*
X3596016Y15088985D01*
X3596293Y15087598D01*
X3596570Y15086118D01*
X3596663Y15084546D01*
X3596755Y15082881D01*
Y15081956D01*
X3596663Y15081310D01*
X3596570Y15080569D01*
X3596478Y15079645D01*
X3596293Y15078629D01*
X3596108Y15077611D01*
X3595461Y15075208D01*
X3594536Y15072804D01*
X3593982Y15071602D01*
X3593334Y15070399D01*
X3592502Y15069290D01*
X3591578Y15068272D01*
X3591485Y15068181D01*
X3591393Y15067996D01*
X3591023Y15067812D01*
X3590653Y15067441D01*
X3590191Y15066978D01*
X3589544Y15066518D01*
X3588897Y15066054D01*
X3588064Y15065500D01*
X3586308Y15064575D01*
X3584089Y15063651D01*
X3582979Y15063281D01*
X3581685Y15063097D01*
X3580391Y15062910D01*
X3579004Y15062817D01*
X3578819D01*
X3578357D01*
X3577617Y15062910D01*
X3576600Y15063004D01*
X3575490Y15063188D01*
X3574196Y15063557D01*
X3572809Y15063928D01*
X3571422Y15064484D01*
X3571237Y15064575D01*
X3570775Y15064760D01*
X3570036Y15065131D01*
X3569019Y15065685D01*
X3567909Y15066425D01*
X3566522Y15067349D01*
X3565135Y15068459D01*
X3563564Y15069753D01*
X3563379Y15069939D01*
X3562824Y15070399D01*
X3562362Y15070862D01*
X3561899Y15071324D01*
X3561345Y15071880D01*
X3560605Y15072620D01*
X3559865Y15073358D01*
X3559033Y15074283D01*
X3558109Y15075208D01*
X3557092Y15076317D01*
X3556075Y15077519D01*
X3554873Y15078813D01*
X3553671Y15080293D01*
X3552376Y15081772D01*
X3552284Y15081863D01*
X3552099Y15082050D01*
X3551822Y15082419D01*
X3551452Y15082881D01*
X3550897Y15083437D01*
X3550342Y15084084D01*
X3549140Y15085564D01*
X3547754Y15087134D01*
X3546367Y15088614D01*
X3545165Y15089908D01*
X3544703Y15090463D01*
X3544240Y15090926D01*
X3544148Y15091019D01*
X3543870Y15091295D01*
X3543501Y15091666D01*
X3542946Y15092126D01*
X3542299Y15092589D01*
X3541652Y15093144D01*
X3540080Y15094254D01*
Y15062726D01*
X3532498D01*
Y15105164D01*
X3532591D01*
X3532961D01*
X3533515D01*
X3534255Y15105070D01*
D02*
G37*
%LPC*%
G36*
X6693660Y14467969D02*
X6673505D01*
Y14446796D01*
X6692551D01*
X6693660Y14446889D01*
X6694955Y14446980D01*
X6696434Y14447073D01*
X6697913Y14447258D01*
X6699392Y14447536D01*
X6700687Y14447906D01*
X6700872Y14447998D01*
X6701242Y14448183D01*
X6701796Y14448460D01*
X6702536Y14448830D01*
X6703368Y14449385D01*
X6704200Y14450032D01*
X6705032Y14450864D01*
X6705680Y14451788D01*
X6705772Y14451881D01*
X6705957Y14452251D01*
X6706234Y14452806D01*
X6706604Y14453545D01*
X6706881Y14454378D01*
X6707159Y14455302D01*
X6707344Y14456412D01*
X6707436Y14457521D01*
Y14457613D01*
Y14457706D01*
X6707344Y14458261D01*
X6707251Y14459093D01*
X6707066Y14460202D01*
X6706604Y14461311D01*
X6706049Y14462605D01*
X6705217Y14463808D01*
X6704108Y14465010D01*
X6703923Y14465102D01*
X6703461Y14465472D01*
X6702721Y14465935D01*
X6701519Y14466489D01*
X6700132Y14467044D01*
X6698283Y14467506D01*
X6696157Y14467876D01*
X6693660Y14467969D01*
D02*
G37*
G36*
X6201495Y14376813D02*
X6182449D01*
X6181339Y14376721D01*
X6180045Y14376628D01*
X6178566Y14376537D01*
X6177086Y14376350D01*
X6175607Y14376074D01*
X6174313Y14375703D01*
X6174128Y14375610D01*
X6173758Y14375426D01*
X6173203Y14375150D01*
X6172464Y14374779D01*
X6171632Y14374223D01*
X6170799Y14373576D01*
X6169967Y14372745D01*
X6169320Y14371822D01*
X6169228Y14371729D01*
X6169043Y14371358D01*
X6168765Y14370804D01*
X6168396Y14370064D01*
X6168118Y14369232D01*
X6167841Y14368307D01*
X6167656Y14367198D01*
X6167563Y14366087D01*
Y14365996D01*
Y14365903D01*
X6167656Y14365349D01*
X6167748Y14364517D01*
X6167933Y14363406D01*
X6168396Y14362299D01*
X6168950Y14361003D01*
X6169782Y14359801D01*
X6170892Y14358598D01*
X6171077Y14358507D01*
X6171539Y14358138D01*
X6172279Y14357675D01*
X6173481Y14357120D01*
X6174868Y14356564D01*
X6176717Y14356104D01*
X6178843Y14355733D01*
X6181339Y14355641D01*
X6201495D01*
Y14376813D01*
D02*
G37*
G36*
X3779359Y15208995D02*
X3758187D01*
Y15189949D01*
X3758279Y15188840D01*
X3758371Y15187544D01*
X3758464Y15186066D01*
X3758649Y15184587D01*
X3758926Y15183107D01*
X3759296Y15181813D01*
X3759388Y15181628D01*
X3759573Y15181258D01*
X3759851Y15180704D01*
X3760221Y15179964D01*
X3760775Y15179132D01*
X3761422Y15178300D01*
X3762255Y15177467D01*
X3763179Y15176820D01*
X3763272Y15176727D01*
X3763641Y15176543D01*
X3764196Y15176266D01*
X3764936Y15175896D01*
X3765768Y15175618D01*
X3766692Y15175340D01*
X3767802Y15175156D01*
X3768911Y15175064D01*
X3769004D01*
X3769096D01*
X3769651Y15175156D01*
X3770483Y15175249D01*
X3771593Y15175433D01*
X3772702Y15175896D01*
X3773997Y15176450D01*
X3775198Y15177283D01*
X3776400Y15178392D01*
X3776493Y15178577D01*
X3776863Y15179039D01*
X3777325Y15179779D01*
X3777880Y15180981D01*
X3778434Y15182368D01*
X3778897Y15184216D01*
X3779267Y15186343D01*
X3779359Y15188840D01*
Y15208995D01*
D02*
G37*
G36*
X5618888Y12521936D02*
X5618796D01*
X5618703D01*
X5618149Y12521843D01*
X5617316Y12521751D01*
X5616207Y12521566D01*
X5615097Y12521104D01*
X5613803Y12520549D01*
X5612601Y12519717D01*
X5611399Y12518607D01*
X5611307Y12518423D01*
X5610937Y12517960D01*
X5610475Y12517221D01*
X5609920Y12516019D01*
X5609365Y12514632D01*
X5608903Y12512783D01*
X5608533Y12510656D01*
X5608441Y12508160D01*
Y12488004D01*
X5629613D01*
Y12507050D01*
X5629521Y12508160D01*
X5629428Y12509454D01*
X5629336Y12510934D01*
X5629151Y12512413D01*
X5628873Y12513892D01*
X5628504Y12515187D01*
X5628411Y12515371D01*
X5628226Y12515741D01*
X5627949Y12516296D01*
X5627579Y12517036D01*
X5627024Y12517868D01*
X5626377Y12518700D01*
X5625545Y12519532D01*
X5624620Y12520179D01*
X5624528Y12520272D01*
X5624158Y12520457D01*
X5623603Y12520734D01*
X5622864Y12521104D01*
X5622032Y12521381D01*
X5621107Y12521658D01*
X5619998Y12521843D01*
X5618888Y12521936D01*
D02*
G37*
G36*
X3385468Y15208995D02*
X3364296D01*
Y15189949D01*
X3364388Y15188840D01*
X3364481Y15187544D01*
X3364573Y15186066D01*
X3364758Y15184587D01*
X3365036Y15183107D01*
X3365406Y15181813D01*
X3365498Y15181628D01*
X3365683Y15181258D01*
X3365960Y15180704D01*
X3366330Y15179964D01*
X3366885Y15179132D01*
X3367532Y15178300D01*
X3368364Y15177467D01*
X3369289Y15176820D01*
X3369381Y15176727D01*
X3369751Y15176543D01*
X3370306Y15176266D01*
X3371045Y15175896D01*
X3371877Y15175618D01*
X3372802Y15175340D01*
X3373911Y15175156D01*
X3375021Y15175064D01*
X3375113D01*
X3375206D01*
X3375761Y15175156D01*
X3376593Y15175249D01*
X3377702Y15175433D01*
X3378812Y15175896D01*
X3380106Y15176450D01*
X3381308Y15177283D01*
X3382510Y15178392D01*
X3382602Y15178577D01*
X3382972Y15179039D01*
X3383434Y15179779D01*
X3383989Y15180981D01*
X3384544Y15182368D01*
X3385006Y15184216D01*
X3385376Y15186343D01*
X3385468Y15188840D01*
Y15208995D01*
D02*
G37*
G36*
X3589359Y15206496D02*
X3568186D01*
Y15187450D01*
X3568279Y15186340D01*
X3568371Y15185045D01*
X3568464Y15183566D01*
X3568649Y15182088D01*
X3568926Y15180608D01*
X3569296Y15179314D01*
X3569388Y15179128D01*
X3569573Y15178758D01*
X3569851Y15178204D01*
X3570220Y15177464D01*
X3570775Y15176633D01*
X3571422Y15175800D01*
X3572254Y15174968D01*
X3573179Y15174319D01*
X3573271Y15174228D01*
X3573641Y15174043D01*
X3574196Y15173766D01*
X3574936Y15173396D01*
X3575768Y15173119D01*
X3576692Y15172841D01*
X3577802Y15172656D01*
X3578911Y15172565D01*
X3579004D01*
X3579096D01*
X3579651Y15172656D01*
X3580483Y15172749D01*
X3581593Y15172934D01*
X3582702Y15173396D01*
X3583996Y15173952D01*
X3585198Y15174783D01*
X3586400Y15175893D01*
X3586493Y15176077D01*
X3586863Y15176540D01*
X3587325Y15177280D01*
X3587880Y15178481D01*
X3588434Y15179868D01*
X3588897Y15181717D01*
X3589266Y15183842D01*
X3589359Y15186340D01*
Y15206496D01*
D02*
G37*
%LPD*%
D70*
X6476709Y14513106D02*
X6853292D01*
Y14306892D02*
Y14513106D01*
X6476709Y14306892D02*
X6853292D01*
X6476709D02*
Y14513106D01*
X6021708Y14309393D02*
X6398291D01*
X6021708D02*
Y14515607D01*
X6398291D01*
Y14309393D02*
Y14515607D01*
X3619394Y15405791D02*
X3825607D01*
X3619394Y15029208D02*
Y15405791D01*
Y15029208D02*
X3825607D01*
Y15405791D01*
X5720300Y12329500D02*
Y12629500D01*
X5610300D02*
X5720300D01*
X5610300Y12329500D02*
X5720300D01*
X5610300D02*
Y12629500D01*
X3510839Y9112911D02*
X3680839D01*
X3510839Y8832911D02*
Y9112911D01*
Y8832911D02*
X3680839D01*
Y9112911D01*
X3224394Y15405791D02*
X3430607D01*
X3224394Y15029208D02*
Y15405791D01*
Y15029208D02*
X3430607D01*
Y15405791D01*
X3429393Y15403291D02*
X3635606D01*
X3429393Y15026707D02*
Y15403291D01*
Y15026707D02*
X3635606D01*
Y15403291D01*
%TF.MD5,03041a3acfd2b7dd4bb450f2fbeb74df*%
M02*
