%TF.GenerationSoftware,Altium Limited,Altium Designer,23.6.0 (18)*%
G04 Layer_Color=65535*
%FSLAX45Y45*%
%MOMM*%
%TF.SameCoordinates,8B2A78E3-6762-467B-82E4-ABAB87B9FA14*%
%TF.FilePolarity,Positive*%
%TF.FileFunction,Legend,Top*%
%TF.Part,Single*%
G01*
G75*
%TA.AperFunction,NonConductor*%
%ADD70C,0.20000*%
%ADD71C,0.12700*%
%ADD72C,0.25400*%
G36*
X-746386Y13317500D02*
X-1140000D01*
Y13440451D01*
X-746386D01*
Y13317500D01*
D02*
G37*
G36*
X907452Y15589999D02*
X592500D01*
Y15716617D01*
X907452D01*
Y15589999D01*
D02*
G37*
%LPC*%
G36*
X-1036374Y13427751D02*
X-1057379D01*
X-1081203Y13355576D01*
X-1106014Y13427751D01*
X-1127300D01*
X-1092339Y13330200D01*
X-1071053D01*
X-1036374Y13427751D01*
D02*
G37*
G36*
X-759086D02*
X-836479D01*
Y13411258D01*
X-807580D01*
Y13330200D01*
X-787844D01*
Y13411258D01*
X-759086D01*
Y13427751D01*
D02*
G37*
G36*
X-879334D02*
X-900197D01*
X-937977Y13330200D01*
X-917114D01*
X-909078Y13352332D01*
X-869889D01*
X-861431Y13330200D01*
X-840144D01*
X-879334Y13427751D01*
D02*
G37*
G36*
X-983511D02*
X-1026365D01*
Y13330200D01*
X-984074D01*
X-981678Y13330341D01*
X-977449D01*
X-975757Y13330482D01*
X-973079D01*
X-972092Y13330623D01*
X-970682D01*
X-970118Y13330763D01*
X-969555D01*
X-966735Y13331187D01*
X-964198Y13331892D01*
X-961942Y13332596D01*
X-959969Y13333443D01*
X-958418Y13334148D01*
X-957290Y13334853D01*
X-956585Y13335275D01*
X-956303Y13335416D01*
X-954330Y13336966D01*
X-952779Y13338658D01*
X-951228Y13340208D01*
X-950101Y13341901D01*
X-949114Y13343311D01*
X-948409Y13344438D01*
X-947986Y13345143D01*
X-947845Y13345425D01*
X-946858Y13347821D01*
X-946013Y13350076D01*
X-945449Y13352332D01*
X-945167Y13354306D01*
X-944885Y13355997D01*
X-944744Y13357266D01*
Y13358394D01*
X-944885Y13361494D01*
X-945449Y13364314D01*
X-946295Y13366711D01*
X-947140Y13368967D01*
X-947986Y13370657D01*
X-948832Y13371927D01*
X-949396Y13372774D01*
X-949537Y13373055D01*
X-951510Y13375310D01*
X-953625Y13377142D01*
X-956021Y13378694D01*
X-958136Y13379820D01*
X-960110Y13380807D01*
X-961801Y13381512D01*
X-962365Y13381654D01*
X-962788Y13381795D01*
X-963070Y13381937D01*
X-963211D01*
X-960955Y13383205D01*
X-958982Y13384473D01*
X-957290Y13386024D01*
X-955880Y13387292D01*
X-954894Y13388560D01*
X-954048Y13389548D01*
X-953484Y13390253D01*
X-953343Y13390535D01*
X-952074Y13392792D01*
X-951088Y13394905D01*
X-950524Y13397020D01*
X-949960Y13398993D01*
X-949678Y13400685D01*
X-949537Y13401955D01*
Y13402798D01*
Y13402940D01*
Y13403081D01*
X-949678Y13405338D01*
X-949960Y13407591D01*
X-950524Y13409425D01*
X-951088Y13411118D01*
X-951651Y13412526D01*
X-952215Y13413654D01*
X-952497Y13414218D01*
X-952638Y13414500D01*
X-953766Y13416333D01*
X-955035Y13417883D01*
X-956303Y13419293D01*
X-957431Y13420563D01*
X-958559Y13421407D01*
X-959405Y13422112D01*
X-959969Y13422536D01*
X-960110Y13422676D01*
X-961801Y13423804D01*
X-963634Y13424651D01*
X-965325Y13425356D01*
X-966876Y13425919D01*
X-968286Y13426341D01*
X-969273Y13426624D01*
X-969977Y13426764D01*
X-970259D01*
X-972656Y13427046D01*
X-975334Y13427328D01*
X-978154Y13427469D01*
X-980973Y13427609D01*
X-983511Y13427751D01*
D02*
G37*
%LPD*%
G36*
X-876232Y13368826D02*
X-903158D01*
X-889907Y13405055D01*
X-876232Y13368826D01*
D02*
G37*
G36*
X-985484Y13411398D02*
X-981819D01*
X-980973Y13411258D01*
X-979422D01*
X-978859Y13411118D01*
X-978718D01*
X-977026Y13410835D01*
X-975475Y13410413D01*
X-974207Y13409848D01*
X-973079Y13409283D01*
X-972374Y13408720D01*
X-971669Y13408156D01*
X-971387Y13407874D01*
X-971246Y13407733D01*
X-970400Y13406606D01*
X-969837Y13405338D01*
X-969273Y13404208D01*
X-968991Y13403081D01*
X-968850Y13401955D01*
X-968709Y13401108D01*
Y13400545D01*
Y13400403D01*
X-968850Y13398711D01*
X-969132Y13397160D01*
X-969696Y13395892D01*
X-970118Y13394765D01*
X-970682Y13393777D01*
X-971246Y13393213D01*
X-971528Y13392792D01*
X-971669Y13392650D01*
X-972797Y13391663D01*
X-974066Y13390958D01*
X-975334Y13390395D01*
X-976603Y13389970D01*
X-977872Y13389548D01*
X-978718Y13389407D01*
X-979282Y13389265D01*
X-980127D01*
X-980973Y13389125D01*
X-985343D01*
X-987740Y13388985D01*
X-1006630D01*
Y13411540D01*
X-987035D01*
X-985484Y13411398D01*
D02*
G37*
G36*
X-984215Y13372632D02*
X-982524Y13372491D01*
X-980832D01*
X-979422Y13372350D01*
X-978154Y13372209D01*
X-977167Y13372067D01*
X-976180Y13371927D01*
X-975475Y13371786D01*
X-974348Y13371645D01*
X-973643Y13371362D01*
X-973502D01*
X-972092Y13370799D01*
X-970823Y13370094D01*
X-969696Y13369389D01*
X-968850Y13368544D01*
X-968145Y13367979D01*
X-967722Y13367416D01*
X-967440Y13366994D01*
X-967299Y13366852D01*
X-966594Y13365582D01*
X-966030Y13364314D01*
X-965607Y13363187D01*
X-965325Y13361919D01*
X-965185Y13360931D01*
X-965044Y13360086D01*
Y13359521D01*
Y13359381D01*
X-965185Y13357549D01*
X-965466Y13355856D01*
X-965889Y13354446D01*
X-966453Y13353319D01*
X-967017Y13352332D01*
X-967440Y13351627D01*
X-967722Y13351204D01*
X-967863Y13351064D01*
X-968991Y13350076D01*
X-970118Y13349231D01*
X-971387Y13348526D01*
X-972515Y13347961D01*
X-973502Y13347681D01*
X-974348Y13347398D01*
X-974911Y13347256D01*
X-975052D01*
X-975616Y13347116D01*
X-976462D01*
X-978295Y13346976D01*
X-980550Y13346834D01*
X-982806D01*
X-984920Y13346693D01*
X-1006630D01*
Y13372774D01*
X-986189D01*
X-984215Y13372632D01*
D02*
G37*
%LPC*%
G36*
X655244Y15703917D02*
X653553D01*
X648478Y15703777D01*
X643967Y15703212D01*
X641993Y15702789D01*
X640020Y15702367D01*
X638187Y15701942D01*
X636636Y15701520D01*
X635227Y15700957D01*
X633817Y15700533D01*
X632830Y15700110D01*
X631843Y15699828D01*
X631138Y15699405D01*
X630575Y15699265D01*
X630293Y15698982D01*
X630152D01*
X625782Y15696445D01*
X623949Y15694894D01*
X622116Y15693484D01*
X620425Y15691934D01*
X618874Y15690382D01*
X617464Y15688834D01*
X616196Y15687424D01*
X615209Y15686012D01*
X614222Y15684744D01*
X613376Y15683617D01*
X612671Y15682629D01*
X612248Y15681784D01*
X611826Y15681219D01*
X611685Y15680797D01*
X611544Y15680656D01*
X610416Y15678401D01*
X609429Y15676144D01*
X607878Y15671494D01*
X606751Y15666841D01*
X606046Y15662753D01*
X605764Y15660780D01*
X605482Y15659088D01*
X605341Y15657536D01*
Y15656128D01*
X605200Y15655141D01*
Y15653590D01*
X605482Y15648373D01*
X606046Y15643581D01*
X607033Y15639211D01*
X607455Y15637097D01*
X608019Y15635265D01*
X608583Y15633572D01*
X609006Y15632022D01*
X609570Y15630753D01*
X609993Y15629625D01*
X610275Y15628780D01*
X610557Y15628075D01*
X610839Y15627652D01*
Y15627512D01*
X613235Y15623282D01*
X615914Y15619617D01*
X618733Y15616374D01*
X621552Y15613837D01*
X622821Y15612709D01*
X624090Y15611722D01*
X625077Y15610876D01*
X626064Y15610312D01*
X626768Y15609749D01*
X627473Y15609326D01*
X627755Y15609184D01*
X627896Y15609044D01*
X630152Y15607916D01*
X632266Y15606929D01*
X636918Y15605379D01*
X641429Y15604251D01*
X645517Y15603546D01*
X647491Y15603264D01*
X649183Y15602982D01*
X650733Y15602841D01*
X652143D01*
X653130Y15602699D01*
X654680D01*
X659191Y15602841D01*
X663421Y15603406D01*
X667509Y15604111D01*
X671033Y15604956D01*
X672584Y15605379D01*
X673993Y15605801D01*
X675262Y15606224D01*
X676390Y15606506D01*
X677236Y15606789D01*
X677800Y15607069D01*
X678222Y15607211D01*
X678363D01*
X682592Y15608904D01*
X686117Y15610735D01*
X689218Y15612569D01*
X691897Y15614119D01*
X693870Y15615527D01*
X694575Y15616092D01*
X695280Y15616656D01*
X695703Y15617079D01*
X696126Y15617361D01*
X696408Y15617644D01*
Y15656833D01*
X653976D01*
Y15640340D01*
X676531D01*
Y15627792D01*
X674839Y15626524D01*
X673007Y15625397D01*
X671174Y15624409D01*
X669482Y15623564D01*
X668073Y15622859D01*
X666804Y15622295D01*
X666099Y15622012D01*
X665958Y15621872D01*
X665817D01*
X663562Y15621027D01*
X661306Y15620462D01*
X659191Y15620039D01*
X657359Y15619757D01*
X655667Y15619617D01*
X654539Y15619475D01*
X653412D01*
X651156Y15619617D01*
X648901Y15619897D01*
X646927Y15620322D01*
X644953Y15620885D01*
X641429Y15622295D01*
X640020Y15623000D01*
X638610Y15623846D01*
X637341Y15624690D01*
X636213Y15625397D01*
X635368Y15626242D01*
X634522Y15626807D01*
X633958Y15627370D01*
X633535Y15627792D01*
X633253Y15628075D01*
X633112Y15628217D01*
X631843Y15629907D01*
X630575Y15631882D01*
X629588Y15633855D01*
X628742Y15635970D01*
X627332Y15640340D01*
X626486Y15644568D01*
X626204Y15646542D01*
X625923Y15648515D01*
X625782Y15650066D01*
X625641Y15651617D01*
X625500Y15652744D01*
Y15653731D01*
Y15654295D01*
Y15654436D01*
X625641Y15657396D01*
X625782Y15660075D01*
X626204Y15662753D01*
X626627Y15665150D01*
X627191Y15667264D01*
X627896Y15669238D01*
X628601Y15671071D01*
X629306Y15672762D01*
X629870Y15674171D01*
X630575Y15675441D01*
X631279Y15676427D01*
X631843Y15677274D01*
X632266Y15677979D01*
X632689Y15678401D01*
X632830Y15678683D01*
X632971Y15678824D01*
X634522Y15680234D01*
X636072Y15681644D01*
X637764Y15682629D01*
X639456Y15683617D01*
X641147Y15684464D01*
X642839Y15685168D01*
X646081Y15686154D01*
X647632Y15686436D01*
X649042Y15686719D01*
X650310Y15686859D01*
X651438Y15687000D01*
X652284Y15687141D01*
X653553D01*
X656654Y15687000D01*
X659332Y15686436D01*
X661729Y15685872D01*
X663843Y15685027D01*
X665394Y15684322D01*
X666663Y15683617D01*
X667368Y15683054D01*
X667650Y15682912D01*
X669623Y15681219D01*
X671315Y15679388D01*
X672725Y15677554D01*
X673711Y15675723D01*
X674557Y15674031D01*
X675121Y15672762D01*
X675403Y15671916D01*
X675544Y15671774D01*
Y15671634D01*
X695139Y15675301D01*
X694575Y15677696D01*
X693729Y15680093D01*
X692883Y15682207D01*
X691756Y15684181D01*
X690769Y15686154D01*
X689641Y15687846D01*
X688513Y15689397D01*
X687385Y15690807D01*
X686258Y15692075D01*
X685271Y15693204D01*
X684425Y15694189D01*
X683579Y15694894D01*
X682874Y15695457D01*
X682311Y15696022D01*
X682029Y15696162D01*
X681888Y15696304D01*
X679914Y15697714D01*
X677800Y15698842D01*
X675544Y15699828D01*
X673147Y15700674D01*
X668495Y15702084D01*
X663984Y15702930D01*
X661870Y15703352D01*
X659896Y15703494D01*
X658064Y15703635D01*
X656513Y15703777D01*
X655244Y15703917D01*
D02*
G37*
G36*
X792267Y15702084D02*
X774082D01*
Y15636392D01*
X733765Y15702084D01*
X714734D01*
Y15604533D01*
X732919D01*
Y15668816D01*
X772531Y15604533D01*
X792267D01*
Y15702084D01*
D02*
G37*
G36*
X852038D02*
X813131D01*
Y15604533D01*
X850065D01*
X853871Y15604674D01*
X857395Y15604816D01*
X860356Y15605096D01*
X862752Y15605519D01*
X864726Y15605942D01*
X866276Y15606224D01*
X866699Y15606364D01*
X867122D01*
X867263Y15606506D01*
X867404D01*
X870505Y15607634D01*
X873325Y15608904D01*
X875580Y15610172D01*
X877554Y15611440D01*
X879105Y15612569D01*
X880232Y15613414D01*
X880937Y15613979D01*
X881219Y15614259D01*
X883616Y15616937D01*
X885730Y15619757D01*
X887563Y15622717D01*
X888973Y15625397D01*
X890100Y15627934D01*
X890664Y15628920D01*
X890946Y15629765D01*
X891228Y15630612D01*
X891510Y15631177D01*
X891651Y15631458D01*
Y15631599D01*
X892638Y15634982D01*
X893484Y15638506D01*
X894047Y15641890D01*
X894329Y15645132D01*
X894470Y15646683D01*
X894611Y15648093D01*
Y15649220D01*
X894752Y15650348D01*
Y15652322D01*
X894611Y15657256D01*
X894188Y15661626D01*
X894047Y15663741D01*
X893766Y15665573D01*
X893484Y15667406D01*
X893202Y15668956D01*
X892779Y15670366D01*
X892497Y15671634D01*
X892215Y15672762D01*
X892074Y15673608D01*
X891792Y15674313D01*
X891651Y15674876D01*
X891510Y15675159D01*
Y15675301D01*
X890241Y15678683D01*
X888691Y15681784D01*
X887140Y15684464D01*
X885589Y15686719D01*
X884321Y15688551D01*
X883193Y15689960D01*
X882488Y15690807D01*
X882347Y15691087D01*
X882206D01*
X879810Y15693344D01*
X877413Y15695177D01*
X874876Y15696727D01*
X872620Y15697997D01*
X870646Y15698982D01*
X868955Y15699687D01*
X868391Y15699828D01*
X867968Y15699969D01*
X867686Y15700110D01*
X867545D01*
X864867Y15700815D01*
X861906Y15701237D01*
X858805Y15701662D01*
X855845Y15701802D01*
X853166Y15701942D01*
X852038Y15702084D01*
D02*
G37*
%LPD*%
G36*
X847527Y15685449D02*
X849219D01*
X850629Y15685307D01*
X851897D01*
X853166Y15685168D01*
X854153D01*
X855704Y15684886D01*
X856831Y15684744D01*
X857536Y15684604D01*
X857677D01*
X859651Y15684039D01*
X861342Y15683334D01*
X862893Y15682629D01*
X864303Y15681784D01*
X865290Y15681079D01*
X866135Y15680516D01*
X866558Y15680093D01*
X866699Y15679951D01*
X867968Y15678542D01*
X869096Y15676991D01*
X870083Y15675441D01*
X870928Y15674031D01*
X871492Y15672621D01*
X871915Y15671494D01*
X872197Y15670789D01*
X872338Y15670648D01*
Y15670506D01*
X873043Y15667969D01*
X873607Y15665291D01*
X873889Y15662331D01*
X874171Y15659511D01*
X874312Y15657114D01*
X874453Y15655988D01*
Y15655000D01*
Y15654295D01*
Y15653731D01*
Y15653308D01*
Y15653168D01*
X874312Y15649220D01*
X874171Y15645555D01*
X873748Y15642595D01*
X873466Y15640057D01*
X873043Y15637943D01*
X872902Y15637097D01*
X872620Y15636533D01*
X872479Y15635970D01*
Y15635545D01*
X872338Y15635405D01*
Y15635265D01*
X871492Y15633009D01*
X870787Y15631035D01*
X869801Y15629485D01*
X869096Y15628217D01*
X868391Y15627229D01*
X867827Y15626524D01*
X867404Y15626102D01*
X867263Y15625960D01*
X865994Y15624973D01*
X864726Y15624129D01*
X863457Y15623422D01*
X862188Y15622859D01*
X861061Y15622437D01*
X860215Y15622154D01*
X859651Y15621872D01*
X859369D01*
X857818Y15621590D01*
X855986Y15621449D01*
X854012Y15621167D01*
X852038D01*
X850206Y15621027D01*
X832867D01*
Y15685590D01*
X845695D01*
X847527Y15685449D01*
D02*
G37*
D70*
X3771500Y16277200D02*
G03*
X3791500Y16277200I10000J0D01*
G01*
D02*
G03*
X3771500Y16277200I-10000J0D01*
G01*
X-1980500Y4378200D02*
G03*
X-1980500Y4378200I-10000J0D01*
G01*
Y6238200D02*
G03*
X-1980500Y6238200I-10000J0D01*
G01*
X-1975501Y11238700D02*
G03*
X-1975501Y11238700I-10000J0D01*
G01*
Y9378700D02*
G03*
X-1975501Y9378700I-10000J0D01*
G01*
X5200000Y12690798D02*
G03*
X5200000Y12700798I0J5000D01*
G01*
D02*
G03*
X5200000Y12690798I0J-5000D01*
G01*
X8322000Y11527700D02*
G03*
X8322000Y11527700I-10000J0D01*
G01*
Y9667700D02*
G03*
X8322000Y9667700I-10000J0D01*
G01*
X-4720300Y9520300D02*
G03*
X-4720300Y9510300I0J-5000D01*
G01*
D02*
G03*
X-4720300Y9520300I0J5000D01*
G01*
D02*
G03*
X-4720300Y9510300I0J-5000D01*
G01*
X8587000Y4736200D02*
G03*
X8587000Y4736200I-10000J0D01*
G01*
Y6596200D02*
G03*
X8587000Y6596200I-10000J0D01*
G01*
X6590000Y14505000D02*
X6740000D01*
X6590000Y14314999D02*
X6740000D01*
X6135000Y14317500D02*
X6285000D01*
X6135000Y14507500D02*
X6285000D01*
X3627500Y15142500D02*
Y15292500D01*
X3817500Y15142500D02*
Y15292500D01*
X5747800Y12397000D02*
Y12562000D01*
X5582800Y12397000D02*
Y12562000D01*
X3488339Y8862911D02*
Y9082911D01*
X3703339Y8862911D02*
Y9082911D01*
X3232500Y15142500D02*
Y15292500D01*
X3422500Y15142500D02*
Y15292500D01*
X3437500Y15139999D02*
Y15289999D01*
X3627500Y15139999D02*
Y15289999D01*
D71*
X9035000Y3240000D02*
X9085000Y3140000D01*
X8985000D02*
X9035000Y3240000D01*
X8985000Y3140000D02*
X9085000D01*
X-1922500Y2675000D02*
X-1872500Y2575000D01*
X-1972500D02*
X-1922500Y2675000D01*
X-1972500Y2575000D02*
X-1872500D01*
D72*
X-4290790Y10017516D02*
Y10117484D01*
X-4240806D01*
X-4224145Y10100823D01*
Y10067500D01*
X-4240806Y10050839D01*
X-4290790D01*
X-4257468D02*
X-4224145Y10017516D01*
X-4124177D02*
X-4190822D01*
X-4124177Y10084161D01*
Y10100823D01*
X-4140839Y10117484D01*
X-4174161D01*
X-4190822Y10100823D01*
X-4090855D02*
X-4074193Y10117484D01*
X-4040871D01*
X-4024210Y10100823D01*
Y10034178D01*
X-4040871Y10017516D01*
X-4074193D01*
X-4090855Y10034178D01*
Y10100823D01*
X4843433Y12543675D02*
Y12391325D01*
X4919608D01*
X4945000Y12416717D01*
Y12518284D01*
X4919608Y12543675D01*
X4843433D01*
X4995784Y12391325D02*
X5046567D01*
X5021176D01*
Y12543675D01*
X4995784Y12518284D01*
X6978041Y13371175D02*
Y13244217D01*
X7003433Y13218825D01*
X7054217D01*
X7079608Y13244217D01*
Y13371175D01*
X7231959Y13218825D02*
X7130392D01*
X7231959Y13320392D01*
Y13345784D01*
X7206567Y13371175D01*
X7155784D01*
X7130392Y13345784D01*
X3285013Y15024132D02*
X3364987D01*
Y14984145D01*
X3351658Y14970816D01*
X3325000D01*
X3311671Y14984145D01*
Y15024132D01*
Y14997475D02*
X3285013Y14970816D01*
Y14890842D02*
Y14944157D01*
X3338329Y14890842D01*
X3351658D01*
X3364987Y14904172D01*
Y14930829D01*
X3351658Y14944157D01*
Y14864185D02*
X3364987Y14850854D01*
Y14824197D01*
X3351658Y14810867D01*
X3338329D01*
X3325000Y14824197D01*
Y14837526D01*
Y14824197D01*
X3311671Y14810867D01*
X3298342D01*
X3285013Y14824197D01*
Y14850854D01*
X3298342Y14864185D01*
X3492513Y15024132D02*
X3572487D01*
Y14984145D01*
X3559158Y14970816D01*
X3532500D01*
X3519171Y14984145D01*
Y15024132D01*
Y14997475D02*
X3492513Y14970816D01*
Y14890842D02*
Y14944157D01*
X3545829Y14890842D01*
X3559158D01*
X3572487Y14904172D01*
Y14930829D01*
X3559158Y14944157D01*
X3492513Y14810867D02*
Y14864185D01*
X3545829Y14810867D01*
X3559158D01*
X3572487Y14824196D01*
Y14850854D01*
X3559158Y14864185D01*
X3682513Y15024132D02*
X3762487D01*
Y14984145D01*
X3749158Y14970816D01*
X3722500D01*
X3709171Y14984145D01*
Y15024132D01*
Y14997475D02*
X3682513Y14970816D01*
Y14890842D02*
Y14944157D01*
X3735829Y14890842D01*
X3749158D01*
X3762487Y14904172D01*
Y14930829D01*
X3749158Y14944157D01*
X3682513Y14864185D02*
Y14837526D01*
Y14850854D01*
X3762487D01*
X3749158Y14864185D01*
X5129562Y12838824D02*
Y12991174D01*
X5205737D01*
X5231129Y12965784D01*
Y12914999D01*
X5205737Y12889607D01*
X5129562D01*
X5180345D02*
X5231129Y12838824D01*
X5281912D02*
X5332696D01*
X5307304D01*
Y12991174D01*
X5281912Y12965784D01*
X5408871D02*
X5434263Y12991174D01*
X5485047D01*
X5510439Y12965784D01*
Y12940392D01*
X5485047Y12914999D01*
X5510439Y12889607D01*
Y12864217D01*
X5485047Y12838824D01*
X5434263D01*
X5408871Y12864217D01*
Y12889607D01*
X5434263Y12914999D01*
X5408871Y12940392D01*
Y12965784D01*
X5434263Y12914999D02*
X5485047D01*
X6545541Y14606325D02*
Y14758675D01*
X6621717D01*
X6647108Y14733282D01*
Y14682500D01*
X6621717Y14657108D01*
X6545541D01*
X6596325D02*
X6647108Y14606325D01*
X6697892Y14733282D02*
X6723284Y14758675D01*
X6774067D01*
X6799459Y14733282D01*
Y14707892D01*
X6774067Y14682500D01*
X6748675D01*
X6774067D01*
X6799459Y14657108D01*
Y14631715D01*
X6774067Y14606325D01*
X6723284D01*
X6697892Y14631715D01*
X6098479Y14602634D02*
Y14754984D01*
X6174655D01*
X6200047Y14729591D01*
Y14678809D01*
X6174655Y14653416D01*
X6098479D01*
X6149263D02*
X6200047Y14602634D01*
X6352397D02*
X6250830D01*
X6352397Y14704201D01*
Y14729591D01*
X6327005Y14754984D01*
X6276222D01*
X6250830Y14729591D01*
X5848433Y12416325D02*
Y12568675D01*
X5924608D01*
X5950000Y12543284D01*
Y12492500D01*
X5924608Y12467108D01*
X5848433D01*
X5899217D02*
X5950000Y12416325D01*
X6000784D02*
X6051567D01*
X6026176D01*
Y12568675D01*
X6000784Y12543284D01*
X458433Y12701175D02*
Y12574216D01*
X483825Y12548825D01*
X534608D01*
X560000Y12574216D01*
Y12701175D01*
X610784Y12548825D02*
X661567D01*
X636176D01*
Y12701175D01*
X610784Y12675783D01*
X-3345392Y9060784D02*
X-3370783Y9086175D01*
X-3421567D01*
X-3446959Y9060784D01*
Y9035392D01*
X-3421567Y9010000D01*
X-3370783D01*
X-3345392Y8984608D01*
Y8959217D01*
X-3370783Y8933825D01*
X-3421567D01*
X-3446959Y8959217D01*
X-3218433Y8933825D02*
Y9086175D01*
X-3294608Y9010000D01*
X-3193041D01*
X4187540Y8880016D02*
Y8979984D01*
X4237524D01*
X4254185Y8963322D01*
Y8930000D01*
X4237524Y8913339D01*
X4187540D01*
X4220863D02*
X4254185Y8880016D01*
X4287508D02*
X4320831D01*
X4304169D01*
Y8979984D01*
X4287508Y8963322D01*
X4437460Y8979984D02*
X4404137Y8963322D01*
X4370814Y8930000D01*
Y8896677D01*
X4387476Y8880016D01*
X4420798D01*
X4437460Y8896677D01*
Y8913339D01*
X4420798Y8930000D01*
X4370814D01*
X2702540Y8910016D02*
Y9009984D01*
X2752524D01*
X2769185Y8993323D01*
Y8960000D01*
X2752524Y8943339D01*
X2702540D01*
X2735863D02*
X2769185Y8910016D01*
X2802508D02*
X2835831D01*
X2819170D01*
Y9009984D01*
X2802508Y8993323D01*
X2952460Y9009984D02*
X2885815D01*
Y8960000D01*
X2919137Y8976661D01*
X2935799D01*
X2952460Y8960000D01*
Y8926678D01*
X2935799Y8910016D01*
X2902476D01*
X2885815Y8926678D01*
X4036325Y15443582D02*
X4188675D01*
Y15545151D01*
X4036325Y15697501D02*
Y15595934D01*
X4188675D01*
Y15697501D01*
X4112500Y15595934D02*
Y15646716D01*
X4036325Y15748283D02*
X4188675D01*
Y15824458D01*
X4163284Y15849850D01*
X4061717D01*
X4036325Y15824458D01*
Y15748283D01*
X4188675Y15900633D02*
Y15951418D01*
Y15926025D01*
X4036325D01*
X4061717Y15900633D01*
X-1606567Y4756175D02*
X-1657351D01*
X-1631959D01*
Y4629217D01*
X-1657351Y4603825D01*
X-1682742D01*
X-1708134Y4629217D01*
X-1454216Y4603825D02*
X-1555784D01*
X-1454216Y4705392D01*
Y4730784D01*
X-1479608Y4756175D01*
X-1530392D01*
X-1555784Y4730784D01*
X-1403433D02*
X-1378041Y4756175D01*
X-1327257D01*
X-1301866Y4730784D01*
Y4705392D01*
X-1327257Y4680000D01*
X-1352649D01*
X-1327257D01*
X-1301866Y4654608D01*
Y4629217D01*
X-1327257Y4603825D01*
X-1378041D01*
X-1403433Y4629217D01*
X-1569067Y9826175D02*
X-1619851D01*
X-1594459D01*
Y9699217D01*
X-1619851Y9673825D01*
X-1645242D01*
X-1670634Y9699217D01*
X-1416716Y9673825D02*
X-1518283D01*
X-1416716Y9775392D01*
Y9800784D01*
X-1442108Y9826175D01*
X-1492892D01*
X-1518283Y9800784D01*
X-1264366Y9673825D02*
X-1365933D01*
X-1264366Y9775392D01*
Y9800784D01*
X-1289757Y9826175D01*
X-1340541D01*
X-1365933Y9800784D01*
X-1558675Y11593675D02*
X-1609459D01*
X-1584067D01*
Y11466716D01*
X-1609459Y11441325D01*
X-1634850D01*
X-1660242Y11466716D01*
X-1406324Y11441325D02*
X-1507892D01*
X-1406324Y11542892D01*
Y11568283D01*
X-1431716Y11593675D01*
X-1482500D01*
X-1507892Y11568283D01*
X-1355541Y11441325D02*
X-1304757D01*
X-1330149D01*
Y11593675D01*
X-1355541Y11568283D01*
X-1539067Y6588675D02*
X-1589851D01*
X-1564459D01*
Y6461717D01*
X-1589851Y6436325D01*
X-1615242D01*
X-1640634Y6461717D01*
X-1386716Y6436325D02*
X-1488284D01*
X-1386716Y6537892D01*
Y6563284D01*
X-1412108Y6588675D01*
X-1462892D01*
X-1488284Y6563284D01*
X-1335933D02*
X-1310541Y6588675D01*
X-1259757D01*
X-1234366Y6563284D01*
Y6461717D01*
X-1259757Y6436325D01*
X-1310541D01*
X-1335933Y6461717D01*
Y6563284D01*
X8721129Y10058675D02*
X8670345D01*
X8695737D01*
Y9931716D01*
X8670345Y9906325D01*
X8644953D01*
X8619562Y9931716D01*
X8771912Y9906325D02*
X8822696D01*
X8797304D01*
Y10058675D01*
X8771912Y10033283D01*
X8898871Y10058675D02*
X9000438D01*
Y10033283D01*
X8898871Y9931716D01*
Y9906325D01*
X8966129Y5133675D02*
X8915345D01*
X8940737D01*
Y5006716D01*
X8915345Y4981325D01*
X8889954D01*
X8864562Y5006716D01*
X9016912Y4981325D02*
X9067696D01*
X9042304D01*
Y5133675D01*
X9016912Y5108283D01*
X9245438Y5133675D02*
X9194655Y5108283D01*
X9143871Y5057500D01*
Y5006716D01*
X9169263Y4981325D01*
X9220047D01*
X9245438Y5006716D01*
Y5032108D01*
X9220047Y5057500D01*
X9143871D01*
X8698629Y11918675D02*
X8647845D01*
X8673237D01*
Y11791717D01*
X8647845Y11766325D01*
X8622454D01*
X8597062Y11791717D01*
X8749413Y11766325D02*
X8800196D01*
X8774804D01*
Y11918675D01*
X8749413Y11893284D01*
X8977939Y11918675D02*
X8876371D01*
Y11842500D01*
X8927155Y11867892D01*
X8952547D01*
X8977939Y11842500D01*
Y11791717D01*
X8952547Y11766325D01*
X8901763D01*
X8876371Y11791717D01*
X8988629Y6973675D02*
X8937845D01*
X8963237D01*
Y6846717D01*
X8937845Y6821325D01*
X8912454D01*
X8887062Y6846717D01*
X9039412Y6821325D02*
X9090196D01*
X9064804D01*
Y6973675D01*
X9039412Y6948284D01*
X9242547Y6821325D02*
Y6973675D01*
X9166371Y6897500D01*
X9267939D01*
X3185040Y8257484D02*
X3218363D01*
X3201702D01*
Y8157516D01*
X3185040D01*
X3218363D01*
X3334992Y8240822D02*
X3318331Y8257484D01*
X3285008D01*
X3268347Y8240822D01*
Y8174177D01*
X3285008Y8157516D01*
X3318331D01*
X3334992Y8174177D01*
X3368315Y8240822D02*
X3384976Y8257484D01*
X3418298D01*
X3434960Y8240822D01*
Y8224161D01*
X3418298Y8207500D01*
X3401637D01*
X3418298D01*
X3434960Y8190839D01*
Y8174177D01*
X3418298Y8157516D01*
X3384976D01*
X3368315Y8174177D01*
X3568347Y9273323D02*
X3551686Y9289984D01*
X3518363D01*
X3501702Y9273323D01*
Y9206678D01*
X3518363Y9190016D01*
X3551686D01*
X3568347Y9206678D01*
X3601669Y9190016D02*
X3634992D01*
X3618331D01*
Y9289984D01*
X3601669Y9273323D01*
X3684976Y9190016D02*
X3718298D01*
X3701637D01*
Y9289984D01*
X3684976Y9273323D01*
%TF.MD5,a9360f8a877b06e78d685c042cb9bcd2*%
M02*
