%TF.GenerationSoftware,Altium Limited,Altium Designer,24.2.2 (26)*%
G04 Layer_Physical_Order=1*
G04 Layer_Color=255*
%FSLAX45Y45*%
%MOMM*%
%TF.SameCoordinates,C43FDC76-AA2B-4580-830C-854DEF30EB04*%
%TF.FilePolarity,Positive*%
%TF.FileFunction,Copper,L1,Top,Signal*%
%TF.Part,Single*%
G01*
G75*
%TA.AperFunction,SMDPad,CuDef*%
%ADD10R,6.35000X5.08000*%
%ADD11R,5.08000X3.68000*%
%TA.AperFunction,Conductor*%
%ADD12C,0.25400*%
%ADD13C,0.50000*%
%ADD14C,0.30000*%
%TA.AperFunction,ViaPad*%
%ADD15C,1.52400*%
%TA.AperFunction,ComponentPad*%
G04:AMPARAMS|DCode=16|XSize=2.032mm|YSize=1.524mm|CornerRadius=0mm|HoleSize=0mm|Usage=FLASHONLY|Rotation=90.000|XOffset=0mm|YOffset=0mm|HoleType=Round|Shape=Octagon|*
%AMOCTAGOND16*
4,1,8,0.38100,1.01600,-0.38100,1.01600,-0.76200,0.63500,-0.76200,-0.63500,-0.38100,-1.01600,0.38100,-1.01600,0.76200,-0.63500,0.76200,0.63500,0.38100,1.01600,0.0*
%
%ADD16OCTAGOND16*%

%TA.AperFunction,ViaPad*%
%ADD17C,0.60000*%
G36*
X4771154Y1983909D02*
Y1349124D01*
X4759420Y1344264D01*
X4752384Y1351300D01*
X4729216Y1364676D01*
X4728847Y1364775D01*
Y1520000D01*
X4725889Y1534866D01*
X4717469Y1547469D01*
X4657469Y1607468D01*
X4644866Y1615889D01*
X4630000Y1618846D01*
X1846091D01*
X1757469Y1707469D01*
X1744866Y1715889D01*
X1730000Y1718846D01*
X1010000D01*
X995134Y1715889D01*
X982531Y1707469D01*
X902531Y1627468D01*
X894110Y1614866D01*
X891153Y1600000D01*
Y1319501D01*
X883034Y1311381D01*
X874600Y1291020D01*
Y1268980D01*
X883034Y1248619D01*
X898618Y1233034D01*
X918980Y1224600D01*
X941020D01*
X961381Y1233034D01*
X976966Y1248619D01*
X985400Y1268980D01*
Y1291020D01*
X976966Y1311381D01*
X968846Y1319501D01*
Y1583909D01*
X1026091Y1641153D01*
X1713910D01*
X1802532Y1552531D01*
X1804006Y1551547D01*
X1800153Y1538847D01*
X1719501D01*
X1711381Y1546966D01*
X1691020Y1555400D01*
X1668980D01*
X1648618Y1546966D01*
X1633034Y1531381D01*
X1624600Y1511020D01*
Y1488980D01*
X1633034Y1468619D01*
X1648618Y1453034D01*
X1668980Y1444600D01*
X1691020D01*
X1711381Y1453034D01*
X1719501Y1461154D01*
X4359543D01*
X4378400Y1442297D01*
Y1416624D01*
X4385324Y1390784D01*
X4398700Y1367616D01*
X4417616Y1348700D01*
X4440784Y1335324D01*
X4466624Y1328400D01*
X4493376D01*
X4519216Y1335324D01*
X4542384Y1348700D01*
X4561300Y1367616D01*
X4574676Y1390784D01*
X4581600Y1416624D01*
Y1443376D01*
X4574676Y1469216D01*
X4561300Y1492384D01*
X4542384Y1511301D01*
X4519216Y1524676D01*
X4505120Y1528453D01*
X4506792Y1541153D01*
X4613909D01*
X4651154Y1503909D01*
Y1364775D01*
X4650784Y1364676D01*
X4627616Y1351300D01*
X4608700Y1332384D01*
X4595324Y1309216D01*
X4588400Y1283376D01*
Y1256624D01*
X4595324Y1230784D01*
X4608700Y1207616D01*
X4627616Y1188700D01*
X4650784Y1175324D01*
X4676624Y1168400D01*
X4703376D01*
X4729216Y1175324D01*
X4752384Y1188700D01*
X4759420Y1195736D01*
X4771154Y1190876D01*
Y989124D01*
X4759420Y984264D01*
X4752384Y991300D01*
X4729216Y1004676D01*
X4703376Y1011600D01*
X4676624D01*
X4650784Y1004676D01*
X4627616Y991300D01*
X4608700Y972384D01*
X4596464Y951191D01*
X4317062D01*
X4069127Y1199127D01*
X4055764Y1208056D01*
X4040000Y1211191D01*
X2047156D01*
X2041381Y1216966D01*
X2021020Y1225400D01*
X1998980D01*
X1978619Y1216966D01*
X1963034Y1201381D01*
X1954600Y1181020D01*
Y1158980D01*
X1963034Y1138618D01*
X1978619Y1123034D01*
X1998980Y1114600D01*
X2021020D01*
X2041381Y1123034D01*
X2047156Y1128809D01*
X4022938D01*
X4270874Y880873D01*
X4284237Y871944D01*
X4300000Y868809D01*
X4596464D01*
X4608700Y847616D01*
X4627616Y828700D01*
X4650784Y815324D01*
X4676624Y808400D01*
X4703376D01*
X4729216Y815324D01*
X4752384Y828700D01*
X4759420Y835736D01*
X4771154Y830876D01*
Y649124D01*
X4759420Y644264D01*
X4752384Y651300D01*
X4729216Y664676D01*
X4703376Y671600D01*
X4676624D01*
X4650784Y664676D01*
X4627616Y651300D01*
X4608700Y632384D01*
X4595324Y609216D01*
X4595225Y608846D01*
X4156091D01*
X3967469Y797469D01*
X3954866Y805889D01*
X3940000Y808846D01*
X2049501D01*
X2041381Y816966D01*
X2021020Y825400D01*
X1998980D01*
X1978619Y816966D01*
X1963034Y801381D01*
X1954600Y781020D01*
Y758980D01*
X1963034Y738619D01*
X1978619Y723034D01*
X1998980Y714600D01*
X2021020D01*
X2041381Y723034D01*
X2049501Y731153D01*
X3923909D01*
X4112532Y542531D01*
X4125134Y534110D01*
X4140000Y531153D01*
X4595225D01*
X4595324Y530784D01*
X4608700Y507616D01*
X4627616Y488700D01*
X4650784Y475324D01*
X4676624Y468400D01*
X4703376D01*
X4729216Y475324D01*
X4752384Y488700D01*
X4759420Y495736D01*
X4771154Y490876D01*
Y38847D01*
X4541685D01*
X4539400Y50600D01*
X4539400Y51547D01*
Y469400D01*
X3980600D01*
Y51547D01*
X3980600Y50600D01*
X3978315Y38847D01*
X1280000D01*
X1265134Y35889D01*
X1252531Y27469D01*
X843909Y-381153D01*
X456091D01*
X38847Y36091D01*
Y90600D01*
X702900D01*
Y633720D01*
X704866Y634110D01*
X717468Y642531D01*
X725889Y655134D01*
X728846Y670000D01*
Y730000D01*
X725889Y744866D01*
X717468Y757469D01*
X704866Y765890D01*
X702900Y766280D01*
Y1293720D01*
X704866Y1294110D01*
X717468Y1302531D01*
X725889Y1315134D01*
X728846Y1330000D01*
Y1390000D01*
X725889Y1404866D01*
X717468Y1417469D01*
X704866Y1425889D01*
X702900Y1426280D01*
Y1969400D01*
X38847D01*
Y1991153D01*
X1730000D01*
X1744866Y1994111D01*
X1757469Y2002531D01*
X2056091Y2301153D01*
X3750000D01*
X3764866Y2304110D01*
X3777469Y2312531D01*
X3866091Y2401153D01*
X4113261D01*
X4114933Y2388453D01*
X4103878Y2385491D01*
X4070722Y2366349D01*
X4043651Y2339278D01*
X4024509Y2306122D01*
X4014600Y2269142D01*
Y2230858D01*
X4024509Y2193878D01*
X4043651Y2160722D01*
X4070722Y2133651D01*
X4103878Y2114509D01*
X4140858Y2104600D01*
X4179142D01*
X4216122Y2114509D01*
X4249278Y2133651D01*
X4276349Y2160722D01*
X4295491Y2193878D01*
X4305400Y2230858D01*
Y2269142D01*
X4295491Y2306122D01*
X4276349Y2339278D01*
X4249278Y2366349D01*
X4216122Y2385491D01*
X4205068Y2388453D01*
X4206740Y2401153D01*
X4353910D01*
X4771154Y1983909D01*
D02*
G37*
%LPC*%
G36*
X3040800Y2257000D02*
X2939200D01*
X2888400Y2206200D01*
Y2053800D01*
X2939200Y2003000D01*
X3040800D01*
X3091600Y2053800D01*
Y2068613D01*
X3292351D01*
X3298700Y2057616D01*
X3317616Y2038700D01*
X3340784Y2025324D01*
X3366624Y2018400D01*
X3393376D01*
X3409941Y2022839D01*
X3416515Y2011452D01*
X3263909Y1858846D01*
X2626091D01*
X2520847Y1964091D01*
Y2003000D01*
X2532800D01*
X2583600Y2053800D01*
Y2206200D01*
X2532800Y2257000D01*
X2431200D01*
X2380400Y2206200D01*
Y2053800D01*
X2431200Y2003000D01*
X2443154D01*
Y1948000D01*
X2446111Y1933134D01*
X2454532Y1920531D01*
X2582532Y1792531D01*
X2595134Y1784110D01*
X2610000Y1781153D01*
X3280000D01*
X3294865Y1784110D01*
X3307468Y1792531D01*
X3540452Y2025516D01*
X3540784Y2025324D01*
X3566624Y2018400D01*
X3593376D01*
X3609940Y2022839D01*
X3616514Y2011452D01*
X3333909Y1728846D01*
X2496091D01*
X2266847Y1958091D01*
Y2003000D01*
X2278800D01*
X2329600Y2053800D01*
Y2206200D01*
X2278800Y2257000D01*
X2177200D01*
X2126400Y2206200D01*
Y2053800D01*
X2177200Y2003000D01*
X2189154D01*
Y1942000D01*
X2192111Y1927134D01*
X2200532Y1914531D01*
X2452532Y1662531D01*
X2465134Y1654110D01*
X2480000Y1651153D01*
X3349999D01*
X3364865Y1654110D01*
X3377468Y1662531D01*
X3740452Y2025516D01*
X3740784Y2025324D01*
X3766624Y2018400D01*
X3793376D01*
X3819216Y2025324D01*
X3842384Y2038700D01*
X3861300Y2057616D01*
X3874676Y2080784D01*
X3881600Y2106624D01*
Y2133376D01*
X3874676Y2159216D01*
X3861300Y2182384D01*
X3842384Y2201301D01*
X3819216Y2214677D01*
X3793376Y2221600D01*
X3766624D01*
X3740784Y2214677D01*
X3717616Y2201301D01*
X3698699Y2182384D01*
X3687031Y2162175D01*
X3681669Y2160891D01*
X3678331D01*
X3672968Y2162175D01*
X3661300Y2182384D01*
X3642384Y2201301D01*
X3619216Y2214677D01*
X3593376Y2221600D01*
X3566624D01*
X3540784Y2214677D01*
X3517616Y2201301D01*
X3498700Y2182384D01*
X3487032Y2162175D01*
X3481669Y2160891D01*
X3478331D01*
X3472968Y2162175D01*
X3461300Y2182384D01*
X3442384Y2201301D01*
X3419216Y2214677D01*
X3393376Y2221600D01*
X3366624D01*
X3340784Y2214677D01*
X3317616Y2201301D01*
X3298700Y2182384D01*
X3292351Y2171388D01*
X3091600D01*
Y2206200D01*
X3040800Y2257000D01*
D02*
G37*
G36*
X4539400Y2059400D02*
X3980600D01*
Y1640600D01*
X4539400D01*
Y2059400D01*
D02*
G37*
G36*
X2021020Y1425400D02*
X1998980D01*
X1978619Y1416966D01*
X1963034Y1401381D01*
X1954600Y1381020D01*
Y1358980D01*
X1963034Y1338618D01*
X1978619Y1323034D01*
X1998980Y1314600D01*
X2021020D01*
X2041381Y1323034D01*
X2049501Y1331153D01*
X4173910D01*
X4385515Y1119548D01*
X4385324Y1119216D01*
X4378400Y1093376D01*
Y1066624D01*
X4385324Y1040784D01*
X4398700Y1017616D01*
X4417616Y998700D01*
X4440784Y985324D01*
X4466624Y978400D01*
X4493376D01*
X4519216Y985324D01*
X4542384Y998700D01*
X4561300Y1017616D01*
X4574676Y1040784D01*
X4581600Y1066624D01*
Y1093376D01*
X4574676Y1119216D01*
X4561300Y1142384D01*
X4542384Y1161300D01*
X4519216Y1174676D01*
X4493376Y1181600D01*
X4466624D01*
X4440784Y1174676D01*
X4440452Y1174485D01*
X4217469Y1397468D01*
X4204866Y1405889D01*
X4190000Y1408846D01*
X2049501D01*
X2041381Y1416966D01*
X2021020Y1425400D01*
D02*
G37*
G36*
Y1025400D02*
X1998980D01*
X1978619Y1016966D01*
X1963034Y1001381D01*
X1954600Y981020D01*
Y958980D01*
X1963034Y938618D01*
X1978619Y923034D01*
X1998980Y914600D01*
X2021020D01*
X2041381Y923034D01*
X2049501Y931153D01*
X3973910D01*
X4202531Y702531D01*
X4215134Y694111D01*
X4230000Y691154D01*
X4385225D01*
X4385324Y690784D01*
X4398700Y667616D01*
X4417616Y648700D01*
X4440784Y635324D01*
X4466624Y628400D01*
X4493376D01*
X4519216Y635324D01*
X4542384Y648700D01*
X4561300Y667616D01*
X4574676Y690784D01*
X4581600Y716624D01*
Y743376D01*
X4574676Y769216D01*
X4561300Y792384D01*
X4542384Y811300D01*
X4519216Y824676D01*
X4493376Y831600D01*
X4466624D01*
X4440784Y824676D01*
X4417616Y811300D01*
X4398700Y792384D01*
X4385324Y769216D01*
X4385225Y768847D01*
X4246091D01*
X4017469Y997468D01*
X4004866Y1005889D01*
X3990000Y1008846D01*
X2049501D01*
X2041381Y1016966D01*
X2021020Y1025400D01*
D02*
G37*
G36*
X609142Y-4600D02*
X570858D01*
X533878Y-14509D01*
X500722Y-33651D01*
X473651Y-60722D01*
X454509Y-93878D01*
X444600Y-130858D01*
Y-169142D01*
X454509Y-206122D01*
X473651Y-239278D01*
X500722Y-266349D01*
X533878Y-285491D01*
X570858Y-295400D01*
X609142D01*
X646122Y-285491D01*
X679278Y-266349D01*
X706349Y-239278D01*
X725491Y-206122D01*
X735400Y-169142D01*
Y-130858D01*
X725491Y-93878D01*
X706349Y-60722D01*
X679278Y-33651D01*
X646122Y-14509D01*
X609142Y-4600D01*
D02*
G37*
%LPD*%
D10*
X360000Y1030000D02*
D03*
Y370000D02*
D03*
Y1690000D02*
D03*
D11*
X4260000Y1850000D02*
D03*
Y260000D02*
D03*
D12*
X3349999Y1690000D02*
X3780000Y2120000D01*
X2480000Y1690000D02*
X3349999D01*
X2228000Y1942000D02*
X2480000Y1690000D01*
X2610000Y1820000D02*
X3280000D01*
X2482000Y1948000D02*
X2610000Y1820000D01*
X3280000D02*
X3580000Y2120000D01*
X2228000Y1942000D02*
Y2130000D01*
X2482000Y1948000D02*
Y2130000D01*
X2990000D02*
X3000000Y2120000D01*
X4140000Y570000D02*
X4690000D01*
X3940000Y770000D02*
X4140000Y570000D01*
X2010000Y770000D02*
X3940000D01*
X3990000Y970000D02*
X4230000Y730000D01*
X4480000D01*
X2010000Y970000D02*
X3990000D01*
X2010000Y1370000D02*
X4190000D01*
X4480000Y1080000D01*
X930000Y1600000D02*
X1010000Y1680000D01*
X1730000D02*
X1830000Y1580000D01*
X1010000Y1680000D02*
X1730000D01*
X1830000Y1580000D02*
X4630000D01*
X1680000Y1500000D02*
X4375634D01*
X4445634Y1430000D02*
X4480000D01*
X4375634Y1500000D02*
X4445634Y1430000D01*
X4690000Y1270000D02*
Y1520000D01*
X4630000Y1580000D02*
X4690000Y1520000D01*
X930000Y1280000D02*
Y1600000D01*
D13*
X3000000Y2120000D02*
X3380000D01*
D14*
X2010000Y1170000D02*
X4040000D01*
X4300000Y910000D02*
X4690000D01*
X4040000Y1170000D02*
X4300000Y910000D01*
D15*
X3580000Y2120000D02*
D03*
X3380000D02*
D03*
X3780000D02*
D03*
X4690000Y570000D02*
D03*
X4480000Y730000D02*
D03*
Y1430000D02*
D03*
Y1080000D02*
D03*
X4690000Y910000D02*
D03*
Y1270000D02*
D03*
X590000Y-150000D02*
D03*
X4160000Y2250000D02*
D03*
D16*
X2228000Y2130000D02*
D03*
X2482000D02*
D03*
X2736000D02*
D03*
X2990000D02*
D03*
D17*
X3347996Y330000D02*
D03*
Y220000D02*
D03*
Y110000D02*
D03*
X3455329D02*
D03*
Y220000D02*
D03*
Y330000D02*
D03*
X3562662Y110000D02*
D03*
Y220000D02*
D03*
Y330000D02*
D03*
X3669995Y110000D02*
D03*
Y220000D02*
D03*
Y330000D02*
D03*
X2811331D02*
D03*
Y220000D02*
D03*
Y110000D02*
D03*
X2703998Y330000D02*
D03*
Y220000D02*
D03*
Y110000D02*
D03*
X2596665Y330000D02*
D03*
Y220000D02*
D03*
Y110000D02*
D03*
X2489332D02*
D03*
Y220000D02*
D03*
Y330000D02*
D03*
X2060000D02*
D03*
Y220000D02*
D03*
Y110000D02*
D03*
X2167333D02*
D03*
Y220000D02*
D03*
Y330000D02*
D03*
X2274666Y110000D02*
D03*
Y220000D02*
D03*
Y330000D02*
D03*
X2381999Y110000D02*
D03*
Y220000D02*
D03*
Y330000D02*
D03*
X3240663D02*
D03*
Y220000D02*
D03*
Y110000D02*
D03*
X3133330Y330000D02*
D03*
Y220000D02*
D03*
Y110000D02*
D03*
X3025997Y330000D02*
D03*
Y220000D02*
D03*
Y110000D02*
D03*
X2918664D02*
D03*
Y220000D02*
D03*
Y330000D02*
D03*
X2010000Y1370000D02*
D03*
Y1170000D02*
D03*
Y970000D02*
D03*
Y770000D02*
D03*
X1680000Y1500000D02*
D03*
X930000Y1280000D02*
D03*
X130000Y1000000D02*
D03*
Y890000D02*
D03*
Y1220000D02*
D03*
Y1110000D02*
D03*
Y1640000D02*
D03*
Y1530000D02*
D03*
Y1860000D02*
D03*
Y1750000D02*
D03*
X240000Y420000D02*
D03*
Y530000D02*
D03*
Y200000D02*
D03*
Y310000D02*
D03*
Y1750000D02*
D03*
Y1860000D02*
D03*
Y1530000D02*
D03*
Y1640000D02*
D03*
Y1000000D02*
D03*
Y890000D02*
D03*
Y1220000D02*
D03*
Y1110000D02*
D03*
X350000Y310000D02*
D03*
Y200000D02*
D03*
Y530000D02*
D03*
Y420000D02*
D03*
Y1110000D02*
D03*
Y1220000D02*
D03*
Y890000D02*
D03*
Y1000000D02*
D03*
Y1640000D02*
D03*
Y1530000D02*
D03*
Y1860000D02*
D03*
Y1750000D02*
D03*
X459999Y310000D02*
D03*
Y200000D02*
D03*
Y530000D02*
D03*
Y420000D02*
D03*
Y1110000D02*
D03*
Y1220000D02*
D03*
Y890000D02*
D03*
Y1000000D02*
D03*
Y1750000D02*
D03*
Y1860000D02*
D03*
Y1530000D02*
D03*
Y1640000D02*
D03*
X569999Y420000D02*
D03*
Y530000D02*
D03*
Y200000D02*
D03*
Y310000D02*
D03*
Y1110000D02*
D03*
Y1220000D02*
D03*
Y890000D02*
D03*
Y1000000D02*
D03*
Y1640000D02*
D03*
Y1530000D02*
D03*
Y1860000D02*
D03*
Y1750000D02*
D03*
X130000Y530000D02*
D03*
Y420000D02*
D03*
Y310000D02*
D03*
Y200000D02*
D03*
X4429999Y360000D02*
D03*
Y250000D02*
D03*
Y140000D02*
D03*
X4319999Y360000D02*
D03*
Y250000D02*
D03*
Y140000D02*
D03*
X4210000Y360000D02*
D03*
Y250000D02*
D03*
Y140000D02*
D03*
X4100000D02*
D03*
Y250000D02*
D03*
Y360000D02*
D03*
Y1970000D02*
D03*
Y1860000D02*
D03*
Y1750000D02*
D03*
X4210000D02*
D03*
Y1860000D02*
D03*
Y1970000D02*
D03*
X4319999Y1750000D02*
D03*
Y1860000D02*
D03*
Y1970000D02*
D03*
X4429999Y1750000D02*
D03*
Y1860000D02*
D03*
Y1970000D02*
D03*
%TF.MD5,a24ab0d2350bd415a3069013b7272854*%
M02*
