%TF.GenerationSoftware,Altium Limited,Altium Designer,24.2.2 (26)*%
G04 Layer_Color=0*
%FSLAX45Y45*%
%MOMM*%
%TF.SameCoordinates,C43FDC76-AA2B-4580-830C-854DEF30EB04*%
%TF.FilePolarity,Positive*%
%TF.FileFunction,Plated,1,2,PTH,Drill*%
%TF.Part,Single*%
G01*
G75*
%TA.AperFunction,OtherDrill,Pad Free-15 (35.8mm,21.2mm)*%
%ADD30C,0.76200*%
%TA.AperFunction,OtherDrill,Pad Free-16 (33.8mm,21.2mm)*%
%ADD31C,0.76200*%
%TA.AperFunction,OtherDrill,Pad Free-14 (37.8mm,21.2mm)*%
%ADD32C,0.76200*%
%TA.AperFunction,OtherDrill,Pad Free-6 (46.9mm,5.7mm)*%
%ADD33C,0.76200*%
%TA.AperFunction,OtherDrill,Pad Free-9 (44.8mm,7.3mm)*%
%ADD34C,0.76200*%
%TA.AperFunction,OtherDrill,Pad Free-11 (44.8mm,14.3mm)*%
%ADD35C,0.76200*%
%TA.AperFunction,OtherDrill,Pad Free-10 (44.8mm,10.8mm)*%
%ADD36C,0.76200*%
%TA.AperFunction,OtherDrill,Pad Free-8 (46.9mm,9.1mm)*%
%ADD37C,0.76200*%
%TA.AperFunction,OtherDrill,Pad Free-7 (46.9mm,12.7mm)*%
%ADD38C,0.76200*%
%TA.AperFunction,ComponentDrill*%
%ADD39C,1.00000*%
%TA.AperFunction,OtherDrill,Pad Free-2 (5.9mm,-1.5mm)*%
%ADD40C,2.40000*%
%TA.AperFunction,OtherDrill,Pad Free-2 (41.6mm,22.5mm)*%
%ADD41C,2.40000*%
%TA.AperFunction,ViaDrill,NotFilled*%
%ADD42C,0.30000*%
D30*
X3580000Y2120000D02*
D03*
D31*
X3380000D02*
D03*
D32*
X3780000D02*
D03*
D33*
X4690000Y570000D02*
D03*
D34*
X4480000Y730000D02*
D03*
D35*
Y1430000D02*
D03*
D36*
Y1080000D02*
D03*
D37*
X4690000Y910000D02*
D03*
D38*
Y1270000D02*
D03*
D39*
X2228000Y2130000D02*
D03*
X2482000D02*
D03*
X2736000D02*
D03*
X2990000D02*
D03*
D40*
X590000Y-150000D02*
D03*
D41*
X4160000Y2250000D02*
D03*
D42*
X3347996Y330000D02*
D03*
Y220000D02*
D03*
Y110000D02*
D03*
X3455329D02*
D03*
Y220000D02*
D03*
Y330000D02*
D03*
X3562662Y110000D02*
D03*
Y220000D02*
D03*
Y330000D02*
D03*
X3669995Y110000D02*
D03*
Y220000D02*
D03*
Y330000D02*
D03*
X2811331D02*
D03*
Y220000D02*
D03*
Y110000D02*
D03*
X2703998Y330000D02*
D03*
Y220000D02*
D03*
Y110000D02*
D03*
X2596665Y330000D02*
D03*
Y220000D02*
D03*
Y110000D02*
D03*
X2489332D02*
D03*
Y220000D02*
D03*
Y330000D02*
D03*
X2060000D02*
D03*
Y220000D02*
D03*
Y110000D02*
D03*
X2167333D02*
D03*
Y220000D02*
D03*
Y330000D02*
D03*
X2274666Y110000D02*
D03*
Y220000D02*
D03*
Y330000D02*
D03*
X2381999Y110000D02*
D03*
Y220000D02*
D03*
Y330000D02*
D03*
X3240663D02*
D03*
Y220000D02*
D03*
Y110000D02*
D03*
X3133330Y330000D02*
D03*
Y220000D02*
D03*
Y110000D02*
D03*
X3025997Y330000D02*
D03*
Y220000D02*
D03*
Y110000D02*
D03*
X2918664D02*
D03*
Y220000D02*
D03*
Y330000D02*
D03*
X2010000Y1370000D02*
D03*
Y1170000D02*
D03*
Y970000D02*
D03*
Y770000D02*
D03*
X1680000Y1500000D02*
D03*
X930000Y1280000D02*
D03*
X130000Y1000000D02*
D03*
Y890000D02*
D03*
Y1220000D02*
D03*
Y1110000D02*
D03*
Y1640000D02*
D03*
Y1530000D02*
D03*
Y1860000D02*
D03*
Y1750000D02*
D03*
X240000Y420000D02*
D03*
Y530000D02*
D03*
Y200000D02*
D03*
Y310000D02*
D03*
Y1750000D02*
D03*
Y1860000D02*
D03*
Y1530000D02*
D03*
Y1640000D02*
D03*
Y1000000D02*
D03*
Y890000D02*
D03*
Y1220000D02*
D03*
Y1110000D02*
D03*
X350000Y310000D02*
D03*
Y200000D02*
D03*
Y530000D02*
D03*
Y420000D02*
D03*
Y1110000D02*
D03*
Y1220000D02*
D03*
Y890000D02*
D03*
Y1000000D02*
D03*
Y1640000D02*
D03*
Y1530000D02*
D03*
Y1860000D02*
D03*
Y1750000D02*
D03*
X459999Y310000D02*
D03*
Y200000D02*
D03*
Y530000D02*
D03*
Y420000D02*
D03*
Y1110000D02*
D03*
Y1220000D02*
D03*
Y890000D02*
D03*
Y1000000D02*
D03*
Y1750000D02*
D03*
Y1860000D02*
D03*
Y1530000D02*
D03*
Y1640000D02*
D03*
X569999Y420000D02*
D03*
Y530000D02*
D03*
Y200000D02*
D03*
Y310000D02*
D03*
Y1110000D02*
D03*
Y1220000D02*
D03*
Y890000D02*
D03*
Y1000000D02*
D03*
Y1640000D02*
D03*
Y1530000D02*
D03*
Y1860000D02*
D03*
Y1750000D02*
D03*
X130000Y530000D02*
D03*
Y420000D02*
D03*
Y310000D02*
D03*
Y200000D02*
D03*
X4429999Y360000D02*
D03*
Y250000D02*
D03*
Y140000D02*
D03*
X4319999Y360000D02*
D03*
Y250000D02*
D03*
Y140000D02*
D03*
X4210000Y360000D02*
D03*
Y250000D02*
D03*
Y140000D02*
D03*
X4100000D02*
D03*
Y250000D02*
D03*
Y360000D02*
D03*
Y1970000D02*
D03*
Y1860000D02*
D03*
Y1750000D02*
D03*
X4210000D02*
D03*
Y1860000D02*
D03*
Y1970000D02*
D03*
X4319999Y1750000D02*
D03*
Y1860000D02*
D03*
Y1970000D02*
D03*
X4429999Y1750000D02*
D03*
Y1860000D02*
D03*
Y1970000D02*
D03*
%TF.MD5,d9e58a722e5794a08464e088f53943f7*%
M02*
