%TF.GenerationSoftware,Altium Limited,Altium Designer,24.2.2 (26)*%
G04 Layer_Color=128*
%FSLAX45Y45*%
%MOMM*%
%TF.SameCoordinates,C43FDC76-AA2B-4580-830C-854DEF30EB04*%
%TF.FilePolarity,Positive*%
%TF.FileFunction,Drillmap*%
%TF.Part,Single*%
G01*
G75*
%TA.AperFunction,NonConductor*%
%ADD45C,0.12700*%
D45*
X3541900Y2120000D02*
X3618100D01*
X3580000Y2081900D02*
Y2158100D01*
X3341900Y2120000D02*
X3418100D01*
X3380000Y2081900D02*
Y2158100D01*
X3741900Y2120000D02*
X3818100D01*
X3780000Y2081900D02*
Y2158100D01*
X4651900Y570000D02*
X4728100D01*
X4690000Y531900D02*
Y608100D01*
X4441900Y730000D02*
X4518100D01*
X4480000Y691900D02*
Y768100D01*
X4441900Y1430000D02*
X4518100D01*
X4480000Y1391900D02*
Y1468100D01*
X4441900Y1080000D02*
X4518100D01*
X4480000Y1041900D02*
Y1118100D01*
X4651900Y910000D02*
X4728100D01*
X4690000Y871900D02*
Y948100D01*
X4651900Y1270000D02*
X4728100D01*
X4690000Y1231900D02*
Y1308100D01*
X2178000Y2130000D02*
X2278000D01*
X2228000Y2080000D02*
Y2180000D01*
X2432000Y2130000D02*
X2532000D01*
X2482000Y2080000D02*
Y2180000D01*
X2686000Y2130000D02*
X2786000D01*
X2736000Y2080000D02*
Y2180000D01*
X2940000Y2130000D02*
X3040000D01*
X2990000Y2080000D02*
Y2180000D01*
X470000Y-150000D02*
X710000D01*
X590000Y-270000D02*
Y-30000D01*
X4040000Y2250000D02*
X4280000D01*
X4160000Y2130000D02*
Y2370000D01*
X3332996Y330000D02*
X3362996D01*
X3347996Y315000D02*
Y345000D01*
X3332996Y220000D02*
X3362996D01*
X3347996Y205000D02*
Y235000D01*
X3332996Y110000D02*
X3362996D01*
X3347996Y95000D02*
Y125000D01*
X3440329Y110000D02*
X3470329D01*
X3455329Y95000D02*
Y125000D01*
X3440329Y220000D02*
X3470329D01*
X3455329Y205000D02*
Y235000D01*
X3440329Y330000D02*
X3470329D01*
X3455329Y315000D02*
Y345000D01*
X3547662Y110000D02*
X3577662D01*
X3562662Y95000D02*
Y125000D01*
X3547662Y220000D02*
X3577662D01*
X3562662Y205000D02*
Y235000D01*
X3547662Y330000D02*
X3577662D01*
X3562662Y315000D02*
Y345000D01*
X3654995Y110000D02*
X3684995D01*
X3669995Y95000D02*
Y125000D01*
X3654995Y220000D02*
X3684995D01*
X3669995Y205000D02*
Y235000D01*
X3654995Y330000D02*
X3684995D01*
X3669995Y315000D02*
Y345000D01*
X2796331Y330000D02*
X2826331D01*
X2811331Y315000D02*
Y345000D01*
X2796331Y220000D02*
X2826331D01*
X2811331Y205000D02*
Y235000D01*
X2796331Y110000D02*
X2826331D01*
X2811331Y95000D02*
Y125000D01*
X2688998Y330000D02*
X2718998D01*
X2703998Y315000D02*
Y345000D01*
X2688998Y220000D02*
X2718998D01*
X2703998Y205000D02*
Y235000D01*
X2688998Y110000D02*
X2718998D01*
X2703998Y95000D02*
Y125000D01*
X2581665Y330000D02*
X2611665D01*
X2596665Y315000D02*
Y345000D01*
X2581665Y220000D02*
X2611665D01*
X2596665Y205000D02*
Y235000D01*
X2581665Y110000D02*
X2611665D01*
X2596665Y95000D02*
Y125000D01*
X2474332Y110000D02*
X2504332D01*
X2489332Y95000D02*
Y125000D01*
X2474332Y220000D02*
X2504332D01*
X2489332Y205000D02*
Y235000D01*
X2474332Y330000D02*
X2504332D01*
X2489332Y315000D02*
Y345000D01*
X2045000Y330000D02*
X2075000D01*
X2060000Y315000D02*
Y345000D01*
X2045000Y220000D02*
X2075000D01*
X2060000Y205000D02*
Y235000D01*
X2045000Y110000D02*
X2075000D01*
X2060000Y95000D02*
Y125000D01*
X2152333Y110000D02*
X2182333D01*
X2167333Y95000D02*
Y125000D01*
X2152333Y220000D02*
X2182333D01*
X2167333Y205000D02*
Y235000D01*
X2152333Y330000D02*
X2182333D01*
X2167333Y315000D02*
Y345000D01*
X2259666Y110000D02*
X2289666D01*
X2274666Y95000D02*
Y125000D01*
X2259666Y220000D02*
X2289666D01*
X2274666Y205000D02*
Y235000D01*
X2259666Y330000D02*
X2289666D01*
X2274666Y315000D02*
Y345000D01*
X2366999Y110000D02*
X2396999D01*
X2381999Y95000D02*
Y125000D01*
X2366999Y220000D02*
X2396999D01*
X2381999Y205000D02*
Y235000D01*
X2366999Y330000D02*
X2396999D01*
X2381999Y315000D02*
Y345000D01*
X3225663Y330000D02*
X3255663D01*
X3240663Y315000D02*
Y345000D01*
X3225663Y220000D02*
X3255663D01*
X3240663Y205000D02*
Y235000D01*
X3225663Y110000D02*
X3255663D01*
X3240663Y95000D02*
Y125000D01*
X3118330Y330000D02*
X3148330D01*
X3133330Y315000D02*
Y345000D01*
X3118330Y220000D02*
X3148330D01*
X3133330Y205000D02*
Y235000D01*
X3118330Y110000D02*
X3148330D01*
X3133330Y95000D02*
Y125000D01*
X3010997Y330000D02*
X3040997D01*
X3025997Y315000D02*
Y345000D01*
X3010997Y220000D02*
X3040997D01*
X3025997Y205000D02*
Y235000D01*
X3010997Y110000D02*
X3040997D01*
X3025997Y95000D02*
Y125000D01*
X2903664Y110000D02*
X2933664D01*
X2918664Y95000D02*
Y125000D01*
X2903664Y220000D02*
X2933664D01*
X2918664Y205000D02*
Y235000D01*
X2903664Y330000D02*
X2933664D01*
X2918664Y315000D02*
Y345000D01*
X1995000Y1370000D02*
X2025000D01*
X2010000Y1355000D02*
Y1385000D01*
X1995000Y1170000D02*
X2025000D01*
X2010000Y1155000D02*
Y1185000D01*
X1995000Y970000D02*
X2025000D01*
X2010000Y955000D02*
Y985000D01*
X1995000Y770000D02*
X2025000D01*
X2010000Y755000D02*
Y785000D01*
X1665000Y1500000D02*
X1695000D01*
X1680000Y1485000D02*
Y1515000D01*
X915000Y1280000D02*
X945000D01*
X930000Y1265000D02*
Y1295000D01*
X115000Y1000000D02*
X145000D01*
X130000Y985000D02*
Y1015000D01*
X115000Y890000D02*
X145000D01*
X130000Y875000D02*
Y905000D01*
X115000Y1220000D02*
X145000D01*
X130000Y1205000D02*
Y1235000D01*
X115000Y1110000D02*
X145000D01*
X130000Y1095000D02*
Y1125000D01*
X115000Y1640000D02*
X145000D01*
X130000Y1625000D02*
Y1655000D01*
X115000Y1530000D02*
X145000D01*
X130000Y1515000D02*
Y1545000D01*
X115000Y1860000D02*
X145000D01*
X130000Y1845000D02*
Y1875000D01*
X115000Y1750000D02*
X145000D01*
X130000Y1735000D02*
Y1765000D01*
X225000Y420000D02*
X255000D01*
X240000Y405000D02*
Y435000D01*
X225000Y530000D02*
X255000D01*
X240000Y515000D02*
Y545000D01*
X225000Y200000D02*
X255000D01*
X240000Y185000D02*
Y215000D01*
X225000Y310000D02*
X255000D01*
X240000Y295000D02*
Y325000D01*
X225000Y1750000D02*
X255000D01*
X240000Y1735000D02*
Y1765000D01*
X225000Y1860000D02*
X255000D01*
X240000Y1845000D02*
Y1875000D01*
X225000Y1530000D02*
X255000D01*
X240000Y1515000D02*
Y1545000D01*
X225000Y1640000D02*
X255000D01*
X240000Y1625000D02*
Y1655000D01*
X225000Y1000000D02*
X255000D01*
X240000Y985000D02*
Y1015000D01*
X225000Y890000D02*
X255000D01*
X240000Y875000D02*
Y905000D01*
X225000Y1220000D02*
X255000D01*
X240000Y1205000D02*
Y1235000D01*
X225000Y1110000D02*
X255000D01*
X240000Y1095000D02*
Y1125000D01*
X335000Y310000D02*
X365000D01*
X350000Y295000D02*
Y325000D01*
X335000Y200000D02*
X365000D01*
X350000Y185000D02*
Y215000D01*
X335000Y530000D02*
X365000D01*
X350000Y515000D02*
Y545000D01*
X335000Y420000D02*
X365000D01*
X350000Y405000D02*
Y435000D01*
X335000Y1110000D02*
X365000D01*
X350000Y1095000D02*
Y1125000D01*
X335000Y1220000D02*
X365000D01*
X350000Y1205000D02*
Y1235000D01*
X335000Y890000D02*
X365000D01*
X350000Y875000D02*
Y905000D01*
X335000Y1000000D02*
X365000D01*
X350000Y985000D02*
Y1015000D01*
X335000Y1640000D02*
X365000D01*
X350000Y1625000D02*
Y1655000D01*
X335000Y1530000D02*
X365000D01*
X350000Y1515000D02*
Y1545000D01*
X335000Y1860000D02*
X365000D01*
X350000Y1845000D02*
Y1875000D01*
X335000Y1750000D02*
X365000D01*
X350000Y1735000D02*
Y1765000D01*
X444999Y310000D02*
X474999D01*
X459999Y295000D02*
Y325000D01*
X444999Y200000D02*
X474999D01*
X459999Y185000D02*
Y215000D01*
X444999Y530000D02*
X474999D01*
X459999Y515000D02*
Y545000D01*
X444999Y420000D02*
X474999D01*
X459999Y405000D02*
Y435000D01*
X444999Y1110000D02*
X474999D01*
X459999Y1095000D02*
Y1125000D01*
X444999Y1220000D02*
X474999D01*
X459999Y1205000D02*
Y1235000D01*
X444999Y890000D02*
X474999D01*
X459999Y875000D02*
Y905000D01*
X444999Y1000000D02*
X474999D01*
X459999Y985000D02*
Y1015000D01*
X444999Y1750000D02*
X474999D01*
X459999Y1735000D02*
Y1765000D01*
X444999Y1860000D02*
X474999D01*
X459999Y1845000D02*
Y1875000D01*
X444999Y1530000D02*
X474999D01*
X459999Y1515000D02*
Y1545000D01*
X444999Y1640000D02*
X474999D01*
X459999Y1625000D02*
Y1655000D01*
X554999Y420000D02*
X584999D01*
X569999Y405000D02*
Y435000D01*
X554999Y530000D02*
X584999D01*
X569999Y515000D02*
Y545000D01*
X554999Y200000D02*
X584999D01*
X569999Y185000D02*
Y215000D01*
X554999Y310000D02*
X584999D01*
X569999Y295000D02*
Y325000D01*
X554999Y1110000D02*
X584999D01*
X569999Y1095000D02*
Y1125000D01*
X554999Y1220000D02*
X584999D01*
X569999Y1205000D02*
Y1235000D01*
X554999Y890000D02*
X584999D01*
X569999Y875000D02*
Y905000D01*
X554999Y1000000D02*
X584999D01*
X569999Y985000D02*
Y1015000D01*
X554999Y1640000D02*
X584999D01*
X569999Y1625000D02*
Y1655000D01*
X554999Y1530000D02*
X584999D01*
X569999Y1515000D02*
Y1545000D01*
X554999Y1860000D02*
X584999D01*
X569999Y1845000D02*
Y1875000D01*
X554999Y1750000D02*
X584999D01*
X569999Y1735000D02*
Y1765000D01*
X115000Y530000D02*
X145000D01*
X130000Y515000D02*
Y545000D01*
X115000Y420000D02*
X145000D01*
X130000Y405000D02*
Y435000D01*
X115000Y310000D02*
X145000D01*
X130000Y295000D02*
Y325000D01*
X115000Y200000D02*
X145000D01*
X130000Y185000D02*
Y215000D01*
X4414999Y360000D02*
X4444999D01*
X4429999Y345000D02*
Y375000D01*
X4414999Y250000D02*
X4444999D01*
X4429999Y235000D02*
Y265000D01*
X4414999Y140000D02*
X4444999D01*
X4429999Y125000D02*
Y155000D01*
X4305000Y360000D02*
X4334999D01*
X4319999Y345000D02*
Y375000D01*
X4305000Y250000D02*
X4334999D01*
X4319999Y235000D02*
Y265000D01*
X4305000Y140000D02*
X4334999D01*
X4319999Y125000D02*
Y155000D01*
X4195000Y360000D02*
X4225000D01*
X4210000Y345000D02*
Y375000D01*
X4195000Y250000D02*
X4225000D01*
X4210000Y235000D02*
Y265000D01*
X4195000Y140000D02*
X4225000D01*
X4210000Y125000D02*
Y155000D01*
X4085000Y140000D02*
X4115000D01*
X4100000Y125000D02*
Y155000D01*
X4085000Y250000D02*
X4115000D01*
X4100000Y235000D02*
Y265000D01*
X4085000Y360000D02*
X4115000D01*
X4100000Y345000D02*
Y375000D01*
X4085000Y1970000D02*
X4115000D01*
X4100000Y1955000D02*
Y1985000D01*
X4085000Y1860000D02*
X4115000D01*
X4100000Y1845000D02*
Y1875000D01*
X4085000Y1750000D02*
X4115000D01*
X4100000Y1735000D02*
Y1765000D01*
X4195000Y1750000D02*
X4225000D01*
X4210000Y1735000D02*
Y1765000D01*
X4195000Y1860000D02*
X4225000D01*
X4210000Y1845000D02*
Y1875000D01*
X4195000Y1970000D02*
X4225000D01*
X4210000Y1955000D02*
Y1985000D01*
X4305000Y1750000D02*
X4334999D01*
X4319999Y1735000D02*
Y1765000D01*
X4305000Y1860000D02*
X4334999D01*
X4319999Y1845000D02*
Y1875000D01*
X4305000Y1970000D02*
X4334999D01*
X4319999Y1955000D02*
Y1985000D01*
X4414999Y1750000D02*
X4444999D01*
X4429999Y1735000D02*
Y1765000D01*
X4414999Y1860000D02*
X4444999D01*
X4429999Y1845000D02*
Y1875000D01*
X4414999Y1970000D02*
X4444999D01*
X4429999Y1955000D02*
Y1985000D01*
%TF.MD5,1a85a87f5392c1fb4b0b9526894510e2*%
M02*
