%TF.GenerationSoftware,Altium Limited,Altium Designer,24.4.1 (13)*%
G04 Layer_Color=16711935*
%FSLAX45Y45*%
%MOMM*%
%TF.SameCoordinates,C660FC9E-4896-4694-9F0D-9EB1E9559909*%
%TF.FilePolarity,Negative*%
%TF.FileFunction,Soldermask,Bot*%
%TF.Part,Single*%
G01*
G75*
%TA.AperFunction,ViaPad*%
%ADD23C,1.72720*%
%TA.AperFunction,ComponentPad*%
G04:AMPARAMS|DCode=24|XSize=2.2352mm|YSize=1.7272mm|CornerRadius=0mm|HoleSize=0mm|Usage=FLASHONLY|Rotation=90.000|XOffset=0mm|YOffset=0mm|HoleType=Round|Shape=Octagon|*
%AMOCTAGOND24*
4,1,8,0.43180,1.11760,-0.43180,1.11760,-0.86360,0.68580,-0.86360,-0.68580,-0.43180,-1.11760,0.43180,-1.11760,0.86360,-0.68580,0.86360,0.68580,0.43180,1.11760,0.0*
%
%ADD24OCTAGOND24*%

%TA.AperFunction,ViaPad*%
%ADD25C,0.80320*%
%TA.AperFunction,SMDPad,CuDef*%
%ADD26R,3.50320X1.22320*%
D23*
X3580000Y2120000D02*
D03*
X3380000D02*
D03*
X3780000D02*
D03*
X4690000Y570000D02*
D03*
X4480000Y730000D02*
D03*
Y1430000D02*
D03*
Y1080000D02*
D03*
X4690000Y910000D02*
D03*
Y1270000D02*
D03*
X590000Y-150000D02*
D03*
X4160000Y2250000D02*
D03*
D24*
X2228000Y2130000D02*
D03*
X2482000D02*
D03*
X2736000D02*
D03*
X2990000D02*
D03*
D25*
X3187002Y320000D02*
D03*
X3186996Y160000D02*
D03*
X3347995D02*
D03*
X3348001Y320000D02*
D03*
X3508995Y160000D02*
D03*
X3509001Y320000D02*
D03*
X3669994Y160000D02*
D03*
X3670000Y320000D02*
D03*
X2060006D02*
D03*
X2060000Y160000D02*
D03*
X2220999D02*
D03*
X2221005Y320000D02*
D03*
X2381999Y160000D02*
D03*
X2382005Y320000D02*
D03*
X3026002D02*
D03*
X3025996Y160000D02*
D03*
X2865003Y320000D02*
D03*
X2864997Y160000D02*
D03*
X2704003Y320000D02*
D03*
X2703998Y160000D02*
D03*
X2542998D02*
D03*
X2543004Y320000D02*
D03*
X2010000Y1370000D02*
D03*
Y1170000D02*
D03*
Y970000D02*
D03*
Y770000D02*
D03*
X1680000Y1500000D02*
D03*
X930000Y1280000D02*
D03*
X130000Y890000D02*
D03*
Y1220000D02*
D03*
Y1055000D02*
D03*
Y1530000D02*
D03*
Y1860000D02*
D03*
Y1695000D02*
D03*
X350000Y200000D02*
D03*
Y530000D02*
D03*
Y365000D02*
D03*
Y1055000D02*
D03*
Y1220000D02*
D03*
Y890000D02*
D03*
Y1530000D02*
D03*
Y1860000D02*
D03*
Y1695000D02*
D03*
X569999Y365000D02*
D03*
Y530000D02*
D03*
Y200000D02*
D03*
Y1055000D02*
D03*
Y1220000D02*
D03*
Y890000D02*
D03*
Y1530000D02*
D03*
Y1860000D02*
D03*
Y1695000D02*
D03*
X130000Y530000D02*
D03*
Y365000D02*
D03*
Y200000D02*
D03*
X4429999Y360000D02*
D03*
Y250000D02*
D03*
Y140000D02*
D03*
X4265000Y360000D02*
D03*
Y250000D02*
D03*
Y140000D02*
D03*
X4100000D02*
D03*
Y250000D02*
D03*
Y360000D02*
D03*
Y1970000D02*
D03*
Y1860000D02*
D03*
Y1750000D02*
D03*
X4265000D02*
D03*
Y1860000D02*
D03*
Y1970000D02*
D03*
X4429999Y1750000D02*
D03*
Y1860000D02*
D03*
Y1970000D02*
D03*
D26*
X3096500Y770000D02*
D03*
X3523500D02*
D03*
X3096500Y970000D02*
D03*
X3523500D02*
D03*
X3096500Y1170000D02*
D03*
X3523500D02*
D03*
X3096500Y1370000D02*
D03*
X3523500D02*
D03*
X1663500D02*
D03*
X1236500D02*
D03*
X1663500Y1170000D02*
D03*
X1236500D02*
D03*
X1663500Y970000D02*
D03*
X1236500D02*
D03*
X1663500Y770000D02*
D03*
X1236500D02*
D03*
%TF.MD5,031411fda964fa5b2fc8d4cb3b3905d2*%
M02*
