%TF.GenerationSoftware,Altium Limited,Altium Designer,23.6.0 (18)*%
G04 Layer_Color=16711935*
%FSLAX45Y45*%
%MOMM*%
%TF.SameCoordinates,E8FE7F88-156A-4670-BA50-05D3EA163389*%
%TF.FilePolarity,Positive*%
%TF.FileFunction,Keep-out,Top*%
%TF.Part,Single*%
G01*
G75*
%TA.AperFunction,NonConductor*%
%ADD26C,0.25400*%
D26*
X0Y20000D02*
Y670000D01*
Y730000D02*
Y1330000D01*
Y1390000D02*
Y2030000D01*
Y20000D02*
X440000Y-420000D01*
X0Y1330000D02*
X690000D01*
Y1390000D01*
X0D02*
X690000D01*
X0Y730000D02*
X690000D01*
Y670000D02*
Y730000D01*
X0Y670000D02*
X690000D01*
X3310000Y2340000D02*
X3320000D01*
X2040000D02*
X3310000D01*
X1730000Y2030000D02*
X2040000Y2340000D01*
X1720000Y2030000D02*
X1730000D01*
X0D02*
X1720000D01*
X1280000Y0D02*
X4810000D01*
Y2000000D01*
X4370000Y2440000D02*
X4810000Y2000000D01*
X4370000Y2440000D02*
X4370000D01*
X3850000D02*
X4370000D01*
X3750000Y2340000D02*
X3850000Y2440000D01*
X3320000Y2340000D02*
X3750000D01*
X860000Y-420000D02*
X1280000Y0D01*
X440000Y-420000D02*
X860000D01*
%TF.MD5,98772634a808259372e670094e742ae5*%
M02*
