%TF.GenerationSoftware,Altium Limited,Altium Designer,24.2.2 (26)*%
G04 Layer_Color=16711935*
%FSLAX45Y45*%
%MOMM*%
%TF.SameCoordinates,C43FDC76-AA2B-4580-830C-854DEF30EB04*%
%TF.FilePolarity,Negative*%
%TF.FileFunction,Soldermask,Bot*%
%TF.Part,Single*%
G01*
G75*
%TA.AperFunction,ViaPad*%
%ADD23C,1.72720*%
%TA.AperFunction,ComponentPad*%
G04:AMPARAMS|DCode=24|XSize=2.2352mm|YSize=1.7272mm|CornerRadius=0mm|HoleSize=0mm|Usage=FLASHONLY|Rotation=90.000|XOffset=0mm|YOffset=0mm|HoleType=Round|Shape=Octagon|*
%AMOCTAGOND24*
4,1,8,0.43180,1.11760,-0.43180,1.11760,-0.86360,0.68580,-0.86360,-0.68580,-0.43180,-1.11760,0.43180,-1.11760,0.86360,-0.68580,0.86360,0.68580,0.43180,1.11760,0.0*
%
%ADD24OCTAGOND24*%

%TA.AperFunction,ViaPad*%
%ADD25C,0.80320*%
%TA.AperFunction,SMDPad,CuDef*%
%ADD26R,3.50320X1.22320*%
D23*
X3580000Y2120000D02*
D03*
X3380000D02*
D03*
X3780000D02*
D03*
X4690000Y570000D02*
D03*
X4480000Y730000D02*
D03*
Y1430000D02*
D03*
Y1080000D02*
D03*
X4690000Y910000D02*
D03*
Y1270000D02*
D03*
X590000Y-150000D02*
D03*
X4160000Y2250000D02*
D03*
D24*
X2228000Y2130000D02*
D03*
X2482000D02*
D03*
X2736000D02*
D03*
X2990000D02*
D03*
D25*
X3347996Y330000D02*
D03*
Y220000D02*
D03*
Y110000D02*
D03*
X3455329D02*
D03*
Y220000D02*
D03*
Y330000D02*
D03*
X3562662Y110000D02*
D03*
Y220000D02*
D03*
Y330000D02*
D03*
X3669995Y110000D02*
D03*
Y220000D02*
D03*
Y330000D02*
D03*
X2811331D02*
D03*
Y220000D02*
D03*
Y110000D02*
D03*
X2703998Y330000D02*
D03*
Y220000D02*
D03*
Y110000D02*
D03*
X2596665Y330000D02*
D03*
Y220000D02*
D03*
Y110000D02*
D03*
X2489332D02*
D03*
Y220000D02*
D03*
Y330000D02*
D03*
X2060000D02*
D03*
Y220000D02*
D03*
Y110000D02*
D03*
X2167333D02*
D03*
Y220000D02*
D03*
Y330000D02*
D03*
X2274666Y110000D02*
D03*
Y220000D02*
D03*
Y330000D02*
D03*
X2381999Y110000D02*
D03*
Y220000D02*
D03*
Y330000D02*
D03*
X3240663D02*
D03*
Y220000D02*
D03*
Y110000D02*
D03*
X3133330Y330000D02*
D03*
Y220000D02*
D03*
Y110000D02*
D03*
X3025997Y330000D02*
D03*
Y220000D02*
D03*
Y110000D02*
D03*
X2918664D02*
D03*
Y220000D02*
D03*
Y330000D02*
D03*
X2010000Y1370000D02*
D03*
Y1170000D02*
D03*
Y970000D02*
D03*
Y770000D02*
D03*
X1680000Y1500000D02*
D03*
X930000Y1280000D02*
D03*
X130000Y1000000D02*
D03*
Y890000D02*
D03*
Y1220000D02*
D03*
Y1110000D02*
D03*
Y1640000D02*
D03*
Y1530000D02*
D03*
Y1860000D02*
D03*
Y1750000D02*
D03*
X240000Y420000D02*
D03*
Y530000D02*
D03*
Y200000D02*
D03*
Y310000D02*
D03*
Y1750000D02*
D03*
Y1860000D02*
D03*
Y1530000D02*
D03*
Y1640000D02*
D03*
Y1000000D02*
D03*
Y890000D02*
D03*
Y1220000D02*
D03*
Y1110000D02*
D03*
X350000Y310000D02*
D03*
Y200000D02*
D03*
Y530000D02*
D03*
Y420000D02*
D03*
Y1110000D02*
D03*
Y1220000D02*
D03*
Y890000D02*
D03*
Y1000000D02*
D03*
Y1640000D02*
D03*
Y1530000D02*
D03*
Y1860000D02*
D03*
Y1750000D02*
D03*
X459999Y310000D02*
D03*
Y200000D02*
D03*
Y530000D02*
D03*
Y420000D02*
D03*
Y1110000D02*
D03*
Y1220000D02*
D03*
Y890000D02*
D03*
Y1000000D02*
D03*
Y1750000D02*
D03*
Y1860000D02*
D03*
Y1530000D02*
D03*
Y1640000D02*
D03*
X569999Y420000D02*
D03*
Y530000D02*
D03*
Y200000D02*
D03*
Y310000D02*
D03*
Y1110000D02*
D03*
Y1220000D02*
D03*
Y890000D02*
D03*
Y1000000D02*
D03*
Y1640000D02*
D03*
Y1530000D02*
D03*
Y1860000D02*
D03*
Y1750000D02*
D03*
X130000Y530000D02*
D03*
Y420000D02*
D03*
Y310000D02*
D03*
Y200000D02*
D03*
X4429999Y360000D02*
D03*
Y250000D02*
D03*
Y140000D02*
D03*
X4319999Y360000D02*
D03*
Y250000D02*
D03*
Y140000D02*
D03*
X4210000Y360000D02*
D03*
Y250000D02*
D03*
Y140000D02*
D03*
X4100000D02*
D03*
Y250000D02*
D03*
Y360000D02*
D03*
Y1970000D02*
D03*
Y1860000D02*
D03*
Y1750000D02*
D03*
X4210000D02*
D03*
Y1860000D02*
D03*
Y1970000D02*
D03*
X4319999Y1750000D02*
D03*
Y1860000D02*
D03*
Y1970000D02*
D03*
X4429999Y1750000D02*
D03*
Y1860000D02*
D03*
Y1970000D02*
D03*
D26*
X3096500Y770000D02*
D03*
X3523500D02*
D03*
X3096500Y970000D02*
D03*
X3523500D02*
D03*
X3096500Y1170000D02*
D03*
X3523500D02*
D03*
X3096500Y1370000D02*
D03*
X3523500D02*
D03*
X1663500D02*
D03*
X1236500D02*
D03*
X1663500Y1170000D02*
D03*
X1236500D02*
D03*
X1663500Y970000D02*
D03*
X1236500D02*
D03*
X1663500Y770000D02*
D03*
X1236500D02*
D03*
%TF.MD5,ddfa1ff1e6d814ac2b2a508d1a7ddd5b*%
M02*
