%TF.GenerationSoftware,Altium Limited,Altium Designer,24.4.1 (13)*%
G04 Layer_Color=0*
%FSLAX45Y45*%
%MOMM*%
%TF.SameCoordinates,C660FC9E-4896-4694-9F0D-9EB1E9559909*%
%TF.FilePolarity,Positive*%
%TF.FileFunction,Plated,1,2,PTH,Drill*%
%TF.Part,Single*%
G01*
G75*
%TA.AperFunction,OtherDrill,Pad Free-15 (35.8mm,21.2mm)*%
%ADD30C,0.76200*%
%TA.AperFunction,OtherDrill,Pad Free-16 (33.8mm,21.2mm)*%
%ADD31C,0.76200*%
%TA.AperFunction,OtherDrill,Pad Free-14 (37.8mm,21.2mm)*%
%ADD32C,0.76200*%
%TA.AperFunction,OtherDrill,Pad Free-6 (46.9mm,5.7mm)*%
%ADD33C,0.76200*%
%TA.AperFunction,OtherDrill,Pad Free-9 (44.8mm,7.3mm)*%
%ADD34C,0.76200*%
%TA.AperFunction,OtherDrill,Pad Free-11 (44.8mm,14.3mm)*%
%ADD35C,0.76200*%
%TA.AperFunction,OtherDrill,Pad Free-10 (44.8mm,10.8mm)*%
%ADD36C,0.76200*%
%TA.AperFunction,OtherDrill,Pad Free-8 (46.9mm,9.1mm)*%
%ADD37C,0.76200*%
%TA.AperFunction,OtherDrill,Pad Free-7 (46.9mm,12.7mm)*%
%ADD38C,0.76200*%
%TA.AperFunction,ComponentDrill*%
%ADD39C,1.00000*%
%TA.AperFunction,OtherDrill,Pad Free-2 (5.9mm,-1.5mm)*%
%ADD40C,2.40000*%
%TA.AperFunction,OtherDrill,Pad Free-2 (41.6mm,22.5mm)*%
%ADD41C,2.40000*%
%TA.AperFunction,ViaDrill,NotFilled*%
%ADD42C,0.30000*%
D30*
X3580000Y2120000D02*
D03*
D31*
X3380000D02*
D03*
D32*
X3780000D02*
D03*
D33*
X4690000Y570000D02*
D03*
D34*
X4480000Y730000D02*
D03*
D35*
Y1430000D02*
D03*
D36*
Y1080000D02*
D03*
D37*
X4690000Y910000D02*
D03*
D38*
Y1270000D02*
D03*
D39*
X2228000Y2130000D02*
D03*
X2482000D02*
D03*
X2736000D02*
D03*
X2990000D02*
D03*
D40*
X590000Y-150000D02*
D03*
D41*
X4160000Y2250000D02*
D03*
D42*
X3187002Y320000D02*
D03*
X3186996Y160000D02*
D03*
X3347995D02*
D03*
X3348001Y320000D02*
D03*
X3508995Y160000D02*
D03*
X3509001Y320000D02*
D03*
X3669994Y160000D02*
D03*
X3670000Y320000D02*
D03*
X2060006D02*
D03*
X2060000Y160000D02*
D03*
X2220999D02*
D03*
X2221005Y320000D02*
D03*
X2381999Y160000D02*
D03*
X2382005Y320000D02*
D03*
X3026002D02*
D03*
X3025996Y160000D02*
D03*
X2865003Y320000D02*
D03*
X2864997Y160000D02*
D03*
X2704003Y320000D02*
D03*
X2703998Y160000D02*
D03*
X2542998D02*
D03*
X2543004Y320000D02*
D03*
X2010000Y1370000D02*
D03*
Y1170000D02*
D03*
Y970000D02*
D03*
Y770000D02*
D03*
X1680000Y1500000D02*
D03*
X930000Y1280000D02*
D03*
X130000Y890000D02*
D03*
Y1220000D02*
D03*
Y1055000D02*
D03*
Y1530000D02*
D03*
Y1860000D02*
D03*
Y1695000D02*
D03*
X350000Y200000D02*
D03*
Y530000D02*
D03*
Y365000D02*
D03*
Y1055000D02*
D03*
Y1220000D02*
D03*
Y890000D02*
D03*
Y1530000D02*
D03*
Y1860000D02*
D03*
Y1695000D02*
D03*
X569999Y365000D02*
D03*
Y530000D02*
D03*
Y200000D02*
D03*
Y1055000D02*
D03*
Y1220000D02*
D03*
Y890000D02*
D03*
Y1530000D02*
D03*
Y1860000D02*
D03*
Y1695000D02*
D03*
X130000Y530000D02*
D03*
Y365000D02*
D03*
Y200000D02*
D03*
X4429999Y360000D02*
D03*
Y250000D02*
D03*
Y140000D02*
D03*
X4265000Y360000D02*
D03*
Y250000D02*
D03*
Y140000D02*
D03*
X4100000D02*
D03*
Y250000D02*
D03*
Y360000D02*
D03*
Y1970000D02*
D03*
Y1860000D02*
D03*
Y1750000D02*
D03*
X4265000D02*
D03*
Y1860000D02*
D03*
Y1970000D02*
D03*
X4429999Y1750000D02*
D03*
Y1860000D02*
D03*
Y1970000D02*
D03*
%TF.MD5,c3287dfe1d55aa9b5bc9fbea8a4f4155*%
M02*
