%TF.GenerationSoftware,Altium Limited,Altium Designer,24.4.1 (13)*%
G04 Layer_Color=2752767*
%FSLAX45Y45*%
%MOMM*%
%TF.SameCoordinates,C660FC9E-4896-4694-9F0D-9EB1E9559909*%
%TF.FilePolarity,Positive*%
%TF.FileFunction,Drawing*%
%TF.Part,Single*%
G01*
G75*
%TA.AperFunction,NonConductor*%
%ADD43C,0.16933*%
%ADD45C,0.12700*%
D43*
X3630800Y2120000D02*
G03*
X3630800Y2120000I-50800J0D01*
G01*
X3430800D02*
G03*
X3430800Y2120000I-50800J0D01*
G01*
X3830800D02*
G03*
X3830800Y2120000I-50800J0D01*
G01*
X4740800Y570000D02*
G03*
X4740800Y570000I-50800J0D01*
G01*
X4530800Y730000D02*
G03*
X4530800Y730000I-50800J0D01*
G01*
Y1430000D02*
G03*
X4530800Y1430000I-50800J0D01*
G01*
Y1080000D02*
G03*
X4530800Y1080000I-50800J0D01*
G01*
X4740800Y910000D02*
G03*
X4740800Y910000I-50800J0D01*
G01*
Y1270000D02*
G03*
X4740800Y1270000I-50800J0D01*
G01*
D45*
X2177200Y2079200D02*
Y2180800D01*
X2278800D01*
Y2079200D01*
X2177200D01*
X2431200D02*
Y2180800D01*
X2532800D01*
Y2079200D01*
X2431200D01*
X2685200D02*
Y2180800D01*
X2786800D01*
Y2079200D01*
X2685200D01*
X2939200D02*
Y2180800D01*
X3040800D01*
Y2079200D01*
X2939200D01*
X590000Y-200800D02*
X539200Y-99200D01*
X640800D01*
X590000Y-200800D01*
X4160000Y2199200D02*
X4109200Y2300800D01*
X4210800D01*
X4160000Y2199200D01*
X3187002Y269200D02*
X3212402Y294600D01*
X3237802D01*
X3212402Y320000D01*
X3237802Y345400D01*
X3212402D01*
X3187002Y370800D01*
X3161602Y345400D01*
X3136202D01*
X3161602Y320000D01*
X3136202Y294600D01*
X3161602D01*
X3187002Y269200D01*
X3186996Y109200D02*
X3212396Y134600D01*
X3237796D01*
X3212396Y160000D01*
X3237796Y185400D01*
X3212396D01*
X3186996Y210800D01*
X3161596Y185400D01*
X3136196D01*
X3161596Y160000D01*
X3136196Y134600D01*
X3161596D01*
X3186996Y109200D01*
X3347995D02*
X3373395Y134600D01*
X3398795D01*
X3373395Y160000D01*
X3398795Y185400D01*
X3373395D01*
X3347995Y210800D01*
X3322595Y185400D01*
X3297195D01*
X3322595Y160000D01*
X3297195Y134600D01*
X3322595D01*
X3347995Y109200D01*
X3348001Y269200D02*
X3373401Y294600D01*
X3398801D01*
X3373401Y320000D01*
X3398801Y345400D01*
X3373401D01*
X3348001Y370800D01*
X3322601Y345400D01*
X3297201D01*
X3322601Y320000D01*
X3297201Y294600D01*
X3322601D01*
X3348001Y269200D01*
X3508995Y109200D02*
X3534395Y134600D01*
X3559795D01*
X3534395Y160000D01*
X3559795Y185400D01*
X3534395D01*
X3508995Y210800D01*
X3483595Y185400D01*
X3458195D01*
X3483595Y160000D01*
X3458195Y134600D01*
X3483595D01*
X3508995Y109200D01*
X3509001Y269200D02*
X3534401Y294600D01*
X3559801D01*
X3534401Y320000D01*
X3559801Y345400D01*
X3534401D01*
X3509001Y370800D01*
X3483601Y345400D01*
X3458201D01*
X3483601Y320000D01*
X3458201Y294600D01*
X3483601D01*
X3509001Y269200D01*
X3669994Y109200D02*
X3695394Y134600D01*
X3720794D01*
X3695394Y160000D01*
X3720794Y185400D01*
X3695394D01*
X3669994Y210800D01*
X3644594Y185400D01*
X3619194D01*
X3644594Y160000D01*
X3619194Y134600D01*
X3644594D01*
X3669994Y109200D01*
X3670000Y269200D02*
X3695400Y294600D01*
X3720800D01*
X3695400Y320000D01*
X3720800Y345400D01*
X3695400D01*
X3670000Y370800D01*
X3644600Y345400D01*
X3619200D01*
X3644600Y320000D01*
X3619200Y294600D01*
X3644600D01*
X3670000Y269200D01*
X2060006D02*
X2085406Y294600D01*
X2110806D01*
X2085406Y320000D01*
X2110806Y345400D01*
X2085406D01*
X2060006Y370800D01*
X2034606Y345400D01*
X2009206D01*
X2034606Y320000D01*
X2009206Y294600D01*
X2034606D01*
X2060006Y269200D01*
X2060000Y109200D02*
X2085400Y134600D01*
X2110800D01*
X2085400Y160000D01*
X2110800Y185400D01*
X2085400D01*
X2060000Y210800D01*
X2034600Y185400D01*
X2009200D01*
X2034600Y160000D01*
X2009200Y134600D01*
X2034600D01*
X2060000Y109200D01*
X2220999D02*
X2246399Y134600D01*
X2271799D01*
X2246399Y160000D01*
X2271799Y185400D01*
X2246399D01*
X2220999Y210800D01*
X2195599Y185400D01*
X2170199D01*
X2195599Y160000D01*
X2170199Y134600D01*
X2195599D01*
X2220999Y109200D01*
X2221005Y269200D02*
X2246405Y294600D01*
X2271805D01*
X2246405Y320000D01*
X2271805Y345400D01*
X2246405D01*
X2221005Y370800D01*
X2195605Y345400D01*
X2170205D01*
X2195605Y320000D01*
X2170205Y294600D01*
X2195605D01*
X2221005Y269200D01*
X2381999Y109200D02*
X2407399Y134600D01*
X2432799D01*
X2407399Y160000D01*
X2432799Y185400D01*
X2407399D01*
X2381999Y210800D01*
X2356599Y185400D01*
X2331199D01*
X2356599Y160000D01*
X2331199Y134600D01*
X2356599D01*
X2381999Y109200D01*
X2382005Y269200D02*
X2407405Y294600D01*
X2432805D01*
X2407405Y320000D01*
X2432805Y345400D01*
X2407405D01*
X2382005Y370800D01*
X2356605Y345400D01*
X2331205D01*
X2356605Y320000D01*
X2331205Y294600D01*
X2356605D01*
X2382005Y269200D01*
X3026002D02*
X3051402Y294600D01*
X3076802D01*
X3051402Y320000D01*
X3076802Y345400D01*
X3051402D01*
X3026002Y370800D01*
X3000602Y345400D01*
X2975202D01*
X3000602Y320000D01*
X2975202Y294600D01*
X3000602D01*
X3026002Y269200D01*
X3025996Y109200D02*
X3051396Y134600D01*
X3076796D01*
X3051396Y160000D01*
X3076796Y185400D01*
X3051396D01*
X3025996Y210800D01*
X3000596Y185400D01*
X2975196D01*
X3000596Y160000D01*
X2975196Y134600D01*
X3000596D01*
X3025996Y109200D01*
X2865003Y269200D02*
X2890403Y294600D01*
X2915803D01*
X2890403Y320000D01*
X2915803Y345400D01*
X2890403D01*
X2865003Y370800D01*
X2839603Y345400D01*
X2814203D01*
X2839603Y320000D01*
X2814203Y294600D01*
X2839603D01*
X2865003Y269200D01*
X2864997Y109200D02*
X2890397Y134600D01*
X2915797D01*
X2890397Y160000D01*
X2915797Y185400D01*
X2890397D01*
X2864997Y210800D01*
X2839597Y185400D01*
X2814197D01*
X2839597Y160000D01*
X2814197Y134600D01*
X2839597D01*
X2864997Y109200D01*
X2704003Y269200D02*
X2729403Y294600D01*
X2754803D01*
X2729403Y320000D01*
X2754803Y345400D01*
X2729403D01*
X2704003Y370800D01*
X2678603Y345400D01*
X2653203D01*
X2678603Y320000D01*
X2653203Y294600D01*
X2678603D01*
X2704003Y269200D01*
X2703998Y109200D02*
X2729398Y134600D01*
X2754798D01*
X2729398Y160000D01*
X2754798Y185400D01*
X2729398D01*
X2703998Y210800D01*
X2678598Y185400D01*
X2653198D01*
X2678598Y160000D01*
X2653198Y134600D01*
X2678598D01*
X2703998Y109200D01*
X2542998D02*
X2568398Y134600D01*
X2593798D01*
X2568398Y160000D01*
X2593798Y185400D01*
X2568398D01*
X2542998Y210800D01*
X2517598Y185400D01*
X2492198D01*
X2517598Y160000D01*
X2492198Y134600D01*
X2517598D01*
X2542998Y109200D01*
X2543004Y269200D02*
X2568404Y294600D01*
X2593804D01*
X2568404Y320000D01*
X2593804Y345400D01*
X2568404D01*
X2543004Y370800D01*
X2517604Y345400D01*
X2492204D01*
X2517604Y320000D01*
X2492204Y294600D01*
X2517604D01*
X2543004Y269200D01*
X2010000Y1319200D02*
X2035400Y1344600D01*
X2060800D01*
X2035400Y1370000D01*
X2060800Y1395400D01*
X2035400D01*
X2010000Y1420800D01*
X1984600Y1395400D01*
X1959200D01*
X1984600Y1370000D01*
X1959200Y1344600D01*
X1984600D01*
X2010000Y1319200D01*
Y1119200D02*
X2035400Y1144600D01*
X2060800D01*
X2035400Y1170000D01*
X2060800Y1195400D01*
X2035400D01*
X2010000Y1220800D01*
X1984600Y1195400D01*
X1959200D01*
X1984600Y1170000D01*
X1959200Y1144600D01*
X1984600D01*
X2010000Y1119200D01*
Y919200D02*
X2035400Y944600D01*
X2060800D01*
X2035400Y970000D01*
X2060800Y995400D01*
X2035400D01*
X2010000Y1020800D01*
X1984600Y995400D01*
X1959200D01*
X1984600Y970000D01*
X1959200Y944600D01*
X1984600D01*
X2010000Y919200D01*
Y719200D02*
X2035400Y744600D01*
X2060800D01*
X2035400Y770000D01*
X2060800Y795400D01*
X2035400D01*
X2010000Y820800D01*
X1984600Y795400D01*
X1959200D01*
X1984600Y770000D01*
X1959200Y744600D01*
X1984600D01*
X2010000Y719200D01*
X1680000Y1449200D02*
X1705400Y1474600D01*
X1730800D01*
X1705400Y1500000D01*
X1730800Y1525400D01*
X1705400D01*
X1680000Y1550800D01*
X1654600Y1525400D01*
X1629200D01*
X1654600Y1500000D01*
X1629200Y1474600D01*
X1654600D01*
X1680000Y1449200D01*
X930000Y1229200D02*
X955400Y1254600D01*
X980800D01*
X955400Y1280000D01*
X980800Y1305400D01*
X955400D01*
X930000Y1330800D01*
X904600Y1305400D01*
X879200D01*
X904600Y1280000D01*
X879200Y1254600D01*
X904600D01*
X930000Y1229200D01*
X130000Y839200D02*
X155400Y864600D01*
X180800D01*
X155400Y890000D01*
X180800Y915400D01*
X155400D01*
X130000Y940800D01*
X104600Y915400D01*
X79200D01*
X104600Y890000D01*
X79200Y864600D01*
X104600D01*
X130000Y839200D01*
Y1169200D02*
X155400Y1194600D01*
X180800D01*
X155400Y1220000D01*
X180800Y1245400D01*
X155400D01*
X130000Y1270800D01*
X104600Y1245400D01*
X79200D01*
X104600Y1220000D01*
X79200Y1194600D01*
X104600D01*
X130000Y1169200D01*
Y1004200D02*
X155400Y1029600D01*
X180800D01*
X155400Y1055000D01*
X180800Y1080400D01*
X155400D01*
X130000Y1105800D01*
X104600Y1080400D01*
X79200D01*
X104600Y1055000D01*
X79200Y1029600D01*
X104600D01*
X130000Y1004200D01*
Y1479200D02*
X155400Y1504600D01*
X180800D01*
X155400Y1530000D01*
X180800Y1555400D01*
X155400D01*
X130000Y1580800D01*
X104600Y1555400D01*
X79200D01*
X104600Y1530000D01*
X79200Y1504600D01*
X104600D01*
X130000Y1479200D01*
Y1809200D02*
X155400Y1834600D01*
X180800D01*
X155400Y1860000D01*
X180800Y1885400D01*
X155400D01*
X130000Y1910800D01*
X104600Y1885400D01*
X79200D01*
X104600Y1860000D01*
X79200Y1834600D01*
X104600D01*
X130000Y1809200D01*
Y1644200D02*
X155400Y1669600D01*
X180800D01*
X155400Y1695000D01*
X180800Y1720400D01*
X155400D01*
X130000Y1745800D01*
X104600Y1720400D01*
X79200D01*
X104600Y1695000D01*
X79200Y1669600D01*
X104600D01*
X130000Y1644200D01*
X350000Y149200D02*
X375400Y174600D01*
X400800D01*
X375400Y200000D01*
X400800Y225400D01*
X375400D01*
X350000Y250800D01*
X324600Y225400D01*
X299200D01*
X324600Y200000D01*
X299200Y174600D01*
X324600D01*
X350000Y149200D01*
Y479200D02*
X375400Y504600D01*
X400800D01*
X375400Y530000D01*
X400800Y555400D01*
X375400D01*
X350000Y580800D01*
X324600Y555400D01*
X299200D01*
X324600Y530000D01*
X299200Y504600D01*
X324600D01*
X350000Y479200D01*
Y314200D02*
X375400Y339600D01*
X400800D01*
X375400Y365000D01*
X400800Y390400D01*
X375400D01*
X350000Y415800D01*
X324600Y390400D01*
X299200D01*
X324600Y365000D01*
X299200Y339600D01*
X324600D01*
X350000Y314200D01*
Y1004200D02*
X375400Y1029600D01*
X400800D01*
X375400Y1055000D01*
X400800Y1080400D01*
X375400D01*
X350000Y1105800D01*
X324600Y1080400D01*
X299200D01*
X324600Y1055000D01*
X299200Y1029600D01*
X324600D01*
X350000Y1004200D01*
Y1169200D02*
X375400Y1194600D01*
X400800D01*
X375400Y1220000D01*
X400800Y1245400D01*
X375400D01*
X350000Y1270800D01*
X324600Y1245400D01*
X299200D01*
X324600Y1220000D01*
X299200Y1194600D01*
X324600D01*
X350000Y1169200D01*
Y839200D02*
X375400Y864600D01*
X400800D01*
X375400Y890000D01*
X400800Y915400D01*
X375400D01*
X350000Y940800D01*
X324600Y915400D01*
X299200D01*
X324600Y890000D01*
X299200Y864600D01*
X324600D01*
X350000Y839200D01*
Y1479200D02*
X375400Y1504600D01*
X400800D01*
X375400Y1530000D01*
X400800Y1555400D01*
X375400D01*
X350000Y1580800D01*
X324600Y1555400D01*
X299200D01*
X324600Y1530000D01*
X299200Y1504600D01*
X324600D01*
X350000Y1479200D01*
Y1809200D02*
X375400Y1834600D01*
X400800D01*
X375400Y1860000D01*
X400800Y1885400D01*
X375400D01*
X350000Y1910800D01*
X324600Y1885400D01*
X299200D01*
X324600Y1860000D01*
X299200Y1834600D01*
X324600D01*
X350000Y1809200D01*
Y1644200D02*
X375400Y1669600D01*
X400800D01*
X375400Y1695000D01*
X400800Y1720400D01*
X375400D01*
X350000Y1745800D01*
X324600Y1720400D01*
X299200D01*
X324600Y1695000D01*
X299200Y1669600D01*
X324600D01*
X350000Y1644200D01*
X569999Y314200D02*
X595399Y339600D01*
X620799D01*
X595399Y365000D01*
X620799Y390400D01*
X595399D01*
X569999Y415800D01*
X544599Y390400D01*
X519199D01*
X544599Y365000D01*
X519199Y339600D01*
X544599D01*
X569999Y314200D01*
Y479200D02*
X595399Y504600D01*
X620799D01*
X595399Y530000D01*
X620799Y555400D01*
X595399D01*
X569999Y580800D01*
X544599Y555400D01*
X519199D01*
X544599Y530000D01*
X519199Y504600D01*
X544599D01*
X569999Y479200D01*
Y149200D02*
X595399Y174600D01*
X620799D01*
X595399Y200000D01*
X620799Y225400D01*
X595399D01*
X569999Y250800D01*
X544599Y225400D01*
X519199D01*
X544599Y200000D01*
X519199Y174600D01*
X544599D01*
X569999Y149200D01*
Y1004200D02*
X595399Y1029600D01*
X620799D01*
X595399Y1055000D01*
X620799Y1080400D01*
X595399D01*
X569999Y1105800D01*
X544599Y1080400D01*
X519199D01*
X544599Y1055000D01*
X519199Y1029600D01*
X544599D01*
X569999Y1004200D01*
Y1169200D02*
X595399Y1194600D01*
X620799D01*
X595399Y1220000D01*
X620799Y1245400D01*
X595399D01*
X569999Y1270800D01*
X544599Y1245400D01*
X519199D01*
X544599Y1220000D01*
X519199Y1194600D01*
X544599D01*
X569999Y1169200D01*
Y839200D02*
X595399Y864600D01*
X620799D01*
X595399Y890000D01*
X620799Y915400D01*
X595399D01*
X569999Y940800D01*
X544599Y915400D01*
X519199D01*
X544599Y890000D01*
X519199Y864600D01*
X544599D01*
X569999Y839200D01*
Y1479200D02*
X595399Y1504600D01*
X620799D01*
X595399Y1530000D01*
X620799Y1555400D01*
X595399D01*
X569999Y1580800D01*
X544599Y1555400D01*
X519199D01*
X544599Y1530000D01*
X519199Y1504600D01*
X544599D01*
X569999Y1479200D01*
Y1809200D02*
X595399Y1834600D01*
X620799D01*
X595399Y1860000D01*
X620799Y1885400D01*
X595399D01*
X569999Y1910800D01*
X544599Y1885400D01*
X519199D01*
X544599Y1860000D01*
X519199Y1834600D01*
X544599D01*
X569999Y1809200D01*
Y1644200D02*
X595399Y1669600D01*
X620799D01*
X595399Y1695000D01*
X620799Y1720400D01*
X595399D01*
X569999Y1745800D01*
X544599Y1720400D01*
X519199D01*
X544599Y1695000D01*
X519199Y1669600D01*
X544599D01*
X569999Y1644200D01*
X130000Y479200D02*
X155400Y504600D01*
X180800D01*
X155400Y530000D01*
X180800Y555400D01*
X155400D01*
X130000Y580800D01*
X104600Y555400D01*
X79200D01*
X104600Y530000D01*
X79200Y504600D01*
X104600D01*
X130000Y479200D01*
Y314200D02*
X155400Y339600D01*
X180800D01*
X155400Y365000D01*
X180800Y390400D01*
X155400D01*
X130000Y415800D01*
X104600Y390400D01*
X79200D01*
X104600Y365000D01*
X79200Y339600D01*
X104600D01*
X130000Y314200D01*
Y149200D02*
X155400Y174600D01*
X180800D01*
X155400Y200000D01*
X180800Y225400D01*
X155400D01*
X130000Y250800D01*
X104600Y225400D01*
X79200D01*
X104600Y200000D01*
X79200Y174600D01*
X104600D01*
X130000Y149200D01*
X4429999Y309200D02*
X4455399Y334600D01*
X4480799D01*
X4455399Y360000D01*
X4480799Y385400D01*
X4455399D01*
X4429999Y410800D01*
X4404599Y385400D01*
X4379199D01*
X4404599Y360000D01*
X4379199Y334600D01*
X4404599D01*
X4429999Y309200D01*
Y199200D02*
X4455399Y224600D01*
X4480799D01*
X4455399Y250000D01*
X4480799Y275400D01*
X4455399D01*
X4429999Y300800D01*
X4404599Y275400D01*
X4379199D01*
X4404599Y250000D01*
X4379199Y224600D01*
X4404599D01*
X4429999Y199200D01*
Y89200D02*
X4455399Y114600D01*
X4480799D01*
X4455399Y140000D01*
X4480799Y165400D01*
X4455399D01*
X4429999Y190800D01*
X4404599Y165400D01*
X4379199D01*
X4404599Y140000D01*
X4379199Y114600D01*
X4404599D01*
X4429999Y89200D01*
X4265000Y309200D02*
X4290400Y334600D01*
X4315800D01*
X4290400Y360000D01*
X4315800Y385400D01*
X4290400D01*
X4265000Y410800D01*
X4239600Y385400D01*
X4214200D01*
X4239600Y360000D01*
X4214200Y334600D01*
X4239600D01*
X4265000Y309200D01*
Y199200D02*
X4290400Y224600D01*
X4315800D01*
X4290400Y250000D01*
X4315800Y275400D01*
X4290400D01*
X4265000Y300800D01*
X4239600Y275400D01*
X4214200D01*
X4239600Y250000D01*
X4214200Y224600D01*
X4239600D01*
X4265000Y199200D01*
Y89200D02*
X4290400Y114600D01*
X4315800D01*
X4290400Y140000D01*
X4315800Y165400D01*
X4290400D01*
X4265000Y190800D01*
X4239600Y165400D01*
X4214200D01*
X4239600Y140000D01*
X4214200Y114600D01*
X4239600D01*
X4265000Y89200D01*
X4100000D02*
X4125400Y114600D01*
X4150800D01*
X4125400Y140000D01*
X4150800Y165400D01*
X4125400D01*
X4100000Y190800D01*
X4074600Y165400D01*
X4049200D01*
X4074600Y140000D01*
X4049200Y114600D01*
X4074600D01*
X4100000Y89200D01*
Y199200D02*
X4125400Y224600D01*
X4150800D01*
X4125400Y250000D01*
X4150800Y275400D01*
X4125400D01*
X4100000Y300800D01*
X4074600Y275400D01*
X4049200D01*
X4074600Y250000D01*
X4049200Y224600D01*
X4074600D01*
X4100000Y199200D01*
Y309200D02*
X4125400Y334600D01*
X4150800D01*
X4125400Y360000D01*
X4150800Y385400D01*
X4125400D01*
X4100000Y410800D01*
X4074600Y385400D01*
X4049200D01*
X4074600Y360000D01*
X4049200Y334600D01*
X4074600D01*
X4100000Y309200D01*
Y1919200D02*
X4125400Y1944600D01*
X4150800D01*
X4125400Y1970000D01*
X4150800Y1995400D01*
X4125400D01*
X4100000Y2020800D01*
X4074600Y1995400D01*
X4049200D01*
X4074600Y1970000D01*
X4049200Y1944600D01*
X4074600D01*
X4100000Y1919200D01*
Y1809200D02*
X4125400Y1834600D01*
X4150800D01*
X4125400Y1860000D01*
X4150800Y1885400D01*
X4125400D01*
X4100000Y1910800D01*
X4074600Y1885400D01*
X4049200D01*
X4074600Y1860000D01*
X4049200Y1834600D01*
X4074600D01*
X4100000Y1809200D01*
Y1699200D02*
X4125400Y1724600D01*
X4150800D01*
X4125400Y1750000D01*
X4150800Y1775400D01*
X4125400D01*
X4100000Y1800800D01*
X4074600Y1775400D01*
X4049200D01*
X4074600Y1750000D01*
X4049200Y1724600D01*
X4074600D01*
X4100000Y1699200D01*
X4265000D02*
X4290400Y1724600D01*
X4315800D01*
X4290400Y1750000D01*
X4315800Y1775400D01*
X4290400D01*
X4265000Y1800800D01*
X4239600Y1775400D01*
X4214200D01*
X4239600Y1750000D01*
X4214200Y1724600D01*
X4239600D01*
X4265000Y1699200D01*
Y1809200D02*
X4290400Y1834600D01*
X4315800D01*
X4290400Y1860000D01*
X4315800Y1885400D01*
X4290400D01*
X4265000Y1910800D01*
X4239600Y1885400D01*
X4214200D01*
X4239600Y1860000D01*
X4214200Y1834600D01*
X4239600D01*
X4265000Y1809200D01*
Y1919200D02*
X4290400Y1944600D01*
X4315800D01*
X4290400Y1970000D01*
X4315800Y1995400D01*
X4290400D01*
X4265000Y2020800D01*
X4239600Y1995400D01*
X4214200D01*
X4239600Y1970000D01*
X4214200Y1944600D01*
X4239600D01*
X4265000Y1919200D01*
X4429999Y1699200D02*
X4455399Y1724600D01*
X4480799D01*
X4455399Y1750000D01*
X4480799Y1775400D01*
X4455399D01*
X4429999Y1800800D01*
X4404599Y1775400D01*
X4379199D01*
X4404599Y1750000D01*
X4379199Y1724600D01*
X4404599D01*
X4429999Y1699200D01*
Y1809200D02*
X4455399Y1834600D01*
X4480799D01*
X4455399Y1860000D01*
X4480799Y1885400D01*
X4455399D01*
X4429999Y1910800D01*
X4404599Y1885400D01*
X4379199D01*
X4404599Y1860000D01*
X4379199Y1834600D01*
X4404599D01*
X4429999Y1809200D01*
Y1919200D02*
X4455399Y1944600D01*
X4480799D01*
X4455399Y1970000D01*
X4480799Y1995400D01*
X4455399D01*
X4429999Y2020800D01*
X4404599Y1995400D01*
X4379199D01*
X4404599Y1970000D01*
X4379199Y1944600D01*
X4404599D01*
X4429999Y1919200D01*
%TF.MD5,3c891718355bfc653a94923873fc4f5d*%
M02*
