%TF.GenerationSoftware,Altium Limited,Altium Designer,24.2.2 (26)*%
G04 Layer_Color=2752767*
%FSLAX45Y45*%
%MOMM*%
%TF.SameCoordinates,C43FDC76-AA2B-4580-830C-854DEF30EB04*%
%TF.FilePolarity,Positive*%
%TF.FileFunction,Drawing*%
%TF.Part,Single*%
G01*
G75*
%TA.AperFunction,NonConductor*%
%ADD43C,0.16933*%
%ADD45C,0.12700*%
D43*
X3630800Y2120000D02*
G03*
X3630800Y2120000I-50800J0D01*
G01*
X3430800D02*
G03*
X3430800Y2120000I-50800J0D01*
G01*
X3830800D02*
G03*
X3830800Y2120000I-50800J0D01*
G01*
X4740800Y570000D02*
G03*
X4740800Y570000I-50800J0D01*
G01*
X4530800Y730000D02*
G03*
X4530800Y730000I-50800J0D01*
G01*
Y1430000D02*
G03*
X4530800Y1430000I-50800J0D01*
G01*
Y1080000D02*
G03*
X4530800Y1080000I-50800J0D01*
G01*
X4740800Y910000D02*
G03*
X4740800Y910000I-50800J0D01*
G01*
Y1270000D02*
G03*
X4740800Y1270000I-50800J0D01*
G01*
D45*
X2177200Y2079200D02*
Y2180800D01*
X2278800D01*
Y2079200D01*
X2177200D01*
X2431200D02*
Y2180800D01*
X2532800D01*
Y2079200D01*
X2431200D01*
X2685200D02*
Y2180800D01*
X2786800D01*
Y2079200D01*
X2685200D01*
X2939200D02*
Y2180800D01*
X3040800D01*
Y2079200D01*
X2939200D01*
X590000Y-200800D02*
X539200Y-99200D01*
X640800D01*
X590000Y-200800D01*
X4160000Y2199200D02*
X4109200Y2300800D01*
X4210800D01*
X4160000Y2199200D01*
X3347996Y279200D02*
X3373396Y304600D01*
X3398796D01*
X3373396Y330000D01*
X3398796Y355400D01*
X3373396D01*
X3347996Y380800D01*
X3322596Y355400D01*
X3297196D01*
X3322596Y330000D01*
X3297196Y304600D01*
X3322596D01*
X3347996Y279200D01*
Y169200D02*
X3373396Y194600D01*
X3398796D01*
X3373396Y220000D01*
X3398796Y245400D01*
X3373396D01*
X3347996Y270800D01*
X3322596Y245400D01*
X3297196D01*
X3322596Y220000D01*
X3297196Y194600D01*
X3322596D01*
X3347996Y169200D01*
Y59200D02*
X3373396Y84600D01*
X3398796D01*
X3373396Y110000D01*
X3398796Y135400D01*
X3373396D01*
X3347996Y160800D01*
X3322596Y135400D01*
X3297196D01*
X3322596Y110000D01*
X3297196Y84600D01*
X3322596D01*
X3347996Y59200D01*
X3455329D02*
X3480729Y84600D01*
X3506129D01*
X3480729Y110000D01*
X3506129Y135400D01*
X3480729D01*
X3455329Y160800D01*
X3429929Y135400D01*
X3404529D01*
X3429929Y110000D01*
X3404529Y84600D01*
X3429929D01*
X3455329Y59200D01*
Y169200D02*
X3480729Y194600D01*
X3506129D01*
X3480729Y220000D01*
X3506129Y245400D01*
X3480729D01*
X3455329Y270800D01*
X3429929Y245400D01*
X3404529D01*
X3429929Y220000D01*
X3404529Y194600D01*
X3429929D01*
X3455329Y169200D01*
Y279200D02*
X3480729Y304600D01*
X3506129D01*
X3480729Y330000D01*
X3506129Y355400D01*
X3480729D01*
X3455329Y380800D01*
X3429929Y355400D01*
X3404529D01*
X3429929Y330000D01*
X3404529Y304600D01*
X3429929D01*
X3455329Y279200D01*
X3562662Y59200D02*
X3588062Y84600D01*
X3613462D01*
X3588062Y110000D01*
X3613462Y135400D01*
X3588062D01*
X3562662Y160800D01*
X3537262Y135400D01*
X3511862D01*
X3537262Y110000D01*
X3511862Y84600D01*
X3537262D01*
X3562662Y59200D01*
Y169200D02*
X3588062Y194600D01*
X3613462D01*
X3588062Y220000D01*
X3613462Y245400D01*
X3588062D01*
X3562662Y270800D01*
X3537262Y245400D01*
X3511862D01*
X3537262Y220000D01*
X3511862Y194600D01*
X3537262D01*
X3562662Y169200D01*
Y279200D02*
X3588062Y304600D01*
X3613462D01*
X3588062Y330000D01*
X3613462Y355400D01*
X3588062D01*
X3562662Y380800D01*
X3537262Y355400D01*
X3511862D01*
X3537262Y330000D01*
X3511862Y304600D01*
X3537262D01*
X3562662Y279200D01*
X3669995Y59200D02*
X3695395Y84600D01*
X3720795D01*
X3695395Y110000D01*
X3720795Y135400D01*
X3695395D01*
X3669995Y160800D01*
X3644595Y135400D01*
X3619195D01*
X3644595Y110000D01*
X3619195Y84600D01*
X3644595D01*
X3669995Y59200D01*
Y169200D02*
X3695395Y194600D01*
X3720795D01*
X3695395Y220000D01*
X3720795Y245400D01*
X3695395D01*
X3669995Y270800D01*
X3644595Y245400D01*
X3619195D01*
X3644595Y220000D01*
X3619195Y194600D01*
X3644595D01*
X3669995Y169200D01*
Y279200D02*
X3695395Y304600D01*
X3720795D01*
X3695395Y330000D01*
X3720795Y355400D01*
X3695395D01*
X3669995Y380800D01*
X3644595Y355400D01*
X3619195D01*
X3644595Y330000D01*
X3619195Y304600D01*
X3644595D01*
X3669995Y279200D01*
X2811331D02*
X2836731Y304600D01*
X2862131D01*
X2836731Y330000D01*
X2862131Y355400D01*
X2836731D01*
X2811331Y380800D01*
X2785931Y355400D01*
X2760531D01*
X2785931Y330000D01*
X2760531Y304600D01*
X2785931D01*
X2811331Y279200D01*
Y169200D02*
X2836731Y194600D01*
X2862131D01*
X2836731Y220000D01*
X2862131Y245400D01*
X2836731D01*
X2811331Y270800D01*
X2785931Y245400D01*
X2760531D01*
X2785931Y220000D01*
X2760531Y194600D01*
X2785931D01*
X2811331Y169200D01*
Y59200D02*
X2836731Y84600D01*
X2862131D01*
X2836731Y110000D01*
X2862131Y135400D01*
X2836731D01*
X2811331Y160800D01*
X2785931Y135400D01*
X2760531D01*
X2785931Y110000D01*
X2760531Y84600D01*
X2785931D01*
X2811331Y59200D01*
X2703998Y279200D02*
X2729398Y304600D01*
X2754798D01*
X2729398Y330000D01*
X2754798Y355400D01*
X2729398D01*
X2703998Y380800D01*
X2678598Y355400D01*
X2653198D01*
X2678598Y330000D01*
X2653198Y304600D01*
X2678598D01*
X2703998Y279200D01*
Y169200D02*
X2729398Y194600D01*
X2754798D01*
X2729398Y220000D01*
X2754798Y245400D01*
X2729398D01*
X2703998Y270800D01*
X2678598Y245400D01*
X2653198D01*
X2678598Y220000D01*
X2653198Y194600D01*
X2678598D01*
X2703998Y169200D01*
Y59200D02*
X2729398Y84600D01*
X2754798D01*
X2729398Y110000D01*
X2754798Y135400D01*
X2729398D01*
X2703998Y160800D01*
X2678598Y135400D01*
X2653198D01*
X2678598Y110000D01*
X2653198Y84600D01*
X2678598D01*
X2703998Y59200D01*
X2596665Y279200D02*
X2622065Y304600D01*
X2647465D01*
X2622065Y330000D01*
X2647465Y355400D01*
X2622065D01*
X2596665Y380800D01*
X2571265Y355400D01*
X2545865D01*
X2571265Y330000D01*
X2545865Y304600D01*
X2571265D01*
X2596665Y279200D01*
Y169200D02*
X2622065Y194600D01*
X2647465D01*
X2622065Y220000D01*
X2647465Y245400D01*
X2622065D01*
X2596665Y270800D01*
X2571265Y245400D01*
X2545865D01*
X2571265Y220000D01*
X2545865Y194600D01*
X2571265D01*
X2596665Y169200D01*
Y59200D02*
X2622065Y84600D01*
X2647465D01*
X2622065Y110000D01*
X2647465Y135400D01*
X2622065D01*
X2596665Y160800D01*
X2571265Y135400D01*
X2545865D01*
X2571265Y110000D01*
X2545865Y84600D01*
X2571265D01*
X2596665Y59200D01*
X2489332D02*
X2514732Y84600D01*
X2540132D01*
X2514732Y110000D01*
X2540132Y135400D01*
X2514732D01*
X2489332Y160800D01*
X2463932Y135400D01*
X2438532D01*
X2463932Y110000D01*
X2438532Y84600D01*
X2463932D01*
X2489332Y59200D01*
Y169200D02*
X2514732Y194600D01*
X2540132D01*
X2514732Y220000D01*
X2540132Y245400D01*
X2514732D01*
X2489332Y270800D01*
X2463932Y245400D01*
X2438532D01*
X2463932Y220000D01*
X2438532Y194600D01*
X2463932D01*
X2489332Y169200D01*
Y279200D02*
X2514732Y304600D01*
X2540132D01*
X2514732Y330000D01*
X2540132Y355400D01*
X2514732D01*
X2489332Y380800D01*
X2463932Y355400D01*
X2438532D01*
X2463932Y330000D01*
X2438532Y304600D01*
X2463932D01*
X2489332Y279200D01*
X2060000D02*
X2085400Y304600D01*
X2110800D01*
X2085400Y330000D01*
X2110800Y355400D01*
X2085400D01*
X2060000Y380800D01*
X2034600Y355400D01*
X2009200D01*
X2034600Y330000D01*
X2009200Y304600D01*
X2034600D01*
X2060000Y279200D01*
Y169200D02*
X2085400Y194600D01*
X2110800D01*
X2085400Y220000D01*
X2110800Y245400D01*
X2085400D01*
X2060000Y270800D01*
X2034600Y245400D01*
X2009200D01*
X2034600Y220000D01*
X2009200Y194600D01*
X2034600D01*
X2060000Y169200D01*
Y59200D02*
X2085400Y84600D01*
X2110800D01*
X2085400Y110000D01*
X2110800Y135400D01*
X2085400D01*
X2060000Y160800D01*
X2034600Y135400D01*
X2009200D01*
X2034600Y110000D01*
X2009200Y84600D01*
X2034600D01*
X2060000Y59200D01*
X2167333D02*
X2192733Y84600D01*
X2218133D01*
X2192733Y110000D01*
X2218133Y135400D01*
X2192733D01*
X2167333Y160800D01*
X2141933Y135400D01*
X2116533D01*
X2141933Y110000D01*
X2116533Y84600D01*
X2141933D01*
X2167333Y59200D01*
Y169200D02*
X2192733Y194600D01*
X2218133D01*
X2192733Y220000D01*
X2218133Y245400D01*
X2192733D01*
X2167333Y270800D01*
X2141933Y245400D01*
X2116533D01*
X2141933Y220000D01*
X2116533Y194600D01*
X2141933D01*
X2167333Y169200D01*
Y279200D02*
X2192733Y304600D01*
X2218133D01*
X2192733Y330000D01*
X2218133Y355400D01*
X2192733D01*
X2167333Y380800D01*
X2141933Y355400D01*
X2116533D01*
X2141933Y330000D01*
X2116533Y304600D01*
X2141933D01*
X2167333Y279200D01*
X2274666Y59200D02*
X2300066Y84600D01*
X2325466D01*
X2300066Y110000D01*
X2325466Y135400D01*
X2300066D01*
X2274666Y160800D01*
X2249266Y135400D01*
X2223866D01*
X2249266Y110000D01*
X2223866Y84600D01*
X2249266D01*
X2274666Y59200D01*
Y169200D02*
X2300066Y194600D01*
X2325466D01*
X2300066Y220000D01*
X2325466Y245400D01*
X2300066D01*
X2274666Y270800D01*
X2249266Y245400D01*
X2223866D01*
X2249266Y220000D01*
X2223866Y194600D01*
X2249266D01*
X2274666Y169200D01*
Y279200D02*
X2300066Y304600D01*
X2325466D01*
X2300066Y330000D01*
X2325466Y355400D01*
X2300066D01*
X2274666Y380800D01*
X2249266Y355400D01*
X2223866D01*
X2249266Y330000D01*
X2223866Y304600D01*
X2249266D01*
X2274666Y279200D01*
X2381999Y59200D02*
X2407399Y84600D01*
X2432799D01*
X2407399Y110000D01*
X2432799Y135400D01*
X2407399D01*
X2381999Y160800D01*
X2356599Y135400D01*
X2331199D01*
X2356599Y110000D01*
X2331199Y84600D01*
X2356599D01*
X2381999Y59200D01*
Y169200D02*
X2407399Y194600D01*
X2432799D01*
X2407399Y220000D01*
X2432799Y245400D01*
X2407399D01*
X2381999Y270800D01*
X2356599Y245400D01*
X2331199D01*
X2356599Y220000D01*
X2331199Y194600D01*
X2356599D01*
X2381999Y169200D01*
Y279200D02*
X2407399Y304600D01*
X2432799D01*
X2407399Y330000D01*
X2432799Y355400D01*
X2407399D01*
X2381999Y380800D01*
X2356599Y355400D01*
X2331199D01*
X2356599Y330000D01*
X2331199Y304600D01*
X2356599D01*
X2381999Y279200D01*
X3240663D02*
X3266063Y304600D01*
X3291463D01*
X3266063Y330000D01*
X3291463Y355400D01*
X3266063D01*
X3240663Y380800D01*
X3215263Y355400D01*
X3189863D01*
X3215263Y330000D01*
X3189863Y304600D01*
X3215263D01*
X3240663Y279200D01*
Y169200D02*
X3266063Y194600D01*
X3291463D01*
X3266063Y220000D01*
X3291463Y245400D01*
X3266063D01*
X3240663Y270800D01*
X3215263Y245400D01*
X3189863D01*
X3215263Y220000D01*
X3189863Y194600D01*
X3215263D01*
X3240663Y169200D01*
Y59200D02*
X3266063Y84600D01*
X3291463D01*
X3266063Y110000D01*
X3291463Y135400D01*
X3266063D01*
X3240663Y160800D01*
X3215263Y135400D01*
X3189863D01*
X3215263Y110000D01*
X3189863Y84600D01*
X3215263D01*
X3240663Y59200D01*
X3133330Y279200D02*
X3158730Y304600D01*
X3184130D01*
X3158730Y330000D01*
X3184130Y355400D01*
X3158730D01*
X3133330Y380800D01*
X3107930Y355400D01*
X3082530D01*
X3107930Y330000D01*
X3082530Y304600D01*
X3107930D01*
X3133330Y279200D01*
Y169200D02*
X3158730Y194600D01*
X3184130D01*
X3158730Y220000D01*
X3184130Y245400D01*
X3158730D01*
X3133330Y270800D01*
X3107930Y245400D01*
X3082530D01*
X3107930Y220000D01*
X3082530Y194600D01*
X3107930D01*
X3133330Y169200D01*
Y59200D02*
X3158730Y84600D01*
X3184130D01*
X3158730Y110000D01*
X3184130Y135400D01*
X3158730D01*
X3133330Y160800D01*
X3107930Y135400D01*
X3082530D01*
X3107930Y110000D01*
X3082530Y84600D01*
X3107930D01*
X3133330Y59200D01*
X3025997Y279200D02*
X3051397Y304600D01*
X3076797D01*
X3051397Y330000D01*
X3076797Y355400D01*
X3051397D01*
X3025997Y380800D01*
X3000597Y355400D01*
X2975197D01*
X3000597Y330000D01*
X2975197Y304600D01*
X3000597D01*
X3025997Y279200D01*
Y169200D02*
X3051397Y194600D01*
X3076797D01*
X3051397Y220000D01*
X3076797Y245400D01*
X3051397D01*
X3025997Y270800D01*
X3000597Y245400D01*
X2975197D01*
X3000597Y220000D01*
X2975197Y194600D01*
X3000597D01*
X3025997Y169200D01*
Y59200D02*
X3051397Y84600D01*
X3076797D01*
X3051397Y110000D01*
X3076797Y135400D01*
X3051397D01*
X3025997Y160800D01*
X3000597Y135400D01*
X2975197D01*
X3000597Y110000D01*
X2975197Y84600D01*
X3000597D01*
X3025997Y59200D01*
X2918664D02*
X2944064Y84600D01*
X2969464D01*
X2944064Y110000D01*
X2969464Y135400D01*
X2944064D01*
X2918664Y160800D01*
X2893264Y135400D01*
X2867864D01*
X2893264Y110000D01*
X2867864Y84600D01*
X2893264D01*
X2918664Y59200D01*
Y169200D02*
X2944064Y194600D01*
X2969464D01*
X2944064Y220000D01*
X2969464Y245400D01*
X2944064D01*
X2918664Y270800D01*
X2893264Y245400D01*
X2867864D01*
X2893264Y220000D01*
X2867864Y194600D01*
X2893264D01*
X2918664Y169200D01*
Y279200D02*
X2944064Y304600D01*
X2969464D01*
X2944064Y330000D01*
X2969464Y355400D01*
X2944064D01*
X2918664Y380800D01*
X2893264Y355400D01*
X2867864D01*
X2893264Y330000D01*
X2867864Y304600D01*
X2893264D01*
X2918664Y279200D01*
X2010000Y1319200D02*
X2035400Y1344600D01*
X2060800D01*
X2035400Y1370000D01*
X2060800Y1395400D01*
X2035400D01*
X2010000Y1420800D01*
X1984600Y1395400D01*
X1959200D01*
X1984600Y1370000D01*
X1959200Y1344600D01*
X1984600D01*
X2010000Y1319200D01*
Y1119200D02*
X2035400Y1144600D01*
X2060800D01*
X2035400Y1170000D01*
X2060800Y1195400D01*
X2035400D01*
X2010000Y1220800D01*
X1984600Y1195400D01*
X1959200D01*
X1984600Y1170000D01*
X1959200Y1144600D01*
X1984600D01*
X2010000Y1119200D01*
Y919200D02*
X2035400Y944600D01*
X2060800D01*
X2035400Y970000D01*
X2060800Y995400D01*
X2035400D01*
X2010000Y1020800D01*
X1984600Y995400D01*
X1959200D01*
X1984600Y970000D01*
X1959200Y944600D01*
X1984600D01*
X2010000Y919200D01*
Y719200D02*
X2035400Y744600D01*
X2060800D01*
X2035400Y770000D01*
X2060800Y795400D01*
X2035400D01*
X2010000Y820800D01*
X1984600Y795400D01*
X1959200D01*
X1984600Y770000D01*
X1959200Y744600D01*
X1984600D01*
X2010000Y719200D01*
X1680000Y1449200D02*
X1705400Y1474600D01*
X1730800D01*
X1705400Y1500000D01*
X1730800Y1525400D01*
X1705400D01*
X1680000Y1550800D01*
X1654600Y1525400D01*
X1629200D01*
X1654600Y1500000D01*
X1629200Y1474600D01*
X1654600D01*
X1680000Y1449200D01*
X930000Y1229200D02*
X955400Y1254600D01*
X980800D01*
X955400Y1280000D01*
X980800Y1305400D01*
X955400D01*
X930000Y1330800D01*
X904600Y1305400D01*
X879200D01*
X904600Y1280000D01*
X879200Y1254600D01*
X904600D01*
X930000Y1229200D01*
X130000Y949200D02*
X155400Y974600D01*
X180800D01*
X155400Y1000000D01*
X180800Y1025400D01*
X155400D01*
X130000Y1050800D01*
X104600Y1025400D01*
X79200D01*
X104600Y1000000D01*
X79200Y974600D01*
X104600D01*
X130000Y949200D01*
Y839200D02*
X155400Y864600D01*
X180800D01*
X155400Y890000D01*
X180800Y915400D01*
X155400D01*
X130000Y940800D01*
X104600Y915400D01*
X79200D01*
X104600Y890000D01*
X79200Y864600D01*
X104600D01*
X130000Y839200D01*
Y1169200D02*
X155400Y1194600D01*
X180800D01*
X155400Y1220000D01*
X180800Y1245400D01*
X155400D01*
X130000Y1270800D01*
X104600Y1245400D01*
X79200D01*
X104600Y1220000D01*
X79200Y1194600D01*
X104600D01*
X130000Y1169200D01*
Y1059200D02*
X155400Y1084600D01*
X180800D01*
X155400Y1110000D01*
X180800Y1135400D01*
X155400D01*
X130000Y1160800D01*
X104600Y1135400D01*
X79200D01*
X104600Y1110000D01*
X79200Y1084600D01*
X104600D01*
X130000Y1059200D01*
Y1589200D02*
X155400Y1614600D01*
X180800D01*
X155400Y1640000D01*
X180800Y1665400D01*
X155400D01*
X130000Y1690800D01*
X104600Y1665400D01*
X79200D01*
X104600Y1640000D01*
X79200Y1614600D01*
X104600D01*
X130000Y1589200D01*
Y1479200D02*
X155400Y1504600D01*
X180800D01*
X155400Y1530000D01*
X180800Y1555400D01*
X155400D01*
X130000Y1580800D01*
X104600Y1555400D01*
X79200D01*
X104600Y1530000D01*
X79200Y1504600D01*
X104600D01*
X130000Y1479200D01*
Y1809200D02*
X155400Y1834600D01*
X180800D01*
X155400Y1860000D01*
X180800Y1885400D01*
X155400D01*
X130000Y1910800D01*
X104600Y1885400D01*
X79200D01*
X104600Y1860000D01*
X79200Y1834600D01*
X104600D01*
X130000Y1809200D01*
Y1699200D02*
X155400Y1724600D01*
X180800D01*
X155400Y1750000D01*
X180800Y1775400D01*
X155400D01*
X130000Y1800800D01*
X104600Y1775400D01*
X79200D01*
X104600Y1750000D01*
X79200Y1724600D01*
X104600D01*
X130000Y1699200D01*
X240000Y369200D02*
X265400Y394600D01*
X290800D01*
X265400Y420000D01*
X290800Y445400D01*
X265400D01*
X240000Y470800D01*
X214600Y445400D01*
X189200D01*
X214600Y420000D01*
X189200Y394600D01*
X214600D01*
X240000Y369200D01*
Y479200D02*
X265400Y504600D01*
X290800D01*
X265400Y530000D01*
X290800Y555400D01*
X265400D01*
X240000Y580800D01*
X214600Y555400D01*
X189200D01*
X214600Y530000D01*
X189200Y504600D01*
X214600D01*
X240000Y479200D01*
Y149200D02*
X265400Y174600D01*
X290800D01*
X265400Y200000D01*
X290800Y225400D01*
X265400D01*
X240000Y250800D01*
X214600Y225400D01*
X189200D01*
X214600Y200000D01*
X189200Y174600D01*
X214600D01*
X240000Y149200D01*
Y259200D02*
X265400Y284600D01*
X290800D01*
X265400Y310000D01*
X290800Y335400D01*
X265400D01*
X240000Y360800D01*
X214600Y335400D01*
X189200D01*
X214600Y310000D01*
X189200Y284600D01*
X214600D01*
X240000Y259200D01*
Y1699200D02*
X265400Y1724600D01*
X290800D01*
X265400Y1750000D01*
X290800Y1775400D01*
X265400D01*
X240000Y1800800D01*
X214600Y1775400D01*
X189200D01*
X214600Y1750000D01*
X189200Y1724600D01*
X214600D01*
X240000Y1699200D01*
Y1809200D02*
X265400Y1834600D01*
X290800D01*
X265400Y1860000D01*
X290800Y1885400D01*
X265400D01*
X240000Y1910800D01*
X214600Y1885400D01*
X189200D01*
X214600Y1860000D01*
X189200Y1834600D01*
X214600D01*
X240000Y1809200D01*
Y1479200D02*
X265400Y1504600D01*
X290800D01*
X265400Y1530000D01*
X290800Y1555400D01*
X265400D01*
X240000Y1580800D01*
X214600Y1555400D01*
X189200D01*
X214600Y1530000D01*
X189200Y1504600D01*
X214600D01*
X240000Y1479200D01*
Y1589200D02*
X265400Y1614600D01*
X290800D01*
X265400Y1640000D01*
X290800Y1665400D01*
X265400D01*
X240000Y1690800D01*
X214600Y1665400D01*
X189200D01*
X214600Y1640000D01*
X189200Y1614600D01*
X214600D01*
X240000Y1589200D01*
Y949200D02*
X265400Y974600D01*
X290800D01*
X265400Y1000000D01*
X290800Y1025400D01*
X265400D01*
X240000Y1050800D01*
X214600Y1025400D01*
X189200D01*
X214600Y1000000D01*
X189200Y974600D01*
X214600D01*
X240000Y949200D01*
Y839200D02*
X265400Y864600D01*
X290800D01*
X265400Y890000D01*
X290800Y915400D01*
X265400D01*
X240000Y940800D01*
X214600Y915400D01*
X189200D01*
X214600Y890000D01*
X189200Y864600D01*
X214600D01*
X240000Y839200D01*
Y1169200D02*
X265400Y1194600D01*
X290800D01*
X265400Y1220000D01*
X290800Y1245400D01*
X265400D01*
X240000Y1270800D01*
X214600Y1245400D01*
X189200D01*
X214600Y1220000D01*
X189200Y1194600D01*
X214600D01*
X240000Y1169200D01*
Y1059200D02*
X265400Y1084600D01*
X290800D01*
X265400Y1110000D01*
X290800Y1135400D01*
X265400D01*
X240000Y1160800D01*
X214600Y1135400D01*
X189200D01*
X214600Y1110000D01*
X189200Y1084600D01*
X214600D01*
X240000Y1059200D01*
X350000Y259200D02*
X375400Y284600D01*
X400800D01*
X375400Y310000D01*
X400800Y335400D01*
X375400D01*
X350000Y360800D01*
X324600Y335400D01*
X299200D01*
X324600Y310000D01*
X299200Y284600D01*
X324600D01*
X350000Y259200D01*
Y149200D02*
X375400Y174600D01*
X400800D01*
X375400Y200000D01*
X400800Y225400D01*
X375400D01*
X350000Y250800D01*
X324600Y225400D01*
X299200D01*
X324600Y200000D01*
X299200Y174600D01*
X324600D01*
X350000Y149200D01*
Y479200D02*
X375400Y504600D01*
X400800D01*
X375400Y530000D01*
X400800Y555400D01*
X375400D01*
X350000Y580800D01*
X324600Y555400D01*
X299200D01*
X324600Y530000D01*
X299200Y504600D01*
X324600D01*
X350000Y479200D01*
Y369200D02*
X375400Y394600D01*
X400800D01*
X375400Y420000D01*
X400800Y445400D01*
X375400D01*
X350000Y470800D01*
X324600Y445400D01*
X299200D01*
X324600Y420000D01*
X299200Y394600D01*
X324600D01*
X350000Y369200D01*
Y1059200D02*
X375400Y1084600D01*
X400800D01*
X375400Y1110000D01*
X400800Y1135400D01*
X375400D01*
X350000Y1160800D01*
X324600Y1135400D01*
X299200D01*
X324600Y1110000D01*
X299200Y1084600D01*
X324600D01*
X350000Y1059200D01*
Y1169200D02*
X375400Y1194600D01*
X400800D01*
X375400Y1220000D01*
X400800Y1245400D01*
X375400D01*
X350000Y1270800D01*
X324600Y1245400D01*
X299200D01*
X324600Y1220000D01*
X299200Y1194600D01*
X324600D01*
X350000Y1169200D01*
Y839200D02*
X375400Y864600D01*
X400800D01*
X375400Y890000D01*
X400800Y915400D01*
X375400D01*
X350000Y940800D01*
X324600Y915400D01*
X299200D01*
X324600Y890000D01*
X299200Y864600D01*
X324600D01*
X350000Y839200D01*
Y949200D02*
X375400Y974600D01*
X400800D01*
X375400Y1000000D01*
X400800Y1025400D01*
X375400D01*
X350000Y1050800D01*
X324600Y1025400D01*
X299200D01*
X324600Y1000000D01*
X299200Y974600D01*
X324600D01*
X350000Y949200D01*
Y1589200D02*
X375400Y1614600D01*
X400800D01*
X375400Y1640000D01*
X400800Y1665400D01*
X375400D01*
X350000Y1690800D01*
X324600Y1665400D01*
X299200D01*
X324600Y1640000D01*
X299200Y1614600D01*
X324600D01*
X350000Y1589200D01*
Y1479200D02*
X375400Y1504600D01*
X400800D01*
X375400Y1530000D01*
X400800Y1555400D01*
X375400D01*
X350000Y1580800D01*
X324600Y1555400D01*
X299200D01*
X324600Y1530000D01*
X299200Y1504600D01*
X324600D01*
X350000Y1479200D01*
Y1809200D02*
X375400Y1834600D01*
X400800D01*
X375400Y1860000D01*
X400800Y1885400D01*
X375400D01*
X350000Y1910800D01*
X324600Y1885400D01*
X299200D01*
X324600Y1860000D01*
X299200Y1834600D01*
X324600D01*
X350000Y1809200D01*
Y1699200D02*
X375400Y1724600D01*
X400800D01*
X375400Y1750000D01*
X400800Y1775400D01*
X375400D01*
X350000Y1800800D01*
X324600Y1775400D01*
X299200D01*
X324600Y1750000D01*
X299200Y1724600D01*
X324600D01*
X350000Y1699200D01*
X459999Y259200D02*
X485399Y284600D01*
X510799D01*
X485399Y310000D01*
X510799Y335400D01*
X485399D01*
X459999Y360800D01*
X434599Y335400D01*
X409199D01*
X434599Y310000D01*
X409199Y284600D01*
X434599D01*
X459999Y259200D01*
Y149200D02*
X485399Y174600D01*
X510799D01*
X485399Y200000D01*
X510799Y225400D01*
X485399D01*
X459999Y250800D01*
X434599Y225400D01*
X409199D01*
X434599Y200000D01*
X409199Y174600D01*
X434599D01*
X459999Y149200D01*
Y479200D02*
X485399Y504600D01*
X510799D01*
X485399Y530000D01*
X510799Y555400D01*
X485399D01*
X459999Y580800D01*
X434599Y555400D01*
X409199D01*
X434599Y530000D01*
X409199Y504600D01*
X434599D01*
X459999Y479200D01*
Y369200D02*
X485399Y394600D01*
X510799D01*
X485399Y420000D01*
X510799Y445400D01*
X485399D01*
X459999Y470800D01*
X434599Y445400D01*
X409199D01*
X434599Y420000D01*
X409199Y394600D01*
X434599D01*
X459999Y369200D01*
Y1059200D02*
X485399Y1084600D01*
X510799D01*
X485399Y1110000D01*
X510799Y1135400D01*
X485399D01*
X459999Y1160800D01*
X434599Y1135400D01*
X409199D01*
X434599Y1110000D01*
X409199Y1084600D01*
X434599D01*
X459999Y1059200D01*
Y1169200D02*
X485399Y1194600D01*
X510799D01*
X485399Y1220000D01*
X510799Y1245400D01*
X485399D01*
X459999Y1270800D01*
X434599Y1245400D01*
X409199D01*
X434599Y1220000D01*
X409199Y1194600D01*
X434599D01*
X459999Y1169200D01*
Y839200D02*
X485399Y864600D01*
X510799D01*
X485399Y890000D01*
X510799Y915400D01*
X485399D01*
X459999Y940800D01*
X434599Y915400D01*
X409199D01*
X434599Y890000D01*
X409199Y864600D01*
X434599D01*
X459999Y839200D01*
Y949200D02*
X485399Y974600D01*
X510799D01*
X485399Y1000000D01*
X510799Y1025400D01*
X485399D01*
X459999Y1050800D01*
X434599Y1025400D01*
X409199D01*
X434599Y1000000D01*
X409199Y974600D01*
X434599D01*
X459999Y949200D01*
Y1699200D02*
X485399Y1724600D01*
X510799D01*
X485399Y1750000D01*
X510799Y1775400D01*
X485399D01*
X459999Y1800800D01*
X434599Y1775400D01*
X409199D01*
X434599Y1750000D01*
X409199Y1724600D01*
X434599D01*
X459999Y1699200D01*
Y1809200D02*
X485399Y1834600D01*
X510799D01*
X485399Y1860000D01*
X510799Y1885400D01*
X485399D01*
X459999Y1910800D01*
X434599Y1885400D01*
X409199D01*
X434599Y1860000D01*
X409199Y1834600D01*
X434599D01*
X459999Y1809200D01*
Y1479200D02*
X485399Y1504600D01*
X510799D01*
X485399Y1530000D01*
X510799Y1555400D01*
X485399D01*
X459999Y1580800D01*
X434599Y1555400D01*
X409199D01*
X434599Y1530000D01*
X409199Y1504600D01*
X434599D01*
X459999Y1479200D01*
Y1589200D02*
X485399Y1614600D01*
X510799D01*
X485399Y1640000D01*
X510799Y1665400D01*
X485399D01*
X459999Y1690800D01*
X434599Y1665400D01*
X409199D01*
X434599Y1640000D01*
X409199Y1614600D01*
X434599D01*
X459999Y1589200D01*
X569999Y369200D02*
X595399Y394600D01*
X620799D01*
X595399Y420000D01*
X620799Y445400D01*
X595399D01*
X569999Y470800D01*
X544599Y445400D01*
X519199D01*
X544599Y420000D01*
X519199Y394600D01*
X544599D01*
X569999Y369200D01*
Y479200D02*
X595399Y504600D01*
X620799D01*
X595399Y530000D01*
X620799Y555400D01*
X595399D01*
X569999Y580800D01*
X544599Y555400D01*
X519199D01*
X544599Y530000D01*
X519199Y504600D01*
X544599D01*
X569999Y479200D01*
Y149200D02*
X595399Y174600D01*
X620799D01*
X595399Y200000D01*
X620799Y225400D01*
X595399D01*
X569999Y250800D01*
X544599Y225400D01*
X519199D01*
X544599Y200000D01*
X519199Y174600D01*
X544599D01*
X569999Y149200D01*
Y259200D02*
X595399Y284600D01*
X620799D01*
X595399Y310000D01*
X620799Y335400D01*
X595399D01*
X569999Y360800D01*
X544599Y335400D01*
X519199D01*
X544599Y310000D01*
X519199Y284600D01*
X544599D01*
X569999Y259200D01*
Y1059200D02*
X595399Y1084600D01*
X620799D01*
X595399Y1110000D01*
X620799Y1135400D01*
X595399D01*
X569999Y1160800D01*
X544599Y1135400D01*
X519199D01*
X544599Y1110000D01*
X519199Y1084600D01*
X544599D01*
X569999Y1059200D01*
Y1169200D02*
X595399Y1194600D01*
X620799D01*
X595399Y1220000D01*
X620799Y1245400D01*
X595399D01*
X569999Y1270800D01*
X544599Y1245400D01*
X519199D01*
X544599Y1220000D01*
X519199Y1194600D01*
X544599D01*
X569999Y1169200D01*
Y839200D02*
X595399Y864600D01*
X620799D01*
X595399Y890000D01*
X620799Y915400D01*
X595399D01*
X569999Y940800D01*
X544599Y915400D01*
X519199D01*
X544599Y890000D01*
X519199Y864600D01*
X544599D01*
X569999Y839200D01*
Y949200D02*
X595399Y974600D01*
X620799D01*
X595399Y1000000D01*
X620799Y1025400D01*
X595399D01*
X569999Y1050800D01*
X544599Y1025400D01*
X519199D01*
X544599Y1000000D01*
X519199Y974600D01*
X544599D01*
X569999Y949200D01*
Y1589200D02*
X595399Y1614600D01*
X620799D01*
X595399Y1640000D01*
X620799Y1665400D01*
X595399D01*
X569999Y1690800D01*
X544599Y1665400D01*
X519199D01*
X544599Y1640000D01*
X519199Y1614600D01*
X544599D01*
X569999Y1589200D01*
Y1479200D02*
X595399Y1504600D01*
X620799D01*
X595399Y1530000D01*
X620799Y1555400D01*
X595399D01*
X569999Y1580800D01*
X544599Y1555400D01*
X519199D01*
X544599Y1530000D01*
X519199Y1504600D01*
X544599D01*
X569999Y1479200D01*
Y1809200D02*
X595399Y1834600D01*
X620799D01*
X595399Y1860000D01*
X620799Y1885400D01*
X595399D01*
X569999Y1910800D01*
X544599Y1885400D01*
X519199D01*
X544599Y1860000D01*
X519199Y1834600D01*
X544599D01*
X569999Y1809200D01*
Y1699200D02*
X595399Y1724600D01*
X620799D01*
X595399Y1750000D01*
X620799Y1775400D01*
X595399D01*
X569999Y1800800D01*
X544599Y1775400D01*
X519199D01*
X544599Y1750000D01*
X519199Y1724600D01*
X544599D01*
X569999Y1699200D01*
X130000Y479200D02*
X155400Y504600D01*
X180800D01*
X155400Y530000D01*
X180800Y555400D01*
X155400D01*
X130000Y580800D01*
X104600Y555400D01*
X79200D01*
X104600Y530000D01*
X79200Y504600D01*
X104600D01*
X130000Y479200D01*
Y369200D02*
X155400Y394600D01*
X180800D01*
X155400Y420000D01*
X180800Y445400D01*
X155400D01*
X130000Y470800D01*
X104600Y445400D01*
X79200D01*
X104600Y420000D01*
X79200Y394600D01*
X104600D01*
X130000Y369200D01*
Y259200D02*
X155400Y284600D01*
X180800D01*
X155400Y310000D01*
X180800Y335400D01*
X155400D01*
X130000Y360800D01*
X104600Y335400D01*
X79200D01*
X104600Y310000D01*
X79200Y284600D01*
X104600D01*
X130000Y259200D01*
Y149200D02*
X155400Y174600D01*
X180800D01*
X155400Y200000D01*
X180800Y225400D01*
X155400D01*
X130000Y250800D01*
X104600Y225400D01*
X79200D01*
X104600Y200000D01*
X79200Y174600D01*
X104600D01*
X130000Y149200D01*
X4429999Y309200D02*
X4455399Y334600D01*
X4480799D01*
X4455399Y360000D01*
X4480799Y385400D01*
X4455399D01*
X4429999Y410800D01*
X4404599Y385400D01*
X4379199D01*
X4404599Y360000D01*
X4379199Y334600D01*
X4404599D01*
X4429999Y309200D01*
Y199200D02*
X4455399Y224600D01*
X4480799D01*
X4455399Y250000D01*
X4480799Y275400D01*
X4455399D01*
X4429999Y300800D01*
X4404599Y275400D01*
X4379199D01*
X4404599Y250000D01*
X4379199Y224600D01*
X4404599D01*
X4429999Y199200D01*
Y89200D02*
X4455399Y114600D01*
X4480799D01*
X4455399Y140000D01*
X4480799Y165400D01*
X4455399D01*
X4429999Y190800D01*
X4404599Y165400D01*
X4379199D01*
X4404599Y140000D01*
X4379199Y114600D01*
X4404599D01*
X4429999Y89200D01*
X4319999Y309200D02*
X4345399Y334600D01*
X4370799D01*
X4345399Y360000D01*
X4370799Y385400D01*
X4345399D01*
X4319999Y410800D01*
X4294599Y385400D01*
X4269199D01*
X4294599Y360000D01*
X4269199Y334600D01*
X4294599D01*
X4319999Y309200D01*
Y199200D02*
X4345399Y224600D01*
X4370799D01*
X4345399Y250000D01*
X4370799Y275400D01*
X4345399D01*
X4319999Y300800D01*
X4294599Y275400D01*
X4269199D01*
X4294599Y250000D01*
X4269199Y224600D01*
X4294599D01*
X4319999Y199200D01*
Y89200D02*
X4345399Y114600D01*
X4370799D01*
X4345399Y140000D01*
X4370799Y165400D01*
X4345399D01*
X4319999Y190800D01*
X4294599Y165400D01*
X4269199D01*
X4294599Y140000D01*
X4269199Y114600D01*
X4294599D01*
X4319999Y89200D01*
X4210000Y309200D02*
X4235400Y334600D01*
X4260800D01*
X4235400Y360000D01*
X4260800Y385400D01*
X4235400D01*
X4210000Y410800D01*
X4184600Y385400D01*
X4159200D01*
X4184600Y360000D01*
X4159200Y334600D01*
X4184600D01*
X4210000Y309200D01*
Y199200D02*
X4235400Y224600D01*
X4260800D01*
X4235400Y250000D01*
X4260800Y275400D01*
X4235400D01*
X4210000Y300800D01*
X4184600Y275400D01*
X4159200D01*
X4184600Y250000D01*
X4159200Y224600D01*
X4184600D01*
X4210000Y199200D01*
Y89200D02*
X4235400Y114600D01*
X4260800D01*
X4235400Y140000D01*
X4260800Y165400D01*
X4235400D01*
X4210000Y190800D01*
X4184600Y165400D01*
X4159200D01*
X4184600Y140000D01*
X4159200Y114600D01*
X4184600D01*
X4210000Y89200D01*
X4100000D02*
X4125400Y114600D01*
X4150800D01*
X4125400Y140000D01*
X4150800Y165400D01*
X4125400D01*
X4100000Y190800D01*
X4074600Y165400D01*
X4049200D01*
X4074600Y140000D01*
X4049200Y114600D01*
X4074600D01*
X4100000Y89200D01*
Y199200D02*
X4125400Y224600D01*
X4150800D01*
X4125400Y250000D01*
X4150800Y275400D01*
X4125400D01*
X4100000Y300800D01*
X4074600Y275400D01*
X4049200D01*
X4074600Y250000D01*
X4049200Y224600D01*
X4074600D01*
X4100000Y199200D01*
Y309200D02*
X4125400Y334600D01*
X4150800D01*
X4125400Y360000D01*
X4150800Y385400D01*
X4125400D01*
X4100000Y410800D01*
X4074600Y385400D01*
X4049200D01*
X4074600Y360000D01*
X4049200Y334600D01*
X4074600D01*
X4100000Y309200D01*
Y1919200D02*
X4125400Y1944600D01*
X4150800D01*
X4125400Y1970000D01*
X4150800Y1995400D01*
X4125400D01*
X4100000Y2020800D01*
X4074600Y1995400D01*
X4049200D01*
X4074600Y1970000D01*
X4049200Y1944600D01*
X4074600D01*
X4100000Y1919200D01*
Y1809200D02*
X4125400Y1834600D01*
X4150800D01*
X4125400Y1860000D01*
X4150800Y1885400D01*
X4125400D01*
X4100000Y1910800D01*
X4074600Y1885400D01*
X4049200D01*
X4074600Y1860000D01*
X4049200Y1834600D01*
X4074600D01*
X4100000Y1809200D01*
Y1699200D02*
X4125400Y1724600D01*
X4150800D01*
X4125400Y1750000D01*
X4150800Y1775400D01*
X4125400D01*
X4100000Y1800800D01*
X4074600Y1775400D01*
X4049200D01*
X4074600Y1750000D01*
X4049200Y1724600D01*
X4074600D01*
X4100000Y1699200D01*
X4210000D02*
X4235400Y1724600D01*
X4260800D01*
X4235400Y1750000D01*
X4260800Y1775400D01*
X4235400D01*
X4210000Y1800800D01*
X4184600Y1775400D01*
X4159200D01*
X4184600Y1750000D01*
X4159200Y1724600D01*
X4184600D01*
X4210000Y1699200D01*
Y1809200D02*
X4235400Y1834600D01*
X4260800D01*
X4235400Y1860000D01*
X4260800Y1885400D01*
X4235400D01*
X4210000Y1910800D01*
X4184600Y1885400D01*
X4159200D01*
X4184600Y1860000D01*
X4159200Y1834600D01*
X4184600D01*
X4210000Y1809200D01*
Y1919200D02*
X4235400Y1944600D01*
X4260800D01*
X4235400Y1970000D01*
X4260800Y1995400D01*
X4235400D01*
X4210000Y2020800D01*
X4184600Y1995400D01*
X4159200D01*
X4184600Y1970000D01*
X4159200Y1944600D01*
X4184600D01*
X4210000Y1919200D01*
X4319999Y1699200D02*
X4345399Y1724600D01*
X4370799D01*
X4345399Y1750000D01*
X4370799Y1775400D01*
X4345399D01*
X4319999Y1800800D01*
X4294599Y1775400D01*
X4269199D01*
X4294599Y1750000D01*
X4269199Y1724600D01*
X4294599D01*
X4319999Y1699200D01*
Y1809200D02*
X4345399Y1834600D01*
X4370799D01*
X4345399Y1860000D01*
X4370799Y1885400D01*
X4345399D01*
X4319999Y1910800D01*
X4294599Y1885400D01*
X4269199D01*
X4294599Y1860000D01*
X4269199Y1834600D01*
X4294599D01*
X4319999Y1809200D01*
Y1919200D02*
X4345399Y1944600D01*
X4370799D01*
X4345399Y1970000D01*
X4370799Y1995400D01*
X4345399D01*
X4319999Y2020800D01*
X4294599Y1995400D01*
X4269199D01*
X4294599Y1970000D01*
X4269199Y1944600D01*
X4294599D01*
X4319999Y1919200D01*
X4429999Y1699200D02*
X4455399Y1724600D01*
X4480799D01*
X4455399Y1750000D01*
X4480799Y1775400D01*
X4455399D01*
X4429999Y1800800D01*
X4404599Y1775400D01*
X4379199D01*
X4404599Y1750000D01*
X4379199Y1724600D01*
X4404599D01*
X4429999Y1699200D01*
Y1809200D02*
X4455399Y1834600D01*
X4480799D01*
X4455399Y1860000D01*
X4480799Y1885400D01*
X4455399D01*
X4429999Y1910800D01*
X4404599Y1885400D01*
X4379199D01*
X4404599Y1860000D01*
X4379199Y1834600D01*
X4404599D01*
X4429999Y1809200D01*
Y1919200D02*
X4455399Y1944600D01*
X4480799D01*
X4455399Y1970000D01*
X4480799Y1995400D01*
X4455399D01*
X4429999Y2020800D01*
X4404599Y1995400D01*
X4379199D01*
X4404599Y1970000D01*
X4379199Y1944600D01*
X4404599D01*
X4429999Y1919200D01*
%TF.MD5,1ad79eb4f45569a76345990c63cd1bca*%
M02*
