%TF.GenerationSoftware,Altium Limited,Altium Designer,24.2.2 (26)*%
G04 Layer_Color=255*
%FSLAX45Y45*%
%MOMM*%
%TF.SameCoordinates,C43FDC76-AA2B-4580-830C-854DEF30EB04*%
%TF.FilePolarity,Positive*%
%TF.FileFunction,Pads,Top*%
%TF.Part,Single*%
G01*
G75*
%TA.AperFunction,SMDPad,CuDef*%
%ADD10R,6.35000X5.08000*%
%ADD11R,5.08000X3.68000*%
%TA.AperFunction,ViaPad*%
%ADD15C,1.52400*%
%TA.AperFunction,ComponentPad*%
G04:AMPARAMS|DCode=16|XSize=2.032mm|YSize=1.524mm|CornerRadius=0mm|HoleSize=0mm|Usage=FLASHONLY|Rotation=90.000|XOffset=0mm|YOffset=0mm|HoleType=Round|Shape=Octagon|*
%AMOCTAGOND16*
4,1,8,0.38100,1.01600,-0.38100,1.01600,-0.76200,0.63500,-0.76200,-0.63500,-0.38100,-1.01600,0.38100,-1.01600,0.76200,-0.63500,0.76200,0.63500,0.38100,1.01600,0.0*
%
%ADD16OCTAGOND16*%

D10*
X360000Y1030000D02*
D03*
Y370000D02*
D03*
Y1690000D02*
D03*
D11*
X4260000Y1850000D02*
D03*
Y260000D02*
D03*
D15*
X3580000Y2120000D02*
D03*
X3380000D02*
D03*
X3780000D02*
D03*
X4690000Y570000D02*
D03*
X4480000Y730000D02*
D03*
Y1430000D02*
D03*
Y1080000D02*
D03*
X4690000Y910000D02*
D03*
Y1270000D02*
D03*
X590000Y-150000D02*
D03*
X4160000Y2250000D02*
D03*
D16*
X2228000Y2130000D02*
D03*
X2482000D02*
D03*
X2736000D02*
D03*
X2990000D02*
D03*
%TF.MD5,c25df0e871c41ad43552a2143158ef1a*%
M02*
