%TF.GenerationSoftware,Altium Limited,Altium Designer,23.6.0 (18)*%
G04 Layer_Color=8388736*
%FSLAX45Y45*%
%MOMM*%
%TF.SameCoordinates,E8FE7F88-156A-4670-BA50-05D3EA163389*%
%TF.FilePolarity,Negative*%
%TF.FileFunction,Soldermask,Top*%
%TF.Part,Single*%
G01*
G75*
%TA.AperFunction,SMDPad,CuDef*%
%ADD21R,5.28320X3.88320*%
%ADD22R,6.55320X5.28320*%
%TA.AperFunction,ViaPad*%
%ADD23C,1.72720*%
%TA.AperFunction,ComponentPad*%
G04:AMPARAMS|DCode=24|XSize=2.2352mm|YSize=1.7272mm|CornerRadius=0mm|HoleSize=0mm|Usage=FLASHONLY|Rotation=90.000|XOffset=0mm|YOffset=0mm|HoleType=Round|Shape=Octagon|*
%AMOCTAGOND24*
4,1,8,0.43180,1.11760,-0.43180,1.11760,-0.86360,0.68580,-0.86360,-0.68580,-0.43180,-1.11760,0.43180,-1.11760,0.86360,-0.68580,0.86360,0.68580,0.43180,1.11760,0.0*
%
%ADD24OCTAGOND24*%

D21*
X4260000Y1850000D02*
D03*
Y260000D02*
D03*
D22*
X360000Y1030000D02*
D03*
Y370000D02*
D03*
Y1690000D02*
D03*
D23*
X3580000Y2120000D02*
D03*
X3380000D02*
D03*
X3780000D02*
D03*
X4690000Y570000D02*
D03*
X4480000Y730000D02*
D03*
Y1430000D02*
D03*
Y1080000D02*
D03*
X4690000Y910000D02*
D03*
Y1270000D02*
D03*
X590000Y-150000D02*
D03*
X4160000Y2250000D02*
D03*
D24*
X2228000Y2130000D02*
D03*
X2482000D02*
D03*
X2736000D02*
D03*
X2990000D02*
D03*
%TF.MD5,a9b3a692a5afaccace648dee5932f540*%
M02*
