%TF.GenerationSoftware,Altium Limited,Altium Designer,24.4.1 (13)*%
G04 Layer_Physical_Order=2*
G04 Layer_Color=16711680*
%FSLAX45Y45*%
%MOMM*%
%TF.SameCoordinates,C660FC9E-4896-4694-9F0D-9EB1E9559909*%
%TF.FilePolarity,Positive*%
%TF.FileFunction,Copper,L2,Bot,Signal*%
%TF.Part,Single*%
G01*
G75*
%TA.AperFunction,Conductor*%
%ADD12C,0.30000*%
%TA.AperFunction,ViaPad*%
%ADD15C,1.52400*%
%TA.AperFunction,ComponentPad*%
G04:AMPARAMS|DCode=16|XSize=2.032mm|YSize=1.524mm|CornerRadius=0mm|HoleSize=0mm|Usage=FLASHONLY|Rotation=90.000|XOffset=0mm|YOffset=0mm|HoleType=Round|Shape=Octagon|*
%AMOCTAGOND16*
4,1,8,0.38100,1.01600,-0.38100,1.01600,-0.76200,0.63500,-0.76200,-0.63500,-0.38100,-1.01600,0.38100,-1.01600,0.76200,-0.63500,0.76200,0.63500,0.38100,1.01600,0.0*
%
%ADD16OCTAGOND16*%

%TA.AperFunction,ViaPad*%
%ADD17C,0.60000*%
%TA.AperFunction,SMDPad,CuDef*%
%ADD18R,3.30000X1.02000*%
G36*
X4771154Y1983909D02*
Y1349124D01*
X4759420Y1344264D01*
X4752384Y1351300D01*
X4729216Y1364676D01*
X4703376Y1371600D01*
X4676624D01*
X4650784Y1364676D01*
X4627616Y1351300D01*
X4608700Y1332384D01*
X4595324Y1309216D01*
X4588400Y1283376D01*
Y1256624D01*
X4595324Y1230784D01*
X4608700Y1207616D01*
X4627616Y1188700D01*
X4650784Y1175324D01*
X4676624Y1168400D01*
X4703376D01*
X4729216Y1175324D01*
X4752384Y1188700D01*
X4759420Y1195736D01*
X4771154Y1190876D01*
Y989124D01*
X4759420Y984264D01*
X4752384Y991300D01*
X4729216Y1004676D01*
X4703376Y1011600D01*
X4676624D01*
X4650784Y1004676D01*
X4627616Y991300D01*
X4608700Y972384D01*
X4595324Y949216D01*
X4588400Y923376D01*
Y896624D01*
X4595324Y870784D01*
X4608700Y847616D01*
X4627616Y828700D01*
X4650784Y815324D01*
X4676624Y808400D01*
X4703376D01*
X4729216Y815324D01*
X4752384Y828700D01*
X4759420Y835736D01*
X4771154Y830876D01*
Y649124D01*
X4759420Y644264D01*
X4752384Y651300D01*
X4729216Y664676D01*
X4703376Y671600D01*
X4676624D01*
X4650784Y664676D01*
X4627616Y651300D01*
X4608700Y632384D01*
X4595324Y609216D01*
X4588400Y583376D01*
Y556624D01*
X4595324Y530784D01*
X4608700Y507616D01*
X4627616Y488700D01*
X4650784Y475324D01*
X4676624Y468400D01*
X4703376D01*
X4729216Y475324D01*
X4752384Y488700D01*
X4759420Y495736D01*
X4771154Y490876D01*
Y38847D01*
X4562065D01*
X4557204Y50580D01*
X4568312Y61688D01*
X4573926Y70090D01*
X4575898Y80000D01*
Y430000D01*
X4573926Y439911D01*
X4568312Y448313D01*
X4538312Y478312D01*
X4529911Y483926D01*
X4520000Y485898D01*
X4330727D01*
X4165898Y650727D01*
Y1200000D01*
X4163926Y1209910D01*
X4158312Y1218312D01*
X3918312Y1458312D01*
X3909910Y1463926D01*
X3900000Y1465897D01*
X3360000D01*
X3350089Y1463926D01*
X3341687Y1458312D01*
X3331688Y1448312D01*
X3326074Y1439911D01*
X3324102Y1430000D01*
Y1090000D01*
X3326074Y1080090D01*
X3331688Y1071688D01*
X3340089Y1066074D01*
X3350000Y1064103D01*
X3729273D01*
X3774102Y1019273D01*
Y310000D01*
X3776074Y300089D01*
X3781688Y291687D01*
X4022795Y50580D01*
X4017935Y38847D01*
X1280000D01*
X1265134Y35889D01*
X1252531Y27469D01*
X843909Y-381153D01*
X456091D01*
X38847Y36091D01*
Y53372D01*
X50000Y64102D01*
X1060000D01*
X1069910Y66074D01*
X1078312Y71688D01*
X1410727Y404102D01*
X2700000D01*
X2709911Y406074D01*
X2718312Y411688D01*
X2980727Y674103D01*
X3280000D01*
X3289911Y676074D01*
X3298312Y681688D01*
X3303926Y690090D01*
X3305898Y700000D01*
Y1020000D01*
X3303926Y1029911D01*
X3298312Y1038312D01*
X3288312Y1048312D01*
X3279911Y1053926D01*
X3270000Y1055898D01*
X2490000D01*
X2480090Y1053926D01*
X2471688Y1048312D01*
X2089273Y665898D01*
X1427540D01*
X1423688Y678598D01*
X1428312Y681688D01*
X1433926Y690090D01*
X1435898Y700000D01*
Y1030000D01*
X1433926Y1039911D01*
X1428312Y1048312D01*
X1408312Y1068312D01*
X1399911Y1073926D01*
X1390000Y1075898D01*
X971846D01*
X770962Y1308304D01*
X770151Y1308935D01*
X769577Y1309785D01*
X766191Y1312019D01*
X762989Y1314513D01*
X762000Y1314786D01*
X761143Y1315351D01*
X757159Y1316120D01*
X753248Y1317198D01*
X752229Y1317071D01*
X751221Y1317266D01*
X736329Y1317181D01*
X728245Y1326976D01*
X728846Y1330000D01*
Y1390000D01*
X727994Y1394285D01*
X736051Y1404102D01*
X860000D01*
X869911Y1406074D01*
X878312Y1411688D01*
X883926Y1420089D01*
X885898Y1430000D01*
Y1539273D01*
X890727Y1544102D01*
X1260426D01*
X1264279Y1531402D01*
X1260874Y1529127D01*
X1220873Y1489127D01*
X1211944Y1475763D01*
X1208809Y1460000D01*
Y1446400D01*
X1046100D01*
Y1293600D01*
X1426900D01*
Y1446399D01*
X1426900D01*
X1427603Y1458809D01*
X1472397D01*
X1473100Y1446399D01*
X1473100D01*
Y1293600D01*
X1853900D01*
Y1328808D01*
X1972844D01*
X1978619Y1323034D01*
X1998980Y1314600D01*
X2021020D01*
X2041381Y1323034D01*
X2056966Y1338618D01*
X2065400Y1358980D01*
Y1381020D01*
X2056966Y1401381D01*
X2041381Y1416966D01*
X2021020Y1425400D01*
X1998980D01*
X1978619Y1416966D01*
X1972844Y1411191D01*
X1853900D01*
Y1446400D01*
X1722708D01*
X1717447Y1459100D01*
X1726966Y1468619D01*
X1735400Y1488980D01*
Y1511020D01*
X1726966Y1531381D01*
X1725978Y1532369D01*
X1730839Y1544102D01*
X2029273D01*
X2491688Y1081688D01*
X2500089Y1076074D01*
X2510000Y1074103D01*
X3270000D01*
X3279911Y1076074D01*
X3288312Y1081688D01*
X3293926Y1090090D01*
X3295898Y1100000D01*
Y1430000D01*
X3293926Y1439911D01*
X3288312Y1448312D01*
X3278312Y1458312D01*
X3269911Y1463926D01*
X3260000Y1465897D01*
X2530727D01*
X2028312Y1968312D01*
X2019911Y1973926D01*
X2010000Y1975897D01*
X38847D01*
Y1991153D01*
X1730000D01*
X1744866Y1994111D01*
X1757469Y2002531D01*
X2056091Y2301153D01*
X3750000D01*
X3764866Y2304110D01*
X3777469Y2312531D01*
X3866091Y2401153D01*
X4113261D01*
X4114933Y2388453D01*
X4103878Y2385491D01*
X4070722Y2366349D01*
X4043651Y2339278D01*
X4024509Y2306122D01*
X4014600Y2269142D01*
Y2230858D01*
X4024509Y2193878D01*
X4043651Y2160722D01*
X4070722Y2133651D01*
X4103878Y2114509D01*
X4140858Y2104600D01*
X4179142D01*
X4216122Y2114509D01*
X4249278Y2133651D01*
X4276349Y2160722D01*
X4295491Y2193878D01*
X4305400Y2230858D01*
Y2269142D01*
X4295491Y2306122D01*
X4276349Y2339278D01*
X4249278Y2366349D01*
X4216122Y2385491D01*
X4205068Y2388453D01*
X4206740Y2401153D01*
X4353910D01*
X4771154Y1983909D01*
D02*
G37*
G36*
X2520000Y1440000D02*
X3260000D01*
X3270000Y1430000D01*
Y1100000D01*
X2510000D01*
X2040000Y1570000D01*
X880000D01*
X860000Y1550000D01*
Y1430000D01*
X38847D01*
Y1950000D01*
X2010000D01*
X2520000Y1440000D01*
D02*
G37*
G36*
X960000Y1050000D02*
X1390000D01*
X1410000Y1030000D01*
Y700000D01*
X860000D01*
X790000Y770000D01*
X38847D01*
Y1287312D01*
X751369Y1291369D01*
X960000Y1050000D01*
D02*
G37*
G36*
X3280000Y1020000D02*
Y700000D01*
X2970000D01*
X2700000Y430000D01*
X1400000D01*
X1060000Y90000D01*
X50000D01*
X38847Y101153D01*
Y631153D01*
X690000D01*
X704866Y634110D01*
X713680Y640000D01*
X2100000D01*
X2490000Y1030000D01*
X3270000D01*
X3280000Y1020000D01*
D02*
G37*
G36*
X4140000Y1200000D02*
Y640000D01*
X4320000Y460000D01*
X4520000D01*
X4550000Y430000D01*
Y80000D01*
X4520000Y50000D01*
X4060000D01*
X3800000Y310000D01*
Y1030000D01*
X3740000Y1090000D01*
X3350000D01*
Y1430000D01*
X3360000Y1440000D01*
X3900000D01*
X4140000Y1200000D01*
D02*
G37*
%LPC*%
G36*
X3793376Y2221600D02*
X3766624D01*
X3740784Y2214677D01*
X3717616Y2201301D01*
X3698699Y2182384D01*
X3687031Y2162175D01*
X3681669Y2160891D01*
X3678331D01*
X3672968Y2162175D01*
X3661300Y2182384D01*
X3642384Y2201301D01*
X3619216Y2214677D01*
X3593376Y2221600D01*
X3566624D01*
X3540784Y2214677D01*
X3517616Y2201301D01*
X3498700Y2182384D01*
X3487032Y2162175D01*
X3481669Y2160891D01*
X3478331D01*
X3472968Y2162175D01*
X3461300Y2182384D01*
X3442384Y2201301D01*
X3419216Y2214677D01*
X3393376Y2221600D01*
X3366624D01*
X3340784Y2214677D01*
X3317616Y2201301D01*
X3298700Y2182384D01*
X3285324Y2159216D01*
X3278400Y2133376D01*
Y2106624D01*
X3285324Y2080784D01*
X3298700Y2057616D01*
X3317616Y2038700D01*
X3340784Y2025324D01*
X3366624Y2018400D01*
X3393376D01*
X3419216Y2025324D01*
X3442384Y2038700D01*
X3461300Y2057616D01*
X3472968Y2077826D01*
X3478331Y2079110D01*
X3481669D01*
X3487032Y2077826D01*
X3498700Y2057616D01*
X3517616Y2038700D01*
X3540784Y2025324D01*
X3566624Y2018400D01*
X3593376D01*
X3619216Y2025324D01*
X3642384Y2038700D01*
X3661300Y2057616D01*
X3672968Y2077826D01*
X3678331Y2079110D01*
X3681669D01*
X3687031Y2077826D01*
X3698699Y2057616D01*
X3717616Y2038700D01*
X3740784Y2025324D01*
X3766624Y2018400D01*
X3793376D01*
X3819216Y2025324D01*
X3842384Y2038700D01*
X3861300Y2057616D01*
X3874676Y2080784D01*
X3881600Y2106624D01*
Y2133376D01*
X3874676Y2159216D01*
X3861300Y2182384D01*
X3842384Y2201301D01*
X3819216Y2214677D01*
X3793376Y2221600D01*
D02*
G37*
G36*
X3040800Y2257000D02*
X2939200D01*
X2888400Y2206200D01*
Y2053800D01*
X2939200Y2003000D01*
X3040800D01*
X3091600Y2053800D01*
Y2206200D01*
X3040800Y2257000D01*
D02*
G37*
G36*
X2532800D02*
X2431200D01*
X2380400Y2206200D01*
Y2053800D01*
X2431200Y2003000D01*
X2532800D01*
X2583600Y2053800D01*
Y2206200D01*
X2532800Y2257000D01*
D02*
G37*
G36*
X2278800D02*
X2177200D01*
X2126400Y2206200D01*
Y2053800D01*
X2177200Y2003000D01*
X2278800D01*
X2329600Y2053800D01*
Y2206200D01*
X2278800Y2257000D01*
D02*
G37*
G36*
X4493376Y1531600D02*
X4466624D01*
X4440784Y1524676D01*
X4417616Y1511301D01*
X4398700Y1492384D01*
X4385324Y1469216D01*
X4378400Y1443376D01*
Y1416624D01*
X4385324Y1390784D01*
X4398700Y1367616D01*
X4417616Y1348700D01*
X4440784Y1335324D01*
X4466624Y1328400D01*
X4493376D01*
X4519216Y1335324D01*
X4542384Y1348700D01*
X4561300Y1367616D01*
X4574676Y1390784D01*
X4581600Y1416624D01*
Y1443376D01*
X4574676Y1469216D01*
X4561300Y1492384D01*
X4542384Y1511301D01*
X4519216Y1524676D01*
X4493376Y1531600D01*
D02*
G37*
G36*
X1853900Y1246400D02*
X1473100D01*
Y1093600D01*
X1853900D01*
Y1128809D01*
X1972844D01*
X1978619Y1123034D01*
X1998980Y1114600D01*
X2021020D01*
X2041381Y1123034D01*
X2056966Y1138618D01*
X2065400Y1158980D01*
Y1181020D01*
X2056966Y1201381D01*
X2041381Y1216966D01*
X2021020Y1225400D01*
X1998980D01*
X1978619Y1216966D01*
X1972844Y1211191D01*
X1853900D01*
Y1246400D01*
D02*
G37*
G36*
X941020Y1335400D02*
X918980D01*
X898618Y1326966D01*
X883034Y1311381D01*
X874600Y1291020D01*
Y1268980D01*
X883034Y1248619D01*
X898618Y1233034D01*
X915850Y1225896D01*
X1000874Y1140873D01*
X1014237Y1131944D01*
X1030000Y1128809D01*
X1046100D01*
Y1093600D01*
X1426900D01*
Y1246400D01*
X1046100D01*
Y1228747D01*
X1034367Y1223887D01*
X985400Y1272854D01*
Y1291020D01*
X976966Y1311381D01*
X961381Y1326966D01*
X941020Y1335400D01*
D02*
G37*
G36*
X4493376Y1181600D02*
X4466624D01*
X4440784Y1174676D01*
X4417616Y1161300D01*
X4398700Y1142384D01*
X4385324Y1119216D01*
X4378400Y1093376D01*
Y1066624D01*
X4385324Y1040784D01*
X4398700Y1017616D01*
X4417616Y998700D01*
X4440784Y985324D01*
X4466624Y978400D01*
X4493376D01*
X4519216Y985324D01*
X4542384Y998700D01*
X4561300Y1017616D01*
X4574676Y1040784D01*
X4581600Y1066624D01*
Y1093376D01*
X4574676Y1119216D01*
X4561300Y1142384D01*
X4542384Y1161300D01*
X4519216Y1174676D01*
X4493376Y1181600D01*
D02*
G37*
G36*
X1853900Y1046400D02*
X1473100D01*
Y893600D01*
X1853900D01*
Y928808D01*
X1972844D01*
X1978619Y923034D01*
X1998980Y914600D01*
X2021020D01*
X2041381Y923034D01*
X2056966Y938618D01*
X2065400Y958980D01*
Y981020D01*
X2056966Y1001381D01*
X2041381Y1016966D01*
X2021020Y1025400D01*
X1998980D01*
X1978619Y1016966D01*
X1972844Y1011191D01*
X1853900D01*
Y1046400D01*
D02*
G37*
G36*
Y846400D02*
X1473100D01*
Y693600D01*
X1853900D01*
Y728809D01*
X1972844D01*
X1978619Y723034D01*
X1998980Y714600D01*
X2021020D01*
X2041381Y723034D01*
X2056966Y738619D01*
X2065400Y758980D01*
Y781020D01*
X2056966Y801381D01*
X2041381Y816966D01*
X2021020Y825400D01*
X1998980D01*
X1978619Y816966D01*
X1972844Y811191D01*
X1853900D01*
Y846400D01*
D02*
G37*
G36*
X4493376Y831600D02*
X4466624D01*
X4440784Y824676D01*
X4417616Y811300D01*
X4398700Y792384D01*
X4385324Y769216D01*
X4378400Y743376D01*
Y716624D01*
X4385324Y690784D01*
X4398700Y667616D01*
X4417616Y648700D01*
X4440784Y635324D01*
X4466624Y628400D01*
X4493376D01*
X4519216Y635324D01*
X4542384Y648700D01*
X4561300Y667616D01*
X4574676Y690784D01*
X4581600Y716624D01*
Y743376D01*
X4574676Y769216D01*
X4561300Y792384D01*
X4542384Y811300D01*
X4519216Y824676D01*
X4493376Y831600D01*
D02*
G37*
G36*
X609142Y-4600D02*
X570858D01*
X533878Y-14509D01*
X500722Y-33651D01*
X473651Y-60722D01*
X454509Y-93878D01*
X444600Y-130858D01*
Y-169142D01*
X454509Y-206122D01*
X473651Y-239278D01*
X500722Y-266349D01*
X533878Y-285491D01*
X570858Y-295400D01*
X609142D01*
X646122Y-285491D01*
X679278Y-266349D01*
X706349Y-239278D01*
X725491Y-206122D01*
X735400Y-169142D01*
Y-130858D01*
X725491Y-93878D01*
X706349Y-60722D01*
X679278Y-33651D01*
X646122Y-14509D01*
X609142Y-4600D01*
D02*
G37*
%LPD*%
D12*
X1663500Y1370000D02*
X2010000D01*
X1663500Y1170000D02*
X2010000D01*
X1663500Y970000D02*
X2010000D01*
X1663500Y770000D02*
X2010000D01*
X1290000Y1500000D02*
X1680000D01*
X1250000Y1460000D02*
X1290000Y1500000D01*
X1250000Y1383500D02*
Y1460000D01*
X1236500Y1370000D02*
X1250000Y1383500D01*
X930000Y1270000D02*
Y1280000D01*
Y1270000D02*
X1030000Y1170000D01*
X1236500D01*
D15*
X3580000Y2120000D02*
D03*
X3380000D02*
D03*
X3780000D02*
D03*
X4690000Y570000D02*
D03*
X4480000Y730000D02*
D03*
Y1430000D02*
D03*
Y1080000D02*
D03*
X4690000Y910000D02*
D03*
Y1270000D02*
D03*
X590000Y-150000D02*
D03*
X4160000Y2250000D02*
D03*
D16*
X2228000Y2130000D02*
D03*
X2482000D02*
D03*
X2736000D02*
D03*
X2990000D02*
D03*
D17*
X3187002Y320000D02*
D03*
X3186996Y160000D02*
D03*
X3347995D02*
D03*
X3348001Y320000D02*
D03*
X3508995Y160000D02*
D03*
X3509001Y320000D02*
D03*
X3669994Y160000D02*
D03*
X3670000Y320000D02*
D03*
X2060006D02*
D03*
X2060000Y160000D02*
D03*
X2220999D02*
D03*
X2221005Y320000D02*
D03*
X2381999Y160000D02*
D03*
X2382005Y320000D02*
D03*
X3026002D02*
D03*
X3025996Y160000D02*
D03*
X2865003Y320000D02*
D03*
X2864997Y160000D02*
D03*
X2704003Y320000D02*
D03*
X2703998Y160000D02*
D03*
X2542998D02*
D03*
X2543004Y320000D02*
D03*
X2010000Y1370000D02*
D03*
Y1170000D02*
D03*
Y970000D02*
D03*
Y770000D02*
D03*
X1680000Y1500000D02*
D03*
X930000Y1280000D02*
D03*
X130000Y890000D02*
D03*
Y1220000D02*
D03*
Y1055000D02*
D03*
Y1530000D02*
D03*
Y1860000D02*
D03*
Y1695000D02*
D03*
X350000Y200000D02*
D03*
Y530000D02*
D03*
Y365000D02*
D03*
Y1055000D02*
D03*
Y1220000D02*
D03*
Y890000D02*
D03*
Y1530000D02*
D03*
Y1860000D02*
D03*
Y1695000D02*
D03*
X569999Y365000D02*
D03*
Y530000D02*
D03*
Y200000D02*
D03*
Y1055000D02*
D03*
Y1220000D02*
D03*
Y890000D02*
D03*
Y1530000D02*
D03*
Y1860000D02*
D03*
Y1695000D02*
D03*
X130000Y530000D02*
D03*
Y365000D02*
D03*
Y200000D02*
D03*
X4429999Y360000D02*
D03*
Y250000D02*
D03*
Y140000D02*
D03*
X4265000Y360000D02*
D03*
Y250000D02*
D03*
Y140000D02*
D03*
X4100000D02*
D03*
Y250000D02*
D03*
Y360000D02*
D03*
Y1970000D02*
D03*
Y1860000D02*
D03*
Y1750000D02*
D03*
X4265000D02*
D03*
Y1860000D02*
D03*
Y1970000D02*
D03*
X4429999Y1750000D02*
D03*
Y1860000D02*
D03*
Y1970000D02*
D03*
D18*
X3096500Y770000D02*
D03*
X3523500D02*
D03*
X3096500Y970000D02*
D03*
X3523500D02*
D03*
X3096500Y1170000D02*
D03*
X3523500D02*
D03*
X3096500Y1370000D02*
D03*
X3523500D02*
D03*
X1663500D02*
D03*
X1236500D02*
D03*
X1663500Y1170000D02*
D03*
X1236500D02*
D03*
X1663500Y970000D02*
D03*
X1236500D02*
D03*
X1663500Y770000D02*
D03*
X1236500D02*
D03*
%TF.MD5,d5b4c21cd8753668cd47c31105601c68*%
M02*
