G04*
G04 #@! TF.GenerationSoftware,Altium Limited,Altium Designer,22.4.2 (48)*
G04*
G04 Layer_Color=8421504*
%FSLAX25Y25*%
%MOIN*%
G70*
G04*
G04 #@! TF.SameCoordinates,973ADB7D-B351-4DEC-92AE-D0A835D2328F*
G04*
G04*
G04 #@! TF.FilePolarity,Positive*
G04*
G01*
G75*
%ADD13R,0.07008X0.02835*%
%ADD14R,0.01595X0.03898*%
%ADD15R,0.08799X0.06791*%
%ADD16R,0.02362X0.02362*%
%ADD17R,0.03150X0.03543*%
%ADD18R,0.02992X0.02835*%
%ADD19R,0.08661X0.09252*%
%ADD20R,0.02165X0.02165*%
D13*
X-26713Y16555D02*
D03*
Y11555D02*
D03*
Y6555D02*
D03*
Y1555D02*
D03*
X-4783Y16555D02*
D03*
Y11555D02*
D03*
Y6555D02*
D03*
Y1555D02*
D03*
D14*
X35394Y21398D02*
D03*
X32795D02*
D03*
X30197D02*
D03*
X27598D02*
D03*
Y10098D02*
D03*
X30197D02*
D03*
X32795D02*
D03*
X35394D02*
D03*
X27598Y5650D02*
D03*
X30197D02*
D03*
X32795D02*
D03*
X35394D02*
D03*
Y-5650D02*
D03*
X32795D02*
D03*
X30197D02*
D03*
X27598D02*
D03*
D15*
X31496Y13553D02*
D03*
Y2195D02*
D03*
D16*
X-34941Y1575D02*
D03*
X-39075D02*
D03*
X-34941Y11811D02*
D03*
X-39075D02*
D03*
D17*
X19488D02*
D03*
X12008D02*
D03*
X15748Y19685D02*
D03*
D18*
X-17677Y-1969D02*
D03*
X-13819D02*
D03*
D19*
X-27264Y-14961D02*
D03*
X-4232D02*
D03*
D20*
X5709Y11417D02*
D03*
X2165D02*
D03*
Y1575D02*
D03*
X5709D02*
D03*
M02*
