G04*
G04 #@! TF.GenerationSoftware,Altium Limited,Altium Designer,22.4.2 (48)*
G04*
G04 Layer_Color=2752767*
%FSLAX25Y25*%
%MOIN*%
G70*
G04*
G04 #@! TF.SameCoordinates,A57B437F-A86B-4AA4-8399-F8B01B8E29F7*
G04*
G04*
G04 #@! TF.FilePolarity,Positive*
G04*
G01*
G75*
%ADD33C,0.00500*%
%ADD34C,0.00667*%
D33*
X44457Y13000D02*
Y17000D01*
X48457D01*
Y13000D01*
X44457D01*
Y3000D02*
Y7000D01*
X48457D01*
Y3000D01*
X44457D01*
Y-7000D02*
Y-3000D01*
X48457D01*
Y-7000D01*
X44457D01*
Y-17000D02*
Y-13000D01*
X48457D01*
Y-17000D01*
X44457D01*
X-48457Y13000D02*
Y17000D01*
X-44457D01*
Y13000D01*
X-48457D01*
Y3000D02*
Y7000D01*
X-44457D01*
Y3000D01*
X-48457D01*
Y-7000D02*
Y-3000D01*
X-44457D01*
Y-7000D01*
X-48457D01*
Y-17000D02*
Y-13000D01*
X-44457D01*
Y-17000D01*
X-48457D01*
D34*
X43339Y-5906D02*
G03*
X43339Y-5906I-2000J0D01*
G01*
X41370Y-3937D02*
G03*
X41370Y-3937I-2000J0D01*
G01*
X31528Y-15748D02*
G03*
X31528Y-15748I-2000J0D01*
G01*
X35465D02*
G03*
X35465Y-15748I-2000J0D01*
G01*
X39402D02*
G03*
X39402Y-15748I-2000J0D01*
G01*
X43339D02*
G03*
X43339Y-15748I-2000J0D01*
G01*
X-9811Y-5906D02*
G03*
X-9811Y-5906I-2000J0D01*
G01*
X-17685D02*
G03*
X-17685Y-5906I-2000J0D01*
G01*
X-9811Y17717D02*
G03*
X-9811Y17717I-2000J0D01*
G01*
Y13780D02*
G03*
X-9811Y13780I-2000J0D01*
G01*
Y9843D02*
G03*
X-9811Y9843I-2000J0D01*
G01*
Y5906D02*
G03*
X-9811Y5906I-2000J0D01*
G01*
X-17685Y-17717D02*
G03*
X-17685Y-17717I-2000J0D01*
G01*
Y-13780D02*
G03*
X-17685Y-13780I-2000J0D01*
G01*
Y-9843D02*
G03*
X-17685Y-9843I-2000J0D01*
G01*
Y5906D02*
G03*
X-17685Y5906I-2000J0D01*
G01*
M02*
