G04*
G04 #@! TF.GenerationSoftware,Altium Limited,Altium Designer,22.4.2 (48)*
G04*
G04 Layer_Physical_Order=1*
G04 Layer_Color=255*
%FSLAX25Y25*%
%MOIN*%
G70*
G04*
G04 #@! TF.SameCoordinates,A57B437F-A86B-4AA4-8399-F8B01B8E29F7*
G04*
G04*
G04 #@! TF.FilePolarity,Positive*
G04*
G01*
G75*
%ADD10C,0.01000*%
%ADD13R,0.07008X0.02835*%
%ADD14R,0.01595X0.03898*%
%ADD15R,0.08799X0.06791*%
%ADD16R,0.02362X0.02362*%
%ADD17R,0.03150X0.03543*%
%ADD18R,0.02992X0.02835*%
%ADD19R,0.08661X0.09252*%
%ADD20R,0.02165X0.02165*%
%ADD29R,0.05906X0.05906*%
%ADD30C,0.05906*%
%ADD31C,0.02756*%
G36*
X62992Y-27559D02*
X-55256D01*
Y27559D01*
X62992D01*
Y-27559D01*
D02*
G37*
%LPC*%
G36*
X-886Y18366D02*
X-8681D01*
Y14744D01*
X-886D01*
Y18366D01*
D02*
G37*
G36*
X-22815D02*
X-30610D01*
Y14744D01*
X-22815D01*
Y18366D01*
D02*
G37*
G36*
X-42889Y20348D02*
X-50024D01*
X-50373Y20279D01*
X-50669Y20081D01*
X-51538Y19212D01*
X-51736Y18916D01*
X-51805Y18567D01*
Y9437D01*
X-51736Y9088D01*
X-51538Y8793D01*
X-49378Y6633D01*
X-49575Y6292D01*
X-49803Y5441D01*
Y4559D01*
X-49575Y3708D01*
X-49134Y2945D01*
X-48511Y2322D01*
X-47748Y1882D01*
X-46897Y1654D01*
X-46016D01*
X-45165Y1882D01*
X-44402Y2322D01*
X-43779Y2945D01*
X-43338Y3708D01*
X-43110Y4559D01*
Y5441D01*
X-43338Y6292D01*
X-43779Y7055D01*
X-44402Y7678D01*
X-45165Y8118D01*
X-46016Y8347D01*
X-46897D01*
X-47748Y8118D01*
X-48090Y7921D01*
X-49983Y9814D01*
Y11228D01*
X-49803Y11654D01*
X-49483Y11654D01*
X-44915D01*
Y9866D01*
X-44846Y9517D01*
X-44648Y9222D01*
X-39986Y4560D01*
Y3150D01*
X-40650D01*
Y0D01*
X-37500D01*
Y3150D01*
X-38164D01*
Y4937D01*
X-38233Y5286D01*
X-38431Y5581D01*
X-43093Y10244D01*
Y12547D01*
X-43110Y12635D01*
Y17662D01*
X-42610Y17869D01*
X-39986Y15245D01*
Y13386D01*
X-40650D01*
Y10236D01*
X-37500D01*
Y13386D01*
X-38164D01*
Y15623D01*
X-38233Y15971D01*
X-38431Y16267D01*
X-42245Y20081D01*
X-42540Y20279D01*
X-42889Y20348D01*
D02*
G37*
G36*
X-886Y13366D02*
X-8681D01*
Y9744D01*
X-886D01*
Y10575D01*
X689D01*
Y9941D01*
X3642D01*
Y12894D01*
X689D01*
Y12397D01*
X-886D01*
Y13366D01*
D02*
G37*
G36*
X28789Y23740D02*
X26408D01*
Y21189D01*
X26390Y21100D01*
Y20001D01*
X26338Y19949D01*
X22104D01*
X21756Y19880D01*
X21460Y19682D01*
X14500Y12722D01*
X13976D01*
Y13976D01*
X10039D01*
Y12329D01*
X7185D01*
Y12894D01*
X4232D01*
Y9941D01*
X7185D01*
Y10506D01*
X10039D01*
Y9646D01*
X13976D01*
Y10900D01*
X14878D01*
X15227Y10969D01*
X15522Y11167D01*
X17058Y12702D01*
X17520Y12511D01*
Y9646D01*
X21457D01*
Y13976D01*
X18985D01*
X18794Y14438D01*
X22482Y18126D01*
X23031D01*
Y1351D01*
X22569Y1160D01*
X21510Y2219D01*
X21215Y2417D01*
X20866Y2486D01*
X7185D01*
Y3051D01*
X4232D01*
Y98D01*
X7185D01*
Y664D01*
X20489D01*
X23891Y-2739D01*
X24187Y-2936D01*
X24535Y-3006D01*
X25856D01*
X25952Y-3150D01*
Y-18898D01*
X26077Y-19199D01*
X26378Y-19324D01*
X50000D01*
X50301Y-19199D01*
X50426Y-18898D01*
Y-7874D01*
X50301Y-7573D01*
X50000Y-7448D01*
X48172D01*
X48069Y-7490D01*
X47959Y-7505D01*
X47584Y-7721D01*
X46841Y-7920D01*
X46072D01*
X45329Y-7721D01*
X44955Y-7505D01*
X44844Y-7490D01*
X44742Y-7448D01*
X36585D01*
Y-3307D01*
X35491D01*
X35368Y-3184D01*
X35328Y-2982D01*
X35131Y-2686D01*
X34513Y-2069D01*
X34705Y-1607D01*
X43110Y-1607D01*
X43412Y-1482D01*
X43536Y-1181D01*
Y2481D01*
X44036Y2688D01*
X44402Y2322D01*
X45165Y1882D01*
X46016Y1654D01*
X46897D01*
X47748Y1882D01*
X48511Y2322D01*
X49134Y2945D01*
X49575Y3708D01*
X49803Y4559D01*
Y5441D01*
X49575Y6292D01*
X49134Y7055D01*
X48511Y7678D01*
X48452Y7712D01*
X48472Y8212D01*
X48643Y8293D01*
X48676Y8329D01*
X48724Y8343D01*
X49679Y9093D01*
X49693Y9117D01*
X49718Y9127D01*
X49771Y9256D01*
X49839Y9378D01*
X49832Y9404D01*
X49842Y9429D01*
X49834Y17953D01*
X49803Y18027D01*
Y18346D01*
X49486D01*
X49408Y18379D01*
X28456D01*
X28192Y18879D01*
X28313Y19055D01*
X28789D01*
Y23740D01*
D02*
G37*
G36*
X-886Y3366D02*
X-8681D01*
Y-256D01*
X-886D01*
Y654D01*
X689D01*
Y98D01*
X3642D01*
Y3051D01*
X689D01*
Y2476D01*
X-886D01*
Y3366D01*
D02*
G37*
G36*
X-46016Y-1654D02*
X-46897D01*
X-47748Y-1882D01*
X-48511Y-2322D01*
X-49134Y-2945D01*
X-49575Y-3708D01*
X-49803Y-4559D01*
Y-5441D01*
X-49575Y-6292D01*
X-49134Y-7055D01*
X-48511Y-7678D01*
X-47748Y-8118D01*
X-46897Y-8347D01*
X-46016D01*
X-45165Y-8118D01*
X-44402Y-7678D01*
X-43779Y-7055D01*
X-43338Y-6292D01*
X-43110Y-5441D01*
Y-4559D01*
X-43338Y-3708D01*
X-43779Y-2945D01*
X-44402Y-2322D01*
X-45165Y-1882D01*
X-46016Y-1654D01*
D02*
G37*
G36*
Y-11654D02*
X-46897D01*
X-47748Y-11882D01*
X-48511Y-12322D01*
X-49134Y-12945D01*
X-49575Y-13708D01*
X-49803Y-14559D01*
Y-15441D01*
X-49575Y-16292D01*
X-49134Y-17055D01*
X-48511Y-17678D01*
X-47748Y-18118D01*
X-46897Y-18346D01*
X-46016D01*
X-45165Y-18118D01*
X-44402Y-17678D01*
X-43779Y-17055D01*
X-43338Y-16292D01*
X-43110Y-15441D01*
Y-14559D01*
X-43338Y-13708D01*
X-43779Y-12945D01*
X-44402Y-12322D01*
X-45165Y-11882D01*
X-46016Y-11654D01*
D02*
G37*
G36*
X-33366Y13386D02*
X-36516D01*
Y10236D01*
X-33366D01*
Y10772D01*
X-30964D01*
X-30610Y10418D01*
X-30610Y9744D01*
X-31001Y9481D01*
X-33071D01*
X-33372Y9356D01*
X-33497Y9055D01*
Y3150D01*
X-36516D01*
Y0D01*
X-33497D01*
Y-20866D01*
X-33372Y-21168D01*
X-33071Y-21292D01*
X-15748D01*
X-15447Y-21168D01*
X-15322Y-20866D01*
Y9055D01*
X-15447Y9356D01*
X-15748Y9481D01*
X-22424D01*
X-22815Y9744D01*
X-22815Y9981D01*
Y13366D01*
X-30610D01*
Y12594D01*
X-33366D01*
Y13386D01*
D02*
G37*
%LPD*%
G36*
X49416Y9428D02*
X48461Y8678D01*
X47449Y8199D01*
X46897Y8347D01*
X46016D01*
X45165Y8118D01*
X44402Y7678D01*
X43779Y7055D01*
X43338Y6292D01*
X43110Y5441D01*
Y-1181D01*
X26378Y-1181D01*
X26378Y17953D01*
X49408D01*
X49416Y9428D01*
D02*
G37*
G36*
X33604Y-3737D02*
X33644Y-3939D01*
X33842Y-4235D01*
X34203Y-4596D01*
Y-7992D01*
X36585D01*
Y-7874D01*
X44742D01*
X45165Y-8118D01*
X46016Y-8347D01*
X46897D01*
X47748Y-8118D01*
X48172Y-7874D01*
X50000D01*
Y-18898D01*
X26378D01*
Y-3150D01*
X33017D01*
X33604Y-3737D01*
D02*
G37*
G36*
X-15748Y-20866D02*
X-33071D01*
Y654D01*
X-30610D01*
Y-256D01*
X-22815D01*
Y3366D01*
X-30610D01*
Y2476D01*
X-33071D01*
Y9055D01*
X-15748D01*
Y-20866D01*
D02*
G37*
D10*
X27301Y19623D02*
Y21100D01*
X22104Y19038D02*
X26715D01*
X27301Y19623D01*
X14878Y11811D02*
X22104Y19038D01*
X27301Y21100D02*
X27598Y21398D01*
X24535Y-2094D02*
X33250D01*
X20866Y1575D02*
X24535Y-2094D01*
X5709Y1575D02*
X20866D01*
X33250Y-2094D02*
X34486Y-3331D01*
Y-3591D02*
Y-3331D01*
X35394Y-5650D02*
Y-4498D01*
X34486Y-3591D02*
X35394Y-4498D01*
X12008Y11811D02*
X14878D01*
X11614Y11417D02*
X12008Y11811D01*
X5709Y11417D02*
X11614D01*
X-4715Y11486D02*
X2097D01*
X2165Y11417D01*
X-4783Y11555D02*
X-4715Y11486D01*
X2156Y1565D02*
X2165Y1575D01*
X-4783Y1555D02*
X-4774Y1565D01*
X2156D01*
X-26722D02*
X-26713Y1555D01*
X-34941Y1575D02*
X-34931Y1565D01*
X-26722D01*
X-34813Y11683D02*
X-26841D01*
X-26713Y11555D01*
X-34941Y11811D02*
X-34813Y11683D01*
X-42889Y19437D02*
X-39075Y15623D01*
Y11811D02*
Y15623D01*
X-50024Y19437D02*
X-42889D01*
X-50894Y18567D02*
X-50024Y19437D01*
X-50894Y9437D02*
X-46457Y5000D01*
X-50894Y9437D02*
Y18567D01*
X-39075Y1575D02*
Y4937D01*
X-46457Y15000D02*
X-44004Y12547D01*
Y9866D02*
Y12547D01*
Y9866D02*
X-39075Y4937D01*
D13*
X-26713Y16555D02*
D03*
Y11555D02*
D03*
Y6555D02*
D03*
Y1555D02*
D03*
X-4783Y16555D02*
D03*
Y11555D02*
D03*
Y6555D02*
D03*
Y1555D02*
D03*
D14*
X35394Y21398D02*
D03*
X32795D02*
D03*
X30197D02*
D03*
X27598D02*
D03*
Y10098D02*
D03*
X30197D02*
D03*
X32795D02*
D03*
X35394D02*
D03*
X27598Y5650D02*
D03*
X30197D02*
D03*
X32795D02*
D03*
X35394D02*
D03*
Y-5650D02*
D03*
X32795D02*
D03*
X30197D02*
D03*
X27598D02*
D03*
D15*
X31496Y13553D02*
D03*
Y2195D02*
D03*
D16*
X-34941Y1575D02*
D03*
X-39075D02*
D03*
X-34941Y11811D02*
D03*
X-39075D02*
D03*
D17*
X19488D02*
D03*
X12008D02*
D03*
X15748Y19685D02*
D03*
D18*
X-17677Y-1969D02*
D03*
X-13819D02*
D03*
D19*
X-27264Y-14961D02*
D03*
X-4232D02*
D03*
D20*
X5709Y11417D02*
D03*
X2165D02*
D03*
Y1575D02*
D03*
X5709D02*
D03*
D29*
X46457Y15000D02*
D03*
X-46457D02*
D03*
D30*
X46457Y5000D02*
D03*
Y-5000D02*
D03*
Y-15000D02*
D03*
X-46457Y5000D02*
D03*
Y-5000D02*
D03*
Y-15000D02*
D03*
D31*
X41339Y-5906D02*
D03*
X39370Y-3937D02*
D03*
X29528Y-15748D02*
D03*
X33465D02*
D03*
X37402D02*
D03*
X41339D02*
D03*
X-11811Y-5906D02*
D03*
X-19685D02*
D03*
X-11811Y17717D02*
D03*
Y13780D02*
D03*
Y9843D02*
D03*
Y5906D02*
D03*
X-19685Y-17717D02*
D03*
Y-13780D02*
D03*
Y-9843D02*
D03*
Y5906D02*
D03*
M02*
