M48
;Layer_Color=9474304
;FILE_FORMAT=2:5
INCH,LZ
;TYPE=PLATED
T1F00S00C0.01181
T2F00S00C0.03543
%
T01
X-0019685Y-0017717
Y-001378
Y-0009843
Y-0005906
X-0011811
X0029528Y-0015748
X0033465
X0037402
X0041339
Y-0005906
X003937Y-0003937
X-0011811Y0005906
Y0009843
Y001378
Y0017717
X-0019685Y0005906
T02
X-0046457Y-0015
Y-0005
X0046457
Y-0015
Y0005
Y0015
X-0046457
Y0005
M30
