G04*
G04 #@! TF.GenerationSoftware,Altium Limited,Altium Designer,22.4.2 (48)*
G04*
G04 Layer_Color=128*
%FSLAX25Y25*%
%MOIN*%
G70*
G04*
G04 #@! TF.SameCoordinates,973ADB7D-B351-4DEC-92AE-D0A835D2328F*
G04*
G04*
G04 #@! TF.FilePolarity,Positive*
G04*
G01*
G75*
%ADD13R,0.07008X0.02835*%
%ADD14R,0.01595X0.03898*%
%ADD15R,0.08799X0.06791*%
%ADD16R,0.02362X0.02362*%
%ADD18R,0.02992X0.02835*%
%ADD19R,0.08661X0.09252*%
%ADD20R,0.02165X0.02165*%
%ADD32R,0.03543X0.03150*%
D13*
X-26713Y-16555D02*
D03*
Y-11555D02*
D03*
Y-6555D02*
D03*
Y-1555D02*
D03*
X-4783Y-16555D02*
D03*
Y-11555D02*
D03*
Y-6555D02*
D03*
Y-1555D02*
D03*
D14*
X27598Y6161D02*
D03*
X30197D02*
D03*
X32795D02*
D03*
X35394D02*
D03*
Y17461D02*
D03*
X32795D02*
D03*
X30197D02*
D03*
X27598D02*
D03*
X35394Y1713D02*
D03*
X32795D02*
D03*
X30197D02*
D03*
X27598D02*
D03*
Y-9587D02*
D03*
X30197D02*
D03*
X32795D02*
D03*
X35394D02*
D03*
D15*
X31496Y9616D02*
D03*
Y-1742D02*
D03*
D16*
X-34941Y-11811D02*
D03*
X-39075D02*
D03*
X-34941Y-1575D02*
D03*
X-39075D02*
D03*
D18*
X-13819Y1969D02*
D03*
X-17677D02*
D03*
D19*
X-27264Y14961D02*
D03*
X-4232D02*
D03*
D20*
X5709Y-1181D02*
D03*
X2165D02*
D03*
X5709Y-11417D02*
D03*
X2165D02*
D03*
D32*
X15695Y-12061D02*
D03*
Y-19541D02*
D03*
X23569Y-15801D02*
D03*
M02*
