G04*
G04 #@! TF.GenerationSoftware,Altium Limited,Altium Designer,22.4.2 (48)*
G04*
G04 Layer_Color=32896*
%FSLAX25Y25*%
%MOIN*%
G70*
G04*
G04 #@! TF.SameCoordinates,A57B437F-A86B-4AA4-8399-F8B01B8E29F7*
G04*
G04*
G04 #@! TF.FilePolarity,Positive*
G04*
G01*
G75*
%ADD10C,0.01000*%
%ADD11C,0.00787*%
%ADD12C,0.00394*%
D10*
X37500Y5807D02*
Y17815D01*
X25492Y5807D02*
Y17815D01*
Y-9941D02*
Y2067D01*
X37500Y-9941D02*
Y2067D01*
D11*
X18943Y-21707D02*
X22388D01*
X16876Y-16490D02*
Y-15112D01*
X18943Y-9896D02*
X22388D01*
Y-12750D02*
Y-9896D01*
Y-21707D02*
Y-18852D01*
D12*
X22145Y5248D02*
X20834D01*
X20506Y5576D01*
Y6232D01*
X20834Y6560D01*
X22145D01*
X22474Y6232D01*
Y5576D01*
X21817Y5904D02*
X22474Y5248D01*
Y5576D02*
X22145Y5248D01*
X22474Y3280D02*
Y4592D01*
X21162Y3280D01*
X20834D01*
X20506Y3608D01*
Y4264D01*
X20834Y4592D01*
X22802Y2624D02*
Y1312D01*
X22474Y656D02*
X20506D01*
X21162Y0D01*
X20506Y-656D01*
X22474D01*
Y-1312D02*
X21162D01*
X20506Y-1968D01*
X21162Y-2624D01*
X22474D01*
X21489D01*
Y-1312D01*
X20506Y-3280D02*
X22474D01*
X21489D01*
Y-4592D01*
X20506D01*
X22474D01*
X20506Y-5248D02*
X22474D01*
Y-6232D01*
X22145Y-6560D01*
X21817D01*
X21489Y-6232D01*
Y-5248D01*
Y-6232D01*
X21162Y-6560D01*
X20834D01*
X20506Y-6232D01*
Y-5248D01*
X-6204Y-21293D02*
X-6860D01*
X-6532D01*
Y-23261D01*
X-6204D01*
X-6860D01*
X-7844D02*
Y-21293D01*
X-8828D01*
X-9156Y-21621D01*
Y-22277D01*
X-8828Y-22605D01*
X-7844D01*
X-8500D02*
X-9156Y-23261D01*
X-10796D02*
Y-21293D01*
X-9812Y-22277D01*
X-11124D01*
X-12764Y-23261D02*
Y-21293D01*
X-11780Y-22277D01*
X-13092D01*
X-15059Y-23261D02*
X-13748D01*
X-15059Y-21949D01*
Y-21621D01*
X-14732Y-21293D01*
X-14076D01*
X-13748Y-21621D01*
X-15716Y-21293D02*
X-17027D01*
Y-21621D01*
X-15716Y-22933D01*
Y-23261D01*
X-17683Y-23589D02*
X-18995D01*
X-19651Y-23261D02*
Y-21293D01*
X-20307Y-21949D01*
X-20963Y-21293D01*
Y-23261D01*
X-21619D02*
Y-21949D01*
X-22275Y-21293D01*
X-22931Y-21949D01*
Y-23261D01*
Y-22277D01*
X-21619D01*
X-23587Y-21293D02*
Y-23261D01*
Y-22277D01*
X-24899D01*
Y-21293D01*
Y-23261D01*
X-25555Y-21293D02*
Y-23261D01*
X-26539D01*
X-26867Y-22933D01*
Y-22605D01*
X-26539Y-22277D01*
X-25555D01*
X-26539D01*
X-26867Y-21949D01*
Y-21621D01*
X-26539Y-21293D01*
X-25555D01*
X4757Y9713D02*
X5085Y9385D01*
Y8729D01*
X4757Y8401D01*
X3445D01*
X3117Y8729D01*
Y9385D01*
X3445Y9713D01*
X3117Y11681D02*
Y10369D01*
X4429Y11681D01*
X4757D01*
X5085Y11353D01*
Y10697D01*
X4757Y10369D01*
X2789Y12337D02*
Y13649D01*
X3117Y14305D02*
X5085D01*
X4429Y14961D01*
X5085Y15617D01*
X3117D01*
Y16273D02*
X4429D01*
X5085Y16928D01*
X4429Y17584D01*
X3117D01*
X4101D01*
Y16273D01*
X5085Y18240D02*
X3117D01*
X4101D01*
Y19552D01*
X5085D01*
X3117D01*
X5085Y20208D02*
X3117D01*
Y21192D01*
X3445Y21520D01*
X3773D01*
X4101Y21192D01*
Y20208D01*
Y21192D01*
X4429Y21520D01*
X4757D01*
X5085Y21192D01*
Y20208D01*
X16008Y2330D02*
Y4298D01*
X15024D01*
X14696Y3970D01*
Y3314D01*
X15024Y2986D01*
X16008D01*
X15352D02*
X14696Y2330D01*
X12729Y4298D02*
X14040D01*
Y3314D01*
X13385Y3642D01*
X13057D01*
X12729Y3314D01*
Y2658D01*
X13057Y2330D01*
X13713D01*
X14040Y2658D01*
X12073Y2002D02*
X10761D01*
X10105Y2330D02*
Y4298D01*
X9449Y3642D01*
X8793Y4298D01*
Y2330D01*
X8137D02*
Y3642D01*
X7481Y4298D01*
X6825Y3642D01*
Y2330D01*
Y3314D01*
X8137D01*
X6169Y4298D02*
Y2330D01*
Y3314D01*
X4857D01*
Y4298D01*
Y2330D01*
X4201Y4298D02*
Y2330D01*
X3217D01*
X2889Y2658D01*
Y2986D01*
X3217Y3314D01*
X4201D01*
X3217D01*
X2889Y3642D01*
Y3970D01*
X3217Y4298D01*
X4201D01*
X22145Y20832D02*
X20834D01*
X20506Y21160D01*
Y21816D01*
X20834Y22144D01*
X22145D01*
X22474Y21816D01*
Y21160D01*
X21817Y21488D02*
X22474Y20832D01*
Y21160D02*
X22145Y20832D01*
X22474Y20176D02*
Y19520D01*
Y19848D01*
X20506D01*
X20834Y20176D01*
X22802Y18536D02*
Y17224D01*
X22474Y16568D02*
X20506D01*
X21162Y15912D01*
X20506Y15256D01*
X22474D01*
Y14600D02*
X21162D01*
X20506Y13944D01*
X21162Y13288D01*
X22474D01*
X21489D01*
Y14600D01*
X20506Y12632D02*
X22474D01*
X21489D01*
Y11320D01*
X20506D01*
X22474D01*
X20506Y10664D02*
X22474D01*
Y9680D01*
X22145Y9352D01*
X21817D01*
X21489Y9680D01*
Y10664D01*
Y9680D01*
X21162Y9352D01*
X20834D01*
X20506Y9680D01*
Y10664D01*
X15221Y-7907D02*
Y-5939D01*
X14237D01*
X13909Y-6267D01*
Y-6923D01*
X14237Y-7251D01*
X15221D01*
X14565D02*
X13909Y-7907D01*
X12269D02*
Y-5939D01*
X13253Y-6923D01*
X11941D01*
X11285Y-8235D02*
X9973D01*
X9317Y-7907D02*
Y-5939D01*
X8661Y-6595D01*
X8005Y-5939D01*
Y-7907D01*
X7350D02*
Y-6595D01*
X6694Y-5939D01*
X6038Y-6595D01*
Y-7907D01*
Y-6923D01*
X7350D01*
X5382Y-5939D02*
Y-7907D01*
Y-6923D01*
X4070D01*
Y-5939D01*
Y-7907D01*
X3414Y-5939D02*
Y-7907D01*
X2430D01*
X2102Y-7579D01*
Y-7251D01*
X2430Y-6923D01*
X3414D01*
X2430D01*
X2102Y-6595D01*
Y-6267D01*
X2430Y-5939D01*
X3414D01*
X-38221Y2102D02*
X-36254D01*
Y3086D01*
X-36582Y3414D01*
X-37238D01*
X-37566Y3086D01*
Y2102D01*
Y2758D02*
X-38221Y3414D01*
Y5382D02*
Y4070D01*
X-36910Y5382D01*
X-36582D01*
X-36254Y5054D01*
Y4398D01*
X-36582Y4070D01*
X-38550Y6038D02*
Y7350D01*
X-38221Y8005D02*
X-36254D01*
X-36910Y8661D01*
X-36254Y9317D01*
X-38221D01*
Y9973D02*
X-36910D01*
X-36254Y10629D01*
X-36910Y11285D01*
X-38221D01*
X-37238D01*
Y9973D01*
X-36254Y11941D02*
X-38221D01*
X-37238D01*
Y13253D01*
X-36254D01*
X-38221D01*
X-36254Y13909D02*
X-38221D01*
Y14893D01*
X-37894Y15221D01*
X-37566D01*
X-37238Y14893D01*
Y13909D01*
Y14893D01*
X-36910Y15221D01*
X-36582D01*
X-36254Y14893D01*
Y13909D01*
X-37828Y-27262D02*
X-35860D01*
Y-26278D01*
X-36188Y-25950D01*
X-36844D01*
X-37172Y-26278D01*
Y-27262D01*
Y-26606D02*
X-37828Y-25950D01*
Y-25294D02*
Y-24638D01*
Y-24966D01*
X-35860D01*
X-36188Y-25294D01*
X-38156Y-23654D02*
Y-22342D01*
X-37828Y-21686D02*
X-35860D01*
X-36516Y-21030D01*
X-35860Y-20374D01*
X-37828D01*
Y-19718D02*
X-36516D01*
X-35860Y-19062D01*
X-36516Y-18406D01*
X-37828D01*
X-36844D01*
Y-19718D01*
X-35860Y-17750D02*
X-37828D01*
X-36844D01*
Y-16439D01*
X-35860D01*
X-37828D01*
X-35860Y-15782D02*
X-37828D01*
Y-14799D01*
X-37500Y-14471D01*
X-37172D01*
X-36844Y-14799D01*
Y-15782D01*
Y-14799D01*
X-36516Y-14471D01*
X-36188D01*
X-35860Y-14799D01*
Y-15782D01*
X24900Y-24049D02*
Y-26017D01*
X23916D01*
X23588Y-25689D01*
Y-24377D01*
X23916Y-24049D01*
X24900D01*
X22932Y-26017D02*
X22276D01*
X22604D01*
Y-24049D01*
X22932Y-24377D01*
X21292Y-26345D02*
X19980D01*
X19324Y-26017D02*
Y-24049D01*
X18668Y-24705D01*
X18012Y-24049D01*
Y-26017D01*
X17356D02*
Y-24705D01*
X16700Y-24049D01*
X16044Y-24705D01*
Y-26017D01*
Y-25033D01*
X17356D01*
X15388Y-24049D02*
Y-26017D01*
Y-25033D01*
X14076D01*
Y-24049D01*
Y-26017D01*
X13420Y-24049D02*
Y-26017D01*
X12436D01*
X12108Y-25689D01*
Y-25361D01*
X12436Y-25033D01*
X13420D01*
X12436D01*
X12108Y-24705D01*
Y-24377D01*
X12436Y-24049D01*
X13420D01*
M02*
