G04*
G04 #@! TF.GenerationSoftware,Altium Limited,Altium Designer,22.4.2 (48)*
G04*
G04 Layer_Color=65535*
%FSLAX25Y25*%
%MOIN*%
G70*
G04*
G04 #@! TF.SameCoordinates,A57B437F-A86B-4AA4-8399-F8B01B8E29F7*
G04*
G04*
G04 #@! TF.FilePolarity,Positive*
G04*
G01*
G75*
%ADD10C,0.01000*%
%ADD11C,0.00787*%
%ADD12C,0.00394*%
D10*
X37500Y9744D02*
Y21752D01*
X25492Y9744D02*
Y21752D01*
X37500Y-6004D02*
Y6004D01*
X25492Y-6004D02*
Y6004D01*
D11*
X9843Y15059D02*
Y18504D01*
X15059Y12992D02*
X16437D01*
X21654Y15059D02*
Y18504D01*
X18799D02*
X21654D01*
X9843D02*
X12697D01*
D12*
X53084Y-16011D02*
X52757Y-16339D01*
Y-16995D01*
X53084Y-17323D01*
X54396D01*
X54724Y-16995D01*
Y-16339D01*
X54396Y-16011D01*
X53741D01*
Y-16667D01*
X54724Y-15355D02*
X52757D01*
X54724Y-14043D01*
X52757D01*
Y-13387D02*
X54724D01*
Y-12403D01*
X54396Y-12075D01*
X53084D01*
X52757Y-12403D01*
Y-13387D01*
X52757Y-7480D02*
X54068D01*
X54724Y-6824D01*
X54068Y-6168D01*
X52757D01*
X53084Y-4201D02*
X52757Y-4529D01*
Y-5184D01*
X53084Y-5513D01*
X54396D01*
X54724Y-5184D01*
Y-4529D01*
X54396Y-4201D01*
X53084Y-2233D02*
X52757Y-2561D01*
Y-3217D01*
X53084Y-3545D01*
X54396D01*
X54724Y-3217D01*
Y-2561D01*
X54396Y-2233D01*
X54724Y2362D02*
X53412D01*
X52757Y3018D01*
X53412Y3674D01*
X54724D01*
X53741D01*
Y2362D01*
X52757Y5314D02*
Y4658D01*
X53084Y4330D01*
X54396D01*
X54724Y4658D01*
Y5314D01*
X54396Y5642D01*
X53084D01*
X52757Y5314D01*
Y6298D02*
X54396D01*
X54724Y6626D01*
Y7282D01*
X54396Y7610D01*
X52757D01*
Y8266D02*
Y9578D01*
Y8922D01*
X54724D01*
X52757Y12205D02*
X54724D01*
Y13189D01*
X54396Y13517D01*
X54068D01*
X53741Y13189D01*
Y12205D01*
Y13189D01*
X53412Y13517D01*
X53084D01*
X52757Y13189D01*
Y12205D01*
Y15157D02*
Y14501D01*
X53084Y14173D01*
X54396D01*
X54724Y14501D01*
Y15157D01*
X54396Y15484D01*
X53084D01*
X52757Y15157D01*
Y16140D02*
X54396D01*
X54724Y16468D01*
Y17124D01*
X54396Y17452D01*
X52757D01*
Y18108D02*
Y19420D01*
Y18764D01*
X54724D01*
X-50788Y15354D02*
X-52756D01*
Y14370D01*
X-52428Y14042D01*
X-52100D01*
X-51772Y14370D01*
Y15354D01*
Y14370D01*
X-51444Y14042D01*
X-51116D01*
X-50788Y14370D01*
Y15354D01*
Y13386D02*
X-52756D01*
Y12075D01*
X-50788Y5512D02*
X-52756D01*
Y4528D01*
X-52428Y4200D01*
X-52100D01*
X-51772Y4528D01*
Y5512D01*
Y4528D01*
X-51444Y4200D01*
X-51116D01*
X-50788Y4528D01*
Y5512D01*
Y3544D02*
X-52756D01*
X-51772D01*
Y2232D01*
X-50788D01*
X-52756D01*
X-52756Y-4331D02*
X-51444D01*
X-50788Y-4987D01*
X-51444Y-5643D01*
X-52756D01*
X-51772D01*
Y-4331D01*
X-50788Y-6299D02*
X-52756D01*
Y-7610D01*
Y-14173D02*
X-51444D01*
X-50788Y-14829D01*
X-51444Y-15485D01*
X-52756D01*
X-51772D01*
Y-14173D01*
X-50788Y-16141D02*
X-52756D01*
X-51772D01*
Y-17453D01*
X-50788D01*
X-52756D01*
X40815Y23918D02*
Y25229D01*
X40487Y25557D01*
X39831D01*
X39503Y25229D01*
Y23918D01*
X39831Y23589D01*
X40487D01*
X40159Y24246D02*
X40815Y23589D01*
X40487D02*
X40815Y23918D01*
X42783Y23589D02*
X41471D01*
X42783Y24901D01*
Y25229D01*
X42455Y25557D01*
X41799D01*
X41471Y25229D01*
X43439Y23261D02*
X44751D01*
X45407Y23589D02*
Y25557D01*
X46063Y24901D01*
X46719Y25557D01*
Y23589D01*
X47375Y25557D02*
Y23589D01*
X48359D01*
X48687Y23918D01*
Y24246D01*
X48359Y24573D01*
X47375D01*
X48359D01*
X48687Y24901D01*
Y25229D01*
X48359Y25557D01*
X47375D01*
X49343D02*
Y23589D01*
Y24573D01*
X50655D01*
Y25557D01*
Y23589D01*
X51311Y25557D02*
Y23589D01*
X52295D01*
X52622Y23918D01*
Y24246D01*
X52295Y24573D01*
X51311D01*
X52295D01*
X52622Y24901D01*
Y25229D01*
X52295Y25557D01*
X51311D01*
X-38221Y-2102D02*
X-36254D01*
Y-3086D01*
X-36582Y-3414D01*
X-37238D01*
X-37566Y-3086D01*
Y-2102D01*
Y-2758D02*
X-38221Y-3414D01*
Y-5382D02*
Y-4070D01*
X-36910Y-5382D01*
X-36582D01*
X-36254Y-5054D01*
Y-4398D01*
X-36582Y-4070D01*
X-38550Y-6038D02*
Y-7350D01*
X-38221Y-8005D02*
X-36254D01*
X-36910Y-8661D01*
X-36254Y-9317D01*
X-38221D01*
X-36254Y-9973D02*
X-38221D01*
Y-10957D01*
X-37894Y-11285D01*
X-37566D01*
X-37238Y-10957D01*
Y-9973D01*
Y-10957D01*
X-36910Y-11285D01*
X-36582D01*
X-36254Y-10957D01*
Y-9973D01*
Y-11941D02*
X-38221D01*
X-37238D01*
Y-13253D01*
X-36254D01*
X-38221D01*
X-36254Y-13909D02*
X-38221D01*
Y-14893D01*
X-37894Y-15221D01*
X-37566D01*
X-37238Y-14893D01*
Y-13909D01*
Y-14893D01*
X-36910Y-15221D01*
X-36582D01*
X-36254Y-14893D01*
Y-13909D01*
X-30725Y22959D02*
X-30069D01*
X-30397D01*
Y20991D01*
X-30725D01*
X-30069D01*
X-29085D02*
Y22959D01*
X-28101D01*
X-27773Y22631D01*
Y21975D01*
X-28101Y21647D01*
X-29085D01*
X-28429D02*
X-27773Y20991D01*
X-26133D02*
Y22959D01*
X-27117Y21975D01*
X-25805D01*
X-24165Y20991D02*
Y22959D01*
X-25149Y21975D01*
X-23837D01*
X-21870Y20991D02*
X-23181D01*
X-21870Y22303D01*
Y22631D01*
X-22198Y22959D01*
X-22853D01*
X-23181Y22631D01*
X-21214Y22959D02*
X-19902D01*
Y22631D01*
X-21214Y21319D01*
Y20991D01*
X-19246Y20663D02*
X-17934D01*
X-17278Y20991D02*
Y22959D01*
X-16622Y22303D01*
X-15966Y22959D01*
Y20991D01*
X-15310Y22959D02*
Y20991D01*
X-14326D01*
X-13998Y21319D01*
Y21647D01*
X-14326Y21975D01*
X-15310D01*
X-14326D01*
X-13998Y22303D01*
Y22631D01*
X-14326Y22959D01*
X-15310D01*
X-13342D02*
Y20991D01*
Y21975D01*
X-12030D01*
Y22959D01*
Y20991D01*
X-11374Y22959D02*
Y20991D01*
X-10390D01*
X-10062Y21319D01*
Y21647D01*
X-10390Y21975D01*
X-11374D01*
X-10390D01*
X-10062Y22303D01*
Y22631D01*
X-10390Y22959D01*
X-11374D01*
X22145Y-5477D02*
X20834D01*
X20506Y-5805D01*
Y-6461D01*
X20834Y-6789D01*
X22145D01*
X22474Y-6461D01*
Y-5805D01*
X21817Y-6133D02*
X22474Y-5477D01*
Y-5805D02*
X22145Y-5477D01*
X22474Y-4821D02*
Y-4165D01*
Y-4493D01*
X20506D01*
X20834Y-4821D01*
X22801Y-3181D02*
Y-1870D01*
X22474Y-1214D02*
X20506D01*
X21162Y-558D01*
X20506Y98D01*
X22474D01*
X20506Y754D02*
X22474D01*
Y1738D01*
X22145Y2066D01*
X21817D01*
X21489Y1738D01*
Y754D01*
Y1738D01*
X21162Y2066D01*
X20834D01*
X20506Y1738D01*
Y754D01*
Y2722D02*
X22474D01*
X21489D01*
Y4034D01*
X20506D01*
X22474D01*
X20506Y4690D02*
X22474D01*
Y5674D01*
X22145Y6002D01*
X21817D01*
X21489Y5674D01*
Y4690D01*
Y5674D01*
X21162Y6002D01*
X20834D01*
X20506Y5674D01*
Y4690D01*
X1314Y-2788D02*
Y-821D01*
X2298D01*
X2626Y-1149D01*
Y-1805D01*
X2298Y-2132D01*
X1314D01*
X1970D02*
X2626Y-2788D01*
X4594Y-821D02*
X3282D01*
Y-1805D01*
X3938Y-1476D01*
X4266D01*
X4594Y-1805D01*
Y-2461D01*
X4266Y-2788D01*
X3610D01*
X3282Y-2461D01*
X5250Y-3116D02*
X6562D01*
X7218Y-2788D02*
Y-821D01*
X7874Y-1476D01*
X8530Y-821D01*
Y-2788D01*
X9186Y-821D02*
Y-2788D01*
X10170D01*
X10498Y-2461D01*
Y-2132D01*
X10170Y-1805D01*
X9186D01*
X10170D01*
X10498Y-1476D01*
Y-1149D01*
X10170Y-821D01*
X9186D01*
X11154D02*
Y-2788D01*
Y-1805D01*
X12466D01*
Y-821D01*
Y-2788D01*
X13122Y-821D02*
Y-2788D01*
X14106D01*
X14434Y-2461D01*
Y-2132D01*
X14106Y-1805D01*
X13122D01*
X14106D01*
X14434Y-1476D01*
Y-1149D01*
X14106Y-821D01*
X13122D01*
X2102Y5873D02*
Y7841D01*
X3086D01*
X3414Y7513D01*
Y6857D01*
X3086Y6529D01*
X2102D01*
X2758D02*
X3414Y5873D01*
X5054D02*
Y7841D01*
X4070Y6857D01*
X5382D01*
X6038Y5545D02*
X7350D01*
X8005Y5873D02*
Y7841D01*
X8661Y7185D01*
X9317Y7841D01*
Y5873D01*
X9973Y7841D02*
Y5873D01*
X10957D01*
X11285Y6201D01*
Y6529D01*
X10957Y6857D01*
X9973D01*
X10957D01*
X11285Y7185D01*
Y7513D01*
X10957Y7841D01*
X9973D01*
X11941D02*
Y5873D01*
Y6857D01*
X13253D01*
Y7841D01*
Y5873D01*
X13909Y7841D02*
Y5873D01*
X14893D01*
X15221Y6201D01*
Y6529D01*
X14893Y6857D01*
X13909D01*
X14893D01*
X15221Y7185D01*
Y7513D01*
X14893Y7841D01*
X13909D01*
X-38221Y27262D02*
X-36254D01*
Y26278D01*
X-36582Y25950D01*
X-37238D01*
X-37566Y26278D01*
Y27262D01*
Y26606D02*
X-38221Y25950D01*
Y25294D02*
Y24638D01*
Y24966D01*
X-36254D01*
X-36582Y25294D01*
X-38550Y23654D02*
Y22342D01*
X-38221Y21686D02*
X-36254D01*
X-36910Y21030D01*
X-36254Y20374D01*
X-38221D01*
X-36254Y19718D02*
X-38221D01*
Y18734D01*
X-37894Y18406D01*
X-37566D01*
X-37238Y18734D01*
Y19718D01*
Y18734D01*
X-36910Y18406D01*
X-36582D01*
X-36254Y18734D01*
Y19718D01*
Y17750D02*
X-38221D01*
X-37238D01*
Y16438D01*
X-36254D01*
X-38221D01*
X-36254Y15782D02*
X-38221D01*
Y14799D01*
X-37894Y14471D01*
X-37566D01*
X-37238Y14799D01*
Y15782D01*
Y14799D01*
X-36910Y14471D01*
X-36582D01*
X-36254Y14799D01*
Y15782D01*
X5809Y25164D02*
Y23196D01*
X6793D01*
X7121Y23524D01*
Y24836D01*
X6793Y25164D01*
X5809D01*
X7777Y23196D02*
X8433D01*
X8105D01*
Y25164D01*
X7777Y24836D01*
X9417Y22868D02*
X10729D01*
X11385Y23196D02*
Y25164D01*
X12041Y24508D01*
X12697Y25164D01*
Y23196D01*
X13353Y25164D02*
Y23196D01*
X14337D01*
X14664Y23524D01*
Y23852D01*
X14337Y24180D01*
X13353D01*
X14337D01*
X14664Y24508D01*
Y24836D01*
X14337Y25164D01*
X13353D01*
X15321D02*
Y23196D01*
Y24180D01*
X16632D01*
Y25164D01*
Y23196D01*
X17288Y25164D02*
Y23196D01*
X18272D01*
X18600Y23524D01*
Y23852D01*
X18272Y24180D01*
X17288D01*
X18272D01*
X18600Y24508D01*
Y24836D01*
X18272Y25164D01*
X17288D01*
X-10366Y-22408D02*
X-10694Y-22080D01*
X-11350D01*
X-11678Y-22408D01*
Y-23720D01*
X-11350Y-24048D01*
X-10694D01*
X-10366Y-23720D01*
X-8398Y-24048D02*
X-9710D01*
X-8398Y-22736D01*
Y-22408D01*
X-8726Y-22080D01*
X-9382D01*
X-9710Y-22408D01*
X-7742Y-24376D02*
X-6430D01*
X-5774Y-24048D02*
Y-22080D01*
X-5118Y-22736D01*
X-4462Y-22080D01*
Y-24048D01*
X-3806Y-22080D02*
Y-24048D01*
X-2822D01*
X-2494Y-23720D01*
Y-23392D01*
X-2822Y-23064D01*
X-3806D01*
X-2822D01*
X-2494Y-22736D01*
Y-22408D01*
X-2822Y-22080D01*
X-3806D01*
X-1838D02*
Y-24048D01*
Y-23064D01*
X-526D01*
Y-22080D01*
Y-24048D01*
X129Y-22080D02*
Y-24048D01*
X1113D01*
X1441Y-23720D01*
Y-23392D01*
X1113Y-23064D01*
X129D01*
X1113D01*
X1441Y-22736D01*
Y-22408D01*
X1113Y-22080D01*
X129D01*
X58399Y-7215D02*
X58071Y-7543D01*
Y-8199D01*
X58399Y-8527D01*
X59711D01*
X60039Y-8199D01*
Y-7543D01*
X59711Y-7215D01*
X58071Y-5576D02*
Y-6232D01*
X58399Y-6560D01*
X59711D01*
X60039Y-6232D01*
Y-5576D01*
X59711Y-5248D01*
X58399D01*
X58071Y-5576D01*
X60039Y-4592D02*
X58071D01*
X60039Y-3280D01*
X58071D01*
X59055Y-2624D02*
Y-1312D01*
X60039Y-656D02*
X58071D01*
X58727Y0D01*
X58071Y656D01*
X60039D01*
X58071Y2296D02*
Y1640D01*
X58399Y1312D01*
X59711D01*
X60039Y1640D01*
Y2296D01*
X59711Y2624D01*
X58399D01*
X58071Y2296D01*
Y3280D02*
Y4592D01*
Y3936D01*
X60039D01*
X58071Y6232D02*
Y5576D01*
X58399Y5248D01*
X59711D01*
X60039Y5576D01*
Y6232D01*
X59711Y6560D01*
X58399D01*
X58071Y6232D01*
X60039Y7215D02*
X58071D01*
Y8199D01*
X58399Y8527D01*
X59055D01*
X59383Y8199D01*
Y7215D01*
Y7871D02*
X60039Y8527D01*
X-51508Y-22966D02*
X-51836Y-22638D01*
X-52492D01*
X-52820Y-22966D01*
Y-24278D01*
X-52492Y-24606D01*
X-51836D01*
X-51508Y-24278D01*
X-49868Y-22638D02*
X-50524D01*
X-50852Y-22966D01*
Y-24278D01*
X-50524Y-24606D01*
X-49868D01*
X-49540Y-24278D01*
Y-22966D01*
X-49868Y-22638D01*
X-48884Y-24606D02*
Y-22638D01*
X-47572Y-24606D01*
Y-22638D01*
X-46916Y-23622D02*
X-45604D01*
X-44948Y-24606D02*
Y-22638D01*
X-44292Y-23294D01*
X-43636Y-22638D01*
Y-24606D01*
X-41668Y-22966D02*
X-41996Y-22638D01*
X-42652D01*
X-42980Y-22966D01*
Y-24278D01*
X-42652Y-24606D01*
X-41996D01*
X-41668Y-24278D01*
M02*
